<svg width="28" height="28" viewBox="0 0 28 28" fill="none" xmlns="http://www.w3.org/2000/svg">
<path d="M23.7187 5.67497C21.9061 4.89249 19.9681 4.32379 17.9421 4C17.6932 4.41511 17.4025 4.97343 17.2021 5.4176C15.0482 5.11872 12.9142 5.11872 10.8 5.4176C10.5996 4.97343 10.3023 4.41511 10.0513 4C8.02293 4.32379 6.08271 4.89456 4.27023 5.67912C0.614417 10.7767 -0.376613 15.7477 0.118903 20.648C2.54363 22.3188 4.89347 23.3337 7.20367 23.9979C7.77407 23.2736 8.2828 22.5036 8.72106 21.692C7.88639 21.3993 7.08696 21.0382 6.33156 20.6189C6.53197 20.482 6.72798 20.3387 6.91738 20.1914C11.5246 22.1797 16.5304 22.1797 21.0826 20.1914C21.2741 20.3387 21.4701 20.482 21.6683 20.6189C20.9107 21.0402 20.1091 21.4014 19.2744 21.6941C19.7127 22.5036 20.2192 23.2757 20.7918 24C23.1042 23.3358 25.4563 22.3209 27.881 20.648C28.4624 14.9672 26.8878 10.0419 23.7187 5.67497ZM9.34871 17.6343C7.96567 17.6343 6.83149 16.4429 6.83149 14.9922C6.83149 13.5413 7.94144 12.3479 9.34871 12.3479C10.756 12.3479 11.8901 13.5392 11.8659 14.9922C11.8682 16.4429 10.756 17.6343 9.34871 17.6343ZM18.6512 17.6343C17.2682 17.6343 16.1339 16.4429 16.1339 14.9922C16.1339 13.5413 17.2439 12.3479 18.6512 12.3479C20.0584 12.3479 21.1926 13.5392 21.1684 14.9922C21.1684 16.4429 20.0584 17.6343 18.6512 17.6343Z" fill="#B9B5CE"/>
</svg>
