<svg width="28" height="28" viewBox="0 0 28 28" fill="none" xmlns="http://www.w3.org/2000/svg">
<path d="M14 2C7.374 2 2 7.50883 2 14.3034C2 19.7394 5.438 24.3511 10.207 25.9782C10.806 26.092 11 25.7106 11 25.3866V23.0961C7.662 23.8405 6.967 21.6443 6.967 21.6443C6.421 20.2223 5.634 19.844 5.634 19.844C4.545 19.0802 5.717 19.0965 5.717 19.0965C6.922 19.1826 7.556 20.3648 7.556 20.3648C8.626 22.2451 10.363 21.7017 11.048 21.387C11.155 20.5924 11.466 20.049 11.81 19.7425C9.145 19.4298 6.343 18.3747 6.343 13.6615C6.343 12.3174 6.812 11.2203 7.579 10.3591C7.455 10.0484 7.044 8.79658 7.696 7.10281C7.696 7.10281 8.704 6.77267 10.997 8.3639C11.954 8.09118 12.98 7.95482 14 7.94969C15.02 7.95482 16.047 8.09118 17.006 8.3639C19.297 6.77267 20.303 7.10281 20.303 7.10281C20.956 8.7976 20.545 10.0495 20.421 10.3591C21.191 11.2203 21.656 12.3184 21.656 13.6615C21.656 18.387 18.849 19.4277 16.177 19.7322C16.607 20.1136 17 20.862 17 22.0104V25.3866C17 25.7137 17.192 26.0982 17.801 25.9772C22.566 24.348 26 19.7373 26 14.3034C26 7.50883 20.627 2 14 2Z" fill="#B9B5CE"/>
</svg>
