<svg width="28" height="28" viewBox="0 0 28 28" fill="none" xmlns="http://www.w3.org/2000/svg">
<path fill-rule="evenodd" clip-rule="evenodd" d="M27 5.48465C26.043 5.90627 25.0162 6.19222 23.9374 6.31988C25.0389 5.66396 25.8822 4.62359 26.2818 3.38771C25.2485 3.99513 24.108 4.43619 22.8927 4.6753C21.9196 3.64299 20.5353 3 18.9998 3C16.0543 3 13.6661 5.37481 13.6661 8.30212C13.6661 8.71728 13.7132 9.12278 13.8042 9.51054C9.37201 9.28918 5.44188 7.17772 2.8115 3.96929C2.3517 4.7512 2.09014 5.66232 2.09014 6.63489C2.09014 8.47498 3.03246 10.0986 4.4622 11.0484C3.5881 11.0194 2.76601 10.7803 2.04628 10.3829V10.4491C2.04628 13.0178 3.88545 15.1615 6.3241 15.6494C5.8773 15.7691 5.40615 15.8353 4.91873 15.8353C4.57431 15.8353 4.24125 15.8013 3.91468 15.7367C4.59377 17.8449 6.56294 19.3781 8.89601 19.42C7.07147 20.8417 4.7709 21.6866 2.27213 21.6866C1.8416 21.6866 1.41753 21.6608 1 21.614C3.36069 23.1212 6.1633 24 9.17547 24C18.987 24 24.3502 15.9192 24.3502 8.91119L24.3322 8.2246C25.3802 7.48141 26.2867 6.54766 27 5.48465Z" fill="#B9B5CE"/>
</svg>
