<svg viewBox="0 0 118 128" fill="currentColor" xmlns="http://www.w3.org/2000/svg">
<path d="M65.584 65.1489V57.1489H58.584C56.9271 57.1489 55.584 55.8058 55.584 54.1489C55.584 52.4921 56.9271 51.1489 58.584 51.1489H67.584C69.7931 51.1489 71.584 52.9398 71.584 55.1489V65.1489C71.584 66.8058 70.2408 68.1489 68.584 68.1489C66.9271 68.1489 65.584 66.8058 65.584 65.1489Z" />
<path fill-rule="evenodd" clip-rule="evenodd" d="M44.1327 86.925V93.4529C44.1327 95.1098 45.4758 96.4529 47.1327 96.4529C48.7895 96.4529 50.1327 95.1098 50.1327 93.4529V86.925H56.0846V93.4529C56.0846 95.1098 57.4277 96.4529 59.0846 96.4529C60.7414 96.4529 62.0846 95.1098 62.0846 93.4529V86.925H68.0365V93.4529C68.0365 95.1098 69.3797 96.4529 71.0365 96.4529C72.6934 96.4529 74.0365 95.1098 74.0365 93.4529V86.925H74.9012C78.7672 86.925 81.9012 83.791 81.9012 79.925V79.0449C81.901 79.0449 81.9014 79.0449 81.9012 79.0449H88.4211C90.078 79.0449 91.4211 77.7018 91.4211 76.0449C91.4211 74.3881 90.078 73.0449 88.4211 73.0449H81.9019C81.9021 73.0449 81.9017 73.0449 81.9019 73.0449L81.9012 67.0769C81.901 67.0769 81.9014 67.0769 81.9012 67.0769H88.4211C90.078 67.0769 91.4211 65.7338 91.4211 64.0769C91.4211 62.4201 90.078 61.0769 88.4211 61.0769H81.9019C81.9021 61.0769 81.9017 61.0769 81.9019 61.0769L81.9012 55.1089C81.901 55.1089 81.9014 55.1089 81.9012 55.1089H88.4211C90.078 55.1089 91.4211 53.7658 91.4211 52.1089C91.4211 50.4521 90.078 49.1089 88.4211 49.1089H81.9019C81.9021 49.1089 81.9017 49.1089 81.9019 49.1089L81.9012 48.229C81.9012 44.363 78.7672 41.229 74.9012 41.229H74.0365C74.0365 41.229 74.0365 41.229 74.0365 41.229V34.7009C74.0365 33.0441 72.6934 31.7009 71.0365 31.7009C69.3797 31.7009 68.0365 33.0441 68.0365 34.7009V41.2289C68.0365 41.2289 68.0365 41.229 68.0365 41.2289L62.0846 41.229C62.0846 41.229 62.0846 41.229 62.0846 41.229V34.7009C62.0846 33.0441 60.7414 31.7009 59.0846 31.7009C57.4277 31.7009 56.0846 33.0441 56.0846 34.7009V41.2289C56.0846 41.2289 56.0846 41.229 56.0846 41.2289L50.1327 41.229C50.1327 41.229 50.1327 41.229 50.1327 41.229V34.7009C50.1327 33.0441 48.7895 31.7009 47.1327 31.7009C45.4758 31.7009 44.1327 33.0441 44.1327 34.7009V41.2289C44.1327 41.2289 44.1327 41.229 44.1327 41.2289L43.2666 41.229C39.4006 41.229 36.2666 44.363 36.2666 48.229V49.1089H29.748C28.0912 49.1089 26.748 50.4521 26.748 52.1089C26.748 53.7658 28.0912 55.1089 29.748 55.1089H36.2666V61.0769H29.748C28.0912 61.0769 26.748 62.4201 26.748 64.0769C26.748 65.7338 28.0912 67.0769 29.748 67.0769H36.2666V73.0449H29.748C28.0912 73.0449 26.748 74.3881 26.748 76.0449C26.748 77.7018 28.0912 79.0449 29.748 79.0449H36.2666V79.925C36.2666 83.791 39.4006 86.925 43.2666 86.925H44.1327ZM42.2666 48.229C42.2666 47.6767 42.7143 47.229 43.2666 47.229H74.9012C75.4535 47.229 75.9012 47.6767 75.9012 48.229V79.925C75.9012 80.4773 75.4535 80.925 74.9012 80.925H43.2666C42.7143 80.925 42.2666 80.4773 42.2666 79.925V48.229Z" />
<path fill-rule="evenodd" clip-rule="evenodd" d="M90.7767 8.63424C87.6363 3.3806 81.9592 0.148926 75.817 0.148926L75.4183 0.152985C69.3133 0.277288 63.6075 3.25111 60.0096 8.20382L58.9693 9.63493L57.9651 8.23933C54.3124 3.15996 48.4385 0.148926 42.1821 0.148926C36.0399 0.148926 30.3629 3.3806 27.2224 8.63424C23.6833 9.81259 20.337 12.5699 17.119 16.7984C15.048 19.5197 13.8461 22.8763 13.4806 26.8158C7.98212 28.4606 3.86612 33.0968 2.91413 38.7988L2.65348 40.3599C1.99337 44.3137 2.86406 48.3329 5.025 51.6289C1.49444 55.6183 -0.258248 60.8771 0.176554 66.191L0.306574 67.7801C0.595872 71.3157 1.7349 74.7191 3.61458 77.7053C1.71268 81.178 0.748828 84.831 0.748828 88.6271C0.748828 91.6699 2.45118 94.8905 5.69823 98.483L5.56094 99.1803C4.54608 104.334 6.02386 109.665 9.54751 113.56C13.0387 117.42 18.0002 119.622 23.2047 119.622H23.992L25.7281 121.36C34.3679 130.009 48.3829 130.016 57.0313 121.376C57.7394 120.669 58.3972 119.916 58.9982 119.122C59.6019 119.916 60.2597 120.669 60.9678 121.376C69.6163 130.016 83.6312 130.009 92.271 121.36L94.0071 119.622H94.7945C99.9989 119.622 104.96 117.42 108.452 113.56C111.975 109.665 113.453 104.334 112.438 99.1803L112.301 98.483C115.548 94.8905 117.25 91.6699 117.25 88.6271C117.25 84.831 116.286 81.178 114.385 77.7053C116.264 74.7191 117.403 71.3157 117.693 67.7801L117.823 66.191C118.257 60.8771 116.505 55.6183 112.974 51.6289C115.135 48.3329 116.006 44.3137 115.346 40.3599L115.085 38.7988C114.133 33.0968 110.017 28.4606 104.519 26.8158C104.153 22.8763 102.951 19.5197 100.88 16.7984C97.6622 12.5699 94.3159 9.81259 90.7767 8.63424ZM64.864 11.7302C67.4112 8.22385 71.4831 6.14893 75.817 6.14893C78.989 6.14893 81.9718 7.46321 84.1019 9.70433C83.0174 10.1128 81.947 10.6315 80.8925 11.2587C79.4685 12.1057 79.0008 13.9467 79.8478 15.3707C80.6947 16.7947 82.5357 17.2625 83.9597 16.4155C85.805 15.3179 87.6306 14.7239 89.4637 14.6045C89.5 14.6022 89.5361 14.5991 89.572 14.5955C91.6151 15.4965 93.8093 17.4147 96.1056 20.432C97.179 21.8425 97.9195 23.5825 98.3113 25.6773C96.7387 25.6362 95.1254 25.8034 93.4773 26.1756C91.8611 26.5407 90.8469 28.1467 91.2119 29.7628C91.5769 31.379 93.1829 32.3932 94.7991 32.0282C96.8925 31.5554 98.8118 31.5554 100.592 32.009C100.659 32.026 100.725 32.0406 100.792 32.0529C100.832 32.0648 100.873 32.0759 100.915 32.0861L102.378 32.4489C105.901 33.3227 108.569 36.2061 109.167 39.7868L109.428 41.348C109.933 44.3774 108.991 47.4688 106.88 49.7003C105.807 50.8357 105.784 52.6051 106.829 53.7672L108.41 55.5263C110.905 58.3016 112.147 61.9822 111.843 65.7017L111.713 67.2907C111.47 70.2562 110.405 73.0938 108.638 75.484C108.537 75.5791 108.441 75.6824 108.351 75.7938C107.128 77.3105 105.121 78.784 102.311 80.1636C100.824 80.8937 100.21 82.6913 100.94 84.1786C101.67 85.6659 103.468 86.2797 104.955 85.5496C106.898 84.5956 108.588 83.5683 110.018 82.4592C110.843 84.4685 111.25 86.519 111.25 88.6271C111.25 90.0475 109.875 92.4131 106.91 95.4606C106.223 96.1668 105.926 97.1654 106.117 98.1322L106.551 100.339C107.2 103.635 106.255 107.044 104.002 109.535C101.648 112.138 98.3032 113.622 94.7945 113.622H94.443C94.2022 111.756 93.6529 109.894 92.8026 108.044C92.1108 106.538 90.3295 105.878 88.824 106.57C87.3185 107.262 86.6589 109.043 87.3507 110.549C88.2485 112.503 88.6479 114.384 88.5749 116.224C88.5703 116.339 88.5723 116.453 88.5804 116.565L88.0262 117.12C81.7284 123.424 71.5125 123.429 65.2083 117.131C63.9405 115.865 62.8938 114.397 62.1119 112.789C62.1434 112.614 62.1599 112.434 62.1599 112.251V105.203C62.1599 103.546 60.8168 102.203 59.1599 102.203L58.9836 102.208C57.4088 102.299 56.1599 103.605 56.1599 105.203L56.1593 112.202L56.189 112.139C55.3806 114.002 54.2277 115.696 52.7908 117.131C46.4867 123.429 36.2707 123.424 29.9729 117.12L28.9644 116.111C28.9117 114.307 29.313 112.463 30.1924 110.549C30.8843 109.043 30.2247 107.262 28.7192 106.57C27.2137 105.878 25.4324 106.538 24.7405 108.044C23.8904 109.894 23.3411 111.756 23.1003 113.621L23.2047 113.622C19.6959 113.622 16.351 112.138 13.9973 109.535C11.7439 107.044 10.7989 103.635 11.4479 100.339L11.8825 98.1322C12.0729 97.1654 11.7764 96.1668 11.0893 95.4606C8.12445 92.4131 6.74883 90.0475 6.74883 88.6271C6.74883 86.4742 7.17318 84.3814 8.03484 82.3312C9.50104 83.4894 11.245 84.559 13.2631 85.5496C14.7504 86.2797 16.548 85.6659 17.2781 84.1786C18.0082 82.6913 17.3943 80.8937 15.907 80.1636C13.0966 78.784 11.0902 77.3105 9.86718 75.7938C9.64495 75.5182 9.38398 75.2923 9.09627 75.1193C7.48823 72.8064 6.51696 70.1062 6.28659 67.2907L6.15657 65.7017C5.85222 61.9822 7.09367 58.3016 9.58867 55.5263L11.1701 53.7672C12.2148 52.6051 12.1925 50.8357 11.1188 49.7003C9.00857 47.4688 8.06578 44.3774 8.57156 41.348L8.83221 39.7868C9.43004 36.2061 12.0978 33.3227 15.6214 32.4489L17.0844 32.0861L17.2071 32.0529C17.2738 32.0406 17.3405 32.026 17.4072 32.009C19.1873 31.5554 21.1066 31.5554 23.2001 32.0282C24.8162 32.3932 26.4223 31.379 26.7873 29.7628C27.1523 28.1467 26.138 26.5407 24.5219 26.1756C22.874 25.8035 21.2609 25.6363 19.6878 25.6777C20.0795 23.5827 20.82 21.8426 21.8936 20.432C24.1913 17.4128 26.3868 15.4941 28.431 14.5938L28.5355 14.6045C30.3685 14.7239 32.1941 15.3179 34.0394 16.4155C35.4634 17.2625 37.3044 16.7947 38.1514 15.3707C38.9984 13.9467 38.5306 12.1057 37.1066 11.2587C36.052 10.6315 34.9816 10.1127 33.8967 9.70484C36.027 7.4634 39.0099 6.14893 42.1821 6.14893C46.5075 6.14893 50.5685 8.23062 53.0938 11.7423L55.5621 15.1748C55.7349 15.415 55.9366 15.6221 56.159 15.7947L56.1599 21.9468C56.1599 23.6037 57.503 24.9468 59.1599 24.9468L59.3362 24.9417C60.911 24.8505 62.1599 23.5445 62.1599 21.9468L62.1593 15.4519L64.864 11.7302Z" />
</svg>
