<svg viewBox="0 0 132 112" fill="currentColor" xmlns="http://www.w3.org/2000/svg">
<path d="M74.5 84.5C76.1569 84.5 77.5 85.8431 77.5 87.5V105.5H99.0889C100.746 105.5 102.089 106.843 102.089 108.5C102.089 110.157 100.746 111.5 99.0889 111.5H31.5C29.8431 111.5 28.5 110.157 28.5 108.5C28.5 106.843 29.8431 105.5 31.5 105.5H54.5V87.5C54.5 85.8431 55.8431 84.5 57.5 84.5C59.1569 84.5 60.5 85.8431 60.5 87.5V105.5H71.5V87.5C71.5 85.8431 72.8431 84.5 74.5 84.5Z" />
<path fill-rule="evenodd" clip-rule="evenodd" d="M36.2575 53.4162C36.4161 54.085 36.5 54.7827 36.5 55.5C36.5 60.4706 32.4706 64.5 27.5 64.5C22.5294 64.5 18.5 60.4706 18.5 55.5C18.5 50.5294 22.5294 46.5 27.5 46.5C29.5331 46.5 31.4087 47.1741 32.9156 48.3111L43.822 37.8943C43.6121 37.1319 43.5 36.329 43.5 35.5C43.5 30.5294 47.5294 26.5 52.5 26.5C57.4706 26.5 61.5 30.5294 61.5 35.5C61.5 36.0217 61.4556 36.5331 61.3704 37.0305L74.0052 48.3715C75.5253 47.1981 77.4311 46.5 79.5 46.5C81.5086 46.5 83.3636 47.158 84.8611 48.2702L98.4288 30.4865C97.8342 29.2849 97.5 27.9315 97.5 26.5C97.5 21.5294 101.529 17.5 106.5 17.5C111.471 17.5 115.5 21.5294 115.5 26.5C115.5 31.4706 111.471 35.5 106.5 35.5C105.168 35.5 103.904 35.2108 102.767 34.6918L88.3733 53.5585C88.3518 53.5866 88.33 53.6142 88.3078 53.6413C88.4338 54.241 88.5 54.8628 88.5 55.5C88.5 60.4706 84.4706 64.5 79.5 64.5C74.5294 64.5 70.5 60.4706 70.5 55.5C70.5 54.8091 70.5779 54.1363 70.7253 53.4901L58.3258 42.3603C56.7558 43.6948 54.722 44.5 52.5 44.5C50.5688 44.5 48.7796 43.8917 47.3137 42.8563L36.2575 53.4162ZM24.5 55.5C24.5 53.8431 25.8431 52.5 27.5 52.5C29.1569 52.5 30.5 53.8431 30.5 55.5C30.5 57.1569 29.1569 58.5 27.5 58.5C25.8431 58.5 24.5 57.1569 24.5 55.5ZM76.5 55.5C76.5 53.8431 77.8431 52.5 79.5 52.5C81.1569 52.5 82.5 53.8431 82.5 55.5C82.5 57.1569 81.1569 58.5 79.5 58.5C77.8431 58.5 76.5 57.1569 76.5 55.5ZM49.5 35.5C49.5 33.8431 50.8431 32.5 52.5 32.5C54.1569 32.5 55.5 33.8431 55.5 35.5C55.5 37.1569 54.1569 38.5 52.5 38.5C50.8431 38.5 49.5 37.1569 49.5 35.5ZM103.5 26.5C103.5 24.8431 104.843 23.5 106.5 23.5C108.157 23.5 109.5 24.8431 109.5 26.5C109.5 28.1569 108.157 29.5 106.5 29.5C104.843 29.5 103.5 28.1569 103.5 26.5Z" />
<path fill-rule="evenodd" clip-rule="evenodd" d="M124.5 0.5C128.366 0.5 131.5 3.63401 131.5 7.5V75.5C131.5 79.366 128.366 82.5 124.5 82.5H7.5C3.63401 82.5 0.5 79.366 0.5 75.5V7.5C0.5 3.63401 3.63401 0.5 7.5 0.5H124.5ZM124.5 6.5H7.5C6.94772 6.5 6.5 6.94772 6.5 7.5V75.5C6.5 76.0523 6.94772 76.5 7.5 76.5H124.5C125.052 76.5 125.5 76.0523 125.5 75.5V7.5C125.5 6.94772 125.052 6.5 124.5 6.5Z" />
</svg>
