<svg viewBox="0 0 170 155" fill="none" xmlns="http://www.w3.org/2000/svg">
<path fill-rule="evenodd" clip-rule="evenodd" d="M165.746 75.3344V106.375C167.637 106.375 169.184 107.922 169.184 109.812V123.562C169.184 125.453 167.671 127 165.746 127H162.309H155.434H148.559V151.062C148.559 152.953 147.046 154.5 145.121 154.5H131.371C129.481 154.5 127.934 152.953 127.934 151.062V127H41.9964V151.062C41.9964 152.953 40.4837 154.5 38.5589 154.5H24.8089C22.9182 154.5 21.3714 152.953 21.3714 151.062V127H14.4964H7.62136H4.28691C2.39629 127 0.849414 125.453 0.849414 123.562V109.812C0.849414 107.956 2.32747 106.444 4.18386 106.375V75.4375C2.94616 75.4031 1.74303 74.7156 1.15892 73.5469C0.299548 71.8625 0.987048 69.8 2.67122 68.9407C11.5399 64.3687 17.5555 57.425 21.5087 47.0094C21.887 45.6344 23.0901 44.6031 24.5682 44.5H38.5931C40.0369 44.5 41.3431 45.3938 41.8245 46.7688C47.6337 63.0281 63.0682 72 85.2058 72C100.571 72 120.406 67.7031 128.037 47.1813C128.381 45.7031 129.618 44.6031 131.131 44.5H145.156C146.599 44.5 147.906 45.3938 148.387 46.7688C152.615 58.4563 157.05 63.6125 167.328 68.8374C169.012 69.6968 169.7 71.7593 168.84 73.4438C168.221 74.6469 167.018 75.3344 165.746 75.3344ZM158.871 71.9312C154.609 69.1812 151.309 66.1562 148.559 62.375V106.375H158.871V71.9312ZM141.684 51.375H134.809V106.375H141.684V51.375ZM127.934 61.3093C124.256 65.9844 119.649 69.7312 114.184 72.5844V106.375H127.934V61.3093ZM107.309 75.5406C104.077 76.6062 100.64 77.4656 96.9964 78.0156V106.375H107.309V75.5406ZM85.2058 78.875C83.3494 78.875 81.5619 78.8062 79.8089 78.7031V106.375H90.1214V78.7375C88.5057 78.8062 86.89 78.875 85.2058 78.875ZM72.9339 77.9126C69.2899 77.3281 65.8524 76.5032 62.6214 75.3687V106.375H72.9339V77.9126ZM54.2683 71.6218C49.387 68.8374 45.2962 65.3657 41.9964 61.2063V106.375H55.7464V72.4126C55.265 72.1719 54.7494 71.8969 54.2683 71.6218ZM35.1214 51.375H28.2464V106.375H35.1214V51.375ZM11.0589 71.9312V106.375H21.3714V61.8938C18.4837 65.8469 15.0808 69.1469 11.0589 71.9312ZM28.2464 127V147.625H35.1214V127H28.2464ZM134.809 127V147.625H141.684V127H134.809ZM162.309 120.125V113.25H7.72442V120.125H162.309Z" fill="currentcolor"/>
<path d="M85 43.5C96.0457 43.5 105 34.5457 105 23.5C105 12.4543 96.0457 3.5 85 3.5C73.9543 3.5 65 12.4543 65 23.5C65 34.5457 73.9543 43.5 85 43.5Z" stroke="currentcolor" stroke-width="6" stroke-linecap="round" stroke-linejoin="round"/>
<path d="M78.5405 16.183C78.6608 16.0675 78.8196 16 78.9833 16H94.2583C94.5373 16 94.6769 16.3369 94.4796 16.5342L91.4622 19.5517C91.3467 19.6672 91.1879 19.7346 91.0194 19.7346H75.7445C75.4653 19.7346 75.3258 19.3977 75.5231 19.2004L78.5405 16.183Z" fill="currentcolor"/>
<path d="M78.5405 27.4489C78.656 27.3334 78.8148 27.2661 78.9833 27.2661H94.2583C94.5373 27.2661 94.6769 27.603 94.4796 27.8002L91.4622 30.8177C91.3467 30.9332 91.1879 31.0007 91.0194 31.0007H75.7445C75.4653 31.0007 75.3258 30.6638 75.5231 30.4664L78.5405 27.4489Z" fill="currentcolor"/>
<path d="M91.4622 21.7805C91.3467 21.6651 91.1879 21.5977 91.0194 21.5977H75.7445C75.4653 21.5977 75.3258 21.9345 75.5231 22.1319L78.5405 25.1492C78.656 25.2648 78.8148 25.3322 78.9833 25.3322H94.2583C94.5373 25.3322 94.6769 24.9953 94.4796 24.798L91.4622 21.7805Z" fill="currentcolor"/>
</svg>
