<svg viewBox="0 0 148 168" fill="none" xmlns="http://www.w3.org/2000/svg">
<path fill-rule="evenodd" clip-rule="evenodd" d="M61.8601 9.14213C61.8601 9.13119 61.8601 8.82654 61.8601 8.82654C61.8601 8.18357 62.2035 7.58941 62.7606 7.26793L73.1011 1.29775C73.6582 0.97627 74.3441 0.97627 74.9012 1.29775L85.2426 7.26793C85.7989 7.58941 86.1422 8.18357 86.1422 8.82654C86.1422 8.82654 86.1422 9.13119 86.1422 9.14213V20.7669C86.1422 21.4107 85.7989 22.0049 85.2426 22.3263L74.9012 28.2965C74.6294 28.453 74.3205 28.5372 74.0016 28.5372C73.6818 28.5372 73.3729 28.453 73.1011 28.2965L62.7606 22.3263C62.2035 22.0049 61.8601 21.4107 61.8601 20.7669V9.14213ZM80.9396 8.94015L74.0016 4.93506L67.0636 8.94015L74.0016 12.7441L80.9396 8.94015ZM75.8017 23.6198L82.5419 19.7284V12.1676L75.8017 15.863V23.6198ZM65.4604 12.1676V19.7284L72.2014 23.6198V15.863L65.4604 12.1676ZM1.92773 43.3524C1.92773 43.3414 1.92773 43.0376 1.92773 43.0376C1.92773 42.3947 2.27108 41.7997 2.82821 41.4782L13.1687 35.508C13.7259 35.1865 14.4117 35.1865 14.9689 35.508L25.3094 41.4782C25.8665 41.7997 26.2099 42.3947 26.2099 43.0376C26.2099 43.0376 26.2099 43.3414 26.2099 43.3524V54.978C26.2099 55.621 25.8665 56.2151 25.3094 56.5366L14.9689 62.5068C14.697 62.6642 14.3882 62.7483 14.0692 62.7483C13.7494 62.7483 13.4406 62.6642 13.1687 62.5068L2.82821 56.5366C2.27108 56.2151 1.92773 55.621 1.92773 54.978V43.3524ZM21.0072 43.1513L14.0692 39.1453L7.13122 43.1513L14.0692 46.9552L21.0072 43.1513ZM15.8685 57.831L22.6096 53.9386V46.3779L15.8685 50.0733V57.831ZM5.52801 46.3779V53.9386L12.2691 57.831V50.0733L5.52801 46.3779ZM121.793 43.3524C121.793 43.3414 121.793 43.0376 121.793 43.0376C121.793 42.3947 122.136 41.7997 122.693 41.4782L133.033 35.508C133.591 35.1865 134.276 35.1865 134.834 35.508L145.175 41.4782C145.731 41.7997 146.075 42.3947 146.075 43.0376C146.075 43.0376 146.075 43.3414 146.075 43.3524V54.978C146.075 55.621 145.731 56.2151 145.175 56.5366L134.834 62.5068C134.562 62.6642 134.253 62.7483 133.934 62.7483C133.614 62.7483 133.305 62.6642 133.033 62.5068L122.693 56.5366C122.136 56.2151 121.793 55.621 121.793 54.978V43.3524ZM140.872 43.1513L133.934 39.1453L126.996 43.1513L133.934 46.9552L140.872 43.1513ZM135.734 57.831L142.474 53.9386V46.3779L135.734 50.0733V57.831ZM125.393 46.3779V53.9386L132.134 57.831V50.0733L125.393 46.3779ZM1.92773 112.668C1.92773 112.657 1.92773 112.354 1.92773 112.354C1.92773 111.71 2.27108 111.116 2.82821 110.794L13.1687 104.824C13.7259 104.502 14.4117 104.502 14.9689 104.824L25.3094 110.794C25.8665 111.116 26.2099 111.71 26.2099 112.354C26.2099 112.354 26.2099 112.657 26.2099 112.668V124.294C26.2099 124.937 25.8665 125.531 25.3094 125.853L14.9689 131.823C14.697 131.98 14.3882 132.064 14.0692 132.064C13.7494 132.064 13.4406 131.98 13.1687 131.823L2.82821 125.853C2.27108 125.531 1.92773 124.937 1.92773 124.294V112.668ZM21.0072 112.467L14.0692 108.461L7.13122 112.467L14.0692 116.27L21.0072 112.467ZM15.8685 127.146L22.6096 123.255V115.694L15.8685 119.389V127.146ZM5.52801 115.694V123.255L12.2691 127.146V119.389L5.52801 115.694ZM121.793 112.668C121.793 112.657 121.793 112.354 121.793 112.354C121.793 111.71 122.136 111.116 122.693 110.794L133.033 104.824C133.591 104.502 134.276 104.502 134.834 104.824L145.175 110.794C145.731 111.116 146.075 111.71 146.075 112.354C146.075 112.354 146.075 112.657 146.075 112.668V124.294C146.075 124.937 145.731 125.531 145.175 125.853L134.834 131.823C134.562 131.98 134.253 132.064 133.934 132.064C133.614 132.064 133.305 131.98 133.033 131.823L122.693 125.853C122.136 125.531 121.793 124.937 121.793 124.294V112.668ZM140.872 112.467L133.934 108.461L126.996 112.467L133.934 116.27L140.872 112.467ZM135.734 127.146L142.474 123.255V115.694L135.734 119.389V127.146ZM125.393 115.694V123.255L132.134 127.146V119.389L125.393 115.694ZM61.8601 147.55C61.8601 147.539 61.8601 147.235 61.8601 147.235C61.8601 146.592 62.2035 145.997 62.7606 145.676L73.1011 139.706C73.6582 139.384 74.3441 139.384 74.9012 139.706L85.2426 145.676C85.7989 145.997 86.1422 146.592 86.1422 147.235C86.1422 147.235 86.1422 147.539 86.1422 147.55V159.175C86.1422 159.819 85.7989 160.413 85.2426 160.734L74.9012 166.705C74.6294 166.861 74.3205 166.945 74.0016 166.945C73.6818 166.945 73.3729 166.861 73.1011 166.705L62.7606 160.734C62.2035 160.413 61.8601 159.819 61.8601 159.175V147.55ZM80.9396 147.348L74.0016 143.343L67.0636 147.348L74.0016 151.152L80.9396 147.348ZM75.8017 162.028L82.5419 158.136V150.576L75.8017 154.271V162.028ZM65.4604 150.576V158.136L72.2014 162.028V154.271L65.4604 150.576Z" fill="currentcolor" stroke="currentcolor" stroke-width="2"/>
<mask id="path-2-outside-1_77_1130" maskUnits="userSpaceOnUse" x="11.2676" y="25.4856" width="126" height="118" fill="black">
<rect fill="currentcolor" x="11.2676" y="25.4856" width="126" height="118"/>
<path fill-rule="evenodd" clip-rule="evenodd" d="M132.133 80.2068V80.1884V76.3956V76.3772C132.133 75.385 132.939 74.5769 133.934 74.5769C133.944 74.5769 133.954 74.5769 133.964 74.5769C134.957 74.5769 135.763 75.385 135.763 76.3772V76.3956V80.1884V80.2068C135.763 80.3684 135.742 80.5239 135.701 80.6732C135.742 80.8225 135.763 80.9801 135.763 81.1417V86.8595C135.763 87.0232 135.742 87.1827 135.699 87.3341C135.742 87.4876 135.763 87.6471 135.763 87.8108V87.8292V91.622V91.6404C135.763 92.6326 134.957 93.4386 133.964 93.4386C133.954 93.4386 133.944 93.4386 133.934 93.4386C132.939 93.4386 132.133 92.6326 132.133 91.6404V91.622V87.8292V87.8108C132.133 87.6471 132.156 87.4876 132.197 87.3341C132.156 87.1827 132.133 87.0232 132.133 86.8595V81.1417C132.133 80.9801 132.156 80.8225 132.195 80.6732C132.156 80.5239 132.133 80.3684 132.133 80.2068ZM12.2676 80.2068V80.1884V76.3956V76.3772C12.2676 75.385 13.0757 74.5769 14.0678 74.5769C14.0781 74.5769 14.0883 74.5769 14.0985 74.5769C15.0907 74.5769 15.8987 75.385 15.8987 76.3772V76.3956V80.1884V80.2068C15.8987 80.3684 15.8762 80.5239 15.8374 80.6732C15.8762 80.8225 15.8987 80.9801 15.8987 81.1417V86.8595C15.8987 87.0232 15.8762 87.1827 15.8333 87.3341C15.8762 87.4876 15.8987 87.6471 15.8987 87.8108V87.8292V91.622V91.6404C15.8987 92.6326 15.0907 93.4386 14.0985 93.4386C14.0883 93.4386 14.0781 93.4386 14.0678 93.4386C13.0757 93.4386 12.2676 92.6326 12.2676 91.6404V91.622V87.8292V87.8108C12.2676 87.6471 12.29 87.4876 12.333 87.3341C12.29 87.1827 12.2676 87.0232 12.2676 86.8595V81.1417C12.2676 80.9801 12.2901 80.8225 12.3289 80.6732C12.2901 80.5239 12.2676 80.3684 12.2676 80.2068ZM95.5658 28.2901C95.5658 27.9832 95.6436 27.6702 95.8073 27.3859C96.1428 26.8049 96.7524 26.4837 97.3763 26.4857C97.6893 26.4817 98.0064 26.5594 98.2949 26.7271L101.597 28.6317C101.754 28.7238 101.893 28.8343 102.01 28.9611C102.141 29 102.27 29.0552 102.392 29.1268L107.343 31.9847C107.472 32.0583 107.589 32.1463 107.691 32.2465C107.865 32.2854 108.035 32.3509 108.198 32.4429L111.498 34.3496C112.079 34.6851 112.402 35.2947 112.398 35.9207C112.4 36.2275 112.322 36.5405 112.157 36.8249C111.823 37.4059 111.214 37.7271 110.588 37.725C110.275 37.7291 109.958 37.6514 109.669 37.4836L106.367 35.5791C106.226 35.4952 106.097 35.397 105.987 35.2845C105.835 35.2456 105.686 35.1842 105.543 35.1024L100.592 32.2445C100.449 32.1606 100.322 32.0624 100.212 31.9499C100.058 31.911 99.909 31.8497 99.7678 31.7678L96.466 29.8612C95.885 29.5257 95.5617 28.9161 95.5658 28.2901ZM35.634 132.095C35.6319 131.788 35.7097 131.477 35.8754 131.193C36.2088 130.612 36.8185 130.288 37.4445 130.293C37.7554 130.288 38.0725 130.366 38.3629 130.534L41.6627 132.439C41.8203 132.531 41.9594 132.641 42.078 132.768C42.209 132.807 42.3358 132.862 42.4585 132.932L47.4093 135.791C47.5402 135.865 47.6547 135.953 47.7591 136.051C47.9329 136.09 48.1028 136.156 48.2644 136.25L51.5662 138.156C52.1471 138.492 52.4704 139.101 52.4663 139.727C52.4663 140.036 52.3885 140.347 52.2249 140.632C51.8894 141.211 51.2797 141.534 50.6558 141.532C50.3428 141.536 50.0257 141.458 49.7352 141.29L46.4355 139.386C46.2923 139.302 46.1654 139.204 46.0549 139.091C45.9015 139.052 45.7521 138.991 45.611 138.909L40.6583 136.049C40.5171 135.967 40.3882 135.869 40.2778 135.757C40.1264 135.716 39.9771 135.656 39.8339 135.575L36.5341 133.668C35.9531 133.333 35.6299 132.723 35.634 132.095ZM35.634 35.9207C35.6299 35.2947 35.9531 34.6851 36.5341 34.3496L39.8339 32.4429C39.9955 32.3509 40.1673 32.2854 40.3412 32.2465C40.4435 32.1463 40.5601 32.0583 40.689 31.9847L45.6396 29.1268C45.7624 29.0552 45.8913 29 46.0222 28.9611C46.1388 28.8343 46.2779 28.7238 46.4355 28.6317L49.7352 26.7271C50.0257 26.5594 50.3428 26.4817 50.6558 26.4857C51.2797 26.4837 51.8894 26.8049 52.2249 27.3859C52.3885 27.6702 52.4663 27.9832 52.4663 28.2901C52.4683 28.9161 52.1451 29.5257 51.5662 29.8612L48.2644 31.7678C48.1212 31.8497 47.9718 31.911 47.8204 31.9499C47.71 32.0624 47.5831 32.1606 47.4399 32.2445L42.4893 35.1024C42.3461 35.1842 42.1967 35.2456 42.0453 35.2845C41.9328 35.397 41.8059 35.4952 41.6627 35.5791L38.3629 37.4836C38.0725 37.6514 37.7554 37.7291 37.4445 37.725C36.8185 37.7271 36.2088 37.4059 35.8754 36.8249C35.7097 36.5405 35.6319 36.2275 35.634 35.9207ZM95.5658 139.727C95.5617 139.101 95.885 138.492 96.466 138.156L99.7678 136.25C99.9294 136.156 100.099 136.09 100.273 136.051C100.375 135.953 100.492 135.865 100.621 135.791L105.572 132.932C105.696 132.862 105.823 132.807 105.954 132.768C106.073 132.641 106.21 132.531 106.367 132.439L109.669 130.534C109.958 130.366 110.275 130.288 110.588 130.293C111.214 130.288 111.823 130.612 112.157 131.193C112.322 131.477 112.4 131.788 112.398 132.095C112.402 132.723 112.079 133.333 111.498 133.668L108.198 135.575C108.055 135.656 107.906 135.716 107.752 135.757C107.642 135.869 107.515 135.967 107.372 136.049L102.421 138.909C102.278 138.991 102.129 139.052 101.977 139.091C101.867 139.204 101.74 139.302 101.597 139.386L98.2949 141.29C98.0064 141.458 97.6893 141.536 97.3763 141.532C96.7524 141.534 96.1428 141.211 95.8073 140.632C95.6436 140.347 95.5658 140.036 95.5658 139.727Z"/>
</mask>
<path fill-rule="evenodd" clip-rule="evenodd" d="M132.133 80.2068V80.1884V76.3956V76.3772C132.133 75.385 132.939 74.5769 133.934 74.5769C133.944 74.5769 133.954 74.5769 133.964 74.5769C134.957 74.5769 135.763 75.385 135.763 76.3772V76.3956V80.1884V80.2068C135.763 80.3684 135.742 80.5239 135.701 80.6732C135.742 80.8225 135.763 80.9801 135.763 81.1417V86.8595C135.763 87.0232 135.742 87.1827 135.699 87.3341C135.742 87.4876 135.763 87.6471 135.763 87.8108V87.8292V91.622V91.6404C135.763 92.6326 134.957 93.4386 133.964 93.4386C133.954 93.4386 133.944 93.4386 133.934 93.4386C132.939 93.4386 132.133 92.6326 132.133 91.6404V91.622V87.8292V87.8108C132.133 87.6471 132.156 87.4876 132.197 87.3341C132.156 87.1827 132.133 87.0232 132.133 86.8595V81.1417C132.133 80.9801 132.156 80.8225 132.195 80.6732C132.156 80.5239 132.133 80.3684 132.133 80.2068ZM12.2676 80.2068V80.1884V76.3956V76.3772C12.2676 75.385 13.0757 74.5769 14.0678 74.5769C14.0781 74.5769 14.0883 74.5769 14.0985 74.5769C15.0907 74.5769 15.8987 75.385 15.8987 76.3772V76.3956V80.1884V80.2068C15.8987 80.3684 15.8762 80.5239 15.8374 80.6732C15.8762 80.8225 15.8987 80.9801 15.8987 81.1417V86.8595C15.8987 87.0232 15.8762 87.1827 15.8333 87.3341C15.8762 87.4876 15.8987 87.6471 15.8987 87.8108V87.8292V91.622V91.6404C15.8987 92.6326 15.0907 93.4386 14.0985 93.4386C14.0883 93.4386 14.0781 93.4386 14.0678 93.4386C13.0757 93.4386 12.2676 92.6326 12.2676 91.6404V91.622V87.8292V87.8108C12.2676 87.6471 12.29 87.4876 12.333 87.3341C12.29 87.1827 12.2676 87.0232 12.2676 86.8595V81.1417C12.2676 80.9801 12.2901 80.8225 12.3289 80.6732C12.2901 80.5239 12.2676 80.3684 12.2676 80.2068ZM95.5658 28.2901C95.5658 27.9832 95.6436 27.6702 95.8073 27.3859C96.1428 26.8049 96.7524 26.4837 97.3763 26.4857C97.6893 26.4817 98.0064 26.5594 98.2949 26.7271L101.597 28.6317C101.754 28.7238 101.893 28.8343 102.01 28.9611C102.141 29 102.27 29.0552 102.392 29.1268L107.343 31.9847C107.472 32.0583 107.589 32.1463 107.691 32.2465C107.865 32.2854 108.035 32.3509 108.198 32.4429L111.498 34.3496C112.079 34.6851 112.402 35.2947 112.398 35.9207C112.4 36.2275 112.322 36.5405 112.157 36.8249C111.823 37.4059 111.214 37.7271 110.588 37.725C110.275 37.7291 109.958 37.6514 109.669 37.4836L106.367 35.5791C106.226 35.4952 106.097 35.397 105.987 35.2845C105.835 35.2456 105.686 35.1842 105.543 35.1024L100.592 32.2445C100.449 32.1606 100.322 32.0624 100.212 31.9499C100.058 31.911 99.909 31.8497 99.7678 31.7678L96.466 29.8612C95.885 29.5257 95.5617 28.9161 95.5658 28.2901ZM35.634 132.095C35.6319 131.788 35.7097 131.477 35.8754 131.193C36.2088 130.612 36.8185 130.288 37.4445 130.293C37.7554 130.288 38.0725 130.366 38.3629 130.534L41.6627 132.439C41.8203 132.531 41.9594 132.641 42.078 132.768C42.209 132.807 42.3358 132.862 42.4585 132.932L47.4093 135.791C47.5402 135.865 47.6547 135.953 47.7591 136.051C47.9329 136.09 48.1028 136.156 48.2644 136.25L51.5662 138.156C52.1471 138.492 52.4704 139.101 52.4663 139.727C52.4663 140.036 52.3885 140.347 52.2249 140.632C51.8894 141.211 51.2797 141.534 50.6558 141.532C50.3428 141.536 50.0257 141.458 49.7352 141.29L46.4355 139.386C46.2923 139.302 46.1654 139.204 46.0549 139.091C45.9015 139.052 45.7521 138.991 45.611 138.909L40.6583 136.049C40.5171 135.967 40.3882 135.869 40.2778 135.757C40.1264 135.716 39.9771 135.656 39.8339 135.575L36.5341 133.668C35.9531 133.333 35.6299 132.723 35.634 132.095ZM35.634 35.9207C35.6299 35.2947 35.9531 34.6851 36.5341 34.3496L39.8339 32.4429C39.9955 32.3509 40.1673 32.2854 40.3412 32.2465C40.4435 32.1463 40.5601 32.0583 40.689 31.9847L45.6396 29.1268C45.7624 29.0552 45.8913 29 46.0222 28.9611C46.1388 28.8343 46.2779 28.7238 46.4355 28.6317L49.7352 26.7271C50.0257 26.5594 50.3428 26.4817 50.6558 26.4857C51.2797 26.4837 51.8894 26.8049 52.2249 27.3859C52.3885 27.6702 52.4663 27.9832 52.4663 28.2901C52.4683 28.9161 52.1451 29.5257 51.5662 29.8612L48.2644 31.7678C48.1212 31.8497 47.9718 31.911 47.8204 31.9499C47.71 32.0624 47.5831 32.1606 47.4399 32.2445L42.4893 35.1024C42.3461 35.1842 42.1967 35.2456 42.0453 35.2845C41.9328 35.397 41.8059 35.4952 41.6627 35.5791L38.3629 37.4836C38.0725 37.6514 37.7554 37.7291 37.4445 37.725C36.8185 37.7271 36.2088 37.4059 35.8754 36.8249C35.7097 36.5405 35.6319 36.2275 35.634 35.9207ZM95.5658 139.727C95.5617 139.101 95.885 138.492 96.466 138.156L99.7678 136.25C99.9294 136.156 100.099 136.09 100.273 136.051C100.375 135.953 100.492 135.865 100.621 135.791L105.572 132.932C105.696 132.862 105.823 132.807 105.954 132.768C106.073 132.641 106.21 132.531 106.367 132.439L109.669 130.534C109.958 130.366 110.275 130.288 110.588 130.293C111.214 130.288 111.823 130.612 112.157 131.193C112.322 131.477 112.4 131.788 112.398 132.095C112.402 132.723 112.079 133.333 111.498 133.668L108.198 135.575C108.055 135.656 107.906 135.716 107.752 135.757C107.642 135.869 107.515 135.967 107.372 136.049L102.421 138.909C102.278 138.991 102.129 139.052 101.977 139.091C101.867 139.204 101.74 139.302 101.597 139.386L98.2949 141.29C98.0064 141.458 97.6893 141.536 97.3763 141.532C96.7524 141.534 96.1428 141.211 95.8073 140.632C95.6436 140.347 95.5658 140.036 95.5658 139.727Z" fill="currentcolor"/>
<path fill-rule="evenodd" clip-rule="evenodd" d="M132.133 80.2068V80.1884V76.3956V76.3772C132.133 75.385 132.939 74.5769 133.934 74.5769C133.944 74.5769 133.954 74.5769 133.964 74.5769C134.957 74.5769 135.763 75.385 135.763 76.3772V76.3956V80.1884V80.2068C135.763 80.3684 135.742 80.5239 135.701 80.6732C135.742 80.8225 135.763 80.9801 135.763 81.1417V86.8595C135.763 87.0232 135.742 87.1827 135.699 87.3341C135.742 87.4876 135.763 87.6471 135.763 87.8108V87.8292V91.622V91.6404C135.763 92.6326 134.957 93.4386 133.964 93.4386C133.954 93.4386 133.944 93.4386 133.934 93.4386C132.939 93.4386 132.133 92.6326 132.133 91.6404V91.622V87.8292V87.8108C132.133 87.6471 132.156 87.4876 132.197 87.3341C132.156 87.1827 132.133 87.0232 132.133 86.8595V81.1417C132.133 80.9801 132.156 80.8225 132.195 80.6732C132.156 80.5239 132.133 80.3684 132.133 80.2068ZM12.2676 80.2068V80.1884V76.3956V76.3772C12.2676 75.385 13.0757 74.5769 14.0678 74.5769C14.0781 74.5769 14.0883 74.5769 14.0985 74.5769C15.0907 74.5769 15.8987 75.385 15.8987 76.3772V76.3956V80.1884V80.2068C15.8987 80.3684 15.8762 80.5239 15.8374 80.6732C15.8762 80.8225 15.8987 80.9801 15.8987 81.1417V86.8595C15.8987 87.0232 15.8762 87.1827 15.8333 87.3341C15.8762 87.4876 15.8987 87.6471 15.8987 87.8108V87.8292V91.622V91.6404C15.8987 92.6326 15.0907 93.4386 14.0985 93.4386C14.0883 93.4386 14.0781 93.4386 14.0678 93.4386C13.0757 93.4386 12.2676 92.6326 12.2676 91.6404V91.622V87.8292V87.8108C12.2676 87.6471 12.29 87.4876 12.333 87.3341C12.29 87.1827 12.2676 87.0232 12.2676 86.8595V81.1417C12.2676 80.9801 12.2901 80.8225 12.3289 80.6732C12.2901 80.5239 12.2676 80.3684 12.2676 80.2068ZM95.5658 28.2901C95.5658 27.9832 95.6436 27.6702 95.8073 27.3859C96.1428 26.8049 96.7524 26.4837 97.3763 26.4857C97.6893 26.4817 98.0064 26.5594 98.2949 26.7271L101.597 28.6317C101.754 28.7238 101.893 28.8343 102.01 28.9611C102.141 29 102.27 29.0552 102.392 29.1268L107.343 31.9847C107.472 32.0583 107.589 32.1463 107.691 32.2465C107.865 32.2854 108.035 32.3509 108.198 32.4429L111.498 34.3496C112.079 34.6851 112.402 35.2947 112.398 35.9207C112.4 36.2275 112.322 36.5405 112.157 36.8249C111.823 37.4059 111.214 37.7271 110.588 37.725C110.275 37.7291 109.958 37.6514 109.669 37.4836L106.367 35.5791C106.226 35.4952 106.097 35.397 105.987 35.2845C105.835 35.2456 105.686 35.1842 105.543 35.1024L100.592 32.2445C100.449 32.1606 100.322 32.0624 100.212 31.9499C100.058 31.911 99.909 31.8497 99.7678 31.7678L96.466 29.8612C95.885 29.5257 95.5617 28.9161 95.5658 28.2901ZM35.634 132.095C35.6319 131.788 35.7097 131.477 35.8754 131.193C36.2088 130.612 36.8185 130.288 37.4445 130.293C37.7554 130.288 38.0725 130.366 38.3629 130.534L41.6627 132.439C41.8203 132.531 41.9594 132.641 42.078 132.768C42.209 132.807 42.3358 132.862 42.4585 132.932L47.4093 135.791C47.5402 135.865 47.6547 135.953 47.7591 136.051C47.9329 136.09 48.1028 136.156 48.2644 136.25L51.5662 138.156C52.1471 138.492 52.4704 139.101 52.4663 139.727C52.4663 140.036 52.3885 140.347 52.2249 140.632C51.8894 141.211 51.2797 141.534 50.6558 141.532C50.3428 141.536 50.0257 141.458 49.7352 141.29L46.4355 139.386C46.2923 139.302 46.1654 139.204 46.0549 139.091C45.9015 139.052 45.7521 138.991 45.611 138.909L40.6583 136.049C40.5171 135.967 40.3882 135.869 40.2778 135.757C40.1264 135.716 39.9771 135.656 39.8339 135.575L36.5341 133.668C35.9531 133.333 35.6299 132.723 35.634 132.095ZM35.634 35.9207C35.6299 35.2947 35.9531 34.6851 36.5341 34.3496L39.8339 32.4429C39.9955 32.3509 40.1673 32.2854 40.3412 32.2465C40.4435 32.1463 40.5601 32.0583 40.689 31.9847L45.6396 29.1268C45.7624 29.0552 45.8913 29 46.0222 28.9611C46.1388 28.8343 46.2779 28.7238 46.4355 28.6317L49.7352 26.7271C50.0257 26.5594 50.3428 26.4817 50.6558 26.4857C51.2797 26.4837 51.8894 26.8049 52.2249 27.3859C52.3885 27.6702 52.4663 27.9832 52.4663 28.2901C52.4683 28.9161 52.1451 29.5257 51.5662 29.8612L48.2644 31.7678C48.1212 31.8497 47.9718 31.911 47.8204 31.9499C47.71 32.0624 47.5831 32.1606 47.4399 32.2445L42.4893 35.1024C42.3461 35.1842 42.1967 35.2456 42.0453 35.2845C41.9328 35.397 41.8059 35.4952 41.6627 35.5791L38.3629 37.4836C38.0725 37.6514 37.7554 37.7291 37.4445 37.725C36.8185 37.7271 36.2088 37.4059 35.8754 36.8249C35.7097 36.5405 35.6319 36.2275 35.634 35.9207ZM95.5658 139.727C95.5617 139.101 95.885 138.492 96.466 138.156L99.7678 136.25C99.9294 136.156 100.099 136.09 100.273 136.051C100.375 135.953 100.492 135.865 100.621 135.791L105.572 132.932C105.696 132.862 105.823 132.807 105.954 132.768C106.073 132.641 106.21 132.531 106.367 132.439L109.669 130.534C109.958 130.366 110.275 130.288 110.588 130.293C111.214 130.288 111.823 130.612 112.157 131.193C112.322 131.477 112.4 131.788 112.398 132.095C112.402 132.723 112.079 133.333 111.498 133.668L108.198 135.575C108.055 135.656 107.906 135.716 107.752 135.757C107.642 135.869 107.515 135.967 107.372 136.049L102.421 138.909C102.278 138.991 102.129 139.052 101.977 139.091C101.867 139.204 101.74 139.302 101.597 139.386L98.2949 141.29C98.0064 141.458 97.6893 141.536 97.3763 141.532C96.7524 141.534 96.1428 141.211 95.8073 140.632C95.6436 140.347 95.5658 140.036 95.5658 139.727Z" stroke="currentcolor" stroke-width="2" mask="url(#path-2-outside-1_77_1130)"/>
<path d="M75.2051 63.375V105.375" stroke="currentcolor" stroke-width="6" stroke-linecap="round" stroke-linejoin="round"/>
<path d="M84.75 71.0112H70.4318C68.6597 71.0112 66.9601 71.7152 65.7071 72.9683C64.454 74.2214 63.75 75.9209 63.75 77.693C63.75 79.4652 64.454 81.1647 65.7071 82.4178C66.9601 83.6709 68.6597 84.3749 70.4318 84.3749H79.9773C81.7494 84.3749 83.449 85.0788 84.702 86.3319C85.9551 87.585 86.6591 89.2846 86.6591 91.0567C86.6591 92.8288 85.9551 94.5284 84.702 95.7814C83.449 97.0345 81.7494 97.7385 79.9773 97.7385H63.75" stroke="currentcolor" stroke-width="6" stroke-linecap="round" stroke-linejoin="round"/>
<path d="M74 119C93.33 119 109 103.33 109 84C109 64.67 93.33 49 74 49C54.67 49 39 64.67 39 84C39 103.33 54.67 119 74 119Z" stroke="currentcolor" stroke-width="6" stroke-linecap="round" stroke-linejoin="round"/>
</svg>
