<svg viewBox="0 0 136 140" fill="currentColor" xmlns="http://www.w3.org/2000/svg">
<path fill-rule="evenodd" clip-rule="evenodd" d="M106.297 70.7109C106.297 74.8191 102.954 78.1645 98.8432 78.1645C94.7323 78.1645 91.3896 74.8191 91.3896 70.7109C91.3896 66.6027 94.7323 63.2573 98.8432 63.2573C102.951 63.2573 106.297 66.6027 106.297 70.7109ZM100.848 70.7082C100.848 69.6021 99.9493 68.7031 98.8432 68.7031C97.7372 68.7031 96.8382 69.6021 96.8382 70.7082C96.8382 71.8142 97.7372 72.7132 98.8432 72.7132C99.9493 72.7132 100.848 71.8142 100.848 70.7082Z" />
<path fill-rule="evenodd" clip-rule="evenodd" d="M45.8263 74.0405H51.3293C52.8331 74.0405 54.0536 75.2609 54.0536 76.7647V86.9671C54.0536 88.4709 52.8331 89.6913 51.3293 89.6913H45.8263V95.227C45.8263 96.7308 44.6059 97.9513 43.1021 97.9513H32.867C31.3632 97.9513 30.1428 96.7308 30.1428 95.227V89.6913H24.6071C23.1033 89.6913 21.8828 88.4709 21.8828 86.9671V76.7647C21.8828 75.2609 23.1033 74.0405 24.6071 74.0405H30.1428V68.5048C30.1428 67.001 31.3632 65.7805 32.867 65.7805H43.1021C44.6059 65.7805 45.8263 67.001 45.8263 68.5048V74.0405ZM43.1021 84.2455H48.6051V79.4917H43.1021C41.5983 79.4917 40.3778 78.2712 40.3778 76.7675V71.2318H35.5913V76.7675C35.5913 78.2712 34.3708 79.4917 32.867 79.4917H27.3313V84.2455H32.867C34.3708 84.2455 35.5913 85.466 35.5913 86.9698V92.5055H40.3778V86.9698C40.3778 85.466 41.5983 84.2455 43.1021 84.2455Z" />
<path fill-rule="evenodd" clip-rule="evenodd" d="M94.1777 82.9841C94.1777 78.8732 90.8323 75.5305 86.7241 75.5305C82.6159 75.5305 79.2705 78.8759 79.2705 82.9841C79.2705 87.0923 82.6159 90.4377 86.7241 90.4377C90.8323 90.4377 94.1777 87.095 94.1777 82.9841ZM86.7241 84.9891C85.618 84.9891 84.719 84.0901 84.719 82.9841C84.719 81.878 85.618 80.979 86.7241 80.979C87.8301 80.979 88.7291 81.878 88.7291 82.9841C88.7291 84.0901 87.8301 84.9891 86.7241 84.9891Z" />
<path fill-rule="evenodd" clip-rule="evenodd" d="M103.509 82.9841C103.509 78.8759 106.851 75.5305 110.962 75.5305C115.068 75.5305 118.413 78.8759 118.413 82.9841C118.413 87.0923 115.071 90.4377 110.962 90.4377C106.854 90.4377 103.509 87.0923 103.509 82.9841ZM108.957 82.9841C108.957 84.0901 109.856 84.9891 110.962 84.9891C112.066 84.9891 112.965 84.0901 112.965 82.9841C112.965 81.878 112.066 80.979 110.962 80.979C109.856 80.979 108.957 81.878 108.957 82.9841Z" />
<path fill-rule="evenodd" clip-rule="evenodd" d="M98.8432 87.8027C94.7323 87.8027 91.3896 91.1481 91.3896 95.2563C91.3896 99.3645 94.735 102.71 98.8432 102.71C102.954 102.71 106.297 99.3645 106.297 95.2563C106.297 91.1481 102.954 87.8027 98.8432 87.8027ZM98.8432 97.2641C97.7372 97.2641 96.8382 96.3651 96.8382 95.259C96.8382 94.153 97.7372 93.254 98.8432 93.254C99.9493 93.254 100.848 94.153 100.848 95.259C100.848 96.3651 99.952 97.2641 98.8432 97.2641Z" />
<path fill-rule="evenodd" clip-rule="evenodd" d="M119.99 60.1029C121.132 62.6746 125.463 73.2257 133.159 101.021C136.824 114.28 136.3 124.537 131.607 131.5C126.937 138.436 119.805 139.452 119.007 139.545C114.55 139.935 111.344 135.126 109.238 131.917C108.47 130.743 107.631 129.625 106.791 128.505C106.504 128.123 106.217 127.741 105.933 127.357L105.931 127.354C102.938 123.32 99.8437 119.151 96.134 116.13C93.6341 114.074 88.3529 114.024 84.8467 113.992L84.831 113.991H51.1674L51.1515 113.992C47.6453 114.024 42.3615 114.074 39.8726 116.122C36.149 119.154 33.0573 123.324 30.0664 127.358L30.0652 127.359C29.8092 127.704 29.5513 128.048 29.2932 128.392C28.4227 129.552 27.5517 130.713 26.7553 131.925L26.7542 131.927C24.7355 135 21.7283 139.578 17.599 139.578C17.4165 139.578 17.2367 139.57 17.0515 139.55C16.196 139.452 9.06393 138.439 4.39455 131.503C-0.299344 124.534 -0.822403 114.278 2.84172 101.019C10.5568 73.1657 14.8748 62.6556 16.0135 60.0975C16.4875 59.0323 17.125 58.1932 17.9668 57.5367C20.7728 55.1421 28.5315 49.2849 38.0146 48.2851C42.5424 47.792 46.0866 50.2847 48.9553 53.1969L54.9541 47.1981C55.4635 46.686 56.1582 46.3999 56.8801 46.3999H65.2763V41.6515C65.2763 35.1705 70.5477 29.8991 77.026 29.8991H102.561C106.034 29.8991 108.862 27.074 108.862 23.5979C108.862 20.1217 106.034 17.2939 102.561 17.2939H77.026C70.5477 17.2939 65.2763 12.0225 65.2763 5.54421V3.14687C65.2763 1.64308 66.4968 0.422607 68.0005 0.422607C69.5043 0.422607 70.7248 1.64308 70.7248 3.14687V5.54421C70.7248 9.02037 73.5526 11.8481 77.026 11.8454H102.561C109.039 11.8454 114.31 17.1169 114.31 23.5979C114.31 30.0762 109.042 35.3476 102.561 35.3476H77.026C73.5526 35.3476 70.7248 38.1754 70.7248 41.6515V46.3999H79.1183C79.8429 46.3999 80.5321 46.686 81.0443 47.1981L87.0785 53.2324C89.9935 50.3174 93.5623 47.8329 97.9837 48.2851C107.461 49.2849 115.226 55.1421 118.121 57.613C118.876 58.196 119.516 59.035 119.99 60.1029ZM83.4416 57.2997L77.9931 51.8512H58.008L52.5676 57.2888C53.2378 58.1006 53.8834 58.8825 54.51 59.5663C55.8204 60.9992 57.8118 61.5359 58.1496 61.5822L77.7234 61.574C79.3089 61.1872 80.6711 60.4653 81.4911 59.569C82.0598 58.9479 82.6513 58.2423 83.2699 57.5045C83.3269 57.4365 83.3842 57.3682 83.4416 57.2997ZM118.421 134.135C118.595 134.113 123.723 133.462 127.087 128.465C130.8 122.952 131.083 113.964 127.904 102.471C120.309 75.0373 116.114 64.7968 115.008 62.3123C114.874 62.0099 114.76 61.8955 114.678 61.8301C112.627 60.0866 105.598 54.5672 97.4117 53.7037C93.8728 53.325 90.5492 57.2779 87.6397 60.7677C86.8987 61.6585 86.1877 62.5085 85.5066 63.2495C83.8748 65.0311 81.4257 66.3497 78.6115 66.9599C78.4236 67.0008 78.2274 67.0226 78.034 67.0226H57.9644C56.5505 67.0144 52.9245 65.9029 50.4917 63.2495C49.7698 62.4621 49.0261 61.5631 48.2524 60.626C45.5581 57.3596 42.5151 53.6764 39.088 53.6764C38.9218 53.6764 38.7556 53.6846 38.5867 53.7037C30.3976 54.5672 23.3717 60.0866 21.413 61.7566C21.2386 61.8955 21.127 62.0072 20.9935 62.3123C19.8929 64.7859 15.7084 74.9856 8.0941 102.473C4.91761 113.962 5.20093 122.952 8.9141 128.463C12.2813 133.462 17.4083 134.113 17.6236 134.137C18.1684 134.219 19.3262 133.32 22.203 128.939C23.0493 127.649 23.9712 126.417 24.8947 125.184C25.1603 124.829 25.426 124.474 25.6901 124.118C28.8801 119.813 32.1794 115.362 36.4237 111.907C40.3939 108.645 46.5878 108.589 51.115 108.548L51.121 108.548H84.8828L84.889 108.548C89.4134 108.589 95.6073 108.645 99.5856 111.918C103.816 115.361 107.118 119.812 110.31 124.116L110.311 124.118C110.606 124.518 110.903 124.916 111.201 125.313C112.09 126.503 112.979 127.691 113.795 128.934C116.68 133.331 117.966 134.176 118.421 134.135Z" />
</svg>
