<svg viewBox="0 0 148 134" fill="currentColor" xmlns="http://www.w3.org/2000/svg">
<path d="M73.4219 111.516C79.4884 111.516 84.4062 116.433 84.4062 122.5C84.4062 128.567 79.4884 133.484 73.4219 133.484C67.3554 133.484 62.4375 128.567 62.4375 122.5C62.4375 116.433 67.3554 111.516 73.4219 111.516ZM73.4219 118.453C71.1868 118.453 69.375 120.265 69.375 122.5C69.375 124.735 71.1868 126.547 73.4219 126.547C75.6569 126.547 77.4688 124.735 77.4688 122.5C77.4688 120.265 75.6569 118.453 73.4219 118.453ZM11.5625 87.2344C17.9483 87.2344 23.125 92.4111 23.125 98.7969C23.125 105.183 17.9483 110.359 11.5625 110.359C5.17671 110.359 0 105.183 0 98.7969C0 92.4111 5.17671 87.2344 11.5625 87.2344ZM136.438 87.2344C142.823 87.2344 148 92.4111 148 98.7969C148 105.183 142.823 110.359 136.438 110.359C130.052 110.359 124.875 105.183 124.875 98.7969C124.875 92.4111 130.052 87.2344 136.438 87.2344ZM11.5625 94.1719C9.00818 94.1719 6.9375 96.2426 6.9375 98.7969C6.9375 101.351 9.00818 103.422 11.5625 103.422C14.1168 103.422 16.1875 101.351 16.1875 98.7969C16.1875 96.2426 14.1168 94.1719 11.5625 94.1719ZM136.438 94.1719C133.883 94.1719 131.812 96.2426 131.812 98.7969C131.812 101.351 133.883 103.422 136.438 103.422C138.992 103.422 141.062 101.351 141.062 98.7969C141.062 96.2426 138.992 94.1719 136.438 94.1719ZM73.4219 74.5156C79.4884 74.5156 84.4062 79.4335 84.4062 85.5C84.4062 91.5665 79.4884 96.4844 73.4219 96.4844C67.3554 96.4844 62.4375 91.5665 62.4375 85.5C62.4375 79.4335 67.3554 74.5156 73.4219 74.5156ZM73.4219 81.4531C71.1868 81.4531 69.375 83.265 69.375 85.5C69.375 87.735 71.1868 89.5469 73.4219 89.5469C75.6569 89.5469 77.4688 87.735 77.4688 85.5C77.4688 83.265 75.6569 81.4531 73.4219 81.4531ZM10.9844 57.1719C17.0509 57.1719 21.9688 62.0897 21.9688 68.1562C21.9688 74.2228 17.0509 79.1406 10.9844 79.1406C4.91787 79.1406 0 74.2228 0 68.1562C0 62.0897 4.91787 57.1719 10.9844 57.1719ZM135.859 57.1719C141.926 57.1719 146.844 62.0897 146.844 68.1562C146.844 74.2228 141.926 79.1406 135.859 79.1406C129.793 79.1406 124.875 74.2228 124.875 68.1562C124.875 62.0897 129.793 57.1719 135.859 57.1719ZM10.9844 64.1094C8.74935 64.1094 6.9375 65.9212 6.9375 68.1562C6.9375 70.3913 8.74935 72.2031 10.9844 72.2031C13.2194 72.2031 15.0312 70.3913 15.0312 68.1562C15.0312 65.9212 13.2194 64.1094 10.9844 64.1094ZM135.859 64.1094C133.624 64.1094 131.812 65.9212 131.812 68.1562C131.812 70.3913 133.624 72.2031 135.859 72.2031C138.094 72.2031 139.906 70.3913 139.906 68.1562C139.906 65.9212 138.094 64.1094 135.859 64.1094ZM73.4219 37.5156C79.4884 37.5156 84.4062 42.4335 84.4062 48.5C84.4062 54.5665 79.4884 59.4844 73.4219 59.4844C67.3554 59.4844 62.4375 54.5665 62.4375 48.5C62.4375 42.4335 67.3554 37.5156 73.4219 37.5156ZM73.4219 44.4531C71.1868 44.4531 69.375 46.265 69.375 48.5C69.375 50.735 71.1868 52.5469 73.4219 52.5469C75.6569 52.5469 77.4688 50.735 77.4688 48.5C77.4688 46.265 75.6569 44.4531 73.4219 44.4531ZM10.9844 27.1094C17.0509 27.1094 21.9688 32.0272 21.9688 38.0938C21.9688 44.1603 17.0509 49.0781 10.9844 49.0781C4.91787 49.0781 0 44.1603 0 38.0938C0 32.0272 4.91787 27.1094 10.9844 27.1094ZM135.859 27.1094C141.926 27.1094 146.844 32.0272 146.844 38.0938C146.844 44.1603 141.926 49.0781 135.859 49.0781C129.793 49.0781 124.875 44.1603 124.875 38.0938C124.875 32.0272 129.793 27.1094 135.859 27.1094ZM10.9844 34.0469C8.74935 34.0469 6.9375 35.8587 6.9375 38.0938C6.9375 40.3288 8.74935 42.1406 10.9844 42.1406C13.2194 42.1406 15.0312 40.3288 15.0312 38.0938C15.0312 35.8587 13.2194 34.0469 10.9844 34.0469ZM135.859 34.0469C133.624 34.0469 131.812 35.8587 131.812 38.0938C131.812 40.3288 133.624 42.1406 135.859 42.1406C138.094 42.1406 139.906 40.3288 139.906 38.0938C139.906 35.8587 138.094 34.0469 135.859 34.0469ZM73.4219 0.515625C79.4884 0.515625 84.4062 5.4335 84.4062 11.5C84.4062 17.5665 79.4884 22.4844 73.4219 22.4844C67.3554 22.4844 62.4375 17.5665 62.4375 11.5C62.4375 5.4335 67.3554 0.515625 73.4219 0.515625ZM73.4219 7.45312C71.1868 7.45312 69.375 9.26497 69.375 11.5C69.375 13.735 71.1868 15.5469 73.4219 15.5469C75.6569 15.5469 77.4688 13.735 77.4688 11.5C77.4688 9.26497 75.6569 7.45312 73.4219 7.45312Z" />
<path d="M26.5472 98.2823C27.4699 96.9796 29.2741 96.6716 30.5768 97.5944L58.3268 117.251C59.6295 118.173 59.9376 119.978 59.0148 121.28C58.092 122.583 56.2879 122.891 54.9851 121.968L27.2351 102.312C25.9324 101.389 25.6244 99.5851 26.5472 98.2823ZM26.2782 70.9988C26.9434 69.5475 28.6591 68.9102 30.1104 69.5754L57.8604 82.2942C59.3116 82.9593 59.9489 84.675 59.2837 86.1263C58.6186 87.5776 56.9029 88.2149 55.4516 87.5497L27.7016 74.8309C26.2503 74.1658 25.613 72.4501 26.2782 70.9988ZM55.4516 46.4504C56.9029 45.7852 58.6186 46.4225 59.2837 47.8738C59.9489 49.3251 59.3116 51.0408 57.8604 51.7059L30.1104 64.4247C28.6591 65.0899 26.9434 64.4526 26.2782 63.0013C25.613 61.55 26.2503 59.8343 27.7016 59.1692L55.4516 46.4504ZM54.9216 12.0782C56.1988 11.1203 58.0106 11.3791 58.9685 12.6563C59.9263 13.9334 59.6675 15.7453 58.3903 16.7032L30.6403 37.5157C29.3632 38.4735 27.5513 38.2147 26.5935 36.9375C25.6356 35.6604 25.8944 33.8485 27.1716 32.8907L54.9216 12.0782Z" />
<path d="M88.5164 117.251L116.266 97.5944C117.569 96.6716 119.373 96.9796 120.296 98.2823C121.219 99.5851 120.911 101.389 119.608 102.312L91.8581 121.968C90.5553 122.891 88.7512 122.583 87.8284 121.28C86.9056 119.978 87.2136 118.173 88.5164 117.251ZM91.9216 12.0782L119.672 32.8907C120.949 33.8485 121.208 35.6604 120.25 36.9375C119.292 38.2147 117.48 38.4735 116.203 37.5157L88.4528 16.7032C87.1757 15.7453 86.9169 13.9334 87.8747 12.6563C88.8326 11.3791 90.6444 11.1203 91.9216 12.0782ZM91.3916 46.4504L119.142 59.1692C120.593 59.8343 121.23 61.55 120.565 63.0013C119.9 64.4526 118.184 65.0899 116.733 64.4247L88.9828 51.7059C87.5316 51.0408 86.8943 49.3251 87.5595 47.8738C88.2246 46.4225 89.9403 45.7852 91.3916 46.4504ZM88.9828 82.2942L116.733 69.5754C118.184 68.9102 119.9 69.5475 120.565 70.9988C121.23 72.4501 120.593 74.1658 119.142 74.8309L91.3916 87.5497C89.9403 88.2149 88.2246 87.5776 87.5595 86.1263C86.8943 84.675 87.5316 82.9593 88.9828 82.2942Z" />
</svg>
