<svg viewBox="0 0 131 138" fill="none" stroke="currentColor" xmlns="http://www.w3.org/2000/svg">
<path d="M117.423 68.1921L126.939 87.5006M3.43457 38.6026L8.79357 35.4487C8.79645 17.4599 23.3813 2.875 41.3702 2.875C49.8256 2.875 57.5277 6.095 63.318 11.3792C65.7547 8.92995 68.652 6.98712 71.843 5.66275C75.0341 4.33838 78.4556 3.65866 81.9106 3.66275C94.3881 3.66275 108.021 11.6409 110.701 23.3019C120.073 32.4846 122.54 39.7296 123.129 45.5515" stroke-width="5" stroke-linecap="round" stroke-linejoin="round"/>
<path d="M118.417 99.5469C126.755 96.9508 129.471 92.1524 126.755 86.9458C126.755 86.9458 116.379 94.4524 86.3579 92.6901C72.9834 91.9052 40.7834 85.8562 29.8383 91.0944C21.659 95.0102 20.0633 104.601 31.6927 107.884C40.7719 110.449 37.9918 105.662 80.8006 110.449C93.5512 111.556 107.34 111.656 117.304 107.884C121.079 106.458 124.345 101.585 118.414 99.5469H118.417Z" stroke-width="5" stroke-linecap="round" stroke-linejoin="round"/>
<path d="M118.973 99.176C81.5403 107.7 68.5683 96.3959 36.3252 99.176" stroke-width="5" stroke-linecap="round" stroke-linejoin="round"/>
<path d="M79.0993 54.7975C79.0993 63.3823 72.8376 70.3426 57.7956 70.3426C42.7536 70.3426 24.0948 60.0789 24.6324 54.7975C25.1672 49.5161 42.7536 39.2495 57.7956 39.2495C72.8376 39.2495 79.0993 46.2128 79.0993 54.7975Z" stroke-width="5" stroke-linecap="round" stroke-linejoin="round"/>
<path d="M3.58984 110.693C25.6756 122.049 52.1774 127.337 79.9412 122.682C90.2165 120.96 99.0801 116.276 105.474 110.552" stroke-width="5" stroke-linecap="round" stroke-linejoin="round"/>
<path d="M89.2588 120.255C96.5239 121.831 104.574 128.78 106 135.125" stroke-width="5" stroke-linecap="round" stroke-linejoin="round"/>
<path d="M29.9277 30.0898C41.445 21.2549 59.7415 21.8817 73.1332 28.6667C77.0806 23.2444 95.7681 20.4844 114.369 27.2665" stroke-width="5" stroke-linecap="round" stroke-linejoin="round"/>
<path d="M61.5273 9.86133C65.1038 13.3286 71.6761 20.5908 70.161 27.4046C75.4395 29.9461 80.764 36.4177 79.0821 47.3226" stroke-width="5" stroke-linecap="round" stroke-linejoin="round"/>
<path d="M77.5234 61.6026C78.5929 59.547 79.0989 57.2383 79.0989 54.7946C79.0989 52.4486 78.6332 50.2233 77.6442 48.2281C84.1647 43.6856 95.1587 39.2466 105.049 39.2466C120.088 39.2466 126.352 46.2098 126.352 54.7946C126.352 63.3822 120.088 70.3426 105.049 70.3426C95.3312 70.3426 84.1101 66.0588 77.5234 61.6026Z" stroke-width="5" stroke-linecap="round" stroke-linejoin="round"/>
<path d="M14.8316 57.2987C14.8316 58.9698 14.1678 60.5723 12.9862 61.7539C11.8046 62.9355 10.202 63.5993 8.53103 63.5993C6.86002 63.5993 5.25745 62.9355 4.07586 61.7539C2.89428 60.5723 2.23047 58.9698 2.23047 57.2987C2.23047 53.8171 8.52959 44.5107 8.52959 44.5107C8.52959 44.5107 14.8316 53.82 14.8316 57.2987Z" stroke-width="3" stroke-linejoin="round"/>
<path fill-rule="evenodd" clip-rule="evenodd" d="M59.5113 50.4102C58.3485 50.4102 57.2333 50.8721 56.4111 51.6943C55.5889 52.5165 55.127 53.6317 55.127 54.7945C55.127 55.9573 55.5889 57.0725 56.4111 57.8948C57.2333 58.717 58.3485 59.1789 59.5113 59.1789C60.6741 59.1789 61.7893 58.717 62.6115 57.8948C63.4338 57.0725 63.8957 55.9573 63.8957 54.7945C63.8957 53.6317 63.4338 52.5165 62.6115 51.6943C61.7893 50.8721 60.6741 50.4102 59.5113 50.4102Z" stroke-width="3"/>
<path fill-rule="evenodd" clip-rule="evenodd" d="M110.741 50.4102C109.578 50.4102 108.463 50.8721 107.641 51.6943C106.818 52.5165 106.356 53.6317 106.356 54.7945C106.356 55.9573 106.818 57.0725 107.641 57.8948C108.463 58.717 109.578 59.1789 110.741 59.1789C111.904 59.1789 113.019 58.717 113.841 57.8948C114.663 57.0725 115.125 55.9573 115.125 54.7945C115.125 53.6317 114.663 52.5165 113.841 51.6943C113.019 50.8721 111.904 50.4102 110.741 50.4102Z" stroke-width="3"/>
</svg>
