<svg viewBox="0 0 150 150" fill="none" xmlns="http://www.w3.org/2000/svg">
<path d="M105.34 143.608C106.903 142.918 108.47 142.157 109.993 141.357L107.658 136.938C106.235 137.688 104.775 138.395 103.315 139.042L105.34 143.608Z" fill="currentcolor"/>
<path d="M89.5664 143.485C87.9989 143.812 86.4014 144.095 84.8164 144.317L85.5089 149.267C87.2064 149.03 88.9189 148.73 90.5989 148.377L89.5664 143.485Z" fill="currentcolor"/>
<path d="M70.363 144.848C68.763 144.743 67.148 144.583 65.5605 144.37L64.8955 149.325C66.5955 149.553 68.3255 149.728 70.0355 149.84L70.363 144.848Z" fill="currentcolor"/>
<path d="M6.68164 44.0002L11.2366 46.0702C11.8991 44.6077 12.6216 43.1527 13.3816 41.7452L8.98414 39.3677C8.16914 40.8852 7.39664 42.4452 6.68164 44.0002Z" fill="currentcolor"/>
<path d="M49.8401 145.677L51.5176 140.965C50.0176 140.432 48.5176 139.835 47.0176 139.187L45.0176 143.772C46.6126 144.462 48.2326 145.102 49.8401 145.677Z" fill="currentcolor"/>
<path d="M5.94332 104.313L10.5458 102.358C9.91582 100.878 9.33332 99.3578 8.81582 97.8578L4.09082 99.4878C4.64582 101.103 5.26832 102.725 5.94332 104.313Z" fill="currentcolor"/>
<path d="M0.589688 84.4096L5.54969 83.7896C5.35219 82.2046 5.20719 80.5871 5.11719 78.9846L0.117188 79.2621C0.219688 80.9821 0.377187 82.7121 0.589688 84.4096Z" fill="currentcolor"/>
<path d="M0.835938 63.795L5.78094 64.545C6.01844 62.965 6.31344 61.3675 6.66094 59.795L1.77844 58.7075C1.40844 60.3875 1.09094 62.1 0.835938 63.795Z" fill="currentcolor"/>
<path d="M40.002 130C40.002 126.045 38.829 122.178 36.6314 118.889C34.4337 115.6 31.3102 113.036 27.6556 111.523C24.0011 110.009 19.9798 109.613 16.1002 110.384C12.2205 111.156 8.65688 113.061 5.85983 115.858C3.06278 118.655 1.15796 122.219 0.386257 126.098C-0.385448 129.978 0.0106188 133.999 1.52437 137.654C3.03813 141.308 5.60158 144.432 8.89056 146.63C12.1795 148.827 16.0463 150 20.002 150C25.3045 149.994 30.3881 147.885 34.1375 144.136C37.887 140.386 39.996 135.303 40.002 130ZM20.002 145C17.0353 145 14.1352 144.12 11.6684 142.472C9.20168 140.824 7.27909 138.481 6.14377 135.74C5.00846 133 4.71141 129.984 5.29019 127.074C5.86896 124.164 7.29758 121.491 9.39537 119.394C11.4932 117.296 14.1659 115.867 17.0756 115.288C19.9853 114.71 23.0013 115.007 25.7422 116.142C28.4831 117.277 30.8258 119.2 32.474 121.667C34.1222 124.133 35.002 127.033 35.002 130C34.998 133.977 33.4164 137.79 30.6042 140.602C27.792 143.415 23.979 144.996 20.002 145Z" fill="currentcolor"/>
<path d="M12.6589 121.732C12.7909 121.605 12.9651 121.531 13.1446 121.531H29.9028C30.209 121.531 30.3622 121.901 30.1457 122.117L26.8352 125.428C26.7085 125.554 26.5343 125.628 26.3495 125.628H9.59132C9.28509 125.628 9.13198 125.259 9.34845 125.042L12.6589 121.732Z" fill="currentcolor"/>
<path d="M12.6589 134.092C12.7856 133.965 12.9599 133.891 13.1446 133.891H29.9028C30.209 133.891 30.3622 134.261 30.1457 134.477L26.8352 137.788C26.7085 137.914 26.5343 137.988 26.3495 137.988H9.59132C9.28509 137.988 9.13198 137.619 9.34845 137.402L12.6589 134.092Z" fill="currentcolor"/>
<path d="M26.3495 127.672C26.5343 127.672 26.7085 127.745 26.8352 127.872L30.1457 131.183C30.3622 131.399 30.209 131.769 29.9028 131.769H13.1446C12.9599 131.769 12.7856 131.695 12.6589 131.568L9.34845 128.258C9.13198 128.041 9.28509 127.672 9.59132 127.672H26.3495Z" fill="currentcolor"/>
<path d="M149.997 20.0002C150 15.5836 148.54 11.2906 145.845 7.79163C143.15 4.29269 139.372 1.7849 135.101 0.659993C130.83 -0.464914 126.307 -0.143586 122.238 1.57379C118.169 3.29116 114.783 6.30785 112.61 10.1526C98.0453 1.68273 81.0504 -1.62923 64.3711 0.751897C47.6919 3.13303 32.3026 11.0682 20.6898 23.2752C19.6682 24.3485 18.6765 25.4527 17.7148 26.5877L21.5348 29.8152C22.4298 28.7568 23.3548 27.7268 24.3099 26.7252L22.4973 25.0002L24.3073 26.7227C35.2289 15.2442 49.7254 7.81552 65.4214 5.65395C81.1174 3.49238 97.0822 6.72606 110.7 14.8252C109.775 18.215 109.763 21.789 110.665 25.185C111.567 28.5811 113.35 31.6783 115.835 34.1629C118.319 36.6474 121.417 38.431 124.813 39.3327C128.209 40.2345 131.783 40.2224 135.172 39.2977C143.272 52.9154 146.506 68.8806 144.344 84.5768C142.182 100.273 134.752 114.769 123.272 125.69C122.112 126.798 120.897 127.875 119.667 128.895L122.86 132.75C124.177 131.655 125.477 130.5 126.722 129.313C138.93 117.7 146.865 102.31 149.246 85.6299C151.627 68.95 148.314 51.9546 139.842 37.3902C142.922 35.6487 145.484 33.1216 147.268 30.0665C149.052 27.0115 149.994 23.5379 149.997 20.0002ZM129.997 35.0002C127.031 35.0002 124.131 34.1204 121.664 32.4722C119.197 30.824 117.275 28.4813 116.139 25.7404C115.004 22.9995 114.707 19.9835 115.286 17.0738C115.864 14.1641 117.293 11.4913 119.391 9.39355C121.489 7.29576 124.161 5.86714 127.071 5.28836C129.981 4.70958 132.997 5.00663 135.738 6.14195C138.479 7.27727 140.821 9.19986 142.469 11.6666C144.118 14.1333 144.997 17.0334 144.997 20.0002C144.993 23.9772 143.412 27.7902 140.6 30.6024C137.787 33.4146 133.974 34.9962 129.997 35.0002Z" fill="currentcolor"/>
<path d="M130.25 8.875V30.875" stroke="currentcolor" stroke-width="3" stroke-linecap="round" stroke-linejoin="round"/>
<path d="M135.25 12.875H127.75C126.822 12.875 125.932 13.2437 125.275 13.9001C124.619 14.5565 124.25 15.4467 124.25 16.375C124.25 17.3033 124.619 18.1935 125.275 18.8499C125.932 19.5063 126.822 19.875 127.75 19.875H132.75C133.678 19.875 134.568 20.2437 135.225 20.9001C135.881 21.5565 136.25 22.4467 136.25 23.375C136.25 24.3033 135.881 25.1935 135.225 25.8499C134.568 26.5063 133.678 26.875 132.75 26.875H124.25" stroke="currentcolor" stroke-width="3" stroke-linecap="round" stroke-linejoin="round"/>
<path d="M75 110C94.33 110 110 94.33 110 75C110 55.67 94.33 40 75 40C55.67 40 40 55.67 40 75C40 94.33 55.67 110 75 110Z" stroke="currentcolor" stroke-width="6" stroke-linecap="round" stroke-linejoin="round"/>
<path d="M75 54V75L89 82" stroke="currentcolor" stroke-width="6" stroke-linecap="round" stroke-linejoin="round"/>
</svg>
