<svg viewBox="0 0 150 150" fill="none" xmlns="http://www.w3.org/2000/svg">
<path d="M105.34 143.608C106.903 142.918 108.47 142.157 109.993 141.357L107.658 136.938C106.235 137.688 104.775 138.395 103.315 139.042L105.34 143.608Z" fill="currentcolor"/>
<path d="M89.5664 143.485C87.9989 143.812 86.4014 144.095 84.8164 144.317L85.5089 149.267C87.2064 149.03 88.9189 148.73 90.5989 148.377L89.5664 143.485Z" fill="currentcolor"/>
<path d="M70.363 144.848C68.763 144.743 67.148 144.583 65.5605 144.37L64.8955 149.325C66.5955 149.553 68.3255 149.728 70.0355 149.84L70.363 144.848Z" fill="currentcolor"/>
<path d="M6.68164 44.0002L11.2366 46.0702C11.8991 44.6077 12.6216 43.1527 13.3816 41.7452L8.98414 39.3677C8.16914 40.8852 7.39664 42.4452 6.68164 44.0002Z" fill="currentcolor"/>
<path d="M49.8401 145.677L51.5176 140.965C50.0176 140.432 48.5176 139.835 47.0176 139.187L45.0176 143.772C46.6126 144.462 48.2326 145.102 49.8401 145.677Z" fill="currentcolor"/>
<path d="M5.94332 104.313L10.5458 102.358C9.91582 100.878 9.33332 99.3579 8.81582 97.8579L4.09082 99.4879C4.64582 101.103 5.26832 102.725 5.94332 104.313Z" fill="currentcolor"/>
<path d="M0.589688 84.4096L5.54969 83.7896C5.35219 82.2046 5.20719 80.5871 5.11719 78.9846L0.117188 79.2621C0.219688 80.9821 0.377187 82.7121 0.589688 84.4096Z" fill="currentcolor"/>
<path d="M0.835938 63.795L5.78094 64.545C6.01844 62.965 6.31344 61.3675 6.66094 59.795L1.77844 58.7075C1.40844 60.3875 1.09094 62.1 0.835938 63.795Z" fill="currentcolor"/>
<path d="M40.002 130C40.002 126.044 38.829 122.178 36.6314 118.889C34.4337 115.6 31.3102 113.036 27.6556 111.522C24.0011 110.009 19.9798 109.613 16.1002 110.384C12.2205 111.156 8.65688 113.061 5.85983 115.858C3.06278 118.655 1.15796 122.219 0.386257 126.098C-0.385448 129.978 0.0106188 133.999 1.52437 137.654C3.03813 141.308 5.60158 144.432 8.89056 146.629C12.1795 148.827 16.0463 150 20.002 150C25.3045 149.994 30.3881 147.885 34.1375 144.136C37.887 140.386 39.996 135.303 40.002 130ZM20.002 145C17.0353 145 14.1352 144.12 11.6684 142.472C9.20168 140.824 7.27909 138.481 6.14377 135.74C5.00846 132.999 4.71141 129.983 5.29019 127.074C5.86896 124.164 7.29758 121.491 9.39537 119.393C11.4932 117.296 14.1659 115.867 17.0756 115.288C19.9853 114.709 23.0013 115.007 25.7422 116.142C28.4831 117.277 30.8258 119.2 32.474 121.666C34.1222 124.133 35.002 127.033 35.002 130C34.998 133.977 33.4164 137.79 30.6042 140.602C27.792 143.414 23.979 144.996 20.002 145Z" fill="currentcolor"/>
<path d="M19.5 122V132.125L26.25 135.5" stroke="currentcolor" stroke-width="5" stroke-linecap="round" stroke-linejoin="round"/>
<path d="M123.159 11.7316C123.291 11.6049 123.465 11.531 123.645 11.531H140.403C140.709 11.531 140.862 11.9006 140.646 12.1171L137.335 15.4275C137.209 15.5542 137.034 15.6281 136.849 15.6281H120.091C119.785 15.6281 119.632 15.2586 119.848 15.0421L123.159 11.7316Z" fill="currentcolor"/>
<path d="M123.159 24.0917C123.286 23.965 123.46 23.8911 123.645 23.8911H140.403C140.709 23.8911 140.862 24.2607 140.646 24.4772L137.335 27.7876C137.209 27.9143 137.034 27.9883 136.849 27.9883H120.091C119.785 27.9883 119.632 27.6187 119.848 27.4022L123.159 24.0917Z" fill="currentcolor"/>
<path d="M136.849 17.6716C137.034 17.6716 137.209 17.7455 137.335 17.8722L140.646 21.1827C140.862 21.3991 140.709 21.7687 140.403 21.7687H123.645C123.46 21.7687 123.286 21.6948 123.159 21.5681L119.848 18.2576C119.632 18.0412 119.785 17.6716 120.091 17.6716H136.849Z" fill="currentcolor"/>
<path d="M149.997 20.0002C150 15.5836 148.54 11.2906 145.845 7.79163C143.15 4.29269 139.372 1.7849 135.101 0.659993C130.83 -0.464914 126.307 -0.143586 122.238 1.57379C118.169 3.29116 114.783 6.30785 112.61 10.1526C98.0453 1.68273 81.0504 -1.62923 64.3711 0.751897C47.6919 3.13303 32.3026 11.0682 20.6898 23.2752C19.6682 24.3485 18.6765 25.4527 17.7148 26.5877L21.5348 29.8152C22.4298 28.7568 23.3548 27.7268 24.3099 26.7252L22.4973 25.0002L24.3073 26.7227C35.2289 15.2442 49.7254 7.81552 65.4214 5.65395C81.1174 3.49238 97.0822 6.72606 110.7 14.8252C109.775 18.215 109.763 21.789 110.665 25.185C111.567 28.5811 113.35 31.6783 115.835 34.1629C118.319 36.6474 121.417 38.431 124.813 39.3327C128.209 40.2345 131.783 40.2224 135.172 39.2977C143.272 52.9154 146.506 68.8806 144.344 84.5768C142.182 100.273 134.752 114.769 123.272 125.69C122.112 126.798 120.897 127.875 119.667 128.895L122.86 132.75C124.177 131.655 125.477 130.5 126.722 129.313C138.93 117.7 146.865 102.31 149.246 85.6299C151.627 68.95 148.314 51.9546 139.842 37.3902C142.922 35.6487 145.484 33.1216 147.268 30.0665C149.052 27.0115 149.994 23.5379 149.997 20.0002ZM129.997 35.0002C127.031 35.0002 124.131 34.1204 121.664 32.4722C119.197 30.824 117.275 28.4813 116.139 25.7404C115.004 22.9995 114.707 19.9835 115.286 17.0738C115.864 14.1641 117.293 11.4913 119.391 9.39355C121.489 7.29576 124.161 5.86714 127.071 5.28836C129.981 4.70958 132.997 5.00663 135.738 6.14195C138.479 7.27727 140.821 9.19986 142.469 11.6666C144.118 14.1333 144.997 17.0334 144.997 20.0002C144.993 23.9772 143.412 27.7902 140.6 30.6024C137.787 33.4146 133.974 34.9962 129.997 35.0002Z" fill="currentcolor"/>
<path d="M76.2051 54.375V96.375" stroke="currentcolor" stroke-width="6" stroke-linecap="round" stroke-linejoin="round"/>
<path d="M85.75 62.0112H71.4318C69.6597 62.0112 67.9601 62.7152 66.7071 63.9683C65.454 65.2214 64.75 66.9209 64.75 68.693C64.75 70.4652 65.454 72.1647 66.7071 73.4178C67.9601 74.6709 69.6597 75.3749 71.4318 75.3749H80.9773C82.7494 75.3749 84.449 76.0788 85.702 77.3319C86.9551 78.585 87.6591 80.2846 87.6591 82.0567C87.6591 83.8288 86.9551 85.5284 85.702 86.7814C84.449 88.0345 82.7494 88.7385 80.9773 88.7385H64.75" stroke="currentcolor" stroke-width="6" stroke-linecap="round" stroke-linejoin="round"/>
<path d="M75 110C94.33 110 110 94.33 110 75C110 55.67 94.33 40 75 40C55.67 40 40 55.67 40 75C40 94.33 55.67 110 75 110Z" stroke="currentcolor" stroke-width="6" stroke-linecap="round" stroke-linejoin="round"/>
</svg>
