<svg viewBox="0 0 158 144" fill="none" xmlns="http://www.w3.org/2000/svg">
<path d="M52.5932 130.909H13.0586L14.6295 126.524C15.1204 125.182 15.6441 123.775 16.1677 122.367L16.6259 121.156C19.5386 113.4 23.1713 103.745 24.7095 100.8C27.1968 95.4981 35.1168 91.2763 44.3459 86.3672C46.6368 85.1563 48.9605 83.9126 51.2514 82.6035C62.1496 76.4508 75.9605 81.1635 81.8514 83.1599L83.2587 83.6508C85.5688 84.287 87.9713 84.5195 90.3605 84.3381C98.346 81.0654 106.724 78.2508 114.644 79.1017C116.011 79.1892 117.342 79.5778 118.542 80.2398C119.741 80.9017 120.78 81.8207 121.582 82.9308C122.256 83.918 122.724 85.0312 122.957 86.2035C132.775 82.9308 144.721 79.2981 150.251 80.3454C152.022 80.4498 153.704 81.1555 155.019 82.3457C156.335 83.5359 157.204 85.1393 157.484 86.8908C157.844 90.8508 154.604 94.6799 149.302 96.709C146.03 97.9199 134.215 104.236 123.808 109.8C108.491 117.818 101.422 121.647 99.1642 122.204C94.9423 123.284 81.6878 122.564 71.3132 121.778C66.9473 121.525 62.5677 121.645 58.2223 122.138C57.9708 122.54 57.7414 122.955 57.535 123.382C57.0587 124.321 56.654 125.295 56.3241 126.295C56.0623 127.08 55.8332 127.8 55.6041 128.553L54.9168 130.876L52.5932 130.909ZM22.3859 124.364H50.2041V124.102C50.6309 122.798 51.1561 121.529 51.775 120.305C52.4218 118.944 53.2838 117.695 54.3277 116.607L55.1132 115.822H56.1932C61.3485 115.177 66.5517 115.002 71.7387 115.298C80.2887 116.273 88.9094 116.47 97.4951 115.887C99.426 115.331 111.208 109.014 120.699 103.942C132.317 97.7236 143.281 91.8326 146.881 90.4581C149.826 89.3454 150.841 87.8072 150.841 87.3817C150.254 87.0468 149.61 86.8248 148.942 86.7272C145.67 86.1054 135.851 88.5272 123.448 92.8799L121.582 93.5672L120.437 93.9599L116.51 94.909V89.8363C116.807 88.7454 116.703 87.5838 116.215 86.5635C115.911 86.2444 115.545 85.9901 115.14 85.8158C114.736 85.6414 114.3 85.5507 113.859 85.549C107.313 84.8617 99.5896 87.5454 92.2587 90.5235L91.4078 90.7526C87.968 91.0979 84.494 90.7982 81.1641 89.869L79.5932 89.3454C74.5205 87.6108 62.6732 83.5854 54.3277 88.2981C52.0041 89.6072 49.615 90.8836 47.2914 92.1272C40.1895 95.9236 32.1059 100.244 30.535 103.582C29.4223 105.905 26.1168 114.251 22.6477 123.447L22.3859 124.364Z" fill="currentcolor"/>
<path d="M97.691 108.295H79.0364C78.1684 108.295 77.336 107.95 76.7222 107.336C76.1085 106.723 75.7637 105.89 75.7637 105.022C75.7637 104.154 76.1085 103.322 76.7222 102.708C77.336 102.094 78.1684 101.749 79.0364 101.749H97.691C101.519 101.748 105.275 100.713 108.564 98.7545C111.853 96.7961 114.553 93.9866 116.378 90.6221C116.543 90.2038 116.791 89.8237 117.109 89.5057C117.427 89.1877 117.806 88.9385 118.224 88.7737C118.643 88.6089 119.09 88.532 119.539 88.5478C119.989 88.5636 120.43 88.6717 120.835 88.8655C121.241 89.0593 121.602 89.3345 121.897 89.674C122.191 90.0136 122.413 90.4101 122.547 90.839C122.682 91.2679 122.726 91.7199 122.679 92.1668C122.631 92.6137 122.491 93.046 122.269 93.4367C119.923 97.9241 116.391 101.682 112.057 104.302C107.724 106.922 102.755 108.303 97.691 108.295Z" fill="currentcolor"/>
<path d="M52.4646 144H7.0391C5.96258 143.994 4.90517 143.715 3.96628 143.188C3.02738 142.661 2.23782 141.904 1.67182 140.989C1.03651 140.029 0.665665 138.918 0.596713 137.769C0.52776 136.619 0.763137 135.472 1.2791 134.443L4.32274 127.898C4.85995 126.86 5.66535 125.984 6.65525 125.363C7.64515 124.741 8.78343 124.396 9.95184 124.363H55.5083C56.5848 124.369 57.6422 124.648 58.5811 125.175C59.52 125.702 60.3095 126.458 60.8755 127.374C61.5109 128.334 61.8817 129.445 61.9506 130.594C62.0196 131.743 61.7842 132.89 61.2683 133.92L58.2246 140.465C57.6947 141.537 56.873 142.437 55.854 143.062C54.835 143.688 53.6601 144.012 52.4646 144ZM10.0827 130.909L7.0391 137.454H52.4646L55.3774 131.105L10.0827 130.909Z" fill="currentcolor"/>
<path d="M145.731 68.7282H67.971C66.845 68.7282 65.73 68.5064 64.6897 68.0755C63.6494 67.6446 62.7041 67.013 61.9079 66.2168C61.1117 65.4206 60.4801 64.4753 60.0492 63.435C59.6183 62.3947 59.3965 61.2797 59.3965 60.1537V21.6664C59.3965 20.5403 59.6183 19.4253 60.0492 18.385C60.4801 17.3447 61.1117 16.3994 61.9079 15.6032C62.7041 14.807 63.6494 14.1754 64.6897 13.7445C65.73 13.3136 66.845 13.0918 67.971 13.0918H145.731C148.005 13.0918 150.186 13.9952 151.794 15.6032C153.402 17.2113 154.306 19.3922 154.306 21.6664V60.1537C154.306 62.4278 153.402 64.6088 151.794 66.2168C150.186 67.8248 148.005 68.7282 145.731 68.7282ZM67.971 19.6373C67.4355 19.6457 66.9243 19.8622 66.5456 20.2409C66.1669 20.6196 65.9504 21.1308 65.9419 21.6664V60.1537C65.9504 60.6892 66.1669 61.2004 66.5456 61.5791C66.9243 61.9578 67.4355 62.1743 67.971 62.1828H145.731C146.267 62.1743 146.778 61.9578 147.157 61.5791C147.535 61.2004 147.752 60.6892 147.76 60.1537V21.6664C147.752 21.1308 147.535 20.6196 147.157 20.2409C146.778 19.8622 146.267 19.6457 145.731 19.6373H67.971Z" fill="currentcolor"/>
<path d="M65.9429 55.6364H9.06284C6.78872 55.6364 4.60775 54.733 2.99971 53.125C1.39167 51.517 0.488281 49.336 0.488281 47.0619V8.57456C0.488281 6.30044 1.39167 4.11947 2.99971 2.51143C4.60775 0.903387 6.78872 0 9.06284 0H86.8229C89.0971 0 91.278 0.903387 92.8861 2.51143C94.4941 4.11947 95.3975 6.30044 95.3975 8.57456V19.6364H67.972C67.4365 19.6448 66.9253 19.8613 66.5465 20.24C66.1678 20.6187 65.9513 21.13 65.9429 21.6655V55.6364ZM9.06284 6.54546C8.52732 6.5539 8.0161 6.77038 7.63738 7.1491C7.25867 7.52782 7.04218 8.03904 7.03374 8.57456V47.0619C7.04218 47.5974 7.25867 48.1086 7.63738 48.4873C8.0161 48.8661 8.52732 49.0825 9.06284 49.091H59.3974V21.6655C59.3974 20.5395 59.6192 19.4245 60.0501 18.3841C60.4811 17.3438 61.1127 16.3986 61.9089 15.6024C62.7051 14.8061 63.6503 14.1745 64.6907 13.7436C65.731 13.3127 66.846 13.0909 67.972 13.0909H88.852V8.57456C88.8436 8.03904 88.6271 7.52782 88.2484 7.1491C87.8697 6.77038 87.3585 6.5539 86.8229 6.54546H9.06284Z" fill="currentcolor"/>
<path d="M23.8711 16.5676C24.0597 16.3866 24.3086 16.281 24.565 16.281H48.5053C48.9428 16.281 49.1615 16.809 48.8522 17.1182L44.123 21.8474C43.942 22.0285 43.6931 22.1341 43.4291 22.1341H19.4889C19.0514 22.1341 18.8327 21.6061 19.1419 21.2968L23.8711 16.5676Z" fill="currentcolor"/>
<path d="M23.8711 34.2249C24.0521 34.0439 24.301 33.9383 24.565 33.9383H48.5053C48.9428 33.9383 49.1615 34.4663 48.8522 34.7755L44.123 39.5047C43.942 39.6858 43.6931 39.7914 43.4291 39.7914H19.4889C19.0514 39.7914 18.8327 39.2634 19.1419 38.9541L23.8711 34.2249Z" fill="currentcolor"/>
<path d="M43.4291 25.0533C43.6931 25.0533 43.942 25.1588 44.123 25.3399L48.8522 30.0691C49.1615 30.3783 48.9428 30.9063 48.5053 30.9063H24.565C24.301 30.9063 24.0521 30.8007 23.8711 30.6197L19.1419 25.8905C18.8327 25.5812 19.0514 25.0533 19.4889 25.0533H43.4291Z" fill="currentcolor"/>
<path d="M83.5501 56.061H75.761C74.893 56.061 74.0606 55.7162 73.4468 55.1024C72.8331 54.4887 72.4883 53.6562 72.4883 52.7882C72.4883 51.9203 72.8331 51.0878 73.4468 50.4741C74.0606 49.8603 74.893 49.5155 75.761 49.5155H83.5501C84.4181 49.5155 85.2505 49.8603 85.8643 50.4741C86.478 51.0878 86.8228 51.9203 86.8228 52.7882C86.8228 53.6562 86.478 54.4887 85.8643 55.1024C85.2505 55.7162 84.4181 56.061 83.5501 56.061Z" fill="currentcolor"/>
<path d="M101.678 56.061H93.8889C93.021 56.061 92.1885 55.7162 91.5748 55.1024C90.961 54.4887 90.6162 53.6562 90.6162 52.7882C90.6162 51.9203 90.961 51.0878 91.5748 50.4741C92.1885 49.8603 93.021 49.5155 93.8889 49.5155H101.678C102.546 49.5155 103.378 49.8603 103.992 50.4741C104.606 51.0878 104.951 51.9203 104.951 52.7882C104.951 53.6562 104.606 54.4887 103.992 55.1024C103.378 55.7162 102.546 56.061 101.678 56.061Z" fill="currentcolor"/>
<path d="M119.816 56.061H112.027C111.159 56.061 110.326 55.7162 109.712 55.1024C109.099 54.4887 108.754 53.6562 108.754 52.7882C108.754 51.9203 109.099 51.0878 109.712 50.4741C110.326 49.8603 111.159 49.5155 112.027 49.5155H119.816C120.684 49.5155 121.516 49.8603 122.13 50.4741C122.744 51.0878 123.088 51.9203 123.088 52.7882C123.088 53.6562 122.744 54.4887 122.13 55.1024C121.516 55.7162 120.684 56.061 119.816 56.061Z" fill="currentcolor"/>
<path d="M137.94 56.061H130.184C129.316 56.061 128.483 55.7162 127.87 55.1024C127.256 54.4887 126.911 53.6562 126.911 52.7882C126.911 51.9203 127.256 51.0878 127.87 50.4741C128.483 49.8603 129.316 49.5155 130.184 49.5155H137.94C138.808 49.5155 139.641 49.8603 140.254 50.4741C140.868 51.0878 141.213 51.9203 141.213 52.7882C141.213 53.6562 140.868 54.4887 140.254 55.1024C139.641 55.7162 138.808 56.061 137.94 56.061Z" fill="currentcolor"/>
<path d="M112.088 45.8175H78.7065C77.0573 45.8175 75.4757 45.1624 74.3095 43.9963C73.1434 42.8301 72.4883 41.2485 72.4883 39.5994V32.3993C72.4883 30.7502 73.1434 29.1686 74.3095 28.0024C75.4757 26.8363 77.0573 26.1812 78.7065 26.1812H112.088C113.737 26.1812 115.319 26.8363 116.485 28.0024C117.651 29.1686 118.307 30.7502 118.307 32.3993V39.5994C118.307 41.2485 117.651 42.8301 116.485 43.9963C115.319 45.1624 113.737 45.8175 112.088 45.8175ZM79.0337 39.2721H111.761V32.7266H79.0337V39.2721Z" fill="currentcolor"/>
<path d="M23.3989 78.5448C21.6663 78.5945 19.9417 78.2899 18.331 77.6496C16.7202 77.0094 15.2572 76.0469 14.0315 74.8213C12.8059 73.5956 11.8434 72.1326 11.2031 70.5218C10.5629 68.9111 10.2582 67.1865 10.308 65.4539C10.308 64.5859 10.6528 63.7535 11.2665 63.1397C11.8803 62.526 12.7127 62.1812 13.5807 62.1812C14.4487 62.1812 15.2811 62.526 15.8949 63.1397C16.5086 63.7535 16.8534 64.5859 16.8534 65.4539C16.7956 66.3284 16.9252 67.2052 17.2337 68.0256C17.5422 68.8459 18.0224 69.5909 18.6421 70.2107C19.2619 70.8304 20.0068 71.3106 20.8272 71.6191C21.6476 71.9275 22.5244 72.0572 23.3989 71.9993C25.3673 72.1819 27.3487 71.8352 29.1381 70.9951C30.9276 70.1551 32.4601 68.8522 33.5771 67.2212C33.9808 66.4618 34.6673 65.8918 35.488 65.6346C36.3086 65.3774 37.1976 65.4535 37.9626 65.8466C38.7249 66.2389 39.3028 66.9147 39.5721 67.7287C39.8414 68.5427 39.7805 69.4298 39.4026 70.1993C37.7523 72.92 35.388 75.1364 32.5666 76.6077C29.7451 78.079 26.5744 78.749 23.3989 78.5448Z" fill="currentcolor"/>
<path d="M39.7601 81.8175C38.8922 81.8175 38.0597 81.4727 37.446 80.859C36.8322 80.2452 36.4874 79.4128 36.4874 78.5448V68.7266H26.6692C25.8012 68.7266 24.9688 68.3818 24.355 67.7681C23.7413 67.1543 23.3965 66.3219 23.3965 65.4539C23.3965 64.5859 23.7413 63.7535 24.355 63.1397C24.9688 62.526 25.8012 62.1812 26.6692 62.1812H37.0438C38.6295 62.1897 40.1479 62.8235 41.2692 63.9448C42.3905 65.0661 43.0243 66.5845 43.0329 68.1703V78.5448C43.0329 79.4128 42.6881 80.2452 42.0743 80.859C41.4606 81.4727 40.6281 81.8175 39.7601 81.8175Z" fill="currentcolor"/>
</svg>
