<svg viewBox="0 0 170 156" fill="none" xmlns="http://www.w3.org/2000/svg">
<path d="M71.6691 53.8404C72.0662 53.459 72.5905 53.2363 73.131 53.2363H123.564C124.485 53.2363 124.946 54.3486 124.295 55.0002L114.332 64.963C113.951 65.3443 113.427 65.5666 112.87 65.5666H62.4374C61.5158 65.5666 61.055 64.4543 61.7065 63.8032L71.6691 53.8404Z" fill="currentcolor"/>
<path d="M71.6691 91.038C72.0505 90.6566 72.5748 90.4343 73.131 90.4343H123.564C124.485 90.4343 124.946 91.5466 124.295 92.1978L114.332 102.161C113.951 102.542 113.427 102.765 112.87 102.765H62.4374C61.5158 102.765 61.055 101.652 61.7065 101.001L71.6691 91.038Z" fill="currentcolor"/>
<path d="M114.332 72.3214C113.951 71.9405 113.427 71.7178 112.87 71.7178H62.4374C61.5158 71.7178 61.055 72.8301 61.7065 73.4817L71.6691 83.444C72.0505 83.8253 72.5748 84.0481 73.131 84.0481H123.564C124.485 84.0481 124.946 82.9358 124.295 82.2842L114.332 72.3214Z" fill="currentcolor"/>
<path d="M24.1895 112.214V136.214" stroke="currentcolor" stroke-width="4" stroke-linecap="round" stroke-linejoin="round"/>
<path d="M29.6436 116.578H21.4617C20.4491 116.578 19.4779 116.98 18.7619 117.696C18.0458 118.412 17.6436 119.383 17.6436 120.396C17.6436 121.408 18.0458 122.38 18.7619 123.096C19.4779 123.812 20.4491 124.214 21.4617 124.214H26.9163C27.9289 124.214 28.9001 124.616 29.6161 125.332C30.3322 126.048 30.7345 127.02 30.7345 128.032C30.7345 129.045 30.3322 130.016 29.6161 130.732C28.9001 131.448 27.9289 131.85 26.9163 131.85H17.6436" stroke="currentcolor" stroke-width="4" stroke-linecap="round" stroke-linejoin="round"/>
<path d="M23.5 144C34.5457 144 43.5 135.046 43.5 124C43.5 112.954 34.5457 104 23.5 104C12.4543 104 3.5 112.954 3.5 124C3.5 135.046 12.4543 144 23.5 144Z" stroke="currentcolor" stroke-width="6" stroke-linecap="round" stroke-linejoin="round"/>
<path fill-rule="evenodd" clip-rule="evenodd" d="M149.746 4.60445C149.746 2.44604 147.997 0.696289 145.838 0.696289C143.68 0.696289 141.93 2.44604 141.93 4.60445L141.875 20.3254C123.47 5.01007 98.1465 -1.43859 73.2456 5.23356C32.5283 16.1437 8.36479 57.9959 19.275 98.7134C19.5929 99.8998 19.937 101.072 20.3067 102.23C21.3492 102.078 22.4154 102 23.5 102C25.2917 102 27.0334 102.214 28.7009 102.618C27.9938 100.69 27.3669 98.7129 26.825 96.6905C17.0321 60.1428 38.7211 22.5765 75.2685 12.7836C97.8156 6.74223 120.752 12.6788 137.322 26.7091H119.825C117.667 26.7091 115.917 28.4589 115.917 30.6173C115.917 32.7758 117.667 34.5255 119.825 34.5255H145.838C147.997 34.5255 149.746 32.7758 149.746 30.6173V4.60445ZM45.1386 127.993C44.6191 130.826 43.5565 133.471 42.0628 135.813C60.6185 152.406 86.9153 159.608 112.755 152.684C153.472 141.774 177.636 99.9218 166.726 59.2043C165.433 54.379 163.704 49.783 161.592 45.4483C160.646 43.508 158.307 42.7015 156.366 43.647C154.426 44.5924 153.62 46.9318 154.565 48.8721C156.46 52.76 158.012 56.887 159.176 61.2272C168.968 97.7749 147.28 135.341 110.732 145.134C86.526 151.62 61.8733 144.296 45.1386 127.993Z" fill="currentcolor"/>
</svg>
