<svg viewBox="0 0 156 156" fill="none" xmlns="http://www.w3.org/2000/svg">
<path d="M127.297 27.1632C128.813 25.4546 129.752 23.2647 129.752 20.8101C129.752 15.5158 125.444 11.2083 120.15 11.2083C114.856 11.2083 110.548 15.5158 110.548 20.8101C110.548 23.2647 111.487 25.4546 113.003 27.1632C107.035 29.8825 102.896 35.8986 102.896 42.8774C102.896 44.201 103.978 45.2839 105.302 45.2839H135.022C136.345 45.2839 137.428 44.201 137.428 42.8774C137.428 35.8986 133.265 29.9065 127.297 27.1632ZM120.15 16.0212C122.797 16.0212 124.939 18.163 124.939 20.8101C124.939 23.4572 122.797 25.5989 120.15 25.5989C117.503 25.5989 115.361 23.4572 115.361 20.8101C115.361 18.163 117.527 16.0212 120.15 16.0212ZM107.949 40.4709C109.08 34.7435 114.11 30.4119 120.15 30.4119C126.19 30.4119 131.244 34.7435 132.375 40.4709H107.949Z" fill="currentcolor"/>
<path d="M53.0807 93.7498C53.0807 86.7711 48.9175 80.779 42.9495 78.0596C44.4655 76.351 45.4041 74.1612 45.4041 71.7066C45.4041 66.4123 41.0965 62.1047 35.8022 62.1047C30.508 62.1047 26.2004 66.4123 26.2004 71.7066C26.2004 74.1612 27.1389 76.351 28.655 78.0596C22.687 80.779 18.5479 86.7951 18.5479 93.7739C18.5479 95.0974 19.6308 96.1804 20.9543 96.1804H50.6502C51.9978 96.1563 53.0807 95.0734 53.0807 93.7498ZM35.8022 66.9177C38.4494 66.9177 40.5911 69.0594 40.5911 71.7066C40.5911 74.3537 38.4494 76.4954 35.8022 76.4954C33.1551 76.4954 31.0134 74.3537 31.0134 71.7066C31.0134 69.0594 33.1792 66.9177 35.8022 66.9177ZM23.6014 91.3434C24.7325 85.616 29.762 81.2843 35.8022 81.2843C41.8425 81.2843 46.8961 85.616 48.0271 91.3434H23.6014Z" fill="currentcolor"/>
<path d="M78.0593 139.088H67.0617C65.7382 139.088 64.6553 140.171 64.6553 141.495C64.6553 142.818 65.7382 143.901 67.0617 143.901H78.0593C79.3829 143.901 80.4658 142.818 80.4658 141.495C80.4658 140.171 79.4069 139.088 78.0593 139.088Z" fill="currentcolor"/>
<path d="M73.1242 29.6418H80.8009C82.1244 29.6418 83.2073 28.5589 83.2073 27.2353C83.2073 25.9118 82.1244 24.8289 80.8009 24.8289H73.1242C71.8007 24.8289 70.7178 25.9118 70.7178 27.2353C70.7178 28.5589 71.8007 29.6418 73.1242 29.6418Z" fill="currentcolor"/>
<path d="M64.3684 29.6418H65.4994C66.823 29.6418 67.9059 28.5589 67.9059 27.2353C67.9059 25.9118 66.823 24.8289 65.4994 24.8289H64.3684C63.0448 24.8289 61.9619 25.9118 61.9619 27.2353C61.9619 28.5589 63.0208 29.6418 64.3684 29.6418Z" fill="currentcolor"/>
<path d="M84.9962 9.3794V15.8582H41.53C35.7911 15.8582 31.1394 20.5099 31.1394 26.2488V52.5568H9.54799C4.6533 52.5568 0.649414 56.5329 0.649414 61.4313V97.4321C0.649414 102.33 4.6283 106.307 9.54799 106.307H31.1635V145.104C31.1635 150.843 35.8152 155.495 41.554 155.495H103.641C109.38 155.495 114.032 150.843 114.032 145.104V54.2788H146.452C151.347 54.2788 155.351 50.3027 155.351 45.4043L155.351 9.3794L155.351 9.37679C155.325 4.48184 151.348 0.504883 146.428 0.504883H93.8948C89.0001 0.504883 84.9962 4.48097 84.9962 9.3794ZM67.3176 122.588L67.3177 122.588L67.3271 122.584C69.5349 121.664 70.9557 119.533 70.9557 117.141V61.4554C70.9557 56.5588 66.9778 52.5809 62.0812 52.5809H36.9523V38.6367H84.9962V65.0651C84.9962 67.4561 86.4161 69.5867 88.6226 70.5071C89.366 70.8253 90.1314 70.9556 90.8867 70.9556C92.4149 70.9556 93.9138 70.3495 95.0424 69.2209L108.17 56.0928V127.47H36.9523V106.307H45.9192L60.9095 121.297C62.0381 122.426 63.5371 123.032 65.0653 123.032C65.8325 123.032 66.5922 122.873 67.3176 122.588ZM149.538 44.8802H149.514V45.3802C149.514 47.073 148.13 48.4418 146.428 48.4418H108.839C108.05 48.4418 107.328 48.7634 106.786 49.2767L106.786 49.2765L106.777 49.2861L90.9422 65.1207C90.9282 65.1347 90.9178 65.1432 90.9112 65.148C90.9009 65.146 90.883 65.1412 90.8558 65.1303C90.8358 65.1223 90.8252 65.1151 90.8205 65.1114C90.8195 65.1106 90.8187 65.11 90.818 65.1094C90.8171 65.1086 90.8166 65.108 90.8162 65.1076L90.8154 65.1066L90.8148 65.1054C90.8146 65.1051 90.8144 65.1047 90.8142 65.1042C90.8139 65.1033 90.8134 65.102 90.813 65.1003C90.8114 65.0948 90.8091 65.0836 90.8091 65.0651V35.7302V18.7887V9.3794C90.8091 7.68661 92.1932 6.31782 93.8948 6.31782H146.452C148.151 6.31782 149.538 7.70848 149.538 9.3794V44.8802ZM41.53 21.6711H84.9962V32.8238H36.9523V26.2488C36.9523 23.7334 39.0146 21.6711 41.53 21.6711ZM6.46235 97.4562V61.4554C6.46235 59.7626 7.84644 58.3938 9.54799 58.3938H62.1053C63.8003 58.3938 65.1669 59.7801 65.1669 61.4554V117.141C65.1669 117.164 65.1648 117.178 65.1633 117.185C65.1593 117.187 65.1525 117.192 65.1422 117.197C65.1362 117.2 65.1289 117.203 65.1202 117.206C65.0974 117.215 65.0823 117.218 65.0744 117.219C65.0725 117.219 65.0709 117.22 65.0696 117.22C65.0681 117.22 65.067 117.22 65.0663 117.22L65.064 117.219L65.0631 117.219C65.0625 117.219 65.0613 117.218 65.0592 117.217C65.0552 117.215 65.0464 117.209 65.0338 117.197L49.1992 101.362C48.6447 100.808 47.9144 100.518 47.1371 100.518H9.54799C7.84644 100.518 6.46235 99.149 6.46235 97.4562ZM103.617 149.706H41.53C39.0146 149.706 36.9523 147.644 36.9523 145.128V133.307H108.195V145.128C108.195 147.644 106.132 149.706 103.617 149.706Z" fill="currentcolor" stroke="currentcolor"/>
</svg>
