<svg viewBox="0 0 137 131" fill="none" xmlns="http://www.w3.org/2000/svg">
<path d="M104.331 36.4469C104.679 36.4469 105.694 36.7245 107.16 38.9227C108.55 41.0083 109.92 44.2239 111.116 48.4666C113.498 56.9105 115.01 68.7486 115.01 81.9468C115.01 95.1451 113.498 106.983 111.116 115.427C109.92 119.67 108.55 122.885 107.16 124.971C105.694 127.169 104.679 127.447 104.331 127.447C103.983 127.447 102.968 127.169 101.502 124.971C100.111 122.885 98.742 119.67 97.5453 115.427C95.1637 106.983 93.6514 95.1451 93.6514 81.9468C93.6514 68.7486 95.1637 56.9105 97.5453 48.4666C98.742 44.2239 100.111 41.0083 101.502 38.9227C102.968 36.7245 103.983 36.4469 104.331 36.4469Z" stroke="currentcolor" stroke-width="6"/>
<path d="M119.669 36.5534C127.224 36.5534 133.348 56.8764 133.348 81.9461C133.348 107.016 127.224 127.339 119.669 127.339" stroke="currentcolor" stroke-width="6"/>
<rect x="103.917" y="130.447" width="6" height="16.1666" transform="rotate(-90 103.917 130.447)" fill="currentcolor"/>
<rect x="112.622" y="115.524" width="6" height="17.6175" transform="rotate(-90 112.622 115.524)" fill="currentcolor"/>
<rect x="114.28" y="100.186" width="6" height="18.6538" transform="rotate(-90 114.28 100.186)" fill="currentcolor"/>
<rect x="115.108" y="84.8484" width="6" height="17.8248" transform="rotate(-90 115.108 84.8484)" fill="currentcolor"/>
<rect x="115.522" y="69.5107" width="6" height="17.203" transform="rotate(-90 115.522 69.5107)" fill="currentcolor"/>
<rect x="114.28" y="54.1733" width="6" height="15.3376" transform="rotate(-90 114.28 54.1733)" fill="currentcolor"/>
<rect x="103.294" y="39.6711" width="6" height="17.203" transform="rotate(-90 103.294 39.6711)" fill="currentcolor"/>
<path d="M14.3308 36.4469C14.6788 36.4469 15.6938 36.7245 17.1596 38.9227C18.5503 41.0083 19.9197 44.2239 21.1163 48.4666C23.498 56.9105 25.0103 68.7486 25.0103 81.9468C25.0103 95.1451 23.498 106.983 21.1163 115.427C19.9197 119.67 18.5503 122.885 17.1596 124.971C15.6938 127.169 14.6788 127.447 14.3308 127.447C13.9828 127.447 12.9679 127.169 11.5021 124.971C10.1113 122.885 8.742 119.67 7.54534 115.427C5.16372 106.983 3.65137 95.1451 3.65137 81.9468C3.65136 68.7486 5.16371 56.9105 7.54534 48.4666C8.742 44.2239 10.1113 41.0083 11.5021 38.9227C12.9679 36.7245 13.9828 36.4469 14.3308 36.4469Z" stroke="currentcolor" stroke-width="6"/>
<path d="M29.6689 36.5534C37.2239 36.5534 43.3484 56.8764 43.3484 81.9461C43.3484 107.016 37.2239 127.339 29.6689 127.339" stroke="currentcolor" stroke-width="6"/>
<rect x="13.917" y="130.447" width="6" height="16.1666" transform="rotate(-90 13.917 130.447)" fill="currentcolor"/>
<rect x="22.6221" y="115.524" width="6" height="17.6175" transform="rotate(-90 22.6221 115.524)" fill="currentcolor"/>
<rect x="24.2803" y="100.186" width="6" height="18.6538" transform="rotate(-90 24.2803 100.186)" fill="currentcolor"/>
<rect x="25.1084" y="84.8484" width="6" height="17.8248" transform="rotate(-90 25.1084 84.8484)" fill="currentcolor"/>
<rect x="25.5225" y="69.5107" width="6" height="17.203" transform="rotate(-90 25.5225 69.5107)" fill="currentcolor"/>
<rect x="24.2803" y="54.1733" width="6" height="15.3376" transform="rotate(-90 24.2803 54.1733)" fill="currentcolor"/>
<rect x="13.2939" y="39.6711" width="6" height="17.203" transform="rotate(-90 13.2939 39.6711)" fill="currentcolor"/>
<path d="M57.7561 108.053H79.449C79.9113 108.053 80.3134 108.37 80.4213 108.82L84.5013 125.82C84.6523 126.449 84.1756 127.053 83.529 127.053H53.6761C53.0294 127.053 52.5528 126.449 52.7037 125.82L56.7837 108.82C56.8916 108.37 57.2937 108.053 57.7561 108.053Z" stroke="currentcolor" stroke-width="6"/>
<path d="M71.6025 3.55347C71.6025 1.89661 70.2594 0.553467 68.6025 0.553467C66.9457 0.553467 65.6025 1.89661 65.6025 3.55347L71.6025 3.55347ZM65.6025 3.55347L65.6025 107.553L71.6025 107.553L71.6025 3.55347L65.6025 3.55347Z" fill="currentcolor"/>
<path d="M113.353 35.8035V27.0535C113.353 20.426 107.98 15.0535 101.353 15.0535H35.8525C29.2251 15.0535 23.8525 20.426 23.8525 27.0535V35.8035" stroke="currentcolor" stroke-width="6"/>
</svg>
