<svg viewBox="0 0 158 155" fill="none" xmlns="http://www.w3.org/2000/svg">
<path d="M128.322 142.296V143.268C128.322 149.36 123.332 154.35 117.24 154.35H55.8025C54.3768 154.35 53.2102 153.183 53.2102 151.758C53.2102 150.332 54.3768 149.165 55.8025 149.165H117.24C120.481 149.165 123.138 146.508 123.138 143.268V142.296C122.425 143.397 120.967 143.786 119.768 143.171C118.504 142.523 118.018 140.967 118.666 139.703L123.429 130.63C124.402 128.783 127.059 128.783 127.998 130.663L132.762 139.703C133.41 140.967 132.924 142.523 131.66 143.171C130.461 143.786 129.035 143.397 128.322 142.296ZM21.26 60.2167C20.6119 58.9529 21.098 57.3975 22.3617 56.7494C23.4959 56.1662 24.8892 56.4902 25.6345 57.4947V48.0004C25.6345 41.9085 30.5923 36.9183 36.7167 36.9183H89.2758C90.7015 36.9183 91.8681 38.0848 91.8681 39.5106C91.8681 40.9363 90.7015 42.1029 89.2758 42.1029H36.7167C33.4763 42.1029 30.8192 44.76 30.8192 48.0004V57.7864C31.4996 56.555 33.0226 56.1014 34.2864 56.7494C35.5501 57.3975 36.0362 58.9853 35.3881 60.2167L30.6247 69.2573C29.6526 71.1368 26.9955 71.1368 26.0234 69.2897L21.26 60.2167ZM19.5426 130.598C19.413 129.172 20.4499 127.908 21.8757 127.779C23.3015 127.649 24.5652 128.686 24.6948 130.112C24.9541 133.061 30.2359 134.681 33.2819 132.218C34.0595 131.57 34.5456 130.76 34.5456 129.885C34.5456 123.761 19.5426 129.399 19.5426 117.604C19.5426 113.327 22.945 110.119 26.9955 109.179V107.364C26.9955 105.906 28.1296 104.772 29.6526 104.772C31.1108 104.772 32.2773 105.971 32.2449 107.397L32.2125 109.114C36.2954 110.054 39.7302 113.262 39.7302 117.572C39.7302 118.997 38.5637 120.164 37.1379 120.164C35.7121 120.164 34.5456 118.997 34.5456 117.572C34.5456 114.461 29.0693 112.679 25.9586 115.238C25.1809 115.887 24.6948 116.697 24.6948 117.572C24.6948 123.696 39.6978 118.058 39.6978 129.853C39.6978 134.13 36.263 137.37 32.1801 138.31L32.1477 140.092C32.1477 141.518 30.9812 142.685 29.5554 142.685C28.1296 142.685 26.9631 141.518 26.9631 140.092V138.31C23.1718 137.435 19.899 134.551 19.5426 130.598ZM33.6383 94.662C44.526 96.1526 50.3911 103.152 50.6179 103.249C51.428 103.314 52.2381 103.379 53.0482 103.411C60.4039 103.8 68.1484 102.893 73.5923 100.819C77.1567 99.4578 79.3926 97.8376 79.3926 96.347V88.3432C68.6345 94.9212 44.3964 94.9212 33.6383 88.3432V94.662ZM54.798 108.693C56.645 111.771 57.9412 115.238 58.5569 118.932C64.4544 118.738 69.7038 117.766 73.5923 116.275C77.1567 114.914 79.3926 113.294 79.3926 111.804V103.8C73.3654 107.462 63.3202 108.92 54.798 108.693ZM58.9457 124.085C58.9133 127.714 58.2004 131.181 56.9691 134.357C63.4823 134.324 69.3474 133.287 73.5923 131.667C77.1567 130.306 79.3926 128.686 79.3926 127.195V119.192C74.2404 122.367 66.2042 123.825 58.9457 124.085ZM54.3768 139.541C44.2992 155.354 22.1349 157.85 8.84932 144.532C-2.62165 133.061 -2.62165 114.461 8.84932 102.99C13.9043 97.9348 20.8064 94.6944 28.4537 94.4028V80.9227C28.4537 77.0343 31.9533 73.7615 37.5916 71.5904C48.1228 67.5723 64.908 67.5723 75.4393 71.5904C81.0776 73.7615 84.5772 77.0343 84.5772 80.9227V127.228C84.5772 131.116 81.0776 134.389 75.4393 136.56C69.7686 138.731 62.3481 139.768 54.3768 139.541ZM46.6971 106.651C37.2675 97.2219 21.9405 97.2219 12.511 106.651C3.08144 116.081 3.08144 131.408 12.511 140.838C21.9405 150.299 37.2675 150.299 46.6971 140.838C56.1266 131.408 56.1266 116.081 46.6971 106.651ZM73.5923 76.451C64.2276 72.8542 48.7709 72.8542 39.4062 76.451C35.8094 77.8444 33.6059 79.4322 33.6059 80.9227C33.6059 82.4457 35.8094 84.0335 39.4062 85.3945C48.7709 88.9913 64.2276 88.9913 73.5923 85.3945C77.1567 84.0335 79.3926 82.4133 79.3926 80.9227C79.3926 79.4322 77.1891 77.812 73.5923 76.451ZM128.322 58.7909V75.7705C130.04 67.1511 137.946 60.1194 146.533 58.4992C149.839 57.8836 153.111 58.0456 155.995 59.0501C157.129 59.439 157.842 60.5731 157.745 61.7396C157.713 64.7208 156.805 67.7992 155.185 70.6183C151.88 76.4186 145.756 80.7607 139.21 82.0245C135.905 82.6401 132.632 82.4781 129.748 81.4736C129.1 81.2468 128.614 80.8255 128.322 80.2747V86.561H147.635C150.908 86.561 153.047 89.8338 153.047 93.0742V97.4811C153.047 100.722 150.94 103.994 147.635 103.994H145.723L143.261 123.015C143.099 124.344 141.997 125.284 140.701 125.284H110.76C109.366 125.284 108.232 124.182 108.167 122.789L105.737 103.994H103.825C100.552 103.994 98.4137 100.722 98.4137 97.4811V93.0742C98.4137 89.8338 100.52 86.561 103.825 86.561H123.138V80.2423C122.846 80.7931 122.36 81.2144 121.712 81.4412C115.588 83.5475 108.491 81.8624 103.08 77.974C100.163 75.9001 97.8952 73.3402 96.3074 70.5859C94.6872 67.7344 93.8123 64.6884 93.7475 61.7072C93.6503 60.5407 94.3308 59.4066 95.4973 59.0177C101.622 56.9115 108.718 58.5965 114.162 62.4849C118.731 65.7577 122.101 70.4887 123.17 75.7705V58.7909C108.329 57.4623 96.7935 45.0192 96.7935 29.919C96.7935 13.9115 109.755 0.949951 125.763 0.949951C141.77 0.949951 154.732 13.9439 154.732 29.919C154.699 44.9868 143.163 57.4623 128.322 58.7909ZM115.782 36.6914C115.653 35.2657 116.689 34.0343 118.115 33.9047C119.541 33.7751 120.772 34.812 120.902 36.2378C121.161 39.1217 126.346 40.6771 129.295 38.2792C130.04 37.6636 130.493 36.8535 130.493 36.011C130.493 30.0162 115.685 35.5573 115.685 23.9243C115.685 19.7118 119.023 16.5362 123.041 15.5965V13.8143C123.041 12.3561 124.175 11.222 125.698 11.222C127.156 11.222 128.322 12.4209 128.29 13.8467L128.258 15.5317C132.308 16.4714 135.678 19.647 135.678 23.8919C135.678 25.3177 134.512 26.4842 133.086 26.4842C131.66 26.4842 130.493 25.3177 130.493 23.8919C130.493 20.8459 125.147 19.1285 122.101 21.6236C121.356 22.2393 120.902 23.0494 120.902 23.8919C120.902 29.8866 135.711 24.3456 135.711 35.9785C135.711 40.2235 132.341 43.399 128.29 44.3387L128.258 46.0562C128.258 47.4819 127.091 48.6485 125.665 48.6485C124.24 48.6485 123.073 47.4819 123.073 46.0562V44.3063C119.347 43.4314 116.139 40.6123 115.782 36.6914ZM142.548 13.1014C133.248 3.80149 118.212 3.80149 108.913 13.1014C99.6126 22.4013 99.6126 37.4367 108.913 46.7366C118.212 56.0366 133.248 56.0366 142.548 46.7366C151.848 37.4691 151.848 22.4013 142.548 13.1014ZM110.922 103.994L112.995 120.099H138.4L140.474 103.994H110.922ZM147.635 91.7132L147.603 91.7456C147.635 91.7456 147.7 91.7132 147.635 91.7132ZM147.635 91.7132H103.825C104.182 91.9725 103.598 91.616 103.598 93.0418V97.4487C103.598 98.8745 104.182 98.5181 103.825 98.7773H147.635C147.279 98.5181 147.862 98.8745 147.862 97.4487V93.0418C147.862 91.6484 147.279 91.9725 147.635 91.7132ZM147.635 98.8097C147.7 98.8097 147.635 98.8097 147.603 98.7773L147.635 98.8097ZM103.793 98.8097L103.825 98.7773C103.793 98.8097 103.76 98.8097 103.793 98.8097ZM118.115 77.0019C116.657 68.8361 107.292 62.1285 99.0941 63.4246C100.52 71.5904 109.885 78.298 118.115 77.0019ZM135.03 72.4329C134.188 73.9235 133.604 75.4789 133.345 77.0019C141.543 78.298 150.908 71.5904 152.366 63.4246C145.691 62.3877 138.368 66.6002 135.03 72.4329Z" fill="currentcolor"/>
</svg>
