<svg width="40" height="40" viewBox="0 0 40 40" fill="none" xmlns="http://www.w3.org/2000/svg">
<path d="M0.366211 29.5382V10.5999C0.366211 4.9184 4.96552 0.319092 10.647 0.319092H29.4501C35.1316 0.319092 39.7309 4.9184 39.7309 10.5999V29.4029C39.7309 35.0844 35.1316 39.6838 29.4501 39.6838H10.647C4.96552 39.819 0.366211 35.2197 0.366211 29.5382Z" fill="#9490A6"/>
<path d="M29.3148 13.5759C26.3387 11.2762 23.498 11.4115 23.498 11.4115L23.2274 11.6821C26.7446 12.7643 28.5031 14.3875 28.5031 14.3875C26.3387 13.1701 24.1744 12.629 22.1453 12.3584C20.6572 12.2232 19.1692 12.2232 17.9518 12.3584C17.8165 12.3584 17.6812 12.3584 17.5459 12.3584C16.8696 12.4937 14.9757 12.629 12.8114 13.7112C11.9997 13.9817 11.5939 14.2523 11.5939 14.2523C11.5939 14.2523 13.3525 12.629 17.1401 11.5468L16.8696 11.2762C16.8696 11.2762 14.0288 11.2762 11.0528 13.4406C11.0528 13.4406 8.07678 18.8516 8.07678 25.6153C8.07678 25.6153 9.83534 28.5913 14.4346 28.7266C14.4346 28.7266 15.2463 27.7796 15.7874 26.968C13.0819 26.1564 12.135 24.5331 12.135 24.5331C12.135 24.5331 12.4055 24.6683 12.6761 24.9389C12.6761 24.9389 12.6761 24.9389 12.8114 24.9389C12.8114 24.9389 12.9466 24.9389 12.9466 25.0742C13.4877 25.3447 14.0288 25.6153 14.4346 25.7505C15.2463 26.1564 16.3285 26.4269 17.5459 26.6975C19.1692 26.968 20.9278 27.1033 22.9569 26.6975C23.9038 26.5622 24.986 26.2916 26.0682 25.7505C26.7446 25.48 27.5562 25.0742 28.5031 24.5331C28.5031 24.5331 27.4209 26.2916 24.7155 26.968C25.3918 27.7796 26.0682 28.5913 26.0682 28.5913C30.6675 28.456 32.4261 25.48 32.4261 25.48C32.4261 18.9868 29.3148 13.5759 29.3148 13.5759ZM16.1932 23.7214C14.9757 23.7214 14.0288 22.6392 14.0288 21.4218C14.0288 20.2043 14.9757 19.1221 16.1932 19.1221C17.4107 19.1221 18.3576 20.2043 18.3576 21.4218C18.3576 22.6392 17.4107 23.7214 16.1932 23.7214ZM23.9038 23.7214C22.6863 23.7214 21.7394 22.6392 21.7394 21.4218C21.7394 20.2043 22.6863 19.1221 23.9038 19.1221C25.1213 19.1221 26.0682 20.2043 26.0682 21.4218C26.0682 22.6392 25.1213 23.7214 23.9038 23.7214Z" fill="white"/>
</svg>
