<svg width="40" height="40" viewBox="0 0 40 40" fill="none" xmlns="http://www.w3.org/2000/svg">
<g clip-path="url(#clip0)">
<path d="M0.381958 29.5382V10.5999C0.381958 4.9184 4.98127 0.319092 10.6628 0.319092H29.4658C35.1473 0.319092 39.7466 4.9184 39.7466 10.5999V29.403C39.7466 35.0844 35.1473 39.6838 29.4658 39.6838H10.6628C4.98127 39.819 0.381958 35.2197 0.381958 29.5382Z" fill="#9490A6"/>
<path d="M27.572 28.3207H12.6919C10.9333 28.3207 9.44531 26.8327 9.44531 25.0742V15.3345C9.44531 13.5759 10.9333 12.0879 12.6919 12.0879H27.572C29.3306 12.0879 30.8186 13.5759 30.8186 15.3345V25.0742C30.8186 26.968 29.3306 28.3207 27.572 28.3207Z" fill="white"/>
<path d="M20.2673 22.2334C20.132 22.2334 19.9967 22.2334 19.8615 22.0981L11.745 15.8755C11.4745 15.605 11.3392 15.1992 11.6098 14.9286C11.8803 14.6581 12.2861 14.5228 12.5567 14.7933L20.2673 20.7454L27.9779 14.7933C28.2484 14.5228 28.6542 14.6581 28.9248 14.9286C29.1953 15.1992 29.0601 15.605 28.7895 15.8755L20.6731 22.0981C20.5378 22.2334 20.4025 22.2334 20.2673 22.2334Z" fill="#9490A6"/>
</g>
<defs>
<clipPath id="clip0">
<rect width="39.4999" height="39.4999" fill="white" transform="translate(0.381958 0.319092)"/>
</clipPath>
</defs>
</svg>
