<svg width="40" height="40" viewBox="0 0 40 40" fill="none" xmlns="http://www.w3.org/2000/svg">
<path d="M0.334717 29.5382V10.5999C0.334717 4.9184 4.93402 0.319092 10.6155 0.319092H29.4186C35.1001 0.319092 39.6994 4.9184 39.6994 10.5999V29.4029C39.6994 35.0844 35.1001 39.6838 29.4186 39.6838H10.6155C4.93402 39.819 0.334717 35.2197 0.334717 29.5382Z" fill="#9490A6"/>
<path d="M26.9836 39.8191C26.8483 39.8191 26.7131 39.8191 26.4425 39.6839C26.3072 39.5486 26.172 39.5486 26.0367 39.2781C26.0367 39.1428 26.0367 38.8722 26.0367 38.6017V32.3791C26.0367 30.7558 25.6309 29.5383 24.684 28.7267C25.6309 28.5914 26.5778 28.4562 27.3894 28.3209C28.2011 28.0503 29.0127 27.7798 29.8244 27.374C30.636 26.9681 31.3124 26.2918 31.8535 25.6154C32.3946 24.939 32.8004 23.9921 33.2062 22.9099C33.612 21.8277 33.7473 20.475 33.7473 18.987C33.7473 16.9579 33.0709 15.1993 31.7182 13.7113C32.3946 12.088 32.2593 10.4647 31.4476 8.43564C30.9065 8.30036 30.2302 8.43564 29.4185 8.70618C28.4716 9.11201 27.66 9.38255 26.9836 9.78837L26.0367 10.6C24.4134 10.1942 22.7901 9.92365 21.0316 9.92365C19.273 9.92365 17.6497 10.1942 16.0264 10.6C15.7559 10.4647 15.3501 10.1942 14.9442 9.92365C14.5384 9.51783 13.8621 9.24728 12.9151 8.84146C11.9682 8.43564 11.1566 8.30036 10.6155 8.57091C9.93911 10.4647 9.80384 12.2233 10.4802 13.7113C9.12747 15.1993 8.4511 16.9579 8.4511 19.1223C8.4511 20.6103 8.58638 21.8277 8.9922 23.0452C9.39802 24.1274 9.80384 25.0743 10.3449 25.7507C10.886 26.427 11.5624 26.9681 12.374 27.5092C13.1857 27.9151 13.9973 28.3209 14.809 28.4562C15.6206 28.7267 16.4323 28.862 17.5144 28.862C16.8381 29.5383 16.4323 30.35 16.297 31.5674C15.8912 31.7027 15.4853 31.838 15.0795 31.9733C14.6737 32.1085 14.1326 32.1085 13.5915 32.1085C13.0504 32.1085 12.5093 31.838 11.8329 31.4322C11.2919 31.0264 10.7508 30.4853 10.3449 29.8089C10.0744 29.2678 9.66857 28.862 9.12747 28.4562C8.58638 28.0503 8.18056 27.9151 7.91001 27.7798L7.36891 27.6445C6.96309 27.6445 6.69254 27.6445 6.55727 27.7798C6.422 27.9151 6.422 27.9151 6.422 28.0503C6.422 28.1856 6.55727 28.3209 6.69254 28.4562C6.82782 28.7267 6.96309 28.7267 7.09837 28.862L7.23364 28.9972C7.63946 29.1325 8.04528 29.5383 8.31583 29.9442C8.72165 30.4853 8.9922 30.8911 9.12747 31.2969L9.39802 31.838C9.66857 32.5144 9.93911 33.0555 10.4802 33.4613C11.1566 33.8671 11.6977 34.1377 12.374 34.2729C13.0504 34.4082 13.5915 34.4082 14.1326 34.4082C14.6737 34.4082 15.2148 34.4082 15.6206 34.2729L16.1617 34.1376C16.1617 34.814 16.1617 35.6257 16.1617 36.8431C16.1617 37.9253 16.1617 38.6017 16.1617 38.6017C16.1617 39.0075 16.0264 39.2781 15.8912 39.4133C15.7559 39.5486 15.4853 39.6839 15.3501 39.6839L26.9836 39.8191ZM8.4511 28.7267C8.31583 28.5914 8.18056 28.5914 8.31583 28.4562C8.31583 28.3209 8.4511 28.3209 8.58638 28.4562C8.72165 28.5914 8.85692 28.5914 8.72165 28.7267C8.72165 28.862 8.58638 28.862 8.4511 28.7267ZM9.53329 29.5383C9.39802 29.6736 9.26275 29.6736 9.12747 29.4031C8.9922 29.2678 8.9922 29.1325 9.12747 28.9972C9.26275 28.862 9.39802 28.862 9.53329 29.1325C9.66857 29.4031 9.66857 29.5383 9.53329 29.5383ZM10.3449 30.7558C10.2097 30.8911 10.0744 30.7558 9.93911 30.6205C9.80384 30.35 9.80384 30.2147 9.93911 30.0794C10.0744 29.9442 10.2097 29.9442 10.3449 30.2147C10.4802 30.4853 10.4802 30.6205 10.3449 30.7558ZM11.4271 31.838C11.2919 31.9733 11.1566 31.9733 10.886 31.7027C10.6155 31.5674 10.6155 31.2969 10.7508 31.1616C10.886 31.0264 11.0213 31.0264 11.2919 31.2969C11.5624 31.5674 11.5624 31.7027 11.4271 31.838ZM12.374 32.6496C12.1035 32.5144 11.9682 32.5144 12.1035 32.2438C12.2388 32.1085 12.374 31.9733 12.6446 32.1085C12.9151 32.2438 13.0504 32.3791 12.9151 32.5144C12.7799 32.6496 12.6446 32.7849 12.374 32.6496ZM14.1326 32.9202C13.8621 32.9202 13.7268 32.9202 13.7268 32.6496C13.7268 32.5144 13.8621 32.3791 14.1326 32.3791C14.4031 32.3791 14.5384 32.3791 14.5384 32.6496C14.5384 32.7849 14.4031 32.9202 14.1326 32.9202ZM15.6206 32.6496C15.3501 32.7849 15.2148 32.6496 15.2148 32.3791C15.2148 32.1085 15.3501 32.1085 15.6206 31.9733C15.8912 31.9733 16.0264 31.9733 16.0264 32.2438C16.0264 32.5144 15.8912 32.6496 15.6206 32.6496Z" fill="white"/>
</svg>
