<svg width="40" height="40" viewBox="0 0 40 40" fill="none" xmlns="http://www.w3.org/2000/svg">
<path d="M0.350464 29.5382V10.5999C0.350464 4.9184 4.94977 0.319092 10.6313 0.319092H29.4343C35.1158 0.319092 39.7151 4.9184 39.7151 10.5999V29.4029C39.7151 35.0844 35.1158 39.6838 29.4343 39.6838H10.7665C5.08505 39.819 0.350464 35.2197 0.350464 29.5382Z" fill="#9490A6"/>
<path d="M32.0399 13.8678C31.2828 14.1707 30.3741 14.4736 29.6169 14.625C30.0713 14.625 30.5256 13.8678 30.8284 13.565C31.1313 13.1106 31.4342 12.6563 31.5856 12.0506V11.8991H31.4342C30.5256 12.3535 29.6169 12.8078 28.5569 12.9592C28.4054 12.9592 28.4054 12.9592 28.4054 12.9592C28.254 12.8078 28.254 12.8078 28.1026 12.6563C27.6482 12.3535 27.1939 12.0506 26.7396 11.7477C26.1339 11.5963 25.3767 11.4448 24.6195 11.4448C23.8623 11.4448 23.2565 11.7477 22.6508 12.0506C22.045 12.3535 21.4393 12.8078 20.985 13.4135C20.5306 14.0193 20.2278 14.625 20.0763 15.3822C19.9249 16.1394 19.9249 16.7452 20.0763 17.5024C20.0763 17.6538 20.0763 17.6538 19.9249 17.6538C15.9875 17.048 12.6559 15.6851 9.92998 12.6563C9.77854 12.5049 9.77854 12.5049 9.6271 12.6563C8.41559 14.4736 9.02135 17.1995 10.5357 18.5624C10.6872 18.7139 10.99 18.8653 11.1415 19.1682C10.99 19.1682 10.0814 19.0167 9.17279 18.5624C9.02135 18.5624 9.02135 18.5624 9.02135 18.7139C9.02135 18.8653 9.02135 19.0167 9.02135 19.3196C9.17279 21.1369 10.5357 22.8027 12.2016 23.4084C12.353 23.5599 12.6559 23.5599 12.8073 23.5599C12.353 23.7113 12.0501 23.7113 10.99 23.5599C10.8386 23.5599 10.8386 23.5599 10.8386 23.7113C11.5958 25.9829 13.4131 26.5886 14.776 27.043C14.9274 27.043 15.0789 27.043 15.3817 27.043C14.9274 27.6487 13.4131 28.2545 12.6559 28.4059C11.2929 28.8602 9.92998 29.0117 8.56703 28.8602C8.41559 28.8602 8.26416 28.8602 8.26416 28.8602V29.0117C8.56704 29.1631 8.86991 29.3145 9.17279 29.466C10.0814 29.9203 10.99 30.3746 11.8987 30.526C16.8961 31.889 22.3479 30.8289 26.1339 27.1944C29.0112 24.3171 30.0713 20.3797 30.0713 16.2908C30.0713 16.1394 30.2227 15.988 30.3741 15.988C31.1313 15.3822 31.7371 14.7765 32.3428 14.0193C32.1914 14.1707 32.1914 14.0193 32.0399 13.8678C32.1914 13.8678 32.1914 13.8678 32.0399 13.8678C32.1914 13.8678 32.1914 13.8678 32.0399 13.8678Z" fill="white"/>
</svg>
