<svg width="22" height="22" viewBox="0 0 22 22" fill="none" xmlns="http://www.w3.org/2000/svg">
<path d="M10.7517 21.5035C16.6898 21.5035 21.5035 16.6898 21.5035 10.7517C21.5035 4.81372 16.6898 0 10.7517 0C4.81372 0 0 4.81372 0 10.7517C0 16.6898 4.81372 21.5035 10.7517 21.5035Z" fill="#EFF4F4"/>
<path d="M10.7514 15.9932C8.28743 15.9932 6.27148 13.9773 6.27148 11.5133C6.27148 9.09421 10.3034 4.88311 10.4826 4.70391L10.7066 4.47992L10.9306 4.70391C11.1098 4.88311 15.2313 9.09421 15.2313 11.5133C15.2313 14.0221 13.2153 15.9932 10.7514 15.9932ZM10.7066 5.3759C10.3482 5.77909 9.5866 6.58547 8.86982 7.57104C7.57065 9.3182 6.85387 10.6622 6.85387 11.5581C6.85387 13.7085 8.60103 15.4109 10.7066 15.4109C12.8121 15.4109 14.5593 13.6637 14.5593 11.5581C14.5593 10.6622 13.8425 9.3182 12.5433 7.57104C11.8265 6.58547 11.065 5.77909 10.7066 5.3759Z" fill="url(#paint0_linear)"/>
<path d="M10.7504 17.4268C7.48005 17.4268 4.83691 14.7837 4.83691 11.5134C4.83691 8.33264 9.27201 3.89755 9.4512 3.71835C9.5856 3.58395 9.76479 3.58395 9.85439 3.71835C9.98879 3.85275 9.98879 4.03194 9.85439 4.12154C9.80959 4.16634 5.4193 8.55663 5.4193 11.5134C5.4193 14.4253 7.79364 16.7996 10.7056 16.7996C13.6175 16.7996 15.9918 14.4253 15.9918 11.5134C15.9918 10.3038 15.2303 8.64623 13.7519 6.71988C12.6319 5.24151 11.4672 4.07674 11.4672 4.07674C11.3328 3.94235 11.3328 3.76315 11.4672 3.67355C11.6015 3.53915 11.7807 3.53915 11.8703 3.67355C12.0495 3.85275 16.5742 8.37744 16.5742 11.5582C16.6638 14.7837 14.0207 17.4268 10.7504 17.4268Z" fill="url(#paint1_linear)"/>
<path d="M10.7518 18.8604C6.80951 18.8604 3.58398 15.6348 3.58398 11.6925C3.58398 10.035 4.39036 8.01902 6.04792 5.68948C7.25749 3.98712 8.42227 2.73275 8.46706 2.68796C8.60146 2.55356 8.78066 2.55356 8.87025 2.68796C8.95985 2.82235 8.95985 3.00155 8.87025 3.13594C8.87025 3.13594 7.66068 4.39031 6.49591 6.04787C4.97275 8.24302 4.16637 10.1694 4.16637 11.6925C4.16637 15.3212 7.1231 18.278 10.7518 18.278C14.3805 18.278 17.3372 15.3212 17.3372 11.6925C17.3372 10.2142 16.5309 8.24302 14.9629 6.04787C13.7981 4.39031 12.6334 3.13594 12.5886 3.13594C12.4542 3.00155 12.4542 2.82235 12.5886 2.73275C12.723 2.64316 12.9022 2.59836 12.9918 2.73275C13.2157 2.91195 17.9196 7.79503 17.9196 11.6925C17.9196 15.6348 14.6941 18.8604 10.7518 18.8604Z" fill="url(#paint2_linear)"/>
<defs>
<linearGradient id="paint0_linear" x1="10.7514" y1="16.0138" x2="10.7514" y2="4.51034" gradientUnits="userSpaceOnUse">
<stop stop-color="#05AAC5"/>
<stop offset="1" stop-color="#71E0EC"/>
</linearGradient>
<linearGradient id="paint1_linear" x1="10.7561" y1="17.4446" x2="10.7561" y2="3.57889" gradientUnits="userSpaceOnUse">
<stop stop-color="#05AAC5"/>
<stop offset="1" stop-color="#71E0EC"/>
</linearGradient>
<linearGradient id="paint2_linear" x1="10.7518" y1="18.8754" x2="10.7518" y2="2.6281" gradientUnits="userSpaceOnUse">
<stop stop-color="#05AAC5"/>
<stop offset="1" stop-color="#71E0EC"/>
</linearGradient>
</defs>
</svg>
