<svg width="22" height="22" viewBox="0 0 22 22" fill="none" xmlns="http://www.w3.org/2000/svg">
<path d="M22 11C22 17.0751 17.0751 22 11 22C4.92487 22 0 17.0751 0 11C0 4.92487 4.92487 0 11 0C17.0751 0 22 4.92487 22 11Z" fill="#5E6FA5"/>
<path d="M11.3438 2.75V8.86875L16.5 11.1375L11.3438 2.75Z" fill="white" fill-opacity="0.602"/>
<path d="M11.3438 2.75L6.1875 11.1375L11.3438 8.8V2.75Z" fill="white"/>
<path d="M11.3438 15.125V19.25L16.5 12.1L11.3438 15.125Z" fill="white" fill-opacity="0.602"/>
<path d="M11.3438 19.25V15.125L6.1875 12.1L11.3438 19.25Z" fill="white"/>
<path d="M11.3438 14.1625L16.5 11.1375L11.3438 8.86877V14.1625Z" fill="white" fill-opacity="0.2"/>
<path d="M6.1875 11.1375L11.3438 14.1625V8.86877L6.1875 11.1375Z" fill="white" fill-opacity="0.602"/>
</svg>
