<svg width="22" height="22" viewBox="0 0 22 22" fill="none" xmlns="http://www.w3.org/2000/svg">
<path d="M10.9522 21.9043C17.0009 21.9043 21.9043 17.0009 21.9043 10.9522C21.9043 4.90345 17.0009 0 10.9522 0C4.90345 0 0 4.90345 0 10.9522C0 17.0009 4.90345 21.9043 10.9522 21.9043Z" fill="white"/>
<path d="M15.1787 8.44884H5.08332C4.61377 8.44884 4.61377 7.93679 4.84855 7.68076L6.49198 5.88859L6.72675 5.63257H16.8221C17.2917 5.63257 17.2917 6.14462 17.0569 6.40064L15.4134 8.19281L15.1787 8.44884Z" fill="url(#paint0_linear)"/>
<path d="M15.1787 15.9589H5.08332C4.61377 15.9589 4.61377 15.5037 4.84855 15.2761L6.49198 13.6831L6.72675 13.4555H16.8221C17.2917 13.4555 17.2917 13.9107 17.0569 14.1382L15.4134 15.7313L15.1787 15.9589Z" fill="url(#paint1_linear)"/>
<path d="M6.72675 12.2039H16.8221C17.2917 12.2039 17.2917 11.7032 17.0569 11.4528L15.4134 9.7005H5.08332C4.61377 9.7005 4.61377 10.2012 4.84855 10.4515L6.49198 12.2039H6.72675Z" fill="url(#paint2_linear)"/>
<defs>
<linearGradient id="paint0_linear" x1="1.51474" y1="14.7982" x2="19.1264" y2="2.64581" gradientUnits="userSpaceOnUse">
<stop stop-color="#FA62FC"/>
<stop offset="0.1" stop-color="#BE84E8"/>
<stop offset="0.4" stop-color="#79ABD2"/>
<stop offset="0.5" stop-color="#68B5CD"/>
<stop offset="0.6" stop-color="#38D0BD"/>
<stop offset="0.8" stop-color="#1DD79B"/>
</linearGradient>
<linearGradient id="paint1_linear" x1="7.43108" y1="19.9642" x2="14.5067" y2="8.72539" gradientUnits="userSpaceOnUse">
<stop offset="0.2" stop-color="#C947E7"/>
<stop offset="0.6" stop-color="#9775D8"/>
<stop offset="0.9" stop-color="#7397CE"/>
<stop offset="1" stop-color="#1DD79B"/>
</linearGradient>
<linearGradient id="paint2_linear" x1="10.3188" y1="14.1314" x2="12.3885" y2="5.02335" gradientUnits="userSpaceOnUse">
<stop stop-color="#9677D8"/>
<stop offset="0.1" stop-color="#8C80D5"/>
<stop offset="0.3" stop-color="#8388D3"/>
<stop offset="0.4" stop-color="#6B9ECB"/>
<stop offset="0.6" stop-color="#57B0C5"/>
<stop offset="0.8" stop-color="#4DBAC3"/>
<stop offset="1" stop-color="#49BEC2"/>
</linearGradient>
</defs>
</svg>
