<svg width="22" height="22" viewBox="0 0 22 22" fill="none" xmlns="http://www.w3.org/2000/svg">
<path d="M22 11C22 17.0751 17.0751 22 11 22C4.92487 22 0 17.0751 0 11C0 4.92487 4.92487 0 11 0C17.0751 0 22 4.92487 22 11Z" fill="#F29500"/>
<path d="M15.9496 9.625C16.1559 8.18125 15.0559 7.425 13.5434 6.875L14.0246 4.95L12.8559 4.675L12.3746 6.53125C12.0309 6.4625 11.7559 6.39375 11.4121 6.325L11.8934 4.4L10.7246 4.125L10.2434 6.05C9.96836 5.98125 9.76211 5.9125 9.48711 5.84375L7.83711 5.5L7.49336 6.7375L8.38711 6.94375C8.86836 7.08125 8.93711 7.35625 8.93711 7.63125L8.38711 9.83125C8.38711 9.83125 8.45586 9.83125 8.52461 9.9H8.38711L7.63086 12.9937C7.56211 13.1312 7.42461 13.3375 7.08086 13.2687L6.18711 13.0625L5.56836 14.4375L7.08086 14.85C7.35586 14.9187 7.63086 14.9875 7.90586 15.0562L7.42461 17.05L8.59336 17.325L9.07461 15.4C9.41836 15.4688 9.69336 15.5375 10.0371 15.675L9.62461 17.5312L10.7934 17.8062L11.2746 15.8125C13.2684 16.225 14.8496 16.0188 15.4684 14.2313C16.0184 12.7875 15.4684 11.8938 14.3684 11.3438C15.1934 11.2063 15.8121 10.725 15.9496 9.625ZM13.1996 13.475C12.8559 14.9187 10.3809 14.1625 9.55586 13.9562L10.1746 11.3438C10.9996 11.4812 13.6121 11.8938 13.1996 13.475ZM13.6121 9.625C13.2684 11 11.2059 10.3125 10.5184 10.1062L11.1371 7.76875C11.7559 7.90625 13.9559 8.25 13.6121 9.625Z" fill="white"/>
</svg>
