<svg width="22" height="22" viewBox="0 0 22 22" fill="none" xmlns="http://www.w3.org/2000/svg">
<path d="M10.9522 22C17.0215 22 21.9043 17.1172 21.9043 11.0479C21.9043 4.97851 17.0215 0.0957031 10.9522 0.0957031C4.8828 0.0957031 0 4.97851 0 11.0479C0 17.1172 4.8828 22 10.9522 22Z" fill="#2775CA"/>
<path d="M13.9636 12.7816C13.9636 11.1845 13.0052 10.6369 11.0886 10.4087C9.71959 10.2262 9.44579 9.86112 9.44579 9.22217C9.44579 8.58322 9.90216 8.17263 10.8148 8.17263C11.6362 8.17263 12.0926 8.44643 12.3207 9.13094C12.3664 9.26784 12.5033 9.35907 12.6402 9.35907H13.3703C13.5528 9.35907 13.6897 9.22217 13.6897 9.03971V8.99404C13.5072 7.99005 12.6858 7.21431 11.6362 7.12308V6.02786C11.6362 5.84529 11.4993 5.70839 11.2712 5.66272H10.5867C10.4041 5.66272 10.2672 5.79962 10.2215 6.02786V7.07741C8.85251 7.25998 7.98553 8.17263 7.98553 9.31351C7.98553 10.8194 8.89818 11.4126 10.8148 11.6408C12.0926 11.869 12.5033 12.1428 12.5033 12.873C12.5033 13.6031 11.8644 14.1051 10.9974 14.1051C9.81082 14.1051 9.40012 13.603 9.26321 12.9185C9.21765 12.7361 9.08075 12.6447 8.94385 12.6447H8.168C7.98554 12.6447 7.84863 12.7816 7.84863 12.9642V13.0099C8.0311 14.1506 8.76128 14.9721 10.2672 15.2003V16.2955C10.2672 16.478 10.4041 16.6149 10.6322 16.6606H11.3167C11.4993 16.6606 11.6362 16.5237 11.6819 16.2955V15.2003C13.0509 14.9721 13.9636 14.0137 13.9636 12.7816Z" fill="white"/>
<path d="M8.62586 17.5734C5.06641 16.2957 3.24102 12.3256 4.56447 8.81168C5.24898 6.89505 6.75491 5.4348 8.62586 4.75029C8.80844 4.65906 8.89967 4.52216 8.89967 4.29391V3.65507C8.89967 3.4725 8.80844 3.3356 8.62586 3.29004C8.58019 3.29004 8.48896 3.29004 8.44329 3.3356C4.1081 4.70462 1.73509 9.31373 3.10411 13.6489C3.92552 16.2044 5.88782 18.1667 8.44329 18.9881C8.62586 19.0793 8.80844 18.9881 8.854 18.8055C8.89967 18.76 8.89967 18.7143 8.89967 18.6231V17.9841C8.89967 17.8472 8.76277 17.6647 8.62586 17.5734ZM13.4631 3.3356C13.2805 3.24437 13.098 3.3356 13.0524 3.51817C13.0067 3.56384 13.0067 3.6094 13.0067 3.70075V4.33958C13.0067 4.52216 13.1436 4.70462 13.2805 4.79596C16.84 6.07364 18.6654 10.0438 17.3419 13.5577C16.6574 15.4743 15.1515 16.9346 13.2805 17.6191C13.098 17.7103 13.0067 17.8472 13.0067 18.0755V18.7143C13.0067 18.8969 13.098 19.0338 13.2805 19.0793C13.3262 19.0793 13.4174 19.0793 13.4631 19.0338C17.7983 17.6647 20.1713 13.0556 18.8023 8.72045C17.9809 6.11931 15.9729 4.15701 13.4631 3.3356Z" fill="white"/>
</svg>
