<svg width="32" height="32" viewBox="0 0 32 32" fill="none" xmlns="http://www.w3.org/2000/svg">
<g clip-path="url(#clip0_313_147)">
<path d="M32 16C32 24.8366 24.8366 32 16 32C7.16345 32 0 24.8366 0 16C0 7.16345 7.16345 0 16 0C18.4572 0 20.7851 0.553916 22.8655 1.54369C23.3233 6.60037 27.8441 7.73356 29.8481 7.98032C31.2165 10.3382 32 13.0776 32 16Z" fill="url(#paint0_linear_313_147)"/>
<path d="M6.15479 12.2139H6.18078C6.17324 12.2168 6.16359 12.2168 6.15479 12.2139Z" fill="#308D8A"/>
<path d="M24.3331 8.23352H25.5479L26.0278 9.17087L26.0198 9.17147C26.0535 9.27573 26.0343 9.39744 25.9426 9.48912L22.9159 12.5158C22.8001 12.6317 22.6408 12.6993 22.4718 12.6993H7.14999C7.03801 12.6993 6.94842 12.6452 6.89389 12.5677L6.89087 12.5678L6.88117 12.5481C6.87196 12.5328 6.86404 12.5167 6.85751 12.5L6.43344 11.638L7.54295 11.5484L9.95464 9.13673C10.0753 9.02087 10.2346 8.95329 10.3988 8.95329H24.3331V8.23352Z" fill="#E64133"/>
<path d="M10.3988 20.254C10.2298 20.254 10.0705 20.3216 9.95464 20.4375L7.53485 22.8573L6.43344 22.9462L6.89087 23.876L6.89909 23.8756C6.95403 23.9493 7.0415 24 7.14999 24H22.4718C22.6408 24 22.8001 23.9324 22.9159 23.8166L25.9426 20.7899C26.0322 20.7003 26.0526 20.5821 26.0221 20.4795L26.0278 20.4791L26.0049 20.4343C26.0017 20.4274 25.9982 20.4207 25.9945 20.4141L25.5479 19.5417L24.3331 19.4217V20.254H10.3988Z" fill="#E64133"/>
<path d="M22.8644 14.5677C23.0334 14.5677 23.1927 14.6352 23.3086 14.7511L26.3353 17.7778C26.5332 17.9757 26.3932 18.3136 26.1132 18.3136H10.867C10.6981 18.3136 10.5388 18.246 10.4229 18.1302L7.3962 15.1035C7.19828 14.9056 7.33827 14.5677 7.61825 14.5677H22.8644Z" fill="#E64133"/>
<path d="M9.53475 8.29684C9.65543 8.18099 9.81473 8.1134 9.97886 8.1134H25.3007C25.5807 8.1134 25.7207 8.45131 25.5227 8.64923L22.496 11.6759C22.3802 11.7918 22.2209 11.8594 22.0519 11.8594H6.73009C6.45011 11.8594 6.31012 11.5215 6.50804 11.3235L9.53475 8.29684Z" fill="white"/>
<path d="M9.53475 19.5976C9.6506 19.4817 9.8099 19.4141 9.97886 19.4141H25.3007C25.5807 19.4141 25.7207 19.7521 25.5227 19.95L22.496 22.9767C22.3802 23.0925 22.2209 23.1601 22.0519 23.1601H6.73009C6.45011 23.1601 6.31012 22.8222 6.50804 22.6243L9.53475 19.5976Z" fill="white"/>
<path d="M22.0519 13.7278C22.2209 13.7278 22.3802 13.7953 22.496 13.9112L25.5227 16.9379C25.7207 17.1358 25.5807 17.4737 25.3007 17.4737H9.97886C9.8099 17.4737 9.6506 17.4062 9.53475 17.2903L6.50804 14.2636C6.31012 14.0657 6.45011 13.7278 6.73009 13.7278H22.0519Z" fill="white"/>
<path d="M28.3055 3.14464C29.7451 5.09245 30.9557 6.13284 31.9441 6.7099L31.9833 6.70936C32.2216 -1.71505 24.4619 0.185992 24.4619 0.185992L24.4612 0.202383C25.5936 0.658725 27.1104 1.52838 28.3055 3.14464Z" fill="url(#paint1_linear_313_147)"/>
<path d="M28.3557 3.11674C27.1611 1.50201 25.656 0.594534 24.4602 0.20175C24.2005 6.6653 31.3507 6.71673 31.943 6.70927C30.9539 6.13177 29.7953 5.06455 28.3557 3.11674Z" fill="url(#paint2_linear_313_147)"/>
</g>
<defs>
<linearGradient id="paint0_linear_313_147" x1="25.75" y1="3.125" x2="16" y2="32" gradientUnits="userSpaceOnUse">
<stop stop-color="#FFCB1B"/>
<stop offset="1" stop-color="#E64133"/>
</linearGradient>
<linearGradient id="paint1_linear_313_147" x1="25.9173" y1="-1.11781" x2="32.5855" y2="7.48923" gradientUnits="userSpaceOnUse">
<stop offset="0.15" stop-color="#6CBF00"/>
<stop offset="1" stop-color="#AFD803"/>
</linearGradient>
<linearGradient id="paint2_linear_313_147" x1="5809.42" y1="4639.77" x2="5315.13" y2="2351.89" gradientUnits="userSpaceOnUse">
<stop offset="0.15" stop-color="#6CBF00"/>
<stop offset="1" stop-color="#AFD803"/>
</linearGradient>
<clipPath id="clip0_313_147">
<rect width="32" height="32" fill="white"/>
</clipPath>
</defs>
</svg>
