<svg width="195" height="195" viewBox="0 0 195 195" fill="none" xmlns="http://www.w3.org/2000/svg">
<path fill-rule="evenodd" clip-rule="evenodd" d="M195 9.75001C195 4.36523 190.634 0.000208411 185.25 0.000208411L38.6397 0C32.2331 0 26.6275 0.929205 21.8225 2.7878C17.0177 4.78929 13.0135 7.43396 9.81027 10.7221C6.47343 14.1533 4.00442 18.0132 2.40282 22.3021C0.801012 26.7339 0.00020841 31.3087 0.00020841 36.0265V57.6362C0.00020841 68.8824 9.11747 77.9999 20.3642 77.9999H136.5L78.0005 39.0001H185.25C190.634 39.0001 195 34.6348 195 29.25V9.75001ZM0 185.25C0 190.636 4.36521 195 9.74996 195H156.36C162.766 195 168.373 194.071 173.176 192.212C177.982 190.211 181.987 187.566 185.189 184.277C188.526 180.848 190.995 176.988 192.596 172.699C194.197 168.265 195 163.691 195 158.973V137.364C195 126.117 185.883 117 174.634 117H58.4997L117 156H9.74996C4.36521 156 0 160.364 0 165.75V185.25Z" fill="white"/>
</svg>
