<svg width="212" height="195" viewBox="0 0 212 195" fill="none" xmlns="http://www.w3.org/2000/svg">
<path fill-rule="evenodd" clip-rule="evenodd" d="M127.08 104.57C125.88 104.66 119.68 105.03 105.85 105.03C94.85 105.03 87.04 104.7 84.3 104.57C41.79 102.7 10.06 95.3 10.06 86.44C10.06 77.58 41.79 70.19 84.3 68.29V97.2C87.08 97.4 95.04 97.87 106.04 97.87C119.24 97.87 125.85 97.32 127.04 97.21V68.31C169.46 70.2 201.12 77.6 201.12 86.44C201.12 95.28 169.47 102.68 127.04 104.56L127.08 104.57ZM127.08 65.32V39.45H186.28V0H25.1V39.45H84.29V65.31C36.18 67.52 0 77.05 0 88.47C0 99.89 36.18 109.41 84.29 111.63V194.53H127.07V111.6C175.07 109.39 211.19 99.87 211.19 88.46C211.19 77.05 175.1 67.53 127.07 65.31L127.08 65.32Z" fill="white"/>
</svg>
