<svg width="31" height="31" viewBox="0 0 31 31" fill="none" xmlns="http://www.w3.org/2000/svg">
<path d="M15.5 2.90625C15.5 1.30117 16.8012 0 18.4062 0C20.0113 0 21.3125 1.30117 21.3125 2.90625V3.875C21.3125 4.94505 22.1799 5.8125 23.25 5.8125H29.0625C30.1326 5.8125 31 6.67995 31 7.75V13.5625C31 14.6326 30.1326 15.5 29.0625 15.5H28.0938C26.4887 15.5 25.1875 16.8012 25.1875 18.4062C25.1875 20.0113 26.4887 21.3125 28.0938 21.3125H29.0625C30.1326 21.3125 31 22.1799 31 23.25V29.0625C31 30.1326 30.1326 31 29.0625 31H23.25C22.1799 31 21.3125 30.1326 21.3125 29.0625V28.0938C21.3125 26.4887 20.0113 25.1875 18.4062 25.1875C16.8012 25.1875 15.5 26.4887 15.5 28.0938V29.0625C15.5 30.1326 14.6326 31 13.5625 31H7.75C6.67995 31 5.8125 30.1326 5.8125 29.0625V23.25C5.8125 22.1799 4.94505 21.3125 3.875 21.3125H2.90625C1.30117 21.3125 0 20.0113 0 18.4062C0 16.8012 1.30117 15.5 2.90625 15.5H3.875C4.94505 15.5 5.8125 14.6326 5.8125 13.5625V7.75C5.8125 6.67995 6.67995 5.8125 7.75 5.8125H13.5625C14.6326 5.8125 15.5 4.94505 15.5 3.875V2.90625Z" fill="url(#paint0_linear)"/>
<defs>
<linearGradient id="paint0_linear" x1="-15.5" y1="-5.8125" x2="53.2813" y2="31" gradientUnits="userSpaceOnUse">
<stop stop-color="#E54033"/>
<stop offset="0.520833" stop-color="#FECA1A"/>
<stop offset="1" stop-color="#AFD803"/>
</linearGradient>
</defs>
</svg>
