<svg width="31" height="31" viewBox="0 0 31 31" fill="none" xmlns="http://www.w3.org/2000/svg">
<path fill-rule="evenodd" clip-rule="evenodd" d="M15.5 31C24.0604 31 31 24.0604 31 15.5C31 6.93959 24.0604 0 15.5 0C6.93959 0 0 6.93959 0 15.5C0 24.0604 6.93959 31 15.5 31ZM4.51784 11.6781C5.24176 9.59761 6.54018 7.78612 8.22315 6.43358C8.74218 7.22622 9.63808 7.74983 10.6563 7.74983C12.2614 7.74983 13.5625 9.051 13.5625 10.6561V11.6248C13.5625 13.7649 15.2974 15.4998 17.4375 15.4998C19.5776 15.4998 21.3125 13.7649 21.3125 11.6248C21.3125 9.80335 22.5693 8.2754 24.263 7.86081C26.0454 9.90374 27.125 12.5757 27.125 15.4999C27.125 16.1601 27.07 16.8075 26.9642 17.4377H25.1875C23.0473 17.4377 21.3125 19.1726 21.3125 21.3127V25.5697C19.6026 26.5588 17.6172 27.1249 15.4998 27.1249V23.25C15.4998 21.1099 13.7649 19.375 11.6248 19.375C9.48473 19.375 7.74984 17.6401 7.74984 15.5C7.74984 13.579 6.35192 11.9844 4.51784 11.6781Z" fill="url(#paint0_linear)"/>
<defs>
<linearGradient id="paint0_linear" x1="-29.0625" y1="-7.75" x2="31" y2="31" gradientUnits="userSpaceOnUse">
<stop stop-color="#E54033"/>
<stop offset="0.520833" stop-color="#FECA1A"/>
<stop offset="1" stop-color="#AFD803"/>
</linearGradient>
</defs>
</svg>
