<svg width="32" height="32" viewBox="0 0 32 32" fill="none" xmlns="http://www.w3.org/2000/svg">
<path d="M12.8668 10.8357C13.1764 10.6293 13.5588 10.4448 14 10.302L14 13.698C13.5588 13.5552 13.1764 13.3707 12.8668 13.1643C12.1385 12.6788 12 12.2278 12 12C12 11.7722 12.1385 11.3212 12.8668 10.8357Z" fill="url(#paint0_linear)"/>
<path d="M18 21.698L18 18.302C18.4412 18.4448 18.8237 18.6293 19.1333 18.8357C19.8615 19.3212 20 19.7722 20 20C20 20.2278 19.8615 20.6788 19.1333 21.1643C18.8237 21.3707 18.4413 21.5552 18 21.698Z" fill="url(#paint1_linear)"/>
<path fill-rule="evenodd" clip-rule="evenodd" d="M16 32C24.8366 32 32 24.8366 32 16C32 7.16344 24.8366 0 16 0C7.16344 0 0 7.16344 0 16C0 24.8366 7.16344 32 16 32ZM18 6C18 4.89543 17.1046 4 16 4C14.8954 4 14 4.89543 14 6V6.18399C12.7568 6.41745 11.607 6.86814 10.648 7.50747C9.20461 8.46971 8 10.0187 8 12C8 13.9813 9.20461 15.5303 10.648 16.4925C11.607 17.1319 12.7568 17.5826 14 17.816L14 21.6985C13.218 21.4446 12.6383 21.0638 12.3133 20.6892C11.5894 19.855 10.3263 19.7655 9.49198 20.4894C8.6577 21.2133 8.56822 22.4765 9.29213 23.3108C10.4171 24.6073 12.1191 25.4617 14 25.8153L14 26C14 27.1045 14.8954 28 16 28C17.1045 28 18 27.1046 18 26L18 25.816C19.2432 25.5826 20.3931 25.1319 21.3521 24.4925C22.7954 23.5303 24 21.9813 24 20C24 18.0187 22.7954 16.4697 21.3521 15.5075C20.3931 14.8681 19.2432 14.4175 18 14.184L18 10.3015C18.782 10.5554 19.3617 10.9362 19.6867 11.3108C20.4106 12.145 21.6738 12.2345 22.5081 11.5106C23.3423 10.7867 23.4318 9.52353 22.7079 8.68925C21.5829 7.39273 19.8809 6.5383 18 6.18472V6Z" fill="url(#paint2_linear)"/>
<defs>
<linearGradient id="paint0_linear" x1="-15" y1="-31.5" x2="41.5" y2="25.5" gradientUnits="userSpaceOnUse">
<stop stop-color="#E54033"/>
<stop offset="0.536458" stop-color="#FECA1A"/>
<stop offset="1" stop-color="#AFD803"/>
</linearGradient>
<linearGradient id="paint1_linear" x1="-15" y1="-31.5" x2="41.5" y2="25.5" gradientUnits="userSpaceOnUse">
<stop stop-color="#E54033"/>
<stop offset="0.536458" stop-color="#FECA1A"/>
<stop offset="1" stop-color="#AFD803"/>
</linearGradient>
<linearGradient id="paint2_linear" x1="-15" y1="-31.5" x2="41.5" y2="25.5" gradientUnits="userSpaceOnUse">
<stop stop-color="#E54033"/>
<stop offset="0.536458" stop-color="#FECA1A"/>
<stop offset="1" stop-color="#AFD803"/>
</linearGradient>
</defs>
</svg>
