<svg width="29" height="33" viewBox="0 0 29 33" fill="none" xmlns="http://www.w3.org/2000/svg">
<path fill-rule="evenodd" clip-rule="evenodd" d="M4.14286 0C1.85482 0 0 1.84683 0 4.125V33L7.25 28.875L14.5 33L21.75 28.875L29 33V4.125C29 1.84683 27.1452 0 24.8571 0H4.14286ZM9.32143 6.1875C7.6054 6.1875 6.21429 7.57262 6.21429 9.28125C6.21429 10.9899 7.6054 12.375 9.32143 12.375C11.0375 12.375 12.4286 10.9899 12.4286 9.28125C12.4286 7.57262 11.0375 6.1875 9.32143 6.1875ZM22.179 6.79159C21.3701 5.98614 20.0585 5.98614 19.2496 6.79159L6.82099 19.1666C6.01205 19.972 6.01205 21.278 6.82099 22.0834C7.62994 22.8889 8.94149 22.8889 9.75043 22.0834L22.179 9.70841C22.988 8.90295 22.988 7.59705 22.179 6.79159ZM19.6786 16.5C17.9625 16.5 16.5714 17.8851 16.5714 19.5938C16.5714 21.3024 17.9625 22.6875 19.6786 22.6875C21.3946 22.6875 22.7857 21.3024 22.7857 19.5938C22.7857 17.8851 21.3946 16.5 19.6786 16.5Z" fill="url(#paint0_linear)"/>
<defs>
<linearGradient id="paint0_linear" x1="-32.0208" y1="-20.1667" x2="59.8765" y2="42.4076" gradientUnits="userSpaceOnUse">
<stop stop-color="#E54033"/>
<stop offset="0.520833" stop-color="#FECA1A"/>
<stop offset="1" stop-color="#AFD803"/>
</linearGradient>
</defs>
</svg>
