<svg width="99" height="49" viewBox="0 0 99 49" fill="none" xmlns="http://www.w3.org/2000/svg">
<path d="M98 32L86.0695 23.7647L82.4385 27.8824L73.1016 17.2941L69.9893 4.94117L61.6898 2L57.5401 7.88235L50.2781 1.99999L40.9412 11.4118L33.1604 4.94117L30.5668 1.99999L25.3797 4.94117L22.7861 7.88235L18.6364 17.2941L15.5241 7.88234L8.78075 14.9412L3.07487 23.7647L1 27.2941" stroke="#E54033" stroke-width="2" stroke-linecap="round"/>
<path d="M86.0695 23.7647L98 32L98 48.5L1 48.5L1 27.2941L3.07487 23.7647L8.78075 14.9412L15.5241 7.88235L18.6364 17.2941L22.7861 7.88235L25.3797 4.94117L30.5669 1.99999L33.1604 4.94117L40.9412 11.4118L50.2781 2L57.5401 7.88235L61.6898 2L69.9893 4.94117L73.1016 17.2941L82.4385 27.8824L86.0695 23.7647Z" fill="url(#paint0_linear)"/>
<defs>
<linearGradient id="paint0_linear" x1="51.5" y1="-127.5" x2="50" y2="52" gradientUnits="userSpaceOnUse">
<stop stop-color="#E54033"/>
<stop offset="1" stop-color="#E54033" stop-opacity="0"/>
</linearGradient>
</defs>
</svg>
