<svg width="99" height="47" viewBox="0 0 99 47" fill="none" xmlns="http://www.w3.org/2000/svg">
<path d="M1 1L12.9305 9.23529L16.5615 5.11765L25.8984 15.7059L29.0107 28.0588L37.3102 31L41.4599 25.1176L48.7219 31L58.0588 21.5882L65.8396 28.0588L68.4332 31L73.6203 28.0588L76.2139 25.1176L80.3636 15.7059L83.4759 25.1176L90.2193 18.0588L95.9251 9.23529L98 5.70588" stroke="#6CBF00" stroke-width="2" stroke-linecap="round"/>
<path d="M12.9305 9.23529L1 1V47H98V5.70588L95.9251 9.23529L90.2193 18.0588L83.4759 25.1176L80.3636 15.7059L76.2139 25.1176L73.6203 28.0588L68.4332 31L65.8396 28.0588L58.0588 21.5882L48.7219 31L41.4599 25.1176L37.3102 31L29.0107 28.0588L25.8984 15.7059L16.5615 5.11765L12.9305 9.23529Z" fill="url(#paint0_linear)"/>
<defs>
<linearGradient id="paint0_linear" x1="50" y1="-104" x2="49.5" y2="47" gradientUnits="userSpaceOnUse">
<stop stop-color="#AFD803"/>
<stop offset="1" stop-color="#AFD803" stop-opacity="0"/>
</linearGradient>
</defs>
</svg>
