<svg width="16" height="20" viewBox="0 0 16 20" fill="none" xmlns="http://www.w3.org/2000/svg">
<path d="M5 12L11 6M5.50003 6.5H5.51003M10.5 11.5H10.51M15 19V3C15 1.89543 14.1046 1 13 1H3C1.89543 1 1 1.89543 1 3V19L4.5 17L8 19L11.5 17L15 19ZM6 6.5C6 6.77614 5.77614 7 5.5 7C5.22386 7 5 6.77614 5 6.5C5 6.22386 5.22386 6 5.5 6C5.77614 6 6 6.22386 6 6.5ZM11 11.5C11 11.7761 10.7761 12 10.5 12C10.2239 12 10 11.7761 10 11.5C10 11.2239 10.2239 11 10.5 11C10.7761 11 11 11.2239 11 11.5Z" stroke="#4F4C67" stroke-width="2" stroke-linecap="round" stroke-linejoin="round"/>
</svg>
