<svg width="120" height="38" viewBox="0 0 120 38" fill="none" xmlns="http://www.w3.org/2000/svg">
<path d="M16.1753 30.8762C10.6079 30.8762 6.09375 26.3621 6.09375 20.7947C6.09375 15.3777 15.1972 5.82287 15.5734 5.44669L16.0248 4.92004L16.4762 5.44669C16.8524 5.82287 26.1815 15.3777 26.1815 20.7947C26.2568 26.3621 21.7427 30.8762 16.1753 30.8762ZM16.1 6.87616C15.2724 7.77898 13.6173 9.58462 11.9621 11.8417C9.02792 15.7539 7.44798 18.8385 7.44798 20.7947C7.44798 25.6097 11.3602 29.5219 16.1753 29.5219C20.9903 29.5219 24.9025 25.6097 24.9025 20.7947C24.9025 18.8385 23.3226 15.7539 20.3132 11.8417C18.658 9.65986 16.9276 7.77898 16.1 6.87616Z" fill="url(#paint0_linear)"/>
<path d="M16.175 34.1114C8.80197 34.1114 2.8584 28.1678 2.8584 20.7948C2.8584 13.6475 12.8647 3.64119 13.3161 3.18977C13.617 2.96407 13.9932 2.96407 14.2941 3.18977C14.5198 3.49071 14.5198 3.86689 14.2941 4.16783C14.1437 4.24307 4.21263 14.1741 4.21263 20.7948C4.21263 27.4155 9.55433 32.7572 16.175 32.7572C22.7957 32.7572 28.1374 27.4155 28.1374 20.7948C28.1374 18.0863 26.407 14.3246 23.0967 9.96094C20.5387 6.57536 17.9807 4.01736 17.9807 4.01736C17.6797 3.79166 17.6797 3.34024 17.9807 3.0393C18.2064 2.73836 18.6578 2.73836 18.9587 3.0393C19.4101 3.49071 29.5669 13.6475 29.5669 20.7948C29.4916 28.1678 23.5481 34.1114 16.175 34.1114Z" fill="url(#paint1_linear)"/>
<path d="M16.1756 37.3468C7.29781 37.3468 0 30.049 0 21.1712C0 17.4847 1.88088 12.9706 5.49216 7.70415C8.20063 3.86716 10.8339 1.08346 10.9843 0.932991C11.21 0.63205 11.6614 0.63205 11.9624 0.932991C12.2633 1.1587 12.2633 1.61011 11.9624 1.91105C11.9624 1.91105 9.25392 4.69475 6.62069 8.53174C3.15988 13.4973 1.35423 17.8609 1.35423 21.2465C1.35423 29.4471 8.05016 36.0678 16.1756 36.0678C24.3009 36.0678 30.9969 29.2966 30.9969 21.1712C30.9969 17.7857 29.1912 13.422 25.7304 8.4565C23.0972 4.69475 20.3887 1.91105 20.3887 1.83581C20.163 1.53487 20.163 1.1587 20.3887 0.857756C20.6897 0.63205 21.0658 0.63205 21.3668 0.857756C21.743 1.3844 32.3511 12.3687 32.3511 21.1712C32.3511 30.049 25.1285 37.3468 16.1756 37.3468Z" fill="url(#paint2_linear)"/>
<path d="M39.3486 24.406L42.5837 24.1051C42.8094 25.1584 43.1856 25.986 43.7875 26.5126C44.3894 27.0393 45.217 27.265 46.195 27.265C47.2483 27.265 48.0759 27.0393 48.6026 26.5879C49.1292 26.1364 49.4301 25.6098 49.4301 25.0079C49.4301 24.6317 49.2797 24.2556 49.054 24.0299C48.8283 23.7289 48.4521 23.5032 47.8502 23.3527C47.474 23.2023 46.5712 22.9766 45.217 22.6004C43.4113 22.149 42.2076 21.6223 41.4552 20.9452C40.4772 20.0424 39.9505 18.9139 39.9505 17.6349C39.9505 16.8073 40.1762 15.9797 40.6276 15.3026C41.079 14.6255 41.7562 14.0236 42.659 13.6474C43.5618 13.2712 44.6151 13.0455 45.8941 13.0455C48.0007 13.0455 49.5054 13.4969 50.5587 14.3998C51.612 15.3026 52.1386 16.5063 52.2138 18.0111L48.9035 18.1615C48.753 17.3339 48.4521 16.7321 48.0007 16.3559C47.5493 15.9797 46.8721 15.754 45.8941 15.754C44.916 15.754 44.1637 15.9797 43.637 16.3559C43.2609 16.5816 43.1104 16.9578 43.1104 17.4092C43.1104 17.7853 43.2609 18.1615 43.637 18.3872C44.0884 18.7634 45.0665 19.1396 46.7217 19.5158C48.3768 19.8919 49.5054 20.2681 50.333 20.7195C51.0853 21.0957 51.6872 21.6976 52.1386 22.3747C52.59 23.0518 52.8157 23.9546 52.8157 25.0079C52.8157 25.986 52.59 26.8136 52.0634 27.6411C51.5367 28.4687 50.7844 29.0706 49.8063 29.4468C48.8283 29.823 47.6245 30.0487 46.195 30.0487C44.0884 30.0487 42.5085 29.5973 41.38 28.6192C40.2515 27.6411 39.5743 26.2869 39.3486 24.406Z" fill="white"/>
<path d="M55.5264 29.8231V13.2714H67.7145V16.0551H58.8367V19.7416H67.1126V22.5253H58.8367V27.0394H68.0154V29.8231H55.5264Z" fill="white"/>
<path d="M70.9482 29.8231V13.2714H77.9451C79.6755 13.2714 80.9545 13.4218 81.7821 13.7228C82.6097 14.0237 83.2116 14.5504 83.663 15.3027C84.1144 16.0551 84.4153 16.9579 84.4153 17.9359C84.4153 19.1397 84.0391 20.193 83.2868 21.0206C82.5344 21.8482 81.4812 22.2996 80.0517 22.5253C80.804 22.9767 81.3307 23.4281 81.8573 23.8795C82.3087 24.4062 82.9859 25.309 83.7382 26.588L85.7696 29.8231H81.7821L79.3746 26.2118C78.547 24.9328 77.9451 24.1052 77.6442 23.8043C77.3432 23.5033 76.9671 23.2776 76.6661 23.1272C76.2899 22.9767 75.7633 22.9767 75.0109 22.9767H74.3338V29.8231H70.9482ZM74.2586 20.2682H76.7413C78.3213 20.2682 79.2993 20.193 79.7507 20.0425C80.1269 19.8921 80.4279 19.6663 80.6536 19.3654C80.8793 19.0645 80.9545 18.6131 80.9545 18.1616C80.9545 17.635 80.804 17.1836 80.5031 16.8074C80.2022 16.4312 79.826 16.2808 79.2241 16.1303C78.9232 16.1303 78.1708 16.0551 76.8166 16.0551H74.1833V20.2682H74.2586Z" fill="white"/>
<path d="M87.5 13.2714H90.8103V22.2243C90.8103 23.6538 90.8856 24.5566 90.9608 25.008C91.1113 25.6852 91.4122 26.2118 92.0141 26.6632C92.5408 27.0394 93.2931 27.2651 94.1959 27.2651C95.174 27.2651 95.8511 27.0394 96.3025 26.6632C96.7539 26.287 97.0549 25.8356 97.2053 25.2337C97.2806 24.7071 97.3558 23.729 97.3558 22.45V13.2714H100.666V21.9234C100.666 23.8795 100.591 25.309 100.365 26.1366C100.215 26.9642 99.8386 27.6413 99.3872 28.2432C98.9357 28.7698 98.2586 29.2212 97.431 29.5974C96.6034 29.9736 95.5502 30.124 94.2712 30.124C92.6912 30.124 91.4875 29.9736 90.6599 29.5974C89.8323 29.2212 89.2304 28.7698 88.7038 28.1679C88.2524 27.566 87.9514 26.9642 87.8009 26.3623C87.5752 25.3842 87.5 24.03 87.5 22.1491V13.2714Z" fill="white"/>
<path d="M104.126 29.8231V13.2714H109.091L112.101 24.4814L115.035 13.2714H120.001V29.7479H116.916V16.8074L113.681 29.8231H110.446L107.211 16.8074V29.8231H104.126Z" fill="white"/>
<defs>
<linearGradient id="paint0_linear" x1="16.1899" y1="30.8857" x2="16.1899" y2="4.95774" gradientUnits="userSpaceOnUse">
<stop stop-color="#05AAC5"/>
<stop offset="1" stop-color="#71E0EC"/>
</linearGradient>
<linearGradient id="paint1_linear" x1="16.1897" y1="34.1048" x2="16.1897" y2="2.86032" gradientUnits="userSpaceOnUse">
<stop stop-color="#05AAC5"/>
<stop offset="1" stop-color="#71E0EC"/>
</linearGradient>
<linearGradient id="paint2_linear" x1="16.1902" y1="37.3286" x2="16.1902" y2="0.707284" gradientUnits="userSpaceOnUse">
<stop stop-color="#05AAC5"/>
<stop offset="1" stop-color="#71E0EC"/>
</linearGradient>
</defs>
</svg>
