<svg width="154" height="30" viewBox="0 0 154 30" fill="none" xmlns="http://www.w3.org/2000/svg">
<path d="M52.1703 15.9073H57.9715C58.7863 15.9073 59.4469 16.5791 59.4469 17.4079C59.4469 18.2367 58.7863 18.9085 57.9715 18.9085H50.9743C50.8651 18.9085 50.7594 18.9482 50.6764 19.0204L48.5638 20.8587C48.2404 21.1401 48.436 21.6789 48.8616 21.6789H57.621C57.6246 21.6789 57.6276 21.6759 57.6276 21.6722C57.6276 21.6684 57.6308 21.6653 57.6346 21.6656C57.7448 21.6744 57.8563 21.6789 57.9687 21.6789C60.2923 21.6789 62.1759 19.7667 62.1759 17.4079C62.1759 15.168 60.4773 13.3307 58.3164 13.1513C58.3127 13.151 58.3098 13.1479 58.3098 13.1441C58.3098 13.1402 58.3067 13.1369 58.3027 13.1369H52.0531C51.2382 13.1369 50.5776 12.4651 50.5776 11.6363C50.5776 10.8076 51.2382 10.1357 52.0531 10.1357H59.0406C59.1556 10.1357 59.2665 10.0917 59.3511 10.0124L61.3128 8.17411C61.6198 7.88651 61.4197 7.36536 61.0024 7.36536H52.1703C52.1699 7.36536 52.1696 7.36569 52.1696 7.36611C52.1696 7.36654 52.1692 7.36688 52.1688 7.36687C52.1313 7.36586 52.0936 7.36536 52.0559 7.36536C49.7323 7.36536 47.8486 9.27753 47.8486 11.6363C47.8486 13.9951 49.7323 15.9073 52.0559 15.9073C52.0936 15.9073 52.1313 15.9068 52.1688 15.9058C52.1692 15.9058 52.1696 15.9061 52.1696 15.9065C52.1696 15.907 52.1699 15.9073 52.1703 15.9073Z" fill="white"/>
<path d="M85.9584 7.36536C85.7048 7.36536 85.4992 7.574 85.4992 7.83138V21.2129C85.4992 21.4702 85.7048 21.6789 85.9584 21.6789H96.581C96.7079 21.6789 96.8292 21.6256 96.916 21.5316L98.2456 20.0923C98.5206 19.7947 98.3126 19.3075 97.9107 19.3075H88.6357C88.3821 19.3075 88.1766 19.0989 88.1766 18.8415V7.83138C88.1766 7.574 87.971 7.36536 87.7174 7.36536H85.9584Z" fill="white"/>
<path fill-rule="evenodd" clip-rule="evenodd" d="M68.9446 7.36536C68.9439 7.36536 68.9433 7.36592 68.9433 7.36661C68.9433 7.36729 68.9428 7.36784 68.9421 7.36787C67.5844 7.42725 66.4942 8.53015 66.4355 9.90364C66.4355 9.90431 66.4349 9.90485 66.4343 9.90485C66.4339 9.90485 66.4336 9.90502 66.4333 9.90528C66.4331 9.9055 66.433 9.90579 66.433 9.90611V18.9073C66.433 18.908 66.4336 18.9085 66.4342 18.9085C66.4349 18.9085 66.4354 18.9091 66.4354 18.9098C66.4338 18.9476 66.433 18.9857 66.433 19.0239C66.433 20.4511 67.5462 21.6153 68.9421 21.6764C68.9428 21.6764 68.9433 21.6769 68.9433 21.6776L68.9435 21.6782L68.9438 21.6786C68.944 21.6788 68.9443 21.6789 68.9446 21.6789H78.5834C78.5841 21.6789 78.5846 21.6783 78.5846 21.6776L78.5848 21.6769L78.5853 21.6765L78.5858 21.6764C79.9817 21.6153 81.0949 20.4511 81.0949 19.0239C81.0949 18.9857 81.0941 18.9476 81.0925 18.9098C81.0925 18.9091 81.0931 18.9085 81.0937 18.9085C81.0944 18.9085 81.0949 18.908 81.0949 18.9073V9.90611C81.0949 9.90542 81.0944 9.90485 81.0937 9.90485C81.093 9.90485 81.0925 9.90431 81.0924 9.90364C81.0337 8.53015 79.9435 7.42725 78.5858 7.36787C78.5851 7.36784 78.5846 7.36729 78.5846 7.36661C78.5846 7.36592 78.5841 7.36536 78.5834 7.36536H68.9446ZM70.7413 9.90485L70.7407 9.90517L70.7405 9.90564C70.7405 9.90607 70.7402 9.90642 70.7398 9.90644C69.8912 9.94379 69.2098 10.6376 69.1731 11.5015C69.1731 11.5019 69.1728 11.5023 69.1723 11.5023C69.1719 11.5023 69.1716 11.5026 69.1716 11.5031V17.1651C69.1716 17.1655 69.1719 17.1659 69.1723 17.1659C69.1727 17.1659 69.1731 17.1662 69.1731 17.1667C69.1721 17.1905 69.1716 17.2144 69.1716 17.2385C69.1716 18.1362 69.8673 18.8685 70.7398 18.9069C70.7402 18.9069 70.7405 18.9073 70.7405 18.9077L70.7406 18.9082L70.7409 18.9084L70.7413 18.9085H76.7867L76.787 18.9084L76.7874 18.9081L76.7875 18.9077C76.7875 18.9073 76.7878 18.9069 76.7882 18.9069C77.6607 18.8685 78.3564 18.1362 78.3564 17.2385C78.3564 17.2144 78.3559 17.1905 78.3549 17.1667L78.3549 17.1665L78.355 17.1662L78.3557 17.1659C78.3561 17.1659 78.3564 17.1655 78.3564 17.1651V11.5031C78.3564 11.5026 78.3561 11.5023 78.3556 11.5023C78.3552 11.5023 78.3549 11.5019 78.3549 11.5015C78.3182 10.6376 77.6368 9.94379 76.7882 9.90644C76.7878 9.90642 76.7875 9.90607 76.7875 9.90564L76.7874 9.90526L76.7871 9.90498L76.7867 9.90485H70.7413Z" fill="white"/>
<path fill-rule="evenodd" clip-rule="evenodd" d="M113.692 21.2129C113.692 21.4702 113.896 21.6789 114.148 21.6789H115.949C116.201 21.6789 116.405 21.4702 116.405 21.2129V10.1369C116.405 10.1363 116.404 10.1357 116.403 10.1357L116.403 10.1356L116.403 10.1354C116.402 10.1352 116.402 10.1348 116.402 10.1345C116.404 10.0966 116.405 10.0585 116.405 10.0203C116.405 8.59309 115.302 7.42892 113.919 7.36787C113.919 7.36784 113.918 7.36729 113.918 7.36661C113.918 7.36592 113.918 7.36536 113.917 7.36536H104.663C104.663 7.36536 104.662 7.3659 104.662 7.36656C104.662 7.36725 104.662 7.3678 104.661 7.36777C104.624 7.36617 104.587 7.36536 104.549 7.36536C103.114 7.36536 101.95 8.55401 101.95 10.0203C101.95 10.0585 101.951 10.0966 101.952 10.1345C101.952 10.1351 101.952 10.1357 101.951 10.1357C101.95 10.1357 101.95 10.1363 101.95 10.1369V21.2129C101.95 21.4702 102.154 21.6789 102.405 21.6789H104.207C104.458 21.6789 104.662 21.4702 104.662 21.2129V16.6042C104.662 16.3468 104.866 16.1382 105.118 16.1382H113.237C113.488 16.1382 113.692 16.3468 113.692 16.6042V21.2129ZM104.662 13.5944V11.29C104.662 10.3975 105.371 9.67399 106.245 9.67399H112.11C112.984 9.67399 113.692 10.3975 113.692 11.29V13.5944C113.692 13.8517 113.488 14.0604 113.237 14.0604H105.118C104.866 14.0604 104.662 13.8517 104.662 13.5944Z" fill="white"/>
<path fill-rule="evenodd" clip-rule="evenodd" d="M151.721 21.6789C151.467 21.6789 151.261 21.4702 151.261 21.2129V16.6042C151.261 16.3468 151.055 16.1382 150.801 16.1382H142.592C142.338 16.1382 142.132 16.3468 142.132 16.6042V21.2129C142.132 21.4702 141.927 21.6789 141.673 21.6789H139.854C139.6 21.6789 139.394 21.4702 139.394 21.2129V10.1369L139.394 10.1366L139.394 10.1362C139.394 10.1359 139.395 10.1357 139.395 10.1357C139.396 10.1357 139.396 10.1351 139.396 10.1345C139.395 10.0966 139.394 10.0585 139.394 10.0203C139.394 8.55401 140.569 7.36536 142.018 7.36536C142.056 7.36536 142.094 7.36617 142.131 7.36777C142.132 7.3678 142.132 7.36725 142.132 7.36656C142.132 7.3659 142.133 7.36536 142.134 7.36536L151.488 7.36536C151.489 7.36536 151.489 7.36592 151.489 7.36661C151.489 7.36729 151.49 7.36784 151.49 7.36787C152.886 7.42892 153.999 8.59309 153.999 10.0203C153.999 10.0585 153.999 10.0966 153.997 10.1345C153.997 10.1351 153.998 10.1357 153.998 10.1357C153.999 10.1357 153.999 10.1359 153.999 10.1361C153.999 10.1363 153.999 10.1366 153.999 10.1369V21.2129C153.999 21.4702 153.794 21.6789 153.54 21.6789H151.721ZM142.132 11.29V13.5944C142.132 13.8517 142.338 14.0604 142.592 14.0604H150.801C151.055 14.0604 151.261 13.8517 151.261 13.5944V11.29C151.261 10.3975 150.546 9.67399 149.663 9.67399H143.73C142.848 9.67399 142.132 10.3975 142.132 11.29Z" fill="white"/>
<path d="M123.186 7.36536C123.319 7.36536 123.446 7.42516 123.532 7.52898L131.612 17.2519C131.887 17.5816 132.414 17.3828 132.414 16.9495V7.83138C132.414 7.574 132.618 7.36536 132.869 7.36536H134.671C134.923 7.36536 135.126 7.574 135.126 7.83138V21.2129C135.126 21.4702 134.923 21.6789 134.671 21.6789H132.431C132.422 21.6789 132.414 21.6711 132.414 21.6615C132.414 21.6573 132.412 21.6532 132.41 21.65L124.194 11.9949C123.918 11.6706 123.396 11.8709 123.396 12.3014V21.2129C123.396 21.4702 123.192 21.6789 122.94 21.6789H121.127C120.876 21.6789 120.672 21.4702 120.672 21.2129V7.83138C120.672 7.574 120.876 7.36536 121.127 7.36536H123.186Z" fill="white"/>
<path d="M5.96658 22.1716C6.19122 21.945 6.49579 21.8177 6.81335 21.8177H36.1141C36.6478 21.8177 36.915 22.4693 36.5374 22.8501L30.7477 28.6901C30.523 28.9167 30.2185 29.0439 29.9009 29.0439H0.600202C0.0664347 29.0439 -0.200768 28.3924 0.176813 28.0115L5.96658 22.1716Z" fill="url(#paint0_linear)"/>
<path d="M5.96658 0.35387C6.19122 0.127281 6.49579 0 6.81335 0H36.1141C36.6478 0 36.915 0.651561 36.5374 1.03242L30.7477 6.87237C30.523 7.09896 30.2185 7.22624 29.9009 7.22624H0.600202C0.0664347 7.22624 -0.200768 6.57468 0.176813 6.19383L5.96658 0.35387Z" fill="url(#paint1_linear)"/>
<path d="M30.7477 11.1932C30.523 10.9666 30.2185 10.8394 29.9009 10.8394H0.600202C0.0664346 10.8394 -0.200768 11.4909 0.176813 11.8718L5.96658 17.7117C6.19122 17.9383 6.49579 18.0656 6.81335 18.0656H36.1141C36.6478 18.0656 36.915 17.414 36.5374 17.0332L30.7477 11.1932Z" fill="url(#paint2_linear)"/>
<defs>
<linearGradient id="paint0_linear" x1="24.821" y1="-7.96691" x2="4.24031" y2="31.0834" gradientUnits="userSpaceOnUse">
<stop stop-color="#00FFA3"/>
<stop offset="1" stop-color="#DC1FFF"/>
</linearGradient>
<linearGradient id="paint1_linear" x1="24.821" y1="-7.96691" x2="4.24031" y2="31.0834" gradientUnits="userSpaceOnUse">
<stop stop-color="#00FFA3"/>
<stop offset="1" stop-color="#DC1FFF"/>
</linearGradient>
<linearGradient id="paint2_linear" x1="24.821" y1="-7.96691" x2="4.24031" y2="31.0834" gradientUnits="userSpaceOnUse">
<stop stop-color="#00FFA3"/>
<stop offset="1" stop-color="#DC1FFF"/>
</linearGradient>
</defs>
</svg>
