<svg width="23" height="18" viewBox="0 0 23 18" fill="none" xmlns="http://www.w3.org/2000/svg">
<path d="M14.5 2.50029C15.8333 3.06167 18 5.91603 16 12.8424M14.5 2.50029C14.141 2.45542 13.7301 2.43894 13.2858 2.46255M14.5 2.50029C15.04 2.60153 15.539 2.72783 16 2.8758M5.5 11.0003C5.83333 10.8336 6.9 10.6002 8.5 11.0003C10.1027 11.401 13.6319 12.4439 16 12.8424M5.5 11.0003L1.5 14.0004C1.16667 14.3337 0.800001 14.9004 2 14.5004C3.5 14.0004 6 14.0004 9 16.0004C12 18.0004 16.5 15.0005 17.5 13.0004M5.5 11.0003C6.19231 4.42331 10.4294 2.61435 13.2858 2.46255M17.5 13.0004C19.1 13.0004 20 13.5004 20 13.5004C20.5 13.6671 21.5 13.7004 21.5 12.5004C21.5 11.1016 22.3696 4.92012 16 2.8758M17.5 13.0004C17.1027 13.0004 16.587 12.9412 16 12.8424M13.2858 2.46255C13.5 1 15 1.49993 15 1.49993C15 1.49993 16 1.49979 16 2.8758" stroke="#4F4C67" stroke-width="2"/>
</svg>
