<svg width="1228" height="329" viewBox="0 0 1228 329" fill="none" xmlns="http://www.w3.org/2000/svg">
<g clip-path="url(#clip0_4884_7926)">
<path d="M797.388 256.062C906.336 523.331 873.471 810.927 708.582 1012.54C684.516 1042.12 657.454 1069.82 627.582 1095.45C1003.88 1037.74 1287.35 808.618 1287.35 808.618C1348.02 759.427 1414.9 702.186 1475.61 638.368C1440.34 558.969 1387.24 480.845 1309.38 409.795C1128.58 244.763 1140.42 55.5737 1203.57 -98.2517C1061.87 -128.932 925.67 -192.417 799.8 -262.069C737.876 -154.748 698.512 13.9427 797.388 256.062Z" fill="url(#paint0_linear_4884_7926)"/>
<path d="M1307.88 411.667C1385.74 482.718 1438.83 560.841 1474.11 640.24C1631.04 475.362 1748.5 267.457 1616.94 49.2716C1589.1 2.89342 1549.99 -38.633 1499.78 -58.6174C1450.88 -78.0364 1396.49 -75.5264 1343.99 -77.8882C1296.36 -79.8645 1248.93 -86.5286 1202.26 -96.5665C1138.92 57.446 1126.89 246.447 1307.88 411.667Z" fill="url(#paint1_linear_4884_7926)"/>
<path d="M769.831 -279.01C678.969 -320.646 591.865 -366.025 498.165 -395.853C466.87 -405.858 435.008 -414.177 402.015 -419.873C323.658 -433.541 243.786 -440.087 164.642 -436.879C93.4185 -365.583 6.83895 -304.445 -96.3711 -271.284C-67.8455 -104.7 19.4032 137.394 280.753 255.153C666.689 428.872 643.316 839.131 622.142 1096.37C624.018 1096 626.081 1095.82 627.769 1095.63C657.64 1070.01 684.703 1042.31 708.769 1012.73C873.471 810.928 906.336 523.331 797.574 256.25C698.7 13.7558 738.063 -154.935 800.362 -261.88C790.06 -267.715 779.946 -273.363 769.831 -279.01Z" fill="url(#paint2_linear_4884_7926)"/>
<path d="M-514.773 273.343C-505.483 490.894 -400.737 705.834 -243.167 860.315C-151.47 950.148 -42.2731 1012.08 75.4103 1051.33C93.025 1057.37 111.016 1062.66 129.009 1067.57C128.999 630.447 -275.719 381.866 -514.773 273.343Z" fill="url(#paint3_linear_4884_7926)"/>
<path d="M281.738 255.34C20.3881 137.582 -66.8606 -104.513 -95.3862 -271.097C-159.752 -250.418 -230.844 -241.005 -308.655 -246.984C-362.209 -195.903 -407.72 -134.866 -442.748 -65.1799C-497.359 42.7196 -518.795 158.378 -513.976 273.342C-274.735 382.053 130.17 630.447 129.992 1067.76C243.755 1098.94 363.934 1111.01 483.019 1108.45C530.84 1107.62 577.731 1103.21 623.127 1096.56C644.3 839.318 667.674 429.059 281.738 255.34Z" fill="url(#paint4_linear_4884_7926)"/>
</g>
<defs>
<linearGradient id="paint0_linear_4884_7926" x1="463.499" y1="1290.79" x2="1295.25" y2="-68.8862" gradientUnits="userSpaceOnUse">
<stop stop-color="#E54033"/>
<stop offset="0.0001" stop-color="#E54033"/>
<stop offset="0.739583" stop-color="#FBB91D"/>
<stop offset="0.8441" stop-color="#FECA1A"/>
</linearGradient>
<linearGradient id="paint1_linear_4884_7926" x1="1256.44" y1="351.917" x2="1592.18" y2="22.5828" gradientUnits="userSpaceOnUse">
<stop stop-color="#FECA1A"/>
<stop offset="1" stop-color="#AFD803"/>
</linearGradient>
<linearGradient id="paint2_linear_4884_7926" x1="568.775" y1="1197.35" x2="327.2" y2="-433.398" gradientUnits="userSpaceOnUse">
<stop offset="0.1627" stop-color="#E54033"/>
<stop offset="0.8437" stop-color="#FECA1A"/>
</linearGradient>
<linearGradient id="paint3_linear_4884_7926" x1="-466.56" y1="377.897" x2="94.6958" y2="1001.68" gradientUnits="userSpaceOnUse">
<stop stop-color="#FECA1A"/>
<stop offset="0.7596" stop-color="#E54033"/>
</linearGradient>
<linearGradient id="paint4_linear_4884_7926" x1="-282.105" y1="-131.201" x2="233.583" y2="757.519" gradientUnits="userSpaceOnUse">
<stop offset="0.1562" stop-color="#FECA1A"/>
<stop offset="1" stop-color="#E54033"/>
</linearGradient>
<clipPath id="clip0_4884_7926">
<rect width="1228" height="329" fill="white"/>
</clipPath>
</defs>
</svg>
