<svg width="1330" height="966" viewBox="0 0 1330 966" fill="none" xmlns="http://www.w3.org/2000/svg">
<mask id="mask0_5033_11189" style="mask-type:alpha" maskUnits="userSpaceOnUse" x="0" y="0" width="1330" height="966">
<rect width="1330" height="966" fill="url(#paint0_linear_5033_11189)"/>
</mask>
<g mask="url(#mask0_5033_11189)">
<g opacity="0.3">
<rect x="429.074" y="210.123" width="623.97" height="2.02588" fill="url(#paint1_radial_5033_11189)" fill-opacity="0.3"/>
<rect x="398.691" y="125.037" width="846.817" height="2.02588" fill="url(#paint2_radial_5033_11189)" fill-opacity="0.3"/>
<rect x="254.859" y="39.9521" width="972.421" height="2.02588" fill="url(#paint3_radial_5033_11189)" fill-opacity="0.3"/>
<rect x="464.527" y="-418.909" width="623.97" height="2.02588" transform="rotate(90 464.527 -418.909)" fill="url(#paint4_radial_5033_11189)" fill-opacity="0.3"/>
<rect x="549.613" y="-449.299" width="846.817" height="2.02588" transform="rotate(90 549.613 -449.299)" fill="url(#paint5_radial_5033_11189)" fill-opacity="0.3"/>
<rect x="804.879" y="-629.602" width="1126.39" height="2.02588" transform="rotate(90 804.879 -629.602)" fill="url(#paint6_radial_5033_11189)" fill-opacity="0.3"/>
<rect x="889.965" y="-568.825" width="1004.84" height="2.02588" transform="rotate(90 889.965 -568.825)" fill="url(#paint7_radial_5033_11189)" fill-opacity="0.3"/>
<rect x="634.703" y="-593.138" width="972.421" height="2.02588" transform="rotate(90 634.703 -593.138)" fill="url(#paint8_radial_5033_11189)" fill-opacity="0.3"/>
<rect x="719.789" y="-670.12" width="1126.39" height="2.02588" transform="rotate(90 719.789 -670.12)" fill="url(#paint9_radial_5033_11189)" fill-opacity="0.3"/>
<rect x="975.047" y="-453.351" width="895.438" height="2.02588" transform="rotate(90 975.047 -453.351)" fill="url(#paint10_radial_5033_11189)" fill-opacity="0.3"/>
<rect x="1060.13" y="-475.634" width="737.419" height="2.02588" transform="rotate(90 1060.13 -475.634)" fill="url(#paint11_radial_5033_11189)" fill-opacity="0.3"/>
</g>
<g opacity="0.6">
<g opacity="0.8">
<g opacity="0.5" filter="url(#filter0_f_5033_11189)">
<ellipse rx="161.853" ry="166.05" transform="matrix(0.789532 0.61371 -0.939631 0.342188 639.946 -121.992)" fill="#AFD803"/>
</g>
<g opacity="0.5" filter="url(#filter1_f_5033_11189)">
<ellipse rx="109.605" ry="112.447" transform="matrix(0.789532 0.61371 -0.939631 0.342188 1002.96 5.80327)" fill="#AFD803"/>
</g>
<g opacity="0.5" filter="url(#filter2_f_5033_11189)">
<ellipse rx="195.673" ry="201.008" transform="matrix(0.789532 0.61371 -0.939631 0.342188 338.476 37.8517)" fill="#E54033"/>
</g>
<g opacity="0.5" filter="url(#filter3_f_5033_11189)">
<ellipse rx="260.897" ry="268.427" transform="matrix(0.789532 0.61371 -0.939631 0.342188 745.534 174.818)" fill="#FECA1A" fill-opacity="0.8"/>
</g>
</g>
<g filter="url(#filter4_b_5033_11189)">
<ellipse cx="150.639" cy="143.722" rx="42" ry="42" transform="rotate(-116.485 150.639 143.722)" fill="url(#paint12_linear_5033_11189)"/>
</g>
<g filter="url(#filter5_b_5033_11189)">
<ellipse cx="333.68" cy="219.608" rx="16.4739" ry="16.4739" transform="rotate(-116.485 333.68 219.608)" fill="#5B48AD"/>
</g>
<g filter="url(#filter6_b_5033_11189)">
<ellipse cx="928.607" cy="120.545" rx="40.377" ry="40.377" transform="rotate(78.5154 928.607 120.545)" fill="url(#paint13_linear_5033_11189)"/>
</g>
<g filter="url(#filter7_b_5033_11189)">
<ellipse cx="1255.37" cy="287.393" rx="14.5711" ry="14.5711" transform="rotate(78.5154 1255.37 287.393)" fill="#FECA1A"/>
</g>
<path d="M137.199 163.83L10.9961 226.709" stroke="url(#paint14_linear_5033_11189)" stroke-opacity="0.8" stroke-width="2.2" stroke-linecap="round"/>
<path d="M328.407 227.495L278.906 252.159" stroke="url(#paint15_linear_5033_11189)" stroke-opacity="0.8" stroke-width="2.2" stroke-linecap="round"/>
<path d="M946.096 105.219L1078.93 78.2305" stroke="url(#paint16_linear_5033_11189)" stroke-opacity="0.8" stroke-width="2.2" stroke-linecap="round"/>
<path d="M1261.68 281.863L1309.62 272.124" stroke="url(#paint17_linear_5033_11189)" stroke-opacity="0.8" stroke-width="2.2" stroke-linecap="round"/>
<path d="M100.527 164.224L-25.6758 227.104" stroke="url(#paint18_linear_5033_11189)" stroke-width="2.2" stroke-linecap="round"/>
<path d="M314.025 227.651L264.523 252.314" stroke="url(#paint19_linear_5033_11189)" stroke-width="2.2" stroke-linecap="round"/>
<path d="M980.248 113.977L1113.09 86.9883" stroke="url(#paint20_linear_5033_11189)" stroke-width="2.2" stroke-linecap="round"/>
<path d="M1274.01 285.023L1321.95 275.284" stroke="url(#paint21_linear_5033_11189)" stroke-width="2.2" stroke-linecap="round"/>
</g>
<path d="M399.224 510.449C450.887 510.449 492.449 468.887 492.449 417.224C492.449 365.562 450.887 324 399.224 324C347.562 324 306 365.562 306 417.224C306 468.887 347.562 510.449 399.224 510.449Z" fill="#5949A6"/>
<path d="M491.949 417.224C491.949 468.61 450.61 509.949 399.224 509.949C347.838 509.949 306.5 468.61 306.5 417.224C306.5 365.838 347.838 324.5 399.224 324.5C450.61 324.5 491.949 365.838 491.949 417.224Z" stroke="url(#paint22_linear_5033_11189)" stroke-opacity="0.3"/>
<mask id="mask1_5033_11189" style="mask-type:alpha" maskUnits="userSpaceOnUse" x="306" y="324" width="187" height="187">
<path d="M399.224 510.449C450.887 510.449 492.449 468.887 492.449 417.224C492.449 365.562 450.887 324 399.224 324C347.562 324 306 365.562 306 417.224C306 468.887 347.562 510.449 399.224 510.449Z" fill="#2775CA"/>
</mask>
<g mask="url(#mask1_5033_11189)">
<g filter="url(#filter8_f_5033_11189)">
<path d="M453.839 343.55C351.465 331.265 328.602 427.837 329.967 477.659C311.881 452.065 287.79 390.642 336.11 349.692C384.43 308.743 434.729 328.535 453.839 343.55Z" fill="white" fill-opacity="0.4"/>
</g>
</g>
<path d="M398.219 360.866V402.533L433.436 418.27L398.219 360.866Z" fill="white" fill-opacity="0.602"/>
<path d="M398.218 360.866L362.996 418.27L398.218 402.533V360.866Z" fill="white"/>
<path d="M398.219 445.271V473.583L433.459 424.828L398.219 445.271Z" fill="white" fill-opacity="0.602"/>
<path d="M398.218 473.583V445.266L362.996 424.828L398.218 473.583Z" fill="white"/>
<path d="M398.219 438.718L433.436 418.27L398.219 402.542V438.718Z" fill="white" fill-opacity="0.2"/>
<path d="M362.996 418.27L398.218 438.718V402.542L362.996 418.27Z" fill="white" fill-opacity="0.602"/>
<path d="M305.044 157.089C337.211 157.089 363.089 131.211 363.089 99.0445C363.089 66.878 337.211 41 305.044 41C272.878 41 247 66.878 247 99.0445C247 131.211 272.878 157.089 305.044 157.089Z" fill="#FFFCFB"/>
<path d="M362.589 99.0445C362.589 130.935 336.935 156.589 305.044 156.589C273.154 156.589 247.5 130.935 247.5 99.0445C247.5 67.1541 273.154 41.5 305.044 41.5C336.935 41.5 362.589 67.1541 362.589 99.0445Z" stroke="url(#paint23_linear_5033_11189)" stroke-opacity="0.39"/>
<mask id="mask2_5033_11189" style="mask-type:alpha" maskUnits="userSpaceOnUse" x="247" y="41" width="117" height="117">
<path d="M305.044 157.089C337.211 157.089 363.089 131.211 363.089 99.0445C363.089 66.878 337.211 41 305.044 41C272.878 41 247 66.878 247 99.0445C247 131.211 272.878 157.089 305.044 157.089Z" fill="#2775CA"/>
</mask>
<g mask="url(#mask2_5033_11189)">
<g filter="url(#filter9_f_5033_11189)">
<path d="M339.047 53.1721C275.306 45.5232 261.071 105.652 261.921 136.673C250.66 120.737 235.66 82.4929 265.746 56.9966C295.831 31.5003 327.149 43.8235 339.047 53.1721Z" fill="white" fill-opacity="0.6"/>
</g>
</g>
<path d="M280.73 113.831C281.164 113.396 281.762 113.143 282.396 113.143H339.875C340.925 113.143 341.45 114.41 340.708 115.153L329.353 126.507C328.919 126.942 328.321 127.196 327.687 127.196H270.208C269.158 127.196 268.633 125.928 269.375 125.185L280.73 113.831Z" fill="url(#paint24_linear_5033_11189)"/>
<path d="M280.73 71.4362C281.182 71.0016 281.78 70.748 282.396 70.748H339.875C340.925 70.748 341.45 72.0157 340.708 72.7582L329.353 84.1128C328.919 84.5474 328.321 84.8009 327.687 84.8009H270.208C269.158 84.8009 268.633 83.5333 269.375 82.7908L280.73 71.4362Z" fill="url(#paint25_linear_5033_11189)"/>
<path d="M329.353 92.4977C328.919 92.0631 328.321 91.8096 327.687 91.8096H270.208C269.158 91.8096 268.633 93.0772 269.375 93.8197L280.73 105.174C281.164 105.609 281.762 105.862 282.396 105.862H339.875C340.925 105.862 341.45 104.595 340.708 103.852L329.353 92.4977Z" fill="url(#paint26_linear_5033_11189)"/>
<g filter="url(#filter10_ii_5033_11189)">
<path d="M1226.41 147.376C1268.78 136.024 1293.73 92.81 1282.38 50.446C1271.02 8.08192 1227.81 -16.8678 1185.45 -5.51634C1143.08 5.83507 1118.13 49.0492 1129.48 91.4132C1140.84 133.777 1184.05 158.727 1226.41 147.376Z" fill="url(#paint27_radial_5033_11189)"/>
</g>
<g filter="url(#filter11_di_5033_11189)">
<path d="M1215.22 84.673C1213.36 98.4081 1205.63 109.244 1193.94 113.703C1193.69 113.807 1190.47 114.948 1188.62 115.3C1205.67 121.903 1222.95 119.137 1222.95 119.137C1226.65 118.541 1230.81 117.752 1234.87 116.549C1235.3 112.402 1234.96 107.88 1233.42 103.057C1229.84 91.856 1234.86 84.2684 1241.18 79.3716C1236.02 74.7047 1231.46 68.5976 1227.88 62.6971C1222.71 65.6675 1216.9 72.2142 1215.22 84.673Z" fill="url(#paint28_linear_5033_11189)"/>
<path d="M1233.17 103.038C1234.72 107.86 1234.92 112.53 1234.49 116.677C1244.97 113.569 1255.22 107.593 1254.96 95.362C1254.91 92.7674 1254.27 90.1009 1252.66 88.0668C1251.09 86.0852 1248.77 84.8908 1246.63 83.5415C1244.62 82.2435 1242.72 80.7812 1240.95 79.1697C1234.64 84.0661 1229.6 91.8379 1233.17 103.038Z" fill="url(#paint29_linear_5033_11189)"/>
<path d="M1227.18 61.5324C1224.39 57.6247 1221.84 53.6475 1218.66 50.1666C1217.59 48.9903 1216.45 47.8879 1215.23 46.867C1212.3 44.4269 1209.25 42.1022 1205.87 40.3352C1201.2 41.6013 1196.1 42.1254 1191.02 41.031C1188.22 48.6567 1185.96 60.9238 1194.03 72.0744C1205.93 88.5422 1195.1 104.88 1188.07 115.082L1188.62 115.3C1190.37 114.976 1192.08 114.492 1193.73 113.853C1205.42 109.393 1213.67 98.2059 1215.53 84.472C1217.21 72.0129 1222.88 65.9311 1228.04 62.9615C1227.74 62.4868 1227.45 62.0104 1227.18 61.5324Z" fill="url(#paint30_linear_5033_11189)"/>
<path d="M1161.07 53.0667C1156.15 62.5593 1155.35 74.2686 1158.28 84.702C1159.99 90.7731 1163.13 96.0736 1167.17 100.633C1167.77 101.317 1168.4 101.984 1169.05 102.634C1179.75 84.0187 1168.59 63.5427 1161.07 53.0667Z" fill="url(#paint31_linear_5033_11189)"/>
<path d="M1194.27 72.0085C1186.21 60.853 1188.37 48.6883 1191.17 41.0654C1187.78 40.3303 1184.56 38.9394 1181.71 36.9712C1178.17 37.8465 1174.81 39.3209 1171.77 41.3305C1166.92 44.5199 1163.25 48.8213 1160.71 53.7268C1168.07 63.973 1178.98 84.0024 1168.52 102.208C1172.51 106.228 1177.23 109.601 1182.24 112.344C1184.22 113.424 1186.27 114.377 1188.37 115.198C1195.4 105 1206.18 88.4762 1194.27 72.0085Z" fill="url(#paint32_linear_5033_11189)"/>
</g>
<g filter="url(#filter12_di_5033_11189)">
<path d="M1200.43 24.3831C1211.39 25.638 1218.62 24.8372 1223.61 23.3374L1223.73 23.205C1196.41 -3.75497 1178.64 27.9956 1178.64 27.9956L1178.69 28.0488C1183.73 25.6944 1191.34 23.3434 1200.43 24.3831Z" fill="url(#paint33_linear_5033_11189)"/>
<path d="M1200.5 24.1283C1191.41 23.0921 1183.71 25.2865 1178.69 28.0496C1199.41 48.9906 1221.79 25.3342 1223.61 23.3383C1218.61 24.839 1211.46 25.3832 1200.5 24.1283Z" fill="url(#paint34_linear_5033_11189)"/>
</g>
<mask id="mask3_5033_11189" style="mask-type:alpha" maskUnits="userSpaceOnUse" x="1126" y="-9" width="160" height="160">
<path d="M1226.41 147.376C1268.78 136.024 1293.73 92.81 1282.38 50.446C1271.02 8.08193 1227.81 -16.8678 1185.45 -5.51634C1143.08 5.83507 1118.13 49.0492 1129.48 91.4132C1140.84 133.777 1184.05 158.727 1226.41 147.376Z" fill="#2775CA"/>
</mask>
<g mask="url(#mask3_5033_11189)">
<g filter="url(#filter13_f_5033_11189)">
<path d="M1234.52 -1.48467C1147.88 10.9354 1150.35 95.1501 1162.41 135.705C1141.96 118.692 1108.71 73.6164 1139.33 29.42C1169.96 -14.7763 1215.55 -9.59824 1234.52 -1.48467Z" fill="white"/>
</g>
</g>
</g>
<g filter="url(#filter14_bd_5033_11189)">
<rect x="493.504" y="222.322" width="529.563" height="415.698" rx="71" transform="rotate(9.90457 493.504 222.322)" fill="url(#paint35_linear_5033_11189)"/>
<rect x="494.317" y="223.479" width="527.563" height="413.698" rx="70" transform="rotate(9.90457 494.317 223.479)" stroke="url(#paint36_linear_5033_11189)" stroke-width="2"/>
</g>
<g filter="url(#filter15_d_5033_11189)">
<mask id="path-58-inside-1_5033_11189" fill="white">
<path fill-rule="evenodd" clip-rule="evenodd" d="M523.307 521.92C523.307 521.919 523.306 521.918 523.305 521.918V521.918C523.304 521.918 523.303 521.917 523.302 521.916L523.294 521.893C523.288 521.877 523.279 521.869 523.293 521.86C523.788 521.506 545.232 506.392 555.069 532.688C555.075 532.702 555.068 532.719 555.054 532.725L554.96 532.765C554.96 532.765 554.96 532.765 554.96 532.765V532.765C554.96 532.765 554.96 532.765 554.96 532.765C553.116 533.541 530.699 542.453 523.307 521.92ZM527.538 534.488C527.539 534.488 527.539 534.488 527.539 534.488V534.488C527.539 534.488 527.54 534.488 527.54 534.488C529.637 536.072 531.975 537.151 534.372 537.87C536.498 538.507 538.523 539.606 539.658 541.513C540.513 542.949 541.268 544.448 541.983 545.961C542.483 547.026 542.909 548.125 543.26 549.249C544.074 551.825 544.54 554.482 545.011 557.171L545.011 557.171C545.149 557.959 545.288 558.751 545.436 559.543C545.468 559.875 545.503 560.208 545.542 560.541C545.542 560.546 545.546 560.549 545.551 560.548V560.548C545.555 560.548 545.559 560.551 545.559 560.556C546.125 565.635 547.281 571.156 549.294 575.9C549.294 575.902 549.293 575.903 549.292 575.904V575.904C549.29 575.904 549.289 575.906 549.29 575.907C549.957 577.467 550.747 578.971 551.652 580.405C551.831 580.681 552.015 580.956 552.199 581.232L552.2 581.233L552.2 581.233L552.201 581.235L552.201 581.236C553.065 582.527 553.934 583.828 554.294 585.328C554.741 587.197 554.335 589.187 553.562 590.947C549.917 599.244 541.173 600.065 533.158 598.883C533.155 598.883 533.154 598.88 533.155 598.878V598.878C533.157 598.875 533.155 598.872 533.153 598.872C530.154 598.409 527.226 597.669 524.642 596.939C524.64 596.939 524.641 596.939 524.639 596.939C524.578 596.921 512.145 593.382 502.772 583.656C502.769 583.653 502.765 583.651 502.761 583.649V583.649C502.757 583.648 502.753 583.646 502.75 583.643L502.453 583.329C502.452 583.329 502.452 583.328 502.453 583.328V583.328C502.453 583.328 502.453 583.327 502.453 583.327C501.361 582.171 500.339 580.951 499.394 579.672C496.883 576.271 494.772 572.543 493.344 568.606C493.338 568.59 493.344 568.573 493.357 568.563V568.563C493.37 568.554 493.376 568.537 493.371 568.522C493.207 568.05 493.054 567.575 492.911 567.097C491.618 562.773 491.163 558.232 491.912 553.62C493.167 545.883 497.189 538.436 503.21 533.58C503.213 533.577 503.215 533.573 503.214 533.57V533.57C503.213 533.566 503.215 533.562 503.218 533.559C503.359 533.451 503.5 533.343 503.643 533.238L503.653 533.23C503.653 533.23 503.653 533.23 503.653 533.23V533.23C503.653 533.23 503.653 533.23 503.653 533.23C506.795 530.905 510.45 529.285 514.514 528.684C516.334 528.41 518.177 528.349 520.005 528.502C521.635 528.638 522.991 529.69 523.998 530.979C525.023 532.291 526.212 533.471 527.538 534.488Z"/>
</mask>
<path fill-rule="evenodd" clip-rule="evenodd" d="M523.307 521.92C523.307 521.919 523.306 521.918 523.305 521.918V521.918C523.304 521.918 523.303 521.917 523.302 521.916L523.294 521.893C523.288 521.877 523.279 521.869 523.293 521.86C523.788 521.506 545.232 506.392 555.069 532.688C555.075 532.702 555.068 532.719 555.054 532.725L554.96 532.765C554.96 532.765 554.96 532.765 554.96 532.765V532.765C554.96 532.765 554.96 532.765 554.96 532.765C553.116 533.541 530.699 542.453 523.307 521.92ZM527.538 534.488C527.539 534.488 527.539 534.488 527.539 534.488V534.488C527.539 534.488 527.54 534.488 527.54 534.488C529.637 536.072 531.975 537.151 534.372 537.87C536.498 538.507 538.523 539.606 539.658 541.513C540.513 542.949 541.268 544.448 541.983 545.961C542.483 547.026 542.909 548.125 543.26 549.249C544.074 551.825 544.54 554.482 545.011 557.171L545.011 557.171C545.149 557.959 545.288 558.751 545.436 559.543C545.468 559.875 545.503 560.208 545.542 560.541C545.542 560.546 545.546 560.549 545.551 560.548V560.548C545.555 560.548 545.559 560.551 545.559 560.556C546.125 565.635 547.281 571.156 549.294 575.9C549.294 575.902 549.293 575.903 549.292 575.904V575.904C549.29 575.904 549.289 575.906 549.29 575.907C549.957 577.467 550.747 578.971 551.652 580.405C551.831 580.681 552.015 580.956 552.199 581.232L552.2 581.233L552.2 581.233L552.201 581.235L552.201 581.236C553.065 582.527 553.934 583.828 554.294 585.328C554.741 587.197 554.335 589.187 553.562 590.947C549.917 599.244 541.173 600.065 533.158 598.883C533.155 598.883 533.154 598.88 533.155 598.878V598.878C533.157 598.875 533.155 598.872 533.153 598.872C530.154 598.409 527.226 597.669 524.642 596.939C524.64 596.939 524.641 596.939 524.639 596.939C524.578 596.921 512.145 593.382 502.772 583.656C502.769 583.653 502.765 583.651 502.761 583.649V583.649C502.757 583.648 502.753 583.646 502.75 583.643L502.453 583.329C502.452 583.329 502.452 583.328 502.453 583.328V583.328C502.453 583.328 502.453 583.327 502.453 583.327C501.361 582.171 500.339 580.951 499.394 579.672C496.883 576.271 494.772 572.543 493.344 568.606C493.338 568.59 493.344 568.573 493.357 568.563V568.563C493.37 568.554 493.376 568.537 493.371 568.522C493.207 568.05 493.054 567.575 492.911 567.097C491.618 562.773 491.163 558.232 491.912 553.62C493.167 545.883 497.189 538.436 503.21 533.58C503.213 533.577 503.215 533.573 503.214 533.57V533.57C503.213 533.566 503.215 533.562 503.218 533.559C503.359 533.451 503.5 533.343 503.643 533.238L503.653 533.23C503.653 533.23 503.653 533.23 503.653 533.23V533.23C503.653 533.23 503.653 533.23 503.653 533.23C506.795 530.905 510.45 529.285 514.514 528.684C516.334 528.41 518.177 528.349 520.005 528.502C521.635 528.638 522.991 529.69 523.998 530.979C525.023 532.291 526.212 533.471 527.538 534.488Z" fill="url(#paint37_linear_5033_11189)" fill-opacity="0.1" shape-rendering="crispEdges"/>
<path d="M541.983 545.961L542.889 545.536L542.887 545.533L541.983 545.961ZM543.26 549.249L542.305 549.546L542.306 549.55L543.26 549.249ZM545.011 557.171L544.026 557.343L544.029 557.36L544.033 557.377L545.011 557.171ZM545.011 557.171L545.996 556.998L545.993 556.981L545.99 556.965L545.011 557.171ZM545.436 559.543L546.432 559.449L546.428 559.404L546.419 559.36L545.436 559.543ZM551.652 580.405L550.807 580.939L550.812 580.948L551.652 580.405ZM552.199 581.232L551.367 581.787L551.368 581.789L552.199 581.232ZM552.2 581.233L551.369 581.791L551.375 581.799L551.381 581.808L552.2 581.233ZM552.2 581.233L553.032 580.68L553.025 580.669L553.018 580.659L552.2 581.233ZM552.201 581.235L551.368 581.789L551.372 581.794L552.201 581.235ZM552.201 581.236L553.033 580.68L553.03 580.676L552.201 581.236ZM554.294 585.328L555.266 585.095L555.266 585.095L554.294 585.328ZM553.562 590.947L554.477 591.35L554.477 591.349L553.562 590.947ZM499.394 579.672L498.589 580.266L498.589 580.266L499.394 579.672ZM492.911 567.097L493.869 566.811L493.869 566.811L492.911 567.097ZM491.912 553.62L492.899 553.781L492.899 553.78L491.912 553.62ZM503.643 533.238L504.239 534.041L504.247 534.035L504.255 534.029L503.643 533.238ZM514.514 528.684L514.66 529.673L514.663 529.673L514.514 528.684ZM520.005 528.502L520.088 527.506L520.005 528.502ZM523.998 530.979L523.21 531.595L523.998 530.979ZM503.653 533.23L504.248 534.034L503.653 533.23ZM503.653 533.23L504.265 534.021L503.653 533.23ZM503.218 533.559L502.607 532.768L503.218 533.559ZM493.371 568.522L492.426 568.849L493.371 568.522ZM493.344 568.606L492.404 568.947L493.344 568.606ZM502.453 583.327L501.726 584.014L502.453 583.327ZM549.29 575.907L548.371 576.301L549.29 575.907ZM549.294 575.9L550.214 575.509L549.294 575.9ZM502.453 583.329L503.178 582.641L502.453 583.329ZM534.372 537.87L534.085 538.827L534.372 537.87ZM539.658 541.513L540.517 541.001L539.658 541.513ZM502.75 583.643L503.476 582.955L503.476 582.955L502.75 583.643ZM527.538 534.488L528.147 533.694L527.538 534.488ZM502.772 583.656L503.492 582.962L502.772 583.656ZM527.539 534.488L526.833 533.779L527.539 534.488ZM527.54 534.488L528.143 533.69L528.143 533.69L527.54 534.488ZM524.642 596.939L524.371 597.902L524.642 596.939ZM524.639 596.939L524.366 597.901L524.639 596.939ZM554.96 532.765L554.572 531.843L554.96 532.765ZM503.21 533.58L502.583 532.801L503.21 533.58ZM545.559 560.556L546.553 560.445L545.559 560.556ZM533.153 598.872L533 599.86L533.153 598.872ZM554.96 532.765L555.349 533.686L554.96 532.765ZM545.542 560.541L544.548 560.657L545.542 560.541ZM533.158 598.883L533.012 599.873L533.158 598.883ZM555.069 532.688L556.006 532.337L555.069 532.688ZM555.054 532.725L555.443 533.646L555.443 533.646L555.054 532.725ZM523.294 521.893L524.235 521.555L523.294 521.893ZM523.293 521.86L523.874 522.673L523.293 521.86ZM523.302 521.916L524.244 521.579L523.302 521.916ZM523.305 521.918L523.307 522.918L523.305 521.918ZM523.307 521.92L522.366 522.258L523.307 521.92ZM524.244 521.579L524.235 521.555L522.353 522.23L522.361 522.254L524.244 521.579ZM523.874 522.673C524.094 522.516 529.391 518.79 535.758 518.277C538.909 518.023 542.291 518.559 545.468 520.684C548.651 522.813 551.726 526.603 554.133 533.038L556.006 532.337C553.495 525.624 550.2 521.443 546.58 519.021C542.954 516.596 539.099 516.001 535.598 516.283C528.66 516.842 522.987 520.849 522.712 521.046L523.874 522.673ZM554.665 531.804L554.571 531.843L555.349 533.686L555.443 533.646L554.665 531.804ZM522.366 522.258C524.281 527.576 527.198 531.056 530.571 533.227C533.932 535.39 537.674 536.207 541.178 536.333C548.158 536.582 554.387 534.091 555.348 533.687L554.572 531.843C553.69 532.215 547.787 534.568 541.25 534.334C537.996 534.218 534.632 533.462 531.653 531.545C528.687 529.636 526.029 526.529 524.248 521.581L522.366 522.258ZM534.659 536.912C532.354 536.221 530.128 535.189 528.143 533.69L526.937 535.286C529.146 536.954 531.596 538.082 534.085 538.827L534.659 536.912ZM542.887 545.533C542.166 544.007 541.395 542.477 540.517 541.001L538.799 542.024C539.631 543.422 540.37 544.889 541.079 546.388L542.887 545.533ZM544.214 548.951C543.85 547.784 543.407 546.643 542.889 545.536L541.078 546.385C541.558 547.41 541.968 548.466 542.305 549.546L544.214 548.951ZM545.996 556.998C545.527 554.321 545.051 551.598 544.213 548.947L542.306 549.55C543.097 552.053 543.553 554.644 544.026 557.343L545.996 556.998ZM545.99 556.965L545.99 556.965L544.033 557.377L544.033 557.377L545.99 556.965ZM546.419 559.36C546.272 558.573 546.135 557.788 545.996 556.998L544.026 557.343C544.164 558.131 544.304 558.928 544.453 559.727L546.419 559.36ZM546.535 560.425C546.497 560.099 546.462 559.774 546.432 559.449L544.441 559.637C544.473 559.976 544.509 560.316 544.548 560.657L546.535 560.425ZM550.214 575.509C548.252 570.884 547.113 565.465 546.553 560.445L544.566 560.666C545.138 565.804 546.311 571.428 548.373 576.29L550.214 575.509ZM552.498 579.872C551.621 578.482 550.856 577.025 550.209 575.514L548.371 576.301C549.059 577.909 549.873 579.459 550.807 580.939L552.498 579.872ZM553.03 580.676C552.845 580.4 552.666 580.131 552.493 579.863L550.812 580.948C550.996 581.232 551.184 581.513 551.367 581.787L553.03 580.676ZM553.03 580.676L553.029 580.674L551.368 581.789L551.369 581.791L553.03 580.676ZM553.018 580.659L553.018 580.658L551.381 581.808L551.382 581.808L553.018 580.659ZM553.033 580.681L553.032 580.68L551.367 581.787L551.368 581.789L553.033 580.681ZM553.03 580.676L553.03 580.676L551.372 581.794L551.372 581.795L553.03 580.676ZM555.266 585.095C554.858 583.391 553.877 581.943 553.033 580.68L551.37 581.791C552.252 583.111 553.01 584.265 553.321 585.561L555.266 585.095ZM554.477 591.349C555.302 589.472 555.782 587.251 555.266 585.095L553.321 585.561C553.7 587.144 553.368 588.901 552.646 590.545L554.477 591.349ZM533.012 599.873C537.085 600.473 541.442 600.583 545.287 599.427C549.174 598.259 552.523 595.799 554.477 591.35L552.646 590.545C550.956 594.392 548.111 596.491 544.711 597.512C541.269 598.546 537.246 598.475 533.304 597.894L533.012 599.873ZM524.371 597.902C526.971 598.636 529.944 599.389 533 599.86L533.305 597.884C530.365 597.43 527.481 596.701 524.914 595.977L524.371 597.902ZM502.052 584.35C511.615 594.274 524.264 597.872 524.366 597.901L524.912 595.977C524.92 595.979 521.857 595.109 517.638 593.04C513.415 590.969 508.072 587.715 503.492 582.962L502.052 584.35ZM501.727 584.017L502.024 584.331L503.476 582.955L503.178 582.641L501.727 584.017ZM498.589 580.266C499.559 581.578 500.606 582.829 501.726 584.014L503.18 582.64C502.115 581.514 501.119 580.324 500.198 579.078L498.589 580.266ZM492.404 568.947C493.87 572.989 496.032 576.801 498.589 580.266L500.198 579.078C497.735 575.74 495.673 572.096 494.284 568.265L492.404 568.947ZM491.953 567.384C492.1 567.875 492.257 568.364 492.426 568.849L494.315 568.194C494.156 567.736 494.008 567.275 493.869 566.811L491.953 567.384ZM490.925 553.46C490.148 558.241 490.623 562.936 491.953 567.384L493.869 566.811C492.613 562.61 492.178 558.222 492.899 553.781L490.925 553.46ZM502.583 532.801C496.35 537.828 492.215 545.505 490.925 553.46L492.899 553.78C494.118 546.26 498.028 539.044 503.838 534.358L502.583 532.801ZM503.048 532.434C502.9 532.544 502.753 532.655 502.607 532.768L503.829 534.351C503.965 534.246 504.101 534.143 504.239 534.041L503.048 532.434ZM503.041 532.439L503.032 532.447L504.255 534.029L504.265 534.021L503.041 532.439ZM514.368 527.695C510.128 528.322 506.321 530.012 503.058 532.426L504.248 534.034C507.269 531.799 510.772 530.249 514.66 529.673L514.368 527.695ZM520.088 527.506C518.182 527.346 516.262 527.409 514.365 527.695L514.663 529.673C516.406 529.41 518.171 529.352 519.922 529.499L520.088 527.506ZM528.147 533.694C526.888 532.729 525.759 531.609 524.786 530.364L523.21 531.595C524.287 532.974 525.536 534.213 526.93 535.281L528.147 533.694ZM519.922 529.499C521.159 529.602 522.288 530.415 523.21 531.595L524.786 530.364C523.694 528.966 522.11 527.674 520.088 527.506L519.922 529.499ZM502.671 533.417C502.809 534.146 503.659 534.47 504.248 534.034L503.058 532.426C503.647 531.991 504.497 532.315 504.636 533.044L502.671 533.417ZM504.265 534.021C503.674 534.478 502.81 534.15 502.671 533.417L504.636 533.044C504.497 532.31 503.632 531.982 503.041 532.439L504.265 534.021ZM504.196 533.383C504.266 533.749 504.124 534.123 503.829 534.351L502.607 532.768C502.305 533.001 502.161 533.383 502.232 533.757L504.196 533.383ZM493.935 569.38C494.312 569.113 494.466 568.63 494.315 568.194L492.426 568.849C492.285 568.444 492.429 567.995 492.78 567.747L493.935 569.38ZM494.284 568.265C494.432 568.673 494.288 569.13 493.935 569.38L492.78 567.747C492.399 568.016 492.244 568.507 492.404 568.947L494.284 568.265ZM502.961 584.19C503.514 583.863 503.621 583.107 503.18 582.64L501.726 584.014C501.286 583.548 501.392 582.793 501.945 582.467L502.961 584.19ZM549.069 574.929C548.459 575.068 548.124 575.726 548.371 576.301L550.209 575.514C550.454 576.086 550.121 576.74 549.514 576.879L549.069 574.929ZM548.373 576.29C548.129 575.715 548.467 575.066 549.069 574.929L549.514 576.879C550.119 576.74 550.459 576.088 550.214 575.509L548.373 576.29ZM503.178 582.641C503.62 583.107 503.514 583.863 502.961 584.19L501.945 582.467C501.391 582.794 501.284 583.551 501.727 584.017L503.178 582.641ZM534.085 538.827C536.103 539.432 537.848 540.428 538.799 542.024L540.517 541.001C539.198 538.784 536.892 537.581 534.659 536.912L534.085 538.827ZM503.01 582.681C503.188 582.727 503.349 582.822 503.476 582.955L502.024 584.331C502.157 584.471 502.326 584.57 502.512 584.618L503.01 582.681ZM526.833 533.779C527.188 533.426 527.75 533.39 528.147 533.694L526.93 535.281C527.328 535.586 527.89 535.55 528.245 535.196L526.833 533.779ZM503.492 582.962C503.362 582.827 503.195 582.729 503.01 582.681L502.512 584.618C502.335 584.573 502.177 584.479 502.052 584.35L503.492 582.962ZM528.245 535.196C527.891 535.549 527.333 535.584 526.937 535.286L528.143 533.69C527.747 533.391 527.188 533.426 526.833 533.779L528.245 535.196ZM524.914 595.977C524.912 595.977 524.911 595.976 524.911 595.976C524.912 595.977 524.913 595.977 524.912 595.977L524.366 597.901C524.367 597.901 524.368 597.901 524.37 597.902C524.371 597.902 524.37 597.902 524.371 597.902L524.914 595.977ZM554.817 533.755C554.584 533.721 554.351 533.602 554.182 533.393C554.102 533.294 553.915 533.02 553.97 532.628C554.034 532.162 554.373 531.927 554.572 531.843L555.348 533.687C555.548 533.603 555.886 533.368 555.951 532.902C556.005 532.51 555.819 532.236 555.739 532.137C555.57 531.928 555.336 531.809 555.103 531.775L554.817 533.755ZM503.838 534.358C504.129 534.124 504.266 533.749 504.196 533.383L502.232 533.757C502.163 533.398 502.298 533.031 502.583 532.801L503.838 534.358ZM545.638 561.544C545.105 561.591 544.626 561.205 544.566 560.666L546.553 560.445C546.492 559.897 546.005 559.504 545.463 559.552L545.638 561.544ZM534.014 599.39C534.379 598.778 534.008 597.992 533.305 597.884L533 599.86C532.302 599.753 531.934 598.973 532.297 598.365L534.014 599.39ZM554.571 531.843C553.638 532.237 553.814 533.61 554.817 533.755L555.103 531.775C556.106 531.92 556.282 533.292 555.349 533.686L554.571 531.843ZM544.548 560.657C544.612 561.199 545.095 561.592 545.638 561.544L545.463 559.552C545.998 559.505 546.473 559.892 546.535 560.425L544.548 560.657ZM533.304 597.894C534.009 597.998 534.376 598.784 534.014 599.39L532.297 598.365C531.932 598.976 532.301 599.768 533.012 599.873L533.304 597.894ZM554.133 533.038C553.967 532.595 554.143 532.024 554.665 531.804L555.443 533.646C555.993 533.414 556.183 532.81 556.006 532.337L554.133 533.038ZM524.235 521.555C524.216 521.501 524.194 521.455 524.197 521.462C524.197 521.462 524.199 521.466 524.201 521.472C524.204 521.478 524.209 521.488 524.214 521.501C524.223 521.525 524.242 521.573 524.258 521.637C524.292 521.779 524.314 522.011 524.204 522.264C524.105 522.492 523.95 522.619 523.874 522.673L522.712 521.046C522.629 521.105 522.469 521.237 522.369 521.469C522.257 521.727 522.279 521.964 522.315 522.111C522.331 522.177 522.35 522.228 522.361 522.254C522.372 522.28 522.381 522.301 522.382 522.302C522.388 522.315 522.369 522.276 522.353 522.23L524.235 521.555ZM523.302 520.918C523.724 520.917 524.101 521.182 524.244 521.579L522.361 522.254C522.504 522.653 522.883 522.919 523.307 522.918L523.302 520.918ZM523.307 522.918C522.86 522.919 522.5 522.63 522.366 522.258L524.248 521.581C524.113 521.207 523.752 520.917 523.302 520.918L523.307 522.918Z" fill="url(#paint38_linear_5033_11189)" fill-opacity="0.5" mask="url(#path-58-inside-1_5033_11189)"/>
</g>
<g filter="url(#filter16_d_5033_11189)">
<path d="M492.721 302.386C498.822 266.309 533.106 242.081 569.149 248.375L935.859 312.406C971.631 318.652 995.637 352.623 989.582 388.428L946.318 644.25C940.217 680.326 905.932 704.554 869.889 698.26L503.18 634.229C467.408 627.983 443.401 594.012 449.457 558.207L492.721 302.386Z" stroke="url(#paint39_linear_5033_11189)" stroke-opacity="0.3" stroke-width="3" stroke-linecap="round" stroke-dasharray="11 11" shape-rendering="crispEdges"/>
</g>
<g opacity="0.4">
<mask id="path-61-inside-2_5033_11189" fill="white">
<path fill-rule="evenodd" clip-rule="evenodd" d="M568.252 277.574C551.536 274.655 535.618 285.84 532.699 302.556C529.781 319.272 540.966 335.19 557.682 338.109L660.945 356.14C660.945 356.14 660.946 356.14 660.945 356.14V356.14C658.027 372.856 669.212 388.774 685.928 391.692L774.95 407.237C791.666 410.155 807.584 398.97 810.503 382.254V382.254C810.503 382.254 810.503 382.254 810.503 382.254L913.771 400.285C930.487 403.204 946.404 392.019 949.323 375.303C952.242 358.587 941.057 342.669 924.341 339.75L568.252 277.574Z"/>
</mask>
<g filter="url(#filter17_i_5033_11189)">
<path fill-rule="evenodd" clip-rule="evenodd" d="M568.252 277.574C551.536 274.655 535.618 285.84 532.699 302.556C529.781 319.272 540.966 335.19 557.682 338.109L660.945 356.14C660.945 356.14 660.946 356.14 660.945 356.14V356.14C658.027 372.856 669.212 388.774 685.928 391.692L774.95 407.237C791.666 410.155 807.584 398.97 810.503 382.254V382.254C810.503 382.254 810.503 382.254 810.503 382.254L913.771 400.285C930.487 403.204 946.404 392.019 949.323 375.303C952.242 358.587 941.057 342.669 924.341 339.75L568.252 277.574Z" fill="url(#paint40_linear_5033_11189)"/>
</g>
<path d="M568.252 277.574L568.596 275.603L568.252 277.574ZM557.682 338.109L557.338 340.079L557.682 338.109ZM913.771 400.285L914.115 398.315L913.771 400.285ZM924.341 339.75L923.997 341.72L924.341 339.75ZM810.503 382.254L810.159 384.224L810.503 382.254ZM660.945 356.14L661.289 354.169L660.945 356.14ZM534.67 302.9C537.398 287.272 552.28 276.815 567.908 279.544L568.596 275.603C550.792 272.495 533.838 284.408 530.729 302.212L534.67 302.9ZM558.026 336.138C542.398 333.41 531.941 318.528 534.67 302.9L530.729 302.212C527.62 320.016 539.533 336.97 557.338 340.079L558.026 336.138ZM661.289 354.169L558.026 336.138L557.338 340.079L660.601 358.11L661.289 354.169ZM686.272 389.722C670.644 386.993 660.187 372.112 662.916 356.484L658.975 355.796C655.866 373.6 667.78 390.554 685.584 393.663L686.272 389.722ZM775.294 405.266L686.272 389.722L685.584 393.663L774.606 409.207L775.294 405.266ZM808.533 381.91C805.804 397.538 790.922 407.995 775.294 405.266L774.606 409.207C792.411 412.316 809.364 400.402 812.473 382.598L808.533 381.91ZM914.115 398.315L810.847 380.284L810.159 384.224L913.427 402.256L914.115 398.315ZM947.353 374.959C944.624 390.587 929.743 401.044 914.115 398.315L913.427 402.256C931.231 405.364 948.184 393.451 951.293 375.647L947.353 374.959ZM923.997 341.72C939.625 344.449 950.082 359.331 947.353 374.959L951.293 375.647C954.402 357.842 942.489 340.889 924.685 337.78L923.997 341.72ZM567.908 279.544L923.997 341.72L924.685 337.78L568.596 275.603L567.908 279.544ZM812.473 382.598C812.286 383.667 811.266 384.417 810.159 384.224L810.847 380.284C809.74 380.09 808.719 380.841 808.533 381.91L812.473 382.598ZM660.601 358.11C659.513 357.92 658.785 356.884 658.975 355.796L662.916 356.484C663.106 355.396 662.378 354.359 661.289 354.169L660.601 358.11Z" fill="url(#paint41_linear_5033_11189)" mask="url(#path-61-inside-2_5033_11189)"/>
</g>
<mask id="mask4_5033_11189" style="mask-type:alpha" maskUnits="userSpaceOnUse" x="529" y="27" width="460" height="378">
<path fill-rule="evenodd" clip-rule="evenodd" d="M651.605 28.5669C613.521 21.9171 577.258 47.3993 570.608 85.4831L530.022 317.918C528.408 327.166 534.596 335.973 543.845 337.588L631.081 352.821C647.402 355.67 658.113 375.04 672.19 383.778C674.856 385.433 677.877 386.616 681.158 387.189L780.983 404.619C784.264 405.192 787.507 405.104 790.576 404.45C806.781 400.999 823.422 386.405 839.744 389.255L926.975 404.487C936.224 406.102 945.031 399.913 946.646 390.664L987.232 158.23C993.881 120.146 968.399 83.8824 930.315 77.2326L651.605 28.5669Z" fill="url(#paint42_linear_5033_11189)"/>
</mask>
<g mask="url(#mask4_5033_11189)">
<path d="M765.13 481.238C864.394 472.387 937.132 385.408 928.281 286.143C919.43 186.878 832.451 114.14 733.186 122.991C633.921 131.843 561.183 218.822 570.034 318.087C578.886 417.351 665.865 490.089 765.13 481.238Z" fill="#2775CA"/>
<path d="M927.783 286.187C936.61 385.177 864.075 471.913 765.085 480.74C666.096 489.567 579.359 417.032 570.532 318.042C561.706 219.053 634.241 132.316 733.23 123.489C832.22 114.663 918.956 187.198 927.783 286.187Z" stroke="url(#paint43_linear_5033_11189)" stroke-opacity="0.3"/>
<mask id="mask5_5033_11189" style="mask-type:alpha" maskUnits="userSpaceOnUse" x="569" y="122" width="361" height="360">
<path d="M765.13 481.238C864.394 472.387 937.132 385.408 928.281 286.143C919.43 186.878 832.451 114.14 733.186 122.991C633.921 131.843 561.183 218.822 570.034 318.087C578.886 417.351 665.865 490.089 765.13 481.238Z" fill="#2775CA"/>
</mask>
<g mask="url(#mask5_5033_11189)">
<g filter="url(#filter18_f_5033_11189)">
<path d="M841.471 151.198C642.664 145.134 615.279 334.606 626.438 430.101C587.303 384.024 530.489 270.13 616.317 183.171C702.144 96.2114 802.181 125.623 841.471 151.198Z" fill="white" fill-opacity="0.4"/>
</g>
</g>
<path d="M800.946 326.081C798.617 299.96 782.145 292.401 750.466 291.465C727.809 290.476 722.799 284.905 721.867 274.455C720.935 264.005 727.801 256.624 742.727 255.293C756.161 254.095 764.025 257.908 768.754 268.77C769.701 270.942 772.073 272.235 774.312 272.035L786.252 270.971C789.238 270.704 791.277 268.266 791.011 265.281L790.945 264.535C786.495 248.381 771.929 236.891 754.631 236.93L753.033 219.017C752.767 216.031 750.328 213.992 746.531 213.578L735.335 214.576C732.35 214.842 730.31 217.281 729.896 221.08L731.427 238.246C709.302 243.228 696.454 259.419 698.118 278.078C700.314 302.708 716.105 311.078 747.785 312.016C769.016 313.884 776.132 317.763 777.197 329.705C778.262 341.647 768.544 350.788 754.364 352.052C734.958 353.783 727.509 346.171 724.272 335.175C723.26 332.257 720.888 330.963 718.649 331.163L705.96 332.294C702.976 332.56 700.936 334.999 701.203 337.985L701.269 338.732C705.917 357.123 719.057 369.493 744.019 371.03L745.617 388.942C745.883 391.926 748.321 393.965 752.119 394.38L763.314 393.381C766.3 393.115 768.34 390.677 768.754 386.879L767.157 368.966C789.214 363.237 802.743 346.233 800.946 326.081V326.081Z" fill="white"/>
<path d="M720.618 412.236C660.539 396.53 624.895 334.26 641.416 274.86C649.816 242.516 672.316 216.437 701.917 202.513C704.77 200.755 706.063 198.383 705.73 194.65L704.798 184.202C704.532 181.216 702.84 179.11 699.788 178.631C699.041 178.697 697.549 178.83 696.868 179.642C627.962 208.355 595.873 287.198 624.586 356.103C641.747 396.7 676.702 425.932 719.695 435.64C722.814 436.866 725.667 435.107 726.146 432.055C726.826 431.243 726.76 430.496 726.627 429.004L725.695 418.554C725.495 416.315 722.99 413.53 720.618 412.236ZM778.968 172.321C775.849 171.096 772.996 172.854 772.517 175.906C771.836 176.72 771.903 177.465 772.036 178.959L772.968 189.407C773.234 192.393 775.739 195.178 778.111 196.472C838.19 212.178 873.834 274.448 857.313 333.848C848.913 366.193 826.413 392.271 796.812 406.195C793.959 407.953 792.666 410.325 792.999 414.058L793.931 424.507C794.197 427.493 795.889 429.599 798.941 430.078C799.688 430.011 801.18 429.878 801.861 429.066C870.767 400.354 902.856 321.511 874.143 252.605C856.916 211.261 821.213 182.096 778.968 172.321V172.321Z" fill="white"/>
<g opacity="0.61" filter="url(#filter19_f_5033_11189)">
<path d="M683.5 379.342L630.934 349.855L573.521 336.829L549.642 321.109L547.338 350.062L677.098 400.241L778.584 417.961L921.542 413.567L930.996 357.273L864.388 363.213L782.314 396.596L683.5 379.342Z" fill="#1E1927"/>
</g>
</g>
<defs>
<filter id="filter0_f_5033_11189" x="-125.738" y="-800.445" width="1531.37" height="1356.91" filterUnits="userSpaceOnUse" color-interpolation-filters="sRGB">
<feFlood flood-opacity="0" result="BackgroundImageFix"/>
<feBlend mode="normal" in="SourceGraphic" in2="BackgroundImageFix" result="shape"/>
<feGaussianBlur stdDeviation="282" result="effect1_foregroundBlur_5033_11189"/>
</filter>
<filter id="filter1_f_5033_11189" x="302.379" y="-635.703" width="1401.16" height="1283.01" filterUnits="userSpaceOnUse" color-interpolation-filters="sRGB">
<feFlood flood-opacity="0" result="BackgroundImageFix"/>
<feBlend mode="normal" in="SourceGraphic" in2="BackgroundImageFix" result="shape"/>
<feGaussianBlur stdDeviation="282" result="effect1_foregroundBlur_5033_11189"/>
</filter>
<filter id="filter2_f_5033_11189" x="-469.539" y="-664.562" width="1616.03" height="1404.83" filterUnits="userSpaceOnUse" color-interpolation-filters="sRGB">
<feFlood flood-opacity="0" result="BackgroundImageFix"/>
<feBlend mode="normal" in="SourceGraphic" in2="BackgroundImageFix" result="shape"/>
<feGaussianBlur stdDeviation="282" result="effect1_foregroundBlur_5033_11189"/>
</filter>
<filter id="filter3_f_5033_11189" x="-144.125" y="-573.805" width="1779.32" height="1497.24" filterUnits="userSpaceOnUse" color-interpolation-filters="sRGB">
<feFlood flood-opacity="0" result="BackgroundImageFix"/>
<feBlend mode="normal" in="SourceGraphic" in2="BackgroundImageFix" result="shape"/>
<feGaussianBlur stdDeviation="282" result="effect1_foregroundBlur_5033_11189"/>
</filter>
<filter id="filter4_b_5033_11189" x="54.6289" y="47.7129" width="192.02" height="192.019" filterUnits="userSpaceOnUse" color-interpolation-filters="sRGB">
<feFlood flood-opacity="0" result="BackgroundImageFix"/>
<feGaussianBlur in="BackgroundImageFix" stdDeviation="27"/>
<feComposite in2="SourceAlpha" operator="in" result="effect1_backgroundBlur_5033_11189"/>
<feBlend mode="normal" in="SourceGraphic" in2="effect1_backgroundBlur_5033_11189" result="shape"/>
</filter>
<filter id="filter5_b_5033_11189" x="263.203" y="149.13" width="140.953" height="140.955" filterUnits="userSpaceOnUse" color-interpolation-filters="sRGB">
<feFlood flood-opacity="0" result="BackgroundImageFix"/>
<feGaussianBlur in="BackgroundImageFix" stdDeviation="27"/>
<feComposite in2="SourceAlpha" operator="in" result="effect1_backgroundBlur_5033_11189"/>
<feBlend mode="normal" in="SourceGraphic" in2="effect1_backgroundBlur_5033_11189" result="shape"/>
</filter>
<filter id="filter6_b_5033_11189" x="834.223" y="26.1602" width="188.77" height="188.77" filterUnits="userSpaceOnUse" color-interpolation-filters="sRGB">
<feFlood flood-opacity="0" result="BackgroundImageFix"/>
<feGaussianBlur in="BackgroundImageFix" stdDeviation="27"/>
<feComposite in2="SourceAlpha" operator="in" result="effect1_backgroundBlur_5033_11189"/>
<feBlend mode="normal" in="SourceGraphic" in2="effect1_backgroundBlur_5033_11189" result="shape"/>
</filter>
<filter id="filter7_b_5033_11189" x="1186.8" y="218.819" width="137.148" height="137.148" filterUnits="userSpaceOnUse" color-interpolation-filters="sRGB">
<feFlood flood-opacity="0" result="BackgroundImageFix"/>
<feGaussianBlur in="BackgroundImageFix" stdDeviation="27"/>
<feComposite in2="SourceAlpha" operator="in" result="effect1_backgroundBlur_5033_11189"/>
<feBlend mode="normal" in="SourceGraphic" in2="effect1_backgroundBlur_5033_11189" result="shape"/>
</filter>
<filter id="filter8_f_5033_11189" x="263.703" y="281.336" width="234.137" height="240.323" filterUnits="userSpaceOnUse" color-interpolation-filters="sRGB">
<feFlood flood-opacity="0" result="BackgroundImageFix"/>
<feBlend mode="normal" in="SourceGraphic" in2="BackgroundImageFix" result="shape"/>
<feGaussianBlur stdDeviation="22" result="effect1_foregroundBlur_5033_11189"/>
</filter>
<filter id="filter9_f_5033_11189" x="204.059" y="-2.16846" width="178.988" height="182.841" filterUnits="userSpaceOnUse" color-interpolation-filters="sRGB">
<feFlood flood-opacity="0" result="BackgroundImageFix"/>
<feBlend mode="normal" in="SourceGraphic" in2="BackgroundImageFix" result="shape"/>
<feGaussianBlur stdDeviation="22" result="effect1_foregroundBlur_5033_11189"/>
</filter>
<filter id="filter10_ii_5033_11189" x="1126.75" y="-8.25537" width="158.367" height="158.37" filterUnits="userSpaceOnUse" color-interpolation-filters="sRGB">
<feFlood flood-opacity="0" result="BackgroundImageFix"/>
<feBlend mode="normal" in="SourceGraphic" in2="BackgroundImageFix" result="shape"/>
<feColorMatrix in="SourceAlpha" type="matrix" values="0 0 0 0 0 0 0 0 0 0 0 0 0 0 0 0 0 0 127 0" result="hardAlpha"/>
<feOffset dy="-4"/>
<feComposite in2="hardAlpha" operator="arithmetic" k2="-1" k3="1"/>
<feColorMatrix type="matrix" values="0 0 0 0 0.2 0 0 0 0 0.184314 0 0 0 0 0.270588 0 0 0 0.1 0"/>
<feBlend mode="normal" in2="shape" result="effect1_innerShadow_5033_11189"/>
<feColorMatrix in="SourceAlpha" type="matrix" values="0 0 0 0 0 0 0 0 0 0 0 0 0 0 0 0 0 0 127 0" result="hardAlpha"/>
<feOffset dy="4"/>
<feComposite in2="hardAlpha" operator="arithmetic" k2="-1" k3="1"/>
<feColorMatrix type="matrix" values="0 0 0 0 0.2 0 0 0 0 0.184314 0 0 0 0 0.270588 0 0 0 0.1 0"/>
<feBlend mode="normal" in2="effect1_innerShadow_5033_11189" result="effect2_innerShadow_5033_11189"/>
</filter>
<filter id="filter11_di_5033_11189" x="1156.58" y="33.9712" width="98.3867" height="86.7407" filterUnits="userSpaceOnUse" color-interpolation-filters="sRGB">
<feFlood flood-opacity="0" result="BackgroundImageFix"/>
<feColorMatrix in="SourceAlpha" type="matrix" values="0 0 0 0 0 0 0 0 0 0 0 0 0 0 0 0 0 0 127 0" result="hardAlpha"/>
<feOffset dy="1"/>
<feColorMatrix type="matrix" values="0 0 0 0 1 0 0 0 0 1 0 0 0 0 1 0 0 0 1 0"/>
<feBlend mode="normal" in2="BackgroundImageFix" result="effect1_dropShadow_5033_11189"/>
<feBlend mode="normal" in="SourceGraphic" in2="effect1_dropShadow_5033_11189" result="shape"/>
<feColorMatrix in="SourceAlpha" type="matrix" values="0 0 0 0 0 0 0 0 0 0 0 0 0 0 0 0 0 0 127 0" result="hardAlpha"/>
<feOffset dy="-5"/>
<feGaussianBlur stdDeviation="1.5"/>
<feComposite in2="hardAlpha" operator="arithmetic" k2="-1" k3="1"/>
<feColorMatrix type="matrix" values="0 0 0 0 0 0 0 0 0 0 0 0 0 0 0 0 0 0 0.12 0"/>
<feBlend mode="normal" in2="shape" result="effect2_innerShadow_5033_11189"/>
</filter>
<filter id="filter12_di_5033_11189" x="1178.64" y="9.3501" width="45.0898" height="28.2949" filterUnits="userSpaceOnUse" color-interpolation-filters="sRGB">
<feFlood flood-opacity="0" result="BackgroundImageFix"/>
<feColorMatrix in="SourceAlpha" type="matrix" values="0 0 0 0 0 0 0 0 0 0 0 0 0 0 0 0 0 0 127 0" result="hardAlpha"/>
<feOffset dy="1"/>
<feColorMatrix type="matrix" values="0 0 0 0 1 0 0 0 0 1 0 0 0 0 1 0 0 0 1 0"/>
<feBlend mode="normal" in2="BackgroundImageFix" result="effect1_dropShadow_5033_11189"/>
<feBlend mode="normal" in="SourceGraphic" in2="effect1_dropShadow_5033_11189" result="shape"/>
<feColorMatrix in="SourceAlpha" type="matrix" values="0 0 0 0 0 0 0 0 0 0 0 0 0 0 0 0 0 0 127 0" result="hardAlpha"/>
<feOffset dy="-5"/>
<feGaussianBlur stdDeviation="1.5"/>
<feComposite in2="hardAlpha" operator="arithmetic" k2="-1" k3="1"/>
<feColorMatrix type="matrix" values="0 0 0 0 0 0 0 0 0 0 0 0 0 0 0 0 0 0 0.12 0"/>
<feBlend mode="normal" in2="shape" result="effect2_innerShadow_5033_11189"/>
</filter>
<filter id="filter13_f_5033_11189" x="1082.93" y="-50.9395" width="195.59" height="230.645" filterUnits="userSpaceOnUse" color-interpolation-filters="sRGB">
<feFlood flood-opacity="0" result="BackgroundImageFix"/>
<feBlend mode="normal" in="SourceGraphic" in2="BackgroundImageFix" result="shape"/>
<feGaussianBlur stdDeviation="22" result="effect1_foregroundBlur_5033_11189"/>
</filter>
<filter id="filter14_bd_5033_11189" x="325.145" y="135.464" width="786.887" height="694.306" filterUnits="userSpaceOnUse" color-interpolation-filters="sRGB">
<feFlood flood-opacity="0" result="BackgroundImageFix"/>
<feGaussianBlur in="BackgroundImageFix" stdDeviation="30"/>
<feComposite in2="SourceAlpha" operator="in" result="effect1_backgroundBlur_5033_11189"/>
<feColorMatrix in="SourceAlpha" type="matrix" values="0 0 0 0 0 0 0 0 0 0 0 0 0 0 0 0 0 0 127 0" result="hardAlpha"/>
<feOffset dy="10"/>
<feGaussianBlur stdDeviation="54"/>
<feComposite in2="hardAlpha" operator="out"/>
<feColorMatrix type="matrix" values="0 0 0 0 0 0 0 0 0 0 0 0 0 0 0 0 0 0 0.25 0"/>
<feBlend mode="normal" in2="effect1_backgroundBlur_5033_11189" result="effect2_dropShadow_5033_11189"/>
<feBlend mode="normal" in="SourceGraphic" in2="effect2_dropShadow_5033_11189" result="shape"/>
</filter>
<filter id="filter15_d_5033_11189" x="457.551" y="487.219" width="131.52" height="150.096" filterUnits="userSpaceOnUse" color-interpolation-filters="sRGB">
<feFlood flood-opacity="0" result="BackgroundImageFix"/>
<feColorMatrix in="SourceAlpha" type="matrix" values="0 0 0 0 0 0 0 0 0 0 0 0 0 0 0 0 0 0 127 0" result="hardAlpha"/>
<feOffset dy="4"/>
<feGaussianBlur stdDeviation="17"/>
<feComposite in2="hardAlpha" operator="out"/>
<feColorMatrix type="matrix" values="0 0 0 0 0 0 0 0 0 0 0 0 0 0 0 0 0 0 0.18 0"/>
<feBlend mode="normal" in2="BackgroundImageFix" result="effect1_dropShadow_5033_11189"/>
<feBlend mode="normal" in="SourceGraphic" in2="effect1_dropShadow_5033_11189" result="shape"/>
</filter>
<filter id="filter16_d_5033_11189" x="383.168" y="186.009" width="672.703" height="582.617" filterUnits="userSpaceOnUse" color-interpolation-filters="sRGB">
<feFlood flood-opacity="0" result="BackgroundImageFix"/>
<feColorMatrix in="SourceAlpha" type="matrix" values="0 0 0 0 0 0 0 0 0 0 0 0 0 0 0 0 0 0 127 0" result="hardAlpha"/>
<feOffset dy="4"/>
<feGaussianBlur stdDeviation="32"/>
<feComposite in2="hardAlpha" operator="out"/>
<feColorMatrix type="matrix" values="0 0 0 0 0 0 0 0 0 0 0 0 0 0 0 0 0 0 0.15 0"/>
<feBlend mode="normal" in2="BackgroundImageFix" result="effect1_dropShadow_5033_11189"/>
<feBlend mode="normal" in="SourceGraphic" in2="effect1_dropShadow_5033_11189" result="shape"/>
</filter>
<filter id="filter17_i_5033_11189" x="532.238" y="272.11" width="417.547" height="135.589" filterUnits="userSpaceOnUse" color-interpolation-filters="sRGB">
<feFlood flood-opacity="0" result="BackgroundImageFix"/>
<feBlend mode="normal" in="SourceGraphic" in2="BackgroundImageFix" result="shape"/>
<feColorMatrix in="SourceAlpha" type="matrix" values="0 0 0 0 0 0 0 0 0 0 0 0 0 0 0 0 0 0 127 0" result="hardAlpha"/>
<feOffset dy="-5"/>
<feGaussianBlur stdDeviation="3.5"/>
<feComposite in2="hardAlpha" operator="arithmetic" k2="-1" k3="1"/>
<feColorMatrix type="matrix" values="0 0 0 0 0 0 0 0 0 0 0 0 0 0 0 0 0 0 0.25 0"/>
<feBlend mode="normal" in2="shape" result="effect1_innerShadow_5033_11189"/>
</filter>
<filter id="filter18_f_5033_11189" x="527.465" y="80.9785" width="358.008" height="393.122" filterUnits="userSpaceOnUse" color-interpolation-filters="sRGB">
<feFlood flood-opacity="0" result="BackgroundImageFix"/>
<feBlend mode="normal" in="SourceGraphic" in2="BackgroundImageFix" result="shape"/>
<feGaussianBlur stdDeviation="22" result="effect1_foregroundBlur_5033_11189"/>
</filter>
<filter id="filter19_f_5033_11189" x="523.34" y="297.109" width="431.656" height="144.852" filterUnits="userSpaceOnUse" color-interpolation-filters="sRGB">
<feFlood flood-opacity="0" result="BackgroundImageFix"/>
<feBlend mode="normal" in="SourceGraphic" in2="BackgroundImageFix" result="shape"/>
<feGaussianBlur stdDeviation="12" result="effect1_foregroundBlur_5033_11189"/>
</filter>
<linearGradient id="paint0_linear_5033_11189" x1="665" y1="3.65186e-06" x2="620.5" y2="639" gradientUnits="userSpaceOnUse">
<stop stop-color="#2B2641"/>
<stop offset="1" stop-color="#2B2641" stop-opacity="0"/>
</linearGradient>
<radialGradient id="paint1_radial_5033_11189" cx="0" cy="0" r="1" gradientUnits="userSpaceOnUse" gradientTransform="translate(791.469 211.12) rotate(179.566) scale(34.0686 13752.8)">
<stop stop-color="white"/>
<stop offset="1" stop-color="white" stop-opacity="0"/>
</radialGradient>
<radialGradient id="paint2_radial_5033_11189" cx="0" cy="0" r="1" gradientUnits="userSpaceOnUse" gradientTransform="translate(890.512 126.034) rotate(179.68) scale(46.2353 13753)">
<stop stop-color="white"/>
<stop offset="1" stop-color="white" stop-opacity="0"/>
</radialGradient>
<radialGradient id="paint3_radial_5033_11189" cx="0" cy="0" r="1" gradientUnits="userSpaceOnUse" gradientTransform="translate(819.63 40.9487) rotate(179.722) scale(53.093 13753)">
<stop stop-color="white"/>
<stop offset="1" stop-color="white" stop-opacity="0"/>
</radialGradient>
<radialGradient id="paint4_radial_5033_11189" cx="0" cy="0" r="1" gradientUnits="userSpaceOnUse" gradientTransform="translate(826.922 -417.913) rotate(179.566) scale(34.0686 13752.8)">
<stop stop-color="white"/>
<stop offset="1" stop-color="white" stop-opacity="0"/>
</radialGradient>
<radialGradient id="paint5_radial_5033_11189" cx="0" cy="0" r="1" gradientUnits="userSpaceOnUse" gradientTransform="translate(1041.43 -448.303) rotate(179.68) scale(46.2353 13753)">
<stop stop-color="white"/>
<stop offset="1" stop-color="white" stop-opacity="0"/>
</radialGradient>
<radialGradient id="paint6_radial_5033_11189" cx="0" cy="0" r="1" gradientUnits="userSpaceOnUse" gradientTransform="translate(1459.07 -628.605) rotate(179.76) scale(61.4992 13753.1)">
<stop stop-color="white"/>
<stop offset="1" stop-color="white" stop-opacity="0"/>
</radialGradient>
<radialGradient id="paint7_radial_5033_11189" cx="0" cy="0" r="1" gradientUnits="userSpaceOnUse" gradientTransform="translate(1473.56 -567.828) rotate(179.731) scale(54.8627 13753)">
<stop stop-color="white"/>
<stop offset="1" stop-color="white" stop-opacity="0"/>
</radialGradient>
<radialGradient id="paint8_radial_5033_11189" cx="0" cy="0" r="1" gradientUnits="userSpaceOnUse" gradientTransform="translate(1199.47 -592.141) rotate(179.722) scale(53.093 13753)">
<stop stop-color="white"/>
<stop offset="1" stop-color="white" stop-opacity="0"/>
</radialGradient>
<radialGradient id="paint9_radial_5033_11189" cx="0" cy="0" r="1" gradientUnits="userSpaceOnUse" gradientTransform="translate(1373.98 -669.124) rotate(179.76) scale(61.4992 13753.1)">
<stop stop-color="white"/>
<stop offset="1" stop-color="white" stop-opacity="0"/>
</radialGradient>
<radialGradient id="paint10_radial_5033_11189" cx="0" cy="0" r="1" gradientUnits="userSpaceOnUse" gradientTransform="translate(1495.11 -452.354) rotate(179.698) scale(48.8899 13753)">
<stop stop-color="white"/>
<stop offset="1" stop-color="white" stop-opacity="0"/>
</radialGradient>
<radialGradient id="paint11_radial_5033_11189" cx="0" cy="0" r="1" gradientUnits="userSpaceOnUse" gradientTransform="translate(1488.42 -474.638) rotate(179.633) scale(40.2625 13752.9)">
<stop stop-color="white"/>
<stop offset="1" stop-color="white" stop-opacity="0"/>
</radialGradient>
<linearGradient id="paint12_linear_5033_11189" x1="150.639" y1="101.722" x2="150.639" y2="221.722" gradientUnits="userSpaceOnUse">
<stop stop-color="#AFD803" stop-opacity="0"/>
<stop offset="1" stop-color="#AFD803"/>
</linearGradient>
<linearGradient id="paint13_linear_5033_11189" x1="928.607" y1="80.1683" x2="928.607" y2="195.531" gradientUnits="userSpaceOnUse">
<stop stop-color="#E54033" stop-opacity="0"/>
<stop offset="1" stop-color="#E54033"/>
</linearGradient>
<linearGradient id="paint14_linear_5033_11189" x1="10.7731" y1="226.262" x2="136.976" y2="163.382" gradientUnits="userSpaceOnUse">
<stop stop-color="#FECA1A" stop-opacity="0"/>
<stop offset="1" stop-color="#FECA1A"/>
</linearGradient>
<linearGradient id="paint15_linear_5033_11189" x1="278.683" y1="251.711" x2="328.184" y2="227.047" gradientUnits="userSpaceOnUse">
<stop stop-color="#FECA1A" stop-opacity="0"/>
<stop offset="1" stop-color="#FECA1A"/>
</linearGradient>
<linearGradient id="paint16_linear_5033_11189" x1="1079.03" y1="78.7205" x2="946.196" y2="105.709" gradientUnits="userSpaceOnUse">
<stop stop-color="#FECA1A" stop-opacity="0"/>
<stop offset="1" stop-color="#FECA1A"/>
</linearGradient>
<linearGradient id="paint17_linear_5033_11189" x1="1309.72" y1="272.614" x2="1261.78" y2="282.353" gradientUnits="userSpaceOnUse">
<stop stop-color="#FECA1A" stop-opacity="0"/>
<stop offset="1" stop-color="#FECA1A"/>
</linearGradient>
<linearGradient id="paint18_linear_5033_11189" x1="-25.8988" y1="226.656" x2="100.304" y2="163.776" gradientUnits="userSpaceOnUse">
<stop stop-color="#FECA1A" stop-opacity="0"/>
<stop offset="1" stop-color="#FECA1A"/>
</linearGradient>
<linearGradient id="paint19_linear_5033_11189" x1="264.3" y1="251.867" x2="313.802" y2="227.203" gradientUnits="userSpaceOnUse">
<stop stop-color="#FECA1A" stop-opacity="0"/>
<stop offset="1" stop-color="#FECA1A"/>
</linearGradient>
<linearGradient id="paint20_linear_5033_11189" x1="1113.19" y1="87.4783" x2="980.348" y2="114.467" gradientUnits="userSpaceOnUse">
<stop stop-color="#FECA1A" stop-opacity="0"/>
<stop offset="1" stop-color="#FECA1A"/>
</linearGradient>
<linearGradient id="paint21_linear_5033_11189" x1="1322.04" y1="275.774" x2="1274.11" y2="285.513" gradientUnits="userSpaceOnUse">
<stop stop-color="#FECA1A" stop-opacity="0"/>
<stop offset="1" stop-color="#FECA1A"/>
</linearGradient>
<linearGradient id="paint22_linear_5033_11189" x1="321.634" y1="299.102" x2="472.762" y2="531.873" gradientUnits="userSpaceOnUse">
<stop stop-color="white"/>
<stop offset="1" stop-color="white" stop-opacity="0.08"/>
</linearGradient>
<linearGradient id="paint23_linear_5033_11189" x1="277.078" y1="49.4429" x2="339.872" y2="157.09" gradientUnits="userSpaceOnUse">
<stop stop-color="#24DCB3"/>
<stop offset="1" stop-color="#D428FC"/>
</linearGradient>
<linearGradient id="paint24_linear_5033_11189" x1="334.384" y1="63.9654" x2="294.604" y2="140.161" gradientUnits="userSpaceOnUse">
<stop stop-color="#00FFA3"/>
<stop offset="1" stop-color="#DC1FFF"/>
</linearGradient>
<linearGradient id="paint25_linear_5033_11189" x1="316.99" y1="54.884" x2="277.21" y2="131.079" gradientUnits="userSpaceOnUse">
<stop stop-color="#00FFA3"/>
<stop offset="1" stop-color="#DC1FFF"/>
</linearGradient>
<linearGradient id="paint26_linear_5033_11189" x1="325.632" y1="59.396" x2="285.851" y2="135.591" gradientUnits="userSpaceOnUse">
<stop stop-color="#00FFA3"/>
<stop offset="1" stop-color="#DC1FFF"/>
</linearGradient>
<radialGradient id="paint27_radial_5033_11189" cx="0" cy="0" r="1" gradientUnits="userSpaceOnUse" gradientTransform="translate(1368.77 118.114) rotate(-154.444) scale(356.893)">
<stop stop-color="#FFE9E8"/>
<stop offset="0.53125" stop-color="#FFF8E1"/>
<stop offset="1" stop-color="#F5FFCA"/>
</radialGradient>
<linearGradient id="paint28_linear_5033_11189" x1="1177.02" y1="119.337" x2="1244.18" y2="82.6192" gradientUnits="userSpaceOnUse">
<stop offset="0.21" stop-color="#E54033"/>
<stop offset="0.84" stop-color="#FECA1A"/>
</linearGradient>
<linearGradient id="paint29_linear_5033_11189" x1="1232.33" y1="99.3257" x2="1254.54" y2="93.5521" gradientUnits="userSpaceOnUse">
<stop stop-color="#FECA1A"/>
<stop offset="0.4" stop-color="#FECA1A"/>
<stop offset="1" stop-color="#AFD803"/>
</linearGradient>
<linearGradient id="paint30_linear_5033_11189" x1="1183.57" y1="118.064" x2="1212.53" y2="44.3572" gradientUnits="userSpaceOnUse">
<stop offset="0.16" stop-color="#E54033"/>
<stop offset="0.84" stop-color="#FECA1A"/>
</linearGradient>
<linearGradient id="paint31_linear_5033_11189" x1="1160.57" y1="58.7012" x2="1169.21" y2="98.9819" gradientUnits="userSpaceOnUse">
<stop stop-color="#FECA1A"/>
<stop offset="0.76" stop-color="#E54033"/>
</linearGradient>
<linearGradient id="paint32_linear_5033_11189" x1="1180.03" y1="42.4238" x2="1180.25" y2="91.7664" gradientUnits="userSpaceOnUse">
<stop offset="0.16" stop-color="#FECA1A"/>
<stop offset="1" stop-color="#E54033"/>
</linearGradient>
<linearGradient id="paint33_linear_5033_11189" x1="1178.82" y1="19.0983" x2="1228.2" y2="23.6216" gradientUnits="userSpaceOnUse">
<stop offset="0.15" stop-color="#6CBF00"/>
<stop offset="1" stop-color="#AFD803"/>
</linearGradient>
<linearGradient id="paint34_linear_5033_11189" x1="34600.4" y1="-4829.92" x2="25444.7" y2="-10289.8" gradientUnits="userSpaceOnUse">
<stop offset="0.15" stop-color="#6CBF00"/>
<stop offset="1" stop-color="#AFD803"/>
</linearGradient>
<linearGradient id="paint35_linear_5033_11189" x1="988.004" y1="177.607" x2="809.565" y2="906.641" gradientUnits="userSpaceOnUse">
<stop stop-color="#3B3349"/>
<stop offset="1" stop-color="#36333B"/>
</linearGradient>
<linearGradient id="paint36_linear_5033_11189" x1="468.114" y1="163.358" x2="569.896" y2="754.853" gradientUnits="userSpaceOnUse">
<stop stop-color="white" stop-opacity="0.1"/>
<stop offset="1" stop-color="white" stop-opacity="0.08"/>
</linearGradient>
<linearGradient id="paint37_linear_5033_11189" x1="563.051" y1="512.588" x2="491.146" y2="634.595" gradientUnits="userSpaceOnUse">
<stop stop-color="#B6A5FF"/>
<stop offset="1" stop-color="#5B48AD"/>
</linearGradient>
<linearGradient id="paint38_linear_5033_11189" x1="498.467" y1="505.315" x2="510.549" y2="618.252" gradientUnits="userSpaceOnUse">
<stop stop-color="#E0D9FF" stop-opacity="0.98"/>
<stop offset="1" stop-color="#BDAEFF" stop-opacity="0.52"/>
</linearGradient>
<linearGradient id="paint39_linear_5033_11189" x1="494.099" y1="211.785" x2="499.152" y2="770.664" gradientUnits="userSpaceOnUse">
<stop stop-color="#E0D9FF" stop-opacity="0.98"/>
<stop offset="1" stop-color="#BDAEFF" stop-opacity="0.52"/>
</linearGradient>
<linearGradient id="paint40_linear_5033_11189" x1="928.729" y1="330.452" x2="887.975" y2="496.469" gradientUnits="userSpaceOnUse">
<stop stop-color="#342D3F"/>
<stop offset="1" stop-color="#36333B"/>
</linearGradient>
<linearGradient id="paint41_linear_5033_11189" x1="520.258" y1="255.921" x2="503.424" y2="389.754" gradientUnits="userSpaceOnUse">
<stop stop-color="#4C474B"/>
<stop offset="1" stop-color="white" stop-opacity="0.08"/>
</linearGradient>
<linearGradient id="paint42_linear_5033_11189" x1="978.185" y1="47.2467" x2="716.941" y2="622.633" gradientUnits="userSpaceOnUse">
<stop stop-color="#342D3F"/>
<stop offset="1" stop-color="#36333B"/>
</linearGradient>
<linearGradient id="paint43_linear_5033_11189" x1="579.836" y1="88.4444" x2="910.097" y2="509.805" gradientUnits="userSpaceOnUse">
<stop stop-color="white"/>
<stop offset="1" stop-color="white" stop-opacity="0.08"/>
</linearGradient>
</defs>
</svg>
