<svg width="1330" height="966" viewBox="0 0 1330 966" fill="none" xmlns="http://www.w3.org/2000/svg"><mask id="a" style="mask-type:alpha" maskUnits="userSpaceOnUse" x="0" y="0" width="1330" height="966"><path fill="url(#paint0_linear_5338_8438)" d="M0 0h1330v966H0z"/></mask><g mask="url(#a)"><g opacity=".15"><mask id="b" style="mask-type:alpha" maskUnits="userSpaceOnUse" x="-69" y="-10" width="1469" height="813"><path transform="rotate(180 1400 802.998)" fill="#C4C4C4" d="M1400 802.998h1469v812H1400z"/></mask><g opacity=".4" mask="url(#b)"><path d="M516.371 299.492c29.77-438.679 178.831-790.171 410.714-942.152 4.938-3.514 68.873-42.599 105.805-55.412-345.376-195.387-690.396-92.47-690.396-92.47-73.849 22.15-156.755 50.857-237.532 92.643-6.4244 132.324 2.911 275.951 36.436 428.086C219.265 83.5338 122.781 329.314-1.33082 490.596 104.733 634.649 199.413 825.056 274.419 1009.73c101.963-98.982 215.046-312.328 241.952-710.238z" fill="url(#paint1_linear_5338_8438)"/><path d="M142.427-272.104c-33.55-152.123-40.135-300.558-33.71-432.882C-99.8353-597.043-301.94-398.037-290.201-9.05363c2.503 82.52003 16.638 166.82663 50.03 230.16463 32.552 61.704 79.772 97.709 123.387 138.799 41.0134 39.573 79.893 84.466 116.24038 134.219C123.438 332.866 220.286 81.2046 142.427-272.104z" fill="url(#paint2_linear_5338_8438)"/><path d="M295.647 1031.85c57.983 121.95 111.196 246.31 176.911 354.33 22.048 36.51 45.632 70.61 70.591 102.04 60.06 75.12 122.371 146.47 191.191 199.78 92.96-44.32 194.829-65.39 297.23-34.95 52.06-245.08 90.68-637.39-77.059-985.265C706.815 154.027 915.134-375.227 1050.5-705.922l-11.18-6.484c-34.77 11.825-68.79 28.721-101.61 50.474-231.851 152.008-391.182 515.113-420.96 953.753-26.93 397.921-137.344 596.347-239.153 695.298 6.174 14.851 12.19 29.761 18.05 44.731z" fill="url(#paint3_linear_5338_8438)"/><path d="M954.702 669.931c167.768 348.029 131.028 736.999 79.088 981.989 68.34 20.47 133.5 61.95 191.81 122.12 70.43-30.9 137-80.72 196.84-147.29 95.54-105.68 166.74-245.72 215.04-404.02-153.14-319.698-382.81-947.654-182.92-1536.032-82.2-124.478-178.55-227.734-280.63-310.688-40.25-32.664-81.78-61.234-124.31-85.538-135.394 330.579-342.614 865.701-94.918 1379.459z" fill="url(#paint4_linear_5338_8438)"/></g></g><g opacity=".6"><g opacity=".3"><g opacity=".5" filter="url(#filter0_f_5338_8438)"><ellipse cx="226.675" cy="232.553" rx="226.675" ry="232.553" transform="matrix(.78953 .61371 -.93963 .34219 688.656 -411.467)" fill="#AFD803"/></g><g opacity=".5" filter="url(#filter1_f_5338_8438)"><ellipse cx="153.501" cy="157.482" rx="153.501" ry="157.482" transform="matrix(.78953 .61371 -.93963 .34219 1184.29 -161.895)" fill="#AFD803"/></g><g opacity=".5" filter="url(#filter2_f_5338_8438)"><ellipse cx="274.039" cy="281.511" rx="274.039" ry="281.511" transform="matrix(.78953 .61371 -.93963 .34219 275.057 -233.428)" fill="#E54033"/></g><g opacity=".5" filter="url(#filter3_f_5338_8438)"><ellipse cx="365.386" cy="375.931" rx="365.386" ry="375.931" transform="matrix(.78953 .61371 -.93963 .34219 861.738 -129.977)" fill="#FECA1A" fill-opacity=".8"/></g></g><g filter="url(#filter4_b_5338_8438)"><circle cx="150.643" cy="143.722" transform="rotate(-116.485 150.643 143.722)" fill="url(#paint5_linear_5338_8438)" r="42"/></g><g opacity=".7" filter="url(#filter5_b_5338_8438)"><circle cx="369.086" cy="307.09" transform="rotate(-116.485 369.086 307.09)" fill="#5B48AD" r="16.4739"/></g><g opacity=".7" filter="url(#filter6_b_5338_8438)"><circle cx="755.86" cy="613.415" transform="rotate(78.515 755.86 613.415)" fill="url(#paint6_linear_5338_8438)" r="114.024"/></g><g filter="url(#filter7_b_5338_8438)"><circle cx="1001.15" cy="262.152" transform="rotate(78.515 1001.15 262.152)" fill="url(#paint7_linear_5338_8438)" r="58.5876"/></g><g filter="url(#filter8_b_5338_8438)"><circle cx="1255.37" cy="287.393" transform="rotate(78.515 1255.37 287.393)" fill="#FECA1A" r="14.5711"/></g><g opacity=".7" filter="url(#filter9_f_5338_8438)"><circle cx="597.685" cy="624.685" r="205.827" transform="rotate(78.515 597.685 624.685)" fill="#FECA1A"/></g></g><path fill-rule="evenodd" clip-rule="evenodd" d="M170.366 308.774c-9.039-44.759 19.918-88.371 64.677-97.41 44.759-9.039 88.371 19.918 97.41 64.677 9.039 44.759-19.918 88.371-64.677 97.41-44.759 9.039-88.371-19.918-97.41-64.677z" fill="url(#paint8_linear_5338_8438)"/><path d="M223.404 301.932l-2.136 4.556c-.417 1.515.911 2.939 2.451 2.627l9.61-1.94c5.575 11.948 16.055 18.747 27.743 16.203 8.324-1.681 13.763-7.087 16.288-16.173.322-1.157-.406-2.35-1.578-2.613l-4.997-1.122c-1.1-.247-2.204.416-2.493 1.505-1.277 4.828-4.307 8.352-9.056 9.311-4.299.868-8.174-.541-11.675-4.262-1.366-1.438-2.559-3.11-3.591-4.997l12.308-2.485c.779-.158 1.405-.741 1.616-1.508l2.136-4.557c.417-1.516-.911-2.938-2.452-2.627l-16.628 3.358c-.22-.843-.425-1.706-.606-2.603-.189-.887-.339-1.761-.466-2.628l13.707-2.768c.78-.157 1.405-.741 1.617-1.508l2.136-4.556c.417-1.515-.912-2.938-2.452-2.627l-15.259 3.081c.762-7.728 4.459-13.436 10.474-14.552 4.567-.923 8.619.862 11.721 4.499.695.815 1.914.935 2.788.317l4.197-2.965c1.003-.709 1.203-2.136.407-3.073-5.803-6.821-12.783-9.427-20.932-7.782-7.435 1.502-12.795 5.661-16.133 12.442-1.946 3.991-2.968 8.417-3.128 13.256l-6.692 1.351c-.78.158-1.405.741-1.616 1.508l-2.136 4.557c-.417 1.516.911 2.938 2.451 2.627l8.523-1.721c.133.868.268 1.739.448 2.631.167.887.365 1.754.576 2.609l-5.552 1.121c-.78.158-1.408.741-1.619 1.508z" fill="#fff"/><path d="M197.391 299.763c-3.712-26.979 13.392-52.825 39.675-59.951 13.817-3.746 27.677-1.837 39.31 4.179 1.129.583 2.514.267 3.276-.75l3.219-4.296c.954-1.274.559-3.11-.845-3.862-13.625-7.292-29.912-9.809-46.219-5.794-32.341 7.963-53.586 39.561-48.734 72.514 2.099 14.254 8.628 26.654 17.929 36.11 1.113 1.132 2.981.99 3.934-.281l3.215-4.291c.76-1.015.682-2.431-.194-3.347-7.621-7.971-12.93-18.341-14.566-30.231zM297.821 246.901c-1.114-1.132-2.981-.991-3.934.28l-3.215 4.291c-.76 1.015-.682 2.431.194 3.347 7.62 7.971 12.93 18.342 14.565 30.232 3.71 26.978-13.393 52.824-39.677 59.95-13.817 3.746-27.676 1.837-39.31-4.179-1.129-.583-2.514-.267-3.276.75l-3.217 4.296c-.955 1.273-.56 3.11.844 3.861 13.627 7.293 29.913 9.809 46.221 5.794 32.342-7.964 53.586-39.563 48.732-72.516-2.1-14.252-8.628-26.653-17.927-36.106z" fill="#fff"/><path fill-rule="evenodd" clip-rule="evenodd" d="M366.775 76.5922c-.428-24.8767 19.392-45.3905 44.268-45.8188 24.877-.4282 45.391 19.3913 45.819 44.268.428 24.8766-19.391 45.3906-44.268 45.8186-24.877.428-45.39-19.391-45.819-44.2678z" fill="#50AF95"/><path fill-rule="evenodd" clip-rule="evenodd" d="M416.322 80.7218c-.293-.0317-1.804-.2181-5.138-.8318-2.651-.4882-4.519-.9138-5.174-1.0666-10.165-2.3345-17.487-5.516-17.096-7.6394.391-2.1234 8.366-2.4864 18.697-1.0554l-1.276 6.9286c.661.1712 2.559.6371 5.211 1.1253 3.182.5857 4.799.7472 5.091.7737l1.275-6.9262c10.142 2.3354 17.447 5.5138 17.057 7.6324-.39 2.1186-8.345 2.4875-18.656 1.0552l.009.0042zm1.732-9.4066l1.141-6.1999 14.27 2.627 1.741-9.4546-38.853-7.1524-1.74 9.4545 14.268 2.6266-1.141 6.1976c-11.695-1.6053-20.837-.9268-21.34 1.8101-.504 2.7369 7.797 6.6239 19.296 9.2909l-3.657 19.868 10.312 1.898 3.659-19.8748c11.668 1.6004 20.794.9216 21.298-1.8129.503-2.7345-7.776-6.6175-19.256-9.2809l.002.0028z" fill="#fff"/><path d="M1176.02 53.0741c39.33-10.5365 79.74 12.801 90.27 52.1169 10.54 39.323-12.79 79.734-52.11 90.27-39.32 10.535-79.74-12.797-90.27-52.117-10.54-39.316 12.8-79.7351 52.11-90.2699z" fill="#F5AC37"/><mask id="c" style="mask-type:alpha" maskUnits="userSpaceOnUse" x="1121" y="50" width="148" height="148"><path d="M1176.02 53.0741c39.32-10.5365 79.74 12.801 90.27 52.1169 10.54 39.323-12.79 79.734-52.12 90.27-39.31 10.535-79.73-12.797-90.27-52.117-10.53-39.316 12.81-79.7351 52.12-90.2699z" fill="#F5AC37"/></mask><g filter="url(#filter10_f_5338_8438)" mask="url(#c)"><path d="M1220.1 58.7878c-74.88 10.7384-72.75 83.4682-62.33 118.4912-17.68-14.691-46.4-53.614-19.93-91.7878 26.47-38.1734 65.87-33.7078 82.26-26.7034z" fill="#fff" fill-opacity=".4"/></g><path d="M1198.7 127.895l22.95-6.149c.49-.131.72-.193.58-.845-.44-2.391-1.07-4.744-1.88-7.036-.12-.455-.4-.583-.89-.451l-45.67 12.238c-.57.151-.67.38-.53.911l1.81 6.733c.23.869.23.869 1.13.627l22.5-6.028zm16.8-21.856c.02-.189-.03-.377-.14-.528-.6-.734-1.27-1.41-2-2.018-1.14-1.068-2.39-1.997-3.74-2.771-.67-.505-1.41-.9244-2.19-1.2372-4.01-1.9113-8.42-2.8428-12.86-2.7158-2.24.0904-4.45.4411-6.6 1.0383l-20.27 5.4307c-.57.152-.58.398-.45.891l3.6 13.429c.15.567.19.719.91.527l43.55-11.671s.36-.177.38-.424l-.19.05v-.001zm6.45 24.061c-.66.101-1.31.274-1.93.517l-41.86 11.215c-.56.152-.75.203-.55.96l3.52 13.129c.16.605.2.758.96.555l19.32-5.178c.95-.177 1.85-.49 2.71-.926 2.75-.953 5.34-2.302 7.7-4.012.87-.589 1.68-1.269 2.41-2.023l.27-.071c3.89-3.576 6.58-8.272 7.68-13.448 0 0 .11-.643-.23-.713v-.005zm-46.38 35.418l-.06-.226-2.36-8.814-.8-2.989-2.38-8.891c-.14-.493-.16-.566-.76-.404l-8.19 2.194c-.45.122-.64.172-.8-.433l-1.93-7.188 8.76-2.346c.49-.131.68-.182.5-.825l-1.9-7.112c-.12-.455-.15-.567-.76-.405l-8.19 2.195c-.45.121-.64.171-.8-.433l-1.79-6.658c-.11-.416-.14-.528.47-.69l8.11-2.174c.57-.152.72-.192.53-.912l-5.47-20.391c-.16-.6047-.2-.7572.55-.9597l28.31-7.5849c2.08-.4688 4.18-.7896 6.3-.9575 4.37-.344 8.76.0748 12.99 1.2228 2.81.7805 5.5 1.9096 8.02 3.3657 1.91 1.1549 3.71 2.4771 5.39 3.9491 1.67 1.4986 3.18 3.1765 4.5 4.9985.23.503.83.724 1.34.493l6.75-1.81c.87-.233.87-.233 1.13.591l1.66 6.205c.17.604-.02.817-.62.98l-5.21 1.396c-.53.141-.68.182-.46.853.82 2.249 1.44 4.561 1.85 6.921.17.643.19.719.91.526l5.96-1.597c.36.27.19.681.28 1.025.15.428.27.872.35 1.321l1.23 4.579c.17.642.04.883-.53 1.036l-7.14 1.911c-.52.038-.92.486-.9 1.013-.51 4.881-2.17 9.578-4.82 13.701-.98 1.501-2.03 2.952-3.17 4.334-1.28 1.277-2.51 2.578-3.86 3.712-2.51 2.049-5.24 3.798-8.15 5.223-2.77 1.303-5.67 2.332-8.64 3.085l-26.2 7.02-.01-.039.01-.011z" fill="#FEFEFD"/></g><g filter="url(#filter11_bd_5338_8438)" shape-rendering="crispEdges"><rect x="461.01" y="201.449" width="451.848" height="354.693" rx="71" transform="rotate(9.905 461.01 201.449)" fill="url(#paint9_linear_5338_8438)" fill-opacity=".01"/><rect x="461.823" y="202.606" width="449.848" height="352.693" rx="70" transform="rotate(9.905 461.823 202.606)" stroke="url(#paint10_linear_5338_8438)" stroke-width="2"/></g><g filter="url(#filter12_d_5338_8438)"><mask id="d" fill="#fff"><path fill-rule="evenodd" clip-rule="evenodd" d="M486.438 457.082c0-.001-.001-.002-.002-.002s-.002 0-.002-.001l-.008-.02c-.005-.014-.012-.02 0-.029.422-.301 18.719-13.197 27.113 9.24.004.012-.001.026-.013.031l-.08.034c-1.573.662-20.7 8.267-27.008-9.253zm3.609 10.723h.001c1.788 1.351 3.783 2.272 5.828 2.885 1.815.544 3.543 1.483 4.512 3.111.729 1.225 1.373 2.503 1.984 3.793.426.91.79 1.847 1.089 2.806.694 2.198 1.092 4.465 1.494 6.759v.001c.118.672.236 1.347.363 2.024.026.283.056.566.09.851 0 .004.004.007.008.006.004 0 .007.003.007.007.483 4.333 1.47 9.044 3.187 13.092 0 .001-.001.003-.002.003-.002.001-.003.002-.002.004.57 1.33 1.244 2.613 2.016 3.837.153.237.31.472.468.708v.001c.737 1.102 1.479 2.211 1.785 3.491.382 1.595.035 3.293-.624 4.795-3.11 7.079-10.571 7.78-17.41 6.772-.002-.001-.003-.003-.002-.005s0-.005-.002-.005c-2.558-.395-5.056-1.027-7.261-1.649-.002-.001-.001 0-.003-.001-.052-.015-10.66-3.034-18.657-11.332-.003-.003-.006-.005-.01-.006-.004-.002-.008-.004-.011-.007l-.253-.267v-.001c.001 0 .001-.001.001-.001-.933-.986-1.804-2.027-2.611-3.119-2.142-2.902-3.943-6.083-5.162-9.442-.004-.013 0-.028.012-.036.011-.008.016-.022.011-.036-.139-.402-.27-.808-.392-1.215-1.103-3.69-1.491-7.564-.852-11.499 1.07-6.602 4.502-12.956 9.64-17.1.003-.002.004-.005.003-.008 0-.004.001-.007.003-.009.121-.093.241-.184.363-.275l.009-.006c2.681-1.984 5.799-3.366 9.267-3.879 1.552-.234 3.124-.285 4.683-.155 1.392.116 2.55 1.014 3.41 2.115.874 1.119 1.888 2.125 3.02 2.992z"/></mask><path fill-rule="evenodd" clip-rule="evenodd" d="M486.438 457.082c0-.001-.001-.002-.002-.002s-.002 0-.002-.001l-.008-.02c-.005-.014-.012-.02 0-.029.422-.301 18.719-13.197 27.113 9.24.004.012-.001.026-.013.031l-.08.034c-1.573.662-20.7 8.267-27.008-9.253zm3.609 10.723h.001c1.788 1.351 3.783 2.272 5.828 2.885 1.815.544 3.543 1.483 4.512 3.111.729 1.225 1.373 2.503 1.984 3.793.426.91.79 1.847 1.089 2.806.694 2.198 1.092 4.465 1.494 6.759v.001c.118.672.236 1.347.363 2.024.026.283.056.566.09.851 0 .004.004.007.008.006.004 0 .007.003.007.007.483 4.333 1.47 9.044 3.187 13.092 0 .001-.001.003-.002.003-.002.001-.003.002-.002.004.57 1.33 1.244 2.613 2.016 3.837.153.237.31.472.468.708v.001c.737 1.102 1.479 2.211 1.785 3.491.382 1.595.035 3.293-.624 4.795-3.11 7.079-10.571 7.78-17.41 6.772-.002-.001-.003-.003-.002-.005s0-.005-.002-.005c-2.558-.395-5.056-1.027-7.261-1.649-.002-.001-.001 0-.003-.001-.052-.015-10.66-3.034-18.657-11.332-.003-.003-.006-.005-.01-.006-.004-.002-.008-.004-.011-.007l-.253-.267v-.001c.001 0 .001-.001.001-.001-.933-.986-1.804-2.027-2.611-3.119-2.142-2.902-3.943-6.083-5.162-9.442-.004-.013 0-.028.012-.036.011-.008.016-.022.011-.036-.139-.402-.27-.808-.392-1.215-1.103-3.69-1.491-7.564-.852-11.499 1.07-6.602 4.502-12.956 9.64-17.1.003-.002.004-.005.003-.008 0-.004.001-.007.003-.009.121-.093.241-.184.363-.275l.009-.006c2.681-1.984 5.799-3.366 9.267-3.879 1.552-.234 3.124-.285 4.683-.155 1.392.116 2.55 1.014 3.41 2.115.874 1.119 1.888 2.125 3.02 2.992z" fill="url(#paint11_linear_5338_8438)" fill-opacity=".1" shape-rendering="crispEdges"/><path d="M502.372 477.594l.905-.424-.001-.003-.904.427zm1.089 2.806l-.955.298.001.003.954-.301zm1.494 6.759l.989-.148-.002-.012-.002-.012-.985.172zm0 0l-.989.149.989-.149zm0 0l.989-.148-.989.148zm0 0l-.989.149.989-.149zm0 .001l-.989.148.002.012.002.012.985-.172zm.363 2.024l.995-.094-.004-.045-.008-.045-.983.184zm5.304 17.8l-.846.534.006.008.84-.542zm.468.708l-.832.556.007.01.007.009.818-.575zm0 0l.85-.526-.015-.025-.017-.024-.818.575zm0 0l.85-.525-.85.525zm0 .001l.851-.526-.851.526zm0 0l-.85.526.009.015.01.014.831-.555zm1.785 3.491l.973-.232v-.001l-.973.233zm-.624 4.795l.915.402-.915-.402zm-46.219-9.621l-.804.594v.001l.804-.595zm-5.531-10.729l.958-.286-.958.286zm-.852-11.499l.987.16-.987-.16zm10.009-17.392l.596.804.008-.006.008-.007-.612-.791zm9.276-3.885l.146.99.003-.001-.149-.989zm-9.267 3.879l.595.804-.595-.804zm0 0l.612.791-.612-.791zm-.372.281l.612.791-.612-.791zm-8.402 29.831l.945-.327-.945.327zm-.023.072l.941-.341-.941.341zm7.773 12.561l-.727.687.727-.687zm-.001.002l.726-.688-.726.688zm.253.267l.726-.688-.726.688zm.021.013l-.72.693.72-.693zm39.69-6.612l.919-.394-.919.394zm.004-.007l.92-.391-.92.391zm-21.034 17.952l.271-.963-.271.963zm-.003-.001l.273-.962-.273.962zm8.303-50.401l-.287.958.287-.958zm-26.587-3.66l-.628-.778.628.778zm36.134 23.018l.994-.111-.994.111zm-10.586 32.693l-.153.988.153-.988zm-4.79-54.936l-.609.794.609-.794zm15.361 22.23l-.994.116.994-.116zm-10.567 32.716l-.146.989.146-.989zm-4.794-54.946l-.705-.709.705.709zm.001 0l-.603.798.603-.798zm23.398-1.47l-.388-.922.388.922zm0 0l-.389-.921.389.921zm.093-.065l-.937.35.937-.35zm-.013.031l-.389-.921.389.921zm-27.1-9.242l-.941.337.941-.337zm0-.029l-.581-.814.581.814zm.008.049l.941-.338-.941.338zm-2.817 5.619l.084-.997-.084.997zm3.41 2.115l.788-.616-.788.616zm-.591-7.733l.002 1-.002-1zm.002.002l.941-.339-.941.339zm.937-.341l-.007-.02-1.883.675.007.02 1.883-.675zm-.368 1.103c.183-.131 4.675-3.29 10.066-3.724 2.663-.215 5.514.238 8.192 2.029 2.683 1.795 5.291 5.001 7.337 10.471l1.873-.701c-2.15-5.748-4.977-9.344-8.098-11.432-3.127-2.092-6.451-2.603-9.464-2.361-5.962.48-10.83 3.92-11.068 4.09l1.162 1.628zm26.13 7.536l-.08.034.778 1.842.08-.033-.778-1.843zm-27.64-7.959c1.644 4.564 4.151 7.56 7.06 9.432 2.896 1.863 6.116 2.565 9.125 2.673 5.988.214 11.326-1.922 12.152-2.269l-.776-1.844c-.747.315-5.759 2.312-11.305 2.114-2.758-.098-5.6-.739-8.114-2.356-2.501-1.61-4.75-4.233-6.26-8.428l-1.882.678zm10.666 12.311c-1.953-.585-3.835-1.458-5.513-2.725l-1.205 1.596c1.9 1.436 4.007 2.405 6.144 3.045l.574-1.916zm7.113 7.435c-.617-1.304-1.276-2.614-2.028-3.877l-1.719 1.022c.706 1.187 1.335 2.433 1.938 3.71l1.809-.855zm1.139 2.935c-.312-1.002-.693-1.981-1.138-2.932l-1.811.849c.407.868.754 1.763 1.04 2.679l1.909-.596zm1.525 6.885c-.4-2.283-.808-4.616-1.526-6.888l-1.907.602c.672 2.125 1.059 4.326 1.463 6.631l1.97-.345zm.004.024l-1.978.297 1.978-.297zm0 0l-1.978.297 1.978-.297zm0 0l-1.978.297 1.978-.297zm0 0l-1.978.297 1.978-.297zm.357 1.989c-.125-.67-.243-1.339-.361-2.013l-1.97.345c.118.672.237 1.353.365 2.035l1.966-.367zm.1.919c-.032-.277-.062-.554-.088-.829l-1.991.188c.028.29.058.581.092.873l1.987-.232zm3.129 12.83c-1.666-3.929-2.636-8.537-3.113-12.812l-1.987.221c.489 4.393 1.492 9.206 3.259 13.372l1.841-.781zm1.937 3.701c-.744-1.179-1.393-2.415-1.942-3.697l-1.838.787c.59 1.379 1.289 2.709 2.089 3.978l1.691-1.068zm.454.686c-.158-.237-.311-.465-.459-.694l-1.68 1.084c.158.245.319.487.476.722l1.663-1.112zm-.013-.019l-1.636 1.15 1.636-1.15zm.032.05v-.001l-1.701 1.052 1.701-1.051zm.001 0h-.001l-1.701 1.051 1.702-1.051zm0 0l-1.702 1.051.001.001 1.701-1.052zm1.907 3.784c-.356-1.483-1.209-2.74-1.927-3.814l-1.662 1.111c.755 1.131 1.386 2.093 1.644 3.17l1.945-.467zm-.682 5.43c.711-1.619 1.132-3.548.682-5.429l-1.945.465c.313 1.309.04 2.775-.568 4.16l1.831.804zm-18.471 7.359c3.486.514 7.227.61 10.537-.385 3.353-1.007 6.247-3.133 7.934-6.974l-1.831-.804c-1.422 3.238-3.813 5.002-6.678 5.863-2.908.874-6.316.816-9.67.321l-.292 1.979zm-7.391-1.686c2.222.627 4.764 1.271 7.38 1.675l.305-1.977c-2.5-.386-4.953-1.005-7.142-1.623l-.543 1.925zm-19.108-11.602c8.188 8.497 19.011 11.575 19.104 11.601l.546-1.924c.013.004-2.592-.735-6.182-2.496-3.593-1.762-8.136-4.53-12.028-8.568l-1.44 1.387zm-.279-.285l.253.267 1.451-1.376-.253-.267-1.451 1.376zm-2.689-3.214c.831 1.123 1.728 2.196 2.688 3.211l1.453-1.374c-.904-.957-1.75-1.967-2.532-3.026l-1.609 1.189zm-5.298-9.696c1.257 3.465 3.109 6.73 5.298 9.695l1.609-1.187c-2.095-2.839-3.847-5.936-5.026-9.19l-1.881.682zm-.387-1.342c.126.422.261.84.405 1.257l1.89-.655c-.135-.389-.261-.781-.379-1.174l-1.916.572zm-.881-11.945c-.667 4.104-.259 8.132.881 11.946l1.916-.573c-1.066-3.567-1.435-7.288-.823-11.053l-1.974-.32zm9.999-17.718c-5.349 4.314-8.894 10.898-10 17.718l1.975.32c1.035-6.385 4.354-12.508 9.281-16.481l-1.256-1.557zm.402-.317c-.127.094-.254.19-.379.287l1.223 1.582c.115-.088.23-.176.347-.262l-1.191-1.607zm-.008.006l-.008.006 1.223 1.582.009-.006-1.224-1.582zm9.732-4.077c-3.643.539-6.913 1.991-9.715 4.064l1.19 1.608c2.559-1.894 5.526-3.206 8.818-3.693l-.293-1.979zm4.914-.163c-1.637-.136-3.287-.082-4.916.163l.298 1.978c1.475-.222 2.969-.271 4.451-.148l.167-1.993zm6.954 5.311c-1.064-.816-2.018-1.762-2.84-2.815l-1.576 1.231c.926 1.186 2 2.252 3.199 3.171l1.217-1.587zm-21.971-.093c.138.723.985 1.056 1.578.617l-1.19-1.608c.593-.439 1.44-.106 1.577.617l-1.965.374zm1.595.604c-.591.457-1.455.129-1.595-.604l1.965-.374c-.139-.733-1.004-1.061-1.594-.604l1.224 1.582zm-.005-.688c.07.366-.072.741-.367.969l-1.223-1.582c-.301.232-.445.614-.374.987l1.964-.374zm-8.815 30.862c.375-.266.529-.747.379-1.18l-1.89.655c-.141-.407.004-.859.356-1.108l1.155 1.633zm.352-1.122c.148.411.004.87-.352 1.122l-1.155-1.633c-.378.268-.532.756-.374 1.193l1.881-.682zm7.34 13.764c.553-.327.659-1.083.218-1.549l-1.453 1.374c-.44-.466-.335-1.221.218-1.547l1.017 1.722zm.217-1.548c.442.466.336 1.222-.217 1.548l-1.017-1.722c-.554.327-.66 1.084-.217 1.55l1.451-1.376zm-.213-.007c.178.046.34.141.466.274l-1.451 1.376c.132.14.301.239.487.287l.498-1.937zm.481.281c-.13-.135-.296-.233-.481-.281l-.498 1.937c-.177-.046-.336-.139-.461-.269l1.44-1.387zm38.749-6.897c-.61.14-.945.797-.698 1.372l1.838-.787c.245.572-.088 1.226-.694 1.365l-.446-1.95zm-.696 1.362c-.244-.575.094-1.224.696-1.362l.446 1.95c.604-.138.944-.791.699-1.369l-1.841.781zm-19.842 16.599h-.002.001l-.546 1.924c.001 0 .002.001.004.001.001 0 0 0 0 0l.543-1.925zm7.742-48.481c1.707.512 3.156 1.347 3.94 2.664l1.719-1.022c-1.154-1.939-3.163-2.981-5.085-3.558l-.574 1.916zm-25.672-3.839c.29-.234.427-.609.357-.974l-1.964.374c-.069-.36.066-.727.351-.957l1.256 1.557zm35.586 23.228c-.533.047-1.013-.339-1.073-.879l1.987-.221c-.061-.548-.548-.94-1.089-.892l.175 1.992zm-9.805 32.221c.365-.611-.006-1.397-.709-1.506l-.305 1.977c-.698-.108-1.066-.888-.704-1.496l1.718 1.025zm-6.356-56.162c.355-.353.916-.389 1.313-.084l-1.217 1.587c.398.304.959.269 1.314-.085l-1.41-1.418zm15.072 23.055c.064.541.546.934 1.089.886l-.175-1.992c.535-.047 1.011.34 1.073.874l-1.987.232zm-9.427 31.61c.706.104 1.073.891.711 1.497l-1.718-1.025c-.364.611.005 1.402.715 1.507l.292-1.979zm-4.235-53.247c-.353.352-.911.389-1.307.089l1.205-1.596c-.396-.299-.954-.263-1.308.089l1.41 1.418zm22.554-1.189c-.237-.033-.475-.155-.645-.37-.081-.103-.263-.379-.204-.769.069-.458.402-.689.601-.773l.776 1.844c.199-.084.532-.314.601-.773.058-.39-.123-.666-.205-.769-.17-.215-.407-.337-.644-.37l-.28 1.98zm-.249-1.911c-.931.393-.76 1.769.249 1.911l.28-1.98c1.008.143 1.18 1.519.249 1.911l-.778-1.842zm-.455 1.206c-.167-.446.011-1.019.535-1.24l.778 1.843c.548-.232.736-.834.56-1.304l-1.873.701zm-25.234-9.899c-.019-.053-.041-.099-.038-.091l.005.01c.002.006.007.016.012.029.01.024.029.073.044.137.035.142.056.375-.053.628-.099.228-.255.356-.331.41l-1.162-1.628c-.083.059-.242.191-.343.423-.111.257-.09.494-.054.64.016.066.036.117.046.144.011.025.021.046.021.047.006.012-.013-.027-.03-.074l1.883-.675zm-.935-.641c.422-.001.799.264.942.661l-1.883.675c.143.399.522.665.946.664l-.005-2zm-2.899 7.614c1 .084 1.93.743 2.705 1.734l1.576-1.231c-.945-1.21-2.331-2.347-4.114-2.496l-.167 1.993zm2.904-5.614c-.447.001-.807-.288-.941-.659l1.882-.678c-.135-.374-.496-.664-.946-.663l.005 2z" fill="url(#paint12_linear_5338_8438)" fill-opacity=".5" mask="url(#d)"/></g><g filter="url(#filter13_d_5338_8438)"><path d="M458.717 279.366c6.101-36.077 40.385-60.305 76.428-54.011l293.811 51.302c35.772 6.246 59.779 40.217 53.724 76.022l-33.685 199.179c-6.101 36.076-40.386 60.304-76.429 54.011l-293.81-51.303c-35.773-6.246-59.779-40.217-53.724-76.021l33.685-199.179z" stroke="url(#paint13_linear_5338_8438)" stroke-opacity=".3" stroke-width="3" stroke-linecap="round" stroke-dasharray="11 11" shape-rendering="crispEdges"/></g><g opacity=".4"><mask id="e" fill="#fff"><path fill-rule="evenodd" clip-rule="evenodd" d="M524.787 248.593c-14.264-2.49-27.845 7.054-30.335 21.317-2.491 14.263 7.053 27.844 21.316 30.335l58.556 10.224c16.322 2.85 26.911 21.966 40.585 31.322 2.998 2.051 6.473 3.508 10.284 4.174l75.958 13.263c3.812.665 7.575.471 11.09-.442 16.036-4.168 32.477-18.564 48.798-15.714l58.56 10.225c14.264 2.49 27.845-7.053 30.336-21.316 2.49-14.263-7.054-27.845-21.317-30.335l-303.831-53.053z"/></mask><g filter="url(#filter14_i_5338_8438)"><path fill-rule="evenodd" clip-rule="evenodd" d="M524.787 248.593c-14.264-2.49-27.845 7.054-30.335 21.317-2.491 14.263 7.053 27.844 21.316 30.335l58.556 10.224c16.322 2.85 26.911 21.966 40.585 31.322 2.998 2.051 6.473 3.508 10.284 4.174l75.958 13.263c3.812.665 7.575.471 11.09-.442 16.036-4.168 32.477-18.564 48.798-15.714l58.56 10.225c14.264 2.49 27.845-7.053 30.336-21.316 2.49-14.263-7.054-27.845-21.317-30.335l-303.831-53.053z" fill="url(#paint14_linear_5338_8438)"/></g><path d="M524.787 248.593l-.344 1.971.344-1.971zm-9.019 51.652l.344-1.97-.344 1.97zm303.831 53.052l.345-1.97-.345 1.97zm9.019-51.651l.344-1.971-.344 1.971zm-116.377 57.14l-.503-1.936.503 1.936zm-215.819-88.532c2.3-13.175 14.846-21.991 28.021-19.69l.688-3.941c-15.352-2.68-29.969 7.591-32.65 22.943l3.941.688zm19.69 28.021c-13.175-2.301-21.991-14.846-19.69-28.021l-3.941-.688c-2.68 15.351 7.592 29.969 22.943 32.649l.688-3.94zm58.556 10.224l-58.556-10.224-.688 3.94 58.556 10.225.688-3.941zm50.869 35.496c-3.524-.616-6.732-1.962-9.498-3.855l-2.259 3.301c3.229 2.209 6.971 3.778 11.069 4.494l.688-3.94zm75.958 13.263l-75.958-13.263-.688 3.94 75.958 13.263.688-3.94zm10.243-.408c-3.244.843-6.718 1.023-10.243.408l-.688 3.94c4.099.716 8.151.508 11.938-.476l-1.007-3.872zm108.206-5.523l-58.561-10.225-.688 3.94 58.56 10.225.689-3.94zm28.02-19.69c-2.3 13.175-14.845 21.99-28.02 19.69l-.689 3.94c15.352 2.681 29.969-7.591 32.65-22.942l-3.941-.688zm-19.69-28.021c13.175 2.3 21.991 14.846 19.69 28.021l3.941.688c2.68-15.352-7.591-29.969-22.943-32.65l-.688 3.941zm-303.831-53.052l303.831 53.052.688-3.941-303.831-53.052-.688 3.941zm188.302 110.158c8.248-2.144 16.709-6.955 24.626-10.609 8.125-3.75 15.819-6.382 23.324-5.071l.688-3.94c-8.816-1.54-17.503 1.602-25.688 5.379-8.392 3.874-16.169 8.345-23.957 10.369l1.007 3.872zM573.98 312.44c7.506 1.31 13.852 6.393 20.226 12.675 6.21 6.121 12.54 13.514 19.574 18.326l2.259-3.301c-6.641-4.543-12.443-11.386-19.026-17.874-6.42-6.328-13.528-12.227-22.345-13.767l-.688 3.941z" fill="url(#paint15_linear_5338_8438)" mask="url(#e)"/></g><mask id="f" style="mask-type:alpha" maskUnits="userSpaceOnUse" x="492" y="84" width="382" height="274"><path fill-rule="evenodd" clip-rule="evenodd" d="M597.612 85.7198c-38.057-6.6452-74.303 18.7982-80.986 56.8482l-23.611 134.444c-1.625 9.254 4.565 18.071 13.82 19.687l68.117 11.894c16.233 2.834 26.774 21.734 40.342 31.086 3.022 2.083 6.53 3.563 10.381 4.235l75.946 13.261c3.791.662 7.533.472 11.031-.431 16-4.131 32.399-18.45 48.678-15.608l67.495 11.786c9.242 1.614 18.045-4.565 19.668-13.806l23.593-134.342c6.692-38.103-18.794-74.41-56.905-81.064L597.612 85.7198z" fill="url(#paint16_linear_5338_8438)"/></mask><g mask="url(#f)"><path d="M667.107 422.501c84.771 6.672 158.337-56.159 165.01-140.93 6.672-84.771-56.159-158.338-140.93-165.01-84.772-6.672-158.338 56.159-165.01 140.93-6.672 84.772 56.159 158.338 140.93 165.01z" fill="#2775CA"/><path d="M831.618 281.532c-6.65 84.496-79.976 147.121-164.472 140.47-84.496-6.65-147.121-79.975-140.471-164.471 6.651-84.496 79.976-147.122 164.472-140.471 84.496 6.65 147.122 79.976 140.471 164.472z" stroke="url(#paint17_linear_5338_8438)" stroke-opacity=".3"/><mask id="g" style="mask-type:alpha" maskUnits="userSpaceOnUse" x="525" y="116" width="308" height="307"><path d="M667.105 422.501c84.771 6.672 158.338-56.159 165.01-140.93 6.672-84.771-56.159-158.338-140.93-165.01-84.772-6.672-158.338 56.159-165.01 140.93-6.672 84.772 56.159 158.338 140.93 165.01z" fill="#2775CA"/></mask><g filter="url(#filter15_f_5338_8438)" mask="url(#g)"><path d="M778.274 155.694c-166.395-33.38-216.383 122.131-220.578 204.058-26.371-44.331-57.97-148.232 26.606-209.184 84.576-60.9522 164.555-21.98 193.972 5.126z" fill="#fff" fill-opacity=".4"/></g><path d="M719.308 297.061c1.756-22.308-11.027-31.01-37.546-36.303-18.92-4.055-22.343-9.455-21.641-18.379.703-8.924 7.528-14.157 20.275-13.154 11.473.903 17.546 5.229 19.98 15.04.487 1.963 2.299 3.387 4.211 3.538l10.197.803c2.55.2 4.613-1.561 4.814-4.11l.05-.638c-1.447-14.223-12.066-25.961-26.625-28.389l1.204-15.297c.2-2.55-1.561-4.613-4.697-5.501l-9.561-.753c-2.55-.201-4.613 1.561-5.501 4.699l-1.154 14.659c-19.322 1.045-32.434 12.839-33.689 28.774-1.655 21.033 10.44 30.321 36.959 35.616 17.596 4.591 23.031 8.867 22.228 19.065-.802 10.199-10.278 16.507-22.387 15.554-16.573-1.304-21.758-8.768-22.917-18.479-.436-2.599-2.248-4.025-4.16-4.176l-10.836-.852c-2.549-.201-4.611 1.561-4.812 4.111l-.05.638c1.294 16.133 10.59 28.409 31.372 33.252l-1.204 15.297c-.2 2.549 1.561 4.611 4.697 5.5l9.561.752c2.55.201 4.613-1.56 5.501-4.697l1.204-15.297c19.372-1.682 33.173-14.064 34.527-31.273z" fill="#fff"/><path d="M639.473 358.118c-48.31-21.758-69.441-79.217-47.094-126.841 11.668-26.017 34.306-44.757 61.191-52.261 2.65-1.073 4.075-2.885 4.326-6.073l.702-8.923c.201-2.55-.923-4.562-3.423-5.399-.638-.05-1.912-.151-2.6.436-62.055 14.355-100.266 76.122-85.91 138.177 8.663 36.596 33.914 66.16 68.703 80.442 2.45 1.475 5.1.402 5.937-2.098.688-.586.738-1.224.839-2.498l.702-8.925c.15-1.912-1.561-4.611-3.373-6.037zm83.214-193.543c-2.45-1.475-5.1-.402-5.937 2.098-.688.588-.738 1.224-.839 2.5l-.702 8.923c-.201 2.55 1.511 5.249 3.323 6.675 48.31 21.759 69.441 79.217 47.094 126.841-11.668 26.017-34.307 44.757-61.191 52.261-2.65 1.073-4.075 2.885-4.326 6.073l-.702 8.923c-.201 2.55.923 4.562 3.423 5.399.638.05 1.912.151 2.6-.435 62.055-14.356 100.266-76.123 85.91-138.178-8.613-37.233-34.501-66.848-68.653-81.08z" fill="#fff"/><g opacity=".61" filter="url(#filter16_f_5338_8438)"><path d="M623.124 335.425l-44.852-25.159-48.987-11.114-20.375-13.414-1.966 24.705 110.718 42.814 86.592 15.12 121.979-3.749 8.067-48.033-56.834 5.068-70.029 28.484-84.313-14.722z" fill="#1E1927"/></g></g><defs><linearGradient id="paint0_linear_5338_8438" x1="665" y1="0" x2="620.5" y2="639" gradientUnits="userSpaceOnUse"><stop stop-color="#2B2641"/><stop offset="1" stop-color="#2B2641" stop-opacity="0"/></linearGradient><linearGradient id="paint1_linear_5338_8438" x1="120.5" y1="-198.003" x2="132.909" y2="608.529" gradientUnits="userSpaceOnUse"><stop stop-color="#FF5151"/><stop offset="1" stop-opacity="0"/></linearGradient><linearGradient id="paint2_linear_5338_8438" x1="-144" y1="-301.502" x2="-457.005" y2="229.589" gradientUnits="userSpaceOnUse"><stop stop-color="#FFC500"/><stop offset="1" stop-opacity="0"/></linearGradient><linearGradient id="paint3_linear_5338_8438" x1="74.4979" y1="-417.003" x2="-107.625" y2="530.849" gradientUnits="userSpaceOnUse"><stop stop-color="#FF1300"/><stop offset="1" stop-opacity="0"/></linearGradient><linearGradient id="paint4_linear_5338_8438" x1="723.5" y1="-584.503" x2="1419.36" y2="613.912" gradientUnits="userSpaceOnUse"><stop stop-color="#FF4132"/><stop offset="1" stop-opacity="0"/></linearGradient><linearGradient id="paint5_linear_5338_8438" x1="150.643" y1="101.722" x2="150.643" y2="221.722" gradientUnits="userSpaceOnUse"><stop stop-color="#AFD803" stop-opacity="0"/><stop offset="1" stop-color="#AFD803"/></linearGradient><linearGradient id="paint6_linear_5338_8438" x1="755.86" y1="499.39" x2="755.86" y2="825.174" gradientUnits="userSpaceOnUse"><stop stop-color="#E54033" stop-opacity="0"/><stop offset="1" stop-color="#E54033"/></linearGradient><linearGradient id="paint7_linear_5338_8438" x1="1001.15" y1="203.564" x2="1001.15" y2="370.957" gradientUnits="userSpaceOnUse"><stop stop-color="#E54033" stop-opacity="0"/><stop offset="1" stop-color="#E54033"/></linearGradient><linearGradient id="paint8_linear_5338_8438" x1="371.558" y1="372.182" x2="233.801" y2="280.716" gradientUnits="userSpaceOnUse"><stop stop-color="#8656EF"/><stop offset=".97" stop-color="#1AA3FF"/></linearGradient><linearGradient id="paint9_linear_5338_8438" x1="882.941" y1="163.297" x2="730.688" y2="785.343" gradientUnits="userSpaceOnUse"><stop stop-color="#3B3349"/><stop offset="1" stop-color="#36333B"/></linearGradient><linearGradient id="paint10_linear_5338_8438" x1="439.346" y1="151.138" x2="526.191" y2="655.83" gradientUnits="userSpaceOnUse"><stop stop-color="#fff" stop-opacity=".1"/><stop offset="1" stop-color="#fff" stop-opacity=".08"/></linearGradient><linearGradient id="paint11_linear_5338_8438" x1="520.347" y1="449.119" x2="458.995" y2="553.221" gradientUnits="userSpaceOnUse"><stop stop-color="#B6A5FF"/><stop offset="1" stop-color="#5B48AD"/></linearGradient><linearGradient id="paint12_linear_5338_8438" x1="465.242" y1="442.914" x2="475.55" y2="539.276" gradientUnits="userSpaceOnUse"><stop stop-color="#E0D9FF" stop-opacity=".98"/><stop offset="1" stop-color="#BDAEFF" stop-opacity=".52"/></linearGradient><linearGradient id="paint13_linear_5338_8438" x1="461.516" y1="192.459" x2="465.828" y2="669.322" gradientUnits="userSpaceOnUse"><stop stop-color="#E0D9FF" stop-opacity=".98"/><stop offset="1" stop-color="#BDAEFF" stop-opacity=".52"/></linearGradient><linearGradient id="paint14_linear_5338_8438" x1="832.363" y1="293.711" x2="797.589" y2="435.365" gradientUnits="userSpaceOnUse"><stop stop-color="#342D3F"/><stop offset="1" stop-color="#36333B"/></linearGradient><linearGradient id="paint15_linear_5338_8438" x1="483.836" y1="230.118" x2="469.472" y2="344.311" gradientUnits="userSpaceOnUse"><stop stop-color="#4C474B"/><stop offset="1" stop-color="#fff" stop-opacity=".08"/></linearGradient><linearGradient id="paint16_linear_5338_8438" x1="865.249" y1="104.974" x2="692.78" y2="528.283" gradientUnits="userSpaceOnUse"><stop stop-color="#342D3F"/><stop offset="1" stop-color="#36333B"/></linearGradient><linearGradient id="paint17_linear_5338_8438" x1="567.086" y1="65.6852" x2="785.006" y2="467.153" gradientUnits="userSpaceOnUse"><stop stop-color="#fff"/><stop offset="1" stop-color="#fff" stop-opacity=".08"/></linearGradient><filter id="filter0_f_5338_8438" x="-197.348" y="-917.07" width="1692.91" height="1448.58" filterUnits="userSpaceOnUse" color-interpolation-filters="sRGB"><feFlood flood-opacity="0" result="BackgroundImageFix"/><feBlend in="SourceGraphic" in2="BackgroundImageFix" result="shape"/><feGaussianBlur stdDeviation="282" result="effect1_foregroundBlur_5338_8438"/></filter><filter id="filter1_f_5338_8438" x="402.229" y="-686.348" width="1510.55" height="1345.09" filterUnits="userSpaceOnUse" color-interpolation-filters="sRGB"><feFlood flood-opacity="0" result="BackgroundImageFix"/><feBlend in="SourceGraphic" in2="BackgroundImageFix" result="shape"/><feGaussianBlur stdDeviation="282" result="effect1_foregroundBlur_5338_8438"/></filter><filter id="filter2_f_5338_8438" x="-678.842" y="-726.766" width="1811.49" height="1515.7" filterUnits="userSpaceOnUse" color-interpolation-filters="sRGB"><feFlood flood-opacity="0" result="BackgroundImageFix"/><feBlend in="SourceGraphic" in2="BackgroundImageFix" result="shape"/><feGaussianBlur stdDeviation="282" result="effect1_foregroundBlur_5338_8438"/></filter><filter id="filter3_f_5338_8438" x="-223.098" y="-599.658" width="2040.17" height="1645.12" filterUnits="userSpaceOnUse" color-interpolation-filters="sRGB"><feFlood flood-opacity="0" result="BackgroundImageFix"/><feBlend in="SourceGraphic" in2="BackgroundImageFix" result="shape"/><feGaussianBlur stdDeviation="282" result="effect1_foregroundBlur_5338_8438"/></filter><filter id="filter4_b_5338_8438" x="54.6348" y="47.7129" width="192.018" height="192.02" filterUnits="userSpaceOnUse" color-interpolation-filters="sRGB"><feFlood flood-opacity="0" result="BackgroundImageFix"/><feGaussianBlur in="BackgroundImageFix" stdDeviation="27"/><feComposite in2="SourceAlpha" operator="in" result="effect1_backgroundBlur_5338_8438"/><feBlend in="SourceGraphic" in2="effect1_backgroundBlur_5338_8438" result="shape"/></filter><filter id="filter5_b_5338_8438" x="298.607" y="236.613" width="140.955" height="140.955" filterUnits="userSpaceOnUse" color-interpolation-filters="sRGB"><feFlood flood-opacity="0" result="BackgroundImageFix"/><feGaussianBlur in="BackgroundImageFix" stdDeviation="27"/><feComposite in2="SourceAlpha" operator="in" result="effect1_backgroundBlur_5338_8438"/><feBlend in="SourceGraphic" in2="effect1_backgroundBlur_5338_8438" result="shape"/></filter><filter id="filter6_b_5338_8438" x="587.812" y="445.367" width="336.094" height="336.094" filterUnits="userSpaceOnUse" color-interpolation-filters="sRGB"><feFlood flood-opacity="0" result="BackgroundImageFix"/><feGaussianBlur in="BackgroundImageFix" stdDeviation="27"/><feComposite in2="SourceAlpha" operator="in" result="effect1_backgroundBlur_5338_8438"/><feBlend in="SourceGraphic" in2="effect1_backgroundBlur_5338_8438" result="shape"/></filter><filter id="filter7_b_5338_8438" x="888.551" y="149.553" width="225.199" height="225.197" filterUnits="userSpaceOnUse" color-interpolation-filters="sRGB"><feFlood flood-opacity="0" result="BackgroundImageFix"/><feGaussianBlur in="BackgroundImageFix" stdDeviation="27"/><feComposite in2="SourceAlpha" operator="in" result="effect1_backgroundBlur_5338_8438"/><feBlend in="SourceGraphic" in2="effect1_backgroundBlur_5338_8438" result="shape"/></filter><filter id="filter8_b_5338_8438" x="1186.8" y="218.82" width="137.146" height="137.146" filterUnits="userSpaceOnUse" color-interpolation-filters="sRGB"><feFlood flood-opacity="0" result="BackgroundImageFix"/><feGaussianBlur in="BackgroundImageFix" stdDeviation="27"/><feComposite in2="SourceAlpha" operator="in" result="effect1_backgroundBlur_5338_8438"/><feBlend in="SourceGraphic" in2="effect1_backgroundBlur_5338_8438" result="shape"/></filter><filter id="filter9_f_5338_8438" x="217.816" y="244.818" width="759.736" height="759.734" filterUnits="userSpaceOnUse" color-interpolation-filters="sRGB"><feFlood flood-opacity="0" result="BackgroundImageFix"/><feBlend in="SourceGraphic" in2="BackgroundImageFix" result="shape"/><feGaussianBlur stdDeviation="87" result="effect1_foregroundBlur_5338_8438"/></filter><filter id="filter10_f_5338_8438" x="1083.12" y="10.0801" width="180.977" height="211.199" filterUnits="userSpaceOnUse" color-interpolation-filters="sRGB"><feFlood flood-opacity="0" result="BackgroundImageFix"/><feBlend in="SourceGraphic" in2="BackgroundImageFix" result="shape"/><feGaussianBlur stdDeviation="22" result="effect1_foregroundBlur_5338_8438"/></filter><filter id="filter11_bd_5338_8438" x="303.143" y="114.592" width="699.838" height="620.842" filterUnits="userSpaceOnUse" color-interpolation-filters="sRGB"><feFlood flood-opacity="0" result="BackgroundImageFix"/><feGaussianBlur in="BackgroundImageFix" stdDeviation="30"/><feComposite in2="SourceAlpha" operator="in" result="effect1_backgroundBlur_5338_8438"/><feColorMatrix in="SourceAlpha" values="0 0 0 0 0 0 0 0 0 0 0 0 0 0 0 0 0 0 127 0" result="hardAlpha"/><feOffset dy="10"/><feGaussianBlur stdDeviation="54"/><feComposite in2="hardAlpha" operator="out"/><feColorMatrix values="0 0 0 0 0 0 0 0 0 0 0 0 0 0 0 0 0 0 0.25 0"/><feBlend in2="effect1_backgroundBlur_5338_8438" result="effect2_dropShadow_5338_8438"/><feBlend in="SourceGraphic" in2="effect2_dropShadow_5338_8438" result="shape"/></filter><filter id="filter12_d_5338_8438" x="425.34" y="423.07" width="122.201" height="138.049" filterUnits="userSpaceOnUse" color-interpolation-filters="sRGB"><feFlood flood-opacity="0" result="BackgroundImageFix"/><feColorMatrix in="SourceAlpha" values="0 0 0 0 0 0 0 0 0 0 0 0 0 0 0 0 0 0 127 0" result="hardAlpha"/><feOffset dy="4"/><feGaussianBlur stdDeviation="17"/><feComposite in2="hardAlpha" operator="out"/><feColorMatrix values="0 0 0 0 0 0 0 0 0 0 0 0 0 0 0 0 0 0 0.18 0"/><feBlend in2="BackgroundImageFix" result="effect1_dropShadow_5338_8438"/><feBlend in="SourceGraphic" in2="effect1_dropShadow_5338_8438" result="shape"/></filter><filter id="filter13_d_5338_8438" x="358.742" y="162.988" width="590.227" height="513.246" filterUnits="userSpaceOnUse" color-interpolation-filters="sRGB"><feFlood flood-opacity="0" result="BackgroundImageFix"/><feColorMatrix in="SourceAlpha" values="0 0 0 0 0 0 0 0 0 0 0 0 0 0 0 0 0 0 127 0" result="hardAlpha"/><feOffset dy="4"/><feGaussianBlur stdDeviation="32"/><feComposite in2="hardAlpha" operator="out"/><feColorMatrix values="0 0 0 0 0 0 0 0 0 0 0 0 0 0 0 0 0 0 0.15 0"/><feBlend in2="BackgroundImageFix" result="effect1_dropShadow_5338_8438"/><feBlend in="SourceGraphic" in2="effect1_dropShadow_5338_8438" result="shape"/></filter><filter id="filter14_i_5338_8438" x="494.057" y="243.199" width="356.273" height="116.424" filterUnits="userSpaceOnUse" color-interpolation-filters="sRGB"><feFlood flood-opacity="0" result="BackgroundImageFix"/><feBlend in="SourceGraphic" in2="BackgroundImageFix" result="shape"/><feColorMatrix in="SourceAlpha" values="0 0 0 0 0 0 0 0 0 0 0 0 0 0 0 0 0 0 127 0" result="hardAlpha"/><feOffset dy="-5"/><feGaussianBlur stdDeviation="3.5"/><feComposite in2="hardAlpha" operator="arithmetic" k2="-1" k3="1"/><feColorMatrix values="0 0 0 0 0 0 0 0 0 0 0 0 0 0 0 0 0 0 0.25 0"/><feBlend in2="shape" result="effect1_innerShadow_5338_8438"/></filter><filter id="filter15_f_5338_8438" x="485.373" y="74.2188" width="336.9" height="329.533" filterUnits="userSpaceOnUse" color-interpolation-filters="sRGB"><feFlood flood-opacity="0" result="BackgroundImageFix"/><feBlend in="SourceGraphic" in2="BackgroundImageFix" result="shape"/><feGaussianBlur stdDeviation="22" result="effect1_foregroundBlur_5338_8438"/></filter><filter id="filter16_f_5338_8438" x="482.945" y="261.738" width="375.355" height="130.639" filterUnits="userSpaceOnUse" color-interpolation-filters="sRGB"><feFlood flood-opacity="0" result="BackgroundImageFix"/><feBlend in="SourceGraphic" in2="BackgroundImageFix" result="shape"/><feGaussianBlur stdDeviation="12" result="effect1_foregroundBlur_5338_8438"/></filter></defs></svg>