<svg width="1330" height="966" viewBox="0 0 1330 966" fill="none" xmlns="http://www.w3.org/2000/svg">
<mask id="mask0_5033_11189" style="mask-type:alpha" maskUnits="userSpaceOnUse" x="0" y="0" width="1330" height="966">
<rect width="1330" height="966" fill="url(#paint0_linear_5033_11189)"/>
</mask>
<g mask="url(#mask0_5033_11189)">
<g opacity="0.3">
<rect x="429.074" y="210.123" width="623.97" height="2.02588" fill="url(#paint1_radial_5033_11189)" fill-opacity="0.3"/>
<rect x="398.691" y="125.037" width="846.817" height="2.02588" fill="url(#paint2_radial_5033_11189)" fill-opacity="0.3"/>
<rect x="254.859" y="39.9521" width="972.421" height="2.02588" fill="url(#paint3_radial_5033_11189)" fill-opacity="0.3"/>
<rect x="464.527" y="-418.909" width="623.97" height="2.02588" transform="rotate(90 464.527 -418.909)" fill="url(#paint4_radial_5033_11189)" fill-opacity="0.3"/>
<rect x="549.613" y="-449.299" width="846.817" height="2.02588" transform="rotate(90 549.613 -449.299)" fill="url(#paint5_radial_5033_11189)" fill-opacity="0.3"/>
<rect x="804.879" y="-629.602" width="1126.39" height="2.02588" transform="rotate(90 804.879 -629.602)" fill="url(#paint6_radial_5033_11189)" fill-opacity="0.3"/>
<rect x="889.965" y="-568.825" width="1004.84" height="2.02588" transform="rotate(90 889.965 -568.825)" fill="url(#paint7_radial_5033_11189)" fill-opacity="0.3"/>
<rect x="634.703" y="-593.138" width="972.421" height="2.02588" transform="rotate(90 634.703 -593.138)" fill="url(#paint8_radial_5033_11189)" fill-opacity="0.3"/>
<rect x="719.789" y="-670.12" width="1126.39" height="2.02588" transform="rotate(90 719.789 -670.12)" fill="url(#paint9_radial_5033_11189)" fill-opacity="0.3"/>
<rect x="975.047" y="-453.351" width="895.438" height="2.02588" transform="rotate(90 975.047 -453.351)" fill="url(#paint10_radial_5033_11189)" fill-opacity="0.3"/>
<rect x="1060.13" y="-475.634" width="737.419" height="2.02588" transform="rotate(90 1060.13 -475.634)" fill="url(#paint11_radial_5033_11189)" fill-opacity="0.3"/>
</g>
<g opacity="0.6">
<g opacity="0.3">
<g opacity="0.5" filter="url(#filter0_f_5033_11189)">
<ellipse rx="226.675" ry="232.553" transform="matrix(0.789532 0.61371 -0.939631 0.342188 649.113 -192.778)" fill="#AFD803"/>
</g>
<g opacity="0.5" filter="url(#filter1_f_5033_11189)">
<ellipse rx="153.501" ry="157.482" transform="matrix(0.789532 0.61371 -0.939631 0.342188 1157.51 -13.8014)" fill="#AFD803"/>
</g>
<g opacity="0.5" filter="url(#filter2_f_5033_11189)">
<ellipse rx="274.039" ry="281.511" transform="matrix(0.789532 0.61371 -0.939631 0.342188 226.908 31.0819)" fill="#E54033"/>
</g>
<g opacity="0.5" filter="url(#filter3_f_5033_11189)">
<ellipse rx="365.386" ry="375.931" transform="matrix(0.789532 0.61371 -0.939631 0.342188 796.989 222.902)" fill="#FECA1A" fill-opacity="0.8"/>
</g>
</g>
<g filter="url(#filter4_b_5033_11189)">
<ellipse cx="150.647" cy="143.721" rx="42" ry="42" transform="rotate(-116.485 150.647 143.721)" fill="url(#paint12_linear_5033_11189)"/>
</g>
<g filter="url(#filter5_b_5033_11189)">
<ellipse cx="333.684" cy="219.608" rx="16.4739" ry="16.4739" transform="rotate(-116.485 333.684 219.608)" fill="#5B48AD"/>
</g>
<g filter="url(#filter6_b_5033_11189)">
<ellipse cx="1009.61" cy="206.608" rx="40.377" ry="40.377" transform="rotate(78.5154 1009.61 206.608)" fill="url(#paint13_linear_5033_11189)"/>
</g>
<g filter="url(#filter7_b_5033_11189)">
<ellipse cx="1255.38" cy="287.393" rx="14.5711" ry="14.5711" transform="rotate(78.5154 1255.38 287.393)" fill="#FECA1A"/>
</g>
</g>
<path d="M929.224 525.449C980.887 525.449 1022.45 483.887 1022.45 432.224C1022.45 380.562 980.887 339 929.224 339C877.562 339 836 380.562 836 432.224C836 483.887 877.562 525.449 929.224 525.449Z" fill="#5949A6"/>
<path d="M1021.95 432.224C1021.95 483.61 980.61 524.949 929.224 524.949C877.838 524.949 836.5 483.61 836.5 432.224C836.5 380.838 877.838 339.5 929.224 339.5C980.61 339.5 1021.95 380.838 1021.95 432.224Z" stroke="url(#paint14_linear_5033_11189)" stroke-opacity="0.3"/>
<mask id="mask1_5033_11189" style="mask-type:alpha" maskUnits="userSpaceOnUse" x="836" y="339" width="187" height="187">
<path d="M929.224 525.449C980.887 525.449 1022.45 483.887 1022.45 432.224C1022.45 380.562 980.887 339 929.224 339C877.562 339 836 380.562 836 432.224C836 483.887 877.562 525.449 929.224 525.449Z" fill="#2775CA"/>
</mask>
<g mask="url(#mask1_5033_11189)">
<g filter="url(#filter8_f_5033_11189)">
<path d="M983.839 358.55C881.465 346.265 858.602 442.837 859.967 492.659C841.881 467.065 817.79 405.642 866.11 364.692C914.43 323.743 964.729 343.535 983.839 358.55Z" fill="white" fill-opacity="0.4"/>
</g>
</g>
<path d="M928.219 375.866V417.533L963.436 433.27L928.219 375.866Z" fill="white" fill-opacity="0.602"/>
<path d="M928.218 375.866L892.996 433.27L928.218 417.533V375.866Z" fill="white"/>
<path d="M928.219 460.271V488.583L963.459 439.828L928.219 460.271Z" fill="white" fill-opacity="0.602"/>
<path d="M928.218 488.583V460.266L892.996 439.828L928.218 488.583Z" fill="white"/>
<path d="M928.219 453.718L963.436 433.27L928.219 417.542V453.718Z" fill="white" fill-opacity="0.2"/>
<path d="M892.996 433.27L928.218 453.718V417.542L892.996 433.27Z" fill="white" fill-opacity="0.602"/>
<path d="M305.044 157.089C337.211 157.089 363.089 131.211 363.089 99.0445C363.089 66.878 337.211 41 305.044 41C272.878 41 247 66.878 247 99.0445C247 131.211 272.878 157.089 305.044 157.089Z" fill="#FFFCFB"/>
<path d="M362.589 99.0445C362.589 130.935 336.935 156.589 305.044 156.589C273.154 156.589 247.5 130.935 247.5 99.0445C247.5 67.1541 273.154 41.5 305.044 41.5C336.935 41.5 362.589 67.1541 362.589 99.0445Z" stroke="url(#paint15_linear_5033_11189)" stroke-opacity="0.39"/>
<mask id="mask2_5033_11189" style="mask-type:alpha" maskUnits="userSpaceOnUse" x="247" y="41" width="117" height="117">
<path d="M305.044 157.089C337.211 157.089 363.089 131.211 363.089 99.0445C363.089 66.878 337.211 41 305.044 41C272.878 41 247 66.878 247 99.0445C247 131.211 272.878 157.089 305.044 157.089Z" fill="#2775CA"/>
</mask>
<g mask="url(#mask2_5033_11189)">
<g filter="url(#filter9_f_5033_11189)">
<path d="M339.047 53.1721C275.306 45.5232 261.071 105.652 261.921 136.673C250.66 120.737 235.66 82.4929 265.746 56.9966C295.831 31.5003 327.149 43.8235 339.047 53.1721Z" fill="white" fill-opacity="0.6"/>
</g>
</g>
<path d="M280.73 113.831C281.164 113.396 281.762 113.143 282.396 113.143H339.875C340.925 113.143 341.45 114.41 340.708 115.153L329.353 126.507C328.919 126.942 328.321 127.196 327.687 127.196H270.208C269.158 127.196 268.633 125.928 269.375 125.185L280.73 113.831Z" fill="url(#paint16_linear_5033_11189)"/>
<path d="M280.73 71.4362C281.182 71.0016 281.78 70.748 282.396 70.748H339.875C340.925 70.748 341.45 72.0157 340.708 72.7582L329.353 84.1128C328.919 84.5474 328.321 84.8009 327.687 84.8009H270.208C269.158 84.8009 268.633 83.5333 269.375 82.7908L280.73 71.4362Z" fill="url(#paint17_linear_5033_11189)"/>
<path d="M329.353 92.4977C328.919 92.0631 328.321 91.8096 327.687 91.8096H270.208C269.158 91.8096 268.633 93.0772 269.375 93.8197L280.73 105.174C281.164 105.609 281.762 105.862 282.396 105.862H339.875C340.925 105.862 341.45 104.595 340.708 103.852L329.353 92.4977Z" fill="url(#paint18_linear_5033_11189)"/>
<g filter="url(#filter10_ii_5033_11189)">
<path d="M1226.41 201.376C1268.78 190.024 1293.73 146.81 1282.38 104.446C1271.02 62.0819 1227.81 37.1322 1185.45 48.4837C1143.08 59.8351 1118.13 103.049 1129.48 145.413C1140.84 187.777 1184.05 212.727 1226.41 201.376Z" fill="url(#paint19_radial_5033_11189)"/>
</g>
<g filter="url(#filter11_di_5033_11189)">
<path d="M1215.22 138.673C1213.36 152.408 1205.63 163.244 1193.94 167.703C1193.69 167.807 1190.47 168.948 1188.62 169.3C1205.67 175.903 1222.95 173.137 1222.95 173.137C1226.65 172.541 1230.81 171.752 1234.87 170.549C1235.3 166.402 1234.96 161.88 1233.42 157.057C1229.84 145.856 1234.86 138.268 1241.18 133.372C1236.02 128.705 1231.46 122.598 1227.88 116.697C1222.71 119.668 1216.9 126.214 1215.22 138.673Z" fill="url(#paint20_linear_5033_11189)"/>
<path d="M1233.17 157.038C1234.72 161.86 1234.92 166.53 1234.49 170.677C1244.97 167.569 1255.22 161.593 1254.96 149.362C1254.91 146.767 1254.27 144.101 1252.66 142.067C1251.09 140.085 1248.77 138.891 1246.63 137.542C1244.62 136.243 1242.72 134.781 1240.95 133.17C1234.64 138.066 1229.6 145.838 1233.17 157.038Z" fill="url(#paint21_linear_5033_11189)"/>
<path d="M1227.18 115.532C1224.39 111.625 1221.84 107.647 1218.66 104.167C1217.59 102.99 1216.45 101.888 1215.23 100.867C1212.3 98.4269 1209.25 96.1022 1205.87 94.3352C1201.2 95.6013 1196.1 96.1254 1191.02 95.031C1188.22 102.657 1185.96 114.924 1194.03 126.074C1205.93 142.542 1195.1 158.88 1188.07 169.082L1188.62 169.3C1190.37 168.976 1192.08 168.492 1193.73 167.853C1205.42 163.393 1213.67 152.206 1215.53 138.472C1217.21 126.013 1222.88 119.931 1228.04 116.961C1227.74 116.487 1227.45 116.01 1227.18 115.532Z" fill="url(#paint22_linear_5033_11189)"/>
<path d="M1161.07 107.067C1156.15 116.559 1155.35 128.269 1158.28 138.702C1159.99 144.773 1163.13 150.074 1167.17 154.633C1167.77 155.317 1168.4 155.984 1169.05 156.634C1179.75 138.019 1168.59 117.543 1161.07 107.067Z" fill="url(#paint23_linear_5033_11189)"/>
<path d="M1194.27 126.009C1186.21 114.853 1188.37 102.688 1191.17 95.0654C1187.78 94.3303 1184.56 92.9394 1181.71 90.9712C1178.17 91.8465 1174.81 93.3209 1171.77 95.3305C1166.92 98.5199 1163.25 102.821 1160.71 107.727C1168.07 117.973 1178.98 138.002 1168.52 156.208C1172.51 160.228 1177.23 163.601 1182.24 166.344C1184.22 167.424 1186.27 168.377 1188.37 169.198C1195.4 159 1206.18 142.476 1194.27 126.009Z" fill="url(#paint24_linear_5033_11189)"/>
</g>
<g filter="url(#filter12_di_5033_11189)">
<path d="M1200.43 78.3831C1211.39 79.638 1218.62 78.8372 1223.61 77.3374L1223.73 77.205C1196.41 50.245 1178.64 81.9956 1178.64 81.9956L1178.69 82.0488C1183.73 79.6944 1191.34 77.3434 1200.43 78.3831Z" fill="url(#paint25_linear_5033_11189)"/>
<path d="M1200.5 78.1283C1191.41 77.0921 1183.71 79.2865 1178.69 82.0496C1199.41 102.991 1221.79 79.3342 1223.61 77.3383C1218.61 78.839 1211.46 79.3832 1200.5 78.1283Z" fill="url(#paint26_linear_5033_11189)"/>
</g>
<mask id="mask3_5033_11189" style="mask-type:alpha" maskUnits="userSpaceOnUse" x="1126" y="45" width="160" height="160">
<path d="M1226.41 201.376C1268.78 190.024 1293.73 146.81 1282.38 104.446C1271.02 62.0819 1227.81 37.1322 1185.45 48.4837C1143.08 59.8351 1118.13 103.049 1129.48 145.413C1140.84 187.777 1184.05 212.727 1226.41 201.376Z" fill="#2775CA"/>
</mask>
<g mask="url(#mask3_5033_11189)">
<g filter="url(#filter13_f_5033_11189)">
<path d="M1234.52 52.5153C1147.88 64.9354 1150.35 149.15 1162.41 189.705C1141.96 172.692 1108.71 127.616 1139.33 83.42C1169.96 39.2237 1215.55 44.4018 1234.52 52.5153Z" fill="white"/>
</g>
</g>
</g>
<g filter="url(#filter14_bd_5033_11189)">
<rect x="461.008" y="142.451" width="451.848" height="354.693" rx="71" transform="rotate(9.90457 461.008 142.451)" fill="url(#paint27_linear_5033_11189)"/>
<rect x="461.821" y="143.608" width="449.848" height="352.693" rx="70" transform="rotate(9.90457 461.821 143.608)" stroke="url(#paint28_linear_5033_11189)" stroke-width="2"/>
</g>
<g filter="url(#filter15_d_5033_11189)">
<mask id="path-50-inside-1_5033_11189" fill="white">
<path fill-rule="evenodd" clip-rule="evenodd" d="M486.438 398.082C486.438 398.081 486.437 398.081 486.436 398.081V398.081C486.435 398.081 486.434 398.08 486.434 398.079L486.426 398.059C486.421 398.046 486.414 398.039 486.426 398.031C486.848 397.729 505.145 384.833 513.539 407.27C513.543 407.282 513.538 407.297 513.526 407.302L513.446 407.336C513.446 407.336 513.446 407.336 513.446 407.336V407.336C513.446 407.336 513.446 407.336 513.446 407.336C511.873 407.997 492.746 415.602 486.438 398.082ZM490.047 408.806C490.047 408.806 490.047 408.806 490.047 408.806V408.806C490.047 408.806 490.047 408.806 490.048 408.806C491.836 410.157 493.831 411.078 495.876 411.691C497.691 412.235 499.419 413.173 500.388 414.801C501.117 416.027 501.761 417.305 502.372 418.595C502.798 419.504 503.162 420.442 503.461 421.4C504.155 423.599 504.553 425.866 504.955 428.16L504.955 428.16L504.955 428.16L504.955 428.16L504.955 428.16C505.073 428.833 505.191 429.508 505.318 430.184C505.344 430.467 505.374 430.751 505.408 431.035C505.408 431.039 505.412 431.042 505.416 431.042V431.042C505.42 431.041 505.423 431.044 505.423 431.048C505.906 435.382 506.893 440.093 508.61 444.14C508.61 444.142 508.609 444.143 508.608 444.144V444.144C508.606 444.144 508.605 444.146 508.606 444.147C509.176 445.477 509.85 446.761 510.622 447.985C510.775 448.221 510.932 448.457 511.09 448.693L511.09 448.693L511.09 448.693L511.09 448.693L511.09 448.693C511.827 449.795 512.569 450.905 512.875 452.185C513.257 453.78 512.91 455.477 512.251 456.98C509.141 464.058 501.68 464.76 494.841 463.751C494.839 463.751 494.838 463.748 494.839 463.746V463.746C494.84 463.744 494.839 463.741 494.837 463.741C492.279 463.346 489.781 462.714 487.576 462.092C487.574 462.092 487.575 462.092 487.573 462.092C487.521 462.077 476.913 459.057 468.916 450.759C468.913 450.756 468.91 450.754 468.906 450.753V450.753C468.902 450.752 468.898 450.75 468.895 450.747L468.642 450.48C468.642 450.48 468.642 450.479 468.642 450.479V450.479C468.643 450.478 468.643 450.478 468.643 450.477C467.71 449.492 466.839 448.45 466.032 447.359C463.89 444.457 462.089 441.276 460.87 437.917C460.866 437.904 460.87 437.889 460.882 437.881V437.881C460.893 437.873 460.898 437.858 460.893 437.845C460.754 437.442 460.623 437.037 460.501 436.63C459.398 432.94 459.01 429.065 459.649 425.13C460.719 418.528 464.151 412.175 469.289 408.031C469.292 408.029 469.293 408.025 469.292 408.022V408.022C469.292 408.019 469.293 408.016 469.295 408.014C469.416 407.921 469.536 407.829 469.658 407.739L469.667 407.733C469.667 407.732 469.667 407.732 469.667 407.733V407.733C469.667 407.733 469.667 407.733 469.667 407.733C472.348 405.749 475.466 404.367 478.934 403.854C480.486 403.62 482.058 403.568 483.617 403.698C485.009 403.814 486.167 404.713 487.027 405.813C487.901 406.932 488.915 407.938 490.047 408.806Z"/>
</mask>
<path fill-rule="evenodd" clip-rule="evenodd" d="M486.438 398.082C486.438 398.081 486.437 398.081 486.436 398.081V398.081C486.435 398.081 486.434 398.08 486.434 398.079L486.426 398.059C486.421 398.046 486.414 398.039 486.426 398.031C486.848 397.729 505.145 384.833 513.539 407.27C513.543 407.282 513.538 407.297 513.526 407.302L513.446 407.336C513.446 407.336 513.446 407.336 513.446 407.336V407.336C513.446 407.336 513.446 407.336 513.446 407.336C511.873 407.997 492.746 415.602 486.438 398.082ZM490.047 408.806C490.047 408.806 490.047 408.806 490.047 408.806V408.806C490.047 408.806 490.047 408.806 490.048 408.806C491.836 410.157 493.831 411.078 495.876 411.691C497.691 412.235 499.419 413.173 500.388 414.801C501.117 416.027 501.761 417.305 502.372 418.595C502.798 419.504 503.162 420.442 503.461 421.4C504.155 423.599 504.553 425.866 504.955 428.16L504.955 428.16L504.955 428.16L504.955 428.16L504.955 428.16C505.073 428.833 505.191 429.508 505.318 430.184C505.344 430.467 505.374 430.751 505.408 431.035C505.408 431.039 505.412 431.042 505.416 431.042V431.042C505.42 431.041 505.423 431.044 505.423 431.048C505.906 435.382 506.893 440.093 508.61 444.14C508.61 444.142 508.609 444.143 508.608 444.144V444.144C508.606 444.144 508.605 444.146 508.606 444.147C509.176 445.477 509.85 446.761 510.622 447.985C510.775 448.221 510.932 448.457 511.09 448.693L511.09 448.693L511.09 448.693L511.09 448.693L511.09 448.693C511.827 449.795 512.569 450.905 512.875 452.185C513.257 453.78 512.91 455.477 512.251 456.98C509.141 464.058 501.68 464.76 494.841 463.751C494.839 463.751 494.838 463.748 494.839 463.746V463.746C494.84 463.744 494.839 463.741 494.837 463.741C492.279 463.346 489.781 462.714 487.576 462.092C487.574 462.092 487.575 462.092 487.573 462.092C487.521 462.077 476.913 459.057 468.916 450.759C468.913 450.756 468.91 450.754 468.906 450.753V450.753C468.902 450.752 468.898 450.75 468.895 450.747L468.642 450.48C468.642 450.48 468.642 450.479 468.642 450.479V450.479C468.643 450.478 468.643 450.478 468.643 450.477C467.71 449.492 466.839 448.45 466.032 447.359C463.89 444.457 462.089 441.276 460.87 437.917C460.866 437.904 460.87 437.889 460.882 437.881V437.881C460.893 437.873 460.898 437.858 460.893 437.845C460.754 437.442 460.623 437.037 460.501 436.63C459.398 432.94 459.01 429.065 459.649 425.13C460.719 418.528 464.151 412.175 469.289 408.031C469.292 408.029 469.293 408.025 469.292 408.022V408.022C469.292 408.019 469.293 408.016 469.295 408.014C469.416 407.921 469.536 407.829 469.658 407.739L469.667 407.733C469.667 407.732 469.667 407.732 469.667 407.733V407.733C469.667 407.733 469.667 407.733 469.667 407.733C472.348 405.749 475.466 404.367 478.934 403.854C480.486 403.62 482.058 403.568 483.617 403.698C485.009 403.814 486.167 404.713 487.027 405.813C487.901 406.932 488.915 407.938 490.047 408.806Z" fill="url(#paint29_linear_5033_11189)" fill-opacity="0.1" shape-rendering="crispEdges"/>
<path d="M502.372 418.595L503.277 418.171L503.276 418.167L502.372 418.595ZM503.461 421.4L502.506 421.698L502.507 421.702L503.461 421.4ZM504.955 428.16L505.944 428.012L505.942 427.999L505.94 427.987L504.955 428.16ZM504.955 428.16L505.944 428.012L505.944 428.012L504.955 428.16ZM504.955 428.16L503.966 428.308L503.966 428.308L504.955 428.16ZM504.955 428.16L505.944 428.012L505.944 428.012L504.955 428.16ZM504.955 428.16L503.966 428.308L503.968 428.321L503.97 428.333L504.955 428.16ZM505.318 430.184L506.313 430.09L506.309 430.045L506.301 430.001L505.318 430.184ZM510.622 447.985L509.776 448.518L509.782 448.527L510.622 447.985ZM511.09 448.693L510.258 449.248L510.265 449.258L510.272 449.268L511.09 448.693ZM511.09 448.693L511.94 448.167L511.925 448.142L511.908 448.118L511.09 448.693ZM511.09 448.693L511.941 448.167L511.941 448.167L511.09 448.693ZM511.09 448.693L510.24 449.219L510.249 449.234L510.259 449.249L511.09 448.693ZM512.875 452.185L513.848 451.952L513.848 451.952L512.875 452.185ZM512.251 456.98L513.166 457.382L513.166 457.382L512.251 456.98ZM466.032 447.359L465.228 447.953L465.228 447.953L466.032 447.359ZM460.501 436.63L461.459 436.343L461.459 436.343L460.501 436.63ZM459.649 425.13L460.636 425.291L460.636 425.29L459.649 425.13ZM469.658 407.739L470.254 408.543L470.262 408.536L470.27 408.53L469.658 407.739ZM478.934 403.854L479.08 404.843L479.083 404.843L478.934 403.854ZM469.667 407.733L470.262 408.536L469.667 407.733ZM469.667 407.733L470.279 408.524L469.667 407.733ZM469.295 408.014L468.684 407.222L469.295 408.014ZM460.893 437.845L459.948 438.172L460.893 437.845ZM460.87 437.917L461.811 437.576L460.87 437.917ZM468.643 450.477L467.916 451.164L468.643 450.477ZM468.642 450.48L467.917 451.168L468.642 450.48ZM468.895 450.747L468.17 451.435L468.895 450.747ZM468.916 450.759L468.196 451.453L468.916 450.759ZM508.606 444.147L509.525 443.754L508.606 444.147ZM508.61 444.14L509.53 443.75L508.61 444.14ZM487.576 462.092L487.847 461.13L487.576 462.092ZM487.573 462.092L487.846 461.13L487.573 462.092ZM495.876 411.691L495.589 412.649L495.876 411.691ZM500.388 414.801L499.529 415.313L500.388 414.801ZM469.289 408.031L468.661 407.252L469.289 408.031ZM505.423 431.048L506.417 430.937L505.423 431.048ZM494.837 463.741L494.684 464.729L494.837 463.741ZM490.047 408.806L489.438 409.599L490.047 408.806ZM505.408 431.035L504.414 431.151L505.408 431.035ZM494.841 463.751L494.695 464.74L494.841 463.751ZM490.047 408.806L490.752 409.515L490.047 408.806ZM490.048 408.806L489.445 409.604L490.048 408.806ZM513.446 407.336L513.058 406.414L513.446 407.336ZM513.446 407.336L513.835 408.257L513.446 407.336ZM513.539 407.27L512.602 407.62L513.539 407.27ZM513.526 407.302L513.137 406.38L513.526 407.302ZM486.426 398.059L487.368 397.722L486.426 398.059ZM486.426 398.031L485.845 397.217L486.426 398.031ZM486.434 398.079L487.375 397.742L486.434 398.079ZM483.617 403.698L483.701 402.702L483.617 403.698ZM486.436 398.081L486.438 399.081L486.436 398.081ZM486.438 398.082L487.379 397.743L486.438 398.082ZM487.375 397.742L487.368 397.722L485.485 398.397L485.492 398.417L487.375 397.742ZM487.007 398.845C487.19 398.714 491.682 395.554 497.073 395.12C499.736 394.906 502.587 395.359 505.265 397.15C507.948 398.945 510.556 402.15 512.602 407.62L514.475 406.92C512.325 401.171 509.498 397.575 506.377 395.487C503.25 393.395 499.926 392.884 496.913 393.127C490.951 393.607 486.083 397.047 485.845 397.217L487.007 398.845ZM513.137 406.38L513.057 406.414L513.835 408.257L513.915 408.223L513.137 406.38ZM485.497 398.421C487.141 402.986 489.648 405.982 492.557 407.853C495.453 409.717 498.673 410.419 501.682 410.526C507.67 410.74 513.008 408.605 513.834 408.257L513.058 406.414C512.311 406.728 507.299 408.726 501.753 408.528C498.995 408.429 496.153 407.789 493.639 406.171C491.138 404.562 488.889 401.939 487.379 397.743L485.497 398.421ZM496.163 410.733C494.21 410.147 492.328 409.275 490.65 408.008L489.445 409.604C491.345 411.039 493.452 412.008 495.589 412.649L496.163 410.733ZM503.276 418.167C502.659 416.864 502 415.554 501.248 414.29L499.529 415.313C500.235 416.499 500.864 417.746 501.467 419.022L503.276 418.167ZM504.415 421.103C504.103 420.101 503.722 419.121 503.277 418.171L501.466 419.019C501.873 419.888 502.22 420.783 502.506 421.698L504.415 421.103ZM505.94 427.987C505.54 425.704 505.132 423.371 504.414 421.099L502.507 421.702C503.179 423.826 503.566 426.028 503.97 428.333L505.94 427.987ZM505.944 428.012L505.944 428.012L503.966 428.308L503.966 428.308L505.944 428.012ZM505.944 428.012L505.944 428.012L503.966 428.308L503.966 428.308L505.944 428.012ZM505.944 428.012L505.944 428.012L503.966 428.308L503.966 428.308L505.944 428.012ZM505.944 428.012L505.944 428.012L503.966 428.308L503.966 428.308L505.944 428.012ZM506.301 430.001C506.176 429.331 506.058 428.661 505.94 427.987L503.97 428.333C504.088 429.005 504.207 429.685 504.335 430.368L506.301 430.001ZM506.401 430.919C506.369 430.642 506.339 430.366 506.313 430.09L504.322 430.278C504.35 430.569 504.38 430.86 504.414 431.151L506.401 430.919ZM509.53 443.75C507.864 439.82 506.894 435.212 506.417 430.937L504.43 431.159C504.919 435.551 505.922 440.365 507.689 444.531L509.53 443.75ZM511.467 447.451C510.723 446.272 510.074 445.035 509.525 443.754L507.687 444.541C508.277 445.919 508.976 447.249 509.776 448.518L511.467 447.451ZM511.921 448.137C511.763 447.9 511.61 447.671 511.462 447.442L509.782 448.527C509.94 448.772 510.101 449.014 510.258 449.248L511.921 448.137ZM511.908 448.118L511.908 448.118L510.272 449.268L510.272 449.268L511.908 448.118ZM511.94 448.167L511.94 448.167L510.239 449.219L510.239 449.219L511.94 448.167ZM511.941 448.167L511.94 448.167L510.239 449.219L510.239 449.219L511.941 448.167ZM511.941 448.167L511.941 448.167L510.239 449.219L510.24 449.219L511.941 448.167ZM513.848 451.952C513.492 450.468 512.639 449.211 511.921 448.137L510.259 449.249C511.014 450.379 511.645 451.342 511.903 452.418L513.848 451.952ZM513.166 457.382C513.877 455.763 514.298 453.833 513.848 451.952L511.903 452.418C512.216 453.727 511.943 455.192 511.335 456.578L513.166 457.382ZM494.695 464.74C498.181 465.254 501.922 465.35 505.232 464.356C508.585 463.348 511.479 461.222 513.166 457.382L511.335 456.577C509.913 459.815 507.522 461.58 504.657 462.44C501.749 463.314 498.341 463.256 494.987 462.762L494.695 464.74ZM487.304 463.055C489.526 463.682 492.068 464.326 494.684 464.729L494.989 462.753C492.489 462.367 490.036 461.747 487.847 461.13L487.304 463.055ZM468.196 451.453C476.384 459.949 487.207 463.027 487.3 463.054L487.846 461.13C487.859 461.133 485.254 460.394 481.664 458.634C478.071 456.872 473.528 454.104 469.636 450.065L468.196 451.453ZM467.917 451.168L468.17 451.435L469.621 450.059L469.368 449.792L467.917 451.168ZM465.228 447.953C466.059 449.077 466.956 450.149 467.916 451.164L469.369 449.79C468.465 448.834 467.619 447.823 466.837 446.765L465.228 447.953ZM459.93 438.258C461.187 441.722 463.039 444.987 465.228 447.953L466.837 446.765C464.742 443.927 462.99 440.83 461.811 437.576L459.93 438.258ZM459.543 436.916C459.669 437.337 459.804 437.756 459.948 438.172L461.838 437.517C461.703 437.128 461.577 436.737 461.459 436.343L459.543 436.916ZM458.662 424.97C457.995 429.075 458.403 433.103 459.543 436.916L461.459 436.343C460.393 432.777 460.024 429.056 460.636 425.291L458.662 424.97ZM468.661 407.252C463.312 411.567 459.767 418.151 458.661 424.97L460.636 425.29C461.671 418.906 464.99 412.783 469.917 408.809L468.661 407.252ZM469.063 406.935C468.936 407.03 468.809 407.125 468.684 407.222L469.907 408.805C470.022 408.716 470.137 408.629 470.254 408.543L469.063 406.935ZM469.055 406.941L469.047 406.948L470.27 408.53L470.279 408.524L469.055 406.941ZM478.787 402.865C475.144 403.403 471.874 404.855 469.072 406.929L470.262 408.536C472.821 406.642 475.788 405.33 479.08 404.843L478.787 402.865ZM483.701 402.702C482.064 402.565 480.414 402.619 478.785 402.865L479.083 404.843C480.558 404.62 482.052 404.571 483.534 404.695L483.701 402.702ZM490.655 408.012C489.591 407.196 488.637 406.25 487.815 405.197L486.239 406.429C487.165 407.614 488.239 408.68 489.438 409.599L490.655 408.012ZM468.684 407.919C468.822 408.643 469.669 408.975 470.262 408.536L469.072 406.929C469.665 406.49 470.512 406.822 470.649 407.546L468.684 407.919ZM470.279 408.524C469.688 408.98 468.824 408.652 468.684 407.919L470.649 407.546C470.51 406.813 469.645 406.485 469.055 406.941L470.279 408.524ZM470.274 407.835C470.344 408.202 470.202 408.577 469.907 408.805L468.684 407.222C468.383 407.455 468.239 407.836 468.31 408.209L470.274 407.835ZM461.459 438.697C461.834 438.432 461.988 437.951 461.838 437.517L459.948 438.172C459.807 437.765 459.952 437.313 460.304 437.064L461.459 438.697ZM461.811 437.576C461.959 437.987 461.815 438.445 461.459 438.697L460.304 437.064C459.926 437.332 459.772 437.82 459.93 438.258L461.811 437.576ZM469.151 451.34C469.704 451.013 469.81 450.257 469.369 449.79L467.916 451.164C467.476 450.699 467.581 449.944 468.134 449.618L469.151 451.34ZM469.368 449.792C469.81 450.258 469.704 451.013 469.151 451.34L468.134 449.618C467.58 449.944 467.474 450.701 467.917 451.168L469.368 449.792ZM469.155 449.785C469.333 449.83 469.495 449.925 469.621 450.059L468.17 451.435C468.302 451.574 468.471 451.674 468.657 451.721L469.155 449.785ZM469.636 450.065C469.506 449.93 469.34 449.832 469.155 449.785L468.657 451.721C468.48 451.676 468.321 451.582 468.196 451.453L469.636 450.065ZM508.385 443.169C507.775 443.308 507.44 443.966 507.687 444.541L509.525 443.754C509.77 444.326 509.437 444.98 508.831 445.119L508.385 443.169ZM507.689 444.531C507.445 443.956 507.783 443.306 508.385 443.169L508.831 445.119C509.435 444.98 509.775 444.328 509.53 443.75L507.689 444.531ZM487.847 461.13C487.846 461.129 487.845 461.129 487.845 461.129C487.846 461.13 487.847 461.13 487.846 461.13L487.3 463.054C487.301 463.054 487.302 463.054 487.304 463.055C487.305 463.055 487.304 463.055 487.304 463.055L487.847 461.13ZM495.589 412.649C497.296 413.16 498.745 413.995 499.529 415.313L501.248 414.29C500.094 412.352 498.085 411.309 496.163 410.733L495.589 412.649ZM469.917 408.809C470.207 408.575 470.344 408.201 470.274 407.835L468.31 408.209C468.241 407.85 468.376 407.482 468.661 407.252L469.917 408.809ZM505.503 432.038C504.97 432.085 504.49 431.699 504.43 431.159L506.417 430.937C506.356 430.39 505.869 429.998 505.328 430.046L505.503 432.038ZM495.698 464.259C496.063 463.647 495.692 462.861 494.989 462.753L494.684 464.729C493.986 464.622 493.618 463.841 493.98 463.233L495.698 464.259ZM489.342 408.097C489.697 407.744 490.258 407.708 490.655 408.012L489.438 409.599C489.836 409.904 490.397 409.868 490.752 409.515L489.342 408.097ZM504.414 431.151C504.478 431.693 504.96 432.086 505.503 432.038L505.328 430.046C505.863 429.999 506.339 430.386 506.401 430.919L504.414 431.151ZM494.987 462.762C495.693 462.866 496.06 463.652 495.698 464.259L493.98 463.233C493.616 463.844 493.985 464.636 494.695 464.74L494.987 462.762ZM490.752 409.515C490.399 409.866 489.841 409.903 489.445 409.604L490.65 408.008C490.254 407.708 489.696 407.745 489.342 408.097L490.752 409.515ZM513.306 408.326C513.069 408.292 512.831 408.171 512.661 407.956C512.58 407.853 512.398 407.577 512.457 407.187C512.526 406.728 512.859 406.498 513.058 406.414L513.834 408.257C514.033 408.174 514.366 407.943 514.435 407.485C514.493 407.095 514.312 406.819 514.23 406.716C514.06 406.5 513.823 406.379 513.586 406.345L513.306 408.326ZM513.057 406.414C512.126 406.807 512.297 408.183 513.306 408.326L513.586 406.345C514.594 406.488 514.766 407.864 513.835 408.257L513.057 406.414ZM512.602 407.62C512.435 407.175 512.613 406.602 513.137 406.38L513.915 408.223C514.463 407.992 514.651 407.39 514.475 406.92L512.602 407.62ZM487.368 397.722C487.349 397.668 487.327 397.623 487.33 397.63C487.33 397.63 487.332 397.635 487.335 397.64C487.337 397.646 487.342 397.657 487.347 397.67C487.357 397.694 487.376 397.742 487.391 397.806C487.426 397.949 487.447 398.181 487.338 398.434C487.239 398.662 487.083 398.79 487.007 398.845L485.845 397.217C485.762 397.276 485.603 397.407 485.502 397.64C485.391 397.897 485.412 398.133 485.448 398.28C485.464 398.346 485.484 398.397 485.494 398.423C485.505 398.449 485.515 398.47 485.515 398.47C485.521 398.483 485.502 398.443 485.485 398.397L487.368 397.722ZM486.433 397.081C486.855 397.08 487.232 397.344 487.375 397.742L485.492 398.417C485.635 398.816 486.014 399.082 486.438 399.081L486.433 397.081ZM483.534 404.695C484.534 404.778 485.464 405.437 486.239 406.429L487.815 405.197C486.87 403.988 485.484 402.85 483.701 402.702L483.534 404.695ZM486.438 399.081C485.991 399.082 485.631 398.793 485.497 398.421L487.379 397.743C487.244 397.37 486.883 397.079 486.433 397.081L486.438 399.081Z" fill="url(#paint30_linear_5033_11189)" fill-opacity="0.5" mask="url(#path-50-inside-1_5033_11189)"/>
</g>
<g filter="url(#filter16_d_5033_11189)">
<path d="M458.717 220.367C464.818 184.29 499.102 160.062 535.145 166.356L828.956 217.658C864.728 223.904 888.735 257.875 882.68 293.68L848.995 492.859C842.894 528.935 808.609 553.163 772.566 546.87L478.756 495.567C442.983 489.321 418.977 455.35 425.032 419.545L458.717 220.367Z" stroke="url(#paint31_linear_5033_11189)" stroke-opacity="0.3" stroke-width="3" stroke-linecap="round" stroke-dasharray="11 11" shape-rendering="crispEdges"/>
</g>
<g opacity="0.4">
<mask id="path-53-inside-2_5033_11189" fill="white">
<path fill-rule="evenodd" clip-rule="evenodd" d="M524.787 189.594C510.523 187.104 496.942 196.648 494.452 210.911C491.961 225.174 501.505 238.755 515.768 241.246L574.324 251.47C590.646 254.32 601.235 273.436 614.909 282.792C617.907 284.843 621.382 286.3 625.193 286.966L701.151 300.229C704.963 300.894 708.726 300.7 712.241 299.787C728.277 295.619 744.718 281.223 761.039 284.073L819.599 294.298C833.863 296.788 847.444 287.245 849.935 272.982C852.425 258.718 842.881 245.137 828.618 242.646L524.787 189.594Z"/>
</mask>
<g filter="url(#filter17_i_5033_11189)">
<path fill-rule="evenodd" clip-rule="evenodd" d="M524.787 189.594C510.523 187.104 496.942 196.648 494.452 210.911C491.961 225.174 501.505 238.755 515.768 241.246L574.324 251.47C590.646 254.32 601.235 273.436 614.909 282.792C617.907 284.843 621.382 286.3 625.193 286.966L701.151 300.229C704.963 300.894 708.726 300.7 712.241 299.787C728.277 295.619 744.718 281.223 761.039 284.073L819.599 294.298C833.863 296.788 847.444 287.245 849.935 272.982C852.425 258.718 842.881 245.137 828.618 242.646L524.787 189.594Z" fill="url(#paint32_linear_5033_11189)"/>
</g>
<path d="M524.787 189.594L525.131 187.624L524.787 189.594ZM515.768 241.246L516.112 239.276L516.112 239.276L515.768 241.246ZM625.193 286.966L624.849 288.936L625.193 286.966ZM701.151 300.229L701.495 298.259L701.151 300.229ZM819.599 294.298L819.944 292.328L819.944 292.328L819.599 294.298ZM828.618 242.646L828.274 244.617L828.618 242.646ZM712.241 299.787L711.738 297.851L712.241 299.787ZM614.909 282.792L613.78 284.442L614.909 282.792ZM496.422 211.255C498.722 198.08 511.268 189.264 524.443 191.565L525.131 187.624C509.779 184.944 495.162 195.215 492.481 210.567L496.422 211.255ZM516.112 239.276C502.937 236.975 494.121 224.43 496.422 211.255L492.481 210.567C489.801 225.918 500.073 240.535 515.424 243.216L516.112 239.276ZM574.668 249.5L516.112 239.276L515.424 243.216L573.98 253.441L574.668 249.5ZM625.537 284.996C622.013 284.38 618.805 283.034 616.039 281.141L613.78 284.442C617.009 286.651 620.751 288.22 624.849 288.936L625.537 284.996ZM701.495 298.259L625.537 284.996L624.849 288.936L700.807 302.199L701.495 298.259ZM711.738 297.851C708.494 298.694 705.02 298.874 701.495 298.259L700.807 302.199C704.906 302.915 708.958 302.707 712.745 301.722L711.738 297.851ZM819.944 292.328L761.383 282.103L760.695 286.043L819.255 296.268L819.944 292.328ZM847.964 272.638C845.664 285.813 833.119 294.628 819.944 292.328L819.255 296.268C834.607 298.949 849.224 288.677 851.905 273.326L847.964 272.638ZM828.274 244.617C841.449 246.917 850.265 259.463 847.964 272.638L851.905 273.326C854.585 257.974 844.314 243.357 828.962 240.676L828.274 244.617ZM524.443 191.565L828.274 244.617L828.962 240.676L525.131 187.624L524.443 191.565ZM712.745 301.722C720.993 299.579 729.454 294.768 737.371 291.114C745.496 287.364 753.19 284.732 760.695 286.043L761.383 282.103C752.567 280.563 743.88 283.705 735.695 287.482C727.303 291.356 719.526 295.827 711.738 297.851L712.745 301.722ZM573.98 253.441C581.486 254.751 587.832 259.834 594.206 266.116C600.416 272.237 606.746 279.63 613.78 284.442L616.039 281.141C609.398 276.598 603.596 269.755 597.013 263.267C590.593 256.939 583.485 251.04 574.668 249.5L573.98 253.441Z" fill="url(#paint33_linear_5033_11189)" mask="url(#path-53-inside-2_5033_11189)"/>
</g>
<mask id="mask4_5033_11189" style="mask-type:alpha" maskUnits="userSpaceOnUse" x="492" y="25" width="382" height="274">
<path fill-rule="evenodd" clip-rule="evenodd" d="M597.612 26.7227C559.555 20.0775 523.309 45.5205 516.626 83.5713L493.015 218.015C491.39 227.269 497.58 236.086 506.835 237.702L574.952 249.596C591.185 252.43 601.726 271.33 615.294 280.682C618.316 282.765 621.824 284.244 625.675 284.917L701.621 298.178C705.412 298.84 709.154 298.65 712.652 297.747C728.652 293.616 745.051 279.297 761.33 282.139L828.825 293.925C838.067 295.539 846.87 289.36 848.493 280.119L872.086 145.777C878.778 107.674 853.292 71.367 815.181 64.7126L597.612 26.7227Z" fill="url(#paint34_linear_5033_11189)"/>
</mask>
<g mask="url(#mask4_5033_11189)">
<path d="M667.105 363.505C751.876 370.177 825.443 307.346 832.115 222.575C838.787 137.804 775.956 64.2373 691.185 57.5652C606.413 50.8931 532.847 113.724 526.175 198.495C519.503 283.266 582.334 356.833 667.105 363.505Z" fill="#2775CA"/>
<path d="M831.616 222.536C824.966 307.032 751.64 369.657 667.144 363.006C582.648 356.356 520.023 283.03 526.673 198.534C533.324 114.038 606.649 51.4132 691.145 58.0637C775.641 64.7141 838.267 138.04 831.616 222.536Z" stroke="url(#paint35_linear_5033_11189)" stroke-opacity="0.3"/>
<mask id="mask5_5033_11189" style="mask-type:alpha" maskUnits="userSpaceOnUse" x="525" y="57" width="308" height="307">
<path d="M667.105 363.504C751.876 370.176 825.443 307.346 832.115 222.574C838.787 137.803 775.956 64.2368 691.185 57.5647C606.413 50.8926 532.847 113.723 526.175 198.495C519.503 283.266 582.334 356.832 667.105 363.504Z" fill="#2775CA"/>
</mask>
<g mask="url(#mask5_5033_11189)">
<g filter="url(#filter18_f_5033_11189)">
<path d="M778.274 96.6971C611.879 63.3179 561.891 218.828 557.696 300.755C531.325 256.424 499.726 152.524 584.302 91.5715C668.878 30.6193 748.857 69.5918 778.274 96.6971Z" fill="white" fill-opacity="0.4"/>
</g>
</g>
<path d="M719.308 238.064C721.064 215.757 708.281 207.055 681.762 201.761C662.842 197.706 659.419 192.307 660.121 183.383C660.824 174.458 667.649 169.225 680.396 170.228C691.869 171.131 697.942 175.457 700.376 185.269C700.863 187.231 702.675 188.656 704.587 188.806L714.784 189.609C717.334 189.81 719.397 188.048 719.598 185.5L719.648 184.862C718.201 170.638 707.582 158.9 693.023 156.472L694.227 141.175C694.427 138.625 692.666 136.563 689.53 135.674L679.969 134.922C677.419 134.721 675.356 136.482 674.468 139.62L673.314 154.279C653.992 155.324 640.88 167.118 639.625 183.053C637.97 204.086 650.065 213.375 676.584 218.669C694.18 223.26 699.615 227.536 698.812 237.735C698.01 247.933 688.534 254.241 676.425 253.288C659.852 251.984 654.667 244.52 653.508 234.809C653.072 232.211 651.26 230.784 649.348 230.634L638.512 229.781C635.963 229.58 633.901 231.342 633.7 233.892L633.65 234.53C634.944 250.664 644.24 262.939 665.022 267.783L663.818 283.08C663.618 285.628 665.379 287.691 668.515 288.579L678.076 289.332C680.626 289.533 682.689 287.771 683.577 284.635L684.781 269.338C704.153 267.655 717.954 255.273 719.308 238.064V238.064Z" fill="white"/>
<path d="M639.475 299.122C591.165 277.364 570.033 219.905 592.381 172.281C604.049 146.264 626.687 127.524 653.572 120.02C656.222 118.947 657.647 117.135 657.898 113.947L658.6 105.024C658.801 102.474 657.677 100.462 655.177 99.6248C654.539 99.5746 653.265 99.4743 652.577 100.06C590.522 114.416 552.311 176.183 566.667 238.238C575.33 274.834 600.581 304.398 635.37 318.68C637.82 320.155 640.47 319.082 641.307 316.582C641.995 315.996 642.045 315.358 642.145 314.084L642.848 305.159C642.998 303.247 641.287 300.548 639.475 299.122ZM722.689 105.579C720.239 104.104 717.589 105.177 716.752 107.677C716.064 108.265 716.014 108.901 715.913 110.177L715.211 119.1C715.01 121.65 716.722 124.349 718.534 125.775C766.844 147.533 787.975 204.992 765.628 252.616C753.96 278.633 731.321 297.373 704.437 304.877C701.787 305.95 700.362 307.762 700.111 310.95L699.409 319.873C699.208 322.423 700.332 324.435 702.832 325.272C703.47 325.322 704.744 325.423 705.432 324.837C767.487 310.481 805.698 248.714 791.342 186.659C782.729 149.426 756.841 119.811 722.689 105.579V105.579Z" fill="white"/>
<g opacity="0.61" filter="url(#filter19_f_5033_11189)">
<path d="M623.124 276.428L578.272 251.269L529.285 240.155L508.91 226.741L506.944 251.446L617.662 294.26L704.254 309.38L826.233 305.631L834.3 257.598L777.466 262.666L707.437 291.15L623.124 276.428Z" fill="#1E1927"/>
</g>
</g>
<defs>
<filter id="filter0_f_5033_11189" x="-197.344" y="-917.07" width="1692.91" height="1448.58" filterUnits="userSpaceOnUse" color-interpolation-filters="sRGB">
<feFlood flood-opacity="0" result="BackgroundImageFix"/>
<feBlend mode="normal" in="SourceGraphic" in2="BackgroundImageFix" result="shape"/>
<feGaussianBlur stdDeviation="282" result="effect1_foregroundBlur_5033_11189"/>
</filter>
<filter id="filter1_f_5033_11189" x="402.23" y="-686.349" width="1510.55" height="1345.1" filterUnits="userSpaceOnUse" color-interpolation-filters="sRGB">
<feFlood flood-opacity="0" result="BackgroundImageFix"/>
<feBlend mode="normal" in="SourceGraphic" in2="BackgroundImageFix" result="shape"/>
<feGaussianBlur stdDeviation="282" result="effect1_foregroundBlur_5033_11189"/>
</filter>
<filter id="filter2_f_5033_11189" x="-678.836" y="-726.766" width="1811.49" height="1515.7" filterUnits="userSpaceOnUse" color-interpolation-filters="sRGB">
<feFlood flood-opacity="0" result="BackgroundImageFix"/>
<feBlend mode="normal" in="SourceGraphic" in2="BackgroundImageFix" result="shape"/>
<feGaussianBlur stdDeviation="282" result="effect1_foregroundBlur_5033_11189"/>
</filter>
<filter id="filter3_f_5033_11189" x="-223.094" y="-599.661" width="2040.16" height="1645.13" filterUnits="userSpaceOnUse" color-interpolation-filters="sRGB">
<feFlood flood-opacity="0" result="BackgroundImageFix"/>
<feBlend mode="normal" in="SourceGraphic" in2="BackgroundImageFix" result="shape"/>
<feGaussianBlur stdDeviation="282" result="effect1_foregroundBlur_5033_11189"/>
</filter>
<filter id="filter4_b_5033_11189" x="54.6367" y="47.7124" width="192.02" height="192.019" filterUnits="userSpaceOnUse" color-interpolation-filters="sRGB">
<feFlood flood-opacity="0" result="BackgroundImageFix"/>
<feGaussianBlur in="BackgroundImageFix" stdDeviation="27"/>
<feComposite in2="SourceAlpha" operator="in" result="effect1_backgroundBlur_5033_11189"/>
<feBlend mode="normal" in="SourceGraphic" in2="effect1_backgroundBlur_5033_11189" result="shape"/>
</filter>
<filter id="filter5_b_5033_11189" x="263.207" y="149.13" width="140.953" height="140.955" filterUnits="userSpaceOnUse" color-interpolation-filters="sRGB">
<feFlood flood-opacity="0" result="BackgroundImageFix"/>
<feGaussianBlur in="BackgroundImageFix" stdDeviation="27"/>
<feComposite in2="SourceAlpha" operator="in" result="effect1_backgroundBlur_5033_11189"/>
<feBlend mode="normal" in="SourceGraphic" in2="effect1_backgroundBlur_5033_11189" result="shape"/>
</filter>
<filter id="filter6_b_5033_11189" x="915.227" y="112.223" width="188.77" height="188.77" filterUnits="userSpaceOnUse" color-interpolation-filters="sRGB">
<feFlood flood-opacity="0" result="BackgroundImageFix"/>
<feGaussianBlur in="BackgroundImageFix" stdDeviation="27"/>
<feComposite in2="SourceAlpha" operator="in" result="effect1_backgroundBlur_5033_11189"/>
<feBlend mode="normal" in="SourceGraphic" in2="effect1_backgroundBlur_5033_11189" result="shape"/>
</filter>
<filter id="filter7_b_5033_11189" x="1186.8" y="218.819" width="137.148" height="137.148" filterUnits="userSpaceOnUse" color-interpolation-filters="sRGB">
<feFlood flood-opacity="0" result="BackgroundImageFix"/>
<feGaussianBlur in="BackgroundImageFix" stdDeviation="27"/>
<feComposite in2="SourceAlpha" operator="in" result="effect1_backgroundBlur_5033_11189"/>
<feBlend mode="normal" in="SourceGraphic" in2="effect1_backgroundBlur_5033_11189" result="shape"/>
</filter>
<filter id="filter8_f_5033_11189" x="793.703" y="296.336" width="234.137" height="240.323" filterUnits="userSpaceOnUse" color-interpolation-filters="sRGB">
<feFlood flood-opacity="0" result="BackgroundImageFix"/>
<feBlend mode="normal" in="SourceGraphic" in2="BackgroundImageFix" result="shape"/>
<feGaussianBlur stdDeviation="22" result="effect1_foregroundBlur_5033_11189"/>
</filter>
<filter id="filter9_f_5033_11189" x="204.059" y="-2.16846" width="178.988" height="182.841" filterUnits="userSpaceOnUse" color-interpolation-filters="sRGB">
<feFlood flood-opacity="0" result="BackgroundImageFix"/>
<feBlend mode="normal" in="SourceGraphic" in2="BackgroundImageFix" result="shape"/>
<feGaussianBlur stdDeviation="22" result="effect1_foregroundBlur_5033_11189"/>
</filter>
<filter id="filter10_ii_5033_11189" x="1126.75" y="45.7446" width="158.367" height="158.37" filterUnits="userSpaceOnUse" color-interpolation-filters="sRGB">
<feFlood flood-opacity="0" result="BackgroundImageFix"/>
<feBlend mode="normal" in="SourceGraphic" in2="BackgroundImageFix" result="shape"/>
<feColorMatrix in="SourceAlpha" type="matrix" values="0 0 0 0 0 0 0 0 0 0 0 0 0 0 0 0 0 0 127 0" result="hardAlpha"/>
<feOffset dy="-4"/>
<feComposite in2="hardAlpha" operator="arithmetic" k2="-1" k3="1"/>
<feColorMatrix type="matrix" values="0 0 0 0 0.2 0 0 0 0 0.184314 0 0 0 0 0.270588 0 0 0 0.1 0"/>
<feBlend mode="normal" in2="shape" result="effect1_innerShadow_5033_11189"/>
<feColorMatrix in="SourceAlpha" type="matrix" values="0 0 0 0 0 0 0 0 0 0 0 0 0 0 0 0 0 0 127 0" result="hardAlpha"/>
<feOffset dy="4"/>
<feComposite in2="hardAlpha" operator="arithmetic" k2="-1" k3="1"/>
<feColorMatrix type="matrix" values="0 0 0 0 0.2 0 0 0 0 0.184314 0 0 0 0 0.270588 0 0 0 0.1 0"/>
<feBlend mode="normal" in2="effect1_innerShadow_5033_11189" result="effect2_innerShadow_5033_11189"/>
</filter>
<filter id="filter11_di_5033_11189" x="1156.58" y="87.9712" width="98.3867" height="86.7407" filterUnits="userSpaceOnUse" color-interpolation-filters="sRGB">
<feFlood flood-opacity="0" result="BackgroundImageFix"/>
<feColorMatrix in="SourceAlpha" type="matrix" values="0 0 0 0 0 0 0 0 0 0 0 0 0 0 0 0 0 0 127 0" result="hardAlpha"/>
<feOffset dy="1"/>
<feColorMatrix type="matrix" values="0 0 0 0 1 0 0 0 0 1 0 0 0 0 1 0 0 0 1 0"/>
<feBlend mode="normal" in2="BackgroundImageFix" result="effect1_dropShadow_5033_11189"/>
<feBlend mode="normal" in="SourceGraphic" in2="effect1_dropShadow_5033_11189" result="shape"/>
<feColorMatrix in="SourceAlpha" type="matrix" values="0 0 0 0 0 0 0 0 0 0 0 0 0 0 0 0 0 0 127 0" result="hardAlpha"/>
<feOffset dy="-5"/>
<feGaussianBlur stdDeviation="1.5"/>
<feComposite in2="hardAlpha" operator="arithmetic" k2="-1" k3="1"/>
<feColorMatrix type="matrix" values="0 0 0 0 0 0 0 0 0 0 0 0 0 0 0 0 0 0 0.12 0"/>
<feBlend mode="normal" in2="shape" result="effect2_innerShadow_5033_11189"/>
</filter>
<filter id="filter12_di_5033_11189" x="1178.64" y="63.3501" width="45.0898" height="28.2949" filterUnits="userSpaceOnUse" color-interpolation-filters="sRGB">
<feFlood flood-opacity="0" result="BackgroundImageFix"/>
<feColorMatrix in="SourceAlpha" type="matrix" values="0 0 0 0 0 0 0 0 0 0 0 0 0 0 0 0 0 0 127 0" result="hardAlpha"/>
<feOffset dy="1"/>
<feColorMatrix type="matrix" values="0 0 0 0 1 0 0 0 0 1 0 0 0 0 1 0 0 0 1 0"/>
<feBlend mode="normal" in2="BackgroundImageFix" result="effect1_dropShadow_5033_11189"/>
<feBlend mode="normal" in="SourceGraphic" in2="effect1_dropShadow_5033_11189" result="shape"/>
<feColorMatrix in="SourceAlpha" type="matrix" values="0 0 0 0 0 0 0 0 0 0 0 0 0 0 0 0 0 0 127 0" result="hardAlpha"/>
<feOffset dy="-5"/>
<feGaussianBlur stdDeviation="1.5"/>
<feComposite in2="hardAlpha" operator="arithmetic" k2="-1" k3="1"/>
<feColorMatrix type="matrix" values="0 0 0 0 0 0 0 0 0 0 0 0 0 0 0 0 0 0 0.12 0"/>
<feBlend mode="normal" in2="shape" result="effect2_innerShadow_5033_11189"/>
</filter>
<filter id="filter13_f_5033_11189" x="1082.93" y="3.06055" width="195.59" height="230.645" filterUnits="userSpaceOnUse" color-interpolation-filters="sRGB">
<feFlood flood-opacity="0" result="BackgroundImageFix"/>
<feBlend mode="normal" in="SourceGraphic" in2="BackgroundImageFix" result="shape"/>
<feGaussianBlur stdDeviation="22" result="effect1_foregroundBlur_5033_11189"/>
</filter>
<filter id="filter14_bd_5033_11189" x="303.141" y="55.5938" width="699.84" height="620.843" filterUnits="userSpaceOnUse" color-interpolation-filters="sRGB">
<feFlood flood-opacity="0" result="BackgroundImageFix"/>
<feGaussianBlur in="BackgroundImageFix" stdDeviation="30"/>
<feComposite in2="SourceAlpha" operator="in" result="effect1_backgroundBlur_5033_11189"/>
<feColorMatrix in="SourceAlpha" type="matrix" values="0 0 0 0 0 0 0 0 0 0 0 0 0 0 0 0 0 0 127 0" result="hardAlpha"/>
<feOffset dy="10"/>
<feGaussianBlur stdDeviation="54"/>
<feComposite in2="hardAlpha" operator="out"/>
<feColorMatrix type="matrix" values="0 0 0 0 0 0 0 0 0 0 0 0 0 0 0 0 0 0 0.25 0"/>
<feBlend mode="normal" in2="effect1_backgroundBlur_5033_11189" result="effect2_dropShadow_5033_11189"/>
<feBlend mode="normal" in="SourceGraphic" in2="effect2_dropShadow_5033_11189" result="shape"/>
</filter>
<filter id="filter15_d_5033_11189" x="425.34" y="364.071" width="122.199" height="138.048" filterUnits="userSpaceOnUse" color-interpolation-filters="sRGB">
<feFlood flood-opacity="0" result="BackgroundImageFix"/>
<feColorMatrix in="SourceAlpha" type="matrix" values="0 0 0 0 0 0 0 0 0 0 0 0 0 0 0 0 0 0 127 0" result="hardAlpha"/>
<feOffset dy="4"/>
<feGaussianBlur stdDeviation="17"/>
<feComposite in2="hardAlpha" operator="out"/>
<feColorMatrix type="matrix" values="0 0 0 0 0 0 0 0 0 0 0 0 0 0 0 0 0 0 0.18 0"/>
<feBlend mode="normal" in2="BackgroundImageFix" result="effect1_dropShadow_5033_11189"/>
<feBlend mode="normal" in="SourceGraphic" in2="effect1_dropShadow_5033_11189" result="shape"/>
</filter>
<filter id="filter16_d_5033_11189" x="358.742" y="103.99" width="590.227" height="513.246" filterUnits="userSpaceOnUse" color-interpolation-filters="sRGB">
<feFlood flood-opacity="0" result="BackgroundImageFix"/>
<feColorMatrix in="SourceAlpha" type="matrix" values="0 0 0 0 0 0 0 0 0 0 0 0 0 0 0 0 0 0 127 0" result="hardAlpha"/>
<feOffset dy="4"/>
<feGaussianBlur stdDeviation="32"/>
<feComposite in2="hardAlpha" operator="out"/>
<feColorMatrix type="matrix" values="0 0 0 0 0 0 0 0 0 0 0 0 0 0 0 0 0 0 0.15 0"/>
<feBlend mode="normal" in2="BackgroundImageFix" result="effect1_dropShadow_5033_11189"/>
<feBlend mode="normal" in="SourceGraphic" in2="effect1_dropShadow_5033_11189" result="shape"/>
</filter>
<filter id="filter17_i_5033_11189" x="494.055" y="184.199" width="356.273" height="116.425" filterUnits="userSpaceOnUse" color-interpolation-filters="sRGB">
<feFlood flood-opacity="0" result="BackgroundImageFix"/>
<feBlend mode="normal" in="SourceGraphic" in2="BackgroundImageFix" result="shape"/>
<feColorMatrix in="SourceAlpha" type="matrix" values="0 0 0 0 0 0 0 0 0 0 0 0 0 0 0 0 0 0 127 0" result="hardAlpha"/>
<feOffset dy="-5"/>
<feGaussianBlur stdDeviation="3.5"/>
<feComposite in2="hardAlpha" operator="arithmetic" k2="-1" k3="1"/>
<feColorMatrix type="matrix" values="0 0 0 0 0 0 0 0 0 0 0 0 0 0 0 0 0 0 0.25 0"/>
<feBlend mode="normal" in2="shape" result="effect1_innerShadow_5033_11189"/>
</filter>
<filter id="filter18_f_5033_11189" x="485.375" y="15.2217" width="336.898" height="329.534" filterUnits="userSpaceOnUse" color-interpolation-filters="sRGB">
<feFlood flood-opacity="0" result="BackgroundImageFix"/>
<feBlend mode="normal" in="SourceGraphic" in2="BackgroundImageFix" result="shape"/>
<feGaussianBlur stdDeviation="22" result="effect1_foregroundBlur_5033_11189"/>
</filter>
<filter id="filter19_f_5033_11189" x="482.945" y="202.741" width="375.355" height="130.639" filterUnits="userSpaceOnUse" color-interpolation-filters="sRGB">
<feFlood flood-opacity="0" result="BackgroundImageFix"/>
<feBlend mode="normal" in="SourceGraphic" in2="BackgroundImageFix" result="shape"/>
<feGaussianBlur stdDeviation="12" result="effect1_foregroundBlur_5033_11189"/>
</filter>
<linearGradient id="paint0_linear_5033_11189" x1="665" y1="3.65186e-06" x2="620.5" y2="639" gradientUnits="userSpaceOnUse">
<stop stop-color="#2B2641"/>
<stop offset="1" stop-color="#2B2641" stop-opacity="0"/>
</linearGradient>
<radialGradient id="paint1_radial_5033_11189" cx="0" cy="0" r="1" gradientUnits="userSpaceOnUse" gradientTransform="translate(791.469 211.12) rotate(179.566) scale(34.0686 13752.8)">
<stop stop-color="white"/>
<stop offset="1" stop-color="white" stop-opacity="0"/>
</radialGradient>
<radialGradient id="paint2_radial_5033_11189" cx="0" cy="0" r="1" gradientUnits="userSpaceOnUse" gradientTransform="translate(890.512 126.034) rotate(179.68) scale(46.2353 13753)">
<stop stop-color="white"/>
<stop offset="1" stop-color="white" stop-opacity="0"/>
</radialGradient>
<radialGradient id="paint3_radial_5033_11189" cx="0" cy="0" r="1" gradientUnits="userSpaceOnUse" gradientTransform="translate(819.63 40.9487) rotate(179.722) scale(53.093 13753)">
<stop stop-color="white"/>
<stop offset="1" stop-color="white" stop-opacity="0"/>
</radialGradient>
<radialGradient id="paint4_radial_5033_11189" cx="0" cy="0" r="1" gradientUnits="userSpaceOnUse" gradientTransform="translate(826.922 -417.913) rotate(179.566) scale(34.0686 13752.8)">
<stop stop-color="white"/>
<stop offset="1" stop-color="white" stop-opacity="0"/>
</radialGradient>
<radialGradient id="paint5_radial_5033_11189" cx="0" cy="0" r="1" gradientUnits="userSpaceOnUse" gradientTransform="translate(1041.43 -448.303) rotate(179.68) scale(46.2353 13753)">
<stop stop-color="white"/>
<stop offset="1" stop-color="white" stop-opacity="0"/>
</radialGradient>
<radialGradient id="paint6_radial_5033_11189" cx="0" cy="0" r="1" gradientUnits="userSpaceOnUse" gradientTransform="translate(1459.07 -628.605) rotate(179.76) scale(61.4992 13753.1)">
<stop stop-color="white"/>
<stop offset="1" stop-color="white" stop-opacity="0"/>
</radialGradient>
<radialGradient id="paint7_radial_5033_11189" cx="0" cy="0" r="1" gradientUnits="userSpaceOnUse" gradientTransform="translate(1473.56 -567.828) rotate(179.731) scale(54.8627 13753)">
<stop stop-color="white"/>
<stop offset="1" stop-color="white" stop-opacity="0"/>
</radialGradient>
<radialGradient id="paint8_radial_5033_11189" cx="0" cy="0" r="1" gradientUnits="userSpaceOnUse" gradientTransform="translate(1199.47 -592.141) rotate(179.722) scale(53.093 13753)">
<stop stop-color="white"/>
<stop offset="1" stop-color="white" stop-opacity="0"/>
</radialGradient>
<radialGradient id="paint9_radial_5033_11189" cx="0" cy="0" r="1" gradientUnits="userSpaceOnUse" gradientTransform="translate(1373.98 -669.124) rotate(179.76) scale(61.4992 13753.1)">
<stop stop-color="white"/>
<stop offset="1" stop-color="white" stop-opacity="0"/>
</radialGradient>
<radialGradient id="paint10_radial_5033_11189" cx="0" cy="0" r="1" gradientUnits="userSpaceOnUse" gradientTransform="translate(1495.11 -452.354) rotate(179.698) scale(48.8899 13753)">
<stop stop-color="white"/>
<stop offset="1" stop-color="white" stop-opacity="0"/>
</radialGradient>
<radialGradient id="paint11_radial_5033_11189" cx="0" cy="0" r="1" gradientUnits="userSpaceOnUse" gradientTransform="translate(1488.42 -474.638) rotate(179.633) scale(40.2625 13752.9)">
<stop stop-color="white"/>
<stop offset="1" stop-color="white" stop-opacity="0"/>
</radialGradient>
<linearGradient id="paint12_linear_5033_11189" x1="150.647" y1="101.721" x2="150.647" y2="221.721" gradientUnits="userSpaceOnUse">
<stop stop-color="#AFD803" stop-opacity="0"/>
<stop offset="1" stop-color="#AFD803"/>
</linearGradient>
<linearGradient id="paint13_linear_5033_11189" x1="1009.61" y1="166.231" x2="1009.61" y2="281.594" gradientUnits="userSpaceOnUse">
<stop stop-color="#E54033" stop-opacity="0"/>
<stop offset="1" stop-color="#E54033"/>
</linearGradient>
<linearGradient id="paint14_linear_5033_11189" x1="851.634" y1="314.102" x2="1002.76" y2="546.873" gradientUnits="userSpaceOnUse">
<stop stop-color="white"/>
<stop offset="1" stop-color="white" stop-opacity="0.08"/>
</linearGradient>
<linearGradient id="paint15_linear_5033_11189" x1="277.078" y1="49.4429" x2="339.872" y2="157.09" gradientUnits="userSpaceOnUse">
<stop stop-color="#24DCB3"/>
<stop offset="1" stop-color="#D428FC"/>
</linearGradient>
<linearGradient id="paint16_linear_5033_11189" x1="334.384" y1="63.9654" x2="294.604" y2="140.161" gradientUnits="userSpaceOnUse">
<stop stop-color="#00FFA3"/>
<stop offset="1" stop-color="#DC1FFF"/>
</linearGradient>
<linearGradient id="paint17_linear_5033_11189" x1="316.99" y1="54.884" x2="277.21" y2="131.079" gradientUnits="userSpaceOnUse">
<stop stop-color="#00FFA3"/>
<stop offset="1" stop-color="#DC1FFF"/>
</linearGradient>
<linearGradient id="paint18_linear_5033_11189" x1="325.632" y1="59.396" x2="285.851" y2="135.591" gradientUnits="userSpaceOnUse">
<stop stop-color="#00FFA3"/>
<stop offset="1" stop-color="#DC1FFF"/>
</linearGradient>
<radialGradient id="paint19_radial_5033_11189" cx="0" cy="0" r="1" gradientUnits="userSpaceOnUse" gradientTransform="translate(1368.77 172.114) rotate(-154.444) scale(356.893)">
<stop stop-color="#FFE9E8"/>
<stop offset="0.53125" stop-color="#FFF8E1"/>
<stop offset="1" stop-color="#F5FFCA"/>
</radialGradient>
<linearGradient id="paint20_linear_5033_11189" x1="1177.02" y1="173.337" x2="1244.18" y2="136.619" gradientUnits="userSpaceOnUse">
<stop offset="0.21" stop-color="#E54033"/>
<stop offset="0.84" stop-color="#FECA1A"/>
</linearGradient>
<linearGradient id="paint21_linear_5033_11189" x1="1232.33" y1="153.326" x2="1254.54" y2="147.552" gradientUnits="userSpaceOnUse">
<stop stop-color="#FECA1A"/>
<stop offset="0.4" stop-color="#FECA1A"/>
<stop offset="1" stop-color="#AFD803"/>
</linearGradient>
<linearGradient id="paint22_linear_5033_11189" x1="1183.57" y1="172.064" x2="1212.53" y2="98.3572" gradientUnits="userSpaceOnUse">
<stop offset="0.16" stop-color="#E54033"/>
<stop offset="0.84" stop-color="#FECA1A"/>
</linearGradient>
<linearGradient id="paint23_linear_5033_11189" x1="1160.57" y1="112.701" x2="1169.21" y2="152.982" gradientUnits="userSpaceOnUse">
<stop stop-color="#FECA1A"/>
<stop offset="0.76" stop-color="#E54033"/>
</linearGradient>
<linearGradient id="paint24_linear_5033_11189" x1="1180.03" y1="96.4238" x2="1180.25" y2="145.766" gradientUnits="userSpaceOnUse">
<stop offset="0.16" stop-color="#FECA1A"/>
<stop offset="1" stop-color="#E54033"/>
</linearGradient>
<linearGradient id="paint25_linear_5033_11189" x1="1178.82" y1="73.0983" x2="1228.2" y2="77.6216" gradientUnits="userSpaceOnUse">
<stop offset="0.15" stop-color="#6CBF00"/>
<stop offset="1" stop-color="#AFD803"/>
</linearGradient>
<linearGradient id="paint26_linear_5033_11189" x1="34600.4" y1="-4775.92" x2="25444.7" y2="-10235.8" gradientUnits="userSpaceOnUse">
<stop offset="0.15" stop-color="#6CBF00"/>
<stop offset="1" stop-color="#AFD803"/>
</linearGradient>
<linearGradient id="paint27_linear_5033_11189" x1="882.939" y1="104.299" x2="730.686" y2="726.345" gradientUnits="userSpaceOnUse">
<stop stop-color="#3B3349"/>
<stop offset="1" stop-color="#36333B"/>
</linearGradient>
<linearGradient id="paint28_linear_5033_11189" x1="439.344" y1="92.1401" x2="526.189" y2="596.832" gradientUnits="userSpaceOnUse">
<stop stop-color="white" stop-opacity="0.1"/>
<stop offset="1" stop-color="white" stop-opacity="0.08"/>
</linearGradient>
<linearGradient id="paint29_linear_5033_11189" x1="520.347" y1="390.119" x2="458.995" y2="494.221" gradientUnits="userSpaceOnUse">
<stop stop-color="#B6A5FF"/>
<stop offset="1" stop-color="#5B48AD"/>
</linearGradient>
<linearGradient id="paint30_linear_5033_11189" x1="465.242" y1="383.914" x2="475.55" y2="480.277" gradientUnits="userSpaceOnUse">
<stop stop-color="#E0D9FF" stop-opacity="0.98"/>
<stop offset="1" stop-color="#BDAEFF" stop-opacity="0.52"/>
</linearGradient>
<linearGradient id="paint31_linear_5033_11189" x1="461.516" y1="133.46" x2="465.828" y2="610.322" gradientUnits="userSpaceOnUse">
<stop stop-color="#E0D9FF" stop-opacity="0.98"/>
<stop offset="1" stop-color="#BDAEFF" stop-opacity="0.52"/>
</linearGradient>
<linearGradient id="paint32_linear_5033_11189" x1="832.363" y1="234.712" x2="797.589" y2="376.366" gradientUnits="userSpaceOnUse">
<stop stop-color="#342D3F"/>
<stop offset="1" stop-color="#36333B"/>
</linearGradient>
<linearGradient id="paint33_linear_5033_11189" x1="483.836" y1="171.119" x2="469.472" y2="285.312" gradientUnits="userSpaceOnUse">
<stop stop-color="#4C474B"/>
<stop offset="1" stop-color="white" stop-opacity="0.08"/>
</linearGradient>
<linearGradient id="paint34_linear_5033_11189" x1="865.249" y1="45.9769" x2="692.78" y2="469.286" gradientUnits="userSpaceOnUse">
<stop stop-color="#342D3F"/>
<stop offset="1" stop-color="#36333B"/>
</linearGradient>
<linearGradient id="paint35_linear_5033_11189" x1="567.084" y1="6.68914" x2="785.004" y2="408.157" gradientUnits="userSpaceOnUse">
<stop stop-color="white"/>
<stop offset="1" stop-color="white" stop-opacity="0.08"/>
</linearGradient>
</defs>
</svg>
