<svg width="1330" height="966" viewBox="0 0 1330 966" fill="none" xmlns="http://www.w3.org/2000/svg">
<mask id="mask0_5025_10554" style="mask-type:alpha" maskUnits="userSpaceOnUse" x="0" y="0" width="1330" height="966">
<rect width="1330" height="966" fill="#2B2641"/>
</mask>
<g mask="url(#mask0_5025_10554)">
<g opacity="0.3">
<rect x="225.105" y="772.813" width="994.044" height="1.78785" fill="url(#paint0_linear_5025_10554)" fill-opacity="0.3"/>
<rect x="278.742" y="697.724" width="886.773" height="1.78785" fill="url(#paint1_linear_5025_10554)" fill-opacity="0.3"/>
<rect x="257.289" y="922.994" width="858.167" height="1.78785" fill="url(#paint2_linear_5025_10554)" fill-opacity="0.3"/>
<rect x="189.352" y="847.905" width="994.044" height="1.78785" fill="url(#paint3_linear_5025_10554)" fill-opacity="0.3"/>
<rect x="380.648" y="622.634" width="790.229" height="1.78785" fill="url(#paint4_linear_5025_10554)" fill-opacity="0.3"/>
<rect x="360.98" y="547.545" width="650.777" height="1.78785" fill="url(#paint5_linear_5025_10554)" fill-opacity="0.3"/>
<rect x="442.324" y="518.046" width="550.657" height="1.78785" transform="rotate(90 442.324 518.046)" fill="url(#paint6_linear_5025_10554)" fill-opacity="0.3"/>
<rect x="517.414" y="491.227" width="747.321" height="1.78785" transform="rotate(90 517.414 491.227)" fill="url(#paint7_linear_5025_10554)" fill-opacity="0.3"/>
<rect x="742.684" y="332.109" width="994.044" height="1.78785" transform="rotate(90 742.684 332.109)" fill="url(#paint8_linear_5025_10554)" fill-opacity="0.3"/>
<rect x="817.773" y="385.746" width="886.773" height="1.78785" transform="rotate(90 817.773 385.746)" fill="url(#paint9_linear_5025_10554)" fill-opacity="0.3"/>
<rect x="592.504" y="364.289" width="858.167" height="1.78785" transform="rotate(90 592.504 364.289)" fill="url(#paint10_linear_5025_10554)" fill-opacity="0.3"/>
<rect x="667.594" y="296.352" width="994.044" height="1.78785" transform="rotate(90 667.594 296.352)" fill="url(#paint11_linear_5025_10554)" fill-opacity="0.3"/>
<rect x="892.863" y="487.652" width="790.229" height="1.78785" transform="rotate(90 892.863 487.652)" fill="url(#paint12_linear_5025_10554)" fill-opacity="0.3"/>
<rect x="967.953" y="467.987" width="650.777" height="1.78785" transform="rotate(90 967.953 467.987)" fill="url(#paint13_linear_5025_10554)" fill-opacity="0.3"/>
</g>
<g opacity="0.6">
<g opacity="0.5" filter="url(#filter0_f_5025_10554)">
<ellipse rx="161.853" ry="166.05" transform="matrix(0.788125 0.615516 -0.940412 0.340036 850.076 656.086)" fill="#AFD803"/>
</g>
<g opacity="0.5" filter="url(#filter1_f_5025_10554)">
<ellipse rx="109.605" ry="112.447" transform="matrix(0.788125 0.615516 -0.940412 0.340036 1212.79 784.713)" fill="#AFD803"/>
</g>
<g opacity="0.5" filter="url(#filter2_f_5025_10554)">
<ellipse rx="195.673" ry="201.008" transform="matrix(0.788125 0.615516 -0.940412 0.340036 548.243 815.239)" fill="#E54033"/>
</g>
<g opacity="0.5" filter="url(#filter3_f_5025_10554)">
<ellipse rx="260.897" ry="268.427" transform="matrix(0.788125 0.615516 -0.940412 0.340036 954.984 953.137)" fill="#FECA1A" fill-opacity="0.8"/>
</g>
<g filter="url(#filter4_b_5025_10554)">
<ellipse cx="97.0985" cy="804.9" rx="42" ry="42" transform="rotate(-142.417 97.0985 804.9)" fill="url(#paint14_linear_5025_10554)"/>
</g>
<g filter="url(#filter5_b_5025_10554)">
<ellipse cx="294.891" cy="793.103" rx="16.4739" ry="16.4739" transform="rotate(-142.417 294.891 793.103)" fill="#5B48AD"/>
</g>
<g filter="url(#filter6_b_5025_10554)">
<ellipse cx="786.597" cy="443.85" rx="40.377" ry="40.377" transform="rotate(52.5834 786.597 443.85)" fill="url(#paint15_linear_5025_10554)"/>
</g>
<g filter="url(#filter7_b_5025_10554)">
<ellipse cx="1153.43" cy="451.004" rx="14.5711" ry="14.5711" transform="rotate(52.5834 1153.43 451.004)" fill="#FECA1A"/>
</g>
<path d="M93.8027 828.861L7.80469 940.599" stroke="url(#paint16_linear_5025_10554)" stroke-opacity="0.8" stroke-width="2.2" stroke-linecap="round"/>
<path d="M293.599 802.501L259.867 846.329" stroke="url(#paint17_linear_5025_10554)" stroke-opacity="0.8" stroke-width="2.2" stroke-linecap="round"/>
<path d="M795.621 422.421L903.281 340.059" stroke="url(#paint18_linear_5025_10554)" stroke-opacity="0.8" stroke-width="2.2" stroke-linecap="round"/>
<path d="M1156.68 443.27L1195.54 413.547" stroke="url(#paint19_linear_5025_10554)" stroke-opacity="0.8" stroke-width="2.2" stroke-linecap="round"/>
<path d="M60.9941 845.253L-25.0039 956.991" stroke="url(#paint20_linear_5025_10554)" stroke-width="2.2" stroke-linecap="round"/>
<path d="M280.731 808.931L247 852.758" stroke="url(#paint21_linear_5025_10554)" stroke-width="2.2" stroke-linecap="round"/>
<path d="M830.164 415.362L937.824 333" stroke="url(#paint22_linear_5025_10554)" stroke-width="2.2" stroke-linecap="round"/>
<path d="M1169.15 440.722L1208 411" stroke="url(#paint23_linear_5025_10554)" stroke-width="2.2" stroke-linecap="round"/>
</g>
<g filter="url(#filter8_bd_5025_10554)">
<rect x="694.504" y="566.322" width="529.563" height="415.698" rx="71" transform="rotate(9.90457 694.504 566.322)" fill="url(#paint24_linear_5025_10554)"/>
<rect x="695.317" y="567.479" width="527.563" height="413.698" rx="70" transform="rotate(9.90457 695.317 567.479)" stroke="url(#paint25_linear_5025_10554)" stroke-width="2"/>
</g>
<g filter="url(#filter9_d_5025_10554)">
<mask id="path-34-inside-1_5025_10554" fill="white">
<path fill-rule="evenodd" clip-rule="evenodd" d="M724.307 865.92C724.307 865.919 724.306 865.918 724.305 865.918V865.918C724.304 865.918 724.303 865.918 724.302 865.917L724.294 865.893C724.288 865.877 724.279 865.87 724.293 865.86C724.788 865.507 746.232 850.392 756.069 876.688C756.075 876.703 756.068 876.72 756.054 876.726L755.96 876.765C755.96 876.765 755.96 876.765 755.96 876.765V876.765C755.96 876.766 755.96 876.766 755.96 876.766C754.116 877.542 731.699 886.453 724.307 865.92ZM728.538 878.488C728.539 878.488 728.539 878.488 728.539 878.488V878.488C728.539 878.488 728.54 878.488 728.54 878.488C730.637 880.072 732.975 881.152 735.372 881.87C737.498 882.507 739.523 883.606 740.658 885.513C741.513 886.95 742.268 888.448 742.983 889.961C743.483 891.027 743.909 892.125 744.26 893.249C745.074 895.826 745.54 898.483 746.011 901.171L746.011 901.171C746.149 901.96 746.288 902.751 746.436 903.544C746.468 903.875 746.503 904.208 746.542 904.542C746.542 904.546 746.546 904.549 746.551 904.549V904.549C746.555 904.548 746.559 904.552 746.559 904.556C747.125 909.635 748.281 915.156 750.294 919.9C750.294 919.902 750.293 919.904 750.292 919.904V919.904C750.29 919.905 750.289 919.906 750.29 919.908C750.957 921.467 751.747 922.971 752.652 924.406C752.831 924.682 753.015 924.957 753.199 925.232L753.2 925.234L753.2 925.234L753.201 925.236L753.201 925.236C754.065 926.528 754.934 927.828 755.294 929.329C755.741 931.198 755.335 933.187 754.562 934.948C750.917 943.244 742.173 944.066 734.158 942.884C734.155 942.883 734.154 942.88 734.155 942.878V942.878C734.157 942.876 734.155 942.873 734.153 942.872C731.154 942.41 728.226 941.669 725.642 940.94C725.64 940.939 725.641 940.94 725.639 940.939C725.578 940.922 713.145 937.383 703.772 927.657C703.769 927.653 703.765 927.651 703.761 927.65V927.65C703.757 927.649 703.753 927.647 703.75 927.643L703.453 927.33C703.452 927.33 703.452 927.329 703.453 927.329V927.329C703.453 927.328 703.453 927.328 703.453 927.327C702.361 926.172 701.339 924.951 700.394 923.672C697.883 920.271 695.772 916.543 694.344 912.606C694.338 912.591 694.344 912.573 694.357 912.564V912.564C694.37 912.555 694.376 912.538 694.371 912.522C694.207 912.05 694.054 911.575 693.911 911.098C692.618 906.774 692.163 902.232 692.912 897.621C694.167 889.883 698.189 882.437 704.21 877.58C704.213 877.578 704.215 877.574 704.214 877.57V877.57C704.213 877.566 704.215 877.562 704.218 877.56C704.359 877.451 704.5 877.344 704.643 877.238L704.653 877.231C704.653 877.231 704.653 877.231 704.653 877.231V877.231C704.653 877.231 704.653 877.231 704.653 877.231C707.795 874.906 711.45 873.286 715.514 872.685C717.334 872.41 719.177 872.35 721.005 872.503C722.635 872.639 723.991 873.691 724.998 874.98C726.023 876.292 727.212 877.471 728.538 878.488Z"/>
</mask>
<path fill-rule="evenodd" clip-rule="evenodd" d="M724.307 865.92C724.307 865.919 724.306 865.918 724.305 865.918V865.918C724.304 865.918 724.303 865.918 724.302 865.917L724.294 865.893C724.288 865.877 724.279 865.87 724.293 865.86C724.788 865.507 746.232 850.392 756.069 876.688C756.075 876.703 756.068 876.72 756.054 876.726L755.96 876.765C755.96 876.765 755.96 876.765 755.96 876.765V876.765C755.96 876.766 755.96 876.766 755.96 876.766C754.116 877.542 731.699 886.453 724.307 865.92ZM728.538 878.488C728.539 878.488 728.539 878.488 728.539 878.488V878.488C728.539 878.488 728.54 878.488 728.54 878.488C730.637 880.072 732.975 881.152 735.372 881.87C737.498 882.507 739.523 883.606 740.658 885.513C741.513 886.95 742.268 888.448 742.983 889.961C743.483 891.027 743.909 892.125 744.26 893.249C745.074 895.826 745.54 898.483 746.011 901.171L746.011 901.171C746.149 901.96 746.288 902.751 746.436 903.544C746.468 903.875 746.503 904.208 746.542 904.542C746.542 904.546 746.546 904.549 746.551 904.549V904.549C746.555 904.548 746.559 904.552 746.559 904.556C747.125 909.635 748.281 915.156 750.294 919.9C750.294 919.902 750.293 919.904 750.292 919.904V919.904C750.29 919.905 750.289 919.906 750.29 919.908C750.957 921.467 751.747 922.971 752.652 924.406C752.831 924.682 753.015 924.957 753.199 925.232L753.2 925.234L753.2 925.234L753.201 925.236L753.201 925.236C754.065 926.528 754.934 927.828 755.294 929.329C755.741 931.198 755.335 933.187 754.562 934.948C750.917 943.244 742.173 944.066 734.158 942.884C734.155 942.883 734.154 942.88 734.155 942.878V942.878C734.157 942.876 734.155 942.873 734.153 942.872C731.154 942.41 728.226 941.669 725.642 940.94C725.64 940.939 725.641 940.94 725.639 940.939C725.578 940.922 713.145 937.383 703.772 927.657C703.769 927.653 703.765 927.651 703.761 927.65V927.65C703.757 927.649 703.753 927.647 703.75 927.643L703.453 927.33C703.452 927.33 703.452 927.329 703.453 927.329V927.329C703.453 927.328 703.453 927.328 703.453 927.327C702.361 926.172 701.339 924.951 700.394 923.672C697.883 920.271 695.772 916.543 694.344 912.606C694.338 912.591 694.344 912.573 694.357 912.564V912.564C694.37 912.555 694.376 912.538 694.371 912.522C694.207 912.05 694.054 911.575 693.911 911.098C692.618 906.774 692.163 902.232 692.912 897.621C694.167 889.883 698.189 882.437 704.21 877.58C704.213 877.578 704.215 877.574 704.214 877.57V877.57C704.213 877.566 704.215 877.562 704.218 877.56C704.359 877.451 704.5 877.344 704.643 877.238L704.653 877.231C704.653 877.231 704.653 877.231 704.653 877.231V877.231C704.653 877.231 704.653 877.231 704.653 877.231C707.795 874.906 711.45 873.286 715.514 872.685C717.334 872.41 719.177 872.35 721.005 872.503C722.635 872.639 723.991 873.691 724.998 874.98C726.023 876.292 727.212 877.471 728.538 878.488Z" fill="url(#paint26_linear_5025_10554)" fill-opacity="0.1" shape-rendering="crispEdges"/>
<path d="M742.983 889.961L743.889 889.537L743.887 889.534L742.983 889.961ZM744.26 893.249L743.305 893.547L743.306 893.55L744.26 893.249ZM746.011 901.171L745.026 901.344L745.029 901.361L745.033 901.377L746.011 901.171ZM746.011 901.171L746.996 900.999L746.993 900.982L746.99 900.965L746.011 901.171ZM746.436 903.544L747.432 903.45L747.428 903.405L747.419 903.36L746.436 903.544ZM752.652 924.406L751.807 924.939L751.812 924.948L752.652 924.406ZM753.201 925.236L752.37 925.792L752.37 925.792L753.201 925.236ZM755.294 929.329L756.266 929.096L756.266 929.095L755.294 929.329ZM754.562 934.948L755.477 935.35L755.477 935.35L754.562 934.948ZM700.394 923.672L699.589 924.266L699.589 924.267L700.394 923.672ZM693.911 911.098L694.869 910.812L694.869 910.811L693.911 911.098ZM692.912 897.621L693.899 897.781L693.899 897.781L692.912 897.621ZM704.643 877.238L705.239 878.042L705.247 878.036L705.255 878.029L704.643 877.238ZM715.514 872.685L715.66 873.674L715.663 873.674L715.514 872.685ZM724.998 874.98L725.786 874.364L724.998 874.98ZM704.653 877.231L705.248 878.035L704.653 877.231ZM704.653 877.231L705.265 878.022L704.653 877.231ZM704.218 877.56L704.829 878.351L704.218 877.56ZM704.21 877.58L704.838 878.358L704.21 877.58ZM734.158 942.884L734.012 943.873L734.158 942.884ZM750.29 919.908L749.371 920.301L749.371 920.301L750.29 919.908ZM750.294 919.9L751.214 919.51L750.294 919.9ZM694.371 912.522L693.426 912.85L694.371 912.522ZM735.372 881.87L735.085 882.828L735.372 881.87ZM740.658 885.513L739.799 886.025L740.658 885.513ZM694.344 912.606L693.404 912.947L694.344 912.606ZM728.538 878.488L729.147 877.695L728.538 878.488ZM728.539 878.488L729.245 879.197L728.539 878.488ZM728.54 878.488L727.937 879.286L728.54 878.488ZM703.453 927.327L702.726 928.014L703.453 927.327ZM755.96 876.766L756.348 877.687L755.96 876.766ZM746.559 904.556L747.553 904.445L746.559 904.556ZM703.453 927.33L702.727 928.018L703.453 927.33ZM755.96 876.765L755.571 875.844L755.96 876.765ZM746.542 904.542L745.548 904.658L746.542 904.542ZM703.75 927.643L703.024 928.331L703.75 927.643ZM756.069 876.688L755.133 877.039L756.069 876.688ZM756.054 876.726L756.443 877.647L756.054 876.726ZM703.772 927.657L703.052 928.35L703.772 927.657ZM724.294 865.893L725.235 865.556L724.294 865.893ZM724.293 865.86L724.874 866.674L724.293 865.86ZM725.642 940.94L725.371 941.902L725.642 940.94ZM725.639 940.939L725.366 941.901L725.639 940.939ZM724.302 865.917L725.244 865.579L724.302 865.917ZM734.153 942.872L734 943.861L734.153 942.872ZM724.305 865.918L724.307 866.918L724.305 865.918ZM724.307 865.92L723.366 866.259L724.307 865.92ZM725.244 865.579L725.235 865.556L723.353 866.231L723.361 866.254L725.244 865.579ZM724.874 866.674C725.094 866.517 730.391 862.79 736.758 862.277C739.909 862.024 743.291 862.559 746.468 864.684C749.651 866.813 752.726 870.604 755.133 877.039L757.006 876.338C754.495 869.625 751.2 865.444 747.58 863.022C743.954 860.596 740.099 860.002 736.598 860.284C729.66 860.843 723.987 864.85 723.712 865.046L724.874 866.674ZM755.665 875.804L755.571 875.844L756.349 877.687L756.443 877.647L755.665 875.804ZM723.366 866.259C725.281 871.577 728.198 875.056 731.571 877.227C734.932 879.39 738.674 880.208 742.178 880.333C749.158 880.583 755.387 878.092 756.348 877.687L755.572 875.844C754.69 876.215 748.787 878.568 742.25 878.334C738.996 878.218 735.632 877.462 732.653 875.545C729.687 873.636 727.029 870.53 725.248 865.581L723.366 866.259ZM735.659 880.912C733.354 880.221 731.128 879.19 729.143 877.69L727.937 879.286C730.146 880.955 732.596 882.082 735.085 882.828L735.659 880.912ZM743.887 889.534C743.166 888.007 742.395 886.477 741.517 885.002L739.799 886.025C740.631 887.423 741.37 888.889 742.079 890.388L743.887 889.534ZM745.214 892.951C744.85 891.784 744.407 890.644 743.889 889.537L742.078 890.385C742.558 891.41 742.968 892.466 743.305 893.547L745.214 892.951ZM746.996 900.999C746.527 898.321 746.051 895.598 745.213 892.948L743.306 893.55C744.097 896.053 744.553 898.644 745.026 901.344L746.996 900.999ZM746.99 900.965L746.99 900.965L745.033 901.377L745.033 901.377L746.99 900.965ZM747.419 903.36C747.272 902.574 747.135 901.788 746.996 900.999L745.026 901.344C745.164 902.132 745.304 902.928 745.453 903.727L747.419 903.36ZM747.535 904.426C747.497 904.099 747.462 903.774 747.432 903.45L745.441 903.638C745.473 903.977 745.509 904.317 745.548 904.658L747.535 904.426ZM751.214 919.51C749.252 914.884 748.113 909.466 747.553 904.445L745.566 904.667C746.138 909.805 747.311 915.428 749.373 920.291L751.214 919.51ZM753.498 923.872C752.621 922.482 751.856 921.025 751.209 919.514L749.371 920.301C750.059 921.909 750.873 923.46 751.807 924.939L753.498 923.872ZM754.033 924.681C753.847 924.403 753.667 924.133 753.493 923.863L751.812 924.948C751.997 925.234 752.186 925.516 752.37 925.792L754.033 924.681ZM756.266 929.095C755.858 927.392 754.877 925.944 754.033 924.681L752.37 925.792C753.252 927.112 754.01 928.265 754.321 929.562L756.266 929.095ZM755.477 935.35C756.302 933.472 756.782 931.251 756.266 929.096L754.321 929.561C754.7 931.145 754.368 932.902 753.646 934.546L755.477 935.35ZM734.012 943.873C738.085 944.474 742.442 944.583 746.287 943.428C750.174 942.26 753.523 939.799 755.477 935.35L753.646 934.546C751.956 938.392 749.111 940.491 745.711 941.513C742.269 942.547 738.246 942.476 734.304 941.895L734.012 943.873ZM725.371 941.902C727.971 942.636 730.944 943.389 734 943.861L734.305 941.884C731.365 941.43 728.481 940.702 725.914 939.977L725.371 941.902ZM703.052 928.35C712.615 938.275 725.265 941.872 725.366 941.901L725.912 939.977C725.921 939.979 722.857 939.11 718.638 937.041C714.415 934.97 709.072 931.715 704.492 926.963L703.052 928.35ZM702.727 928.018L703.024 928.331L704.476 926.955L704.178 926.642L702.727 928.018ZM699.589 924.267C700.559 925.578 701.606 926.83 702.726 928.014L704.18 926.64C703.115 925.514 702.119 924.325 701.198 923.078L699.589 924.267ZM693.404 912.947C694.87 916.989 697.032 920.802 699.589 924.266L701.198 923.079C698.735 919.741 696.673 916.097 695.284 912.265L693.404 912.947ZM692.953 911.384C693.1 911.876 693.257 912.364 693.426 912.85L695.315 912.195C695.156 911.736 695.008 911.275 694.869 910.812L692.953 911.384ZM691.925 897.461C691.148 902.242 691.623 906.937 692.953 911.384L694.869 910.811C693.613 906.611 693.178 902.223 693.899 897.781L691.925 897.461ZM703.583 876.802C697.35 881.829 693.215 889.505 691.925 897.461L693.899 897.781C695.118 890.261 699.028 883.045 704.838 878.358L703.583 876.802ZM704.048 876.435C703.9 876.544 703.753 876.656 703.607 876.769L704.829 878.351C704.965 878.247 705.101 878.143 705.239 878.042L704.048 876.435ZM704.041 876.44L704.032 876.447L705.255 878.029L705.265 878.022L704.041 876.44ZM715.368 871.695C711.128 872.323 707.321 874.012 704.058 876.427L705.248 878.035C708.269 875.799 711.772 874.249 715.66 873.674L715.368 871.695ZM721.088 871.506C719.182 871.347 717.262 871.41 715.365 871.696L715.663 873.674C717.406 873.411 719.171 873.353 720.922 873.499L721.088 871.506ZM729.147 877.695C727.888 876.729 726.759 875.61 725.786 874.364L724.21 875.595C725.287 876.974 726.536 878.213 727.93 879.282L729.147 877.695ZM720.922 873.499C722.159 873.602 723.288 874.415 724.21 875.595L725.786 874.364C724.694 872.966 723.11 871.675 721.088 871.506L720.922 873.499ZM703.671 877.419C703.809 878.138 704.653 878.475 705.248 878.035L704.058 876.427C704.654 875.986 705.497 876.323 705.635 877.042L703.671 877.419ZM705.265 878.022C704.675 878.478 703.812 878.151 703.671 877.419L705.635 877.042C705.495 876.31 704.631 875.983 704.041 876.44L705.265 878.022ZM705.197 877.383C705.266 877.749 705.124 878.123 704.829 878.351L703.607 876.769C703.305 877.001 703.161 877.383 703.232 877.757L705.197 877.383ZM704.838 878.358C705.129 878.124 705.266 877.749 705.197 877.383L703.232 877.757C703.163 877.398 703.298 877.031 703.583 876.802L704.838 878.358ZM734.304 941.895C735.009 941.999 735.376 942.785 735.014 943.391L733.297 942.365C732.932 942.976 733.301 943.768 734.012 943.873L734.304 941.895ZM750.069 918.929C749.459 919.069 749.124 919.726 749.371 920.301L751.209 919.514C751.454 920.086 751.121 920.74 750.514 920.879L750.069 918.929ZM749.373 920.291C749.129 919.716 749.467 919.067 750.069 918.929L750.514 920.879C751.119 920.741 751.459 920.088 751.214 919.51L749.373 920.291ZM694.935 913.38C695.312 913.114 695.466 912.63 695.315 912.195L693.426 912.85C693.285 912.445 693.429 911.995 693.78 911.748L694.935 913.38ZM735.085 882.828C737.103 883.433 738.848 884.428 739.799 886.025L741.517 885.002C740.198 882.785 737.892 881.581 735.659 880.912L735.085 882.828ZM695.284 912.265C695.432 912.674 695.288 913.13 694.935 913.38L693.78 911.748C693.399 912.017 693.244 912.508 693.404 912.947L695.284 912.265ZM727.833 877.78C728.188 877.426 728.75 877.39 729.147 877.695L727.93 879.282C728.328 879.587 728.89 879.551 729.245 879.197L727.833 877.78ZM729.245 879.197C728.891 879.55 728.333 879.585 727.937 879.286L729.143 877.69C728.747 877.391 728.188 877.426 727.833 877.78L729.245 879.197ZM703.96 928.191C704.515 927.864 704.621 927.107 704.18 926.64L702.726 928.014C702.286 927.548 702.392 926.793 702.946 926.467L703.96 928.191ZM755.817 877.755C755.584 877.722 755.351 877.603 755.182 877.393C755.102 877.294 754.915 877.021 754.97 876.628C755.034 876.162 755.373 875.928 755.572 875.844L756.348 877.687C756.548 877.603 756.886 877.369 756.951 876.903C757.005 876.511 756.819 876.237 756.739 876.138C756.57 875.928 756.336 875.809 756.103 875.776L755.817 877.755ZM746.638 905.545C746.105 905.592 745.626 905.206 745.566 904.667L747.553 904.445C747.492 903.897 747.005 903.505 746.463 903.553L746.638 905.545ZM704.178 926.642C704.621 927.108 704.514 927.865 703.96 928.191L702.946 926.467C702.391 926.793 702.284 927.551 702.727 928.018L704.178 926.642ZM755.571 875.844C754.638 876.238 754.814 877.611 755.817 877.755L756.103 875.776C757.106 875.92 757.282 877.293 756.349 877.687L755.571 875.844ZM745.548 904.658C745.612 905.2 746.095 905.593 746.638 905.545L746.463 903.553C746.998 903.506 747.473 903.892 747.535 904.426L745.548 904.658ZM704.01 926.681C704.188 926.727 704.349 926.822 704.476 926.955L703.024 928.331C703.157 928.471 703.326 928.571 703.512 928.619L704.01 926.681ZM755.133 877.039C754.967 876.595 755.143 876.025 755.665 875.804L756.443 877.647C756.993 877.415 757.183 876.81 757.006 876.338L755.133 877.039ZM704.492 926.963C704.362 926.827 704.195 926.729 704.01 926.681L703.512 928.619C703.335 928.573 703.177 928.479 703.052 928.35L704.492 926.963ZM725.235 865.556C725.216 865.502 725.194 865.456 725.197 865.463C725.197 865.463 725.199 865.467 725.201 865.473C725.204 865.479 725.209 865.489 725.214 865.502C725.223 865.525 725.242 865.574 725.258 865.637C725.292 865.78 725.314 866.012 725.204 866.264C725.105 866.492 724.95 866.62 724.874 866.674L723.712 865.046C723.629 865.105 723.469 865.237 723.369 865.47C723.257 865.727 723.279 865.964 723.315 866.111C723.331 866.177 723.35 866.228 723.361 866.255C723.372 866.281 723.381 866.302 723.382 866.303C723.388 866.316 723.369 866.277 723.353 866.231L725.235 865.556ZM725.914 939.977C725.912 939.977 725.911 939.977 725.911 939.977C725.912 939.977 725.913 939.977 725.912 939.977L725.366 941.901C725.367 941.901 725.368 941.902 725.37 941.902C725.371 941.902 725.37 941.902 725.371 941.902L725.914 939.977ZM724.302 864.918C724.724 864.917 725.101 865.182 725.244 865.579L723.361 866.254C723.504 866.653 723.883 866.919 724.307 866.918L724.302 864.918ZM735.014 943.391C735.379 942.779 735.008 941.993 734.305 941.884L734 943.861C733.302 943.753 732.934 942.973 733.297 942.365L735.014 943.391ZM724.307 866.918C723.86 866.92 723.5 866.631 723.366 866.259L725.248 865.581C725.113 865.208 724.752 864.917 724.302 864.918L724.307 866.918Z" fill="url(#paint27_linear_5025_10554)" fill-opacity="0.5" mask="url(#path-34-inside-1_5025_10554)"/>
</g>
<g filter="url(#filter10_d_5025_10554)">
<path d="M693.725 646.386C699.826 610.31 734.11 586.082 770.153 592.375L1136.86 656.406C1172.63 662.653 1196.64 696.623 1190.59 732.428L1147.32 988.25C1141.22 1024.33 1106.94 1048.55 1070.89 1042.26L704.184 978.23C668.412 971.984 644.405 938.013 650.461 902.208L693.725 646.386Z" stroke="url(#paint28_linear_5025_10554)" stroke-opacity="0.3" stroke-width="3" stroke-linecap="round" stroke-dasharray="11 11" shape-rendering="crispEdges"/>
</g>
<g opacity="0.4">
<mask id="path-37-inside-2_5025_10554" fill="white">
<path fill-rule="evenodd" clip-rule="evenodd" d="M769.252 621.574C752.536 618.655 736.618 629.84 733.699 646.557C730.781 663.273 741.966 679.19 758.682 682.109L861.945 700.14C861.945 700.14 861.946 700.14 861.945 700.14V700.14C859.027 716.857 870.212 732.774 886.928 735.693L975.95 751.237C992.666 754.156 1008.58 742.971 1011.5 726.255V726.255C1011.5 726.254 1011.5 726.254 1011.5 726.254L1114.77 744.286C1131.49 747.205 1147.4 736.02 1150.32 719.303C1153.24 702.587 1142.06 686.67 1125.34 683.751L769.252 621.574Z"/>
</mask>
<g filter="url(#filter11_i_5025_10554)">
<path fill-rule="evenodd" clip-rule="evenodd" d="M769.252 621.574C752.536 618.655 736.618 629.84 733.699 646.557C730.781 663.273 741.966 679.19 758.682 682.109L861.945 700.14C861.945 700.14 861.946 700.14 861.945 700.14V700.14C859.027 716.857 870.212 732.774 886.928 735.693L975.95 751.237C992.666 754.156 1008.58 742.971 1011.5 726.255V726.255C1011.5 726.254 1011.5 726.254 1011.5 726.254L1114.77 744.286C1131.49 747.205 1147.4 736.02 1150.32 719.303C1153.24 702.587 1142.06 686.67 1125.34 683.751L769.252 621.574Z" fill="url(#paint29_linear_5025_10554)"/>
</g>
<path d="M769.252 621.574L768.908 623.544L769.252 621.574ZM758.682 682.109L758.338 684.079L758.682 682.109ZM886.928 735.693L887.272 733.723L886.928 735.693ZM975.95 751.237L975.606 753.207L975.95 751.237ZM1125.34 683.751L1125.68 681.781L1125.34 683.751ZM861.945 700.14L862.289 698.17L861.945 700.14ZM735.67 646.901C738.398 631.272 753.28 620.815 768.908 623.544L769.596 619.604C751.792 616.495 734.838 628.408 731.729 646.213L735.67 646.901ZM759.026 680.139C743.398 677.41 732.941 662.529 735.67 646.901L731.729 646.213C728.62 664.017 740.533 680.971 758.338 684.079L759.026 680.139ZM862.289 698.17L759.026 680.139L758.338 684.079L861.601 702.11L862.289 698.17ZM887.272 733.723C871.644 730.994 861.187 716.112 863.916 700.484L859.975 699.796C856.866 717.601 868.78 734.554 886.584 737.663L887.272 733.723ZM976.294 749.267L887.272 733.723L886.584 737.663L975.606 753.207L976.294 749.267ZM1009.53 725.91C1006.8 741.539 991.922 751.996 976.294 749.267L975.606 753.207C993.411 756.316 1010.36 744.403 1013.47 726.599L1009.53 725.91ZM1115.11 742.316L1011.85 724.284L1011.16 728.224L1114.43 746.256L1115.11 742.316ZM1148.35 718.959C1145.62 734.588 1130.74 745.045 1115.11 742.316L1114.43 746.256C1132.23 749.365 1149.18 737.452 1152.29 719.647L1148.35 718.959ZM1125 685.721C1140.62 688.45 1151.08 703.331 1148.35 718.959L1152.29 719.647C1155.4 701.843 1143.49 684.889 1125.68 681.781L1125 685.721ZM768.908 623.544L1125 685.721L1125.68 681.781L769.596 619.604L768.908 623.544ZM1013.47 726.599C1013.27 727.753 1012.18 728.403 1011.16 728.224L1011.85 724.284C1010.83 724.106 1009.73 724.755 1009.53 725.91L1013.47 726.599ZM861.601 702.11C860.513 701.92 859.785 700.884 859.975 699.796L863.916 700.484C864.106 699.396 863.378 698.36 862.289 698.17L861.601 702.11Z" fill="url(#paint30_linear_5025_10554)" mask="url(#path-37-inside-2_5025_10554)"/>
</g>
<mask id="mask1_5025_10554" style="mask-type:alpha" maskUnits="userSpaceOnUse" x="731" y="297" width="472" height="452">
<path fill-rule="evenodd" clip-rule="evenodd" d="M865.613 298.057C827.529 291.407 791.266 316.889 784.616 354.973L731.963 656.516C730.348 665.765 736.537 674.572 745.786 676.187L833.02 691.419C849.341 694.269 859.593 712.469 871.509 723.982C875.773 728.102 881.274 731.035 887.555 732.131L976.577 747.676C982.859 748.772 989.027 747.878 994.436 745.446C1009.55 738.653 1025.36 725.003 1041.68 727.853L1128.92 743.085C1138.17 744.7 1146.97 738.512 1148.59 729.263L1201.24 427.72C1207.89 389.636 1182.41 353.372 1144.32 346.722L865.613 298.057Z" fill="url(#paint31_linear_5025_10554)"/>
</mask>
<g mask="url(#mask1_5025_10554)">
<path d="M966.13 825.239C1065.39 816.388 1138.13 729.409 1129.28 630.144C1120.43 530.879 1033.45 458.141 934.186 466.992C834.921 475.844 762.183 562.823 771.034 662.088C779.886 761.352 866.865 834.09 966.13 825.239Z" fill="#2775CA"/>
<path d="M1128.78 630.188C1137.61 729.178 1065.07 815.914 966.085 824.741C867.096 833.568 780.359 761.033 771.532 662.043C762.706 563.054 835.241 476.317 934.23 467.49C1033.22 458.664 1119.96 531.199 1128.78 630.188Z" stroke="url(#paint32_linear_5025_10554)" stroke-opacity="0.3"/>
<mask id="mask2_5025_10554" style="mask-type:alpha" maskUnits="userSpaceOnUse" x="770" y="466" width="361" height="360">
<path d="M966.13 825.239C1065.39 816.388 1138.13 729.409 1129.28 630.144C1120.43 530.879 1033.45 458.141 934.186 466.992C834.921 475.844 762.183 562.823 771.034 662.088C779.886 761.352 866.865 834.09 966.13 825.239Z" fill="#2775CA"/>
</mask>
<g mask="url(#mask2_5025_10554)">
<g filter="url(#filter12_f_5025_10554)">
<path d="M1042.47 495.199C843.664 489.134 816.279 678.607 827.438 774.102C788.303 728.025 731.489 614.131 817.317 527.172C903.144 440.212 1003.18 469.624 1042.47 495.199Z" fill="white" fill-opacity="0.4"/>
</g>
</g>
<path d="M1001.95 670.082C999.617 643.961 983.145 636.402 951.466 635.466C928.809 634.477 923.799 628.906 922.867 618.456C921.935 608.006 928.801 600.625 943.727 599.294C957.161 598.096 965.025 601.908 969.754 612.771C970.701 614.943 973.073 616.236 975.312 616.036L987.252 614.972C990.238 614.705 992.277 612.267 992.011 609.282L991.945 608.535C987.495 592.381 972.929 580.892 955.631 580.931L954.033 563.018C953.767 560.032 951.328 557.993 947.531 557.579L936.335 558.577C933.35 558.843 931.31 561.282 930.896 565.081L932.427 582.247C910.302 587.229 897.454 603.42 899.118 622.079C901.314 646.709 917.105 655.079 948.785 656.017C970.016 657.885 977.132 661.764 978.197 673.706C979.262 685.648 969.544 694.789 955.364 696.053C935.958 697.784 928.509 690.172 925.272 679.176C924.26 676.258 921.888 674.964 919.649 675.164L906.96 676.295C903.976 676.561 901.936 679 902.203 681.986L902.269 682.733C906.917 701.124 920.057 713.494 945.019 715.031L946.617 732.943C946.883 735.927 949.321 737.966 953.119 738.381L964.314 737.382C967.3 737.116 969.34 734.678 969.754 730.88L968.157 712.967C990.214 707.238 1003.74 690.234 1001.95 670.082V670.082Z" fill="white"/>
<path d="M921.618 756.237C861.539 740.531 825.895 678.261 842.416 618.861C850.816 586.516 873.316 560.438 902.917 546.514C905.77 544.756 907.063 542.384 906.73 538.651L905.798 528.203C905.532 525.217 903.84 523.111 900.788 522.632C900.041 522.698 898.549 522.831 897.868 523.643C828.962 552.356 796.873 631.199 825.586 700.104C842.747 740.701 877.702 769.933 920.695 779.641C923.814 780.867 926.667 779.108 927.146 776.056C927.826 775.244 927.76 774.497 927.627 773.005L926.695 762.555C926.495 760.316 923.99 757.531 921.618 756.237ZM979.968 516.322C976.849 515.097 973.996 516.855 973.517 519.907C972.836 520.721 972.903 521.466 973.036 522.96L973.968 533.408C974.234 536.394 976.739 539.179 979.111 540.473C1039.19 556.179 1074.83 618.449 1058.31 677.849C1049.91 710.194 1027.41 736.272 997.812 750.196C994.959 751.954 993.666 754.326 993.999 758.059L994.931 768.508C995.197 771.494 996.889 773.6 999.941 774.079C1000.69 774.012 1002.18 773.879 1002.86 773.067C1071.77 744.355 1103.86 665.512 1075.14 596.606C1057.92 555.262 1022.21 526.097 979.968 516.322V516.322Z" fill="white"/>
<g opacity="0.61" filter="url(#filter13_f_5025_10554)">
<path d="M884.5 723.342L831.934 693.856L774.521 680.83L750.642 665.109L748.338 694.063L878.098 744.241L979.584 761.961L1122.54 757.568L1132 701.273L1065.39 707.213L983.314 740.596L884.5 723.342Z" fill="#1E1927"/>
</g>
</g>
<path d="M525.224 622.449C576.887 622.449 618.449 580.887 618.449 529.224C618.449 477.562 576.887 436 525.224 436C473.562 436 432 477.562 432 529.224C432 580.887 473.562 622.449 525.224 622.449Z" fill="#5949A6"/>
<path d="M617.949 529.224C617.949 580.61 576.61 621.949 525.224 621.949C473.838 621.949 432.5 580.61 432.5 529.224C432.5 477.838 473.838 436.5 525.224 436.5C576.61 436.5 617.949 477.838 617.949 529.224Z" stroke="url(#paint33_linear_5025_10554)" stroke-opacity="0.3"/>
<mask id="mask3_5025_10554" style="mask-type:alpha" maskUnits="userSpaceOnUse" x="432" y="436" width="187" height="187">
<path d="M525.224 622.449C576.887 622.449 618.449 580.887 618.449 529.224C618.449 477.562 576.887 436 525.224 436C473.562 436 432 477.562 432 529.224C432 580.887 473.562 622.449 525.224 622.449Z" fill="#2775CA"/>
</mask>
<g mask="url(#mask3_5025_10554)">
<g filter="url(#filter14_f_5025_10554)">
<path d="M579.839 455.55C477.465 443.265 454.602 539.837 455.967 589.659C437.881 564.065 413.79 502.642 462.11 461.692C510.43 420.743 560.729 440.535 579.839 455.55Z" fill="white" fill-opacity="0.4"/>
</g>
</g>
<path d="M524.219 472.866V514.533L559.436 530.27L524.219 472.866Z" fill="white" fill-opacity="0.602"/>
<path d="M524.218 472.866L488.996 530.27L524.218 514.533V472.866Z" fill="white"/>
<path d="M524.219 557.271V585.583L559.459 536.828L524.219 557.271Z" fill="white" fill-opacity="0.602"/>
<path d="M524.218 585.583V557.266L488.996 536.828L524.218 585.583Z" fill="white"/>
<path d="M524.219 550.718L559.436 530.27L524.219 514.542V550.718Z" fill="white" fill-opacity="0.2"/>
<path d="M488.996 530.27L524.218 550.718V514.542L488.996 530.27Z" fill="white" fill-opacity="0.602"/>
<path d="M484.955 871.999C517.121 871.999 542.999 846.121 542.999 813.955C542.999 781.788 517.121 755.91 484.955 755.91C452.788 755.91 426.91 781.788 426.91 813.955C426.91 846.121 452.788 871.999 484.955 871.999Z" fill="#FFFCFB"/>
<path d="M542.499 813.955C542.499 845.845 516.845 871.499 484.955 871.499C453.064 871.499 427.41 845.845 427.41 813.955C427.41 782.064 453.064 756.41 484.955 756.41C516.845 756.41 542.499 782.064 542.499 813.955Z" stroke="url(#paint34_linear_5025_10554)" stroke-opacity="0.39"/>
<mask id="mask4_5025_10554" style="mask-type:alpha" maskUnits="userSpaceOnUse" x="426" y="755" width="117" height="117">
<path d="M484.955 871.999C517.121 871.999 542.999 846.121 542.999 813.955C542.999 781.788 517.121 755.91 484.955 755.91C452.788 755.91 426.91 781.788 426.91 813.955C426.91 846.121 452.788 871.999 484.955 871.999Z" fill="#2775CA"/>
</mask>
<g mask="url(#mask4_5025_10554)">
<g filter="url(#filter15_f_5025_10554)">
<path d="M518.957 768.082C455.217 760.433 440.981 820.562 441.831 851.583C430.57 835.648 415.57 797.403 445.656 771.907C475.741 746.41 507.059 758.734 518.957 768.082Z" fill="white" fill-opacity="0.6"/>
</g>
</g>
<path d="M460.64 828.741C461.074 828.306 461.672 828.053 462.306 828.053H519.785C520.835 828.053 521.361 829.32 520.618 830.063L509.263 841.418C508.829 841.852 508.231 842.106 507.597 842.106H450.118C449.068 842.106 448.543 840.838 449.285 840.096L460.64 828.741Z" fill="url(#paint35_linear_5025_10554)"/>
<path d="M460.64 786.346C461.093 785.912 461.69 785.658 462.306 785.658H519.785C520.835 785.658 521.361 786.926 520.618 787.668L509.263 799.023C508.829 799.458 508.231 799.711 507.597 799.711H450.118C449.068 799.711 448.543 798.443 449.285 797.701L460.64 786.346Z" fill="url(#paint36_linear_5025_10554)"/>
<path d="M509.263 807.408C508.829 806.973 508.231 806.72 507.597 806.72H450.118C449.068 806.72 448.543 807.987 449.285 808.73L460.64 820.084C461.074 820.519 461.672 820.773 462.306 820.773H519.785C520.835 820.773 521.361 819.505 520.618 818.762L509.263 807.408Z" fill="url(#paint37_linear_5025_10554)"/>
<g filter="url(#filter16_ii_5025_10554)">
<path d="M268.413 701.376C310.777 690.024 335.727 646.81 324.376 604.446C313.024 562.082 269.81 537.132 227.446 548.484C185.082 559.835 160.132 603.049 171.484 645.413C182.835 687.777 226.049 712.727 268.413 701.376Z" fill="url(#paint38_radial_5025_10554)"/>
</g>
<g filter="url(#filter17_di_5025_10554)">
<path d="M257.216 638.673C255.359 652.408 247.63 663.244 235.943 667.703C235.694 667.807 232.474 668.948 230.623 669.3C247.67 675.903 264.954 673.137 264.954 673.137C268.654 672.541 272.81 671.752 276.872 670.549C277.305 666.402 276.962 661.88 275.42 657.057C271.84 645.856 276.858 638.268 283.181 633.372C278.018 628.705 273.461 622.598 269.88 616.697C264.714 619.668 258.896 626.214 257.216 638.673Z" fill="url(#paint39_linear_5025_10554)"/>
<path d="M275.175 657.038C276.718 661.86 276.919 666.53 276.487 670.677C286.973 667.569 297.215 661.593 296.962 649.362C296.907 646.767 296.274 644.101 294.664 642.067C293.094 640.085 290.771 638.891 288.632 637.542C286.622 636.243 284.722 634.781 282.953 633.17C276.636 638.066 271.595 645.838 275.175 657.038Z" fill="url(#paint40_linear_5025_10554)"/>
<path d="M269.175 615.532C266.389 611.625 263.843 607.647 260.659 604.167C259.592 602.99 258.445 601.888 257.228 600.867C254.298 598.427 251.254 596.102 247.869 594.335C243.198 595.601 238.103 596.125 233.025 595.031C230.221 602.657 227.963 614.924 236.027 626.074C247.935 642.542 237.101 658.88 230.073 669.082L230.624 669.3C232.368 668.976 234.078 668.492 235.732 667.853C247.417 663.393 255.667 652.206 257.525 638.472C259.206 626.013 264.878 619.931 270.037 616.961C269.742 616.487 269.455 616.01 269.175 615.532Z" fill="url(#paint41_linear_5025_10554)"/>
<path d="M203.069 607.067C198.149 616.559 197.353 628.269 200.284 638.702C201.989 644.773 205.127 650.074 209.167 654.633C209.773 655.317 210.4 655.984 211.048 656.634C221.749 638.019 210.594 617.543 203.069 607.067Z" fill="url(#paint42_linear_5025_10554)"/>
<path d="M236.272 626.009C228.206 614.853 230.368 602.688 233.166 595.065C229.777 594.33 226.565 592.939 223.71 590.971C220.173 591.846 216.813 593.321 213.774 595.33C208.922 598.52 205.254 602.821 202.712 607.727C210.072 617.973 220.985 638.002 210.521 656.208C214.512 660.228 219.226 663.601 224.244 666.344C226.222 667.424 228.267 668.377 230.367 669.198C237.396 659 248.18 642.476 236.272 626.009Z" fill="url(#paint43_linear_5025_10554)"/>
</g>
<g filter="url(#filter18_di_5025_10554)">
<path d="M242.434 578.383C253.393 579.638 260.619 578.837 265.611 577.337L265.731 577.205C238.411 550.245 220.641 581.996 220.641 581.996L220.693 582.049C225.731 579.694 233.339 577.343 242.434 578.383Z" fill="url(#paint44_linear_5025_10554)"/>
<path d="M242.5 578.128C233.411 577.092 225.714 579.286 220.691 582.05C241.413 602.991 263.793 579.334 265.608 577.338C260.612 578.839 253.459 579.383 242.5 578.128Z" fill="url(#paint45_linear_5025_10554)"/>
</g>
<mask id="mask5_5025_10554" style="mask-type:alpha" maskUnits="userSpaceOnUse" x="168" y="545" width="160" height="160">
<path d="M268.413 701.376C310.777 690.024 335.727 646.81 324.376 604.446C313.024 562.082 269.81 537.132 227.446 548.484C185.082 559.835 160.132 603.049 171.484 645.413C182.835 687.777 226.049 712.727 268.413 701.376Z" fill="#2775CA"/>
</mask>
<g mask="url(#mask5_5025_10554)">
<g filter="url(#filter19_f_5025_10554)">
<path d="M276.524 552.515C189.876 564.935 192.347 649.15 204.413 689.705C183.959 672.692 150.707 627.616 181.333 583.42C211.959 539.224 257.554 544.402 276.524 552.515Z" fill="white"/>
</g>
</g>
</g>
<defs>
<filter id="filter0_f_5025_10554" x="84.4375" y="-22.4458" width="1531.28" height="1357.06" filterUnits="userSpaceOnUse" color-interpolation-filters="sRGB">
<feFlood flood-opacity="0" result="BackgroundImageFix"/>
<feBlend mode="normal" in="SourceGraphic" in2="BackgroundImageFix" result="shape"/>
<feGaussianBlur stdDeviation="282" result="effect1_foregroundBlur_5025_10554"/>
</filter>
<filter id="filter1_f_5025_10554" x="512.238" y="143.154" width="1401.1" height="1283.12" filterUnits="userSpaceOnUse" color-interpolation-filters="sRGB">
<feFlood flood-opacity="0" result="BackgroundImageFix"/>
<feBlend mode="normal" in="SourceGraphic" in2="BackgroundImageFix" result="shape"/>
<feGaussianBlur stdDeviation="282" result="effect1_foregroundBlur_5025_10554"/>
</filter>
<filter id="filter2_f_5025_10554" x="-259.723" y="112.732" width="1615.93" height="1405.01" filterUnits="userSpaceOnUse" color-interpolation-filters="sRGB">
<feFlood flood-opacity="0" result="BackgroundImageFix"/>
<feBlend mode="normal" in="SourceGraphic" in2="BackgroundImageFix" result="shape"/>
<feGaussianBlur stdDeviation="282" result="effect1_foregroundBlur_5025_10554"/>
</filter>
<filter id="filter3_f_5025_10554" x="65.3945" y="204.392" width="1779.18" height="1497.49" filterUnits="userSpaceOnUse" color-interpolation-filters="sRGB">
<feFlood flood-opacity="0" result="BackgroundImageFix"/>
<feBlend mode="normal" in="SourceGraphic" in2="BackgroundImageFix" result="shape"/>
<feGaussianBlur stdDeviation="282" result="effect1_foregroundBlur_5025_10554"/>
</filter>
<filter id="filter4_b_5025_10554" x="1.09766" y="708.898" width="192.004" height="192.004" filterUnits="userSpaceOnUse" color-interpolation-filters="sRGB">
<feFlood flood-opacity="0" result="BackgroundImageFix"/>
<feGaussianBlur in="BackgroundImageFix" stdDeviation="27"/>
<feComposite in2="SourceAlpha" operator="in" result="effect1_backgroundBlur_5025_10554"/>
<feBlend mode="normal" in="SourceGraphic" in2="effect1_backgroundBlur_5025_10554" result="shape"/>
</filter>
<filter id="filter5_b_5025_10554" x="224.418" y="722.628" width="140.949" height="140.949" filterUnits="userSpaceOnUse" color-interpolation-filters="sRGB">
<feFlood flood-opacity="0" result="BackgroundImageFix"/>
<feGaussianBlur in="BackgroundImageFix" stdDeviation="27"/>
<feComposite in2="SourceAlpha" operator="in" result="effect1_backgroundBlur_5025_10554"/>
<feBlend mode="normal" in="SourceGraphic" in2="effect1_backgroundBlur_5025_10554" result="shape"/>
</filter>
<filter id="filter6_b_5025_10554" x="692.219" y="349.471" width="188.758" height="188.758" filterUnits="userSpaceOnUse" color-interpolation-filters="sRGB">
<feFlood flood-opacity="0" result="BackgroundImageFix"/>
<feGaussianBlur in="BackgroundImageFix" stdDeviation="27"/>
<feComposite in2="SourceAlpha" operator="in" result="effect1_backgroundBlur_5025_10554"/>
<feBlend mode="normal" in="SourceGraphic" in2="effect1_backgroundBlur_5025_10554" result="shape"/>
</filter>
<filter id="filter7_b_5025_10554" x="1084.85" y="382.432" width="137.145" height="137.144" filterUnits="userSpaceOnUse" color-interpolation-filters="sRGB">
<feFlood flood-opacity="0" result="BackgroundImageFix"/>
<feGaussianBlur in="BackgroundImageFix" stdDeviation="27"/>
<feComposite in2="SourceAlpha" operator="in" result="effect1_backgroundBlur_5025_10554"/>
<feBlend mode="normal" in="SourceGraphic" in2="effect1_backgroundBlur_5025_10554" result="shape"/>
</filter>
<filter id="filter8_bd_5025_10554" x="526.145" y="479.465" width="786.887" height="694.306" filterUnits="userSpaceOnUse" color-interpolation-filters="sRGB">
<feFlood flood-opacity="0" result="BackgroundImageFix"/>
<feGaussianBlur in="BackgroundImageFix" stdDeviation="30"/>
<feComposite in2="SourceAlpha" operator="in" result="effect1_backgroundBlur_5025_10554"/>
<feColorMatrix in="SourceAlpha" type="matrix" values="0 0 0 0 0 0 0 0 0 0 0 0 0 0 0 0 0 0 127 0" result="hardAlpha"/>
<feOffset dy="10"/>
<feGaussianBlur stdDeviation="54"/>
<feComposite in2="hardAlpha" operator="out"/>
<feColorMatrix type="matrix" values="0 0 0 0 0 0 0 0 0 0 0 0 0 0 0 0 0 0 0.25 0"/>
<feBlend mode="normal" in2="effect1_backgroundBlur_5025_10554" result="effect2_dropShadow_5025_10554"/>
<feBlend mode="normal" in="SourceGraphic" in2="effect2_dropShadow_5025_10554" result="shape"/>
</filter>
<filter id="filter9_d_5025_10554" x="658.551" y="831.219" width="131.52" height="150.096" filterUnits="userSpaceOnUse" color-interpolation-filters="sRGB">
<feFlood flood-opacity="0" result="BackgroundImageFix"/>
<feColorMatrix in="SourceAlpha" type="matrix" values="0 0 0 0 0 0 0 0 0 0 0 0 0 0 0 0 0 0 127 0" result="hardAlpha"/>
<feOffset dy="4"/>
<feGaussianBlur stdDeviation="17"/>
<feComposite in2="hardAlpha" operator="out"/>
<feColorMatrix type="matrix" values="0 0 0 0 0 0 0 0 0 0 0 0 0 0 0 0 0 0 0.18 0"/>
<feBlend mode="normal" in2="BackgroundImageFix" result="effect1_dropShadow_5025_10554"/>
<feBlend mode="normal" in="SourceGraphic" in2="effect1_dropShadow_5025_10554" result="shape"/>
</filter>
<filter id="filter10_d_5025_10554" x="584.172" y="530.009" width="672.703" height="582.617" filterUnits="userSpaceOnUse" color-interpolation-filters="sRGB">
<feFlood flood-opacity="0" result="BackgroundImageFix"/>
<feColorMatrix in="SourceAlpha" type="matrix" values="0 0 0 0 0 0 0 0 0 0 0 0 0 0 0 0 0 0 127 0" result="hardAlpha"/>
<feOffset dy="4"/>
<feGaussianBlur stdDeviation="32"/>
<feComposite in2="hardAlpha" operator="out"/>
<feColorMatrix type="matrix" values="0 0 0 0 0 0 0 0 0 0 0 0 0 0 0 0 0 0 0.15 0"/>
<feBlend mode="normal" in2="BackgroundImageFix" result="effect1_dropShadow_5025_10554"/>
<feBlend mode="normal" in="SourceGraphic" in2="effect1_dropShadow_5025_10554" result="shape"/>
</filter>
<filter id="filter11_i_5025_10554" x="733.238" y="616.111" width="417.547" height="135.589" filterUnits="userSpaceOnUse" color-interpolation-filters="sRGB">
<feFlood flood-opacity="0" result="BackgroundImageFix"/>
<feBlend mode="normal" in="SourceGraphic" in2="BackgroundImageFix" result="shape"/>
<feColorMatrix in="SourceAlpha" type="matrix" values="0 0 0 0 0 0 0 0 0 0 0 0 0 0 0 0 0 0 127 0" result="hardAlpha"/>
<feOffset dy="-5"/>
<feGaussianBlur stdDeviation="3.5"/>
<feComposite in2="hardAlpha" operator="arithmetic" k2="-1" k3="1"/>
<feColorMatrix type="matrix" values="0 0 0 0 0 0 0 0 0 0 0 0 0 0 0 0 0 0 0.25 0"/>
<feBlend mode="normal" in2="shape" result="effect1_innerShadow_5025_10554"/>
</filter>
<filter id="filter12_f_5025_10554" x="728.465" y="424.979" width="358.008" height="393.122" filterUnits="userSpaceOnUse" color-interpolation-filters="sRGB">
<feFlood flood-opacity="0" result="BackgroundImageFix"/>
<feBlend mode="normal" in="SourceGraphic" in2="BackgroundImageFix" result="shape"/>
<feGaussianBlur stdDeviation="22" result="effect1_foregroundBlur_5025_10554"/>
</filter>
<filter id="filter13_f_5025_10554" x="724.34" y="641.109" width="431.656" height="144.852" filterUnits="userSpaceOnUse" color-interpolation-filters="sRGB">
<feFlood flood-opacity="0" result="BackgroundImageFix"/>
<feBlend mode="normal" in="SourceGraphic" in2="BackgroundImageFix" result="shape"/>
<feGaussianBlur stdDeviation="12" result="effect1_foregroundBlur_5025_10554"/>
</filter>
<filter id="filter14_f_5025_10554" x="389.703" y="393.336" width="234.137" height="240.323" filterUnits="userSpaceOnUse" color-interpolation-filters="sRGB">
<feFlood flood-opacity="0" result="BackgroundImageFix"/>
<feBlend mode="normal" in="SourceGraphic" in2="BackgroundImageFix" result="shape"/>
<feGaussianBlur stdDeviation="22" result="effect1_foregroundBlur_5025_10554"/>
</filter>
<filter id="filter15_f_5025_10554" x="383.969" y="712.742" width="178.988" height="182.841" filterUnits="userSpaceOnUse" color-interpolation-filters="sRGB">
<feFlood flood-opacity="0" result="BackgroundImageFix"/>
<feBlend mode="normal" in="SourceGraphic" in2="BackgroundImageFix" result="shape"/>
<feGaussianBlur stdDeviation="22" result="effect1_foregroundBlur_5025_10554"/>
</filter>
<filter id="filter16_ii_5025_10554" x="168.746" y="545.745" width="158.367" height="158.37" filterUnits="userSpaceOnUse" color-interpolation-filters="sRGB">
<feFlood flood-opacity="0" result="BackgroundImageFix"/>
<feBlend mode="normal" in="SourceGraphic" in2="BackgroundImageFix" result="shape"/>
<feColorMatrix in="SourceAlpha" type="matrix" values="0 0 0 0 0 0 0 0 0 0 0 0 0 0 0 0 0 0 127 0" result="hardAlpha"/>
<feOffset dy="-4"/>
<feComposite in2="hardAlpha" operator="arithmetic" k2="-1" k3="1"/>
<feColorMatrix type="matrix" values="0 0 0 0 0.2 0 0 0 0 0.184314 0 0 0 0 0.270588 0 0 0 0.1 0"/>
<feBlend mode="normal" in2="shape" result="effect1_innerShadow_5025_10554"/>
<feColorMatrix in="SourceAlpha" type="matrix" values="0 0 0 0 0 0 0 0 0 0 0 0 0 0 0 0 0 0 127 0" result="hardAlpha"/>
<feOffset dy="4"/>
<feComposite in2="hardAlpha" operator="arithmetic" k2="-1" k3="1"/>
<feColorMatrix type="matrix" values="0 0 0 0 0.2 0 0 0 0 0.184314 0 0 0 0 0.270588 0 0 0 0.1 0"/>
<feBlend mode="normal" in2="effect1_innerShadow_5025_10554" result="effect2_innerShadow_5025_10554"/>
</filter>
<filter id="filter17_di_5025_10554" x="198.578" y="587.971" width="98.3867" height="86.7407" filterUnits="userSpaceOnUse" color-interpolation-filters="sRGB">
<feFlood flood-opacity="0" result="BackgroundImageFix"/>
<feColorMatrix in="SourceAlpha" type="matrix" values="0 0 0 0 0 0 0 0 0 0 0 0 0 0 0 0 0 0 127 0" result="hardAlpha"/>
<feOffset dy="1"/>
<feColorMatrix type="matrix" values="0 0 0 0 1 0 0 0 0 1 0 0 0 0 1 0 0 0 1 0"/>
<feBlend mode="normal" in2="BackgroundImageFix" result="effect1_dropShadow_5025_10554"/>
<feBlend mode="normal" in="SourceGraphic" in2="effect1_dropShadow_5025_10554" result="shape"/>
<feColorMatrix in="SourceAlpha" type="matrix" values="0 0 0 0 0 0 0 0 0 0 0 0 0 0 0 0 0 0 127 0" result="hardAlpha"/>
<feOffset dy="-5"/>
<feGaussianBlur stdDeviation="1.5"/>
<feComposite in2="hardAlpha" operator="arithmetic" k2="-1" k3="1"/>
<feColorMatrix type="matrix" values="0 0 0 0 0 0 0 0 0 0 0 0 0 0 0 0 0 0 0.12 0"/>
<feBlend mode="normal" in2="shape" result="effect2_innerShadow_5025_10554"/>
</filter>
<filter id="filter18_di_5025_10554" x="220.641" y="563.35" width="45.0898" height="28.2949" filterUnits="userSpaceOnUse" color-interpolation-filters="sRGB">
<feFlood flood-opacity="0" result="BackgroundImageFix"/>
<feColorMatrix in="SourceAlpha" type="matrix" values="0 0 0 0 0 0 0 0 0 0 0 0 0 0 0 0 0 0 127 0" result="hardAlpha"/>
<feOffset dy="1"/>
<feColorMatrix type="matrix" values="0 0 0 0 1 0 0 0 0 1 0 0 0 0 1 0 0 0 1 0"/>
<feBlend mode="normal" in2="BackgroundImageFix" result="effect1_dropShadow_5025_10554"/>
<feBlend mode="normal" in="SourceGraphic" in2="effect1_dropShadow_5025_10554" result="shape"/>
<feColorMatrix in="SourceAlpha" type="matrix" values="0 0 0 0 0 0 0 0 0 0 0 0 0 0 0 0 0 0 127 0" result="hardAlpha"/>
<feOffset dy="-5"/>
<feGaussianBlur stdDeviation="1.5"/>
<feComposite in2="hardAlpha" operator="arithmetic" k2="-1" k3="1"/>
<feColorMatrix type="matrix" values="0 0 0 0 0 0 0 0 0 0 0 0 0 0 0 0 0 0 0.12 0"/>
<feBlend mode="normal" in2="shape" result="effect2_innerShadow_5025_10554"/>
</filter>
<filter id="filter19_f_5025_10554" x="124.934" y="503.061" width="195.59" height="230.645" filterUnits="userSpaceOnUse" color-interpolation-filters="sRGB">
<feFlood flood-opacity="0" result="BackgroundImageFix"/>
<feBlend mode="normal" in="SourceGraphic" in2="BackgroundImageFix" result="shape"/>
<feGaussianBlur stdDeviation="22" result="effect1_foregroundBlur_5025_10554"/>
</filter>
<linearGradient id="paint0_linear_5025_10554" x1="1248.65" y1="773.708" x2="209.909" y2="773.708" gradientUnits="userSpaceOnUse">
<stop stop-color="white" stop-opacity="0"/>
<stop offset="0.5" stop-color="white"/>
<stop offset="1" stop-color="white" stop-opacity="0"/>
</linearGradient>
<linearGradient id="paint1_linear_5025_10554" x1="1191.83" y1="698.619" x2="265.185" y2="698.619" gradientUnits="userSpaceOnUse">
<stop stop-color="white" stop-opacity="0"/>
<stop offset="0.5" stop-color="white"/>
<stop offset="1" stop-color="white" stop-opacity="0"/>
</linearGradient>
<linearGradient id="paint2_linear_5025_10554" x1="1140.92" y1="923.889" x2="244.17" y2="923.889" gradientUnits="userSpaceOnUse">
<stop stop-color="white" stop-opacity="0"/>
<stop offset="0.5" stop-color="white"/>
<stop offset="1" stop-color="white" stop-opacity="0"/>
</linearGradient>
<linearGradient id="paint3_linear_5025_10554" x1="1212.89" y1="848.8" x2="174.155" y2="848.8" gradientUnits="userSpaceOnUse">
<stop stop-color="white" stop-opacity="0"/>
<stop offset="0.5" stop-color="white"/>
<stop offset="1" stop-color="white" stop-opacity="0"/>
</linearGradient>
<linearGradient id="paint4_linear_5025_10554" x1="1194.33" y1="623.529" x2="368.568" y2="623.529" gradientUnits="userSpaceOnUse">
<stop stop-color="white" stop-opacity="0"/>
<stop offset="0.5" stop-color="white"/>
<stop offset="1" stop-color="white" stop-opacity="0"/>
</linearGradient>
<linearGradient id="paint5_linear_5025_10554" x1="1031.07" y1="548.44" x2="351.032" y2="548.44" gradientUnits="userSpaceOnUse">
<stop stop-color="white" stop-opacity="0"/>
<stop offset="0.5" stop-color="white"/>
<stop offset="1" stop-color="white" stop-opacity="0"/>
</linearGradient>
<linearGradient id="paint6_linear_5025_10554" x1="1009.32" y1="518.941" x2="433.906" y2="518.941" gradientUnits="userSpaceOnUse">
<stop stop-color="white" stop-opacity="0"/>
<stop offset="0.5" stop-color="white"/>
<stop offset="1" stop-color="white" stop-opacity="0"/>
</linearGradient>
<linearGradient id="paint7_linear_5025_10554" x1="1286.91" y1="492.122" x2="505.989" y2="492.122" gradientUnits="userSpaceOnUse">
<stop stop-color="white" stop-opacity="0"/>
<stop offset="0.5" stop-color="white"/>
<stop offset="1" stop-color="white" stop-opacity="0"/>
</linearGradient>
<linearGradient id="paint8_linear_5025_10554" x1="1766.23" y1="333.004" x2="727.487" y2="333.004" gradientUnits="userSpaceOnUse">
<stop stop-color="white" stop-opacity="0"/>
<stop offset="0.5" stop-color="white"/>
<stop offset="1" stop-color="white" stop-opacity="0"/>
</linearGradient>
<linearGradient id="paint9_linear_5025_10554" x1="1730.86" y1="386.641" x2="804.217" y2="386.641" gradientUnits="userSpaceOnUse">
<stop stop-color="white" stop-opacity="0"/>
<stop offset="0.5" stop-color="white"/>
<stop offset="1" stop-color="white" stop-opacity="0"/>
</linearGradient>
<linearGradient id="paint10_linear_5025_10554" x1="1476.14" y1="365.184" x2="579.384" y2="365.184" gradientUnits="userSpaceOnUse">
<stop stop-color="white" stop-opacity="0"/>
<stop offset="0.5" stop-color="white"/>
<stop offset="1" stop-color="white" stop-opacity="0"/>
</linearGradient>
<linearGradient id="paint11_linear_5025_10554" x1="1691.14" y1="297.247" x2="652.397" y2="297.247" gradientUnits="userSpaceOnUse">
<stop stop-color="white" stop-opacity="0"/>
<stop offset="0.5" stop-color="white"/>
<stop offset="1" stop-color="white" stop-opacity="0"/>
</linearGradient>
<linearGradient id="paint12_linear_5025_10554" x1="1706.54" y1="488.547" x2="880.782" y2="488.547" gradientUnits="userSpaceOnUse">
<stop stop-color="white" stop-opacity="0"/>
<stop offset="0.5" stop-color="white"/>
<stop offset="1" stop-color="white" stop-opacity="0"/>
</linearGradient>
<linearGradient id="paint13_linear_5025_10554" x1="1638.04" y1="468.882" x2="958.004" y2="468.882" gradientUnits="userSpaceOnUse">
<stop stop-color="white" stop-opacity="0"/>
<stop offset="0.5" stop-color="white"/>
<stop offset="1" stop-color="white" stop-opacity="0"/>
</linearGradient>
<linearGradient id="paint14_linear_5025_10554" x1="97.0985" y1="762.9" x2="97.0985" y2="882.9" gradientUnits="userSpaceOnUse">
<stop stop-color="#AFD803" stop-opacity="0"/>
<stop offset="1" stop-color="#AFD803"/>
</linearGradient>
<linearGradient id="paint15_linear_5025_10554" x1="786.597" y1="403.473" x2="786.597" y2="518.836" gradientUnits="userSpaceOnUse">
<stop stop-color="#E54033" stop-opacity="0"/>
<stop offset="1" stop-color="#E54033"/>
</linearGradient>
<linearGradient id="paint16_linear_5025_10554" x1="7.40845" y1="940.294" x2="93.4065" y2="828.556" gradientUnits="userSpaceOnUse">
<stop stop-color="#FECA1A" stop-opacity="0"/>
<stop offset="1" stop-color="#FECA1A"/>
</linearGradient>
<linearGradient id="paint17_linear_5025_10554" x1="259.471" y1="846.024" x2="293.202" y2="802.196" gradientUnits="userSpaceOnUse">
<stop stop-color="#FECA1A" stop-opacity="0"/>
<stop offset="1" stop-color="#FECA1A"/>
</linearGradient>
<linearGradient id="paint18_linear_5025_10554" x1="903.585" y1="340.456" x2="795.925" y2="422.818" gradientUnits="userSpaceOnUse">
<stop stop-color="#FECA1A" stop-opacity="0"/>
<stop offset="1" stop-color="#FECA1A"/>
</linearGradient>
<linearGradient id="paint19_linear_5025_10554" x1="1195.84" y1="413.944" x2="1156.99" y2="443.667" gradientUnits="userSpaceOnUse">
<stop stop-color="#FECA1A" stop-opacity="0"/>
<stop offset="1" stop-color="#FECA1A"/>
</linearGradient>
<linearGradient id="paint20_linear_5025_10554" x1="-25.4001" y1="956.686" x2="60.5979" y2="844.948" gradientUnits="userSpaceOnUse">
<stop stop-color="#FECA1A" stop-opacity="0"/>
<stop offset="1" stop-color="#FECA1A"/>
</linearGradient>
<linearGradient id="paint21_linear_5025_10554" x1="246.604" y1="852.453" x2="280.335" y2="808.626" gradientUnits="userSpaceOnUse">
<stop stop-color="#FECA1A" stop-opacity="0"/>
<stop offset="1" stop-color="#FECA1A"/>
</linearGradient>
<linearGradient id="paint22_linear_5025_10554" x1="938.128" y1="333.397" x2="830.468" y2="415.759" gradientUnits="userSpaceOnUse">
<stop stop-color="#FECA1A" stop-opacity="0"/>
<stop offset="1" stop-color="#FECA1A"/>
</linearGradient>
<linearGradient id="paint23_linear_5025_10554" x1="1208.3" y1="411.397" x2="1169.45" y2="441.119" gradientUnits="userSpaceOnUse">
<stop stop-color="#FECA1A" stop-opacity="0"/>
<stop offset="1" stop-color="#FECA1A"/>
</linearGradient>
<linearGradient id="paint24_linear_5025_10554" x1="1189" y1="521.608" x2="1010.56" y2="1250.64" gradientUnits="userSpaceOnUse">
<stop stop-color="#3B3349"/>
<stop offset="1" stop-color="#36333B"/>
</linearGradient>
<linearGradient id="paint25_linear_5025_10554" x1="669.114" y1="507.358" x2="770.896" y2="1098.85" gradientUnits="userSpaceOnUse">
<stop stop-color="white" stop-opacity="0.1"/>
<stop offset="1" stop-color="white" stop-opacity="0.08"/>
</linearGradient>
<linearGradient id="paint26_linear_5025_10554" x1="764.051" y1="856.588" x2="692.146" y2="978.595" gradientUnits="userSpaceOnUse">
<stop stop-color="#B6A5FF"/>
<stop offset="1" stop-color="#5B48AD"/>
</linearGradient>
<linearGradient id="paint27_linear_5025_10554" x1="699.467" y1="849.316" x2="711.549" y2="962.252" gradientUnits="userSpaceOnUse">
<stop stop-color="#E0D9FF" stop-opacity="0.98"/>
<stop offset="1" stop-color="#BDAEFF" stop-opacity="0.52"/>
</linearGradient>
<linearGradient id="paint28_linear_5025_10554" x1="695.103" y1="555.785" x2="700.156" y2="1114.66" gradientUnits="userSpaceOnUse">
<stop stop-color="#E0D9FF" stop-opacity="0.98"/>
<stop offset="1" stop-color="#BDAEFF" stop-opacity="0.52"/>
</linearGradient>
<linearGradient id="paint29_linear_5025_10554" x1="1129.73" y1="674.452" x2="1088.97" y2="840.469" gradientUnits="userSpaceOnUse">
<stop stop-color="#342D3F"/>
<stop offset="1" stop-color="#36333B"/>
</linearGradient>
<linearGradient id="paint30_linear_5025_10554" x1="721.258" y1="599.921" x2="704.424" y2="733.755" gradientUnits="userSpaceOnUse">
<stop stop-color="#4C474B"/>
<stop offset="1" stop-color="white" stop-opacity="0.08"/>
</linearGradient>
<linearGradient id="paint31_linear_5025_10554" x1="1193.6" y1="308.653" x2="844.907" y2="981.471" gradientUnits="userSpaceOnUse">
<stop stop-color="#342D3F"/>
<stop offset="1" stop-color="#36333B"/>
</linearGradient>
<linearGradient id="paint32_linear_5025_10554" x1="780.836" y1="432.445" x2="1111.1" y2="853.806" gradientUnits="userSpaceOnUse">
<stop stop-color="white"/>
<stop offset="1" stop-color="white" stop-opacity="0.08"/>
</linearGradient>
<linearGradient id="paint33_linear_5025_10554" x1="447.634" y1="411.102" x2="598.762" y2="643.873" gradientUnits="userSpaceOnUse">
<stop stop-color="white"/>
<stop offset="1" stop-color="white" stop-opacity="0.08"/>
</linearGradient>
<linearGradient id="paint34_linear_5025_10554" x1="456.988" y1="764.353" x2="519.782" y2="872" gradientUnits="userSpaceOnUse">
<stop stop-color="#24DCB3"/>
<stop offset="1" stop-color="#D428FC"/>
</linearGradient>
<linearGradient id="paint35_linear_5025_10554" x1="514.294" y1="778.876" x2="474.514" y2="855.071" gradientUnits="userSpaceOnUse">
<stop stop-color="#00FFA3"/>
<stop offset="1" stop-color="#DC1FFF"/>
</linearGradient>
<linearGradient id="paint36_linear_5025_10554" x1="496.9" y1="769.794" x2="457.12" y2="845.989" gradientUnits="userSpaceOnUse">
<stop stop-color="#00FFA3"/>
<stop offset="1" stop-color="#DC1FFF"/>
</linearGradient>
<linearGradient id="paint37_linear_5025_10554" x1="505.542" y1="774.306" x2="465.762" y2="850.501" gradientUnits="userSpaceOnUse">
<stop stop-color="#00FFA3"/>
<stop offset="1" stop-color="#DC1FFF"/>
</linearGradient>
<radialGradient id="paint38_radial_5025_10554" cx="0" cy="0" r="1" gradientUnits="userSpaceOnUse" gradientTransform="translate(410.774 672.114) rotate(-154.444) scale(356.893)">
<stop stop-color="#FFE9E8"/>
<stop offset="0.53125" stop-color="#FFF8E1"/>
<stop offset="1" stop-color="#F5FFCA"/>
</radialGradient>
<linearGradient id="paint39_linear_5025_10554" x1="219.022" y1="673.337" x2="286.182" y2="636.619" gradientUnits="userSpaceOnUse">
<stop offset="0.21" stop-color="#E54033"/>
<stop offset="0.84" stop-color="#FECA1A"/>
</linearGradient>
<linearGradient id="paint40_linear_5025_10554" x1="274.325" y1="653.326" x2="296.537" y2="647.552" gradientUnits="userSpaceOnUse">
<stop stop-color="#FECA1A"/>
<stop offset="0.4" stop-color="#FECA1A"/>
<stop offset="1" stop-color="#AFD803"/>
</linearGradient>
<linearGradient id="paint41_linear_5025_10554" x1="225.568" y1="672.064" x2="254.529" y2="598.357" gradientUnits="userSpaceOnUse">
<stop offset="0.16" stop-color="#E54033"/>
<stop offset="0.84" stop-color="#FECA1A"/>
</linearGradient>
<linearGradient id="paint42_linear_5025_10554" x1="202.569" y1="612.701" x2="211.205" y2="652.982" gradientUnits="userSpaceOnUse">
<stop stop-color="#FECA1A"/>
<stop offset="0.76" stop-color="#E54033"/>
</linearGradient>
<linearGradient id="paint43_linear_5025_10554" x1="222.034" y1="596.424" x2="222.246" y2="645.766" gradientUnits="userSpaceOnUse">
<stop offset="0.16" stop-color="#FECA1A"/>
<stop offset="1" stop-color="#E54033"/>
</linearGradient>
<linearGradient id="paint44_linear_5025_10554" x1="220.819" y1="573.098" x2="270.199" y2="577.622" gradientUnits="userSpaceOnUse">
<stop offset="0.15" stop-color="#6CBF00"/>
<stop offset="1" stop-color="#AFD803"/>
</linearGradient>
<linearGradient id="paint45_linear_5025_10554" x1="33642.4" y1="-4275.92" x2="24486.7" y2="-9735.75" gradientUnits="userSpaceOnUse">
<stop offset="0.15" stop-color="#6CBF00"/>
<stop offset="1" stop-color="#AFD803"/>
</linearGradient>
</defs>
</svg>
