<svg width="1330" height="966" viewBox="0 0 1330 966" fill="none" xmlns="http://www.w3.org/2000/svg">
<mask id="mask0_5033_11189" style="mask-type:alpha" maskUnits="userSpaceOnUse" x="0" y="0" width="1330" height="967">
<rect y="0.000488281" width="1330" height="966" fill="url(#paint0_linear_5033_11189)"/>
</mask>
<g mask="url(#mask0_5033_11189)">
<g opacity="0.3">
<rect x="429.074" y="210.124" width="623.97" height="2.02588" fill="url(#paint1_radial_5033_11189)" fill-opacity="0.3"/>
<rect x="398.691" y="125.038" width="846.817" height="2.02588" fill="url(#paint2_radial_5033_11189)" fill-opacity="0.3"/>
<rect x="254.859" y="39.9526" width="972.421" height="2.02588" fill="url(#paint3_radial_5033_11189)" fill-opacity="0.3"/>
<rect x="464.527" y="-418.909" width="623.97" height="2.02588" transform="rotate(90 464.527 -418.909)" fill="url(#paint4_radial_5033_11189)" fill-opacity="0.3"/>
<rect x="549.613" y="-449.299" width="846.817" height="2.02588" transform="rotate(90 549.613 -449.299)" fill="url(#paint5_radial_5033_11189)" fill-opacity="0.3"/>
<rect x="804.879" y="-629.601" width="1126.39" height="2.02588" transform="rotate(90 804.879 -629.601)" fill="url(#paint6_radial_5033_11189)" fill-opacity="0.3"/>
<rect x="889.965" y="-568.824" width="1004.84" height="2.02588" transform="rotate(90 889.965 -568.824)" fill="url(#paint7_radial_5033_11189)" fill-opacity="0.3"/>
<rect x="634.703" y="-593.137" width="972.421" height="2.02588" transform="rotate(90 634.703 -593.137)" fill="url(#paint8_radial_5033_11189)" fill-opacity="0.3"/>
<rect x="719.789" y="-670.12" width="1126.39" height="2.02588" transform="rotate(90 719.789 -670.12)" fill="url(#paint9_radial_5033_11189)" fill-opacity="0.3"/>
<rect x="975.047" y="-453.35" width="895.438" height="2.02588" transform="rotate(90 975.047 -453.35)" fill="url(#paint10_radial_5033_11189)" fill-opacity="0.3"/>
<rect x="1060.13" y="-475.634" width="737.419" height="2.02588" transform="rotate(90 1060.13 -475.634)" fill="url(#paint11_radial_5033_11189)" fill-opacity="0.3"/>
</g>
<g opacity="0.6">
<g opacity="0.8">
<g opacity="0.5" filter="url(#filter0_f_5033_11189)">
<ellipse rx="161.853" ry="166.05" transform="matrix(0.789532 0.61371 -0.939631 0.342188 639.946 -121.991)" fill="#AFD803"/>
</g>
<g opacity="0.5" filter="url(#filter1_f_5033_11189)">
<ellipse rx="109.605" ry="112.447" transform="matrix(0.789532 0.61371 -0.939631 0.342188 1002.96 5.80375)" fill="#AFD803"/>
</g>
<g opacity="0.5" filter="url(#filter2_f_5033_11189)">
<ellipse rx="195.673" ry="201.008" transform="matrix(0.789532 0.61371 -0.939631 0.342188 338.476 37.8521)" fill="#E54033"/>
</g>
<g opacity="0.5" filter="url(#filter3_f_5033_11189)">
<ellipse rx="260.897" ry="268.427" transform="matrix(0.789532 0.61371 -0.939631 0.342188 745.534 174.818)" fill="#FECA1A" fill-opacity="0.8"/>
</g>
</g>
<g filter="url(#filter4_b_5033_11189)">
<ellipse cx="150.639" cy="143.722" rx="42" ry="42" transform="rotate(-116.485 150.639 143.722)" fill="url(#paint12_linear_5033_11189)"/>
</g>
<g filter="url(#filter5_b_5033_11189)">
<ellipse cx="333.68" cy="219.609" rx="16.4739" ry="16.4739" transform="rotate(-116.485 333.68 219.609)" fill="#5B48AD"/>
</g>
<g filter="url(#filter6_b_5033_11189)">
<ellipse cx="1009.61" cy="206.608" rx="40.377" ry="40.377" transform="rotate(78.5154 1009.61 206.608)" fill="url(#paint13_linear_5033_11189)"/>
</g>
<g filter="url(#filter7_b_5033_11189)">
<ellipse cx="1255.37" cy="287.394" rx="14.5711" ry="14.5711" transform="rotate(78.5154 1255.37 287.394)" fill="#FECA1A"/>
</g>
</g>
<path d="M335.224 476.449C386.887 476.449 428.449 434.887 428.449 383.225C428.449 331.563 386.887 290 335.224 290C283.562 290 242 331.563 242 383.225C242 434.887 283.562 476.449 335.224 476.449Z" fill="#5949A6"/>
<path d="M427.949 383.225C427.949 434.611 386.61 475.949 335.224 475.949C283.838 475.949 242.5 434.611 242.5 383.225C242.5 331.839 283.838 290.5 335.224 290.5C386.61 290.5 427.949 331.839 427.949 383.225Z" stroke="url(#paint14_linear_5033_11189)" stroke-opacity="0.3"/>
<mask id="mask1_5033_11189" style="mask-type:alpha" maskUnits="userSpaceOnUse" x="242" y="290" width="187" height="187">
<path d="M335.224 476.449C386.887 476.449 428.449 434.887 428.449 383.225C428.449 331.563 386.887 290 335.224 290C283.562 290 242 331.563 242 383.225C242 434.887 283.562 476.449 335.224 476.449Z" fill="#2775CA"/>
</mask>
<g mask="url(#mask1_5033_11189)">
<g filter="url(#filter8_f_5033_11189)">
<path d="M389.839 309.55C287.465 297.266 264.602 393.838 265.967 443.659C247.881 418.066 223.79 356.642 272.11 315.693C320.43 274.744 370.729 294.536 389.839 309.55Z" fill="white" fill-opacity="0.4"/>
</g>
</g>
<path d="M334.219 326.867V368.533L369.436 384.27L334.219 326.867Z" fill="white" fill-opacity="0.602"/>
<path d="M334.218 326.867L298.996 384.27L334.218 368.533V326.867Z" fill="white"/>
<path d="M334.219 411.272V439.583L369.459 390.828L334.219 411.272Z" fill="white" fill-opacity="0.602"/>
<path d="M334.218 439.583V411.267L298.996 390.828L334.218 439.583Z" fill="white"/>
<path d="M334.219 404.718L369.436 384.27L334.219 368.543V404.718Z" fill="white" fill-opacity="0.2"/>
<path d="M298.996 384.27L334.218 404.718V368.543L298.996 384.27Z" fill="white" fill-opacity="0.602"/>
<path d="M305.044 157.089C337.211 157.089 363.089 131.212 363.089 99.045C363.089 66.8785 337.211 41.0005 305.044 41.0005C272.878 41.0005 247 66.8785 247 99.045C247 131.212 272.878 157.089 305.044 157.089Z" fill="#FFFCFB"/>
<path d="M362.589 99.045C362.589 130.935 336.935 156.589 305.044 156.589C273.154 156.589 247.5 130.935 247.5 99.045C247.5 67.1546 273.154 41.5005 305.044 41.5005C336.935 41.5005 362.589 67.1546 362.589 99.045Z" stroke="url(#paint15_linear_5033_11189)" stroke-opacity="0.39"/>
<mask id="mask2_5033_11189" style="mask-type:alpha" maskUnits="userSpaceOnUse" x="247" y="41" width="117" height="117">
<path d="M305.044 157.089C337.211 157.089 363.089 131.212 363.089 99.045C363.089 66.8785 337.211 41.0005 305.044 41.0005C272.878 41.0005 247 66.8785 247 99.045C247 131.212 272.878 157.089 305.044 157.089Z" fill="#2775CA"/>
</mask>
<g mask="url(#mask2_5033_11189)">
<g filter="url(#filter9_f_5033_11189)">
<path d="M339.047 53.1726C275.306 45.5237 261.071 105.653 261.921 136.673C250.66 120.738 235.66 82.4934 265.746 56.9971C295.831 31.5008 327.149 43.824 339.047 53.1726Z" fill="white" fill-opacity="0.6"/>
</g>
</g>
<path d="M280.73 113.831C281.164 113.397 281.762 113.143 282.396 113.143H339.875C340.925 113.143 341.45 114.411 340.708 115.153L329.353 126.508C328.919 126.942 328.321 127.196 327.687 127.196H270.208C269.158 127.196 268.633 125.928 269.375 125.186L280.73 113.831Z" fill="url(#paint16_linear_5033_11189)"/>
<path d="M280.73 71.4367C281.182 71.0021 281.78 70.7485 282.396 70.7485H339.875C340.925 70.7485 341.45 72.0162 340.708 72.7587L329.353 84.1132C328.919 84.5479 328.321 84.8014 327.687 84.8014H270.208C269.158 84.8014 268.633 83.5337 269.375 82.7913L280.73 71.4367Z" fill="url(#paint17_linear_5033_11189)"/>
<path d="M329.353 92.4982C328.919 92.0636 328.321 91.8101 327.687 91.8101H270.208C269.158 91.8101 268.633 93.0777 269.375 93.8202L280.73 105.175C281.164 105.609 281.762 105.863 282.396 105.863H339.875C340.925 105.863 341.45 104.595 340.708 103.853L329.353 92.4982Z" fill="url(#paint18_linear_5033_11189)"/>
<g filter="url(#filter10_ii_5033_11189)">
<path d="M1226.41 201.376C1268.78 190.025 1293.73 146.811 1282.38 104.446C1271.02 62.0824 1227.81 37.1327 1185.45 48.4841C1143.08 59.8356 1118.13 103.05 1129.48 145.414C1140.84 187.778 1184.05 212.727 1226.41 201.376Z" fill="url(#paint19_radial_5033_11189)"/>
</g>
<g filter="url(#filter11_di_5033_11189)">
<path d="M1215.22 138.673C1213.36 152.409 1205.63 163.245 1193.94 167.704C1193.69 167.808 1190.47 168.949 1188.62 169.301C1205.67 175.903 1222.95 173.138 1222.95 173.138C1226.65 172.542 1230.81 171.752 1234.87 170.549C1235.3 166.403 1234.96 161.88 1233.42 157.057C1229.84 145.856 1234.86 138.269 1241.18 133.372C1236.02 128.705 1231.46 122.598 1227.88 116.698C1222.71 119.668 1216.9 126.215 1215.22 138.673Z" fill="url(#paint20_linear_5033_11189)"/>
<path d="M1233.17 157.038C1234.72 161.86 1234.92 166.531 1234.49 170.677C1244.97 167.569 1255.22 161.593 1254.96 149.363C1254.91 146.768 1254.27 144.101 1252.66 142.067C1251.09 140.086 1248.77 138.891 1246.63 137.542C1244.62 136.244 1242.72 134.782 1240.95 133.17C1234.64 138.067 1229.6 145.838 1233.17 157.038Z" fill="url(#paint21_linear_5033_11189)"/>
<path d="M1227.18 115.533C1224.39 111.625 1221.84 107.648 1218.66 104.167C1217.59 102.991 1216.45 101.888 1215.23 100.867C1212.3 98.4274 1209.25 96.1027 1205.87 94.3357C1201.2 95.6018 1196.1 96.1259 1191.02 95.0315C1188.22 102.657 1185.96 114.924 1194.03 126.075C1205.93 142.543 1195.1 158.881 1188.07 169.082L1188.62 169.301C1190.37 168.977 1192.08 168.492 1193.73 167.853C1205.42 163.393 1213.67 152.206 1215.53 138.472C1217.21 126.013 1222.88 119.932 1228.04 116.962C1227.74 116.487 1227.45 116.011 1227.18 115.533Z" fill="url(#paint22_linear_5033_11189)"/>
<path d="M1161.07 107.067C1156.15 116.56 1155.35 128.269 1158.28 138.703C1159.99 144.774 1163.13 150.074 1167.17 154.633C1167.77 155.317 1168.4 155.984 1169.05 156.634C1179.75 138.019 1168.59 117.543 1161.07 107.067Z" fill="url(#paint23_linear_5033_11189)"/>
<path d="M1194.27 126.009C1186.21 114.853 1188.37 102.689 1191.17 95.0659C1187.78 94.3307 1184.56 92.9399 1181.71 90.9717C1178.17 91.847 1174.81 93.3214 1171.77 95.331C1166.92 98.5204 1163.25 102.822 1160.71 107.727C1168.07 117.973 1178.98 138.003 1168.52 156.209C1172.51 160.229 1177.23 163.602 1182.24 166.344C1184.22 167.425 1186.27 168.378 1188.37 169.198C1195.4 159.001 1206.18 142.477 1194.27 126.009Z" fill="url(#paint24_linear_5033_11189)"/>
</g>
<g filter="url(#filter12_di_5033_11189)">
<path d="M1200.43 78.3836C1211.39 79.6385 1218.62 78.8377 1223.61 77.3379L1223.73 77.2055C1196.41 50.2455 1178.64 81.9961 1178.64 81.9961L1178.69 82.0493C1183.73 79.6949 1191.34 77.3439 1200.43 78.3836Z" fill="url(#paint25_linear_5033_11189)"/>
<path d="M1200.5 78.1288C1191.41 77.0926 1183.71 79.2869 1178.69 82.0501C1199.41 102.991 1221.79 79.3346 1223.61 77.3387C1218.61 78.8395 1211.46 79.3837 1200.5 78.1288Z" fill="url(#paint26_linear_5033_11189)"/>
</g>
<mask id="mask3_5033_11189" style="mask-type:alpha" maskUnits="userSpaceOnUse" x="1126" y="45" width="160" height="160">
<path d="M1226.41 201.376C1268.78 190.025 1293.73 146.811 1282.38 104.446C1271.02 62.0824 1227.81 37.1327 1185.45 48.4841C1143.08 59.8356 1118.13 103.05 1129.48 145.414C1140.84 187.778 1184.05 212.727 1226.41 201.376Z" fill="#2775CA"/>
</mask>
<g mask="url(#mask3_5033_11189)">
<g filter="url(#filter13_f_5033_11189)">
<path d="M1234.52 52.5158C1147.88 64.9359 1150.35 149.151 1162.41 189.705C1141.96 172.692 1108.71 127.617 1139.33 83.4205C1169.96 39.2242 1215.55 44.4023 1234.52 52.5158Z" fill="white"/>
</g>
</g>
</g>
<g filter="url(#filter14_bd_5033_11189)">
<rect x="436.504" y="169.812" width="529.563" height="415.698" rx="71" transform="rotate(9.90457 436.504 169.812)" fill="url(#paint27_linear_5033_11189)"/>
<rect x="437.317" y="170.969" width="527.563" height="413.698" rx="70" transform="rotate(9.90457 437.317 170.969)" stroke="url(#paint28_linear_5033_11189)" stroke-width="2"/>
</g>
<g filter="url(#filter15_d_5033_11189)">
<mask id="path-50-inside-1_5033_11189" fill="white">
<path fill-rule="evenodd" clip-rule="evenodd" d="M466.307 469.409C466.307 469.408 466.306 469.408 466.305 469.408V469.408C466.304 469.408 466.303 469.407 466.302 469.406L466.294 469.382C466.288 469.367 466.279 469.359 466.293 469.349C466.788 468.996 488.232 453.882 498.069 480.178C498.075 480.192 498.068 480.209 498.054 480.215L497.96 480.255C497.96 480.255 497.96 480.255 497.96 480.255V480.255C497.96 480.255 497.96 480.255 497.96 480.255C496.116 481.031 473.699 489.943 466.307 469.409ZM470.538 481.978C470.539 481.978 470.539 481.978 470.539 481.978V481.978C470.539 481.977 470.54 481.977 470.54 481.977C472.637 483.562 474.975 484.641 477.372 485.359C479.498 485.996 481.523 487.096 482.658 489.003C483.513 490.439 484.268 491.937 484.983 493.45C485.483 494.516 485.909 495.615 486.26 496.738C487.074 499.315 487.54 501.972 488.011 504.66L488.011 504.661C488.149 505.449 488.288 506.24 488.436 507.033C488.468 507.365 488.503 507.697 488.542 508.031C488.542 508.035 488.546 508.038 488.551 508.038V508.038C488.555 508.038 488.559 508.041 488.559 508.045C489.125 513.124 490.281 518.646 492.294 523.39C492.294 523.391 492.293 523.393 492.292 523.393V523.393C492.29 523.394 492.289 523.396 492.29 523.397C492.957 524.956 493.747 526.46 494.652 527.895C494.831 528.171 495.015 528.446 495.199 528.721L495.2 528.723L495.2 528.723L495.201 528.725L495.201 528.725C496.065 530.017 496.934 531.318 497.294 532.818C497.741 534.687 497.335 536.676 496.562 538.437C492.917 546.733 484.173 547.555 476.158 546.373C476.155 546.373 476.154 546.37 476.155 546.367V546.367C476.157 546.365 476.155 546.362 476.153 546.362C473.154 545.899 470.226 545.158 467.642 544.429C467.64 544.429 467.641 544.429 467.639 544.428C467.578 544.411 455.145 540.872 445.772 531.146C445.769 531.143 445.765 531.14 445.761 531.139V531.139C445.757 531.138 445.753 531.136 445.75 531.133L445.453 530.819C445.452 530.819 445.452 530.818 445.453 530.818V530.818C445.453 530.818 445.453 530.817 445.453 530.817C444.361 529.661 443.339 528.441 442.394 527.162C439.883 523.761 437.772 520.032 436.344 516.095C436.338 516.08 436.344 516.063 436.357 516.053V516.053C436.37 516.044 436.376 516.027 436.371 516.011C436.207 515.539 436.054 515.065 435.911 514.587C434.618 510.263 434.163 505.722 434.912 501.11C436.167 493.372 440.189 485.926 446.21 481.069C446.213 481.067 446.215 481.063 446.214 481.059V481.059C446.213 481.056 446.215 481.052 446.218 481.049C446.359 480.941 446.5 480.833 446.643 480.727L446.653 480.72C446.653 480.72 446.653 480.72 446.653 480.72V480.72C446.653 480.72 446.653 480.72 446.653 480.72C449.795 478.395 453.45 476.775 457.514 476.174C459.334 475.9 461.177 475.839 463.005 475.992C464.635 476.128 465.991 477.18 466.998 478.469C468.023 479.781 469.212 480.961 470.538 481.978Z"/>
</mask>
<path fill-rule="evenodd" clip-rule="evenodd" d="M466.307 469.409C466.307 469.408 466.306 469.408 466.305 469.408V469.408C466.304 469.408 466.303 469.407 466.302 469.406L466.294 469.382C466.288 469.367 466.279 469.359 466.293 469.349C466.788 468.996 488.232 453.882 498.069 480.178C498.075 480.192 498.068 480.209 498.054 480.215L497.96 480.255C497.96 480.255 497.96 480.255 497.96 480.255V480.255C497.96 480.255 497.96 480.255 497.96 480.255C496.116 481.031 473.699 489.943 466.307 469.409ZM470.538 481.978C470.539 481.978 470.539 481.978 470.539 481.978V481.978C470.539 481.977 470.54 481.977 470.54 481.977C472.637 483.562 474.975 484.641 477.372 485.359C479.498 485.996 481.523 487.096 482.658 489.003C483.513 490.439 484.268 491.937 484.983 493.45C485.483 494.516 485.909 495.615 486.26 496.738C487.074 499.315 487.54 501.972 488.011 504.66L488.011 504.661C488.149 505.449 488.288 506.24 488.436 507.033C488.468 507.365 488.503 507.697 488.542 508.031C488.542 508.035 488.546 508.038 488.551 508.038V508.038C488.555 508.038 488.559 508.041 488.559 508.045C489.125 513.124 490.281 518.646 492.294 523.39C492.294 523.391 492.293 523.393 492.292 523.393V523.393C492.29 523.394 492.289 523.396 492.29 523.397C492.957 524.956 493.747 526.46 494.652 527.895C494.831 528.171 495.015 528.446 495.199 528.721L495.2 528.723L495.2 528.723L495.201 528.725L495.201 528.725C496.065 530.017 496.934 531.318 497.294 532.818C497.741 534.687 497.335 536.676 496.562 538.437C492.917 546.733 484.173 547.555 476.158 546.373C476.155 546.373 476.154 546.37 476.155 546.367V546.367C476.157 546.365 476.155 546.362 476.153 546.362C473.154 545.899 470.226 545.158 467.642 544.429C467.64 544.429 467.641 544.429 467.639 544.428C467.578 544.411 455.145 540.872 445.772 531.146C445.769 531.143 445.765 531.14 445.761 531.139V531.139C445.757 531.138 445.753 531.136 445.75 531.133L445.453 530.819C445.452 530.819 445.452 530.818 445.453 530.818V530.818C445.453 530.818 445.453 530.817 445.453 530.817C444.361 529.661 443.339 528.441 442.394 527.162C439.883 523.761 437.772 520.032 436.344 516.095C436.338 516.08 436.344 516.063 436.357 516.053V516.053C436.37 516.044 436.376 516.027 436.371 516.011C436.207 515.539 436.054 515.065 435.911 514.587C434.618 510.263 434.163 505.722 434.912 501.11C436.167 493.372 440.189 485.926 446.21 481.069C446.213 481.067 446.215 481.063 446.214 481.059V481.059C446.213 481.056 446.215 481.052 446.218 481.049C446.359 480.941 446.5 480.833 446.643 480.727L446.653 480.72C446.653 480.72 446.653 480.72 446.653 480.72V480.72C446.653 480.72 446.653 480.72 446.653 480.72C449.795 478.395 453.45 476.775 457.514 476.174C459.334 475.9 461.177 475.839 463.005 475.992C464.635 476.128 465.991 477.18 466.998 478.469C468.023 479.781 469.212 480.961 470.538 481.978Z" fill="url(#paint29_linear_5033_11189)" fill-opacity="0.1" shape-rendering="crispEdges"/>
<path d="M484.983 493.45L485.889 493.026L485.887 493.023L484.983 493.45ZM486.26 496.738L485.305 497.036L485.306 497.04L486.26 496.738ZM488.011 504.66L487.026 504.833L487.029 504.85L487.033 504.867L488.011 504.66ZM488.011 504.661L488.996 504.488L488.993 504.471L488.99 504.454L488.011 504.661ZM488.436 507.033L489.432 506.939L489.428 506.894L489.419 506.849L488.436 507.033ZM494.652 527.895L493.807 528.429L493.812 528.437L494.652 527.895ZM495.199 528.721L494.367 529.277L494.368 529.279L495.199 528.721ZM495.2 528.723L494.369 529.28L494.375 529.289L494.381 529.298L495.2 528.723ZM495.2 528.723L496.032 528.169L496.025 528.159L496.018 528.148L495.2 528.723ZM495.201 528.725L494.368 529.279L494.372 529.284L495.201 528.725ZM495.201 528.725L496.033 528.17L496.03 528.166L495.201 528.725ZM497.294 532.818L498.266 532.585L498.266 532.585L497.294 532.818ZM496.562 538.437L497.477 538.839L497.477 538.839L496.562 538.437ZM442.394 527.162L441.589 527.756L441.589 527.756L442.394 527.162ZM435.911 514.587L436.869 514.301L436.869 514.301L435.911 514.587ZM434.912 501.11L435.899 501.27L435.899 501.27L434.912 501.11ZM446.643 480.727L447.239 481.531L447.247 481.525L447.255 481.518L446.643 480.727ZM457.514 476.174L457.66 477.163L457.663 477.163L457.514 476.174ZM463.005 475.992L463.088 474.995L463.005 475.992ZM466.998 478.469L466.21 479.085L466.998 478.469ZM446.653 480.72L447.248 481.524L446.653 480.72ZM446.653 480.72L447.265 481.511L446.653 480.72ZM446.218 481.049L445.607 480.258L446.218 481.049ZM436.371 516.011L435.426 516.339L436.371 516.011ZM436.344 516.095L435.404 516.436L436.344 516.095ZM445.453 530.817L444.726 531.504L445.453 530.817ZM492.29 523.397L491.371 523.791L492.29 523.397ZM492.294 523.39L493.214 522.999L492.294 523.39ZM445.453 530.819L446.178 530.131L445.453 530.819ZM477.372 485.359L477.085 486.317L477.372 485.359ZM482.658 489.003L483.517 488.491L482.658 489.003ZM445.75 531.133L446.476 530.445L446.476 530.445L445.75 531.133ZM470.538 481.978L471.147 481.184L470.538 481.978ZM445.772 531.146L446.492 530.452L445.772 531.146ZM470.539 481.978L469.833 481.269L470.539 481.978ZM470.54 481.977L471.143 481.18L471.143 481.18L470.54 481.977ZM467.642 544.429L467.371 545.392L467.642 544.429ZM467.639 544.428L467.366 545.39L467.639 544.428ZM497.96 480.255L497.572 479.333L497.96 480.255ZM446.21 481.069L445.583 480.291L446.21 481.069ZM488.559 508.045L489.553 507.935L488.559 508.045ZM476.153 546.362L476 547.35L476.153 546.362ZM497.96 480.255L498.349 481.176L497.96 480.255ZM488.542 508.031L487.548 508.147L488.542 508.031ZM476.158 546.373L476.012 547.362L476.158 546.373ZM498.069 480.178L499.006 479.827L498.069 480.178ZM498.054 480.215L498.443 481.136L498.443 481.136L498.054 480.215ZM466.294 469.382L467.235 469.045L466.294 469.382ZM466.293 469.349L466.874 470.163L466.293 469.349ZM466.302 469.406L467.244 469.069L466.302 469.406ZM466.305 469.408L466.307 470.408L466.305 469.408ZM466.307 469.409L465.366 469.748L466.307 469.409ZM467.244 469.069L467.235 469.045L465.353 469.72L465.361 469.743L467.244 469.069ZM466.874 470.163C467.094 470.006 472.391 466.279 478.758 465.767C481.909 465.513 485.291 466.049 488.468 468.174C491.651 470.303 494.726 474.093 497.133 480.528L499.006 479.827C496.495 473.114 493.2 468.933 489.58 466.511C485.954 464.085 482.099 463.491 478.598 463.773C471.66 464.332 465.987 468.339 465.712 468.535L466.874 470.163ZM497.665 479.293L497.571 479.333L498.349 481.176L498.443 481.136L497.665 479.293ZM465.366 469.748C467.281 475.066 470.198 478.546 473.571 480.716C476.932 482.879 480.674 483.697 484.178 483.822C491.158 484.072 497.387 481.581 498.348 481.177L497.572 479.333C496.69 479.705 490.787 482.058 484.25 481.824C480.996 481.707 477.632 480.952 474.653 479.035C471.687 477.126 469.029 474.019 467.248 469.071L465.366 469.748ZM477.659 484.401C475.354 483.711 473.128 482.679 471.143 481.18L469.937 482.775C472.146 484.444 474.596 485.571 477.085 486.317L477.659 484.401ZM485.887 493.023C485.166 491.496 484.395 489.966 483.517 488.491L481.799 489.514C482.631 490.912 483.37 492.378 484.079 493.878L485.887 493.023ZM487.214 496.44C486.85 495.274 486.407 494.133 485.889 493.026L484.078 493.875C484.558 494.899 484.968 495.956 485.305 497.036L487.214 496.44ZM488.996 504.488C488.527 501.811 488.051 499.087 487.213 496.437L485.306 497.04C486.097 499.542 486.553 502.134 487.026 504.833L488.996 504.488ZM488.99 504.454L488.99 504.454L487.033 504.867L487.033 504.867L488.99 504.454ZM489.419 506.849C489.272 506.063 489.135 505.277 488.996 504.488L487.026 504.833C487.164 505.621 487.304 506.418 487.453 507.217L489.419 506.849ZM489.535 507.915C489.497 507.589 489.462 507.263 489.432 506.939L487.441 507.127C487.473 507.466 487.509 507.806 487.548 508.147L489.535 507.915ZM493.214 522.999C491.252 518.374 490.113 512.955 489.553 507.935L487.566 508.156C488.138 513.294 489.311 518.918 491.373 523.78L493.214 522.999ZM495.498 527.361C494.621 525.971 493.856 524.514 493.209 523.004L491.371 523.791C492.059 525.398 492.873 526.949 493.807 528.429L495.498 527.361ZM496.03 528.166C495.845 527.889 495.666 527.621 495.493 527.353L493.812 528.437C493.996 528.721 494.184 529.003 494.367 529.277L496.03 528.166ZM496.03 528.165L496.029 528.164L494.368 529.279L494.369 529.28L496.03 528.165ZM496.018 528.148L496.018 528.148L494.381 529.298L494.382 529.298L496.018 528.148ZM496.033 528.171L496.032 528.169L494.367 529.277L494.368 529.279L496.033 528.171ZM496.03 528.166L496.03 528.165L494.372 529.284L494.372 529.285L496.03 528.166ZM498.266 532.585C497.858 530.881 496.877 529.433 496.033 528.17L494.37 529.281C495.252 530.601 496.01 531.754 496.321 533.051L498.266 532.585ZM497.477 538.839C498.302 536.962 498.782 534.74 498.266 532.585L496.321 533.051C496.7 534.634 496.368 536.391 495.646 538.035L497.477 538.839ZM476.012 547.362C480.085 547.963 484.442 548.072 488.287 546.917C492.174 545.749 495.523 543.289 497.477 538.839L495.646 538.035C493.956 541.882 491.111 543.98 487.711 545.002C484.269 546.036 480.246 545.965 476.304 545.384L476.012 547.362ZM467.371 545.392C469.971 546.125 472.944 546.878 476 547.35L476.305 545.373C473.365 544.92 470.481 544.191 467.914 543.467L467.371 545.392ZM445.052 531.84C454.615 541.764 467.264 545.361 467.366 545.39L467.912 543.466C467.92 543.469 464.857 542.599 460.638 540.53C456.415 538.459 451.072 535.205 446.492 530.452L445.052 531.84ZM444.727 531.507L445.024 531.821L446.476 530.445L446.178 530.131L444.727 531.507ZM441.589 527.756C442.559 529.067 443.606 530.319 444.726 531.504L446.18 530.13C445.115 529.003 444.119 527.814 443.198 526.567L441.589 527.756ZM435.404 516.436C436.87 520.479 439.032 524.291 441.589 527.756L443.198 526.568C440.735 523.23 438.673 519.586 437.284 515.755L435.404 516.436ZM434.953 514.873C435.1 515.365 435.257 515.853 435.426 516.339L437.315 515.684C437.156 515.225 437.008 514.764 436.869 514.301L434.953 514.873ZM433.925 500.95C433.148 505.731 433.623 510.426 434.953 514.874L436.869 514.301C435.613 510.1 435.178 505.712 435.899 501.27L433.925 500.95ZM445.583 480.291C439.35 485.318 435.215 492.995 433.925 500.95L435.899 501.27C437.118 493.75 441.028 486.534 446.838 481.848L445.583 480.291ZM446.048 479.924C445.9 480.034 445.753 480.145 445.607 480.258L446.829 481.841C446.965 481.736 447.101 481.633 447.239 481.531L446.048 479.924ZM446.041 479.929L446.032 479.936L447.255 481.518L447.265 481.511L446.041 479.929ZM457.368 475.185C453.128 475.812 449.321 477.501 446.058 479.916L447.248 481.524C450.269 479.288 453.772 477.738 457.66 477.163L457.368 475.185ZM463.088 474.995C461.182 474.836 459.262 474.899 457.365 475.185L457.663 477.163C459.406 476.9 461.171 476.842 462.922 476.988L463.088 474.995ZM471.147 481.184C469.888 480.219 468.759 479.099 467.786 477.854L466.21 479.085C467.287 480.463 468.536 481.703 469.93 482.771L471.147 481.184ZM462.922 476.988C464.159 477.092 465.288 477.905 466.21 479.085L467.786 477.854C466.694 476.455 465.11 475.164 463.088 474.995L462.922 476.988ZM445.671 480.906C445.809 481.636 446.659 481.96 447.248 481.524L446.058 479.916C446.647 479.481 447.497 479.805 447.636 480.534L445.671 480.906ZM447.265 481.511C446.674 481.968 445.81 481.64 445.671 480.906L447.636 480.534C447.497 479.8 446.632 479.472 446.041 479.929L447.265 481.511ZM447.196 480.872C447.266 481.238 447.124 481.613 446.829 481.841L445.607 480.258C445.305 480.491 445.161 480.873 445.232 481.246L447.196 480.872ZM436.935 516.87C437.312 516.603 437.466 516.119 437.315 515.684L435.426 516.339C435.285 515.934 435.429 515.485 435.78 515.237L436.935 516.87ZM437.284 515.755C437.432 516.163 437.288 516.619 436.935 516.87L435.78 515.237C435.399 515.506 435.244 515.997 435.404 516.436L437.284 515.755ZM445.961 531.679C446.514 531.353 446.621 530.597 446.18 530.13L444.726 531.504C444.286 531.037 444.392 530.283 444.945 529.957L445.961 531.679ZM492.069 522.419C491.459 522.558 491.124 523.216 491.371 523.791L493.209 523.004C493.454 523.576 493.121 524.23 492.514 524.368L492.069 522.419ZM491.373 523.78C491.129 523.205 491.467 522.556 492.069 522.419L492.514 524.368C493.119 524.23 493.459 523.577 493.214 522.999L491.373 523.78ZM446.178 530.131C446.62 530.597 446.514 531.353 445.961 531.679L444.945 529.957C444.391 530.283 444.284 531.04 444.727 531.507L446.178 530.131ZM477.085 486.317C479.103 486.922 480.848 487.917 481.799 489.514L483.517 488.491C482.198 486.274 479.892 485.071 477.659 484.401L477.085 486.317ZM446.01 530.171C446.188 530.216 446.349 530.311 446.476 530.445L445.024 531.821C445.157 531.96 445.326 532.06 445.512 532.108L446.01 530.171ZM469.833 481.269C470.188 480.916 470.75 480.879 471.147 481.184L469.93 482.771C470.328 483.076 470.89 483.04 471.245 482.686L469.833 481.269ZM446.492 530.452C446.362 530.316 446.195 530.218 446.01 530.171L445.512 532.108C445.335 532.062 445.177 531.969 445.052 531.84L446.492 530.452ZM471.245 482.686C470.891 483.039 470.333 483.074 469.937 482.775L471.143 481.18C470.747 480.88 470.188 480.916 469.833 481.269L471.245 482.686ZM467.914 543.467C467.912 543.466 467.911 543.466 467.911 543.466C467.912 543.466 467.913 543.467 467.912 543.466L467.366 545.39C467.367 545.391 467.368 545.391 467.37 545.391C467.371 545.392 467.37 545.392 467.371 545.392L467.914 543.467ZM497.817 481.245C497.584 481.211 497.351 481.092 497.182 480.882C497.102 480.784 496.915 480.51 496.97 480.118C497.034 479.652 497.373 479.417 497.572 479.333L498.348 481.177C498.548 481.093 498.886 480.858 498.951 480.392C499.005 480 498.819 479.726 498.739 479.627C498.57 479.418 498.336 479.299 498.103 479.265L497.817 481.245ZM446.838 481.848C447.129 481.614 447.266 481.239 447.196 480.872L445.232 481.246C445.163 480.888 445.298 480.52 445.583 480.291L446.838 481.848ZM488.638 509.034C488.105 509.081 487.626 508.695 487.566 508.156L489.553 507.935C489.492 507.387 489.005 506.994 488.463 507.042L488.638 509.034ZM477.014 546.88C477.379 546.268 477.008 545.482 476.305 545.373L476 547.35C475.302 547.242 474.934 546.462 475.297 545.855L477.014 546.88ZM497.571 479.333C496.638 479.727 496.814 481.1 497.817 481.245L498.103 479.265C499.106 479.409 499.282 480.782 498.349 481.176L497.571 479.333ZM487.548 508.147C487.612 508.689 488.095 509.082 488.638 509.034L488.463 507.042C488.998 506.995 489.473 507.382 489.535 507.915L487.548 508.147ZM476.304 545.384C477.009 545.488 477.376 546.274 477.014 546.88L475.297 545.855C474.932 546.466 475.301 547.258 476.012 547.362L476.304 545.384ZM497.133 480.528C496.967 480.084 497.143 479.514 497.665 479.293L498.443 481.136C498.993 480.904 499.183 480.299 499.006 479.827L497.133 480.528ZM467.235 469.045C467.216 468.991 467.194 468.945 467.197 468.952C467.197 468.952 467.199 468.956 467.201 468.962C467.204 468.968 467.209 468.978 467.214 468.991C467.223 469.015 467.242 469.063 467.258 469.127C467.292 469.269 467.314 469.501 467.204 469.754C467.105 469.982 466.95 470.109 466.874 470.163L465.712 468.535C465.629 468.595 465.469 468.727 465.369 468.959C465.257 469.216 465.279 469.453 465.315 469.6C465.331 469.667 465.35 469.718 465.361 469.744C465.372 469.77 465.381 469.791 465.382 469.792C465.388 469.805 465.369 469.766 465.353 469.72L467.235 469.045ZM466.302 468.408C466.724 468.407 467.101 468.671 467.244 469.069L465.361 469.743C465.504 470.143 465.883 470.409 466.307 470.408L466.302 468.408ZM466.307 470.408C465.86 470.409 465.5 470.12 465.366 469.748L467.248 469.071C467.113 468.697 466.752 468.407 466.302 468.408L466.307 470.408Z" fill="url(#paint30_linear_5033_11189)" fill-opacity="0.5" mask="url(#path-50-inside-1_5033_11189)"/>
</g>
<g filter="url(#filter16_d_5033_11189)">
<path d="M435.721 249.876C441.822 213.8 476.106 189.571 512.149 195.865L878.859 259.896C914.631 266.142 938.637 300.113 932.582 335.918L889.318 591.74C883.217 627.816 848.932 652.044 812.889 645.751L446.18 581.72C410.408 575.473 386.401 541.503 392.457 505.698L435.721 249.876Z" stroke="url(#paint31_linear_5033_11189)" stroke-opacity="0.3" stroke-width="3" stroke-linecap="round" stroke-dasharray="11 11" shape-rendering="crispEdges"/>
</g>
<g opacity="0.4">
<mask id="path-53-inside-2_5033_11189" fill="white">
<path fill-rule="evenodd" clip-rule="evenodd" d="M511.252 225.063C494.536 222.145 478.618 233.33 475.699 250.046C472.781 266.762 483.966 282.68 500.682 285.598L603.945 303.629C603.945 303.629 603.946 303.629 603.945 303.63V303.63C601.027 320.346 612.212 336.263 628.928 339.182L717.95 354.726C734.666 357.645 750.584 346.46 753.503 329.744V329.744C753.503 329.744 753.503 329.744 753.503 329.744L856.771 347.775C873.487 350.694 889.404 339.509 892.323 322.793C895.242 306.076 884.057 290.159 867.341 287.24L511.252 225.063Z"/>
</mask>
<g filter="url(#filter17_i_5033_11189)">
<path fill-rule="evenodd" clip-rule="evenodd" d="M511.252 225.063C494.536 222.145 478.618 233.33 475.699 250.046C472.781 266.762 483.966 282.68 500.682 285.598L603.945 303.629C603.945 303.629 603.946 303.629 603.945 303.63V303.63C601.027 320.346 612.212 336.263 628.928 339.182L717.95 354.726C734.666 357.645 750.584 346.46 753.503 329.744V329.744C753.503 329.744 753.503 329.744 753.503 329.744L856.771 347.775C873.487 350.694 889.404 339.509 892.323 322.793C895.242 306.076 884.057 290.159 867.341 287.24L511.252 225.063Z" fill="url(#paint32_linear_5033_11189)"/>
</g>
<path d="M511.252 225.063L511.596 223.093L511.252 225.063ZM500.682 285.598L500.338 287.569L500.682 285.598ZM856.771 347.775L857.115 345.805L856.771 347.775ZM867.341 287.24L866.997 289.21L867.341 287.24ZM753.503 329.744L753.159 331.714L753.503 329.744ZM603.945 303.629L604.289 301.659L603.945 303.629ZM477.67 250.39C480.398 234.762 495.28 224.305 510.908 227.034L511.596 223.093C493.792 219.984 476.838 231.897 473.729 249.702L477.67 250.39ZM501.026 283.628C485.398 280.899 474.941 266.018 477.67 250.39L473.729 249.702C470.62 267.506 482.533 284.46 500.338 287.569L501.026 283.628ZM604.289 301.659L501.026 283.628L500.338 287.569L603.601 305.599L604.289 301.659ZM629.272 337.212C613.644 334.483 603.187 319.602 605.916 303.974L601.975 303.286C598.866 321.09 610.78 338.043 628.584 341.152L629.272 337.212ZM718.294 352.756L629.272 337.212L628.584 341.152L717.606 356.696L718.294 352.756ZM751.533 329.4C748.804 345.028 733.922 355.485 718.294 352.756L717.606 356.696C735.411 359.805 752.364 347.892 755.473 330.088L751.533 329.4ZM857.115 345.805L753.847 327.773L753.159 331.714L856.427 349.745L857.115 345.805ZM890.353 322.449C887.624 338.077 872.743 348.534 857.115 345.805L856.427 349.745C874.231 352.854 891.184 340.941 894.293 323.137L890.353 322.449ZM866.997 289.21C882.625 291.939 893.082 306.82 890.353 322.449L894.293 323.137C897.402 305.332 885.489 288.379 867.685 285.27L866.997 289.21ZM510.908 227.034L866.997 289.21L867.685 285.27L511.596 223.093L510.908 227.034ZM755.473 330.088C755.286 331.157 754.266 331.907 753.159 331.714L753.847 327.773C752.74 327.58 751.719 328.33 751.533 329.4L755.473 330.088ZM603.601 305.599C602.513 305.409 601.785 304.374 601.975 303.286L605.916 303.974C606.106 302.885 605.378 301.849 604.289 301.659L603.601 305.599Z" fill="url(#paint33_linear_5033_11189)" mask="url(#path-53-inside-2_5033_11189)"/>
</g>
<mask id="mask4_5033_11189" style="mask-type:alpha" maskUnits="userSpaceOnUse" x="472" y="31" width="450" height="326">
<path fill-rule="evenodd" clip-rule="evenodd" d="M584.816 32.1216C546.732 25.4718 510.469 50.954 503.819 89.0377L472.313 269.472C470.698 278.721 476.887 287.528 486.136 289.143L573.373 304.375C589.694 307.225 601.305 327.954 617.023 333.194C618.011 333.524 619.037 333.784 620.095 333.969L728.049 352.819C729.107 353.003 730.16 353.106 731.202 353.131C747.766 353.527 765.714 337.96 782.035 340.81L869.266 356.041C878.515 357.656 887.322 351.468 888.937 342.219L920.443 161.784C927.092 123.701 901.61 87.4371 863.526 80.7872L584.816 32.1216Z" fill="url(#paint34_linear_5033_11189)"/>
</mask>
<g mask="url(#mask4_5033_11189)">
<path d="M708.13 428.729C807.394 419.878 880.132 332.898 871.281 233.634C862.43 134.369 775.451 61.631 676.186 70.4822C576.921 79.3333 504.183 166.313 513.034 265.577C521.886 364.842 608.865 437.58 708.13 428.729Z" fill="#2775CA"/>
<path d="M870.783 233.678C879.61 332.668 807.075 419.404 708.085 428.231C609.096 437.057 522.359 364.523 513.532 265.533C504.706 166.543 577.241 79.8068 676.23 70.9802C775.22 62.1536 861.956 134.688 870.783 233.678Z" stroke="url(#paint35_linear_5033_11189)" stroke-opacity="0.3"/>
<mask id="mask5_5033_11189" style="mask-type:alpha" maskUnits="userSpaceOnUse" x="512" y="69" width="361" height="361">
<path d="M708.13 428.729C807.394 419.878 880.132 332.898 871.281 233.634C862.43 134.369 775.451 61.631 676.186 70.4822C576.921 79.3333 504.183 166.313 513.034 265.577C521.886 364.842 608.865 437.58 708.13 428.729Z" fill="#2775CA"/>
</mask>
<g mask="url(#mask5_5033_11189)">
<g filter="url(#filter18_f_5033_11189)">
<path d="M784.471 98.6891C585.664 92.6242 558.279 282.097 569.438 377.591C530.303 331.514 473.489 217.621 559.317 130.661C645.144 43.7021 745.181 73.1135 784.471 98.6891Z" fill="white" fill-opacity="0.4"/>
</g>
</g>
<path d="M743.946 273.572C741.617 247.451 725.145 239.892 693.466 238.956C670.809 237.966 665.799 232.396 664.867 221.945C663.935 211.495 670.801 204.115 685.727 202.784C699.161 201.586 707.025 205.398 711.754 216.261C712.701 218.433 715.073 219.726 717.312 219.526L729.252 218.461C732.238 218.195 734.277 215.756 734.011 212.772L733.945 212.025C729.495 195.871 714.929 184.382 697.631 184.42L696.033 166.508C695.767 163.522 693.328 161.483 689.531 161.068L678.335 162.067C675.35 162.333 673.31 164.772 672.896 168.571L674.427 185.736C652.302 190.719 639.454 206.91 641.118 225.569C643.314 250.198 659.105 258.569 690.785 259.507C712.016 261.374 719.132 265.253 720.197 277.196C721.262 289.138 711.544 298.279 697.364 299.543C677.958 301.274 670.509 293.661 667.272 282.666C666.26 279.748 663.888 278.454 661.649 278.654L648.96 279.785C645.976 280.051 643.936 282.49 644.203 285.476L644.269 286.223C648.917 304.614 662.057 316.984 687.019 318.52L688.617 336.433C688.883 339.417 691.321 341.456 695.119 341.87L706.314 340.872C709.3 340.606 711.34 338.167 711.754 334.37L710.157 316.457C732.214 310.728 745.743 293.724 743.946 273.572V273.572Z" fill="white"/>
<path d="M663.618 359.727C603.539 344.021 567.895 281.751 584.416 222.351C592.816 190.006 615.316 163.928 644.917 150.004C647.77 148.246 649.063 145.873 648.73 142.141L647.798 131.692C647.532 128.706 645.84 126.6 642.788 126.121C642.041 126.188 640.549 126.321 639.868 127.133C570.962 155.845 538.873 234.688 567.586 303.594C584.747 344.191 619.702 373.423 662.695 383.13C665.814 384.356 668.667 382.598 669.146 379.546C669.826 378.734 669.76 377.987 669.627 376.495L668.695 366.045C668.495 363.806 665.99 361.021 663.618 359.727ZM721.968 119.812C718.849 118.586 715.996 120.345 715.517 123.397C714.836 124.211 714.903 124.956 715.036 126.45L715.968 136.898C716.234 139.884 718.739 142.669 721.111 143.963C781.19 159.668 816.834 221.939 800.313 281.339C791.913 313.683 769.413 339.762 739.812 353.686C736.959 355.444 735.666 357.816 735.999 361.549L736.931 371.997C737.197 374.983 738.889 377.089 741.941 377.568C742.688 377.502 744.18 377.369 744.861 376.557C813.767 347.844 845.856 269.001 817.143 200.095C799.916 158.752 764.213 129.586 721.968 119.812V119.812Z" fill="white"/>
<g opacity="0.61" filter="url(#filter19_f_5033_11189)">
<path d="M626.5 326.832L573.934 297.346L516.521 284.319L492.642 268.599L490.338 297.552L620.098 347.731L721.584 365.451L864.542 361.058L873.996 304.763L807.388 310.703L725.314 344.086L626.5 326.832Z" fill="#1E1927"/>
</g>
</g>
<defs>
<filter id="filter0_f_5033_11189" x="-125.738" y="-800.445" width="1531.37" height="1356.91" filterUnits="userSpaceOnUse" color-interpolation-filters="sRGB">
<feFlood flood-opacity="0" result="BackgroundImageFix"/>
<feBlend mode="normal" in="SourceGraphic" in2="BackgroundImageFix" result="shape"/>
<feGaussianBlur stdDeviation="282" result="effect1_foregroundBlur_5033_11189"/>
</filter>
<filter id="filter1_f_5033_11189" x="302.379" y="-635.703" width="1401.16" height="1283.01" filterUnits="userSpaceOnUse" color-interpolation-filters="sRGB">
<feFlood flood-opacity="0" result="BackgroundImageFix"/>
<feBlend mode="normal" in="SourceGraphic" in2="BackgroundImageFix" result="shape"/>
<feGaussianBlur stdDeviation="282" result="effect1_foregroundBlur_5033_11189"/>
</filter>
<filter id="filter2_f_5033_11189" x="-469.539" y="-664.562" width="1616.03" height="1404.83" filterUnits="userSpaceOnUse" color-interpolation-filters="sRGB">
<feFlood flood-opacity="0" result="BackgroundImageFix"/>
<feBlend mode="normal" in="SourceGraphic" in2="BackgroundImageFix" result="shape"/>
<feGaussianBlur stdDeviation="282" result="effect1_foregroundBlur_5033_11189"/>
</filter>
<filter id="filter3_f_5033_11189" x="-144.125" y="-573.804" width="1779.32" height="1497.24" filterUnits="userSpaceOnUse" color-interpolation-filters="sRGB">
<feFlood flood-opacity="0" result="BackgroundImageFix"/>
<feBlend mode="normal" in="SourceGraphic" in2="BackgroundImageFix" result="shape"/>
<feGaussianBlur stdDeviation="282" result="effect1_foregroundBlur_5033_11189"/>
</filter>
<filter id="filter4_b_5033_11189" x="54.6289" y="47.7134" width="192.02" height="192.019" filterUnits="userSpaceOnUse" color-interpolation-filters="sRGB">
<feFlood flood-opacity="0" result="BackgroundImageFix"/>
<feGaussianBlur in="BackgroundImageFix" stdDeviation="27"/>
<feComposite in2="SourceAlpha" operator="in" result="effect1_backgroundBlur_5033_11189"/>
<feBlend mode="normal" in="SourceGraphic" in2="effect1_backgroundBlur_5033_11189" result="shape"/>
</filter>
<filter id="filter5_b_5033_11189" x="263.203" y="149.131" width="140.953" height="140.955" filterUnits="userSpaceOnUse" color-interpolation-filters="sRGB">
<feFlood flood-opacity="0" result="BackgroundImageFix"/>
<feGaussianBlur in="BackgroundImageFix" stdDeviation="27"/>
<feComposite in2="SourceAlpha" operator="in" result="effect1_backgroundBlur_5033_11189"/>
<feBlend mode="normal" in="SourceGraphic" in2="effect1_backgroundBlur_5033_11189" result="shape"/>
</filter>
<filter id="filter6_b_5033_11189" x="915.223" y="112.223" width="188.77" height="188.77" filterUnits="userSpaceOnUse" color-interpolation-filters="sRGB">
<feFlood flood-opacity="0" result="BackgroundImageFix"/>
<feGaussianBlur in="BackgroundImageFix" stdDeviation="27"/>
<feComposite in2="SourceAlpha" operator="in" result="effect1_backgroundBlur_5033_11189"/>
<feBlend mode="normal" in="SourceGraphic" in2="effect1_backgroundBlur_5033_11189" result="shape"/>
</filter>
<filter id="filter7_b_5033_11189" x="1186.8" y="218.82" width="137.148" height="137.148" filterUnits="userSpaceOnUse" color-interpolation-filters="sRGB">
<feFlood flood-opacity="0" result="BackgroundImageFix"/>
<feGaussianBlur in="BackgroundImageFix" stdDeviation="27"/>
<feComposite in2="SourceAlpha" operator="in" result="effect1_backgroundBlur_5033_11189"/>
<feBlend mode="normal" in="SourceGraphic" in2="effect1_backgroundBlur_5033_11189" result="shape"/>
</filter>
<filter id="filter8_f_5033_11189" x="199.703" y="247.336" width="234.137" height="240.323" filterUnits="userSpaceOnUse" color-interpolation-filters="sRGB">
<feFlood flood-opacity="0" result="BackgroundImageFix"/>
<feBlend mode="normal" in="SourceGraphic" in2="BackgroundImageFix" result="shape"/>
<feGaussianBlur stdDeviation="22" result="effect1_foregroundBlur_5033_11189"/>
</filter>
<filter id="filter9_f_5033_11189" x="204.059" y="-2.16797" width="178.988" height="182.841" filterUnits="userSpaceOnUse" color-interpolation-filters="sRGB">
<feFlood flood-opacity="0" result="BackgroundImageFix"/>
<feBlend mode="normal" in="SourceGraphic" in2="BackgroundImageFix" result="shape"/>
<feGaussianBlur stdDeviation="22" result="effect1_foregroundBlur_5033_11189"/>
</filter>
<filter id="filter10_ii_5033_11189" x="1126.75" y="45.7451" width="158.367" height="158.37" filterUnits="userSpaceOnUse" color-interpolation-filters="sRGB">
<feFlood flood-opacity="0" result="BackgroundImageFix"/>
<feBlend mode="normal" in="SourceGraphic" in2="BackgroundImageFix" result="shape"/>
<feColorMatrix in="SourceAlpha" type="matrix" values="0 0 0 0 0 0 0 0 0 0 0 0 0 0 0 0 0 0 127 0" result="hardAlpha"/>
<feOffset dy="-4"/>
<feComposite in2="hardAlpha" operator="arithmetic" k2="-1" k3="1"/>
<feColorMatrix type="matrix" values="0 0 0 0 0.2 0 0 0 0 0.184314 0 0 0 0 0.270588 0 0 0 0.1 0"/>
<feBlend mode="normal" in2="shape" result="effect1_innerShadow_5033_11189"/>
<feColorMatrix in="SourceAlpha" type="matrix" values="0 0 0 0 0 0 0 0 0 0 0 0 0 0 0 0 0 0 127 0" result="hardAlpha"/>
<feOffset dy="4"/>
<feComposite in2="hardAlpha" operator="arithmetic" k2="-1" k3="1"/>
<feColorMatrix type="matrix" values="0 0 0 0 0.2 0 0 0 0 0.184314 0 0 0 0 0.270588 0 0 0 0.1 0"/>
<feBlend mode="normal" in2="effect1_innerShadow_5033_11189" result="effect2_innerShadow_5033_11189"/>
</filter>
<filter id="filter11_di_5033_11189" x="1156.58" y="87.9717" width="98.3867" height="86.7407" filterUnits="userSpaceOnUse" color-interpolation-filters="sRGB">
<feFlood flood-opacity="0" result="BackgroundImageFix"/>
<feColorMatrix in="SourceAlpha" type="matrix" values="0 0 0 0 0 0 0 0 0 0 0 0 0 0 0 0 0 0 127 0" result="hardAlpha"/>
<feOffset dy="1"/>
<feColorMatrix type="matrix" values="0 0 0 0 1 0 0 0 0 1 0 0 0 0 1 0 0 0 1 0"/>
<feBlend mode="normal" in2="BackgroundImageFix" result="effect1_dropShadow_5033_11189"/>
<feBlend mode="normal" in="SourceGraphic" in2="effect1_dropShadow_5033_11189" result="shape"/>
<feColorMatrix in="SourceAlpha" type="matrix" values="0 0 0 0 0 0 0 0 0 0 0 0 0 0 0 0 0 0 127 0" result="hardAlpha"/>
<feOffset dy="-5"/>
<feGaussianBlur stdDeviation="1.5"/>
<feComposite in2="hardAlpha" operator="arithmetic" k2="-1" k3="1"/>
<feColorMatrix type="matrix" values="0 0 0 0 0 0 0 0 0 0 0 0 0 0 0 0 0 0 0.12 0"/>
<feBlend mode="normal" in2="shape" result="effect2_innerShadow_5033_11189"/>
</filter>
<filter id="filter12_di_5033_11189" x="1178.64" y="63.3506" width="45.0898" height="28.2949" filterUnits="userSpaceOnUse" color-interpolation-filters="sRGB">
<feFlood flood-opacity="0" result="BackgroundImageFix"/>
<feColorMatrix in="SourceAlpha" type="matrix" values="0 0 0 0 0 0 0 0 0 0 0 0 0 0 0 0 0 0 127 0" result="hardAlpha"/>
<feOffset dy="1"/>
<feColorMatrix type="matrix" values="0 0 0 0 1 0 0 0 0 1 0 0 0 0 1 0 0 0 1 0"/>
<feBlend mode="normal" in2="BackgroundImageFix" result="effect1_dropShadow_5033_11189"/>
<feBlend mode="normal" in="SourceGraphic" in2="effect1_dropShadow_5033_11189" result="shape"/>
<feColorMatrix in="SourceAlpha" type="matrix" values="0 0 0 0 0 0 0 0 0 0 0 0 0 0 0 0 0 0 127 0" result="hardAlpha"/>
<feOffset dy="-5"/>
<feGaussianBlur stdDeviation="1.5"/>
<feComposite in2="hardAlpha" operator="arithmetic" k2="-1" k3="1"/>
<feColorMatrix type="matrix" values="0 0 0 0 0 0 0 0 0 0 0 0 0 0 0 0 0 0 0.12 0"/>
<feBlend mode="normal" in2="shape" result="effect2_innerShadow_5033_11189"/>
</filter>
<filter id="filter13_f_5033_11189" x="1082.93" y="3.06104" width="195.59" height="230.645" filterUnits="userSpaceOnUse" color-interpolation-filters="sRGB">
<feFlood flood-opacity="0" result="BackgroundImageFix"/>
<feBlend mode="normal" in="SourceGraphic" in2="BackgroundImageFix" result="shape"/>
<feGaussianBlur stdDeviation="22" result="effect1_foregroundBlur_5033_11189"/>
</filter>
<filter id="filter14_bd_5033_11189" x="268.145" y="82.9546" width="786.887" height="694.306" filterUnits="userSpaceOnUse" color-interpolation-filters="sRGB">
<feFlood flood-opacity="0" result="BackgroundImageFix"/>
<feGaussianBlur in="BackgroundImageFix" stdDeviation="30"/>
<feComposite in2="SourceAlpha" operator="in" result="effect1_backgroundBlur_5033_11189"/>
<feColorMatrix in="SourceAlpha" type="matrix" values="0 0 0 0 0 0 0 0 0 0 0 0 0 0 0 0 0 0 127 0" result="hardAlpha"/>
<feOffset dy="10"/>
<feGaussianBlur stdDeviation="54"/>
<feComposite in2="hardAlpha" operator="out"/>
<feColorMatrix type="matrix" values="0 0 0 0 0 0 0 0 0 0 0 0 0 0 0 0 0 0 0.25 0"/>
<feBlend mode="normal" in2="effect1_backgroundBlur_5033_11189" result="effect2_dropShadow_5033_11189"/>
<feBlend mode="normal" in="SourceGraphic" in2="effect2_dropShadow_5033_11189" result="shape"/>
</filter>
<filter id="filter15_d_5033_11189" x="400.551" y="434.708" width="131.52" height="150.096" filterUnits="userSpaceOnUse" color-interpolation-filters="sRGB">
<feFlood flood-opacity="0" result="BackgroundImageFix"/>
<feColorMatrix in="SourceAlpha" type="matrix" values="0 0 0 0 0 0 0 0 0 0 0 0 0 0 0 0 0 0 127 0" result="hardAlpha"/>
<feOffset dy="4"/>
<feGaussianBlur stdDeviation="17"/>
<feComposite in2="hardAlpha" operator="out"/>
<feColorMatrix type="matrix" values="0 0 0 0 0 0 0 0 0 0 0 0 0 0 0 0 0 0 0.18 0"/>
<feBlend mode="normal" in2="BackgroundImageFix" result="effect1_dropShadow_5033_11189"/>
<feBlend mode="normal" in="SourceGraphic" in2="effect1_dropShadow_5033_11189" result="shape"/>
</filter>
<filter id="filter16_d_5033_11189" x="326.168" y="133.499" width="672.703" height="582.617" filterUnits="userSpaceOnUse" color-interpolation-filters="sRGB">
<feFlood flood-opacity="0" result="BackgroundImageFix"/>
<feColorMatrix in="SourceAlpha" type="matrix" values="0 0 0 0 0 0 0 0 0 0 0 0 0 0 0 0 0 0 127 0" result="hardAlpha"/>
<feOffset dy="4"/>
<feGaussianBlur stdDeviation="32"/>
<feComposite in2="hardAlpha" operator="out"/>
<feColorMatrix type="matrix" values="0 0 0 0 0 0 0 0 0 0 0 0 0 0 0 0 0 0 0.15 0"/>
<feBlend mode="normal" in2="BackgroundImageFix" result="effect1_dropShadow_5033_11189"/>
<feBlend mode="normal" in="SourceGraphic" in2="effect1_dropShadow_5033_11189" result="shape"/>
</filter>
<filter id="filter17_i_5033_11189" x="475.238" y="219.6" width="417.547" height="135.589" filterUnits="userSpaceOnUse" color-interpolation-filters="sRGB">
<feFlood flood-opacity="0" result="BackgroundImageFix"/>
<feBlend mode="normal" in="SourceGraphic" in2="BackgroundImageFix" result="shape"/>
<feColorMatrix in="SourceAlpha" type="matrix" values="0 0 0 0 0 0 0 0 0 0 0 0 0 0 0 0 0 0 127 0" result="hardAlpha"/>
<feOffset dy="-5"/>
<feGaussianBlur stdDeviation="3.5"/>
<feComposite in2="hardAlpha" operator="arithmetic" k2="-1" k3="1"/>
<feColorMatrix type="matrix" values="0 0 0 0 0 0 0 0 0 0 0 0 0 0 0 0 0 0 0.25 0"/>
<feBlend mode="normal" in2="shape" result="effect1_innerShadow_5033_11189"/>
</filter>
<filter id="filter18_f_5033_11189" x="470.465" y="28.4692" width="358.008" height="393.122" filterUnits="userSpaceOnUse" color-interpolation-filters="sRGB">
<feFlood flood-opacity="0" result="BackgroundImageFix"/>
<feBlend mode="normal" in="SourceGraphic" in2="BackgroundImageFix" result="shape"/>
<feGaussianBlur stdDeviation="22" result="effect1_foregroundBlur_5033_11189"/>
</filter>
<filter id="filter19_f_5033_11189" x="466.34" y="244.599" width="431.656" height="144.852" filterUnits="userSpaceOnUse" color-interpolation-filters="sRGB">
<feFlood flood-opacity="0" result="BackgroundImageFix"/>
<feBlend mode="normal" in="SourceGraphic" in2="BackgroundImageFix" result="shape"/>
<feGaussianBlur stdDeviation="12" result="effect1_foregroundBlur_5033_11189"/>
</filter>
<linearGradient id="paint0_linear_5033_11189" x1="665" y1="0.000491933" x2="620.5" y2="639.001" gradientUnits="userSpaceOnUse">
<stop stop-color="#2B2641"/>
<stop offset="1" stop-color="#2B2641" stop-opacity="0"/>
</linearGradient>
<radialGradient id="paint1_radial_5033_11189" cx="0" cy="0" r="1" gradientUnits="userSpaceOnUse" gradientTransform="translate(791.469 211.12) rotate(179.566) scale(34.0686 13752.8)">
<stop stop-color="white"/>
<stop offset="1" stop-color="white" stop-opacity="0"/>
</radialGradient>
<radialGradient id="paint2_radial_5033_11189" cx="0" cy="0" r="1" gradientUnits="userSpaceOnUse" gradientTransform="translate(890.512 126.034) rotate(179.68) scale(46.2353 13753)">
<stop stop-color="white"/>
<stop offset="1" stop-color="white" stop-opacity="0"/>
</radialGradient>
<radialGradient id="paint3_radial_5033_11189" cx="0" cy="0" r="1" gradientUnits="userSpaceOnUse" gradientTransform="translate(819.63 40.9492) rotate(179.722) scale(53.093 13753)">
<stop stop-color="white"/>
<stop offset="1" stop-color="white" stop-opacity="0"/>
</radialGradient>
<radialGradient id="paint4_radial_5033_11189" cx="0" cy="0" r="1" gradientUnits="userSpaceOnUse" gradientTransform="translate(826.922 -417.912) rotate(179.566) scale(34.0686 13752.8)">
<stop stop-color="white"/>
<stop offset="1" stop-color="white" stop-opacity="0"/>
</radialGradient>
<radialGradient id="paint5_radial_5033_11189" cx="0" cy="0" r="1" gradientUnits="userSpaceOnUse" gradientTransform="translate(1041.43 -448.302) rotate(179.68) scale(46.2353 13753)">
<stop stop-color="white"/>
<stop offset="1" stop-color="white" stop-opacity="0"/>
</radialGradient>
<radialGradient id="paint6_radial_5033_11189" cx="0" cy="0" r="1" gradientUnits="userSpaceOnUse" gradientTransform="translate(1459.07 -628.605) rotate(179.76) scale(61.4992 13753.1)">
<stop stop-color="white"/>
<stop offset="1" stop-color="white" stop-opacity="0"/>
</radialGradient>
<radialGradient id="paint7_radial_5033_11189" cx="0" cy="0" r="1" gradientUnits="userSpaceOnUse" gradientTransform="translate(1473.56 -567.828) rotate(179.731) scale(54.8627 13753)">
<stop stop-color="white"/>
<stop offset="1" stop-color="white" stop-opacity="0"/>
</radialGradient>
<radialGradient id="paint8_radial_5033_11189" cx="0" cy="0" r="1" gradientUnits="userSpaceOnUse" gradientTransform="translate(1199.47 -592.141) rotate(179.722) scale(53.093 13753)">
<stop stop-color="white"/>
<stop offset="1" stop-color="white" stop-opacity="0"/>
</radialGradient>
<radialGradient id="paint9_radial_5033_11189" cx="0" cy="0" r="1" gradientUnits="userSpaceOnUse" gradientTransform="translate(1373.98 -669.123) rotate(179.76) scale(61.4992 13753.1)">
<stop stop-color="white"/>
<stop offset="1" stop-color="white" stop-opacity="0"/>
</radialGradient>
<radialGradient id="paint10_radial_5033_11189" cx="0" cy="0" r="1" gradientUnits="userSpaceOnUse" gradientTransform="translate(1495.11 -452.354) rotate(179.698) scale(48.8899 13753)">
<stop stop-color="white"/>
<stop offset="1" stop-color="white" stop-opacity="0"/>
</radialGradient>
<radialGradient id="paint11_radial_5033_11189" cx="0" cy="0" r="1" gradientUnits="userSpaceOnUse" gradientTransform="translate(1488.42 -474.637) rotate(179.633) scale(40.2625 13752.9)">
<stop stop-color="white"/>
<stop offset="1" stop-color="white" stop-opacity="0"/>
</radialGradient>
<linearGradient id="paint12_linear_5033_11189" x1="150.639" y1="101.722" x2="150.639" y2="221.722" gradientUnits="userSpaceOnUse">
<stop stop-color="#AFD803" stop-opacity="0"/>
<stop offset="1" stop-color="#AFD803"/>
</linearGradient>
<linearGradient id="paint13_linear_5033_11189" x1="1009.61" y1="166.231" x2="1009.61" y2="281.594" gradientUnits="userSpaceOnUse">
<stop stop-color="#E54033" stop-opacity="0"/>
<stop offset="1" stop-color="#E54033"/>
</linearGradient>
<linearGradient id="paint14_linear_5033_11189" x1="257.634" y1="265.102" x2="408.762" y2="497.874" gradientUnits="userSpaceOnUse">
<stop stop-color="white"/>
<stop offset="1" stop-color="white" stop-opacity="0.08"/>
</linearGradient>
<linearGradient id="paint15_linear_5033_11189" x1="277.078" y1="49.4434" x2="339.872" y2="157.09" gradientUnits="userSpaceOnUse">
<stop stop-color="#24DCB3"/>
<stop offset="1" stop-color="#D428FC"/>
</linearGradient>
<linearGradient id="paint16_linear_5033_11189" x1="334.384" y1="63.9659" x2="294.604" y2="140.161" gradientUnits="userSpaceOnUse">
<stop stop-color="#00FFA3"/>
<stop offset="1" stop-color="#DC1FFF"/>
</linearGradient>
<linearGradient id="paint17_linear_5033_11189" x1="316.99" y1="54.8845" x2="277.21" y2="131.079" gradientUnits="userSpaceOnUse">
<stop stop-color="#00FFA3"/>
<stop offset="1" stop-color="#DC1FFF"/>
</linearGradient>
<linearGradient id="paint18_linear_5033_11189" x1="325.632" y1="59.3965" x2="285.851" y2="135.591" gradientUnits="userSpaceOnUse">
<stop stop-color="#00FFA3"/>
<stop offset="1" stop-color="#DC1FFF"/>
</linearGradient>
<radialGradient id="paint19_radial_5033_11189" cx="0" cy="0" r="1" gradientUnits="userSpaceOnUse" gradientTransform="translate(1368.77 172.114) rotate(-154.444) scale(356.893)">
<stop stop-color="#FFE9E8"/>
<stop offset="0.53125" stop-color="#FFF8E1"/>
<stop offset="1" stop-color="#F5FFCA"/>
</radialGradient>
<linearGradient id="paint20_linear_5033_11189" x1="1177.02" y1="173.338" x2="1244.18" y2="136.62" gradientUnits="userSpaceOnUse">
<stop offset="0.21" stop-color="#E54033"/>
<stop offset="0.84" stop-color="#FECA1A"/>
</linearGradient>
<linearGradient id="paint21_linear_5033_11189" x1="1232.33" y1="153.326" x2="1254.54" y2="147.553" gradientUnits="userSpaceOnUse">
<stop stop-color="#FECA1A"/>
<stop offset="0.4" stop-color="#FECA1A"/>
<stop offset="1" stop-color="#AFD803"/>
</linearGradient>
<linearGradient id="paint22_linear_5033_11189" x1="1183.57" y1="172.064" x2="1212.53" y2="98.3577" gradientUnits="userSpaceOnUse">
<stop offset="0.16" stop-color="#E54033"/>
<stop offset="0.84" stop-color="#FECA1A"/>
</linearGradient>
<linearGradient id="paint23_linear_5033_11189" x1="1160.57" y1="112.702" x2="1169.21" y2="152.982" gradientUnits="userSpaceOnUse">
<stop stop-color="#FECA1A"/>
<stop offset="0.76" stop-color="#E54033"/>
</linearGradient>
<linearGradient id="paint24_linear_5033_11189" x1="1180.03" y1="96.4243" x2="1180.25" y2="145.767" gradientUnits="userSpaceOnUse">
<stop offset="0.16" stop-color="#FECA1A"/>
<stop offset="1" stop-color="#E54033"/>
</linearGradient>
<linearGradient id="paint25_linear_5033_11189" x1="1178.82" y1="73.0988" x2="1228.2" y2="77.6221" gradientUnits="userSpaceOnUse">
<stop offset="0.15" stop-color="#6CBF00"/>
<stop offset="1" stop-color="#AFD803"/>
</linearGradient>
<linearGradient id="paint26_linear_5033_11189" x1="34600.4" y1="-4775.92" x2="25444.7" y2="-10235.8" gradientUnits="userSpaceOnUse">
<stop offset="0.15" stop-color="#6CBF00"/>
<stop offset="1" stop-color="#AFD803"/>
</linearGradient>
<linearGradient id="paint27_linear_5033_11189" x1="931.004" y1="125.097" x2="752.565" y2="854.132" gradientUnits="userSpaceOnUse">
<stop stop-color="#3B3349"/>
<stop offset="1" stop-color="#36333B"/>
</linearGradient>
<linearGradient id="paint28_linear_5033_11189" x1="411.114" y1="110.848" x2="512.896" y2="702.343" gradientUnits="userSpaceOnUse">
<stop stop-color="white" stop-opacity="0.1"/>
<stop offset="1" stop-color="white" stop-opacity="0.08"/>
</linearGradient>
<linearGradient id="paint29_linear_5033_11189" x1="506.051" y1="460.077" x2="434.146" y2="582.084" gradientUnits="userSpaceOnUse">
<stop stop-color="#B6A5FF"/>
<stop offset="1" stop-color="#5B48AD"/>
</linearGradient>
<linearGradient id="paint30_linear_5033_11189" x1="441.467" y1="452.805" x2="453.549" y2="565.741" gradientUnits="userSpaceOnUse">
<stop stop-color="#E0D9FF" stop-opacity="0.98"/>
<stop offset="1" stop-color="#BDAEFF" stop-opacity="0.52"/>
</linearGradient>
<linearGradient id="paint31_linear_5033_11189" x1="437.099" y1="159.275" x2="442.152" y2="718.154" gradientUnits="userSpaceOnUse">
<stop stop-color="#E0D9FF" stop-opacity="0.98"/>
<stop offset="1" stop-color="#BDAEFF" stop-opacity="0.52"/>
</linearGradient>
<linearGradient id="paint32_linear_5033_11189" x1="871.729" y1="277.941" x2="830.975" y2="443.958" gradientUnits="userSpaceOnUse">
<stop stop-color="#342D3F"/>
<stop offset="1" stop-color="#36333B"/>
</linearGradient>
<linearGradient id="paint33_linear_5033_11189" x1="463.258" y1="203.411" x2="446.424" y2="337.244" gradientUnits="userSpaceOnUse">
<stop stop-color="#4C474B"/>
<stop offset="1" stop-color="white" stop-opacity="0.08"/>
</linearGradient>
<linearGradient id="paint34_linear_5033_11189" x1="910.334" y1="56.8834" x2="709.334" y2="551.269" gradientUnits="userSpaceOnUse">
<stop stop-color="#342D3F"/>
<stop offset="1" stop-color="#36333B"/>
</linearGradient>
<linearGradient id="paint35_linear_5033_11189" x1="522.836" y1="35.9351" x2="853.097" y2="457.295" gradientUnits="userSpaceOnUse">
<stop stop-color="white"/>
<stop offset="1" stop-color="white" stop-opacity="0.08"/>
</linearGradient>
</defs>
</svg>
