<svg width="1330" height="966" viewBox="0 0 1330 966" fill="none" xmlns="http://www.w3.org/2000/svg">
<mask id="mask0_5033_11189" style="mask-type:alpha" maskUnits="userSpaceOnUse" x="0" y="0" width="1330" height="966">
<rect width="1330" height="966" fill="url(#paint0_linear_5033_11189)"/>
</mask>
<g mask="url(#mask0_5033_11189)">
<g opacity="0.3">
<rect x="429.074" y="210.123" width="623.97" height="2.02588" fill="url(#paint1_radial_5033_11189)" fill-opacity="0.3"/>
<rect x="398.691" y="125.037" width="846.817" height="2.02588" fill="url(#paint2_radial_5033_11189)" fill-opacity="0.3"/>
<rect x="254.859" y="39.9521" width="972.421" height="2.02588" fill="url(#paint3_radial_5033_11189)" fill-opacity="0.3"/>
<rect x="464.527" y="-418.909" width="623.97" height="2.02588" transform="rotate(90 464.527 -418.909)" fill="url(#paint4_radial_5033_11189)" fill-opacity="0.3"/>
<rect x="549.613" y="-449.299" width="846.817" height="2.02588" transform="rotate(90 549.613 -449.299)" fill="url(#paint5_radial_5033_11189)" fill-opacity="0.3"/>
<rect x="804.879" y="-629.602" width="1126.39" height="2.02588" transform="rotate(90 804.879 -629.602)" fill="url(#paint6_radial_5033_11189)" fill-opacity="0.3"/>
<rect x="889.965" y="-568.825" width="1004.84" height="2.02588" transform="rotate(90 889.965 -568.825)" fill="url(#paint7_radial_5033_11189)" fill-opacity="0.3"/>
<rect x="634.703" y="-593.138" width="972.421" height="2.02588" transform="rotate(90 634.703 -593.138)" fill="url(#paint8_radial_5033_11189)" fill-opacity="0.3"/>
<rect x="719.789" y="-670.12" width="1126.39" height="2.02588" transform="rotate(90 719.789 -670.12)" fill="url(#paint9_radial_5033_11189)" fill-opacity="0.3"/>
<rect x="975.047" y="-453.351" width="895.438" height="2.02588" transform="rotate(90 975.047 -453.351)" fill="url(#paint10_radial_5033_11189)" fill-opacity="0.3"/>
<rect x="1060.13" y="-475.634" width="737.419" height="2.02588" transform="rotate(90 1060.13 -475.634)" fill="url(#paint11_radial_5033_11189)" fill-opacity="0.3"/>
</g>
<g opacity="0.6">
<g opacity="0.3">
<g opacity="0.5" filter="url(#filter0_f_5033_11189)">
<ellipse rx="226.675" ry="232.553" transform="matrix(0.789532 0.61371 -0.939631 0.342188 649.113 -192.778)" fill="#AFD803"/>
</g>
<g opacity="0.5" filter="url(#filter1_f_5033_11189)">
<ellipse rx="153.501" ry="157.482" transform="matrix(0.789532 0.61371 -0.939631 0.342188 1157.51 -13.8014)" fill="#AFD803"/>
</g>
<g opacity="0.5" filter="url(#filter2_f_5033_11189)">
<ellipse rx="274.039" ry="281.511" transform="matrix(0.789532 0.61371 -0.939631 0.342188 226.908 31.0819)" fill="#E54033"/>
</g>
<g opacity="0.5" filter="url(#filter3_f_5033_11189)">
<ellipse rx="365.386" ry="375.931" transform="matrix(0.789532 0.61371 -0.939631 0.342188 796.989 222.902)" fill="#FECA1A" fill-opacity="0.8"/>
</g>
</g>
<g filter="url(#filter4_b_5033_11189)">
<ellipse cx="150.647" cy="143.721" rx="42" ry="42" transform="rotate(-116.485 150.647 143.721)" fill="url(#paint12_linear_5033_11189)"/>
</g>
<g filter="url(#filter5_b_5033_11189)">
<ellipse cx="328.09" cy="300.559" rx="16.4739" ry="16.4739" transform="rotate(-116.485 328.09 300.559)" fill="#5B48AD"/>
</g>
<g filter="url(#filter6_b_5033_11189)">
<ellipse cx="1009.61" cy="206.608" rx="40.377" ry="40.377" transform="rotate(78.5154 1009.61 206.608)" fill="url(#paint13_linear_5033_11189)"/>
</g>
<g filter="url(#filter7_b_5033_11189)">
<ellipse cx="1255.38" cy="287.393" rx="14.5711" ry="14.5711" transform="rotate(78.5154 1255.38 287.393)" fill="#FECA1A"/>
</g>
<path d="M980 540.468C1036.53 540.468 1082 494.994 1082 438.468C1082 381.943 1036.53 336.468 980 336.468C923.475 336.468 878 381.943 878 438.468C878 494.994 923.475 540.468 980 540.468Z" fill="#FFFCFB"/>
<path d="M1081.5 438.468C1081.5 494.717 1036.25 539.968 980 539.968C923.751 539.968 878.5 494.717 878.5 438.468C878.5 382.219 923.751 336.968 980 336.968C1036.25 336.968 1081.5 382.219 1081.5 438.468Z" stroke="url(#paint14_linear_5033_11189)" stroke-opacity="0.39"/>
<mask id="mask1_5033_11189" style="mask-type:alpha" maskUnits="userSpaceOnUse" x="878" y="336" width="204" height="205">
<path d="M980 540.468C1036.53 540.468 1082 494.994 1082 438.468C1082 381.943 1036.53 336.468 980 336.468C923.475 336.468 878 381.943 878 438.468C878 494.994 923.475 540.468 980 540.468Z" fill="#2775CA"/>
</mask>
<g mask="url(#mask1_5033_11189)">
<g filter="url(#filter8_f_5033_11189)">
<path d="M1039.76 357.859C927.745 344.417 902.729 450.08 904.223 504.592C884.435 476.589 858.075 409.383 910.944 364.579C963.813 319.775 1018.85 341.431 1039.76 357.859Z" fill="white" fill-opacity="0.6"/>
</g>
</g>
<path d="M937.275 464.452C938.039 463.688 939.089 463.243 940.203 463.243H1041.21C1043.06 463.243 1043.98 465.47 1042.67 466.775L1022.72 486.728C1021.96 487.492 1020.91 487.937 1019.79 487.937L918.786 487.937C916.94 487.937 916.017 485.71 917.322 484.405L937.275 464.452Z" fill="url(#paint15_linear_5033_11189)"/>
<path d="M937.275 389.953C938.071 389.19 939.121 388.744 940.203 388.744H1041.21C1043.06 388.744 1043.98 390.972 1042.67 392.277L1022.72 412.23C1021.96 412.993 1020.91 413.439 1019.79 413.439H918.786C916.94 413.439 916.017 411.211 917.322 409.906L937.275 389.953Z" fill="url(#paint16_linear_5033_11189)"/>
<path d="M1022.72 426.964C1021.96 426.2 1020.91 425.755 1019.79 425.755H918.786C916.94 425.755 916.017 427.982 917.322 429.287L937.275 449.24C938.039 450.004 939.089 450.45 940.203 450.45H1041.21C1043.06 450.45 1043.98 448.222 1042.67 446.917L1022.72 426.964Z" fill="url(#paint17_linear_5033_11189)"/>
</g>
<path fill-rule="evenodd" clip-rule="evenodd" d="M238.9 159.903C229.014 110.951 260.684 63.2531 309.636 53.3674C358.589 43.4817 406.287 75.1517 416.172 124.104C426.058 173.056 394.388 220.754 345.436 230.64C296.483 240.526 248.785 208.856 238.9 159.903Z" fill="url(#paint18_linear_5033_11189)"/>
<path d="M296.905 152.421L294.569 157.404C294.113 159.061 295.566 160.618 297.25 160.278L307.76 158.155C313.858 171.223 325.32 178.659 338.103 175.876C347.206 174.038 353.155 168.126 355.917 158.188C356.268 156.923 355.473 155.618 354.191 155.331L348.726 154.103C347.523 153.833 346.315 154.558 345.999 155.75C344.603 161.029 341.289 164.883 336.095 165.932C331.393 166.882 327.155 165.341 323.325 161.272C321.832 159.699 320.527 157.87 319.398 155.806L332.859 153.088C333.712 152.916 334.396 152.278 334.627 151.439L336.963 146.455C337.419 144.797 335.966 143.242 334.282 143.582L316.095 147.255C315.855 146.333 315.63 145.388 315.432 144.408C315.226 143.438 315.061 142.481 314.923 141.534L329.914 138.506C330.767 138.334 331.451 137.696 331.682 136.857L334.018 131.874C334.474 130.217 333.022 128.66 331.337 129L314.649 132.371C315.482 123.919 319.525 117.676 326.103 116.455C331.099 115.446 335.53 117.397 338.923 121.375C339.683 122.267 341.016 122.398 341.972 121.722L346.562 118.48C347.66 117.704 347.878 116.143 347.007 115.119C340.661 107.658 333.027 104.808 324.115 106.608C315.982 108.25 310.12 112.799 306.469 120.216C304.341 124.58 303.223 129.421 303.049 134.713L295.73 136.191C294.877 136.363 294.193 137.001 293.962 137.84L291.626 142.824C291.17 144.482 292.623 146.037 294.307 145.697L303.629 143.815C303.774 144.765 303.921 145.717 304.118 146.693C304.301 147.662 304.517 148.611 304.749 149.546L298.676 150.772C297.823 150.945 297.136 151.582 296.905 152.421Z" fill="white"/>
<path d="M268.456 150.049C264.397 120.542 283.102 92.274 311.848 84.4804C326.96 80.3836 342.118 82.4711 354.841 89.0506C356.076 89.6889 357.59 89.343 358.424 88.2302L361.944 83.5321C362.988 82.139 362.556 80.1307 361.02 79.309C346.118 71.3335 328.306 68.5803 310.471 72.9714C275.1 81.6804 251.864 116.239 257.171 152.28C259.466 167.869 266.607 181.431 276.78 191.772C277.998 193.011 280.04 192.856 281.082 191.465L284.598 186.772C285.43 185.662 285.345 184.114 284.386 183.112C276.052 174.394 270.245 163.052 268.456 150.049Z" fill="white"/>
<path d="M378.294 92.2337C377.076 90.9964 375.034 91.1504 373.992 92.5406L370.475 97.234C369.644 98.3438 369.729 99.8925 370.687 100.894C379.022 109.612 384.829 120.955 386.617 133.959C390.675 163.465 371.969 191.731 343.223 199.525C328.112 203.622 312.954 201.534 300.23 194.955C298.995 194.316 297.481 194.662 296.647 195.775L293.128 200.473C292.084 201.866 292.517 203.874 294.052 204.696C308.955 212.673 326.768 215.425 344.604 211.033C379.975 202.323 403.21 167.763 397.901 131.723C395.604 116.135 388.465 102.573 378.294 92.2337Z" fill="white"/>
</g>
<g filter="url(#filter9_bd_5033_11189)">
<rect x="485.012" y="252.066" width="451.848" height="354.693" rx="71" transform="rotate(9.90457 485.012 252.066)" fill="url(#paint19_linear_5033_11189)"/>
<rect x="485.825" y="253.224" width="449.848" height="352.693" rx="70" transform="rotate(9.90457 485.825 253.224)" stroke="url(#paint20_linear_5033_11189)" stroke-width="2"/>
</g>
<g filter="url(#filter10_d_5033_11189)">
<mask id="path-34-inside-1_5033_11189" fill="white">
<path fill-rule="evenodd" clip-rule="evenodd" d="M510.442 507.697C510.441 507.697 510.441 507.696 510.44 507.696V507.696C510.439 507.696 510.438 507.695 510.437 507.694L510.43 507.674C510.425 507.661 510.418 507.654 510.429 507.646C510.852 507.345 529.149 494.448 537.543 516.885C537.547 516.898 537.542 516.912 537.53 516.917L537.45 516.951C537.45 516.951 537.45 516.951 537.45 516.951V516.951C537.45 516.951 537.45 516.951 537.45 516.951C535.877 517.613 516.75 525.217 510.442 507.697ZM514.051 518.421C514.051 518.421 514.051 518.421 514.051 518.421V518.421C514.051 518.421 514.051 518.421 514.051 518.421C515.84 519.772 517.835 520.693 519.88 521.306C521.694 521.85 523.423 522.789 524.392 524.417C525.121 525.642 525.765 526.92 526.375 528.21C526.802 529.12 527.165 530.057 527.465 531.016C528.159 533.214 528.557 535.481 528.959 537.775L528.959 537.775L528.959 537.775L528.959 537.775L528.959 537.775C529.077 538.448 529.195 539.123 529.322 539.8C529.348 540.082 529.378 540.366 529.412 540.651C529.412 540.654 529.416 540.657 529.419 540.657V540.657C529.423 540.657 529.427 540.659 529.427 540.663C529.91 544.997 530.897 549.708 532.613 553.755C532.614 553.757 532.613 553.759 532.612 553.759V553.759C532.61 553.759 532.609 553.761 532.61 553.762C533.179 555.093 533.853 556.376 534.626 557.6C534.779 557.837 534.936 558.072 535.094 558.308L535.094 558.308L535.094 558.308L535.094 558.308L535.094 558.308C535.831 559.41 536.572 560.52 536.879 561.8C537.261 563.395 536.914 565.093 536.255 566.595C533.145 573.674 525.684 574.375 518.845 573.366C518.843 573.366 518.842 573.363 518.843 573.361V573.361C518.844 573.359 518.843 573.357 518.841 573.356C516.283 572.962 513.785 572.33 511.58 571.708C511.578 571.707 511.579 571.707 511.577 571.707C511.525 571.692 500.917 568.673 492.92 560.374C492.917 560.371 492.914 560.369 492.91 560.368V560.368C492.906 560.367 492.902 560.365 492.899 560.362L492.646 560.095C492.646 560.095 492.646 560.094 492.646 560.094V560.094C492.647 560.094 492.647 560.093 492.647 560.093C491.714 559.107 490.843 558.065 490.036 556.974C487.894 554.072 486.092 550.891 484.874 547.532C484.87 547.519 484.874 547.504 484.886 547.496V547.496C484.897 547.488 484.902 547.473 484.897 547.46C484.758 547.057 484.627 546.652 484.505 546.245C483.402 542.555 483.014 538.68 483.653 534.746C484.723 528.143 488.155 521.79 493.293 517.646C493.295 517.644 493.297 517.641 493.296 517.637V517.637C493.295 517.634 493.297 517.631 493.299 517.629C493.419 517.536 493.54 517.445 493.662 517.354L493.671 517.348C493.671 517.348 493.671 517.348 493.671 517.348V517.348C493.671 517.348 493.671 517.348 493.671 517.348C496.352 515.364 499.47 513.982 502.938 513.469C504.49 513.235 506.062 513.183 507.621 513.313C509.013 513.43 510.171 514.328 511.031 515.428C511.905 516.547 512.919 517.554 514.051 518.421Z"/>
</mask>
<path fill-rule="evenodd" clip-rule="evenodd" d="M510.442 507.697C510.441 507.697 510.441 507.696 510.44 507.696V507.696C510.439 507.696 510.438 507.695 510.437 507.694L510.43 507.674C510.425 507.661 510.418 507.654 510.429 507.646C510.852 507.345 529.149 494.448 537.543 516.885C537.547 516.898 537.542 516.912 537.53 516.917L537.45 516.951C537.45 516.951 537.45 516.951 537.45 516.951V516.951C537.45 516.951 537.45 516.951 537.45 516.951C535.877 517.613 516.75 525.217 510.442 507.697ZM514.051 518.421C514.051 518.421 514.051 518.421 514.051 518.421V518.421C514.051 518.421 514.051 518.421 514.051 518.421C515.84 519.772 517.835 520.693 519.88 521.306C521.694 521.85 523.423 522.789 524.392 524.417C525.121 525.642 525.765 526.92 526.375 528.21C526.802 529.12 527.165 530.057 527.465 531.016C528.159 533.214 528.557 535.481 528.959 537.775L528.959 537.775L528.959 537.775L528.959 537.775L528.959 537.775C529.077 538.448 529.195 539.123 529.322 539.8C529.348 540.082 529.378 540.366 529.412 540.651C529.412 540.654 529.416 540.657 529.419 540.657V540.657C529.423 540.657 529.427 540.659 529.427 540.663C529.91 544.997 530.897 549.708 532.613 553.755C532.614 553.757 532.613 553.759 532.612 553.759V553.759C532.61 553.759 532.609 553.761 532.61 553.762C533.179 555.093 533.853 556.376 534.626 557.6C534.779 557.837 534.936 558.072 535.094 558.308L535.094 558.308L535.094 558.308L535.094 558.308L535.094 558.308C535.831 559.41 536.572 560.52 536.879 561.8C537.261 563.395 536.914 565.093 536.255 566.595C533.145 573.674 525.684 574.375 518.845 573.366C518.843 573.366 518.842 573.363 518.843 573.361V573.361C518.844 573.359 518.843 573.357 518.841 573.356C516.283 572.962 513.785 572.33 511.58 571.708C511.578 571.707 511.579 571.707 511.577 571.707C511.525 571.692 500.917 568.673 492.92 560.374C492.917 560.371 492.914 560.369 492.91 560.368V560.368C492.906 560.367 492.902 560.365 492.899 560.362L492.646 560.095C492.646 560.095 492.646 560.094 492.646 560.094V560.094C492.647 560.094 492.647 560.093 492.647 560.093C491.714 559.107 490.843 558.065 490.036 556.974C487.894 554.072 486.092 550.891 484.874 547.532C484.87 547.519 484.874 547.504 484.886 547.496V547.496C484.897 547.488 484.902 547.473 484.897 547.46C484.758 547.057 484.627 546.652 484.505 546.245C483.402 542.555 483.014 538.68 483.653 534.746C484.723 528.143 488.155 521.79 493.293 517.646C493.295 517.644 493.297 517.641 493.296 517.637V517.637C493.295 517.634 493.297 517.631 493.299 517.629C493.419 517.536 493.54 517.445 493.662 517.354L493.671 517.348C493.671 517.348 493.671 517.348 493.671 517.348V517.348C493.671 517.348 493.671 517.348 493.671 517.348C496.352 515.364 499.47 513.982 502.938 513.469C504.49 513.235 506.062 513.183 507.621 513.313C509.013 513.43 510.171 514.328 511.031 515.428C511.905 516.547 512.919 517.554 514.051 518.421Z" fill="url(#paint21_linear_5033_11189)" fill-opacity="0.1" shape-rendering="crispEdges"/>
<path d="M526.375 528.21L527.281 527.786L527.279 527.783L526.375 528.21ZM527.465 531.016L526.51 531.313L526.511 531.317L527.465 531.016ZM528.959 537.775L529.948 537.627L529.946 537.615L529.944 537.602L528.959 537.775ZM528.959 537.775L529.948 537.627L529.948 537.627L528.959 537.775ZM528.959 537.775L527.97 537.923L527.97 537.923L528.959 537.775ZM528.959 537.775L529.948 537.627L529.948 537.627L528.959 537.775ZM528.959 537.775L527.97 537.924L527.972 537.936L527.974 537.948L528.959 537.775ZM529.322 539.8L530.317 539.706L530.313 539.66L530.305 539.616L529.322 539.8ZM534.626 557.6L533.78 558.133L533.786 558.142L534.626 557.6ZM535.094 558.308L534.262 558.864L534.269 558.873L534.275 558.883L535.094 558.308ZM535.094 558.308L535.944 557.782L535.929 557.757L535.912 557.733L535.094 558.308ZM535.094 558.308L535.944 557.782L535.944 557.782L535.094 558.308ZM535.094 558.308L534.243 558.834L534.253 558.849L534.263 558.864L535.094 558.308ZM536.879 561.8L537.852 561.567L537.852 561.567L536.879 561.8ZM536.255 566.595L537.17 566.997L537.17 566.997L536.255 566.595ZM490.036 556.974L489.232 557.568L489.232 557.568L490.036 556.974ZM484.505 546.245L485.463 545.959L485.463 545.958L484.505 546.245ZM483.653 534.746L484.64 534.906L484.64 534.906L483.653 534.746ZM493.662 517.354L494.258 518.158L494.266 518.152L494.274 518.145L493.662 517.354ZM502.938 513.469L503.084 514.458L503.087 514.458L502.938 513.469ZM493.671 517.348L494.266 518.152L493.671 517.348ZM493.671 517.348L494.282 518.139L493.671 517.348ZM493.299 517.629L492.688 516.837L493.299 517.629ZM484.897 547.46L483.952 547.788L484.897 547.46ZM484.874 547.532L485.814 547.191L484.874 547.532ZM492.647 560.093L491.92 560.78L492.647 560.093ZM492.646 560.095L491.92 560.783L492.646 560.095ZM492.899 560.362L492.174 561.05L492.899 560.362ZM492.92 560.374L492.2 561.068L492.92 560.374ZM532.61 553.762L533.529 553.369L532.61 553.762ZM532.613 553.755L533.534 553.365L532.613 553.755ZM511.58 571.708L511.851 570.745L511.58 571.708ZM511.577 571.707L511.85 570.745L511.577 571.707ZM519.88 521.306L519.592 522.264L519.88 521.306ZM524.392 524.417L523.533 524.928L524.392 524.417ZM493.293 517.646L492.665 516.868L493.293 517.646ZM529.427 540.663L530.421 540.553L529.427 540.663ZM518.841 573.356L518.688 574.345L518.841 573.356ZM514.051 518.421L513.442 519.215L514.051 518.421ZM529.412 540.651L528.418 540.767L529.412 540.651ZM518.845 573.366L518.699 574.356L518.845 573.366ZM514.051 518.421L514.756 519.13L514.051 518.421ZM514.051 518.421L513.449 519.219L514.051 518.421ZM537.45 516.951L537.062 516.029L537.45 516.951ZM537.45 516.951L537.839 517.872L537.45 516.951ZM537.543 516.885L536.606 517.236L537.543 516.885ZM537.53 516.917L537.141 515.996L537.53 516.917ZM510.43 507.674L511.372 507.337L510.43 507.674ZM510.429 507.646L509.849 506.832L510.429 507.646ZM510.437 507.694L511.379 507.357L510.437 507.694ZM507.621 513.313L507.704 512.317L507.621 513.313ZM510.44 507.696L510.442 508.696L510.44 507.696ZM510.442 507.697L511.383 507.359L510.442 507.697ZM511.379 507.357L511.372 507.337L509.489 508.012L509.496 508.032L511.379 507.357ZM511.01 508.46C511.194 508.329 515.686 505.17 521.077 504.736C523.74 504.521 526.591 504.974 529.269 506.765C531.952 508.56 534.56 511.766 536.606 517.236L538.479 516.535C536.329 510.787 533.502 507.19 530.381 505.103C527.253 503.011 523.93 502.499 520.917 502.742C514.955 503.222 510.087 506.662 509.849 506.832L511.01 508.46ZM537.141 515.996L537.061 516.029L537.839 517.872L537.918 517.838L537.141 515.996ZM509.501 508.036C511.144 512.601 513.652 515.597 516.561 517.469C519.457 519.332 522.677 520.034 525.686 520.142C531.674 520.356 537.012 518.22 537.838 517.873L537.062 516.029C536.315 516.343 531.303 518.341 525.757 518.143C522.999 518.044 520.157 517.404 517.643 515.787C515.142 514.177 512.893 511.554 511.383 507.359L509.501 508.036ZM520.167 520.348C518.214 519.763 516.331 518.89 514.654 517.623L513.449 519.219C515.349 520.654 517.456 521.623 519.592 522.264L520.167 520.348ZM527.279 527.783C526.663 526.479 526.004 525.169 525.252 523.905L523.533 524.928C524.239 526.115 524.868 527.361 525.471 528.638L527.279 527.783ZM528.419 530.718C528.107 529.716 527.726 528.736 527.281 527.786L525.47 528.634C525.877 529.503 526.224 530.398 526.51 531.313L528.419 530.718ZM529.944 537.602C529.544 535.32 529.136 532.987 528.418 530.714L526.511 531.317C527.183 533.441 527.57 535.643 527.974 537.948L529.944 537.602ZM529.948 537.627L529.948 537.627L527.97 537.923L527.97 537.923L529.948 537.627ZM529.948 537.627L529.948 537.627L527.97 537.923L527.97 537.923L529.948 537.627ZM529.948 537.627L529.948 537.627L527.97 537.923L527.97 537.924L529.948 537.627ZM529.948 537.627L529.948 537.627L527.97 537.924L527.97 537.924L529.948 537.627ZM530.305 539.616C530.179 538.946 530.062 538.276 529.944 537.603L527.974 537.948C528.092 538.62 528.211 539.3 528.339 539.983L530.305 539.616ZM530.405 540.535C530.372 540.257 530.343 539.981 530.317 539.706L528.326 539.894C528.354 540.184 528.384 540.475 528.418 540.767L530.405 540.535ZM533.534 553.365C531.867 549.436 530.897 544.828 530.421 540.553L528.433 540.774C528.923 545.166 529.926 549.98 531.693 554.146L533.534 553.365ZM535.471 557.066C534.727 555.887 534.078 554.651 533.529 553.369L531.691 554.156C532.281 555.535 532.979 556.865 533.78 558.133L535.471 557.066ZM535.925 557.752C535.767 557.515 535.614 557.286 535.466 557.057L533.786 558.142C533.943 558.387 534.105 558.629 534.262 558.864L535.925 557.752ZM535.912 557.733L535.912 557.733L534.275 558.883L534.276 558.883L535.912 557.733ZM535.944 557.782L535.944 557.782L534.243 558.834L534.243 558.834L535.944 557.782ZM535.944 557.782L535.944 557.782L534.243 558.834L534.243 558.834L535.944 557.782ZM535.945 557.782L535.944 557.782L534.243 558.834L534.243 558.834L535.945 557.782ZM537.852 561.567C537.496 560.083 536.643 558.826 535.925 557.753L534.263 558.864C535.018 559.994 535.649 560.957 535.907 562.033L537.852 561.567ZM537.17 566.997C537.881 565.378 538.302 563.448 537.852 561.567L535.907 562.033C536.22 563.342 535.947 564.807 535.339 566.193L537.17 566.997ZM518.699 574.356C522.185 574.87 525.926 574.965 529.236 573.971C532.589 572.964 535.483 570.838 537.17 566.997L535.339 566.193C533.917 569.431 531.526 571.195 528.661 572.056C525.753 572.929 522.345 572.872 518.991 572.377L518.699 574.356ZM511.308 572.67C513.53 573.297 516.072 573.941 518.688 574.345L518.993 572.368C516.493 571.982 514.039 571.363 511.851 570.745L511.308 572.67ZM492.2 561.068C500.387 569.565 511.211 572.642 511.304 572.669L511.85 570.745C511.863 570.748 509.258 570.009 505.668 568.249C502.075 566.487 497.532 563.719 493.64 559.68L492.2 561.068ZM491.92 560.783L492.174 561.05L493.625 559.674L493.372 559.407L491.92 560.783ZM489.232 557.568C490.062 558.692 490.96 559.765 491.92 560.78L493.373 559.406C492.469 558.449 491.623 557.439 490.84 556.38L489.232 557.568ZM483.934 547.873C485.19 551.337 487.043 554.603 489.232 557.568L490.841 556.38C488.746 553.542 486.994 550.445 485.814 547.191L483.934 547.873ZM483.547 546.531C483.673 546.952 483.808 547.371 483.952 547.788L485.842 547.133C485.707 546.743 485.581 546.352 485.463 545.959L483.547 546.531ZM482.665 534.585C481.999 538.69 482.407 542.718 483.547 546.531L485.463 545.958C484.397 542.392 484.028 538.671 484.64 534.906L482.665 534.585ZM492.665 516.868C487.316 521.182 483.771 527.766 482.665 534.586L484.64 534.906C485.675 528.521 488.994 522.398 493.921 518.424L492.665 516.868ZM493.067 516.551C492.94 516.645 492.813 516.741 492.688 516.837L493.911 518.42C494.025 518.331 494.141 518.244 494.258 518.158L493.067 516.551ZM493.059 516.557L493.051 516.563L494.274 518.145L494.282 518.139L493.059 516.557ZM502.791 512.48C499.148 513.019 495.878 514.471 493.076 516.544L494.266 518.152C496.825 516.257 499.792 514.945 503.084 514.458L502.791 512.48ZM507.704 512.317C506.068 512.18 504.418 512.235 502.789 512.48L503.087 514.458C504.562 514.235 506.056 514.186 507.538 514.31L507.704 512.317ZM514.659 517.627C513.595 516.811 512.641 515.865 511.819 514.813L510.242 516.044C511.169 517.23 512.243 518.296 513.442 519.215L514.659 517.627ZM492.688 517.534C492.826 518.258 493.673 518.591 494.266 518.152L493.076 516.544C493.669 516.105 494.516 516.438 494.653 517.161L492.688 517.534ZM494.282 518.139C493.692 518.595 492.828 518.268 492.688 517.534L494.653 517.161C494.514 516.428 493.649 516.1 493.059 516.557L494.282 518.139ZM494.278 517.45C494.348 517.817 494.206 518.192 493.911 518.42L492.688 516.837C492.387 517.07 492.243 517.451 492.314 517.825L494.278 517.45ZM485.463 548.312C485.838 548.047 485.992 547.566 485.842 547.133L483.952 547.788C483.811 547.381 483.956 546.929 484.308 546.679L485.463 548.312ZM485.814 547.191C485.963 547.602 485.819 548.061 485.463 548.312L484.308 546.679C483.93 546.947 483.776 547.436 483.934 547.873L485.814 547.191ZM493.155 560.955C493.708 560.628 493.814 559.872 493.373 559.406L491.92 560.78C491.479 560.314 491.585 559.559 492.138 559.233L493.155 560.955ZM493.372 559.407C493.814 559.873 493.708 560.629 493.155 560.955L492.138 559.233C491.584 559.56 491.478 560.316 491.92 560.783L493.372 559.407ZM493.159 559.4C493.337 559.446 493.498 559.541 493.625 559.674L492.174 561.05C492.306 561.189 492.474 561.289 492.66 561.337L493.159 559.4ZM493.64 559.68C493.51 559.545 493.344 559.447 493.159 559.4L492.66 561.337C492.483 561.291 492.324 561.197 492.2 561.068L493.64 559.68ZM532.389 552.784C531.779 552.923 531.444 553.581 531.691 554.156L533.529 553.369C533.774 553.941 533.441 554.595 532.834 554.734L532.389 552.784ZM531.693 554.146C531.449 553.571 531.787 552.922 532.389 552.784L532.834 554.734C533.439 554.596 533.779 553.943 533.534 553.365L531.693 554.146ZM511.851 570.745C511.85 570.745 511.849 570.744 511.849 570.744C511.85 570.745 511.851 570.745 511.85 570.745L511.304 572.669C511.305 572.669 511.306 572.669 511.308 572.67C511.308 572.67 511.308 572.67 511.308 572.67L511.851 570.745ZM519.592 522.264C521.3 522.776 522.749 523.61 523.533 524.928L525.252 523.905C524.098 521.967 522.089 520.924 520.167 520.348L519.592 522.264ZM493.921 518.424C494.211 518.191 494.348 517.816 494.278 517.45L492.314 517.825C492.245 517.465 492.38 517.097 492.665 516.868L493.921 518.424ZM529.507 541.653C528.974 541.7 528.494 541.314 528.433 540.774L530.421 540.553C530.36 540.005 529.873 539.613 529.332 539.661L529.507 541.653ZM519.702 573.874C520.067 573.262 519.696 572.477 518.993 572.368L518.688 574.345C517.99 574.237 517.621 573.456 517.984 572.849L519.702 573.874ZM513.346 517.712C513.701 517.359 514.262 517.323 514.659 517.627L513.442 519.215C513.839 519.519 514.401 519.483 514.756 519.13L513.346 517.712ZM528.418 540.767C528.482 541.308 528.964 541.701 529.507 541.653L529.332 539.661C529.867 539.614 530.342 540.001 530.405 540.535L528.418 540.767ZM518.991 572.377C519.697 572.481 520.064 573.267 519.702 573.874L517.984 572.849C517.62 573.459 517.989 574.251 518.699 574.356L518.991 572.377ZM514.756 519.13C514.403 519.482 513.845 519.518 513.449 519.219L514.654 517.623C514.258 517.323 513.7 517.36 513.346 517.712L514.756 519.13ZM537.31 517.941C537.073 517.908 536.835 517.786 536.665 517.571C536.584 517.468 536.402 517.192 536.461 516.802C536.53 516.344 536.863 516.113 537.062 516.029L537.838 517.873C538.037 517.789 538.37 517.558 538.439 517.1C538.497 516.71 538.316 516.434 538.234 516.331C538.064 516.116 537.826 515.994 537.59 515.961L537.31 517.941ZM537.061 516.029C536.13 516.422 536.301 517.798 537.31 517.941L537.59 515.961C538.598 516.103 538.769 517.479 537.839 517.872L537.061 516.029ZM536.606 517.236C536.439 516.79 536.617 516.217 537.141 515.996L537.918 517.838C538.467 517.607 538.655 517.005 538.479 516.535L536.606 517.236ZM511.372 507.337C511.352 507.283 511.331 507.238 511.334 507.245C511.334 507.245 511.336 507.25 511.339 507.256C511.341 507.262 511.346 507.272 511.351 507.285C511.361 507.309 511.38 507.358 511.395 507.421C511.43 507.564 511.451 507.796 511.342 508.05C511.243 508.278 511.087 508.405 511.01 508.46L509.849 506.832C509.766 506.891 509.607 507.023 509.506 507.255C509.395 507.512 509.416 507.748 509.452 507.895C509.468 507.961 509.488 508.012 509.498 508.038C509.509 508.064 509.519 508.085 509.519 508.086C509.525 508.098 509.506 508.059 509.489 508.012L511.372 507.337ZM510.437 506.696C510.859 506.695 511.236 506.96 511.379 507.357L509.496 508.032C509.639 508.431 510.018 508.697 510.442 508.696L510.437 506.696ZM507.538 514.31C508.538 514.393 509.468 515.053 510.242 516.044L511.819 514.813C510.874 513.603 509.488 512.466 507.704 512.317L507.538 514.31ZM510.442 508.696C509.995 508.697 509.635 508.408 509.501 508.036L511.383 507.359C511.248 506.985 510.887 506.695 510.437 506.696L510.442 508.696Z" fill="url(#paint22_linear_5033_11189)" fill-opacity="0.5" mask="url(#path-34-inside-1_5033_11189)"/>
</g>
<g filter="url(#filter11_d_5033_11189)">
<path d="M482.721 329.982C488.822 293.906 523.106 269.677 559.149 275.971L852.96 327.273C888.732 333.519 912.739 367.49 906.683 403.295L872.999 602.474C866.898 638.55 832.613 662.778 796.57 656.485L502.759 605.183C466.987 598.936 442.981 564.966 449.036 529.161L482.721 329.982Z" stroke="url(#paint23_linear_5033_11189)" stroke-opacity="0.3" stroke-width="3" stroke-linecap="round" stroke-dasharray="11 11" shape-rendering="crispEdges"/>
</g>
<g opacity="0.4">
<mask id="path-37-inside-2_5033_11189" fill="white">
<path fill-rule="evenodd" clip-rule="evenodd" d="M548.791 299.21C534.527 296.719 520.946 306.263 518.455 320.526C515.965 334.789 525.509 348.371 539.772 350.861L598.328 361.086C614.65 363.936 625.239 383.051 638.913 392.407C641.911 394.458 645.386 395.915 649.197 396.581L725.155 409.844C728.967 410.51 732.73 410.316 736.245 409.402C752.281 405.234 768.722 390.838 785.043 393.688L843.603 403.913C857.867 406.404 871.448 396.86 873.939 382.597C876.429 368.334 866.885 354.752 852.622 352.262L548.791 299.21Z"/>
</mask>
<g filter="url(#filter12_i_5033_11189)">
<path fill-rule="evenodd" clip-rule="evenodd" d="M548.791 299.21C534.527 296.719 520.946 306.263 518.455 320.526C515.965 334.789 525.509 348.371 539.772 350.861L598.328 361.086C614.65 363.936 625.239 383.051 638.913 392.407C641.911 394.458 645.386 395.915 649.197 396.581L725.155 409.844C728.967 410.51 732.73 410.316 736.245 409.402C752.281 405.234 768.722 390.838 785.043 393.688L843.603 403.913C857.867 406.404 871.448 396.86 873.939 382.597C876.429 368.334 866.885 354.752 852.622 352.262L548.791 299.21Z" fill="url(#paint24_linear_5033_11189)"/>
</g>
<path d="M548.791 299.21L549.135 297.239L548.791 299.21ZM539.772 350.861L540.116 348.891L540.116 348.891L539.772 350.861ZM649.197 396.581L648.853 398.551L649.197 396.581ZM725.155 409.844L725.499 407.874L725.155 409.844ZM843.603 403.913L843.947 401.943L843.947 401.943L843.603 403.913ZM852.622 352.262L852.278 354.232L852.622 352.262ZM736.245 409.402L735.742 407.466L736.245 409.402ZM638.913 392.407L637.784 394.057L638.913 392.407ZM520.426 320.87C522.726 307.695 535.271 298.879 548.447 301.18L549.135 297.239C533.783 294.559 519.166 304.831 516.485 320.182L520.426 320.87ZM540.116 348.891C526.941 346.59 518.125 334.045 520.426 320.87L516.485 320.182C513.805 335.533 524.076 350.151 539.428 352.831L540.116 348.891ZM598.672 359.115L540.116 348.891L539.428 352.831L597.984 363.056L598.672 359.115ZM649.541 394.611C646.017 393.995 642.809 392.649 640.042 390.756L637.784 394.057C641.013 396.267 644.755 397.835 648.853 398.551L649.541 394.611ZM725.499 407.874L649.541 394.611L648.853 398.551L724.811 411.814L725.499 407.874ZM735.742 407.466C732.498 408.31 729.024 408.489 725.499 407.874L724.811 411.814C728.91 412.53 732.962 412.322 736.748 411.338L735.742 407.466ZM843.947 401.943L785.387 391.718L784.699 395.658L843.259 405.883L843.947 401.943ZM871.968 382.253C869.668 395.428 857.122 404.243 843.947 401.943L843.259 405.883C858.611 408.564 873.228 398.292 875.909 382.941L871.968 382.253ZM852.278 354.232C865.453 356.532 874.269 369.078 871.968 382.253L875.909 382.941C878.589 367.59 868.317 352.972 852.966 350.292L852.278 354.232ZM548.447 301.18L852.278 354.232L852.966 350.292L549.135 297.239L548.447 301.18ZM736.748 411.338C744.997 409.194 753.458 404.384 761.375 400.729C769.5 396.979 777.194 394.348 784.699 395.658L785.387 391.718C776.571 390.178 767.884 393.32 759.699 397.098C751.307 400.971 743.53 405.442 735.742 407.466L736.748 411.338ZM597.984 363.056C605.49 364.366 611.836 369.45 618.209 375.731C624.42 381.852 630.75 389.246 637.784 394.057L640.042 390.756C633.402 386.213 627.6 379.37 621.017 372.882C614.597 366.554 607.488 360.655 598.672 359.115L597.984 363.056Z" fill="url(#paint25_linear_5033_11189)" mask="url(#path-37-inside-2_5033_11189)"/>
</g>
<mask id="mask2_5033_11189" style="mask-type:alpha" maskUnits="userSpaceOnUse" x="516" y="135" width="382" height="274">
<path fill-rule="evenodd" clip-rule="evenodd" d="M621.616 136.337C583.558 129.692 547.313 155.135 540.63 193.186L517.019 327.63C515.394 336.883 521.584 345.701 530.839 347.317L598.956 359.211C615.189 362.045 625.73 380.945 639.298 390.297C642.319 392.38 645.828 393.859 649.679 394.532L725.625 407.793C729.416 408.455 733.158 408.265 736.656 407.362C752.656 403.231 769.055 388.912 785.334 391.754L852.829 403.54C862.071 405.153 870.874 398.974 872.497 389.733L896.09 255.392C902.781 217.289 877.295 180.982 839.185 174.327L621.616 136.337Z" fill="url(#paint26_linear_5033_11189)"/>
</mask>
<g mask="url(#mask2_5033_11189)">
<path d="M691.109 473.12C775.88 479.792 849.446 416.961 856.119 332.19C862.791 247.418 799.96 173.852 715.189 167.18C630.417 160.508 556.851 223.339 550.179 308.11C543.507 392.881 606.338 466.447 691.109 473.12Z" fill="#2775CA"/>
<path d="M855.62 332.15C848.97 416.646 775.644 479.272 691.148 472.621C606.652 465.971 544.027 392.645 550.677 308.149C557.328 223.653 630.653 161.028 715.149 167.678C799.645 174.329 862.271 247.654 855.62 332.15Z" stroke="url(#paint27_linear_5033_11189)" stroke-opacity="0.3"/>
<mask id="mask3_5033_11189" style="mask-type:alpha" maskUnits="userSpaceOnUse" x="549" y="166" width="308" height="308">
<path d="M691.109 473.119C775.88 479.791 849.446 416.96 856.119 332.189C862.791 247.418 799.96 173.852 715.189 167.179C630.417 160.507 556.851 223.338 550.179 308.109C543.507 392.881 606.338 466.447 691.109 473.119Z" fill="#2775CA"/>
</mask>
<g mask="url(#mask3_5033_11189)">
<g filter="url(#filter13_f_5033_11189)">
<path d="M802.278 206.312C635.883 172.933 585.894 328.443 581.7 410.37C555.329 366.039 523.73 262.138 608.306 201.186C692.882 140.234 772.861 179.207 802.278 206.312Z" fill="white" fill-opacity="0.4"/>
</g>
</g>
<path d="M743.312 347.679C745.068 325.371 732.285 316.669 705.766 311.376C686.846 307.321 683.423 301.922 684.125 292.997C684.828 284.073 691.653 278.84 704.4 279.843C715.873 280.746 721.946 285.072 724.38 294.884C724.867 296.846 726.679 298.271 728.591 298.421L738.788 299.224C741.338 299.424 743.401 297.663 743.601 295.114L743.652 294.476C742.205 280.253 731.585 268.515 717.027 266.087L718.231 250.79C718.431 248.24 716.67 246.177 713.534 245.289L703.973 244.536C701.423 244.336 699.36 246.097 698.471 249.235L697.318 263.894C677.996 264.939 664.883 276.733 663.629 292.668C661.974 313.701 674.069 322.989 700.587 328.284C718.184 332.875 723.619 337.151 722.816 347.349C722.014 357.548 712.538 363.856 700.428 362.903C683.856 361.599 678.671 354.135 677.512 344.424C677.076 341.825 675.264 340.399 673.352 340.249L662.516 339.396C659.967 339.195 657.905 340.957 657.704 343.507L657.654 344.145C658.948 360.279 668.244 372.554 689.026 377.397L687.822 392.694C687.621 395.243 689.383 397.305 692.519 398.194L702.08 398.947C704.63 399.147 706.692 397.386 707.581 394.25L708.785 378.953C728.157 377.27 741.958 364.888 743.312 347.679V347.679Z" fill="white"/>
<path d="M663.479 408.737C615.168 386.978 594.037 329.52 616.385 281.896C628.053 255.879 650.691 237.139 677.576 229.635C680.226 228.561 681.651 226.75 681.902 223.562L682.604 214.639C682.805 212.089 681.681 210.077 679.181 209.24C678.543 209.189 677.269 209.089 676.581 209.675C614.526 224.031 576.315 285.798 590.67 347.853C599.334 384.448 624.584 414.013 659.374 428.295C661.824 429.77 664.474 428.696 665.311 426.197C665.999 425.61 666.049 424.973 666.149 423.698L666.852 414.774C667.002 412.862 665.291 410.163 663.479 408.737ZM746.693 215.194C744.243 213.719 741.593 214.792 740.756 217.292C740.068 217.88 740.018 218.516 739.917 219.792L739.215 228.715C739.014 231.265 740.726 233.964 742.538 235.39C790.848 257.148 811.979 314.606 789.632 362.23C777.964 388.248 755.325 406.988 728.441 414.491C725.791 415.565 724.366 417.377 724.115 420.565L723.413 429.487C723.212 432.037 724.336 434.05 726.836 434.887C727.474 434.937 728.748 435.037 729.436 434.451C791.491 420.096 829.702 358.329 815.346 296.274C806.733 259.04 780.845 229.425 746.693 215.194V215.194Z" fill="white"/>
<g opacity="0.61" filter="url(#filter14_f_5033_11189)">
<path d="M647.128 386.043L602.276 360.884L553.289 349.769L532.914 336.356L530.948 361.061L641.666 403.875L728.258 418.995L850.237 415.246L858.304 367.213L801.47 372.281L731.441 400.765L647.128 386.043Z" fill="#1E1927"/>
</g>
</g>
<path d="M1151.75 147.709C1198.56 135.166 1246.67 162.948 1259.21 209.751C1271.76 256.563 1243.98 304.669 1197.17 317.212C1150.37 329.753 1102.25 301.977 1089.71 255.17C1077.17 208.366 1104.95 160.25 1151.75 147.709Z" fill="#F5AC37"/>
<mask id="mask4_5033_11189" style="mask-type:alpha" maskUnits="userSpaceOnUse" x="1086" y="144" width="177" height="177">
<path d="M1151.75 147.709C1198.56 135.166 1246.67 162.948 1259.21 209.751C1271.76 256.563 1243.98 304.669 1197.17 317.212C1150.37 329.753 1102.25 301.977 1089.71 255.17C1077.17 208.366 1104.95 160.25 1151.75 147.709Z" fill="#F5AC37"/>
</mask>
<g mask="url(#mask4_5033_11189)">
<g filter="url(#filter15_f_5033_11189)">
<path d="M1204.22 154.511C1115.09 167.295 1117.62 253.875 1130.02 295.567C1108.98 278.08 1074.79 231.743 1106.3 186.3C1137.81 140.857 1184.71 146.173 1204.22 154.511Z" fill="white" fill-opacity="0.4"/>
</g>
</g>
<path d="M1178.75 236.778L1206.06 229.458C1206.65 229.302 1206.92 229.228 1206.76 228.452C1206.24 225.606 1205.49 222.805 1204.51 220.076C1204.37 219.534 1204.04 219.383 1203.46 219.539L1149.09 234.107C1148.41 234.288 1148.29 234.56 1148.46 235.192L1150.61 243.208C1150.89 244.243 1150.89 244.243 1151.96 243.954L1178.75 236.778ZM1198.75 210.76C1198.77 210.535 1198.71 210.311 1198.58 210.131C1197.86 209.258 1197.06 208.452 1196.2 207.729C1194.84 206.458 1193.35 205.352 1191.75 204.43C1190.94 203.829 1190.07 203.33 1189.14 202.958C1184.36 200.682 1179.11 199.573 1173.82 199.725C1171.16 199.832 1168.53 200.25 1165.97 200.961L1141.84 207.426C1141.16 207.606 1141.15 207.899 1141.3 208.486L1145.59 224.473C1145.77 225.147 1145.82 225.329 1146.67 225.1L1198.52 211.207C1198.52 211.207 1198.95 210.995 1198.97 210.702L1198.75 210.761L1198.75 210.76ZM1206.42 239.403C1205.64 239.523 1204.87 239.729 1204.13 240.018L1154.3 253.37C1153.62 253.55 1153.4 253.611 1153.64 254.512L1157.83 270.142C1158.02 270.862 1158.07 271.044 1158.97 270.803L1181.97 264.638C1183.1 264.428 1184.18 264.055 1185.19 263.536C1188.47 262.402 1191.56 260.795 1194.37 258.76C1195.4 258.059 1196.36 257.249 1197.23 256.351L1197.55 256.267C1202.19 252.01 1205.38 246.42 1206.69 240.258C1206.69 240.258 1206.83 239.493 1206.43 239.409L1206.42 239.403ZM1151.21 281.566L1151.14 281.297L1148.33 270.804L1147.37 267.247L1144.54 256.663C1144.38 256.076 1144.36 255.988 1143.64 256.181L1133.89 258.793C1133.35 258.938 1133.12 258.998 1132.93 258.278L1130.64 249.721L1141.06 246.928C1141.64 246.771 1141.87 246.711 1141.67 245.946L1139.4 237.479C1139.25 236.937 1139.22 236.804 1138.5 236.997L1128.75 239.61C1128.21 239.754 1127.98 239.814 1127.79 239.094L1125.67 231.169C1125.53 230.673 1125.5 230.54 1126.22 230.348L1135.88 227.759C1136.55 227.579 1136.73 227.53 1136.5 226.674L1130 202.399C1129.8 201.68 1129.76 201.498 1130.66 201.257L1164.35 192.228C1166.83 191.669 1169.33 191.288 1171.85 191.088C1177.05 190.678 1182.28 191.177 1187.31 192.543C1190.66 193.472 1193.86 194.817 1196.86 196.55C1199.14 197.925 1201.28 199.499 1203.27 201.251C1205.27 203.035 1207.06 205.033 1208.63 207.201C1208.91 207.8 1209.63 208.064 1210.23 207.788L1218.27 205.633C1219.3 205.357 1219.3 205.357 1219.61 206.337L1221.59 213.724C1221.79 214.444 1221.57 214.697 1220.84 214.891L1214.64 216.552C1214.01 216.721 1213.83 216.769 1214.1 217.568C1215.08 220.245 1215.81 222.998 1216.3 225.807C1216.51 226.573 1216.53 226.663 1217.39 226.434L1224.49 224.533C1224.91 224.854 1224.7 225.343 1224.81 225.752C1225 226.262 1225.14 226.79 1225.23 227.325L1226.69 232.775C1226.9 233.541 1226.74 233.828 1226.06 234.009L1217.57 236.284C1216.95 236.329 1216.47 236.863 1216.49 237.49C1215.88 243.301 1213.91 248.892 1210.75 253.8C1209.59 255.587 1208.33 257.314 1206.98 258.96C1205.46 260.479 1204 262.028 1202.38 263.378C1199.4 265.818 1196.14 267.9 1192.68 269.596C1189.38 271.148 1185.94 272.372 1182.4 273.269L1151.21 281.625L1151.2 281.58L1151.21 281.566Z" fill="#FEFEFD"/>
<defs>
<filter id="filter0_f_5033_11189" x="-197.344" y="-917.07" width="1692.91" height="1448.58" filterUnits="userSpaceOnUse" color-interpolation-filters="sRGB">
<feFlood flood-opacity="0" result="BackgroundImageFix"/>
<feBlend mode="normal" in="SourceGraphic" in2="BackgroundImageFix" result="shape"/>
<feGaussianBlur stdDeviation="282" result="effect1_foregroundBlur_5033_11189"/>
</filter>
<filter id="filter1_f_5033_11189" x="402.23" y="-686.349" width="1510.55" height="1345.1" filterUnits="userSpaceOnUse" color-interpolation-filters="sRGB">
<feFlood flood-opacity="0" result="BackgroundImageFix"/>
<feBlend mode="normal" in="SourceGraphic" in2="BackgroundImageFix" result="shape"/>
<feGaussianBlur stdDeviation="282" result="effect1_foregroundBlur_5033_11189"/>
</filter>
<filter id="filter2_f_5033_11189" x="-678.836" y="-726.766" width="1811.49" height="1515.7" filterUnits="userSpaceOnUse" color-interpolation-filters="sRGB">
<feFlood flood-opacity="0" result="BackgroundImageFix"/>
<feBlend mode="normal" in="SourceGraphic" in2="BackgroundImageFix" result="shape"/>
<feGaussianBlur stdDeviation="282" result="effect1_foregroundBlur_5033_11189"/>
</filter>
<filter id="filter3_f_5033_11189" x="-223.094" y="-599.661" width="2040.16" height="1645.13" filterUnits="userSpaceOnUse" color-interpolation-filters="sRGB">
<feFlood flood-opacity="0" result="BackgroundImageFix"/>
<feBlend mode="normal" in="SourceGraphic" in2="BackgroundImageFix" result="shape"/>
<feGaussianBlur stdDeviation="282" result="effect1_foregroundBlur_5033_11189"/>
</filter>
<filter id="filter4_b_5033_11189" x="54.6367" y="47.7124" width="192.02" height="192.019" filterUnits="userSpaceOnUse" color-interpolation-filters="sRGB">
<feFlood flood-opacity="0" result="BackgroundImageFix"/>
<feGaussianBlur in="BackgroundImageFix" stdDeviation="27"/>
<feComposite in2="SourceAlpha" operator="in" result="effect1_backgroundBlur_5033_11189"/>
<feBlend mode="normal" in="SourceGraphic" in2="effect1_backgroundBlur_5033_11189" result="shape"/>
</filter>
<filter id="filter5_b_5033_11189" x="257.613" y="230.082" width="140.953" height="140.955" filterUnits="userSpaceOnUse" color-interpolation-filters="sRGB">
<feFlood flood-opacity="0" result="BackgroundImageFix"/>
<feGaussianBlur in="BackgroundImageFix" stdDeviation="27"/>
<feComposite in2="SourceAlpha" operator="in" result="effect1_backgroundBlur_5033_11189"/>
<feBlend mode="normal" in="SourceGraphic" in2="effect1_backgroundBlur_5033_11189" result="shape"/>
</filter>
<filter id="filter6_b_5033_11189" x="915.227" y="112.223" width="188.77" height="188.77" filterUnits="userSpaceOnUse" color-interpolation-filters="sRGB">
<feFlood flood-opacity="0" result="BackgroundImageFix"/>
<feGaussianBlur in="BackgroundImageFix" stdDeviation="27"/>
<feComposite in2="SourceAlpha" operator="in" result="effect1_backgroundBlur_5033_11189"/>
<feBlend mode="normal" in="SourceGraphic" in2="effect1_backgroundBlur_5033_11189" result="shape"/>
</filter>
<filter id="filter7_b_5033_11189" x="1186.8" y="218.819" width="137.148" height="137.148" filterUnits="userSpaceOnUse" color-interpolation-filters="sRGB">
<feFlood flood-opacity="0" result="BackgroundImageFix"/>
<feGaussianBlur in="BackgroundImageFix" stdDeviation="27"/>
<feComposite in2="SourceAlpha" operator="in" result="effect1_backgroundBlur_5033_11189"/>
<feBlend mode="normal" in="SourceGraphic" in2="effect1_backgroundBlur_5033_11189" result="shape"/>
</filter>
<filter id="filter8_f_5033_11189" x="835.863" y="293.93" width="247.891" height="254.662" filterUnits="userSpaceOnUse" color-interpolation-filters="sRGB">
<feFlood flood-opacity="0" result="BackgroundImageFix"/>
<feBlend mode="normal" in="SourceGraphic" in2="BackgroundImageFix" result="shape"/>
<feGaussianBlur stdDeviation="22" result="effect1_foregroundBlur_5033_11189"/>
</filter>
<filter id="filter9_bd_5033_11189" x="327.145" y="165.209" width="699.84" height="620.843" filterUnits="userSpaceOnUse" color-interpolation-filters="sRGB">
<feFlood flood-opacity="0" result="BackgroundImageFix"/>
<feGaussianBlur in="BackgroundImageFix" stdDeviation="30"/>
<feComposite in2="SourceAlpha" operator="in" result="effect1_backgroundBlur_5033_11189"/>
<feColorMatrix in="SourceAlpha" type="matrix" values="0 0 0 0 0 0 0 0 0 0 0 0 0 0 0 0 0 0 127 0" result="hardAlpha"/>
<feOffset dy="10"/>
<feGaussianBlur stdDeviation="54"/>
<feComposite in2="hardAlpha" operator="out"/>
<feColorMatrix type="matrix" values="0 0 0 0 0 0 0 0 0 0 0 0 0 0 0 0 0 0 0.25 0"/>
<feBlend mode="normal" in2="effect1_backgroundBlur_5033_11189" result="effect2_dropShadow_5033_11189"/>
<feBlend mode="normal" in="SourceGraphic" in2="effect2_dropShadow_5033_11189" result="shape"/>
</filter>
<filter id="filter10_d_5033_11189" x="449.344" y="473.687" width="122.199" height="138.048" filterUnits="userSpaceOnUse" color-interpolation-filters="sRGB">
<feFlood flood-opacity="0" result="BackgroundImageFix"/>
<feColorMatrix in="SourceAlpha" type="matrix" values="0 0 0 0 0 0 0 0 0 0 0 0 0 0 0 0 0 0 127 0" result="hardAlpha"/>
<feOffset dy="4"/>
<feGaussianBlur stdDeviation="17"/>
<feComposite in2="hardAlpha" operator="out"/>
<feColorMatrix type="matrix" values="0 0 0 0 0 0 0 0 0 0 0 0 0 0 0 0 0 0 0.18 0"/>
<feBlend mode="normal" in2="BackgroundImageFix" result="effect1_dropShadow_5033_11189"/>
<feBlend mode="normal" in="SourceGraphic" in2="effect1_dropShadow_5033_11189" result="shape"/>
</filter>
<filter id="filter11_d_5033_11189" x="382.746" y="213.605" width="590.227" height="513.246" filterUnits="userSpaceOnUse" color-interpolation-filters="sRGB">
<feFlood flood-opacity="0" result="BackgroundImageFix"/>
<feColorMatrix in="SourceAlpha" type="matrix" values="0 0 0 0 0 0 0 0 0 0 0 0 0 0 0 0 0 0 127 0" result="hardAlpha"/>
<feOffset dy="4"/>
<feGaussianBlur stdDeviation="32"/>
<feComposite in2="hardAlpha" operator="out"/>
<feColorMatrix type="matrix" values="0 0 0 0 0 0 0 0 0 0 0 0 0 0 0 0 0 0 0.15 0"/>
<feBlend mode="normal" in2="BackgroundImageFix" result="effect1_dropShadow_5033_11189"/>
<feBlend mode="normal" in="SourceGraphic" in2="effect1_dropShadow_5033_11189" result="shape"/>
</filter>
<filter id="filter12_i_5033_11189" x="518.059" y="293.814" width="356.273" height="116.425" filterUnits="userSpaceOnUse" color-interpolation-filters="sRGB">
<feFlood flood-opacity="0" result="BackgroundImageFix"/>
<feBlend mode="normal" in="SourceGraphic" in2="BackgroundImageFix" result="shape"/>
<feColorMatrix in="SourceAlpha" type="matrix" values="0 0 0 0 0 0 0 0 0 0 0 0 0 0 0 0 0 0 127 0" result="hardAlpha"/>
<feOffset dy="-5"/>
<feGaussianBlur stdDeviation="3.5"/>
<feComposite in2="hardAlpha" operator="arithmetic" k2="-1" k3="1"/>
<feColorMatrix type="matrix" values="0 0 0 0 0 0 0 0 0 0 0 0 0 0 0 0 0 0 0.25 0"/>
<feBlend mode="normal" in2="shape" result="effect1_innerShadow_5033_11189"/>
</filter>
<filter id="filter13_f_5033_11189" x="509.379" y="124.836" width="336.898" height="329.534" filterUnits="userSpaceOnUse" color-interpolation-filters="sRGB">
<feFlood flood-opacity="0" result="BackgroundImageFix"/>
<feBlend mode="normal" in="SourceGraphic" in2="BackgroundImageFix" result="shape"/>
<feGaussianBlur stdDeviation="22" result="effect1_foregroundBlur_5033_11189"/>
</filter>
<filter id="filter14_f_5033_11189" x="506.949" y="312.356" width="375.355" height="130.639" filterUnits="userSpaceOnUse" color-interpolation-filters="sRGB">
<feFlood flood-opacity="0" result="BackgroundImageFix"/>
<feBlend mode="normal" in="SourceGraphic" in2="BackgroundImageFix" result="shape"/>
<feGaussianBlur stdDeviation="12" result="effect1_foregroundBlur_5033_11189"/>
</filter>
<filter id="filter15_f_5033_11189" x="1049.54" y="104.908" width="198.688" height="234.659" filterUnits="userSpaceOnUse" color-interpolation-filters="sRGB">
<feFlood flood-opacity="0" result="BackgroundImageFix"/>
<feBlend mode="normal" in="SourceGraphic" in2="BackgroundImageFix" result="shape"/>
<feGaussianBlur stdDeviation="22" result="effect1_foregroundBlur_5033_11189"/>
</filter>
<linearGradient id="paint0_linear_5033_11189" x1="665" y1="3.65186e-06" x2="620.5" y2="639" gradientUnits="userSpaceOnUse">
<stop stop-color="#2B2641"/>
<stop offset="1" stop-color="#2B2641" stop-opacity="0"/>
</linearGradient>
<radialGradient id="paint1_radial_5033_11189" cx="0" cy="0" r="1" gradientUnits="userSpaceOnUse" gradientTransform="translate(791.469 211.12) rotate(179.566) scale(34.0686 13752.8)">
<stop stop-color="white"/>
<stop offset="1" stop-color="white" stop-opacity="0"/>
</radialGradient>
<radialGradient id="paint2_radial_5033_11189" cx="0" cy="0" r="1" gradientUnits="userSpaceOnUse" gradientTransform="translate(890.512 126.034) rotate(179.68) scale(46.2353 13753)">
<stop stop-color="white"/>
<stop offset="1" stop-color="white" stop-opacity="0"/>
</radialGradient>
<radialGradient id="paint3_radial_5033_11189" cx="0" cy="0" r="1" gradientUnits="userSpaceOnUse" gradientTransform="translate(819.63 40.9487) rotate(179.722) scale(53.093 13753)">
<stop stop-color="white"/>
<stop offset="1" stop-color="white" stop-opacity="0"/>
</radialGradient>
<radialGradient id="paint4_radial_5033_11189" cx="0" cy="0" r="1" gradientUnits="userSpaceOnUse" gradientTransform="translate(826.922 -417.913) rotate(179.566) scale(34.0686 13752.8)">
<stop stop-color="white"/>
<stop offset="1" stop-color="white" stop-opacity="0"/>
</radialGradient>
<radialGradient id="paint5_radial_5033_11189" cx="0" cy="0" r="1" gradientUnits="userSpaceOnUse" gradientTransform="translate(1041.43 -448.303) rotate(179.68) scale(46.2353 13753)">
<stop stop-color="white"/>
<stop offset="1" stop-color="white" stop-opacity="0"/>
</radialGradient>
<radialGradient id="paint6_radial_5033_11189" cx="0" cy="0" r="1" gradientUnits="userSpaceOnUse" gradientTransform="translate(1459.07 -628.605) rotate(179.76) scale(61.4992 13753.1)">
<stop stop-color="white"/>
<stop offset="1" stop-color="white" stop-opacity="0"/>
</radialGradient>
<radialGradient id="paint7_radial_5033_11189" cx="0" cy="0" r="1" gradientUnits="userSpaceOnUse" gradientTransform="translate(1473.56 -567.828) rotate(179.731) scale(54.8627 13753)">
<stop stop-color="white"/>
<stop offset="1" stop-color="white" stop-opacity="0"/>
</radialGradient>
<radialGradient id="paint8_radial_5033_11189" cx="0" cy="0" r="1" gradientUnits="userSpaceOnUse" gradientTransform="translate(1199.47 -592.141) rotate(179.722) scale(53.093 13753)">
<stop stop-color="white"/>
<stop offset="1" stop-color="white" stop-opacity="0"/>
</radialGradient>
<radialGradient id="paint9_radial_5033_11189" cx="0" cy="0" r="1" gradientUnits="userSpaceOnUse" gradientTransform="translate(1373.98 -669.124) rotate(179.76) scale(61.4992 13753.1)">
<stop stop-color="white"/>
<stop offset="1" stop-color="white" stop-opacity="0"/>
</radialGradient>
<radialGradient id="paint10_radial_5033_11189" cx="0" cy="0" r="1" gradientUnits="userSpaceOnUse" gradientTransform="translate(1495.11 -452.354) rotate(179.698) scale(48.8899 13753)">
<stop stop-color="white"/>
<stop offset="1" stop-color="white" stop-opacity="0"/>
</radialGradient>
<radialGradient id="paint11_radial_5033_11189" cx="0" cy="0" r="1" gradientUnits="userSpaceOnUse" gradientTransform="translate(1488.42 -474.638) rotate(179.633) scale(40.2625 13752.9)">
<stop stop-color="white"/>
<stop offset="1" stop-color="white" stop-opacity="0"/>
</radialGradient>
<linearGradient id="paint12_linear_5033_11189" x1="150.647" y1="101.721" x2="150.647" y2="221.721" gradientUnits="userSpaceOnUse">
<stop stop-color="#AFD803" stop-opacity="0"/>
<stop offset="1" stop-color="#AFD803"/>
</linearGradient>
<linearGradient id="paint13_linear_5033_11189" x1="1009.61" y1="166.231" x2="1009.61" y2="281.594" gradientUnits="userSpaceOnUse">
<stop stop-color="#E54033" stop-opacity="0"/>
<stop offset="1" stop-color="#E54033"/>
</linearGradient>
<linearGradient id="paint14_linear_5033_11189" x1="930.855" y1="351.305" x2="1041.2" y2="540.469" gradientUnits="userSpaceOnUse">
<stop stop-color="#24DCB3"/>
<stop offset="1" stop-color="#D428FC"/>
</linearGradient>
<linearGradient id="paint15_linear_5033_11189" x1="1031.56" y1="376.825" x2="961.655" y2="510.721" gradientUnits="userSpaceOnUse">
<stop stop-color="#00FFA3"/>
<stop offset="1" stop-color="#DC1FFF"/>
</linearGradient>
<linearGradient id="paint16_linear_5033_11189" x1="1000.99" y1="360.867" x2="931.09" y2="494.762" gradientUnits="userSpaceOnUse">
<stop stop-color="#00FFA3"/>
<stop offset="1" stop-color="#DC1FFF"/>
</linearGradient>
<linearGradient id="paint17_linear_5033_11189" x1="1016.18" y1="368.795" x2="946.275" y2="502.691" gradientUnits="userSpaceOnUse">
<stop stop-color="#00FFA3"/>
<stop offset="1" stop-color="#DC1FFF"/>
</linearGradient>
<linearGradient id="paint18_linear_5033_11189" x1="458.941" y1="229.252" x2="308.277" y2="129.217" gradientUnits="userSpaceOnUse">
<stop stop-color="#8656EF"/>
<stop offset="0.97" stop-color="#1AA3FF"/>
</linearGradient>
<linearGradient id="paint19_linear_5033_11189" x1="906.943" y1="213.914" x2="754.69" y2="835.96" gradientUnits="userSpaceOnUse">
<stop stop-color="#3B3349"/>
<stop offset="1" stop-color="#36333B"/>
</linearGradient>
<linearGradient id="paint20_linear_5033_11189" x1="463.348" y1="201.755" x2="550.193" y2="706.447" gradientUnits="userSpaceOnUse">
<stop stop-color="white" stop-opacity="0.1"/>
<stop offset="1" stop-color="white" stop-opacity="0.08"/>
</linearGradient>
<linearGradient id="paint21_linear_5033_11189" x1="544.351" y1="499.735" x2="482.999" y2="603.836" gradientUnits="userSpaceOnUse">
<stop stop-color="#B6A5FF"/>
<stop offset="1" stop-color="#5B48AD"/>
</linearGradient>
<linearGradient id="paint22_linear_5033_11189" x1="489.246" y1="493.529" x2="499.554" y2="589.892" gradientUnits="userSpaceOnUse">
<stop stop-color="#E0D9FF" stop-opacity="0.98"/>
<stop offset="1" stop-color="#BDAEFF" stop-opacity="0.52"/>
</linearGradient>
<linearGradient id="paint23_linear_5033_11189" x1="485.52" y1="243.076" x2="489.832" y2="719.938" gradientUnits="userSpaceOnUse">
<stop stop-color="#E0D9FF" stop-opacity="0.98"/>
<stop offset="1" stop-color="#BDAEFF" stop-opacity="0.52"/>
</linearGradient>
<linearGradient id="paint24_linear_5033_11189" x1="856.367" y1="344.328" x2="821.593" y2="485.981" gradientUnits="userSpaceOnUse">
<stop stop-color="#342D3F"/>
<stop offset="1" stop-color="#36333B"/>
</linearGradient>
<linearGradient id="paint25_linear_5033_11189" x1="507.84" y1="280.734" x2="493.476" y2="394.927" gradientUnits="userSpaceOnUse">
<stop stop-color="#4C474B"/>
<stop offset="1" stop-color="white" stop-opacity="0.08"/>
</linearGradient>
<linearGradient id="paint26_linear_5033_11189" x1="889.253" y1="155.592" x2="716.784" y2="578.9" gradientUnits="userSpaceOnUse">
<stop stop-color="#342D3F"/>
<stop offset="1" stop-color="#36333B"/>
</linearGradient>
<linearGradient id="paint27_linear_5033_11189" x1="591.088" y1="116.304" x2="809.008" y2="517.772" gradientUnits="userSpaceOnUse">
<stop stop-color="white"/>
<stop offset="1" stop-color="white" stop-opacity="0.08"/>
</linearGradient>
</defs>
</svg>
