<svg width="1330" height="967" viewBox="0 0 1330 967" fill="none" xmlns="http://www.w3.org/2000/svg">
<mask id="mask0_5033_11189" style="mask-type:alpha" maskUnits="userSpaceOnUse" x="0" y="0" width="1330" height="967">
<rect y="0.00195312" width="1330" height="966" fill="url(#paint0_linear_5033_11189)"/>
</mask>
<g mask="url(#mask0_5033_11189)">
<g opacity="0.3">
<rect x="429.074" y="210.125" width="623.97" height="2.02588" fill="url(#paint1_radial_5033_11189)" fill-opacity="0.3"/>
<rect x="398.691" y="125.039" width="846.817" height="2.02588" fill="url(#paint2_radial_5033_11189)" fill-opacity="0.3"/>
<rect x="254.859" y="39.9541" width="972.421" height="2.02588" fill="url(#paint3_radial_5033_11189)" fill-opacity="0.3"/>
<rect x="464.527" y="-418.907" width="623.97" height="2.02588" transform="rotate(90 464.527 -418.907)" fill="url(#paint4_radial_5033_11189)" fill-opacity="0.3"/>
<rect x="549.613" y="-449.297" width="846.817" height="2.02588" transform="rotate(90 549.613 -449.297)" fill="url(#paint5_radial_5033_11189)" fill-opacity="0.3"/>
<rect x="804.879" y="-629.6" width="1126.39" height="2.02588" transform="rotate(90 804.879 -629.6)" fill="url(#paint6_radial_5033_11189)" fill-opacity="0.3"/>
<rect x="889.965" y="-568.823" width="1004.84" height="2.02588" transform="rotate(90 889.965 -568.823)" fill="url(#paint7_radial_5033_11189)" fill-opacity="0.3"/>
<rect x="634.703" y="-593.136" width="972.421" height="2.02588" transform="rotate(90 634.703 -593.136)" fill="url(#paint8_radial_5033_11189)" fill-opacity="0.3"/>
<rect x="719.789" y="-670.118" width="1126.39" height="2.02588" transform="rotate(90 719.789 -670.118)" fill="url(#paint9_radial_5033_11189)" fill-opacity="0.3"/>
<rect x="975.047" y="-453.349" width="895.438" height="2.02588" transform="rotate(90 975.047 -453.349)" fill="url(#paint10_radial_5033_11189)" fill-opacity="0.3"/>
<rect x="1060.13" y="-475.632" width="737.419" height="2.02588" transform="rotate(90 1060.13 -475.632)" fill="url(#paint11_radial_5033_11189)" fill-opacity="0.3"/>
</g>
<g opacity="0.6">
<g opacity="0.3">
<g opacity="0.5" filter="url(#filter0_f_5033_11189)">
<ellipse rx="226.675" ry="232.553" transform="matrix(0.789532 0.61371 -0.939631 0.342188 649.113 -192.776)" fill="#AFD803"/>
</g>
<g opacity="0.5" filter="url(#filter1_f_5033_11189)">
<ellipse rx="153.501" ry="157.482" transform="matrix(0.789532 0.61371 -0.939631 0.342188 1157.51 -13.7994)" fill="#AFD803"/>
</g>
<g opacity="0.5" filter="url(#filter2_f_5033_11189)">
<ellipse rx="274.039" ry="281.511" transform="matrix(0.789532 0.61371 -0.939631 0.342188 226.908 31.0839)" fill="#E54033"/>
</g>
<g opacity="0.5" filter="url(#filter3_f_5033_11189)">
<ellipse rx="365.386" ry="375.931" transform="matrix(0.789532 0.61371 -0.939631 0.342188 796.989 222.904)" fill="#FECA1A" fill-opacity="0.8"/>
</g>
</g>
<g filter="url(#filter4_b_5033_11189)">
<ellipse cx="150.647" cy="143.723" rx="42" ry="42" transform="rotate(-116.485 150.647 143.723)" fill="url(#paint12_linear_5033_11189)"/>
</g>
<g filter="url(#filter5_b_5033_11189)">
<ellipse cx="328.09" cy="300.561" rx="16.4739" ry="16.4739" transform="rotate(-116.485 328.09 300.561)" fill="#5B48AD"/>
</g>
<g filter="url(#filter6_b_5033_11189)">
<ellipse cx="1009.61" cy="206.61" rx="40.377" ry="40.377" transform="rotate(78.5154 1009.61 206.61)" fill="url(#paint13_linear_5033_11189)"/>
</g>
<g filter="url(#filter7_b_5033_11189)">
<ellipse cx="1255.38" cy="287.395" rx="14.5711" ry="14.5711" transform="rotate(78.5154 1255.38 287.395)" fill="#FECA1A"/>
</g>
<path d="M980 540.47C1036.53 540.47 1082 494.996 1082 438.47C1082 381.945 1036.53 336.47 980 336.47C923.475 336.47 878 381.945 878 438.47C878 494.996 923.475 540.47 980 540.47Z" fill="#FFFCFB"/>
<path d="M1081.5 438.47C1081.5 494.719 1036.25 539.97 980 539.97C923.751 539.97 878.5 494.719 878.5 438.47C878.5 382.221 923.751 336.97 980 336.97C1036.25 336.97 1081.5 382.221 1081.5 438.47Z" stroke="url(#paint14_linear_5033_11189)" stroke-opacity="0.39"/>
<mask id="mask1_5033_11189" style="mask-type:alpha" maskUnits="userSpaceOnUse" x="878" y="336" width="204" height="205">
<path d="M980 540.47C1036.53 540.47 1082 494.996 1082 438.47C1082 381.945 1036.53 336.47 980 336.47C923.475 336.47 878 381.945 878 438.47C878 494.996 923.475 540.47 980 540.47Z" fill="#2775CA"/>
</mask>
<g mask="url(#mask1_5033_11189)">
<g filter="url(#filter8_f_5033_11189)">
<path d="M1039.76 357.861C927.745 344.419 902.729 450.082 904.223 504.594C884.435 476.591 858.075 409.385 910.944 364.581C963.813 319.777 1018.85 341.433 1039.76 357.861Z" fill="white" fill-opacity="0.6"/>
</g>
</g>
<path d="M937.275 464.454C938.039 463.69 939.089 463.245 940.203 463.245H1041.21C1043.06 463.245 1043.98 465.472 1042.67 466.777L1022.72 486.73C1021.96 487.494 1020.91 487.939 1019.79 487.939L918.786 487.939C916.94 487.939 916.017 485.712 917.322 484.407L937.275 464.454Z" fill="url(#paint15_linear_5033_11189)"/>
<path d="M937.275 389.955C938.071 389.192 939.121 388.746 940.203 388.746H1041.21C1043.06 388.746 1043.98 390.974 1042.67 392.278L1022.72 412.232C1021.96 412.995 1020.91 413.441 1019.79 413.441H918.786C916.94 413.441 916.017 411.213 917.322 409.908L937.275 389.955Z" fill="url(#paint16_linear_5033_11189)"/>
<path d="M1022.72 426.966C1021.96 426.202 1020.91 425.757 1019.79 425.757H918.786C916.94 425.757 916.017 427.984 917.322 429.289L937.275 449.242C938.039 450.006 939.089 450.452 940.203 450.452H1041.21C1043.06 450.452 1043.98 448.224 1042.67 446.919L1022.72 426.966Z" fill="url(#paint17_linear_5033_11189)"/>
</g>
<path fill-rule="evenodd" clip-rule="evenodd" d="M257.366 165.776C248.327 121.017 277.284 77.4054 322.043 68.3666C366.802 59.3277 410.414 88.2847 419.453 133.044C428.492 177.802 399.535 221.414 354.776 230.453C310.017 239.492 266.405 210.535 257.366 165.776Z" fill="url(#paint18_linear_5033_11189)"/>
<path d="M310.404 158.935L308.268 163.491C307.851 165.006 309.179 166.429 310.719 166.118L320.329 164.178C325.904 176.126 336.384 182.925 348.072 180.38C356.396 178.7 361.835 173.294 364.36 164.207C364.682 163.051 363.954 161.858 362.782 161.595L357.785 160.473C356.685 160.226 355.581 160.889 355.292 161.978C354.015 166.806 350.985 170.33 346.236 171.289C341.937 172.157 338.062 170.748 334.561 167.027C333.195 165.589 332.002 163.917 330.97 162.03L343.278 159.545C344.057 159.387 344.683 158.804 344.894 158.037L347.03 153.48C347.447 151.964 346.119 150.542 344.578 150.853L327.95 154.211C327.73 153.368 327.525 152.505 327.344 151.608C327.155 150.721 327.005 149.847 326.878 148.98L340.585 146.212C341.365 146.055 341.99 145.471 342.202 144.704L344.338 140.148C344.755 138.633 343.426 137.209 341.886 137.521L326.627 140.602C327.389 132.874 331.086 127.166 337.101 126.05C341.668 125.127 345.72 126.911 348.822 130.549C349.517 131.364 350.736 131.484 351.61 130.866L355.807 127.901C356.81 127.192 357.01 125.764 356.214 124.828C350.411 118.007 343.431 115.401 335.282 117.046C327.847 118.548 322.487 122.707 319.149 129.488C317.203 133.478 316.181 137.905 316.021 142.744L309.329 144.095C308.549 144.253 307.924 144.836 307.713 145.603L305.577 150.16C305.16 151.676 306.488 153.098 308.028 152.787L316.551 151.066C316.684 151.934 316.819 152.805 316.999 153.697C317.166 154.584 317.364 155.451 317.575 156.306L312.023 157.427C311.243 157.585 310.615 158.168 310.404 158.935Z" fill="white"/>
<path d="M284.391 156.766C280.679 129.787 297.783 103.94 324.066 96.8144C337.883 93.0684 351.743 94.9772 363.376 100.993C364.505 101.577 365.89 101.26 366.652 100.243L369.871 95.9473C370.825 94.6735 370.43 92.8373 369.026 92.0859C355.401 84.7936 339.114 82.2763 322.807 86.2912C290.466 94.2542 269.221 125.853 274.073 158.806C276.172 173.059 282.701 185.46 292.002 194.915C293.115 196.048 294.983 195.906 295.936 194.635L299.151 190.343C299.911 189.329 299.833 187.913 298.957 186.997C291.336 179.026 286.027 168.655 284.391 156.766Z" fill="white"/>
<path d="M384.821 103.904C383.707 102.772 381.84 102.913 380.887 104.184L377.672 108.475C376.912 109.49 376.99 110.906 377.866 111.822C385.486 119.793 390.796 130.164 392.431 142.054C396.141 169.032 379.038 194.878 352.754 202.004C338.937 205.75 325.078 203.841 313.444 197.825C312.315 197.241 310.93 197.558 310.168 198.575L306.951 202.871C305.996 204.144 306.391 205.981 307.795 206.732C321.422 214.025 337.708 216.541 354.016 212.526C386.358 204.562 407.602 172.962 402.748 140.01C400.648 125.758 394.12 113.357 384.821 103.904Z" fill="white"/>
<path d="M1161.11 57.0731C1208.67 44.3292 1257.55 72.556 1270.29 120.109C1283.03 167.67 1254.82 216.547 1207.25 229.291C1159.7 242.033 1110.82 213.812 1098.07 166.255C1085.33 118.702 1113.56 69.815 1161.11 57.0731Z" fill="#F5AC37"/>
<mask id="mask2_5033_11189" style="mask-type:alpha" maskUnits="userSpaceOnUse" x="1095" y="54" width="179" height="179">
<path d="M1161.11 57.0731C1208.67 44.3292 1257.55 72.556 1270.29 120.109C1283.03 167.67 1254.82 216.547 1207.25 229.291C1159.7 242.033 1110.82 213.812 1098.07 166.255C1085.33 118.702 1113.56 69.815 1161.11 57.0731Z" fill="#F5AC37"/>
</mask>
<g mask="url(#mask2_5033_11189)">
<g filter="url(#filter9_f_5033_11189)">
<path d="M1214.42 63.9845C1123.86 76.9727 1126.42 164.94 1139.03 207.3C1117.65 189.532 1082.91 142.453 1114.93 96.2824C1146.94 50.1115 1194.59 55.5126 1214.42 63.9845Z" fill="white" fill-opacity="0.4"/>
</g>
</g>
<path d="M1188.54 147.569L1216.29 140.132C1216.89 139.973 1217.17 139.899 1217 139.11C1216.47 136.219 1215.71 133.372 1214.72 130.6C1214.57 130.049 1214.24 129.895 1213.64 130.055L1158.4 144.856C1157.72 145.039 1157.6 145.316 1157.77 145.958L1159.95 154.102C1160.23 155.153 1160.23 155.153 1161.33 154.86L1188.54 147.569ZM1208.86 121.134C1208.88 120.906 1208.82 120.678 1208.69 120.495C1207.96 119.608 1207.15 118.79 1206.27 118.055C1204.89 116.763 1203.38 115.64 1201.75 114.703C1200.93 114.092 1200.04 113.585 1199.1 113.207C1194.24 110.895 1188.91 109.769 1183.54 109.922C1180.83 110.032 1178.16 110.456 1175.55 111.178L1151.04 117.747C1150.36 117.93 1150.34 118.228 1150.5 118.825L1154.85 135.067C1155.03 135.752 1155.08 135.937 1155.95 135.704L1208.63 121.588C1208.63 121.588 1209.06 121.374 1209.08 121.075L1208.86 121.135L1208.86 121.134ZM1216.66 150.236C1215.86 150.358 1215.08 150.568 1214.33 150.861L1163.7 164.427C1163.01 164.61 1162.78 164.672 1163.03 165.587L1167.28 181.468C1167.48 182.199 1167.53 182.383 1168.44 182.139L1191.82 175.875C1192.96 175.662 1194.06 175.283 1195.09 174.756C1198.41 173.603 1201.55 171.971 1204.41 169.903C1205.46 169.191 1206.44 168.368 1207.32 167.456L1207.64 167.37C1212.36 163.046 1215.6 157.366 1216.93 151.105C1216.93 151.105 1217.07 150.328 1216.66 150.242L1216.66 150.236ZM1160.56 193.075L1160.49 192.801L1157.63 182.14L1156.66 178.526L1153.78 167.772C1153.62 167.176 1153.6 167.087 1152.87 167.282L1142.96 169.937C1142.41 170.084 1142.19 170.145 1141.99 169.414L1139.66 160.719L1150.25 157.881C1150.84 157.723 1151.07 157.661 1150.86 156.884L1148.56 148.281C1148.41 147.731 1148.38 147.596 1147.65 147.792L1137.74 150.446C1137.19 150.593 1136.96 150.654 1136.77 149.923L1134.61 141.871C1134.47 141.366 1134.44 141.231 1135.17 141.036L1144.98 138.406C1145.67 138.223 1145.85 138.173 1145.62 137.304L1139.01 112.64C1138.81 111.909 1138.76 111.724 1139.68 111.479L1173.92 102.305C1176.43 101.738 1178.97 101.35 1181.53 101.147C1186.82 100.731 1192.13 101.238 1197.24 102.626C1200.64 103.57 1203.9 104.936 1206.94 106.697C1209.26 108.094 1211.43 109.693 1213.46 111.473C1215.49 113.286 1217.31 115.315 1218.9 117.519C1219.19 118.127 1219.92 118.395 1220.52 118.115L1228.7 115.926C1229.74 115.645 1229.74 115.645 1230.06 116.641L1232.07 124.146C1232.27 124.877 1232.04 125.135 1231.31 125.331L1225.01 127.02C1224.37 127.191 1224.19 127.24 1224.45 128.051C1225.45 130.771 1226.2 133.569 1226.7 136.423C1226.91 137.2 1226.93 137.293 1227.8 137.059L1235.01 135.128C1235.44 135.454 1235.23 135.951 1235.34 136.366C1235.53 136.885 1235.67 137.422 1235.77 137.964L1237.25 143.503C1237.46 144.28 1237.3 144.571 1236.61 144.756L1227.98 147.068C1227.35 147.113 1226.87 147.656 1226.89 148.292C1226.27 154.197 1224.27 159.878 1221.05 164.864C1219.88 166.68 1218.6 168.434 1217.22 170.106C1215.68 171.65 1214.19 173.224 1212.55 174.596C1209.52 177.075 1206.21 179.19 1202.7 180.912C1199.34 182.489 1195.85 183.733 1192.25 184.645L1160.56 193.134L1160.55 193.088L1160.56 193.075Z" fill="#FEFEFD"/>
</g>
<g filter="url(#filter10_bd_5033_11189)">
<rect x="485.008" y="201.452" width="451.848" height="354.693" rx="71" transform="rotate(9.90457 485.008 201.452)" fill="url(#paint19_linear_5033_11189)"/>
<rect x="485.821" y="202.609" width="449.848" height="352.693" rx="70" transform="rotate(9.90457 485.821 202.609)" stroke="url(#paint20_linear_5033_11189)" stroke-width="2"/>
</g>
<g filter="url(#filter11_d_5033_11189)">
<mask id="path-38-inside-1_5033_11189" fill="white">
<path fill-rule="evenodd" clip-rule="evenodd" d="M510.438 457.083C510.438 457.082 510.437 457.082 510.436 457.082V457.082C510.435 457.082 510.434 457.081 510.434 457.08L510.426 457.06C510.421 457.047 510.414 457.04 510.426 457.032C510.848 456.73 529.145 443.834 537.539 466.271C537.543 466.283 537.538 466.298 537.526 466.303L537.446 466.337C537.446 466.337 537.446 466.337 537.446 466.337V466.337C537.446 466.337 537.446 466.337 537.446 466.337C535.873 466.998 516.746 474.603 510.438 457.083ZM514.047 467.807C514.047 467.807 514.047 467.807 514.047 467.807V467.807C514.047 467.807 514.047 467.807 514.048 467.807C515.836 469.158 517.831 470.079 519.876 470.692C521.691 471.236 523.419 472.174 524.388 473.802C525.117 475.028 525.761 476.306 526.372 477.596C526.798 478.505 527.162 479.443 527.461 480.401C528.155 482.6 528.553 484.867 528.955 487.161L528.955 487.161L528.955 487.161L528.955 487.161L528.955 487.161C529.073 487.834 529.191 488.509 529.318 489.185C529.344 489.468 529.374 489.752 529.408 490.036C529.408 490.04 529.412 490.043 529.416 490.043V490.043C529.42 490.042 529.423 490.045 529.423 490.049C529.906 494.383 530.893 499.093 532.61 503.141C532.61 503.143 532.609 503.144 532.608 503.145V503.145C532.606 503.145 532.605 503.147 532.606 503.148C533.176 504.478 533.85 505.761 534.622 506.985C534.775 507.222 534.932 507.458 535.09 507.694L535.09 507.694L535.09 507.694L535.09 507.694L535.09 507.694C535.827 508.796 536.569 509.906 536.875 511.186C537.257 512.781 536.91 514.478 536.251 515.981C533.141 523.059 525.68 523.761 518.841 522.752C518.839 522.752 518.838 522.749 518.839 522.747V522.747C518.84 522.745 518.839 522.742 518.837 522.742C516.279 522.347 513.781 521.715 511.576 521.093C511.574 521.093 511.575 521.093 511.573 521.093C511.521 521.078 500.913 518.058 492.916 509.76C492.913 509.757 492.91 509.755 492.906 509.754V509.754C492.902 509.753 492.898 509.751 492.895 509.748L492.642 509.481C492.642 509.48 492.642 509.48 492.642 509.48V509.48C492.643 509.479 492.643 509.479 492.643 509.478C491.71 508.493 490.839 507.451 490.032 506.36C487.89 503.458 486.089 500.277 484.87 496.918C484.866 496.904 484.87 496.89 484.882 496.882V496.882C484.893 496.874 484.898 496.859 484.893 496.846C484.754 496.443 484.623 496.038 484.501 495.631C483.398 491.941 483.01 488.066 483.649 484.131C484.719 477.529 488.151 471.176 493.289 467.032C493.292 467.03 493.293 467.026 493.292 467.023V467.023C493.292 467.02 493.293 467.017 493.295 467.015C493.416 466.922 493.536 466.83 493.658 466.74L493.667 466.733C493.667 466.733 493.667 466.733 493.667 466.734V466.734C493.667 466.734 493.667 466.734 493.667 466.734C496.348 464.75 499.466 463.368 502.934 462.855C504.486 462.621 506.058 462.569 507.617 462.699C509.009 462.815 510.167 463.714 511.027 464.814C511.901 465.933 512.915 466.939 514.047 467.807Z"/>
</mask>
<path fill-rule="evenodd" clip-rule="evenodd" d="M510.438 457.083C510.438 457.082 510.437 457.082 510.436 457.082V457.082C510.435 457.082 510.434 457.081 510.434 457.08L510.426 457.06C510.421 457.047 510.414 457.04 510.426 457.032C510.848 456.73 529.145 443.834 537.539 466.271C537.543 466.283 537.538 466.298 537.526 466.303L537.446 466.337C537.446 466.337 537.446 466.337 537.446 466.337V466.337C537.446 466.337 537.446 466.337 537.446 466.337C535.873 466.998 516.746 474.603 510.438 457.083ZM514.047 467.807C514.047 467.807 514.047 467.807 514.047 467.807V467.807C514.047 467.807 514.047 467.807 514.048 467.807C515.836 469.158 517.831 470.079 519.876 470.692C521.691 471.236 523.419 472.174 524.388 473.802C525.117 475.028 525.761 476.306 526.372 477.596C526.798 478.505 527.162 479.443 527.461 480.401C528.155 482.6 528.553 484.867 528.955 487.161L528.955 487.161L528.955 487.161L528.955 487.161L528.955 487.161C529.073 487.834 529.191 488.509 529.318 489.185C529.344 489.468 529.374 489.752 529.408 490.036C529.408 490.04 529.412 490.043 529.416 490.043V490.043C529.42 490.042 529.423 490.045 529.423 490.049C529.906 494.383 530.893 499.093 532.61 503.141C532.61 503.143 532.609 503.144 532.608 503.145V503.145C532.606 503.145 532.605 503.147 532.606 503.148C533.176 504.478 533.85 505.761 534.622 506.985C534.775 507.222 534.932 507.458 535.09 507.694L535.09 507.694L535.09 507.694L535.09 507.694L535.09 507.694C535.827 508.796 536.569 509.906 536.875 511.186C537.257 512.781 536.91 514.478 536.251 515.981C533.141 523.059 525.68 523.761 518.841 522.752C518.839 522.752 518.838 522.749 518.839 522.747V522.747C518.84 522.745 518.839 522.742 518.837 522.742C516.279 522.347 513.781 521.715 511.576 521.093C511.574 521.093 511.575 521.093 511.573 521.093C511.521 521.078 500.913 518.058 492.916 509.76C492.913 509.757 492.91 509.755 492.906 509.754V509.754C492.902 509.753 492.898 509.751 492.895 509.748L492.642 509.481C492.642 509.48 492.642 509.48 492.642 509.48V509.48C492.643 509.479 492.643 509.479 492.643 509.478C491.71 508.493 490.839 507.451 490.032 506.36C487.89 503.458 486.089 500.277 484.87 496.918C484.866 496.904 484.87 496.89 484.882 496.882V496.882C484.893 496.874 484.898 496.859 484.893 496.846C484.754 496.443 484.623 496.038 484.501 495.631C483.398 491.941 483.01 488.066 483.649 484.131C484.719 477.529 488.151 471.176 493.289 467.032C493.292 467.03 493.293 467.026 493.292 467.023V467.023C493.292 467.02 493.293 467.017 493.295 467.015C493.416 466.922 493.536 466.83 493.658 466.74L493.667 466.733C493.667 466.733 493.667 466.733 493.667 466.734V466.734C493.667 466.734 493.667 466.734 493.667 466.734C496.348 464.75 499.466 463.368 502.934 462.855C504.486 462.621 506.058 462.569 507.617 462.699C509.009 462.815 510.167 463.714 511.027 464.814C511.901 465.933 512.915 466.939 514.047 467.807Z" fill="url(#paint21_linear_5033_11189)" fill-opacity="0.1" shape-rendering="crispEdges"/>
<path d="M526.372 477.596L527.277 477.172L527.276 477.168L526.372 477.596ZM527.461 480.401L526.506 480.699L526.507 480.703L527.461 480.401ZM528.955 487.161L529.944 487.012L529.942 487L529.94 486.988L528.955 487.161ZM528.955 487.161L529.944 487.013L529.944 487.013L528.955 487.161ZM528.955 487.161L527.966 487.309L527.966 487.309L528.955 487.161ZM528.955 487.161L529.944 487.013L529.944 487.013L528.955 487.161ZM528.955 487.161L527.966 487.309L527.968 487.322L527.97 487.334L528.955 487.161ZM529.318 489.185L530.313 489.091L530.309 489.046L530.301 489.002L529.318 489.185ZM534.622 506.985L533.776 507.519L533.782 507.528L534.622 506.985ZM535.09 507.694L534.258 508.249L534.265 508.259L534.272 508.269L535.09 507.694ZM535.09 507.694L535.94 507.168L535.925 507.143L535.908 507.119L535.09 507.694ZM535.09 507.694L535.941 507.168L535.941 507.168L535.09 507.694ZM535.09 507.694L534.24 508.22L534.249 508.235L534.259 508.25L535.09 507.694ZM536.875 511.186L537.848 510.953L537.848 510.953L536.875 511.186ZM536.251 515.981L537.166 516.383L537.166 516.382L536.251 515.981ZM490.032 506.36L489.228 506.954L489.228 506.954L490.032 506.36ZM484.501 495.631L485.459 495.344L485.459 495.344L484.501 495.631ZM483.649 484.131L484.636 484.292L484.636 484.291L483.649 484.131ZM493.658 466.74L494.254 467.543L494.262 467.537L494.27 467.531L493.658 466.74ZM502.934 462.855L503.08 463.844L503.083 463.844L502.934 462.855ZM493.667 466.734L494.262 467.537L493.667 466.734ZM493.667 466.733L494.279 467.525L493.667 466.733ZM493.295 467.015L492.684 466.223L493.295 467.015ZM484.893 496.846L483.948 497.173L484.893 496.846ZM484.87 496.918L485.811 496.577L484.87 496.918ZM492.643 509.478L491.916 510.165L492.643 509.478ZM492.642 509.481L491.917 510.169L492.642 509.481ZM492.895 509.748L492.17 510.436L492.895 509.748ZM492.916 509.76L492.196 510.454L492.916 509.76ZM532.606 503.148L533.525 502.755L532.606 503.148ZM532.61 503.141L533.53 502.751L532.61 503.141ZM511.576 521.093L511.847 520.131L511.576 521.093ZM511.573 521.093L511.846 520.131L511.573 521.093ZM519.876 470.692L519.589 471.65L519.876 470.692ZM524.388 473.802L523.529 474.314L524.388 473.802ZM493.289 467.032L492.661 466.253L493.289 467.032ZM529.423 490.049L530.417 489.938L529.423 490.049ZM518.837 522.742L518.684 523.73L518.837 522.742ZM514.047 467.807L513.438 468.6L514.047 467.807ZM529.408 490.036L528.414 490.152L529.408 490.036ZM518.841 522.752L518.695 523.741L518.841 522.752ZM514.047 467.807L514.752 468.516L514.047 467.807ZM514.048 467.807L513.445 468.605L514.048 467.807ZM537.446 466.337L537.058 465.415L537.446 466.337ZM537.446 466.337L537.835 467.258L537.446 466.337ZM537.539 466.271L536.602 466.621L537.539 466.271ZM537.526 466.303L537.137 465.381L537.526 466.303ZM510.426 457.06L511.368 456.723L510.426 457.06ZM510.426 457.032L509.845 456.218L510.426 457.032ZM510.434 457.08L511.375 456.743L510.434 457.08ZM507.617 462.699L507.701 461.703L507.617 462.699ZM510.436 457.082L510.438 458.082L510.436 457.082ZM510.438 457.083L511.379 456.744L510.438 457.083ZM511.375 456.743L511.368 456.723L509.485 457.398L509.492 457.418L511.375 456.743ZM511.007 457.846C511.19 457.715 515.682 454.555 521.073 454.121C523.736 453.907 526.587 454.36 529.265 456.151C531.948 457.946 534.556 461.151 536.602 466.621L538.475 465.921C536.325 460.172 533.498 456.576 530.377 454.488C527.25 452.396 523.926 451.885 520.913 452.128C514.951 452.608 510.083 456.047 509.845 456.218L511.007 457.846ZM537.137 465.381L537.057 465.415L537.835 467.258L537.915 467.224L537.137 465.381ZM509.497 457.422C511.141 461.987 513.648 464.983 516.557 466.854C519.453 468.718 522.673 469.42 525.682 469.527C531.67 469.741 537.008 467.606 537.834 467.258L537.058 465.415C536.311 465.729 531.299 467.727 525.753 467.529C522.995 467.43 520.153 466.79 517.639 465.172C515.138 463.563 512.889 460.94 511.379 456.744L509.497 457.422ZM520.163 469.734C518.21 469.148 516.328 468.276 514.65 467.009L513.445 468.605C515.345 470.04 517.452 471.009 519.589 471.65L520.163 469.734ZM527.276 477.168C526.659 475.865 526 474.555 525.248 473.291L523.529 474.314C524.235 475.5 524.864 476.746 525.467 478.023L527.276 477.168ZM528.415 480.104C528.103 479.102 527.722 478.122 527.277 477.172L525.466 478.02C525.873 478.889 526.22 479.784 526.506 480.699L528.415 480.104ZM529.94 486.988C529.54 484.705 529.132 482.372 528.414 480.1L526.507 480.703C527.179 482.827 527.566 485.028 527.97 487.334L529.94 486.988ZM529.944 487.013L529.944 487.012L527.966 487.309L527.966 487.309L529.944 487.013ZM529.944 487.013L529.944 487.013L527.966 487.309L527.966 487.309L529.944 487.013ZM529.944 487.013L529.944 487.013L527.966 487.309L527.966 487.309L529.944 487.013ZM529.944 487.013L529.944 487.013L527.966 487.309L527.966 487.309L529.944 487.013ZM530.301 489.002C530.176 488.332 530.058 487.662 529.94 486.988L527.97 487.334C528.088 488.006 528.207 488.686 528.335 489.369L530.301 489.002ZM530.401 489.92C530.369 489.643 530.339 489.367 530.313 489.091L528.322 489.279C528.35 489.57 528.38 489.861 528.414 490.152L530.401 489.92ZM533.53 502.751C531.864 498.821 530.894 494.213 530.417 489.938L528.43 490.16C528.919 494.552 529.922 499.366 531.689 503.532L533.53 502.751ZM535.467 506.452C534.723 505.273 534.074 504.036 533.525 502.755L531.687 503.542C532.277 504.92 532.976 506.25 533.776 507.519L535.467 506.452ZM535.921 507.138C535.763 506.901 535.61 506.672 535.462 506.443L533.782 507.528C533.94 507.773 534.101 508.015 534.258 508.249L535.921 507.138ZM535.908 507.119L535.908 507.119L534.272 508.269L534.272 508.269L535.908 507.119ZM535.94 507.168L535.94 507.168L534.239 508.22L534.239 508.22L535.94 507.168ZM535.941 507.168L535.94 507.168L534.239 508.22L534.239 508.22L535.941 507.168ZM535.941 507.168L535.941 507.168L534.239 508.22L534.24 508.22L535.941 507.168ZM537.848 510.953C537.492 509.469 536.639 508.212 535.921 507.138L534.259 508.25C535.014 509.38 535.645 510.343 535.903 511.419L537.848 510.953ZM537.166 516.382C537.877 514.763 538.298 512.834 537.848 510.953L535.903 511.419C536.216 512.728 535.943 514.193 535.335 515.579L537.166 516.382ZM518.695 523.741C522.181 524.255 525.922 524.351 529.232 523.357C532.585 522.349 535.479 520.223 537.166 516.383L535.335 515.578C533.913 518.816 531.522 520.581 528.657 521.441C525.749 522.315 522.341 522.257 518.987 521.763L518.695 523.741ZM511.304 522.056C513.526 522.682 516.068 523.327 518.684 523.73L518.989 521.754C516.489 521.368 514.036 520.748 511.847 520.131L511.304 522.056ZM492.196 510.454C500.384 518.95 511.207 522.028 511.3 522.055L511.846 520.131C511.859 520.134 509.254 519.395 505.664 517.635C502.071 515.873 497.528 513.105 493.636 509.066L492.196 510.454ZM491.917 510.169L492.17 510.436L493.621 509.06L493.368 508.793L491.917 510.169ZM489.228 506.954C490.059 508.078 490.956 509.15 491.916 510.165L493.369 508.791C492.465 507.835 491.619 506.824 490.837 505.766L489.228 506.954ZM483.93 497.259C485.187 500.723 487.039 503.988 489.228 506.954L490.837 505.766C488.742 502.928 486.99 499.831 485.811 496.577L483.93 497.259ZM483.543 495.917C483.669 496.338 483.804 496.757 483.948 497.173L485.838 496.518C485.703 496.129 485.577 495.738 485.459 495.344L483.543 495.917ZM482.662 483.971C481.995 488.076 482.403 492.104 483.543 495.917L485.459 495.344C484.393 491.778 484.024 488.057 484.636 484.292L482.662 483.971ZM492.661 466.253C487.312 470.568 483.767 477.152 482.661 483.971L484.636 484.291C485.671 477.907 488.99 471.784 493.917 467.81L492.661 466.253ZM493.063 465.936C492.936 466.031 492.809 466.126 492.684 466.223L493.907 467.806C494.022 467.717 494.137 467.63 494.254 467.543L493.063 465.936ZM493.055 465.942L493.047 465.949L494.27 467.531L494.279 467.525L493.055 465.942ZM502.787 461.866C499.144 462.404 495.874 463.856 493.072 465.93L494.262 467.537C496.821 465.643 499.788 464.331 503.08 463.844L502.787 461.866ZM507.701 461.703C506.064 461.566 504.414 461.62 502.785 461.866L503.083 463.844C504.558 463.621 506.052 463.572 507.534 463.696L507.701 461.703ZM514.655 467.013C513.591 466.197 512.637 465.251 511.815 464.198L510.239 465.43C511.165 466.615 512.239 467.681 513.438 468.6L514.655 467.013ZM492.684 466.92C492.822 467.644 493.669 467.976 494.262 467.537L493.072 465.93C493.665 465.491 494.512 465.823 494.649 466.547L492.684 466.92ZM494.279 467.525C493.688 467.981 492.824 467.653 492.684 466.92L494.649 466.547C494.51 465.814 493.645 465.486 493.055 465.942L494.279 467.525ZM494.274 466.836C494.344 467.203 494.202 467.578 493.907 467.806L492.684 466.223C492.383 466.456 492.239 466.837 492.31 467.21L494.274 466.836ZM485.459 497.698C485.834 497.433 485.988 496.952 485.838 496.518L483.948 497.173C483.807 496.766 483.952 496.314 484.304 496.065L485.459 497.698ZM485.811 496.577C485.959 496.988 485.815 497.446 485.459 497.698L484.304 496.065C483.926 496.333 483.772 496.821 483.93 497.259L485.811 496.577ZM493.151 510.341C493.704 510.014 493.81 509.258 493.369 508.791L491.916 510.165C491.476 509.7 491.581 508.945 492.134 508.619L493.151 510.341ZM493.368 508.793C493.81 509.259 493.704 510.014 493.151 510.341L492.134 508.619C491.58 508.945 491.474 509.702 491.917 510.169L493.368 508.793ZM493.155 508.786C493.333 508.831 493.495 508.926 493.621 509.06L492.17 510.436C492.302 510.575 492.471 510.675 492.657 510.722L493.155 508.786ZM493.636 509.066C493.506 508.931 493.34 508.833 493.155 508.786L492.657 510.722C492.48 510.677 492.321 510.583 492.196 510.454L493.636 509.066ZM532.385 502.17C531.775 502.309 531.44 502.967 531.687 503.542L533.525 502.755C533.77 503.327 533.437 503.981 532.831 504.12L532.385 502.17ZM531.689 503.532C531.445 502.957 531.783 502.307 532.385 502.17L532.831 504.12C533.435 503.981 533.775 503.329 533.53 502.751L531.689 503.532ZM511.847 520.131C511.846 520.13 511.845 520.13 511.845 520.13C511.846 520.131 511.847 520.131 511.846 520.131L511.3 522.055C511.301 522.055 511.302 522.055 511.304 522.056C511.305 522.056 511.304 522.056 511.304 522.056L511.847 520.131ZM519.589 471.65C521.296 472.161 522.745 472.996 523.529 474.314L525.248 473.291C524.094 471.353 522.085 470.31 520.163 469.734L519.589 471.65ZM493.917 467.81C494.207 467.576 494.344 467.202 494.274 466.836L492.31 467.21C492.241 466.851 492.376 466.483 492.661 466.253L493.917 467.81ZM529.503 491.039C528.97 491.086 528.49 490.7 528.43 490.16L530.417 489.938C530.356 489.391 529.869 488.999 529.328 489.047L529.503 491.039ZM519.698 523.26C520.063 522.648 519.692 521.862 518.989 521.754L518.684 523.73C517.986 523.623 517.618 522.842 517.98 522.234L519.698 523.26ZM513.342 467.098C513.697 466.745 514.258 466.709 514.655 467.013L513.438 468.6C513.836 468.905 514.397 468.869 514.752 468.516L513.342 467.098ZM528.414 490.152C528.478 490.694 528.96 491.087 529.503 491.039L529.328 489.047C529.863 489 530.339 489.387 530.401 489.92L528.414 490.152ZM518.987 521.763C519.693 521.867 520.06 522.653 519.698 523.26L517.98 522.234C517.616 522.845 517.985 523.636 518.695 523.741L518.987 521.763ZM514.752 468.516C514.399 468.867 513.841 468.904 513.445 468.605L514.65 467.009C514.254 466.709 513.696 466.746 513.342 467.098L514.752 468.516ZM537.306 467.327C537.069 467.293 536.831 467.172 536.661 466.957C536.58 466.853 536.398 466.578 536.457 466.188C536.526 465.729 536.859 465.499 537.058 465.415L537.834 467.258C538.033 467.175 538.366 466.944 538.435 466.486C538.493 466.096 538.312 465.82 538.23 465.717C538.06 465.501 537.823 465.38 537.586 465.346L537.306 467.327ZM537.057 465.415C536.126 465.808 536.297 467.184 537.306 467.327L537.586 465.346C538.594 465.489 538.766 466.865 537.835 467.258L537.057 465.415ZM536.602 466.621C536.435 466.176 536.613 465.603 537.137 465.381L537.915 467.224C538.463 466.993 538.651 466.391 538.475 465.921L536.602 466.621ZM511.368 456.723C511.349 456.669 511.327 456.624 511.33 456.631C511.33 456.631 511.332 456.636 511.335 456.641C511.337 456.647 511.342 456.658 511.347 456.671C511.357 456.695 511.376 456.743 511.391 456.807C511.426 456.95 511.447 457.182 511.338 457.435C511.239 457.663 511.083 457.791 511.007 457.846L509.845 456.218C509.762 456.277 509.603 456.408 509.502 456.641C509.391 456.898 509.412 457.134 509.448 457.281C509.464 457.347 509.484 457.398 509.494 457.424C509.505 457.45 509.515 457.471 509.515 457.471C509.521 457.484 509.502 457.444 509.485 457.398L511.368 456.723ZM510.433 456.082C510.855 456.081 511.232 456.345 511.375 456.743L509.492 457.418C509.635 457.817 510.014 458.083 510.438 458.082L510.433 456.082ZM507.534 463.696C508.534 463.779 509.464 464.438 510.239 465.43L511.815 464.198C510.87 462.989 509.484 461.851 507.701 461.703L507.534 463.696ZM510.438 458.082C509.991 458.083 509.631 457.794 509.497 457.422L511.379 456.744C511.244 456.371 510.883 456.08 510.433 456.082L510.438 458.082Z" fill="url(#paint22_linear_5033_11189)" fill-opacity="0.5" mask="url(#path-38-inside-1_5033_11189)"/>
</g>
<g filter="url(#filter12_d_5033_11189)">
<path d="M482.717 279.367C488.818 243.291 523.102 219.063 559.145 225.356L852.956 276.658C888.728 282.905 912.735 316.875 906.68 352.68L872.995 551.859C866.894 587.935 832.609 612.164 796.566 605.87L502.756 554.568C466.983 548.322 442.977 514.351 449.032 478.546L482.717 279.367Z" stroke="url(#paint23_linear_5033_11189)" stroke-opacity="0.3" stroke-width="3" stroke-linecap="round" stroke-dasharray="11 11" shape-rendering="crispEdges"/>
</g>
<g opacity="0.4">
<mask id="path-41-inside-2_5033_11189" fill="white">
<path fill-rule="evenodd" clip-rule="evenodd" d="M548.787 248.595C534.523 246.104 520.942 255.648 518.452 269.911C515.961 284.174 525.505 297.756 539.768 300.246L598.324 310.471C614.646 313.321 625.235 332.437 638.909 341.792C641.907 343.843 645.382 345.301 649.193 345.966L725.151 359.229C728.963 359.895 732.726 359.701 736.241 358.787C752.277 354.62 768.718 340.223 785.039 343.073L843.599 353.298C857.863 355.789 871.444 346.245 873.935 331.982C876.425 317.719 866.881 304.137 852.618 301.647L548.787 248.595Z"/>
</mask>
<g filter="url(#filter13_i_5033_11189)">
<path fill-rule="evenodd" clip-rule="evenodd" d="M548.787 248.595C534.523 246.104 520.942 255.648 518.452 269.911C515.961 284.174 525.505 297.756 539.768 300.246L598.324 310.471C614.646 313.321 625.235 332.437 638.909 341.792C641.907 343.843 645.382 345.301 649.193 345.966L725.151 359.229C728.963 359.895 732.726 359.701 736.241 358.787C752.277 354.62 768.718 340.223 785.039 343.073L843.599 353.298C857.863 355.789 871.444 346.245 873.935 331.982C876.425 317.719 866.881 304.137 852.618 301.647L548.787 248.595Z" fill="url(#paint24_linear_5033_11189)"/>
</g>
<path d="M548.787 248.595L549.131 246.625L548.787 248.595ZM539.768 300.246L540.112 298.276L540.112 298.276L539.768 300.246ZM649.193 345.966L648.849 347.936L649.193 345.966ZM725.151 359.229L725.495 357.259L725.151 359.229ZM843.599 353.298L843.944 351.328L843.944 351.328L843.599 353.298ZM852.618 301.647L852.274 303.617L852.618 301.647ZM736.241 358.787L735.738 356.852L736.241 358.787ZM638.909 341.792L637.78 343.443L638.909 341.792ZM520.422 270.255C522.722 257.08 535.268 248.265 548.443 250.565L549.131 246.625C533.779 243.944 519.162 254.216 516.481 269.567L520.422 270.255ZM540.112 298.276C526.937 295.976 518.121 283.43 520.422 270.255L516.481 269.567C513.801 284.918 524.073 299.536 539.424 302.216L540.112 298.276ZM598.668 308.501L540.112 298.276L539.424 302.216L597.98 312.441L598.668 308.501ZM649.537 343.996C646.013 343.381 642.805 342.034 640.039 340.141L637.78 343.443C641.009 345.652 644.751 347.221 648.849 347.936L649.537 343.996ZM725.495 357.259L649.537 343.996L648.849 347.936L724.807 361.199L725.495 357.259ZM735.738 356.852C732.494 357.695 729.02 357.874 725.495 357.259L724.807 361.199C728.906 361.915 732.958 361.707 736.745 360.723L735.738 356.852ZM843.944 351.328L785.383 341.103L784.695 345.043L843.255 355.269L843.944 351.328ZM871.964 331.638C869.664 344.813 857.119 353.629 843.944 351.328L843.255 355.269C858.607 357.949 873.224 347.677 875.905 332.326L871.964 331.638ZM852.274 303.617C865.449 305.918 874.265 318.463 871.964 331.638L875.905 332.326C878.585 316.975 868.314 302.357 852.962 299.677L852.274 303.617ZM548.443 250.565L852.274 303.617L852.962 299.677L549.131 246.625L548.443 250.565ZM736.745 360.723C744.993 358.579 753.454 353.769 761.371 350.115C769.496 346.365 777.19 343.733 784.695 345.043L785.383 341.103C776.567 339.564 767.88 342.705 759.695 346.483C751.303 350.356 743.526 354.828 735.738 356.852L736.745 360.723ZM597.98 312.441C605.486 313.752 611.832 318.835 618.206 325.116C624.416 331.237 630.746 338.631 637.78 343.443L640.039 340.141C633.398 335.598 627.596 328.756 621.013 322.268C614.593 315.94 607.485 310.04 598.668 308.501L597.98 312.441Z" fill="url(#paint25_linear_5033_11189)" mask="url(#path-41-inside-2_5033_11189)"/>
</g>
<mask id="mask3_5033_11189" style="mask-type:alpha" maskUnits="userSpaceOnUse" x="516" y="84" width="382" height="274">
<path fill-rule="evenodd" clip-rule="evenodd" d="M621.612 85.7227C583.555 79.0775 547.309 104.521 540.626 142.571L517.015 277.015C515.39 286.269 521.58 295.086 530.835 296.702L598.952 308.596C615.185 311.43 625.726 330.33 639.294 339.682C642.316 341.765 645.824 343.244 649.675 343.917L725.621 357.178C729.412 357.84 733.154 357.65 736.652 356.747C752.652 352.616 769.051 338.297 785.33 341.139L852.825 352.925C862.067 354.539 870.87 348.36 872.493 339.119L896.086 204.777C902.778 166.674 877.292 130.367 839.181 123.713L621.612 85.7227Z" fill="url(#paint26_linear_5033_11189)"/>
</mask>
<g mask="url(#mask3_5033_11189)">
<path d="M691.105 422.505C775.876 429.177 849.443 366.346 856.115 281.575C862.787 196.804 799.956 123.237 715.185 116.565C630.413 109.893 556.847 172.724 550.175 257.495C543.503 342.266 606.334 415.833 691.105 422.505Z" fill="#2775CA"/>
<path d="M855.616 281.536C848.966 366.032 775.64 428.657 691.144 422.006C606.648 415.356 544.023 342.03 550.673 257.534C557.324 173.038 630.649 110.413 715.145 117.064C799.641 123.714 862.267 197.04 855.616 281.536Z" stroke="url(#paint27_linear_5033_11189)" stroke-opacity="0.3"/>
<mask id="mask4_5033_11189" style="mask-type:alpha" maskUnits="userSpaceOnUse" x="549" y="116" width="308" height="307">
<path d="M691.105 422.504C775.876 429.176 849.443 366.346 856.115 281.574C862.787 196.803 799.956 123.237 715.185 116.565C630.413 109.893 556.847 172.723 550.175 257.495C543.503 342.266 606.334 415.832 691.105 422.504Z" fill="#2775CA"/>
</mask>
<g mask="url(#mask4_5033_11189)">
<g filter="url(#filter14_f_5033_11189)">
<path d="M802.274 155.697C635.879 122.318 585.891 277.828 581.696 359.755C555.325 315.424 523.726 211.524 608.302 150.572C692.878 89.6193 772.857 128.592 802.274 155.697Z" fill="white" fill-opacity="0.4"/>
</g>
</g>
<path d="M743.308 297.064C745.064 274.757 732.281 266.055 705.762 260.761C686.842 256.706 683.419 251.307 684.121 242.383C684.824 233.458 691.649 228.225 704.396 229.228C715.869 230.131 721.942 234.457 724.376 244.269C724.863 246.231 726.675 247.656 728.587 247.806L738.784 248.609C741.334 248.81 743.397 247.048 743.598 244.5L743.648 243.862C742.201 229.638 731.582 217.9 717.023 215.472L718.227 200.175C718.427 197.625 716.666 195.563 713.53 194.674L703.969 193.922C701.419 193.721 699.356 195.482 698.468 198.62L697.314 213.279C677.992 214.324 664.88 226.118 663.625 242.053C661.97 263.086 674.065 272.375 700.584 277.669C718.18 282.26 723.615 286.536 722.812 296.735C722.01 306.933 712.534 313.241 700.425 312.288C683.852 310.984 678.667 303.52 677.508 293.809C677.072 291.211 675.26 289.784 673.348 289.634L662.512 288.781C659.963 288.58 657.901 290.342 657.7 292.892L657.65 293.53C658.944 309.664 668.24 321.939 689.022 326.783L687.818 342.08C687.618 344.628 689.379 346.691 692.515 347.579L702.076 348.332C704.626 348.533 706.689 346.771 707.577 343.635L708.781 328.338C728.153 326.655 741.954 314.273 743.308 297.064V297.064Z" fill="white"/>
<path d="M663.475 358.122C615.165 336.364 594.033 278.905 616.381 231.281C628.049 205.264 650.687 186.524 677.572 179.02C680.222 177.947 681.647 176.135 681.898 172.947L682.6 164.024C682.801 161.474 681.677 159.462 679.177 158.625C678.539 158.575 677.265 158.474 676.577 159.06C614.522 173.416 576.311 235.183 590.667 297.238C599.33 333.834 624.581 363.398 659.37 377.68C661.82 379.155 664.47 378.082 665.307 375.582C665.995 374.996 666.045 374.358 666.145 373.084L666.848 364.159C666.998 362.247 665.287 359.548 663.475 358.122ZM746.689 164.579C744.239 163.104 741.589 164.177 740.752 166.677C740.064 167.265 740.014 167.901 739.913 169.177L739.211 178.1C739.01 180.65 740.722 183.349 742.534 184.775C790.844 206.533 811.975 263.992 789.628 311.616C777.96 337.633 755.321 356.373 728.437 363.877C725.787 364.95 724.362 366.762 724.111 369.95L723.409 378.873C723.208 381.423 724.332 383.435 726.832 384.272C727.47 384.322 728.744 384.423 729.432 383.837C791.487 369.481 829.698 307.714 815.342 245.659C806.729 208.426 780.841 178.811 746.689 164.579V164.579Z" fill="white"/>
<g opacity="0.61" filter="url(#filter15_f_5033_11189)">
<path d="M647.124 335.428L602.272 310.269L553.285 299.155L532.91 285.741L530.944 310.446L641.662 353.26L728.254 368.38L850.233 364.631L858.3 316.598L801.466 321.666L731.437 350.15L647.124 335.428Z" fill="#1E1927"/>
</g>
</g>
<defs>
<filter id="filter0_f_5033_11189" x="-197.344" y="-917.068" width="1692.91" height="1448.58" filterUnits="userSpaceOnUse" color-interpolation-filters="sRGB">
<feFlood flood-opacity="0" result="BackgroundImageFix"/>
<feBlend mode="normal" in="SourceGraphic" in2="BackgroundImageFix" result="shape"/>
<feGaussianBlur stdDeviation="282" result="effect1_foregroundBlur_5033_11189"/>
</filter>
<filter id="filter1_f_5033_11189" x="402.23" y="-686.347" width="1510.55" height="1345.1" filterUnits="userSpaceOnUse" color-interpolation-filters="sRGB">
<feFlood flood-opacity="0" result="BackgroundImageFix"/>
<feBlend mode="normal" in="SourceGraphic" in2="BackgroundImageFix" result="shape"/>
<feGaussianBlur stdDeviation="282" result="effect1_foregroundBlur_5033_11189"/>
</filter>
<filter id="filter2_f_5033_11189" x="-678.836" y="-726.764" width="1811.49" height="1515.7" filterUnits="userSpaceOnUse" color-interpolation-filters="sRGB">
<feFlood flood-opacity="0" result="BackgroundImageFix"/>
<feBlend mode="normal" in="SourceGraphic" in2="BackgroundImageFix" result="shape"/>
<feGaussianBlur stdDeviation="282" result="effect1_foregroundBlur_5033_11189"/>
</filter>
<filter id="filter3_f_5033_11189" x="-223.094" y="-599.659" width="2040.16" height="1645.13" filterUnits="userSpaceOnUse" color-interpolation-filters="sRGB">
<feFlood flood-opacity="0" result="BackgroundImageFix"/>
<feBlend mode="normal" in="SourceGraphic" in2="BackgroundImageFix" result="shape"/>
<feGaussianBlur stdDeviation="282" result="effect1_foregroundBlur_5033_11189"/>
</filter>
<filter id="filter4_b_5033_11189" x="54.6367" y="47.7144" width="192.02" height="192.019" filterUnits="userSpaceOnUse" color-interpolation-filters="sRGB">
<feFlood flood-opacity="0" result="BackgroundImageFix"/>
<feGaussianBlur in="BackgroundImageFix" stdDeviation="27"/>
<feComposite in2="SourceAlpha" operator="in" result="effect1_backgroundBlur_5033_11189"/>
<feBlend mode="normal" in="SourceGraphic" in2="effect1_backgroundBlur_5033_11189" result="shape"/>
</filter>
<filter id="filter5_b_5033_11189" x="257.613" y="230.083" width="140.953" height="140.955" filterUnits="userSpaceOnUse" color-interpolation-filters="sRGB">
<feFlood flood-opacity="0" result="BackgroundImageFix"/>
<feGaussianBlur in="BackgroundImageFix" stdDeviation="27"/>
<feComposite in2="SourceAlpha" operator="in" result="effect1_backgroundBlur_5033_11189"/>
<feBlend mode="normal" in="SourceGraphic" in2="effect1_backgroundBlur_5033_11189" result="shape"/>
</filter>
<filter id="filter6_b_5033_11189" x="915.227" y="112.225" width="188.77" height="188.77" filterUnits="userSpaceOnUse" color-interpolation-filters="sRGB">
<feFlood flood-opacity="0" result="BackgroundImageFix"/>
<feGaussianBlur in="BackgroundImageFix" stdDeviation="27"/>
<feComposite in2="SourceAlpha" operator="in" result="effect1_backgroundBlur_5033_11189"/>
<feBlend mode="normal" in="SourceGraphic" in2="effect1_backgroundBlur_5033_11189" result="shape"/>
</filter>
<filter id="filter7_b_5033_11189" x="1186.8" y="218.821" width="137.148" height="137.148" filterUnits="userSpaceOnUse" color-interpolation-filters="sRGB">
<feFlood flood-opacity="0" result="BackgroundImageFix"/>
<feGaussianBlur in="BackgroundImageFix" stdDeviation="27"/>
<feComposite in2="SourceAlpha" operator="in" result="effect1_backgroundBlur_5033_11189"/>
<feBlend mode="normal" in="SourceGraphic" in2="effect1_backgroundBlur_5033_11189" result="shape"/>
</filter>
<filter id="filter8_f_5033_11189" x="835.863" y="293.932" width="247.891" height="254.662" filterUnits="userSpaceOnUse" color-interpolation-filters="sRGB">
<feFlood flood-opacity="0" result="BackgroundImageFix"/>
<feBlend mode="normal" in="SourceGraphic" in2="BackgroundImageFix" result="shape"/>
<feGaussianBlur stdDeviation="22" result="effect1_foregroundBlur_5033_11189"/>
</filter>
<filter id="filter9_f_5033_11189" x="1057.96" y="14.2915" width="200.457" height="237.008" filterUnits="userSpaceOnUse" color-interpolation-filters="sRGB">
<feFlood flood-opacity="0" result="BackgroundImageFix"/>
<feBlend mode="normal" in="SourceGraphic" in2="BackgroundImageFix" result="shape"/>
<feGaussianBlur stdDeviation="22" result="effect1_foregroundBlur_5033_11189"/>
</filter>
<filter id="filter10_bd_5033_11189" x="327.141" y="114.594" width="699.84" height="620.843" filterUnits="userSpaceOnUse" color-interpolation-filters="sRGB">
<feFlood flood-opacity="0" result="BackgroundImageFix"/>
<feGaussianBlur in="BackgroundImageFix" stdDeviation="30"/>
<feComposite in2="SourceAlpha" operator="in" result="effect1_backgroundBlur_5033_11189"/>
<feColorMatrix in="SourceAlpha" type="matrix" values="0 0 0 0 0 0 0 0 0 0 0 0 0 0 0 0 0 0 127 0" result="hardAlpha"/>
<feOffset dy="10"/>
<feGaussianBlur stdDeviation="54"/>
<feComposite in2="hardAlpha" operator="out"/>
<feColorMatrix type="matrix" values="0 0 0 0 0 0 0 0 0 0 0 0 0 0 0 0 0 0 0.25 0"/>
<feBlend mode="normal" in2="effect1_backgroundBlur_5033_11189" result="effect2_dropShadow_5033_11189"/>
<feBlend mode="normal" in="SourceGraphic" in2="effect2_dropShadow_5033_11189" result="shape"/>
</filter>
<filter id="filter11_d_5033_11189" x="449.34" y="423.072" width="122.199" height="138.048" filterUnits="userSpaceOnUse" color-interpolation-filters="sRGB">
<feFlood flood-opacity="0" result="BackgroundImageFix"/>
<feColorMatrix in="SourceAlpha" type="matrix" values="0 0 0 0 0 0 0 0 0 0 0 0 0 0 0 0 0 0 127 0" result="hardAlpha"/>
<feOffset dy="4"/>
<feGaussianBlur stdDeviation="17"/>
<feComposite in2="hardAlpha" operator="out"/>
<feColorMatrix type="matrix" values="0 0 0 0 0 0 0 0 0 0 0 0 0 0 0 0 0 0 0.18 0"/>
<feBlend mode="normal" in2="BackgroundImageFix" result="effect1_dropShadow_5033_11189"/>
<feBlend mode="normal" in="SourceGraphic" in2="effect1_dropShadow_5033_11189" result="shape"/>
</filter>
<filter id="filter12_d_5033_11189" x="382.742" y="162.99" width="590.227" height="513.246" filterUnits="userSpaceOnUse" color-interpolation-filters="sRGB">
<feFlood flood-opacity="0" result="BackgroundImageFix"/>
<feColorMatrix in="SourceAlpha" type="matrix" values="0 0 0 0 0 0 0 0 0 0 0 0 0 0 0 0 0 0 127 0" result="hardAlpha"/>
<feOffset dy="4"/>
<feGaussianBlur stdDeviation="32"/>
<feComposite in2="hardAlpha" operator="out"/>
<feColorMatrix type="matrix" values="0 0 0 0 0 0 0 0 0 0 0 0 0 0 0 0 0 0 0.15 0"/>
<feBlend mode="normal" in2="BackgroundImageFix" result="effect1_dropShadow_5033_11189"/>
<feBlend mode="normal" in="SourceGraphic" in2="effect1_dropShadow_5033_11189" result="shape"/>
</filter>
<filter id="filter13_i_5033_11189" x="518.055" y="243.2" width="356.273" height="116.425" filterUnits="userSpaceOnUse" color-interpolation-filters="sRGB">
<feFlood flood-opacity="0" result="BackgroundImageFix"/>
<feBlend mode="normal" in="SourceGraphic" in2="BackgroundImageFix" result="shape"/>
<feColorMatrix in="SourceAlpha" type="matrix" values="0 0 0 0 0 0 0 0 0 0 0 0 0 0 0 0 0 0 127 0" result="hardAlpha"/>
<feOffset dy="-5"/>
<feGaussianBlur stdDeviation="3.5"/>
<feComposite in2="hardAlpha" operator="arithmetic" k2="-1" k3="1"/>
<feColorMatrix type="matrix" values="0 0 0 0 0 0 0 0 0 0 0 0 0 0 0 0 0 0 0.25 0"/>
<feBlend mode="normal" in2="shape" result="effect1_innerShadow_5033_11189"/>
</filter>
<filter id="filter14_f_5033_11189" x="509.375" y="74.2217" width="336.898" height="329.534" filterUnits="userSpaceOnUse" color-interpolation-filters="sRGB">
<feFlood flood-opacity="0" result="BackgroundImageFix"/>
<feBlend mode="normal" in="SourceGraphic" in2="BackgroundImageFix" result="shape"/>
<feGaussianBlur stdDeviation="22" result="effect1_foregroundBlur_5033_11189"/>
</filter>
<filter id="filter15_f_5033_11189" x="506.945" y="261.741" width="375.355" height="130.639" filterUnits="userSpaceOnUse" color-interpolation-filters="sRGB">
<feFlood flood-opacity="0" result="BackgroundImageFix"/>
<feBlend mode="normal" in="SourceGraphic" in2="BackgroundImageFix" result="shape"/>
<feGaussianBlur stdDeviation="12" result="effect1_foregroundBlur_5033_11189"/>
</filter>
<linearGradient id="paint0_linear_5033_11189" x1="665" y1="0.00195678" x2="620.5" y2="639.002" gradientUnits="userSpaceOnUse">
<stop stop-color="#2B2641"/>
<stop offset="1" stop-color="#2B2641" stop-opacity="0"/>
</linearGradient>
<radialGradient id="paint1_radial_5033_11189" cx="0" cy="0" r="1" gradientUnits="userSpaceOnUse" gradientTransform="translate(791.469 211.122) rotate(179.566) scale(34.0686 13752.8)">
<stop stop-color="white"/>
<stop offset="1" stop-color="white" stop-opacity="0"/>
</radialGradient>
<radialGradient id="paint2_radial_5033_11189" cx="0" cy="0" r="1" gradientUnits="userSpaceOnUse" gradientTransform="translate(890.512 126.036) rotate(179.68) scale(46.2353 13753)">
<stop stop-color="white"/>
<stop offset="1" stop-color="white" stop-opacity="0"/>
</radialGradient>
<radialGradient id="paint3_radial_5033_11189" cx="0" cy="0" r="1" gradientUnits="userSpaceOnUse" gradientTransform="translate(819.63 40.9507) rotate(179.722) scale(53.093 13753)">
<stop stop-color="white"/>
<stop offset="1" stop-color="white" stop-opacity="0"/>
</radialGradient>
<radialGradient id="paint4_radial_5033_11189" cx="0" cy="0" r="1" gradientUnits="userSpaceOnUse" gradientTransform="translate(826.922 -417.911) rotate(179.566) scale(34.0686 13752.8)">
<stop stop-color="white"/>
<stop offset="1" stop-color="white" stop-opacity="0"/>
</radialGradient>
<radialGradient id="paint5_radial_5033_11189" cx="0" cy="0" r="1" gradientUnits="userSpaceOnUse" gradientTransform="translate(1041.43 -448.301) rotate(179.68) scale(46.2353 13753)">
<stop stop-color="white"/>
<stop offset="1" stop-color="white" stop-opacity="0"/>
</radialGradient>
<radialGradient id="paint6_radial_5033_11189" cx="0" cy="0" r="1" gradientUnits="userSpaceOnUse" gradientTransform="translate(1459.07 -628.603) rotate(179.76) scale(61.4992 13753.1)">
<stop stop-color="white"/>
<stop offset="1" stop-color="white" stop-opacity="0"/>
</radialGradient>
<radialGradient id="paint7_radial_5033_11189" cx="0" cy="0" r="1" gradientUnits="userSpaceOnUse" gradientTransform="translate(1473.56 -567.826) rotate(179.731) scale(54.8627 13753)">
<stop stop-color="white"/>
<stop offset="1" stop-color="white" stop-opacity="0"/>
</radialGradient>
<radialGradient id="paint8_radial_5033_11189" cx="0" cy="0" r="1" gradientUnits="userSpaceOnUse" gradientTransform="translate(1199.47 -592.139) rotate(179.722) scale(53.093 13753)">
<stop stop-color="white"/>
<stop offset="1" stop-color="white" stop-opacity="0"/>
</radialGradient>
<radialGradient id="paint9_radial_5033_11189" cx="0" cy="0" r="1" gradientUnits="userSpaceOnUse" gradientTransform="translate(1373.98 -669.122) rotate(179.76) scale(61.4992 13753.1)">
<stop stop-color="white"/>
<stop offset="1" stop-color="white" stop-opacity="0"/>
</radialGradient>
<radialGradient id="paint10_radial_5033_11189" cx="0" cy="0" r="1" gradientUnits="userSpaceOnUse" gradientTransform="translate(1495.11 -452.352) rotate(179.698) scale(48.8899 13753)">
<stop stop-color="white"/>
<stop offset="1" stop-color="white" stop-opacity="0"/>
</radialGradient>
<radialGradient id="paint11_radial_5033_11189" cx="0" cy="0" r="1" gradientUnits="userSpaceOnUse" gradientTransform="translate(1488.42 -474.636) rotate(179.633) scale(40.2625 13752.9)">
<stop stop-color="white"/>
<stop offset="1" stop-color="white" stop-opacity="0"/>
</radialGradient>
<linearGradient id="paint12_linear_5033_11189" x1="150.647" y1="101.723" x2="150.647" y2="221.723" gradientUnits="userSpaceOnUse">
<stop stop-color="#AFD803" stop-opacity="0"/>
<stop offset="1" stop-color="#AFD803"/>
</linearGradient>
<linearGradient id="paint13_linear_5033_11189" x1="1009.61" y1="166.233" x2="1009.61" y2="281.596" gradientUnits="userSpaceOnUse">
<stop stop-color="#E54033" stop-opacity="0"/>
<stop offset="1" stop-color="#E54033"/>
</linearGradient>
<linearGradient id="paint14_linear_5033_11189" x1="930.855" y1="351.307" x2="1041.2" y2="540.471" gradientUnits="userSpaceOnUse">
<stop stop-color="#24DCB3"/>
<stop offset="1" stop-color="#D428FC"/>
</linearGradient>
<linearGradient id="paint15_linear_5033_11189" x1="1031.56" y1="376.827" x2="961.655" y2="510.723" gradientUnits="userSpaceOnUse">
<stop stop-color="#00FFA3"/>
<stop offset="1" stop-color="#DC1FFF"/>
</linearGradient>
<linearGradient id="paint16_linear_5033_11189" x1="1000.99" y1="360.869" x2="931.09" y2="494.764" gradientUnits="userSpaceOnUse">
<stop stop-color="#00FFA3"/>
<stop offset="1" stop-color="#DC1FFF"/>
</linearGradient>
<linearGradient id="paint17_linear_5033_11189" x1="1016.18" y1="368.797" x2="946.275" y2="502.693" gradientUnits="userSpaceOnUse">
<stop stop-color="#00FFA3"/>
<stop offset="1" stop-color="#DC1FFF"/>
</linearGradient>
<linearGradient id="paint18_linear_5033_11189" x1="458.558" y1="229.185" x2="320.801" y2="137.718" gradientUnits="userSpaceOnUse">
<stop stop-color="#8656EF"/>
<stop offset="0.97" stop-color="#1AA3FF"/>
</linearGradient>
<linearGradient id="paint19_linear_5033_11189" x1="906.939" y1="163.299" x2="754.686" y2="785.346" gradientUnits="userSpaceOnUse">
<stop stop-color="#3B3349"/>
<stop offset="1" stop-color="#36333B"/>
</linearGradient>
<linearGradient id="paint20_linear_5033_11189" x1="463.344" y1="151.141" x2="550.189" y2="655.833" gradientUnits="userSpaceOnUse">
<stop stop-color="white" stop-opacity="0.1"/>
<stop offset="1" stop-color="white" stop-opacity="0.08"/>
</linearGradient>
<linearGradient id="paint21_linear_5033_11189" x1="544.347" y1="449.12" x2="482.995" y2="553.222" gradientUnits="userSpaceOnUse">
<stop stop-color="#B6A5FF"/>
<stop offset="1" stop-color="#5B48AD"/>
</linearGradient>
<linearGradient id="paint22_linear_5033_11189" x1="489.242" y1="442.915" x2="499.55" y2="539.278" gradientUnits="userSpaceOnUse">
<stop stop-color="#E0D9FF" stop-opacity="0.98"/>
<stop offset="1" stop-color="#BDAEFF" stop-opacity="0.52"/>
</linearGradient>
<linearGradient id="paint23_linear_5033_11189" x1="485.516" y1="192.461" x2="489.828" y2="669.323" gradientUnits="userSpaceOnUse">
<stop stop-color="#E0D9FF" stop-opacity="0.98"/>
<stop offset="1" stop-color="#BDAEFF" stop-opacity="0.52"/>
</linearGradient>
<linearGradient id="paint24_linear_5033_11189" x1="856.363" y1="293.713" x2="821.589" y2="435.366" gradientUnits="userSpaceOnUse">
<stop stop-color="#342D3F"/>
<stop offset="1" stop-color="#36333B"/>
</linearGradient>
<linearGradient id="paint25_linear_5033_11189" x1="507.836" y1="230.12" x2="493.472" y2="344.313" gradientUnits="userSpaceOnUse">
<stop stop-color="#4C474B"/>
<stop offset="1" stop-color="white" stop-opacity="0.08"/>
</linearGradient>
<linearGradient id="paint26_linear_5033_11189" x1="889.249" y1="104.977" x2="716.78" y2="528.286" gradientUnits="userSpaceOnUse">
<stop stop-color="#342D3F"/>
<stop offset="1" stop-color="#36333B"/>
</linearGradient>
<linearGradient id="paint27_linear_5033_11189" x1="591.084" y1="65.6891" x2="809.004" y2="467.157" gradientUnits="userSpaceOnUse">
<stop stop-color="white"/>
<stop offset="1" stop-color="white" stop-opacity="0.08"/>
</linearGradient>
</defs>
</svg>
