<svg width="1330" height="967" viewBox="0 0 1330 967" fill="none" xmlns="http://www.w3.org/2000/svg">
<mask id="mask0_5108_8015" style="mask-type:alpha" maskUnits="userSpaceOnUse" x="0" y="0" width="1330" height="967">
<rect y="0.00244141" width="1330" height="966" fill="url(#paint0_linear_5108_8015)"/>
</mask>
<g mask="url(#mask0_5108_8015)">
<g opacity="0.15">
<mask id="mask1_5108_8015" style="mask-type:alpha" maskUnits="userSpaceOnUse" x="-69" y="-9" width="1469" height="813">
<rect x="1400" y="803" width="1469" height="812" transform="rotate(180 1400 803)" fill="#C4C4C4"/>
</mask>
<g mask="url(#mask1_5108_8015)">
<g opacity="0.4">
<path d="M516.371 299.496C546.141 -139.183 695.202 -490.675 927.085 -642.656C932.023 -646.17 995.958 -685.255 1032.89 -698.068C687.514 -893.455 342.494 -790.538 342.494 -790.538C268.645 -768.388 185.739 -739.681 104.962 -697.895C98.5376 -565.571 107.873 -421.945 141.398 -269.809C219.265 83.5377 122.781 329.317 -1.33082 490.6C104.733 634.653 199.413 825.06 274.419 1009.73C376.382 910.752 489.465 697.406 516.371 299.496Z" fill="url(#paint1_linear_5108_8015)"/>
<path d="M142.429 -272.101C108.879 -424.225 102.294 -572.659 108.719 -704.984C-99.8334 -597.041 -301.939 -398.034 -290.199 -9.05118C-287.696 73.4688 -273.561 157.776 -240.169 221.113C-207.617 282.817 -160.397 318.823 -116.782 359.913C-75.7687 399.485 -36.889 444.378 -0.541669 494.132C123.44 332.868 220.288 81.207 142.429 -272.101Z" fill="url(#paint2_linear_5108_8015)"/>
<path d="M295.647 1031.86C353.63 1153.8 406.843 1278.17 472.558 1386.19C494.606 1422.7 518.19 1456.79 543.149 1488.23C603.209 1563.35 665.52 1634.7 734.34 1688C827.3 1643.68 929.169 1622.61 1031.57 1653.05C1083.63 1407.97 1122.25 1015.66 954.511 667.788C706.815 154.03 915.134 -375.224 1050.5 -705.919L1039.32 -712.403C1004.55 -700.578 970.53 -683.682 937.71 -661.929C705.859 -509.921 546.528 -146.816 516.75 291.824C489.82 689.745 379.406 888.171 277.597 987.122C283.771 1001.97 289.787 1016.88 295.647 1031.86Z" fill="url(#paint3_linear_5108_8015)"/>
<path d="M954.702 669.934C1122.47 1017.96 1085.73 1406.93 1033.79 1651.92C1102.13 1672.39 1167.29 1713.88 1225.6 1774.04C1296.03 1743.14 1362.6 1693.32 1422.44 1626.75C1517.98 1521.07 1589.18 1381.03 1637.48 1222.74C1484.34 903.035 1254.67 275.079 1454.56 -313.299C1372.36 -437.777 1276.01 -541.033 1173.93 -623.987C1133.68 -656.651 1092.15 -685.221 1049.62 -709.525C914.226 -378.946 707.006 156.176 954.702 669.934Z" fill="url(#paint4_linear_5108_8015)"/>
</g>
</g>
</g>
<g opacity="0.6">
<g opacity="0.3">
<g opacity="0.5" filter="url(#filter0_f_5108_8015)">
<ellipse cx="226.675" cy="232.553" rx="226.675" ry="232.553" transform="matrix(0.789532 0.61371 -0.939631 0.342188 688.66 -411.465)" fill="#AFD803"/>
</g>
<g opacity="0.5" filter="url(#filter1_f_5108_8015)">
<ellipse cx="153.501" cy="157.482" rx="153.501" ry="157.482" transform="matrix(0.789532 0.61371 -0.939631 0.342188 1184.29 -161.893)" fill="#AFD803"/>
</g>
<g opacity="0.5" filter="url(#filter2_f_5108_8015)">
<ellipse cx="274.039" cy="281.511" rx="274.039" ry="281.511" transform="matrix(0.789532 0.61371 -0.939631 0.342188 275.062 -233.426)" fill="#E54033"/>
</g>
<g opacity="0.5" filter="url(#filter3_f_5108_8015)">
<ellipse cx="365.386" cy="375.931" rx="365.386" ry="375.931" transform="matrix(0.789532 0.61371 -0.939631 0.342188 861.742 -129.976)" fill="#FECA1A" fill-opacity="0.8"/>
</g>
</g>
<g filter="url(#filter4_b_5108_8015)">
<ellipse cx="150.647" cy="143.724" rx="42" ry="42" transform="rotate(-116.485 150.647 143.724)" fill="url(#paint5_linear_5108_8015)"/>
</g>
<g opacity="0.7" filter="url(#filter5_b_5108_8015)">
<ellipse cx="369.09" cy="307.092" rx="16.4739" ry="16.4739" transform="rotate(-116.485 369.09 307.092)" fill="#5B48AD"/>
</g>
<g opacity="0.7" filter="url(#filter6_b_5108_8015)">
<ellipse cx="755.864" cy="613.417" rx="114.024" ry="114.024" transform="rotate(78.5154 755.864 613.417)" fill="url(#paint6_linear_5108_8015)"/>
</g>
<g filter="url(#filter7_b_5108_8015)">
<ellipse cx="1001.15" cy="262.153" rx="58.5876" ry="58.5876" transform="rotate(78.5154 1001.15 262.153)" fill="url(#paint7_linear_5108_8015)"/>
</g>
<g filter="url(#filter8_b_5108_8015)">
<ellipse cx="1255.38" cy="287.396" rx="14.5711" ry="14.5711" transform="rotate(78.5154 1255.38 287.396)" fill="#FECA1A"/>
</g>
<g opacity="0.7" filter="url(#filter9_f_5108_8015)">
<circle cx="597.689" cy="624.687" r="205.827" transform="rotate(78.5154 597.689 624.687)" fill="#FECA1A"/>
</g>
</g>
<path fill-rule="evenodd" clip-rule="evenodd" d="M170.366 308.776C161.327 264.017 190.284 220.405 235.043 211.367C279.802 202.328 323.414 231.285 332.453 276.044C341.492 320.802 312.535 364.414 267.776 373.453C223.017 382.492 179.405 353.535 170.366 308.776Z" fill="url(#paint8_linear_5108_8015)"/>
<path d="M223.404 301.935L221.268 306.491C220.851 308.006 222.179 309.429 223.719 309.118L233.329 307.178C238.904 319.126 249.384 325.925 261.072 323.38C269.396 321.7 274.835 316.294 277.36 307.207C277.682 306.051 276.954 304.858 275.782 304.595L270.785 303.473C269.685 303.226 268.581 303.889 268.292 304.978C267.015 309.806 263.985 313.33 259.236 314.289C254.937 315.157 251.062 313.748 247.561 310.027C246.195 308.589 245.002 306.917 243.97 305.03L256.278 302.545C257.057 302.387 257.683 301.804 257.894 301.037L260.03 296.48C260.447 294.964 259.119 293.542 257.578 293.853L240.95 297.211C240.73 296.368 240.525 295.505 240.344 294.608C240.155 293.721 240.005 292.847 239.878 291.98L253.585 289.212C254.365 289.055 254.99 288.471 255.202 287.704L257.338 283.148C257.755 281.633 256.426 280.209 254.886 280.521L239.627 283.602C240.389 275.874 244.086 270.166 250.101 269.05C254.668 268.127 258.72 269.911 261.822 273.549C262.517 274.364 263.736 274.484 264.61 273.866L268.807 270.901C269.81 270.192 270.01 268.764 269.214 267.828C263.411 261.007 256.431 258.401 248.282 260.046C240.847 261.548 235.487 265.707 232.149 272.488C230.203 276.478 229.181 280.905 229.021 285.744L222.329 287.095C221.549 287.253 220.924 287.836 220.713 288.603L218.577 293.16C218.16 294.676 219.488 296.098 221.028 295.787L229.551 294.066C229.684 294.934 229.819 295.805 229.999 296.697C230.166 297.584 230.364 298.451 230.575 299.306L225.023 300.427C224.243 300.585 223.615 301.168 223.404 301.935Z" fill="white"/>
<path d="M197.391 299.766C193.679 272.787 210.783 246.94 237.066 239.814C250.883 236.068 264.743 237.977 276.376 243.993C277.505 244.577 278.89 244.26 279.652 243.243L282.871 238.947C283.825 237.674 283.43 235.837 282.026 235.086C268.401 227.794 252.114 225.276 235.807 229.291C203.466 237.254 182.221 268.853 187.073 301.806C189.172 316.059 195.701 328.46 205.002 337.915C206.115 339.048 207.983 338.906 208.936 337.635L212.151 333.343C212.911 332.329 212.833 330.913 211.957 329.997C204.336 322.026 199.027 311.655 197.391 299.766Z" fill="white"/>
<path d="M297.821 246.904C296.707 245.772 294.84 245.913 293.887 247.184L290.672 251.475C289.912 252.49 289.99 253.906 290.866 254.822C298.486 262.793 303.796 273.164 305.431 285.054C309.141 312.032 292.038 337.878 265.754 345.004C251.937 348.75 238.078 346.841 226.444 340.825C225.315 340.241 223.93 340.558 223.168 341.575L219.951 345.871C218.996 347.144 219.391 348.981 220.795 349.732C234.422 357.025 250.708 359.541 267.016 355.526C299.358 347.562 320.602 315.962 315.748 283.01C313.648 268.758 307.12 256.357 297.821 246.904Z" fill="white"/>
<path fill-rule="evenodd" clip-rule="evenodd" d="M366.775 76.5941C366.347 51.7174 386.167 31.2036 411.043 30.7754C435.92 30.3471 456.434 50.1666 456.862 75.0433C457.29 99.92 437.471 120.434 412.594 120.862C387.717 121.29 367.204 101.471 366.775 76.5941Z" fill="#50AF95"/>
<path fill-rule="evenodd" clip-rule="evenodd" d="M416.32 80.7238C416.027 80.6921 414.516 80.5056 411.182 79.8919C408.531 79.4038 406.663 78.9781 406.008 78.8254C395.843 76.4908 388.521 73.3093 388.912 71.1859C389.303 69.0626 397.278 68.6995 407.609 70.1306L406.333 77.0591C406.994 77.2304 408.892 77.6963 411.544 78.1844C414.726 78.7702 416.344 78.9317 416.635 78.9581L417.91 72.032C428.052 74.3673 435.358 77.5457 434.968 79.6643C434.578 81.7829 426.622 82.1519 416.311 80.7196L416.32 80.7238ZM418.052 71.3172L419.193 65.1172L433.463 67.7442L435.204 58.2897L396.351 51.1373L394.611 60.5918L408.879 63.2184L407.738 69.4159C396.043 67.8107 386.901 68.4891 386.398 71.226C385.894 73.9629 394.195 77.85 405.694 80.5169L402.037 100.385L412.349 102.283L416.008 82.4081C427.676 84.0085 436.802 83.3298 437.306 80.5953C437.809 77.8608 429.53 73.9777 418.05 71.3143L418.052 71.3172Z" fill="white"/>
<path d="M1176.02 53.077C1215.34 42.5405 1255.76 65.878 1266.29 105.194C1276.83 144.517 1253.5 184.928 1214.17 195.464C1174.86 205.999 1134.44 182.667 1123.9 143.347C1113.37 104.031 1136.71 63.6118 1176.02 53.077Z" fill="#F5AC37"/>
<mask id="mask2_5108_8015" style="mask-type:alpha" maskUnits="userSpaceOnUse" x="1121" y="50" width="148" height="148">
<path d="M1176.02 53.077C1215.34 42.5405 1255.76 65.878 1266.29 105.194C1276.83 144.517 1253.5 184.928 1214.17 195.464C1174.86 205.999 1134.44 182.667 1123.9 143.347C1113.37 104.031 1136.71 63.6118 1176.02 53.077Z" fill="#F5AC37"/>
</mask>
<g mask="url(#mask2_5108_8015)">
<g filter="url(#filter10_f_5108_8015)">
<path d="M1220.1 58.7912C1145.22 69.5296 1147.35 142.259 1157.77 177.282C1140.09 162.592 1111.37 123.668 1137.84 85.4947C1164.31 47.3212 1203.71 51.7868 1220.1 58.7912Z" fill="white" fill-opacity="0.4"/>
</g>
</g>
<path d="M1198.7 127.898L1221.65 121.749C1222.14 121.618 1222.37 121.556 1222.23 120.904C1221.79 118.513 1221.16 116.16 1220.35 113.868C1220.23 113.413 1219.95 113.285 1219.46 113.417L1173.79 125.654C1173.22 125.806 1173.12 126.035 1173.26 126.566L1175.07 133.299C1175.3 134.168 1175.3 134.168 1176.2 133.926L1198.7 127.898ZM1215.5 106.042C1215.52 105.853 1215.47 105.665 1215.36 105.514C1214.76 104.78 1214.09 104.103 1213.36 103.496C1212.22 102.428 1210.97 101.499 1209.62 100.725C1208.95 100.219 1208.21 99.8006 1207.43 99.4878C1203.42 97.5765 1199.01 96.6449 1194.57 96.7719C1192.33 96.8623 1190.12 97.213 1187.97 97.8102L1167.7 103.241C1167.13 103.393 1167.12 103.639 1167.25 104.132L1170.85 117.561C1171 118.128 1171.04 118.28 1171.76 118.088L1215.31 106.417C1215.31 106.417 1215.67 106.24 1215.69 105.993L1215.5 106.043L1215.5 106.042ZM1221.95 130.103C1221.29 130.204 1220.64 130.377 1220.02 130.62L1178.16 141.835C1177.6 141.987 1177.41 142.038 1177.61 142.795L1181.13 155.924C1181.29 156.529 1181.33 156.682 1182.09 156.479L1201.41 151.301C1202.36 151.124 1203.26 150.811 1204.12 150.375C1206.87 149.422 1209.46 148.073 1211.82 146.363C1212.69 145.774 1213.5 145.094 1214.23 144.34L1214.5 144.269C1218.39 140.693 1221.08 135.997 1222.18 130.821C1222.18 130.821 1222.29 130.178 1221.95 130.108L1221.95 130.103ZM1175.57 165.521L1175.51 165.295L1173.15 156.48L1172.35 153.492L1169.97 144.601C1169.83 144.108 1169.81 144.035 1169.21 144.196L1161.02 146.391C1160.57 146.513 1160.38 146.563 1160.22 145.958L1158.29 138.77L1167.05 136.424C1167.54 136.293 1167.73 136.242 1167.55 135.599L1165.65 128.487C1165.53 128.032 1165.5 127.92 1164.89 128.082L1156.7 130.276C1156.25 130.398 1156.06 130.448 1155.9 129.844L1154.11 123.186C1154 122.77 1153.97 122.658 1154.58 122.496L1162.69 120.322C1163.26 120.17 1163.41 120.13 1163.22 119.41L1157.75 99.019C1157.59 98.4143 1157.55 98.2617 1158.3 98.0593L1186.61 90.4743C1188.69 90.0055 1190.79 89.6847 1192.91 89.5168C1197.28 89.1728 1201.67 89.5916 1205.9 90.7396C1208.71 91.5201 1211.4 92.6492 1213.92 94.1054C1215.83 95.2602 1217.63 96.5824 1219.31 98.0544C1220.98 99.553 1222.49 101.231 1223.81 103.053C1224.04 103.556 1224.64 103.777 1225.15 103.546L1231.9 101.736C1232.77 101.503 1232.77 101.503 1233.03 102.327L1234.69 108.532C1234.86 109.136 1234.67 109.349 1234.07 109.512L1228.86 110.908C1228.33 111.049 1228.18 111.09 1228.4 111.761C1229.22 114.01 1229.84 116.322 1230.25 118.682C1230.42 119.325 1230.44 119.401 1231.16 119.208L1237.12 117.611C1237.48 117.881 1237.31 118.292 1237.4 118.636C1237.55 119.064 1237.67 119.508 1237.75 119.957L1238.98 124.536C1239.15 125.178 1239.02 125.419 1238.45 125.572L1231.31 127.483C1230.79 127.521 1230.39 127.969 1230.41 128.496C1229.9 133.377 1228.24 138.074 1225.59 142.197C1224.61 143.698 1223.56 145.149 1222.42 146.531C1221.14 147.808 1219.91 149.109 1218.56 150.243C1216.05 152.292 1213.32 154.041 1210.41 155.465C1207.64 156.769 1204.74 157.798 1201.77 158.551L1175.57 165.57L1175.56 165.532L1175.57 165.521Z" fill="#FEFEFD"/>
</g>
<g filter="url(#filter11_bd_5108_8015)">
<rect x="461.008" y="201.452" width="451.848" height="354.693" rx="71" transform="rotate(9.90457 461.008 201.452)" fill="url(#paint9_linear_5108_8015)" fill-opacity="0.01" shape-rendering="crispEdges"/>
<rect x="461.821" y="202.609" width="449.848" height="352.693" rx="70" transform="rotate(9.90457 461.821 202.609)" stroke="url(#paint10_linear_5108_8015)" stroke-width="2" shape-rendering="crispEdges"/>
</g>
<g filter="url(#filter12_d_5108_8015)">
<mask id="path-29-inside-1_5108_8015" fill="white">
<path fill-rule="evenodd" clip-rule="evenodd" d="M486.438 457.083C486.438 457.082 486.437 457.082 486.436 457.082V457.082C486.435 457.082 486.434 457.081 486.434 457.08L486.426 457.06C486.421 457.047 486.414 457.04 486.426 457.032C486.848 456.73 505.145 443.834 513.539 466.271C513.543 466.283 513.538 466.298 513.526 466.303L513.446 466.337C513.446 466.337 513.446 466.337 513.446 466.337V466.337C513.446 466.337 513.446 466.337 513.446 466.337C511.873 466.998 492.746 474.603 486.438 457.083ZM490.047 467.807C490.047 467.807 490.047 467.807 490.047 467.807V467.807C490.047 467.807 490.047 467.807 490.048 467.807C491.836 469.158 493.831 470.079 495.876 470.692C497.691 471.236 499.419 472.174 500.388 473.802C501.117 475.028 501.761 476.306 502.372 477.596C502.798 478.505 503.162 479.443 503.461 480.401C504.155 482.6 504.553 484.867 504.955 487.161L504.955 487.161L504.955 487.161L504.955 487.161L504.955 487.161C505.073 487.834 505.191 488.509 505.318 489.185C505.344 489.468 505.374 489.752 505.408 490.036C505.408 490.04 505.412 490.043 505.416 490.043V490.043C505.42 490.042 505.423 490.045 505.423 490.049C505.906 494.383 506.893 499.093 508.61 503.141C508.61 503.143 508.609 503.144 508.608 503.145V503.145C508.606 503.145 508.605 503.147 508.606 503.148C509.176 504.478 509.85 505.761 510.622 506.985C510.775 507.222 510.932 507.458 511.09 507.694L511.09 507.694L511.09 507.694L511.09 507.694L511.09 507.694C511.827 508.796 512.569 509.906 512.875 511.186C513.257 512.781 512.91 514.478 512.251 515.981C509.141 523.059 501.68 523.761 494.841 522.752C494.839 522.752 494.838 522.749 494.839 522.747V522.747C494.84 522.745 494.839 522.742 494.837 522.742C492.279 522.347 489.781 521.715 487.576 521.093C487.574 521.093 487.575 521.093 487.573 521.093C487.521 521.078 476.913 518.058 468.916 509.76C468.913 509.757 468.91 509.755 468.906 509.754V509.754C468.902 509.753 468.898 509.751 468.895 509.748L468.642 509.481C468.642 509.48 468.642 509.48 468.642 509.48V509.48C468.643 509.479 468.643 509.479 468.643 509.478C467.71 508.493 466.839 507.451 466.032 506.36C463.89 503.458 462.089 500.277 460.87 496.918C460.866 496.904 460.87 496.89 460.882 496.882V496.882C460.893 496.874 460.898 496.859 460.893 496.846C460.754 496.443 460.623 496.038 460.501 495.631C459.398 491.941 459.01 488.066 459.649 484.131C460.719 477.529 464.151 471.176 469.289 467.032C469.292 467.03 469.293 467.026 469.292 467.023V467.023C469.292 467.02 469.293 467.017 469.295 467.015C469.416 466.922 469.536 466.83 469.658 466.74L469.667 466.733C469.667 466.733 469.667 466.733 469.667 466.734V466.734C469.667 466.734 469.667 466.734 469.667 466.734C472.348 464.75 475.466 463.368 478.934 462.855C480.486 462.621 482.058 462.569 483.617 462.699C485.009 462.815 486.167 463.714 487.027 464.814C487.901 465.933 488.915 466.939 490.047 467.807Z"/>
</mask>
<path fill-rule="evenodd" clip-rule="evenodd" d="M486.438 457.083C486.438 457.082 486.437 457.082 486.436 457.082V457.082C486.435 457.082 486.434 457.081 486.434 457.08L486.426 457.06C486.421 457.047 486.414 457.04 486.426 457.032C486.848 456.73 505.145 443.834 513.539 466.271C513.543 466.283 513.538 466.298 513.526 466.303L513.446 466.337C513.446 466.337 513.446 466.337 513.446 466.337V466.337C513.446 466.337 513.446 466.337 513.446 466.337C511.873 466.998 492.746 474.603 486.438 457.083ZM490.047 467.807C490.047 467.807 490.047 467.807 490.047 467.807V467.807C490.047 467.807 490.047 467.807 490.048 467.807C491.836 469.158 493.831 470.079 495.876 470.692C497.691 471.236 499.419 472.174 500.388 473.802C501.117 475.028 501.761 476.306 502.372 477.596C502.798 478.505 503.162 479.443 503.461 480.401C504.155 482.6 504.553 484.867 504.955 487.161L504.955 487.161L504.955 487.161L504.955 487.161L504.955 487.161C505.073 487.834 505.191 488.509 505.318 489.185C505.344 489.468 505.374 489.752 505.408 490.036C505.408 490.04 505.412 490.043 505.416 490.043V490.043C505.42 490.042 505.423 490.045 505.423 490.049C505.906 494.383 506.893 499.093 508.61 503.141C508.61 503.143 508.609 503.144 508.608 503.145V503.145C508.606 503.145 508.605 503.147 508.606 503.148C509.176 504.478 509.85 505.761 510.622 506.985C510.775 507.222 510.932 507.458 511.09 507.694L511.09 507.694L511.09 507.694L511.09 507.694L511.09 507.694C511.827 508.796 512.569 509.906 512.875 511.186C513.257 512.781 512.91 514.478 512.251 515.981C509.141 523.059 501.68 523.761 494.841 522.752C494.839 522.752 494.838 522.749 494.839 522.747V522.747C494.84 522.745 494.839 522.742 494.837 522.742C492.279 522.347 489.781 521.715 487.576 521.093C487.574 521.093 487.575 521.093 487.573 521.093C487.521 521.078 476.913 518.058 468.916 509.76C468.913 509.757 468.91 509.755 468.906 509.754V509.754C468.902 509.753 468.898 509.751 468.895 509.748L468.642 509.481C468.642 509.48 468.642 509.48 468.642 509.48V509.48C468.643 509.479 468.643 509.479 468.643 509.478C467.71 508.493 466.839 507.451 466.032 506.36C463.89 503.458 462.089 500.277 460.87 496.918C460.866 496.904 460.87 496.89 460.882 496.882V496.882C460.893 496.874 460.898 496.859 460.893 496.846C460.754 496.443 460.623 496.038 460.501 495.631C459.398 491.941 459.01 488.066 459.649 484.131C460.719 477.529 464.151 471.176 469.289 467.032C469.292 467.03 469.293 467.026 469.292 467.023V467.023C469.292 467.02 469.293 467.017 469.295 467.015C469.416 466.922 469.536 466.83 469.658 466.74L469.667 466.733C469.667 466.733 469.667 466.733 469.667 466.734V466.734C469.667 466.734 469.667 466.734 469.667 466.734C472.348 464.75 475.466 463.368 478.934 462.855C480.486 462.621 482.058 462.569 483.617 462.699C485.009 462.815 486.167 463.714 487.027 464.814C487.901 465.933 488.915 466.939 490.047 467.807Z" fill="url(#paint11_linear_5108_8015)" fill-opacity="0.1" shape-rendering="crispEdges"/>
<path d="M502.372 477.596L503.277 477.172L503.276 477.168L502.372 477.596ZM503.461 480.401L502.506 480.699L502.507 480.703L503.461 480.401ZM504.955 487.161L505.944 487.012L505.942 487L505.94 486.988L504.955 487.161ZM504.955 487.161L505.944 487.013L505.944 487.013L504.955 487.161ZM504.955 487.161L503.966 487.309L503.966 487.309L504.955 487.161ZM504.955 487.161L505.944 487.013L504.955 487.161ZM504.955 487.161L503.966 487.309L503.968 487.322L503.97 487.334L504.955 487.161ZM505.318 489.185L506.313 489.091L506.309 489.046L506.301 489.002L505.318 489.185ZM510.622 506.985L509.776 507.519L509.782 507.528L510.622 506.985ZM511.09 507.694L510.258 508.249L510.265 508.259L510.272 508.269L511.09 507.694ZM511.09 507.694L511.94 507.168L511.925 507.143L511.908 507.119L511.09 507.694ZM511.09 507.694L510.239 508.22L510.239 508.22L511.09 507.694ZM511.09 507.694L511.941 507.168L511.941 507.168L511.09 507.694ZM511.09 507.694L510.24 508.22L510.249 508.235L510.259 508.25L511.09 507.694ZM512.875 511.186L513.848 510.953L513.848 510.953L512.875 511.186ZM512.251 515.981L513.166 516.383L513.166 516.382L512.251 515.981ZM466.032 506.36L465.228 506.954L465.228 506.954L466.032 506.36ZM460.501 495.631L461.459 495.344L461.459 495.344L460.501 495.631ZM459.649 484.131L460.636 484.292L460.636 484.291L459.649 484.131ZM469.658 466.74L470.254 467.543L470.262 467.537L470.27 467.531L469.658 466.74ZM478.934 462.855L479.08 463.844L479.083 463.844L478.934 462.855ZM469.667 466.734L470.262 467.537L469.667 466.734ZM469.667 466.733L470.279 467.525L469.667 466.733ZM469.295 467.015L469.907 467.806L469.295 467.015ZM460.893 496.846L459.948 497.173L460.893 496.846ZM460.87 496.918L461.811 496.577L460.87 496.918ZM468.643 509.478L467.916 510.165L468.643 509.478ZM468.642 509.481L467.917 510.169L468.642 509.481ZM468.895 509.748L468.17 510.436L468.895 509.748ZM468.916 509.76L468.196 510.454L468.916 509.76ZM508.606 503.148L509.525 502.755L508.606 503.148ZM508.61 503.141L509.53 502.751L508.61 503.141ZM487.576 521.093L487.847 520.131L487.576 521.093ZM487.573 521.093L487.846 520.131L487.573 521.093ZM495.876 470.692L495.589 471.65L495.876 470.692ZM500.388 473.802L499.529 474.314L500.388 473.802ZM469.289 467.032L468.661 466.253L469.289 467.032ZM505.423 490.049L506.417 489.938L505.423 490.049ZM494.837 522.742L494.684 523.73L494.837 522.742ZM490.047 467.807L489.438 468.6L490.047 467.807ZM505.408 490.036L504.414 490.152L505.408 490.036ZM494.841 522.752L494.695 523.741L494.841 522.752ZM490.047 467.807L490.752 468.516L490.047 467.807ZM490.048 467.807L489.445 468.605L490.048 467.807ZM513.446 466.337L513.058 465.415L513.446 466.337ZM513.446 466.337L513.057 465.415L513.446 466.337ZM513.539 466.271L512.602 466.621L513.539 466.271ZM513.526 466.303L513.915 467.224L513.526 466.303ZM486.426 457.06L487.368 456.723L486.426 457.06ZM486.426 457.032L485.845 456.218L486.426 457.032ZM486.434 457.08L487.375 456.743L486.434 457.08ZM487.027 464.814L486.239 465.43L487.027 464.814ZM486.436 457.082L486.438 458.082L486.436 457.082ZM486.438 457.083L487.379 456.744L486.438 457.083ZM487.375 456.743L487.368 456.723L485.485 457.398L485.492 457.418L487.375 456.743ZM487.007 457.846C487.19 457.715 491.682 454.555 497.073 454.121C499.736 453.907 502.587 454.36 505.265 456.151C507.948 457.946 510.556 461.151 512.602 466.621L514.475 465.921C512.325 460.172 509.498 456.576 506.377 454.488C503.25 452.396 499.926 451.885 496.913 452.128C490.951 452.608 486.083 456.047 485.845 456.218L487.007 457.846ZM513.137 465.381L513.057 465.415L513.835 467.258L513.915 467.224L513.137 465.381ZM485.497 457.422C487.141 461.987 489.648 464.983 492.557 466.854C495.453 468.718 498.673 469.42 501.682 469.527C507.67 469.741 513.008 467.606 513.834 467.258L513.058 465.415C512.311 465.729 507.299 467.727 501.753 467.529C498.995 467.43 496.153 466.79 493.639 465.172C491.138 463.563 488.889 460.94 487.379 456.744L485.497 457.422ZM496.163 469.734C494.21 469.148 492.328 468.276 490.65 467.009L489.445 468.605C491.345 470.04 493.452 471.009 495.589 471.65L496.163 469.734ZM503.276 477.168C502.659 475.865 502 474.555 501.248 473.291L499.529 474.314C500.235 475.5 500.864 476.746 501.467 478.023L503.276 477.168ZM504.415 480.104C504.103 479.102 503.722 478.122 503.277 477.172L501.466 478.02C501.873 478.889 502.22 479.784 502.506 480.699L504.415 480.104ZM505.94 486.988C505.54 484.705 505.132 482.372 504.414 480.1L502.507 480.703C503.179 482.827 503.566 485.028 503.97 487.334L505.94 486.988ZM505.944 487.013L505.944 487.012L503.966 487.309L503.966 487.309L505.944 487.013ZM505.944 487.013L505.944 487.013L503.966 487.309L503.966 487.309L505.944 487.013ZM505.944 487.013L505.944 487.013L503.966 487.309L503.966 487.309L505.944 487.013ZM505.944 487.013L505.944 487.013L503.966 487.309L503.966 487.309L505.944 487.013ZM506.301 489.002C506.176 488.332 506.058 487.662 505.94 486.988L503.97 487.334C504.088 488.006 504.207 488.686 504.335 489.369L506.301 489.002ZM506.401 489.92C506.369 489.643 506.339 489.367 506.313 489.091L504.322 489.279C504.35 489.57 504.38 489.861 504.414 490.152L506.401 489.92ZM509.53 502.751C507.864 498.821 506.894 494.213 506.417 489.938L504.43 490.16C504.919 494.552 505.922 499.366 507.689 503.532L509.53 502.751ZM511.467 506.452C510.723 505.273 510.074 504.036 509.525 502.755L507.687 503.542C508.277 504.92 508.976 506.25 509.776 507.519L511.467 506.452ZM511.921 507.138C511.763 506.901 511.61 506.672 511.462 506.443L509.782 507.528C509.94 507.773 510.101 508.015 510.258 508.249L511.921 507.138ZM511.908 507.119L511.908 507.119L510.272 508.269L510.272 508.269L511.908 507.119ZM511.94 507.168L511.94 507.168L510.239 508.22L510.239 508.22L511.94 507.168ZM511.941 507.168L511.94 507.168L510.239 508.22L510.239 508.22L511.941 507.168ZM511.941 507.168L511.941 507.168L510.239 508.22L510.24 508.22L511.941 507.168ZM513.848 510.953C513.492 509.469 512.639 508.212 511.921 507.138L510.259 508.25C511.014 509.38 511.645 510.343 511.903 511.419L513.848 510.953ZM513.166 516.382C513.877 514.763 514.298 512.834 513.848 510.953L511.903 511.419C512.216 512.728 511.943 514.193 511.335 515.579L513.166 516.382ZM494.695 523.741C498.181 524.255 501.922 524.351 505.232 523.357C508.585 522.349 511.479 520.223 513.166 516.383L511.335 515.578C509.913 518.816 507.522 520.581 504.657 521.441C501.749 522.315 498.341 522.257 494.987 521.763L494.695 523.741ZM487.304 522.056C489.526 522.682 492.068 523.327 494.684 523.73L494.989 521.754C492.489 521.368 490.036 520.748 487.847 520.131L487.304 522.056ZM468.196 510.454C476.384 518.95 487.207 522.028 487.3 522.055L487.846 520.131C487.859 520.134 485.254 519.395 481.664 517.635C478.071 515.873 473.528 513.105 469.636 509.066L468.196 510.454ZM467.917 510.169L468.17 510.436L469.621 509.06L469.368 508.793L467.917 510.169ZM465.228 506.954C466.059 508.078 466.956 509.15 467.916 510.165L469.369 508.791C468.465 507.835 467.619 506.824 466.837 505.766L465.228 506.954ZM459.93 497.259C461.187 500.723 463.039 503.988 465.228 506.954L466.837 505.766C464.742 502.928 462.99 499.831 461.811 496.577L459.93 497.259ZM459.543 495.917C459.669 496.338 459.804 496.757 459.948 497.173L461.838 496.518C461.703 496.129 461.577 495.738 461.459 495.344L459.543 495.917ZM458.662 483.971C457.995 488.076 458.403 492.104 459.543 495.917L461.459 495.344C460.393 491.778 460.024 488.057 460.636 484.292L458.662 483.971ZM468.661 466.253C463.312 470.568 459.767 477.152 458.661 483.971L460.636 484.291C461.671 477.907 464.99 471.784 469.917 467.81L468.661 466.253ZM469.063 465.936C468.936 466.031 468.809 466.126 468.684 466.223L469.907 467.806C470.022 467.717 470.137 467.63 470.254 467.543L469.063 465.936ZM469.055 465.942L469.047 465.949L470.27 467.531L470.279 467.525L469.055 465.942ZM478.787 461.866C475.144 462.404 471.874 463.856 469.072 465.93L470.262 467.537C472.821 465.643 475.788 464.331 479.08 463.844L478.787 461.866ZM483.701 461.703C482.064 461.566 480.414 461.62 478.785 461.866L479.083 463.844C480.558 463.621 482.052 463.572 483.534 463.696L483.701 461.703ZM490.655 467.013C489.591 466.197 488.637 465.251 487.815 464.198L486.239 465.43C487.165 466.615 488.239 467.681 489.438 468.6L490.655 467.013ZM468.684 466.92C468.822 467.644 469.669 467.976 470.262 467.537L469.072 465.93C469.665 465.491 470.512 465.823 470.649 466.547L468.684 466.92ZM470.279 467.525C469.688 467.981 468.824 467.653 468.684 466.92L470.649 466.547C470.51 465.814 469.645 465.486 469.055 465.942L470.279 467.525ZM470.274 466.836C470.344 467.203 470.202 467.578 469.907 467.806L468.684 466.223C468.383 466.456 468.239 466.837 468.31 467.21L470.274 466.836ZM461.459 497.698C461.834 497.433 461.988 496.952 461.838 496.518L459.948 497.173C459.807 496.766 459.952 496.314 460.304 496.065L461.459 497.698ZM461.811 496.577C461.959 496.988 461.815 497.446 461.459 497.698L460.304 496.065C459.926 496.333 459.772 496.821 459.93 497.259L461.811 496.577ZM469.151 510.341C469.704 510.014 469.81 509.258 469.369 508.791L467.916 510.165C467.476 509.7 467.581 508.945 468.134 508.619L469.151 510.341ZM469.368 508.793C469.81 509.259 469.704 510.014 469.151 510.341L468.134 508.619C467.58 508.945 467.474 509.702 467.917 510.169L469.368 508.793ZM469.155 508.786C469.333 508.831 469.495 508.926 469.621 509.06L468.17 510.436C468.302 510.575 468.471 510.675 468.657 510.722L469.155 508.786ZM469.636 509.066C469.506 508.931 469.34 508.833 469.155 508.786L468.657 510.722C468.48 510.677 468.321 510.583 468.196 510.454L469.636 509.066ZM508.385 502.17C507.775 502.309 507.44 502.967 507.687 503.542L509.525 502.755C509.77 503.327 509.437 503.981 508.831 504.12L508.385 502.17ZM507.689 503.532C507.445 502.957 507.783 502.307 508.385 502.17L508.831 504.12C509.435 503.981 509.775 503.329 509.53 502.751L507.689 503.532ZM487.847 520.131C487.846 520.13 487.845 520.13 487.845 520.13C487.846 520.131 487.847 520.131 487.846 520.131L487.3 522.055C487.301 522.055 487.302 522.055 487.304 522.056C487.305 522.056 487.304 522.056 487.304 522.056L487.847 520.131ZM495.589 471.65C497.296 472.161 498.745 472.996 499.529 474.314L501.248 473.291C500.094 471.353 498.085 470.31 496.163 469.734L495.589 471.65ZM469.917 467.81C470.207 467.576 470.344 467.202 470.274 466.836L468.31 467.21C468.241 466.851 468.376 466.483 468.661 466.253L469.917 467.81ZM505.503 491.039C504.97 491.086 504.49 490.7 504.43 490.16L506.417 489.938C506.356 489.391 505.869 488.999 505.328 489.047L505.503 491.039ZM495.698 523.26C496.063 522.648 495.692 521.862 494.989 521.754L494.684 523.73C493.986 523.623 493.618 522.842 493.98 522.234L495.698 523.26ZM489.342 467.098C489.697 466.745 490.258 466.709 490.655 467.013L489.438 468.6C489.836 468.905 490.397 468.869 490.752 468.516L489.342 467.098ZM504.414 490.152C504.478 490.694 504.96 491.087 505.503 491.039L505.328 489.047C505.863 489 506.339 489.387 506.401 489.92L504.414 490.152ZM494.987 521.763C495.693 521.867 496.06 522.653 495.698 523.26L493.98 522.234C493.616 522.845 493.985 523.636 494.695 523.741L494.987 521.763ZM490.752 468.516C490.399 468.867 489.841 468.904 489.445 468.605L490.65 467.009C490.254 466.709 489.696 466.746 489.342 467.098L490.752 468.516ZM513.306 467.327C513.069 467.293 512.831 467.172 512.661 466.957C512.58 466.853 512.398 466.578 512.457 466.188C512.526 465.729 512.859 465.499 513.058 465.415L513.834 467.258C514.033 467.175 514.366 466.944 514.435 466.486C514.493 466.096 514.312 465.82 514.23 465.717C514.06 465.501 513.823 465.38 513.586 465.346L513.306 467.327ZM513.057 465.415C512.126 465.808 512.297 467.184 513.306 467.327L513.586 465.346C514.594 465.489 514.766 466.865 513.835 467.258L513.057 465.415ZM512.602 466.621C512.435 466.176 512.613 465.603 513.137 465.381L513.915 467.224C514.463 466.993 514.651 466.391 514.475 465.921L512.602 466.621ZM487.368 456.723C487.349 456.669 487.327 456.624 487.33 456.631C487.33 456.631 487.332 456.636 487.335 456.641C487.337 456.647 487.342 456.658 487.347 456.671C487.357 456.695 487.376 456.743 487.391 456.807C487.426 456.95 487.447 457.182 487.338 457.435C487.239 457.663 487.083 457.791 487.007 457.846L485.845 456.218C485.762 456.277 485.603 456.408 485.502 456.641C485.391 456.898 485.412 457.134 485.448 457.281C485.464 457.347 485.484 457.398 485.494 457.424C485.505 457.45 485.515 457.471 485.515 457.471C485.521 457.484 485.502 457.444 485.485 457.398L487.368 456.723ZM486.433 456.082C486.855 456.081 487.232 456.345 487.375 456.743L485.492 457.418C485.635 457.817 486.014 458.083 486.438 458.082L486.433 456.082ZM483.534 463.696C484.534 463.779 485.464 464.438 486.239 465.43L487.815 464.198C486.87 462.989 485.484 461.851 483.701 461.703L483.534 463.696ZM486.438 458.082C485.991 458.083 485.631 457.794 485.497 457.422L487.379 456.744C487.244 456.371 486.883 456.08 486.433 456.082L486.438 458.082Z" fill="url(#paint12_linear_5108_8015)" fill-opacity="0.5" mask="url(#path-29-inside-1_5108_8015)"/>
</g>
<g filter="url(#filter13_d_5108_8015)">
<path d="M458.717 279.367C464.818 243.291 499.102 219.063 535.145 225.356L828.956 276.658C864.728 282.905 888.735 316.875 882.68 352.68L848.995 551.859C842.894 587.935 808.609 612.164 772.566 605.87L478.756 554.568C442.983 548.322 418.977 514.351 425.032 478.546L458.717 279.367Z" stroke="url(#paint13_linear_5108_8015)" stroke-opacity="0.3" stroke-width="3" stroke-linecap="round" stroke-dasharray="11 11" shape-rendering="crispEdges"/>
</g>
<g opacity="0.4">
<mask id="path-32-inside-2_5108_8015" fill="white">
<path fill-rule="evenodd" clip-rule="evenodd" d="M524.787 248.595C510.523 246.104 496.942 255.648 494.452 269.911C491.961 284.174 501.505 297.756 515.768 300.246L574.324 310.471C590.646 313.321 601.235 332.437 614.909 341.792C617.907 343.843 621.382 345.301 625.193 345.966L701.151 359.229C704.963 359.895 708.726 359.701 712.241 358.787C728.277 354.62 744.718 340.223 761.039 343.073L819.599 353.298C833.863 355.789 847.444 346.245 849.935 331.982C852.425 317.719 842.881 304.137 828.618 301.647L524.787 248.595Z"/>
</mask>
<g filter="url(#filter14_i_5108_8015)">
<path fill-rule="evenodd" clip-rule="evenodd" d="M524.787 248.595C510.523 246.104 496.942 255.648 494.452 269.911C491.961 284.174 501.505 297.756 515.768 300.246L574.324 310.471C590.646 313.321 601.235 332.437 614.909 341.792C617.907 343.843 621.382 345.301 625.193 345.966L701.151 359.229C704.963 359.895 708.726 359.701 712.241 358.787C728.277 354.62 744.718 340.223 761.039 343.073L819.599 353.298C833.863 355.789 847.444 346.245 849.935 331.982C852.425 317.719 842.881 304.137 828.618 301.647L524.787 248.595Z" fill="url(#paint14_linear_5108_8015)"/>
</g>
<path d="M524.787 248.595L525.131 246.625L524.787 248.595ZM515.768 300.246L516.112 298.276L516.112 298.276L515.768 300.246ZM625.193 345.966L624.849 347.936L625.193 345.966ZM701.151 359.229L701.495 357.259L701.151 359.229ZM819.599 353.298L819.944 351.328L819.944 351.328L819.599 353.298ZM828.618 301.647L828.274 303.617L828.618 301.647ZM712.241 358.787L711.738 356.852L712.241 358.787ZM614.909 341.792L613.78 343.443L614.909 341.792ZM496.422 270.255C498.722 257.08 511.268 248.265 524.443 250.565L525.131 246.625C509.779 243.944 495.162 254.216 492.481 269.567L496.422 270.255ZM516.112 298.276C502.937 295.976 494.121 283.43 496.422 270.255L492.481 269.567C489.801 284.918 500.073 299.536 515.424 302.216L516.112 298.276ZM574.668 308.501L516.112 298.276L515.424 302.216L573.98 312.441L574.668 308.501ZM625.537 343.996C622.013 343.381 618.805 342.034 616.039 340.141L613.78 343.443C617.009 345.652 620.751 347.221 624.849 347.936L625.537 343.996ZM701.495 357.259L625.537 343.996L624.849 347.936L700.807 361.199L701.495 357.259ZM711.738 356.852C708.494 357.695 705.02 357.874 701.495 357.259L700.807 361.199C704.906 361.915 708.958 361.707 712.745 360.723L711.738 356.852ZM819.944 351.328L761.383 341.103L760.695 345.043L819.255 355.269L819.944 351.328ZM847.964 331.638C845.664 344.813 833.119 353.629 819.944 351.328L819.255 355.269C834.607 357.949 849.224 347.677 851.905 332.326L847.964 331.638ZM828.274 303.617C841.449 305.918 850.265 318.463 847.964 331.638L851.905 332.326C854.585 316.975 844.314 302.357 828.962 299.677L828.274 303.617ZM524.443 250.565L828.274 303.617L828.962 299.677L525.131 246.625L524.443 250.565ZM712.745 360.723C720.993 358.579 729.454 353.769 737.371 350.115C745.496 346.365 753.19 343.733 760.695 345.043L761.383 341.103C752.567 339.564 743.88 342.705 735.695 346.483C727.303 350.356 719.526 354.828 711.738 356.852L712.745 360.723ZM573.98 312.441C581.486 313.752 587.832 318.835 594.206 325.116C600.416 331.237 606.746 338.631 613.78 343.443L616.039 340.141C609.398 335.598 603.596 328.756 597.013 322.268C590.593 315.94 583.485 310.04 574.668 308.501L573.98 312.441Z" fill="url(#paint15_linear_5108_8015)" mask="url(#path-32-inside-2_5108_8015)"/>
</g>
<mask id="mask3_5108_8015" style="mask-type:alpha" maskUnits="userSpaceOnUse" x="492" y="84" width="382" height="274">
<path fill-rule="evenodd" clip-rule="evenodd" d="M597.612 85.7227C559.555 79.0775 523.309 104.521 516.626 142.571L493.015 277.015C491.39 286.269 497.58 295.086 506.835 296.702L574.952 308.596C591.185 311.43 601.726 330.33 615.294 339.682C618.316 341.765 621.824 343.244 625.675 343.917L701.621 357.178C705.412 357.84 709.154 357.65 712.652 356.747C728.652 352.616 745.051 338.297 761.33 341.139L828.825 352.925C838.067 354.539 846.87 348.36 848.493 339.119L872.086 204.777C878.778 166.674 853.292 130.367 815.181 123.713L597.612 85.7227Z" fill="url(#paint16_linear_5108_8015)"/>
</mask>
<g mask="url(#mask3_5108_8015)">
<path d="M667.105 422.505C751.876 429.177 825.443 366.346 832.115 281.575C838.787 196.804 775.956 123.237 691.185 116.565C606.413 109.893 532.847 172.724 526.175 257.495C519.503 342.266 582.334 415.833 667.105 422.505Z" fill="#2775CA"/>
<path d="M831.616 281.536C824.966 366.032 751.64 428.657 667.144 422.006C582.648 415.356 520.023 342.03 526.673 257.534C533.324 173.038 606.649 110.413 691.145 117.064C775.641 123.714 838.267 197.04 831.616 281.536Z" stroke="url(#paint17_linear_5108_8015)" stroke-opacity="0.3"/>
<mask id="mask4_5108_8015" style="mask-type:alpha" maskUnits="userSpaceOnUse" x="525" y="116" width="308" height="307">
<path d="M667.105 422.504C751.876 429.176 825.443 366.346 832.115 281.574C838.787 196.803 775.956 123.237 691.185 116.565C606.413 109.893 532.847 172.723 526.175 257.495C519.503 342.266 582.334 415.832 667.105 422.504Z" fill="#2775CA"/>
</mask>
<g mask="url(#mask4_5108_8015)">
<g filter="url(#filter15_f_5108_8015)">
<path d="M778.274 155.697C611.879 122.318 561.891 277.828 557.696 359.755C531.325 315.424 499.726 211.524 584.302 150.572C668.878 89.6193 748.857 128.592 778.274 155.697Z" fill="white" fill-opacity="0.4"/>
</g>
</g>
<path d="M719.308 297.064C721.064 274.757 708.281 266.055 681.762 260.761C662.842 256.706 659.419 251.307 660.121 242.383C660.824 233.458 667.649 228.225 680.396 229.228C691.869 230.131 697.942 234.457 700.376 244.269C700.863 246.231 702.675 247.656 704.587 247.806L714.784 248.609C717.334 248.81 719.397 247.048 719.598 244.5L719.648 243.862C718.201 229.638 707.582 217.9 693.023 215.472L694.227 200.175C694.427 197.625 692.666 195.563 689.53 194.674L679.969 193.922C677.419 193.721 675.356 195.482 674.468 198.62L673.314 213.279C653.992 214.324 640.88 226.118 639.625 242.053C637.97 263.086 650.065 272.375 676.584 277.669C694.18 282.26 699.615 286.536 698.812 296.735C698.01 306.933 688.534 313.241 676.425 312.288C659.852 310.984 654.667 303.52 653.508 293.809C653.072 291.211 651.26 289.784 649.348 289.634L638.512 288.781C635.963 288.58 633.901 290.342 633.7 292.892L633.65 293.53C634.944 309.664 644.24 321.939 665.022 326.783L663.818 342.08C663.618 344.628 665.379 346.691 668.515 347.579L678.076 348.332C680.626 348.533 682.689 346.771 683.577 343.635L684.781 328.338C704.153 326.655 717.954 314.273 719.308 297.064V297.064Z" fill="white"/>
<path d="M639.475 358.122C591.165 336.364 570.033 278.905 592.381 231.281C604.049 205.264 626.687 186.524 653.572 179.02C656.222 177.947 657.647 176.135 657.898 172.947L658.6 164.024C658.801 161.474 657.677 159.462 655.177 158.625C654.539 158.575 653.265 158.474 652.577 159.06C590.522 173.416 552.311 235.183 566.667 297.238C575.33 333.834 600.581 363.398 635.37 377.68C637.82 379.155 640.47 378.082 641.307 375.582C641.995 374.996 642.045 374.358 642.145 373.084L642.848 364.159C642.998 362.247 641.287 359.548 639.475 358.122ZM722.689 164.579C720.239 163.104 717.589 164.177 716.752 166.677C716.064 167.265 716.014 167.901 715.913 169.177L715.211 178.1C715.01 180.65 716.722 183.349 718.534 184.775C766.844 206.533 787.975 263.992 765.628 311.616C753.96 337.633 731.321 356.373 704.437 363.877C701.787 364.95 700.362 366.762 700.111 369.95L699.409 378.873C699.208 381.423 700.332 383.435 702.832 384.272C703.47 384.322 704.744 384.423 705.432 383.837C767.487 369.481 805.698 307.714 791.342 245.659C782.729 208.426 756.841 178.811 722.689 164.579V164.579Z" fill="white"/>
<g opacity="0.61" filter="url(#filter16_f_5108_8015)">
<path d="M623.124 335.428L578.272 310.269L529.285 299.155L508.91 285.741L506.944 310.446L617.662 353.26L704.254 368.38L826.233 364.631L834.3 316.598L777.466 321.666L707.437 350.15L623.124 335.428Z" fill="#1E1927"/>
</g>
</g>
<defs>
<filter id="filter0_f_5108_8015" x="-197.344" y="-917.067" width="1692.91" height="1448.58" filterUnits="userSpaceOnUse" color-interpolation-filters="sRGB">
<feFlood flood-opacity="0" result="BackgroundImageFix"/>
<feBlend mode="normal" in="SourceGraphic" in2="BackgroundImageFix" result="shape"/>
<feGaussianBlur stdDeviation="282" result="effect1_foregroundBlur_5108_8015"/>
</filter>
<filter id="filter1_f_5108_8015" x="402.23" y="-686.347" width="1510.55" height="1345.1" filterUnits="userSpaceOnUse" color-interpolation-filters="sRGB">
<feFlood flood-opacity="0" result="BackgroundImageFix"/>
<feBlend mode="normal" in="SourceGraphic" in2="BackgroundImageFix" result="shape"/>
<feGaussianBlur stdDeviation="282" result="effect1_foregroundBlur_5108_8015"/>
</filter>
<filter id="filter2_f_5108_8015" x="-678.836" y="-726.764" width="1811.49" height="1515.7" filterUnits="userSpaceOnUse" color-interpolation-filters="sRGB">
<feFlood flood-opacity="0" result="BackgroundImageFix"/>
<feBlend mode="normal" in="SourceGraphic" in2="BackgroundImageFix" result="shape"/>
<feGaussianBlur stdDeviation="282" result="effect1_foregroundBlur_5108_8015"/>
</filter>
<filter id="filter3_f_5108_8015" x="-223.094" y="-599.658" width="2040.16" height="1645.13" filterUnits="userSpaceOnUse" color-interpolation-filters="sRGB">
<feFlood flood-opacity="0" result="BackgroundImageFix"/>
<feBlend mode="normal" in="SourceGraphic" in2="BackgroundImageFix" result="shape"/>
<feGaussianBlur stdDeviation="282" result="effect1_foregroundBlur_5108_8015"/>
</filter>
<filter id="filter4_b_5108_8015" x="54.6367" y="47.7148" width="192.02" height="192.019" filterUnits="userSpaceOnUse" color-interpolation-filters="sRGB">
<feFlood flood-opacity="0" result="BackgroundImageFix"/>
<feGaussianBlur in="BackgroundImageFix" stdDeviation="27"/>
<feComposite in2="SourceAlpha" operator="in" result="effect1_backgroundBlur_5108_8015"/>
<feBlend mode="normal" in="SourceGraphic" in2="effect1_backgroundBlur_5108_8015" result="shape"/>
</filter>
<filter id="filter5_b_5108_8015" x="298.613" y="236.614" width="140.953" height="140.955" filterUnits="userSpaceOnUse" color-interpolation-filters="sRGB">
<feFlood flood-opacity="0" result="BackgroundImageFix"/>
<feGaussianBlur in="BackgroundImageFix" stdDeviation="27"/>
<feComposite in2="SourceAlpha" operator="in" result="effect1_backgroundBlur_5108_8015"/>
<feBlend mode="normal" in="SourceGraphic" in2="effect1_backgroundBlur_5108_8015" result="shape"/>
</filter>
<filter id="filter6_b_5108_8015" x="587.816" y="445.371" width="336.094" height="336.093" filterUnits="userSpaceOnUse" color-interpolation-filters="sRGB">
<feFlood flood-opacity="0" result="BackgroundImageFix"/>
<feGaussianBlur in="BackgroundImageFix" stdDeviation="27"/>
<feComposite in2="SourceAlpha" operator="in" result="effect1_backgroundBlur_5108_8015"/>
<feBlend mode="normal" in="SourceGraphic" in2="effect1_backgroundBlur_5108_8015" result="shape"/>
</filter>
<filter id="filter7_b_5108_8015" x="888.555" y="149.554" width="225.195" height="225.198" filterUnits="userSpaceOnUse" color-interpolation-filters="sRGB">
<feFlood flood-opacity="0" result="BackgroundImageFix"/>
<feGaussianBlur in="BackgroundImageFix" stdDeviation="27"/>
<feComposite in2="SourceAlpha" operator="in" result="effect1_backgroundBlur_5108_8015"/>
<feBlend mode="normal" in="SourceGraphic" in2="effect1_backgroundBlur_5108_8015" result="shape"/>
</filter>
<filter id="filter8_b_5108_8015" x="1186.8" y="218.822" width="137.148" height="137.148" filterUnits="userSpaceOnUse" color-interpolation-filters="sRGB">
<feFlood flood-opacity="0" result="BackgroundImageFix"/>
<feGaussianBlur in="BackgroundImageFix" stdDeviation="27"/>
<feComposite in2="SourceAlpha" operator="in" result="effect1_backgroundBlur_5108_8015"/>
<feBlend mode="normal" in="SourceGraphic" in2="effect1_backgroundBlur_5108_8015" result="shape"/>
</filter>
<filter id="filter9_f_5108_8015" x="217.82" y="244.82" width="759.734" height="759.735" filterUnits="userSpaceOnUse" color-interpolation-filters="sRGB">
<feFlood flood-opacity="0" result="BackgroundImageFix"/>
<feBlend mode="normal" in="SourceGraphic" in2="BackgroundImageFix" result="shape"/>
<feGaussianBlur stdDeviation="87" result="effect1_foregroundBlur_5108_8015"/>
</filter>
<filter id="filter10_f_5108_8015" x="1083.12" y="10.0845" width="180.98" height="211.197" filterUnits="userSpaceOnUse" color-interpolation-filters="sRGB">
<feFlood flood-opacity="0" result="BackgroundImageFix"/>
<feBlend mode="normal" in="SourceGraphic" in2="BackgroundImageFix" result="shape"/>
<feGaussianBlur stdDeviation="22" result="effect1_foregroundBlur_5108_8015"/>
</filter>
<filter id="filter11_bd_5108_8015" x="303.141" y="114.594" width="699.84" height="620.843" filterUnits="userSpaceOnUse" color-interpolation-filters="sRGB">
<feFlood flood-opacity="0" result="BackgroundImageFix"/>
<feGaussianBlur in="BackgroundImageFix" stdDeviation="30"/>
<feComposite in2="SourceAlpha" operator="in" result="effect1_backgroundBlur_5108_8015"/>
<feColorMatrix in="SourceAlpha" type="matrix" values="0 0 0 0 0 0 0 0 0 0 0 0 0 0 0 0 0 0 127 0" result="hardAlpha"/>
<feOffset dy="10"/>
<feGaussianBlur stdDeviation="54"/>
<feComposite in2="hardAlpha" operator="out"/>
<feColorMatrix type="matrix" values="0 0 0 0 0 0 0 0 0 0 0 0 0 0 0 0 0 0 0.25 0"/>
<feBlend mode="normal" in2="effect1_backgroundBlur_5108_8015" result="effect2_dropShadow_5108_8015"/>
<feBlend mode="normal" in="SourceGraphic" in2="effect2_dropShadow_5108_8015" result="shape"/>
</filter>
<filter id="filter12_d_5108_8015" x="425.34" y="423.072" width="122.199" height="138.048" filterUnits="userSpaceOnUse" color-interpolation-filters="sRGB">
<feFlood flood-opacity="0" result="BackgroundImageFix"/>
<feColorMatrix in="SourceAlpha" type="matrix" values="0 0 0 0 0 0 0 0 0 0 0 0 0 0 0 0 0 0 127 0" result="hardAlpha"/>
<feOffset dy="4"/>
<feGaussianBlur stdDeviation="17"/>
<feComposite in2="hardAlpha" operator="out"/>
<feColorMatrix type="matrix" values="0 0 0 0 0 0 0 0 0 0 0 0 0 0 0 0 0 0 0.18 0"/>
<feBlend mode="normal" in2="BackgroundImageFix" result="effect1_dropShadow_5108_8015"/>
<feBlend mode="normal" in="SourceGraphic" in2="effect1_dropShadow_5108_8015" result="shape"/>
</filter>
<filter id="filter13_d_5108_8015" x="358.742" y="162.99" width="590.227" height="513.246" filterUnits="userSpaceOnUse" color-interpolation-filters="sRGB">
<feFlood flood-opacity="0" result="BackgroundImageFix"/>
<feColorMatrix in="SourceAlpha" type="matrix" values="0 0 0 0 0 0 0 0 0 0 0 0 0 0 0 0 0 0 127 0" result="hardAlpha"/>
<feOffset dy="4"/>
<feGaussianBlur stdDeviation="32"/>
<feComposite in2="hardAlpha" operator="out"/>
<feColorMatrix type="matrix" values="0 0 0 0 0 0 0 0 0 0 0 0 0 0 0 0 0 0 0.15 0"/>
<feBlend mode="normal" in2="BackgroundImageFix" result="effect1_dropShadow_5108_8015"/>
<feBlend mode="normal" in="SourceGraphic" in2="effect1_dropShadow_5108_8015" result="shape"/>
</filter>
<filter id="filter14_i_5108_8015" x="494.055" y="243.2" width="356.273" height="116.425" filterUnits="userSpaceOnUse" color-interpolation-filters="sRGB">
<feFlood flood-opacity="0" result="BackgroundImageFix"/>
<feBlend mode="normal" in="SourceGraphic" in2="BackgroundImageFix" result="shape"/>
<feColorMatrix in="SourceAlpha" type="matrix" values="0 0 0 0 0 0 0 0 0 0 0 0 0 0 0 0 0 0 127 0" result="hardAlpha"/>
<feOffset dy="-5"/>
<feGaussianBlur stdDeviation="3.5"/>
<feComposite in2="hardAlpha" operator="arithmetic" k2="-1" k3="1"/>
<feColorMatrix type="matrix" values="0 0 0 0 0 0 0 0 0 0 0 0 0 0 0 0 0 0 0.25 0"/>
<feBlend mode="normal" in2="shape" result="effect1_innerShadow_5108_8015"/>
</filter>
<filter id="filter15_f_5108_8015" x="485.375" y="74.2217" width="336.898" height="329.534" filterUnits="userSpaceOnUse" color-interpolation-filters="sRGB">
<feFlood flood-opacity="0" result="BackgroundImageFix"/>
<feBlend mode="normal" in="SourceGraphic" in2="BackgroundImageFix" result="shape"/>
<feGaussianBlur stdDeviation="22" result="effect1_foregroundBlur_5108_8015"/>
</filter>
<filter id="filter16_f_5108_8015" x="482.945" y="261.741" width="375.355" height="130.639" filterUnits="userSpaceOnUse" color-interpolation-filters="sRGB">
<feFlood flood-opacity="0" result="BackgroundImageFix"/>
<feBlend mode="normal" in="SourceGraphic" in2="BackgroundImageFix" result="shape"/>
<feGaussianBlur stdDeviation="12" result="effect1_foregroundBlur_5108_8015"/>
</filter>
<linearGradient id="paint0_linear_5108_8015" x1="665" y1="0.00244506" x2="620.5" y2="639.002" gradientUnits="userSpaceOnUse">
<stop stop-color="#2B2641"/>
<stop offset="1" stop-color="#2B2641" stop-opacity="0"/>
</linearGradient>
<linearGradient id="paint1_linear_5108_8015" x1="120.5" y1="-197.999" x2="132.909" y2="608.533" gradientUnits="userSpaceOnUse">
<stop stop-color="#FF5151"/>
<stop offset="1" stop-opacity="0"/>
</linearGradient>
<linearGradient id="paint2_linear_5108_8015" x1="-143.998" y1="-301.499" x2="-457.003" y2="229.591" gradientUnits="userSpaceOnUse">
<stop stop-color="#FFC500"/>
<stop offset="1" stop-opacity="0"/>
</linearGradient>
<linearGradient id="paint3_linear_5108_8015" x1="74.4979" y1="-417" x2="-107.625" y2="530.852" gradientUnits="userSpaceOnUse">
<stop stop-color="#FF1300"/>
<stop offset="1" stop-opacity="0"/>
</linearGradient>
<linearGradient id="paint4_linear_5108_8015" x1="723.5" y1="-584.5" x2="1419.36" y2="613.915" gradientUnits="userSpaceOnUse">
<stop stop-color="#FF4132"/>
<stop offset="1" stop-opacity="0"/>
</linearGradient>
<linearGradient id="paint5_linear_5108_8015" x1="150.647" y1="101.724" x2="150.647" y2="221.724" gradientUnits="userSpaceOnUse">
<stop stop-color="#AFD803" stop-opacity="0"/>
<stop offset="1" stop-color="#AFD803"/>
</linearGradient>
<linearGradient id="paint6_linear_5108_8015" x1="755.864" y1="499.393" x2="755.864" y2="825.177" gradientUnits="userSpaceOnUse">
<stop stop-color="#E54033" stop-opacity="0"/>
<stop offset="1" stop-color="#E54033"/>
</linearGradient>
<linearGradient id="paint7_linear_5108_8015" x1="1001.15" y1="203.566" x2="1001.15" y2="370.959" gradientUnits="userSpaceOnUse">
<stop stop-color="#E54033" stop-opacity="0"/>
<stop offset="1" stop-color="#E54033"/>
</linearGradient>
<linearGradient id="paint8_linear_5108_8015" x1="371.558" y1="372.185" x2="233.801" y2="280.718" gradientUnits="userSpaceOnUse">
<stop stop-color="#8656EF"/>
<stop offset="0.97" stop-color="#1AA3FF"/>
</linearGradient>
<linearGradient id="paint9_linear_5108_8015" x1="882.939" y1="163.299" x2="730.686" y2="785.346" gradientUnits="userSpaceOnUse">
<stop stop-color="#3B3349"/>
<stop offset="1" stop-color="#36333B"/>
</linearGradient>
<linearGradient id="paint10_linear_5108_8015" x1="439.344" y1="151.141" x2="526.189" y2="655.833" gradientUnits="userSpaceOnUse">
<stop stop-color="white" stop-opacity="0.1"/>
<stop offset="1" stop-color="white" stop-opacity="0.08"/>
</linearGradient>
<linearGradient id="paint11_linear_5108_8015" x1="520.347" y1="449.12" x2="458.995" y2="553.222" gradientUnits="userSpaceOnUse">
<stop stop-color="#B6A5FF"/>
<stop offset="1" stop-color="#5B48AD"/>
</linearGradient>
<linearGradient id="paint12_linear_5108_8015" x1="465.242" y1="442.915" x2="475.55" y2="539.278" gradientUnits="userSpaceOnUse">
<stop stop-color="#E0D9FF" stop-opacity="0.98"/>
<stop offset="1" stop-color="#BDAEFF" stop-opacity="0.52"/>
</linearGradient>
<linearGradient id="paint13_linear_5108_8015" x1="461.516" y1="192.461" x2="465.828" y2="669.323" gradientUnits="userSpaceOnUse">
<stop stop-color="#E0D9FF" stop-opacity="0.98"/>
<stop offset="1" stop-color="#BDAEFF" stop-opacity="0.52"/>
</linearGradient>
<linearGradient id="paint14_linear_5108_8015" x1="832.363" y1="293.713" x2="797.589" y2="435.366" gradientUnits="userSpaceOnUse">
<stop stop-color="#342D3F"/>
<stop offset="1" stop-color="#36333B"/>
</linearGradient>
<linearGradient id="paint15_linear_5108_8015" x1="483.836" y1="230.12" x2="469.472" y2="344.313" gradientUnits="userSpaceOnUse">
<stop stop-color="#4C474B"/>
<stop offset="1" stop-color="white" stop-opacity="0.08"/>
</linearGradient>
<linearGradient id="paint16_linear_5108_8015" x1="865.249" y1="104.977" x2="692.78" y2="528.286" gradientUnits="userSpaceOnUse">
<stop stop-color="#342D3F"/>
<stop offset="1" stop-color="#36333B"/>
</linearGradient>
<linearGradient id="paint17_linear_5108_8015" x1="567.084" y1="65.6891" x2="785.004" y2="467.157" gradientUnits="userSpaceOnUse">
<stop stop-color="white"/>
<stop offset="1" stop-color="white" stop-opacity="0.08"/>
</linearGradient>
</defs>
</svg>
