<svg width="1330" height="966" viewBox="0 0 1330 966" fill="none" xmlns="http://www.w3.org/2000/svg">
<mask id="mask0_5025_10554" style="mask-type:alpha" maskUnits="userSpaceOnUse" x="0" y="0" width="1330" height="966">
<rect width="1330" height="966" fill="#2B2641"/>
</mask>
<g mask="url(#mask0_5025_10554)">
<g opacity="0.3">
<rect x="429.074" y="210.123" width="623.97" height="2.02588" fill="url(#paint0_radial_5025_10554)" fill-opacity="0.3"/>
<rect x="398.691" y="125.037" width="846.817" height="2.02588" fill="url(#paint1_radial_5025_10554)" fill-opacity="0.3"/>
<rect x="254.859" y="39.9521" width="972.421" height="2.02588" fill="url(#paint2_radial_5025_10554)" fill-opacity="0.3"/>
<rect x="464.527" y="-418.909" width="623.97" height="2.02588" transform="rotate(90 464.527 -418.909)" fill="url(#paint3_radial_5025_10554)" fill-opacity="0.3"/>
<rect x="549.613" y="-449.299" width="846.817" height="2.02588" transform="rotate(90 549.613 -449.299)" fill="url(#paint4_radial_5025_10554)" fill-opacity="0.3"/>
<rect x="804.879" y="-629.602" width="1126.39" height="2.02588" transform="rotate(90 804.879 -629.602)" fill="url(#paint5_radial_5025_10554)" fill-opacity="0.3"/>
<rect x="889.965" y="-568.825" width="1004.84" height="2.02588" transform="rotate(90 889.965 -568.825)" fill="url(#paint6_radial_5025_10554)" fill-opacity="0.3"/>
<rect x="634.703" y="-593.138" width="972.421" height="2.02588" transform="rotate(90 634.703 -593.138)" fill="url(#paint7_radial_5025_10554)" fill-opacity="0.3"/>
<rect x="719.789" y="-670.12" width="1126.39" height="2.02588" transform="rotate(90 719.789 -670.12)" fill="url(#paint8_radial_5025_10554)" fill-opacity="0.3"/>
<rect x="975.047" y="-453.351" width="895.438" height="2.02588" transform="rotate(90 975.047 -453.351)" fill="url(#paint9_radial_5025_10554)" fill-opacity="0.3"/>
<rect x="1060.13" y="-475.634" width="737.419" height="2.02588" transform="rotate(90 1060.13 -475.634)" fill="url(#paint10_radial_5025_10554)" fill-opacity="0.3"/>
</g>
<g opacity="0.6">
<g opacity="0.8">
<g opacity="0.5" filter="url(#filter0_f_5025_10554)">
<ellipse rx="161.853" ry="166.05" transform="matrix(0.789532 0.61371 -0.939631 0.342188 639.946 -121.992)" fill="#AFD803"/>
</g>
<g opacity="0.5" filter="url(#filter1_f_5025_10554)">
<ellipse rx="109.605" ry="112.447" transform="matrix(0.789532 0.61371 -0.939631 0.342188 1002.96 5.80327)" fill="#AFD803"/>
</g>
<g opacity="0.5" filter="url(#filter2_f_5025_10554)">
<ellipse rx="195.673" ry="201.008" transform="matrix(0.789532 0.61371 -0.939631 0.342188 338.476 37.8517)" fill="#E54033"/>
</g>
<g opacity="0.5" filter="url(#filter3_f_5025_10554)">
<ellipse rx="260.897" ry="268.427" transform="matrix(0.789532 0.61371 -0.939631 0.342188 745.534 174.818)" fill="#FECA1A" fill-opacity="0.8"/>
</g>
</g>
<g filter="url(#filter4_b_5025_10554)">
<ellipse cx="150.639" cy="143.722" rx="42" ry="42" transform="rotate(-116.485 150.639 143.722)" fill="url(#paint11_linear_5025_10554)"/>
</g>
<g filter="url(#filter5_b_5025_10554)">
<ellipse cx="333.68" cy="219.608" rx="16.4739" ry="16.4739" transform="rotate(-116.485 333.68 219.608)" fill="#5B48AD"/>
</g>
<g filter="url(#filter6_b_5025_10554)">
<ellipse cx="928.607" cy="120.545" rx="40.377" ry="40.377" transform="rotate(78.5154 928.607 120.545)" fill="url(#paint12_linear_5025_10554)"/>
</g>
<g filter="url(#filter7_b_5025_10554)">
<ellipse cx="1255.37" cy="287.393" rx="14.5711" ry="14.5711" transform="rotate(78.5154 1255.37 287.393)" fill="#FECA1A"/>
</g>
<path d="M137.199 163.83L10.9961 226.709" stroke="url(#paint13_linear_5025_10554)" stroke-opacity="0.8" stroke-width="2.2" stroke-linecap="round"/>
<path d="M328.407 227.495L278.906 252.159" stroke="url(#paint14_linear_5025_10554)" stroke-opacity="0.8" stroke-width="2.2" stroke-linecap="round"/>
<path d="M946.096 105.219L1078.93 78.2305" stroke="url(#paint15_linear_5025_10554)" stroke-opacity="0.8" stroke-width="2.2" stroke-linecap="round"/>
<path d="M1261.68 281.863L1309.62 272.124" stroke="url(#paint16_linear_5025_10554)" stroke-opacity="0.8" stroke-width="2.2" stroke-linecap="round"/>
<path d="M100.527 164.224L-25.6758 227.104" stroke="url(#paint17_linear_5025_10554)" stroke-width="2.2" stroke-linecap="round"/>
<path d="M314.025 227.651L264.523 252.314" stroke="url(#paint18_linear_5025_10554)" stroke-width="2.2" stroke-linecap="round"/>
<path d="M980.248 113.977L1113.09 86.9883" stroke="url(#paint19_linear_5025_10554)" stroke-width="2.2" stroke-linecap="round"/>
<path d="M1274.01 285.023L1321.95 275.284" stroke="url(#paint20_linear_5025_10554)" stroke-width="2.2" stroke-linecap="round"/>
</g>
<g filter="url(#filter8_bd_5025_10554)">
<rect x="493.504" y="138.322" width="529.563" height="415.698" rx="71" transform="rotate(9.90457 493.504 138.322)" fill="url(#paint21_linear_5025_10554)"/>
<rect x="494.317" y="139.479" width="527.563" height="413.698" rx="70" transform="rotate(9.90457 494.317 139.479)" stroke="url(#paint22_linear_5025_10554)" stroke-width="2"/>
</g>
<g filter="url(#filter9_d_5025_10554)">
<mask id="path-31-inside-1_5025_10554" fill="white">
<path fill-rule="evenodd" clip-rule="evenodd" d="M523.307 437.92C523.307 437.919 523.306 437.918 523.305 437.918V437.918C523.304 437.918 523.303 437.918 523.302 437.917L523.294 437.893C523.288 437.877 523.279 437.87 523.293 437.86C523.788 437.507 545.232 422.392 555.069 448.688C555.075 448.703 555.068 448.72 555.054 448.726L554.96 448.765C554.96 448.765 554.96 448.765 554.96 448.765V448.765C554.96 448.766 554.96 448.766 554.96 448.766C553.116 449.542 530.699 458.453 523.307 437.92ZM527.538 450.488C527.539 450.488 527.539 450.488 527.539 450.488V450.488C527.539 450.488 527.54 450.488 527.54 450.488C529.637 452.072 531.975 453.152 534.372 453.87C536.498 454.507 538.523 455.606 539.658 457.513C540.513 458.95 541.268 460.448 541.983 461.961C542.483 463.027 542.909 464.125 543.26 465.249C544.074 467.826 544.54 470.483 545.011 473.171L545.011 473.171C545.149 473.96 545.288 474.751 545.436 475.544C545.468 475.875 545.503 476.208 545.542 476.542C545.542 476.546 545.546 476.549 545.551 476.549V476.549C545.555 476.548 545.559 476.552 545.559 476.556C546.125 481.635 547.281 487.156 549.294 491.9C549.294 491.902 549.293 491.904 549.292 491.904V491.904C549.29 491.905 549.289 491.906 549.29 491.908C549.957 493.467 550.747 494.971 551.652 496.406C551.831 496.682 552.015 496.957 552.199 497.232L552.2 497.234L552.2 497.234L552.201 497.236L552.201 497.236C553.065 498.528 553.934 499.828 554.294 501.329C554.741 503.198 554.335 505.187 553.562 506.948C549.917 515.244 541.173 516.066 533.158 514.884C533.155 514.883 533.154 514.88 533.155 514.878V514.878C533.157 514.876 533.155 514.873 533.153 514.872C530.154 514.41 527.226 513.669 524.642 512.94C524.64 512.939 524.641 512.94 524.639 512.939C524.578 512.922 512.145 509.383 502.772 499.657C502.769 499.653 502.765 499.651 502.761 499.65V499.65C502.757 499.649 502.753 499.647 502.75 499.643L502.453 499.33C502.452 499.33 502.452 499.329 502.453 499.329V499.329C502.453 499.328 502.453 499.328 502.453 499.327C501.361 498.172 500.339 496.951 499.394 495.672C496.883 492.271 494.772 488.543 493.344 484.606C493.338 484.591 493.344 484.573 493.357 484.564V484.564C493.37 484.555 493.376 484.538 493.371 484.522C493.207 484.05 493.054 483.575 492.911 483.098C491.618 478.774 491.163 474.232 491.912 469.621C493.167 461.883 497.189 454.437 503.21 449.58C503.213 449.578 503.215 449.574 503.214 449.57V449.57C503.213 449.566 503.215 449.562 503.218 449.56C503.359 449.451 503.5 449.344 503.643 449.238L503.653 449.231C503.653 449.231 503.653 449.231 503.653 449.231V449.231C503.653 449.231 503.653 449.231 503.653 449.231C506.795 446.906 510.45 445.286 514.514 444.685C516.334 444.41 518.177 444.35 520.005 444.503C521.635 444.639 522.991 445.691 523.998 446.98C525.023 448.292 526.212 449.471 527.538 450.488Z"/>
</mask>
<path fill-rule="evenodd" clip-rule="evenodd" d="M523.307 437.92C523.307 437.919 523.306 437.918 523.305 437.918V437.918C523.304 437.918 523.303 437.918 523.302 437.917L523.294 437.893C523.288 437.877 523.279 437.87 523.293 437.86C523.788 437.507 545.232 422.392 555.069 448.688C555.075 448.703 555.068 448.72 555.054 448.726L554.96 448.765C554.96 448.765 554.96 448.765 554.96 448.765V448.765C554.96 448.766 554.96 448.766 554.96 448.766C553.116 449.542 530.699 458.453 523.307 437.92ZM527.538 450.488C527.539 450.488 527.539 450.488 527.539 450.488V450.488C527.539 450.488 527.54 450.488 527.54 450.488C529.637 452.072 531.975 453.152 534.372 453.87C536.498 454.507 538.523 455.606 539.658 457.513C540.513 458.95 541.268 460.448 541.983 461.961C542.483 463.027 542.909 464.125 543.26 465.249C544.074 467.826 544.54 470.483 545.011 473.171L545.011 473.171C545.149 473.96 545.288 474.751 545.436 475.544C545.468 475.875 545.503 476.208 545.542 476.542C545.542 476.546 545.546 476.549 545.551 476.549V476.549C545.555 476.548 545.559 476.552 545.559 476.556C546.125 481.635 547.281 487.156 549.294 491.9C549.294 491.902 549.293 491.904 549.292 491.904V491.904C549.29 491.905 549.289 491.906 549.29 491.908C549.957 493.467 550.747 494.971 551.652 496.406C551.831 496.682 552.015 496.957 552.199 497.232L552.2 497.234L552.2 497.234L552.201 497.236L552.201 497.236C553.065 498.528 553.934 499.828 554.294 501.329C554.741 503.198 554.335 505.187 553.562 506.948C549.917 515.244 541.173 516.066 533.158 514.884C533.155 514.883 533.154 514.88 533.155 514.878V514.878C533.157 514.876 533.155 514.873 533.153 514.872C530.154 514.41 527.226 513.669 524.642 512.94C524.64 512.939 524.641 512.94 524.639 512.939C524.578 512.922 512.145 509.383 502.772 499.657C502.769 499.653 502.765 499.651 502.761 499.65V499.65C502.757 499.649 502.753 499.647 502.75 499.643L502.453 499.33C502.452 499.33 502.452 499.329 502.453 499.329V499.329C502.453 499.328 502.453 499.328 502.453 499.327C501.361 498.172 500.339 496.951 499.394 495.672C496.883 492.271 494.772 488.543 493.344 484.606C493.338 484.591 493.344 484.573 493.357 484.564V484.564C493.37 484.555 493.376 484.538 493.371 484.522C493.207 484.05 493.054 483.575 492.911 483.098C491.618 478.774 491.163 474.232 491.912 469.621C493.167 461.883 497.189 454.437 503.21 449.58C503.213 449.578 503.215 449.574 503.214 449.57V449.57C503.213 449.566 503.215 449.562 503.218 449.56C503.359 449.451 503.5 449.344 503.643 449.238L503.653 449.231C503.653 449.231 503.653 449.231 503.653 449.231V449.231C503.653 449.231 503.653 449.231 503.653 449.231C506.795 446.906 510.45 445.286 514.514 444.685C516.334 444.41 518.177 444.35 520.005 444.503C521.635 444.639 522.991 445.691 523.998 446.98C525.023 448.292 526.212 449.471 527.538 450.488Z" fill="url(#paint23_linear_5025_10554)" fill-opacity="0.1" shape-rendering="crispEdges"/>
<path d="M541.983 461.961L542.889 461.537L542.887 461.534L541.983 461.961ZM543.26 465.249L542.305 465.547L542.306 465.55L543.26 465.249ZM545.011 473.171L544.026 473.344L544.029 473.361L544.033 473.377L545.011 473.171ZM545.011 473.171L545.996 472.999L545.993 472.982L545.99 472.965L545.011 473.171ZM545.436 475.544L546.432 475.45L546.428 475.405L546.419 475.36L545.436 475.544ZM551.652 496.406L550.807 496.939L550.812 496.948L551.652 496.406ZM552.201 497.236L551.37 497.792L551.37 497.792L552.201 497.236ZM554.294 501.329L555.266 501.096L555.266 501.095L554.294 501.329ZM553.562 506.948L554.477 507.35L554.477 507.35L553.562 506.948ZM499.394 495.672L498.589 496.266L498.589 496.267L499.394 495.672ZM492.911 483.098L493.869 482.812L493.869 482.811L492.911 483.098ZM491.912 469.621L492.899 469.781L492.899 469.781L491.912 469.621ZM503.643 449.238L504.239 450.042L504.247 450.036L504.255 450.029L503.643 449.238ZM514.514 444.685L514.66 445.674L514.663 445.674L514.514 444.685ZM523.998 446.98L524.786 446.364L523.998 446.98ZM503.653 449.231L504.248 450.035L503.653 449.231ZM503.653 449.231L504.265 450.022L503.653 449.231ZM503.218 449.56L503.829 450.351L503.218 449.56ZM503.21 449.58L503.838 450.358L503.21 449.58ZM533.158 514.884L533.012 515.873L533.158 514.884ZM549.29 491.908L548.371 492.301L548.371 492.301L549.29 491.908ZM549.294 491.9L550.214 491.51L549.294 491.9ZM493.371 484.522L492.426 484.85L493.371 484.522ZM534.372 453.87L534.085 454.828L534.372 453.87ZM539.658 457.513L538.799 458.025L539.658 457.513ZM493.344 484.606L492.404 484.947L493.344 484.606ZM527.538 450.488L528.147 449.695L527.538 450.488ZM527.539 450.488L528.245 451.197L527.539 450.488ZM527.54 450.488L526.937 451.286L527.54 450.488ZM502.453 499.327L501.726 500.014L502.453 499.327ZM554.96 448.766L555.348 449.687L554.96 448.766ZM545.559 476.556L546.553 476.445L545.559 476.556ZM502.453 499.33L501.727 500.018L502.453 499.33ZM554.96 448.765L554.571 447.844L554.96 448.765ZM545.542 476.542L544.548 476.658L545.542 476.542ZM502.75 499.643L502.024 500.331L502.75 499.643ZM555.069 448.688L554.133 449.039L555.069 448.688ZM555.054 448.726L555.443 449.647L555.054 448.726ZM502.772 499.657L502.052 500.35L502.772 499.657ZM523.294 437.893L524.235 437.556L523.294 437.893ZM523.293 437.86L523.874 438.674L523.293 437.86ZM524.642 512.94L524.371 513.902L524.642 512.94ZM524.639 512.939L524.366 513.901L524.639 512.939ZM523.302 437.917L524.244 437.579L523.302 437.917ZM533.153 514.872L533 515.861L533.153 514.872ZM523.305 437.918L523.307 438.918L523.305 437.918ZM523.307 437.92L522.366 438.259L523.307 437.92ZM524.244 437.579L524.235 437.556L522.353 438.231L522.361 438.254L524.244 437.579ZM523.874 438.674C524.094 438.517 529.391 434.79 535.758 434.277C538.909 434.024 542.291 434.559 545.468 436.684C548.651 438.813 551.726 442.604 554.133 449.039L556.006 448.338C553.495 441.625 550.2 437.444 546.58 435.022C542.954 432.596 539.099 432.002 535.598 432.284C528.66 432.843 522.987 436.85 522.712 437.046L523.874 438.674ZM554.665 447.804L554.571 447.844L555.349 449.687L555.443 449.647L554.665 447.804ZM522.366 438.259C524.281 443.577 527.198 447.056 530.571 449.227C533.932 451.39 537.674 452.208 541.178 452.333C548.158 452.583 554.387 450.092 555.348 449.687L554.572 447.844C553.69 448.215 547.787 450.568 541.25 450.334C537.996 450.218 534.632 449.462 531.653 447.545C528.687 445.636 526.029 442.53 524.248 437.581L522.366 438.259ZM534.659 452.912C532.354 452.221 530.128 451.19 528.143 449.69L526.937 451.286C529.146 452.955 531.596 454.082 534.085 454.828L534.659 452.912ZM542.887 461.534C542.166 460.007 541.395 458.477 540.517 457.002L538.799 458.025C539.631 459.423 540.37 460.889 541.079 462.388L542.887 461.534ZM544.214 464.951C543.85 463.784 543.407 462.644 542.889 461.537L541.078 462.385C541.558 463.41 541.968 464.466 542.305 465.547L544.214 464.951ZM545.996 472.999C545.527 470.321 545.051 467.598 544.213 464.948L542.306 465.55C543.097 468.053 543.553 470.644 544.026 473.344L545.996 472.999ZM545.99 472.965L545.99 472.965L544.033 473.377L544.033 473.377L545.99 472.965ZM546.419 475.36C546.272 474.574 546.135 473.788 545.996 472.999L544.026 473.344C544.164 474.132 544.304 474.928 544.453 475.727L546.419 475.36ZM546.535 476.426C546.497 476.099 546.462 475.774 546.432 475.45L544.441 475.638C544.473 475.977 544.509 476.317 544.548 476.658L546.535 476.426ZM550.214 491.51C548.252 486.884 547.113 481.466 546.553 476.445L544.566 476.667C545.138 481.805 546.311 487.428 548.373 492.291L550.214 491.51ZM552.498 495.872C551.621 494.482 550.856 493.025 550.209 491.514L548.371 492.301C549.059 493.909 549.873 495.46 550.807 496.939L552.498 495.872ZM553.033 496.681C552.847 496.403 552.667 496.133 552.493 495.863L550.812 496.948C550.997 497.234 551.186 497.516 551.37 497.792L553.033 496.681ZM555.266 501.095C554.858 499.392 553.877 497.944 553.033 496.681L551.37 497.792C552.252 499.112 553.01 500.265 553.321 501.562L555.266 501.095ZM554.477 507.35C555.302 505.472 555.782 503.251 555.266 501.096L553.321 501.561C553.7 503.145 553.368 504.902 552.646 506.546L554.477 507.35ZM533.012 515.873C537.085 516.474 541.442 516.583 545.287 515.428C549.174 514.26 552.523 511.799 554.477 507.35L552.646 506.546C550.956 510.392 548.111 512.491 544.711 513.513C541.269 514.547 537.246 514.476 533.304 513.895L533.012 515.873ZM524.371 513.902C526.971 514.636 529.944 515.389 533 515.861L533.305 513.884C530.365 513.43 527.481 512.702 524.914 511.977L524.371 513.902ZM502.052 500.35C511.615 510.275 524.265 513.872 524.366 513.901L524.912 511.977C524.921 511.979 521.857 511.11 517.638 509.041C513.415 506.97 508.072 503.715 503.492 498.963L502.052 500.35ZM501.727 500.018L502.024 500.331L503.476 498.955L503.178 498.642L501.727 500.018ZM498.589 496.267C499.559 497.578 500.606 498.83 501.726 500.014L503.18 498.64C502.115 497.514 501.119 496.325 500.198 495.078L498.589 496.267ZM492.404 484.947C493.87 488.989 496.032 492.802 498.589 496.266L500.198 495.079C497.735 491.741 495.673 488.097 494.284 484.265L492.404 484.947ZM491.953 483.384C492.1 483.876 492.257 484.364 492.426 484.85L494.315 484.195C494.156 483.736 494.008 483.275 493.869 482.812L491.953 483.384ZM490.925 469.461C490.148 474.242 490.623 478.937 491.953 483.384L493.869 482.811C492.613 478.611 492.178 474.223 492.899 469.781L490.925 469.461ZM502.583 448.802C496.35 453.829 492.215 461.505 490.925 469.461L492.899 469.781C494.118 462.261 498.028 455.045 503.838 450.358L502.583 448.802ZM503.048 448.435C502.9 448.544 502.753 448.656 502.607 448.769L503.829 450.351C503.965 450.247 504.101 450.143 504.239 450.042L503.048 448.435ZM503.041 448.44L503.032 448.447L504.255 450.029L504.265 450.022L503.041 448.44ZM514.368 443.695C510.128 444.323 506.321 446.012 503.058 448.427L504.248 450.035C507.269 447.799 510.772 446.249 514.66 445.674L514.368 443.695ZM520.088 443.506C518.182 443.347 516.262 443.41 514.365 443.696L514.663 445.674C516.406 445.411 518.171 445.353 519.922 445.499L520.088 443.506ZM528.147 449.695C526.888 448.729 525.759 447.61 524.786 446.364L523.21 447.595C524.287 448.974 525.536 450.213 526.93 451.282L528.147 449.695ZM519.922 445.499C521.159 445.602 522.288 446.415 523.21 447.595L524.786 446.364C523.694 444.966 522.11 443.675 520.088 443.506L519.922 445.499ZM502.671 449.419C502.809 450.138 503.653 450.475 504.248 450.035L503.058 448.427C503.654 447.986 504.497 448.323 504.635 449.042L502.671 449.419ZM504.265 450.022C503.675 450.478 502.812 450.151 502.671 449.419L504.635 449.042C504.495 448.31 503.631 447.983 503.041 448.44L504.265 450.022ZM504.197 449.383C504.266 449.749 504.124 450.123 503.829 450.351L502.607 448.769C502.305 449.001 502.161 449.383 502.232 449.757L504.197 449.383ZM503.838 450.358C504.129 450.124 504.266 449.749 504.197 449.383L502.232 449.757C502.163 449.398 502.298 449.031 502.583 448.802L503.838 450.358ZM533.304 513.895C534.009 513.999 534.376 514.785 534.014 515.391L532.297 514.365C531.932 514.976 532.301 515.768 533.012 515.873L533.304 513.895ZM549.069 490.929C548.459 491.069 548.124 491.726 548.371 492.301L550.209 491.514C550.454 492.086 550.121 492.74 549.514 492.879L549.069 490.929ZM548.373 492.291C548.129 491.716 548.467 491.067 549.069 490.929L549.514 492.879C550.119 492.741 550.459 492.088 550.214 491.51L548.373 492.291ZM493.935 485.38C494.312 485.114 494.466 484.63 494.315 484.195L492.426 484.85C492.285 484.445 492.429 483.995 492.78 483.748L493.935 485.38ZM534.085 454.828C536.103 455.433 537.848 456.428 538.799 458.025L540.517 457.002C539.198 454.785 536.892 453.581 534.659 452.912L534.085 454.828ZM494.284 484.265C494.432 484.674 494.288 485.13 493.935 485.38L492.78 483.748C492.399 484.017 492.244 484.508 492.404 484.947L494.284 484.265ZM526.833 449.78C527.188 449.426 527.75 449.39 528.147 449.695L526.93 451.282C527.328 451.587 527.89 451.551 528.245 451.197L526.833 449.78ZM528.245 451.197C527.891 451.55 527.333 451.585 526.937 451.286L528.143 449.69C527.747 449.391 527.188 449.426 526.833 449.78L528.245 451.197ZM502.96 500.191C503.515 499.864 503.621 499.107 503.18 498.64L501.726 500.014C501.286 499.548 501.392 498.793 501.946 498.467L502.96 500.191ZM554.817 449.755C554.584 449.722 554.351 449.603 554.182 449.393C554.102 449.294 553.915 449.021 553.97 448.628C554.034 448.162 554.373 447.928 554.572 447.844L555.348 449.687C555.548 449.603 555.886 449.369 555.951 448.903C556.005 448.511 555.819 448.237 555.739 448.138C555.57 447.928 555.336 447.809 555.103 447.776L554.817 449.755ZM545.638 477.545C545.105 477.592 544.626 477.206 544.566 476.667L546.553 476.445C546.492 475.897 546.005 475.505 545.463 475.553L545.638 477.545ZM503.178 498.642C503.621 499.108 503.514 499.865 502.96 500.191L501.946 498.467C501.391 498.793 501.284 499.551 501.727 500.018L503.178 498.642ZM554.571 447.844C553.638 448.238 553.814 449.611 554.817 449.755L555.103 447.776C556.106 447.92 556.282 449.293 555.349 449.687L554.571 447.844ZM544.548 476.658C544.612 477.2 545.095 477.593 545.638 477.545L545.463 475.553C545.998 475.506 546.473 475.892 546.535 476.426L544.548 476.658ZM503.01 498.681C503.188 498.727 503.349 498.822 503.476 498.955L502.024 500.331C502.157 500.471 502.326 500.571 502.512 500.619L503.01 498.681ZM554.133 449.039C553.967 448.595 554.143 448.025 554.665 447.804L555.443 449.647C555.993 449.415 556.183 448.81 556.006 448.338L554.133 449.039ZM503.492 498.963C503.362 498.827 503.195 498.729 503.01 498.681L502.512 500.619C502.335 500.573 502.177 500.479 502.052 500.35L503.492 498.963ZM524.235 437.556C524.216 437.502 524.194 437.456 524.197 437.463C524.197 437.463 524.199 437.467 524.201 437.473C524.204 437.479 524.209 437.489 524.214 437.502C524.223 437.525 524.242 437.574 524.258 437.637C524.292 437.78 524.314 438.012 524.204 438.264C524.105 438.492 523.95 438.62 523.874 438.674L522.712 437.046C522.629 437.105 522.469 437.237 522.369 437.47C522.257 437.727 522.279 437.964 522.315 438.111C522.331 438.177 522.35 438.228 522.361 438.255C522.372 438.281 522.381 438.302 522.382 438.303C522.388 438.316 522.369 438.277 522.353 438.231L524.235 437.556ZM524.914 511.977C524.912 511.977 524.911 511.977 524.911 511.977C524.912 511.977 524.913 511.977 524.912 511.977L524.366 513.901C524.367 513.901 524.368 513.902 524.37 513.902C524.371 513.902 524.37 513.902 524.371 513.902L524.914 511.977ZM523.302 436.918C523.724 436.917 524.101 437.182 524.244 437.579L522.361 438.254C522.504 438.653 522.883 438.919 523.307 438.918L523.302 436.918ZM534.014 515.391C534.379 514.779 534.008 513.993 533.305 513.884L533 515.861C532.302 515.753 531.934 514.973 532.297 514.365L534.014 515.391ZM523.307 438.918C522.86 438.92 522.5 438.631 522.366 438.259L524.248 437.581C524.113 437.208 523.752 436.917 523.302 436.918L523.307 438.918Z" fill="url(#paint24_linear_5025_10554)" fill-opacity="0.5" mask="url(#path-31-inside-1_5025_10554)"/>
</g>
<g filter="url(#filter10_d_5025_10554)">
<path d="M492.725 218.386C498.826 182.31 533.11 158.082 569.153 164.375L935.862 228.406C971.635 234.653 995.641 268.623 989.586 304.428L946.322 560.25C940.221 596.326 905.936 620.554 869.893 614.261L503.184 550.23C467.412 543.984 443.405 510.013 449.461 474.208L492.725 218.386Z" stroke="url(#paint25_linear_5025_10554)" stroke-opacity="0.3" stroke-width="3" stroke-linecap="round" stroke-dasharray="11 11" shape-rendering="crispEdges"/>
</g>
<g opacity="0.4">
<mask id="path-34-inside-2_5025_10554" fill="white">
<path fill-rule="evenodd" clip-rule="evenodd" d="M568.252 193.574C551.536 190.655 535.618 201.84 532.699 218.557C529.781 235.273 540.966 251.19 557.682 254.109L660.945 272.14C660.945 272.14 660.946 272.14 660.945 272.14V272.14C658.027 288.857 669.212 304.774 685.928 307.693L774.95 323.237C791.666 326.156 807.584 314.971 810.503 298.255V298.255C810.503 298.254 810.503 298.254 810.503 298.254L913.771 316.286C930.487 319.205 946.404 308.02 949.323 291.303C952.242 274.587 941.057 258.67 924.341 255.751L568.252 193.574Z"/>
</mask>
<g filter="url(#filter11_i_5025_10554)">
<path fill-rule="evenodd" clip-rule="evenodd" d="M568.252 193.574C551.536 190.655 535.618 201.84 532.699 218.557C529.781 235.273 540.966 251.19 557.682 254.109L660.945 272.14C660.945 272.14 660.946 272.14 660.945 272.14V272.14C658.027 288.857 669.212 304.774 685.928 307.693L774.95 323.237C791.666 326.156 807.584 314.971 810.503 298.255V298.255C810.503 298.254 810.503 298.254 810.503 298.254L913.771 316.286C930.487 319.205 946.404 308.02 949.323 291.303C952.242 274.587 941.057 258.67 924.341 255.751L568.252 193.574Z" fill="url(#paint26_linear_5025_10554)"/>
</g>
<path d="M568.252 193.574L567.908 195.544L568.252 193.574ZM557.682 254.109L557.338 256.079L557.682 254.109ZM685.928 307.693L686.272 305.723L685.928 307.693ZM774.95 323.237L774.606 325.207L774.95 323.237ZM924.341 255.751L924.685 253.781L924.341 255.751ZM660.945 272.14L661.289 270.17L660.945 272.14ZM534.67 218.901C537.398 203.272 552.28 192.815 567.908 195.544L568.596 191.604C550.792 188.495 533.838 200.408 530.729 218.213L534.67 218.901ZM558.026 252.139C542.398 249.41 531.941 234.529 534.67 218.901L530.729 218.213C527.62 236.017 539.533 252.971 557.338 256.079L558.026 252.139ZM661.289 270.17L558.026 252.139L557.338 256.079L660.601 274.11L661.289 270.17ZM686.272 305.723C670.644 302.994 660.187 288.112 662.916 272.484L658.975 271.796C655.866 289.601 667.78 306.554 685.584 309.663L686.272 305.723ZM775.294 321.267L686.272 305.723L685.584 309.663L774.606 325.207L775.294 321.267ZM808.533 297.91C805.804 313.539 790.922 323.996 775.294 321.267L774.606 325.207C792.411 328.316 809.364 316.403 812.473 298.599L808.533 297.91ZM914.115 314.316L810.847 296.284L810.159 300.224L913.427 318.256L914.115 314.316ZM947.353 290.959C944.624 306.588 929.743 317.045 914.115 314.316L913.427 318.256C931.231 321.365 948.184 309.452 951.293 291.647L947.353 290.959ZM923.997 257.721C939.625 260.45 950.082 275.331 947.353 290.959L951.293 291.647C954.402 273.843 942.489 256.889 924.685 253.781L923.997 257.721ZM567.908 195.544L923.997 257.721L924.685 253.781L568.596 191.604L567.908 195.544ZM812.473 298.599C812.271 299.753 811.179 300.403 810.159 300.224L810.847 296.284C809.827 296.106 808.734 296.755 808.533 297.91L812.473 298.599ZM660.601 274.11C659.513 273.92 658.785 272.884 658.975 271.796L662.916 272.484C663.106 271.396 662.378 270.36 661.289 270.17L660.601 274.11Z" fill="url(#paint27_linear_5025_10554)" mask="url(#path-34-inside-2_5025_10554)"/>
</g>
<mask id="mask1_5025_10554" style="mask-type:alpha" maskUnits="userSpaceOnUse" x="530" y="-131" width="472" height="452">
<path fill-rule="evenodd" clip-rule="evenodd" d="M664.613 -129.943C626.529 -136.593 590.266 -111.111 583.616 -73.0272L530.963 228.516C529.348 237.765 535.537 246.572 544.786 248.187L632.02 263.419C648.341 266.269 658.593 284.469 670.509 295.982C674.773 300.102 680.274 303.035 686.555 304.131L775.577 319.676C781.859 320.772 788.027 319.878 793.436 317.446C808.548 310.653 824.361 297.003 840.683 299.853L927.916 315.085C937.165 316.7 945.972 310.512 947.587 301.263L1000.24 -0.280449C1006.89 -38.3642 981.407 -74.6279 943.323 -81.2777L664.613 -129.943Z" fill="url(#paint28_linear_5025_10554)"/>
</mask>
<g mask="url(#mask1_5025_10554)">
<path d="M765.13 397.239C864.394 388.388 937.132 301.409 928.281 202.144C919.43 102.879 832.451 30.1413 733.186 38.9924C633.921 47.8436 561.183 134.823 570.034 234.088C578.886 333.352 665.865 406.09 765.13 397.239Z" fill="#2775CA"/>
<path d="M927.783 202.188C936.61 301.178 864.075 387.914 765.085 396.741C666.096 405.568 579.359 333.033 570.532 234.043C561.706 135.054 634.241 48.3171 733.23 39.4905C832.22 30.6638 918.956 103.199 927.783 202.188Z" stroke="url(#paint29_linear_5025_10554)" stroke-opacity="0.3"/>
<mask id="mask2_5025_10554" style="mask-type:alpha" maskUnits="userSpaceOnUse" x="569" y="38" width="361" height="360">
<path d="M765.13 397.239C864.394 388.388 937.132 301.409 928.281 202.144C919.43 102.879 832.451 30.1413 733.186 38.9924C633.921 47.8436 561.183 134.823 570.034 234.088C578.886 333.352 665.865 406.09 765.13 397.239Z" fill="#2775CA"/>
</mask>
<g mask="url(#mask2_5025_10554)">
<g filter="url(#filter12_f_5025_10554)">
<path d="M841.471 67.1994C642.664 61.1345 615.279 250.607 626.438 346.102C587.303 300.025 530.489 186.131 616.317 99.1717C702.144 12.2123 802.181 41.6237 841.471 67.1994Z" fill="white" fill-opacity="0.4"/>
</g>
</g>
<path d="M800.946 242.082C798.617 215.961 782.145 208.402 750.466 207.466C727.809 206.477 722.799 200.906 721.867 190.456C720.935 180.006 727.801 172.625 742.727 171.294C756.161 170.096 764.025 173.908 768.754 184.771C769.701 186.943 772.073 188.236 774.312 188.036L786.252 186.972C789.238 186.705 791.277 184.267 791.011 181.282L790.945 180.535C786.495 164.381 771.929 152.892 754.631 152.931L753.033 135.018C752.767 132.032 750.328 129.993 746.531 129.579L735.335 130.577C732.35 130.843 730.31 133.282 729.896 137.081L731.427 154.247C709.302 159.229 696.454 175.42 698.118 194.079C700.314 218.709 716.105 227.079 747.785 228.017C769.016 229.885 776.132 233.764 777.197 245.706C778.262 257.648 768.544 266.789 754.364 268.053C734.958 269.784 727.509 262.172 724.272 251.176C723.26 248.258 720.888 246.964 718.649 247.164L705.96 248.295C702.976 248.561 700.936 251 701.203 253.986L701.269 254.733C705.917 273.124 719.057 285.494 744.019 287.031L745.617 304.943C745.883 307.927 748.321 309.966 752.119 310.381L763.314 309.382C766.3 309.116 768.34 306.678 768.754 302.88L767.157 284.967C789.214 279.238 802.743 262.234 800.946 242.082V242.082Z" fill="white"/>
<path d="M720.618 328.237C660.539 312.531 624.895 250.261 641.416 190.861C649.816 158.516 672.316 132.438 701.917 118.514C704.77 116.756 706.063 114.384 705.73 110.651L704.798 100.203C704.532 97.2165 702.84 95.1105 699.788 94.6316C699.041 94.6982 697.549 94.8313 696.868 95.643C627.962 124.356 595.873 203.199 624.586 272.104C641.747 312.701 676.702 341.933 719.695 351.641C722.814 352.867 725.667 351.108 726.146 348.056C726.826 347.244 726.76 346.497 726.627 345.005L725.695 334.555C725.495 332.316 722.99 329.531 720.618 328.237ZM778.968 88.3225C775.849 87.0966 772.996 88.855 772.517 91.9074C771.836 92.7209 771.903 93.4661 772.036 94.96L772.968 105.408C773.234 108.394 775.739 111.179 778.111 112.473C838.19 128.179 873.834 190.449 857.313 249.849C848.913 282.194 826.413 308.272 796.812 322.196C793.959 323.954 792.666 326.326 792.999 330.059L793.931 340.508C794.197 343.494 795.889 345.6 798.941 346.079C799.688 346.012 801.18 345.879 801.861 345.067C870.767 316.355 902.856 237.512 874.143 168.606C856.916 127.262 821.213 98.0966 778.968 88.3225V88.3225Z" fill="white"/>
<g opacity="0.61" filter="url(#filter13_f_5025_10554)">
<path d="M683.5 295.342L630.934 265.856L573.521 252.83L549.642 237.109L547.338 266.063L677.098 316.241L778.584 333.961L921.542 329.568L930.996 273.273L864.388 279.213L782.314 312.596L683.5 295.342Z" fill="#1E1927"/>
</g>
</g>
<path d="M168.224 351.449C219.887 351.449 261.449 309.887 261.449 258.224C261.449 206.562 219.887 165 168.224 165C116.562 165 75 206.562 75 258.224C75 309.887 116.562 351.449 168.224 351.449Z" fill="#5949A6"/>
<path d="M260.949 258.224C260.949 309.61 219.61 350.949 168.224 350.949C116.838 350.949 75.5 309.61 75.5 258.224C75.5 206.838 116.838 165.5 168.224 165.5C219.61 165.5 260.949 206.838 260.949 258.224Z" stroke="url(#paint30_linear_5025_10554)" stroke-opacity="0.3"/>
<mask id="mask3_5025_10554" style="mask-type:alpha" maskUnits="userSpaceOnUse" x="75" y="165" width="187" height="187">
<path d="M168.224 351.449C219.887 351.449 261.449 309.887 261.449 258.224C261.449 206.562 219.887 165 168.224 165C116.562 165 75 206.562 75 258.224C75 309.887 116.562 351.449 168.224 351.449Z" fill="#2775CA"/>
</mask>
<g mask="url(#mask3_5025_10554)">
<g filter="url(#filter14_f_5025_10554)">
<path d="M222.839 184.55C120.465 172.265 97.602 268.837 98.967 318.659C80.8813 293.065 56.7898 231.642 105.11 190.692C153.43 149.743 203.729 169.535 222.839 184.55Z" fill="white" fill-opacity="0.4"/>
</g>
</g>
<path d="M167.219 201.866V243.533L202.436 259.27L167.219 201.866Z" fill="white" fill-opacity="0.602"/>
<path d="M167.218 201.866L131.996 259.27L167.218 243.533V201.866Z" fill="white"/>
<path d="M167.219 286.271V314.583L202.459 265.828L167.219 286.271Z" fill="white" fill-opacity="0.602"/>
<path d="M167.218 314.583V286.266L131.996 265.828L167.218 314.583Z" fill="white"/>
<path d="M167.219 279.718L202.436 259.27L167.219 243.542V279.718Z" fill="white" fill-opacity="0.2"/>
<path d="M131.996 259.27L167.218 279.718V243.542L131.996 259.27Z" fill="white" fill-opacity="0.602"/>
<path d="M379.044 154.089C411.211 154.089 437.089 128.211 437.089 96.0445C437.089 63.878 411.211 38 379.044 38C346.878 38 321 63.878 321 96.0445C321 128.211 346.878 154.089 379.044 154.089Z" fill="#FFFCFB"/>
<path d="M436.589 96.0445C436.589 127.935 410.935 153.589 379.044 153.589C347.154 153.589 321.5 127.935 321.5 96.0445C321.5 64.1541 347.154 38.5 379.044 38.5C410.935 38.5 436.589 64.1541 436.589 96.0445Z" stroke="url(#paint31_linear_5025_10554)" stroke-opacity="0.39"/>
<mask id="mask4_5025_10554" style="mask-type:alpha" maskUnits="userSpaceOnUse" x="321" y="38" width="117" height="117">
<path d="M379.044 154.089C411.211 154.089 437.089 128.211 437.089 96.0445C437.089 63.878 411.211 38 379.044 38C346.878 38 321 63.878 321 96.0445C321 128.211 346.878 154.089 379.044 154.089Z" fill="#2775CA"/>
</mask>
<g mask="url(#mask4_5025_10554)">
<g filter="url(#filter15_f_5025_10554)">
<path d="M413.047 50.1721C349.306 42.5232 335.071 102.652 335.921 133.673C324.66 117.737 309.66 79.4929 339.746 53.9966C369.831 28.5003 401.149 40.8235 413.047 50.1721Z" fill="white" fill-opacity="0.6"/>
</g>
</g>
<path d="M354.73 110.831C355.164 110.396 355.762 110.143 356.396 110.143H413.875C414.925 110.143 415.45 111.41 414.708 112.153L403.353 123.507C402.919 123.942 402.321 124.196 401.687 124.196H344.208C343.158 124.196 342.633 122.928 343.375 122.185L354.73 110.831Z" fill="url(#paint32_linear_5025_10554)"/>
<path d="M354.73 68.4362C355.182 68.0016 355.78 67.748 356.396 67.748H413.875C414.925 67.748 415.45 69.0157 414.708 69.7582L403.353 81.1128C402.919 81.5474 402.321 81.8009 401.687 81.8009H344.208C343.158 81.8009 342.633 80.5333 343.375 79.7908L354.73 68.4362Z" fill="url(#paint33_linear_5025_10554)"/>
<path d="M403.353 89.4977C402.919 89.0631 402.321 88.8096 401.687 88.8096H344.208C343.158 88.8096 342.633 90.0772 343.375 90.8197L354.73 102.174C355.164 102.609 355.762 102.862 356.396 102.862H413.875C414.925 102.862 415.45 101.595 414.708 100.852L403.353 89.4977Z" fill="url(#paint34_linear_5025_10554)"/>
<g filter="url(#filter16_ii_5025_10554)">
<path d="M1226.41 147.376C1268.78 136.024 1293.73 92.81 1282.38 50.446C1271.02 8.08192 1227.81 -16.8678 1185.45 -5.51634C1143.08 5.83507 1118.13 49.0492 1129.48 91.4132C1140.84 133.777 1184.05 158.727 1226.41 147.376Z" fill="url(#paint35_radial_5025_10554)"/>
</g>
<g filter="url(#filter17_di_5025_10554)">
<path d="M1215.22 84.673C1213.36 98.4081 1205.63 109.244 1193.94 113.703C1193.69 113.807 1190.47 114.948 1188.62 115.3C1205.67 121.903 1222.95 119.137 1222.95 119.137C1226.65 118.541 1230.81 117.752 1234.87 116.549C1235.3 112.402 1234.96 107.88 1233.42 103.057C1229.84 91.856 1234.86 84.2684 1241.18 79.3716C1236.02 74.7047 1231.46 68.5976 1227.88 62.6971C1222.71 65.6675 1216.9 72.2142 1215.22 84.673Z" fill="url(#paint36_linear_5025_10554)"/>
<path d="M1233.17 103.038C1234.72 107.86 1234.92 112.53 1234.49 116.677C1244.97 113.569 1255.22 107.593 1254.96 95.362C1254.91 92.7674 1254.27 90.1009 1252.66 88.0668C1251.09 86.0852 1248.77 84.8908 1246.63 83.5415C1244.62 82.2435 1242.72 80.7812 1240.95 79.1697C1234.64 84.0661 1229.6 91.8379 1233.17 103.038Z" fill="url(#paint37_linear_5025_10554)"/>
<path d="M1227.18 61.5324C1224.39 57.6247 1221.84 53.6475 1218.66 50.1666C1217.59 48.9903 1216.45 47.8879 1215.23 46.867C1212.3 44.4269 1209.25 42.1022 1205.87 40.3352C1201.2 41.6013 1196.1 42.1254 1191.02 41.031C1188.22 48.6567 1185.96 60.9238 1194.03 72.0744C1205.93 88.5422 1195.1 104.88 1188.07 115.082L1188.62 115.3C1190.37 114.976 1192.08 114.492 1193.73 113.853C1205.42 109.393 1213.67 98.2059 1215.53 84.472C1217.21 72.0129 1222.88 65.9311 1228.04 62.9615C1227.74 62.4868 1227.45 62.0104 1227.18 61.5324Z" fill="url(#paint38_linear_5025_10554)"/>
<path d="M1161.07 53.0667C1156.15 62.5593 1155.35 74.2686 1158.28 84.702C1159.99 90.7731 1163.13 96.0736 1167.17 100.633C1167.77 101.317 1168.4 101.984 1169.05 102.634C1179.75 84.0187 1168.59 63.5427 1161.07 53.0667Z" fill="url(#paint39_linear_5025_10554)"/>
<path d="M1194.27 72.0085C1186.21 60.853 1188.37 48.6883 1191.17 41.0654C1187.78 40.3303 1184.56 38.9394 1181.71 36.9712C1178.17 37.8465 1174.81 39.3209 1171.77 41.3305C1166.92 44.5199 1163.25 48.8213 1160.71 53.7268C1168.07 63.973 1178.98 84.0024 1168.52 102.208C1172.51 106.228 1177.23 109.601 1182.24 112.344C1184.22 113.424 1186.27 114.377 1188.37 115.198C1195.4 105 1206.18 88.4762 1194.27 72.0085Z" fill="url(#paint40_linear_5025_10554)"/>
</g>
<g filter="url(#filter18_di_5025_10554)">
<path d="M1200.43 24.3831C1211.39 25.638 1218.62 24.8372 1223.61 23.3374L1223.73 23.205C1196.41 -3.75497 1178.64 27.9956 1178.64 27.9956L1178.69 28.0488C1183.73 25.6944 1191.34 23.3434 1200.43 24.3831Z" fill="url(#paint41_linear_5025_10554)"/>
<path d="M1200.5 24.1283C1191.41 23.0921 1183.71 25.2865 1178.69 28.0496C1199.41 48.9906 1221.79 25.3342 1223.61 23.3383C1218.61 24.839 1211.46 25.3832 1200.5 24.1283Z" fill="url(#paint42_linear_5025_10554)"/>
</g>
<mask id="mask5_5025_10554" style="mask-type:alpha" maskUnits="userSpaceOnUse" x="1126" y="-9" width="160" height="160">
<path d="M1226.41 147.376C1268.78 136.024 1293.73 92.81 1282.38 50.446C1271.02 8.08193 1227.81 -16.8678 1185.45 -5.51634C1143.08 5.83507 1118.13 49.0492 1129.48 91.4132C1140.84 133.777 1184.05 158.727 1226.41 147.376Z" fill="#2775CA"/>
</mask>
<g mask="url(#mask5_5025_10554)">
<g filter="url(#filter19_f_5025_10554)">
<path d="M1234.52 -1.48467C1147.88 10.9354 1150.35 95.1501 1162.41 135.705C1141.96 118.692 1108.71 73.6164 1139.33 29.42C1169.96 -14.7763 1215.55 -9.59824 1234.52 -1.48467Z" fill="white"/>
</g>
</g>
</g>
<defs>
<filter id="filter0_f_5025_10554" x="-125.738" y="-800.445" width="1531.37" height="1356.91" filterUnits="userSpaceOnUse" color-interpolation-filters="sRGB">
<feFlood flood-opacity="0" result="BackgroundImageFix"/>
<feBlend mode="normal" in="SourceGraphic" in2="BackgroundImageFix" result="shape"/>
<feGaussianBlur stdDeviation="282" result="effect1_foregroundBlur_5025_10554"/>
</filter>
<filter id="filter1_f_5025_10554" x="302.379" y="-635.703" width="1401.16" height="1283.01" filterUnits="userSpaceOnUse" color-interpolation-filters="sRGB">
<feFlood flood-opacity="0" result="BackgroundImageFix"/>
<feBlend mode="normal" in="SourceGraphic" in2="BackgroundImageFix" result="shape"/>
<feGaussianBlur stdDeviation="282" result="effect1_foregroundBlur_5025_10554"/>
</filter>
<filter id="filter2_f_5025_10554" x="-469.539" y="-664.562" width="1616.03" height="1404.83" filterUnits="userSpaceOnUse" color-interpolation-filters="sRGB">
<feFlood flood-opacity="0" result="BackgroundImageFix"/>
<feBlend mode="normal" in="SourceGraphic" in2="BackgroundImageFix" result="shape"/>
<feGaussianBlur stdDeviation="282" result="effect1_foregroundBlur_5025_10554"/>
</filter>
<filter id="filter3_f_5025_10554" x="-144.125" y="-573.805" width="1779.32" height="1497.24" filterUnits="userSpaceOnUse" color-interpolation-filters="sRGB">
<feFlood flood-opacity="0" result="BackgroundImageFix"/>
<feBlend mode="normal" in="SourceGraphic" in2="BackgroundImageFix" result="shape"/>
<feGaussianBlur stdDeviation="282" result="effect1_foregroundBlur_5025_10554"/>
</filter>
<filter id="filter4_b_5025_10554" x="54.6289" y="47.7129" width="192.02" height="192.019" filterUnits="userSpaceOnUse" color-interpolation-filters="sRGB">
<feFlood flood-opacity="0" result="BackgroundImageFix"/>
<feGaussianBlur in="BackgroundImageFix" stdDeviation="27"/>
<feComposite in2="SourceAlpha" operator="in" result="effect1_backgroundBlur_5025_10554"/>
<feBlend mode="normal" in="SourceGraphic" in2="effect1_backgroundBlur_5025_10554" result="shape"/>
</filter>
<filter id="filter5_b_5025_10554" x="263.203" y="149.13" width="140.953" height="140.955" filterUnits="userSpaceOnUse" color-interpolation-filters="sRGB">
<feFlood flood-opacity="0" result="BackgroundImageFix"/>
<feGaussianBlur in="BackgroundImageFix" stdDeviation="27"/>
<feComposite in2="SourceAlpha" operator="in" result="effect1_backgroundBlur_5025_10554"/>
<feBlend mode="normal" in="SourceGraphic" in2="effect1_backgroundBlur_5025_10554" result="shape"/>
</filter>
<filter id="filter6_b_5025_10554" x="834.223" y="26.1602" width="188.77" height="188.77" filterUnits="userSpaceOnUse" color-interpolation-filters="sRGB">
<feFlood flood-opacity="0" result="BackgroundImageFix"/>
<feGaussianBlur in="BackgroundImageFix" stdDeviation="27"/>
<feComposite in2="SourceAlpha" operator="in" result="effect1_backgroundBlur_5025_10554"/>
<feBlend mode="normal" in="SourceGraphic" in2="effect1_backgroundBlur_5025_10554" result="shape"/>
</filter>
<filter id="filter7_b_5025_10554" x="1186.8" y="218.819" width="137.148" height="137.148" filterUnits="userSpaceOnUse" color-interpolation-filters="sRGB">
<feFlood flood-opacity="0" result="BackgroundImageFix"/>
<feGaussianBlur in="BackgroundImageFix" stdDeviation="27"/>
<feComposite in2="SourceAlpha" operator="in" result="effect1_backgroundBlur_5025_10554"/>
<feBlend mode="normal" in="SourceGraphic" in2="effect1_backgroundBlur_5025_10554" result="shape"/>
</filter>
<filter id="filter8_bd_5025_10554" x="325.145" y="51.4648" width="786.887" height="694.306" filterUnits="userSpaceOnUse" color-interpolation-filters="sRGB">
<feFlood flood-opacity="0" result="BackgroundImageFix"/>
<feGaussianBlur in="BackgroundImageFix" stdDeviation="30"/>
<feComposite in2="SourceAlpha" operator="in" result="effect1_backgroundBlur_5025_10554"/>
<feColorMatrix in="SourceAlpha" type="matrix" values="0 0 0 0 0 0 0 0 0 0 0 0 0 0 0 0 0 0 127 0" result="hardAlpha"/>
<feOffset dy="10"/>
<feGaussianBlur stdDeviation="54"/>
<feComposite in2="hardAlpha" operator="out"/>
<feColorMatrix type="matrix" values="0 0 0 0 0 0 0 0 0 0 0 0 0 0 0 0 0 0 0.25 0"/>
<feBlend mode="normal" in2="effect1_backgroundBlur_5025_10554" result="effect2_dropShadow_5025_10554"/>
<feBlend mode="normal" in="SourceGraphic" in2="effect2_dropShadow_5025_10554" result="shape"/>
</filter>
<filter id="filter9_d_5025_10554" x="457.551" y="403.219" width="131.52" height="150.096" filterUnits="userSpaceOnUse" color-interpolation-filters="sRGB">
<feFlood flood-opacity="0" result="BackgroundImageFix"/>
<feColorMatrix in="SourceAlpha" type="matrix" values="0 0 0 0 0 0 0 0 0 0 0 0 0 0 0 0 0 0 127 0" result="hardAlpha"/>
<feOffset dy="4"/>
<feGaussianBlur stdDeviation="17"/>
<feComposite in2="hardAlpha" operator="out"/>
<feColorMatrix type="matrix" values="0 0 0 0 0 0 0 0 0 0 0 0 0 0 0 0 0 0 0.18 0"/>
<feBlend mode="normal" in2="BackgroundImageFix" result="effect1_dropShadow_5025_10554"/>
<feBlend mode="normal" in="SourceGraphic" in2="effect1_dropShadow_5025_10554" result="shape"/>
</filter>
<filter id="filter10_d_5025_10554" x="383.172" y="102.009" width="672.703" height="582.617" filterUnits="userSpaceOnUse" color-interpolation-filters="sRGB">
<feFlood flood-opacity="0" result="BackgroundImageFix"/>
<feColorMatrix in="SourceAlpha" type="matrix" values="0 0 0 0 0 0 0 0 0 0 0 0 0 0 0 0 0 0 127 0" result="hardAlpha"/>
<feOffset dy="4"/>
<feGaussianBlur stdDeviation="32"/>
<feComposite in2="hardAlpha" operator="out"/>
<feColorMatrix type="matrix" values="0 0 0 0 0 0 0 0 0 0 0 0 0 0 0 0 0 0 0.15 0"/>
<feBlend mode="normal" in2="BackgroundImageFix" result="effect1_dropShadow_5025_10554"/>
<feBlend mode="normal" in="SourceGraphic" in2="effect1_dropShadow_5025_10554" result="shape"/>
</filter>
<filter id="filter11_i_5025_10554" x="532.238" y="188.111" width="417.547" height="135.589" filterUnits="userSpaceOnUse" color-interpolation-filters="sRGB">
<feFlood flood-opacity="0" result="BackgroundImageFix"/>
<feBlend mode="normal" in="SourceGraphic" in2="BackgroundImageFix" result="shape"/>
<feColorMatrix in="SourceAlpha" type="matrix" values="0 0 0 0 0 0 0 0 0 0 0 0 0 0 0 0 0 0 127 0" result="hardAlpha"/>
<feOffset dy="-5"/>
<feGaussianBlur stdDeviation="3.5"/>
<feComposite in2="hardAlpha" operator="arithmetic" k2="-1" k3="1"/>
<feColorMatrix type="matrix" values="0 0 0 0 0 0 0 0 0 0 0 0 0 0 0 0 0 0 0.25 0"/>
<feBlend mode="normal" in2="shape" result="effect1_innerShadow_5025_10554"/>
</filter>
<filter id="filter12_f_5025_10554" x="527.465" y="-3.02051" width="358.008" height="393.122" filterUnits="userSpaceOnUse" color-interpolation-filters="sRGB">
<feFlood flood-opacity="0" result="BackgroundImageFix"/>
<feBlend mode="normal" in="SourceGraphic" in2="BackgroundImageFix" result="shape"/>
<feGaussianBlur stdDeviation="22" result="effect1_foregroundBlur_5025_10554"/>
</filter>
<filter id="filter13_f_5025_10554" x="523.34" y="213.109" width="431.656" height="144.852" filterUnits="userSpaceOnUse" color-interpolation-filters="sRGB">
<feFlood flood-opacity="0" result="BackgroundImageFix"/>
<feBlend mode="normal" in="SourceGraphic" in2="BackgroundImageFix" result="shape"/>
<feGaussianBlur stdDeviation="12" result="effect1_foregroundBlur_5025_10554"/>
</filter>
<filter id="filter14_f_5025_10554" x="32.7031" y="122.336" width="234.137" height="240.323" filterUnits="userSpaceOnUse" color-interpolation-filters="sRGB">
<feFlood flood-opacity="0" result="BackgroundImageFix"/>
<feBlend mode="normal" in="SourceGraphic" in2="BackgroundImageFix" result="shape"/>
<feGaussianBlur stdDeviation="22" result="effect1_foregroundBlur_5025_10554"/>
</filter>
<filter id="filter15_f_5025_10554" x="278.059" y="-5.16846" width="178.988" height="182.841" filterUnits="userSpaceOnUse" color-interpolation-filters="sRGB">
<feFlood flood-opacity="0" result="BackgroundImageFix"/>
<feBlend mode="normal" in="SourceGraphic" in2="BackgroundImageFix" result="shape"/>
<feGaussianBlur stdDeviation="22" result="effect1_foregroundBlur_5025_10554"/>
</filter>
<filter id="filter16_ii_5025_10554" x="1126.75" y="-8.25537" width="158.367" height="158.37" filterUnits="userSpaceOnUse" color-interpolation-filters="sRGB">
<feFlood flood-opacity="0" result="BackgroundImageFix"/>
<feBlend mode="normal" in="SourceGraphic" in2="BackgroundImageFix" result="shape"/>
<feColorMatrix in="SourceAlpha" type="matrix" values="0 0 0 0 0 0 0 0 0 0 0 0 0 0 0 0 0 0 127 0" result="hardAlpha"/>
<feOffset dy="-4"/>
<feComposite in2="hardAlpha" operator="arithmetic" k2="-1" k3="1"/>
<feColorMatrix type="matrix" values="0 0 0 0 0.2 0 0 0 0 0.184314 0 0 0 0 0.270588 0 0 0 0.1 0"/>
<feBlend mode="normal" in2="shape" result="effect1_innerShadow_5025_10554"/>
<feColorMatrix in="SourceAlpha" type="matrix" values="0 0 0 0 0 0 0 0 0 0 0 0 0 0 0 0 0 0 127 0" result="hardAlpha"/>
<feOffset dy="4"/>
<feComposite in2="hardAlpha" operator="arithmetic" k2="-1" k3="1"/>
<feColorMatrix type="matrix" values="0 0 0 0 0.2 0 0 0 0 0.184314 0 0 0 0 0.270588 0 0 0 0.1 0"/>
<feBlend mode="normal" in2="effect1_innerShadow_5025_10554" result="effect2_innerShadow_5025_10554"/>
</filter>
<filter id="filter17_di_5025_10554" x="1156.58" y="33.9712" width="98.3867" height="86.7407" filterUnits="userSpaceOnUse" color-interpolation-filters="sRGB">
<feFlood flood-opacity="0" result="BackgroundImageFix"/>
<feColorMatrix in="SourceAlpha" type="matrix" values="0 0 0 0 0 0 0 0 0 0 0 0 0 0 0 0 0 0 127 0" result="hardAlpha"/>
<feOffset dy="1"/>
<feColorMatrix type="matrix" values="0 0 0 0 1 0 0 0 0 1 0 0 0 0 1 0 0 0 1 0"/>
<feBlend mode="normal" in2="BackgroundImageFix" result="effect1_dropShadow_5025_10554"/>
<feBlend mode="normal" in="SourceGraphic" in2="effect1_dropShadow_5025_10554" result="shape"/>
<feColorMatrix in="SourceAlpha" type="matrix" values="0 0 0 0 0 0 0 0 0 0 0 0 0 0 0 0 0 0 127 0" result="hardAlpha"/>
<feOffset dy="-5"/>
<feGaussianBlur stdDeviation="1.5"/>
<feComposite in2="hardAlpha" operator="arithmetic" k2="-1" k3="1"/>
<feColorMatrix type="matrix" values="0 0 0 0 0 0 0 0 0 0 0 0 0 0 0 0 0 0 0.12 0"/>
<feBlend mode="normal" in2="shape" result="effect2_innerShadow_5025_10554"/>
</filter>
<filter id="filter18_di_5025_10554" x="1178.64" y="9.3501" width="45.0898" height="28.2949" filterUnits="userSpaceOnUse" color-interpolation-filters="sRGB">
<feFlood flood-opacity="0" result="BackgroundImageFix"/>
<feColorMatrix in="SourceAlpha" type="matrix" values="0 0 0 0 0 0 0 0 0 0 0 0 0 0 0 0 0 0 127 0" result="hardAlpha"/>
<feOffset dy="1"/>
<feColorMatrix type="matrix" values="0 0 0 0 1 0 0 0 0 1 0 0 0 0 1 0 0 0 1 0"/>
<feBlend mode="normal" in2="BackgroundImageFix" result="effect1_dropShadow_5025_10554"/>
<feBlend mode="normal" in="SourceGraphic" in2="effect1_dropShadow_5025_10554" result="shape"/>
<feColorMatrix in="SourceAlpha" type="matrix" values="0 0 0 0 0 0 0 0 0 0 0 0 0 0 0 0 0 0 127 0" result="hardAlpha"/>
<feOffset dy="-5"/>
<feGaussianBlur stdDeviation="1.5"/>
<feComposite in2="hardAlpha" operator="arithmetic" k2="-1" k3="1"/>
<feColorMatrix type="matrix" values="0 0 0 0 0 0 0 0 0 0 0 0 0 0 0 0 0 0 0.12 0"/>
<feBlend mode="normal" in2="shape" result="effect2_innerShadow_5025_10554"/>
</filter>
<filter id="filter19_f_5025_10554" x="1082.93" y="-50.9395" width="195.59" height="230.645" filterUnits="userSpaceOnUse" color-interpolation-filters="sRGB">
<feFlood flood-opacity="0" result="BackgroundImageFix"/>
<feBlend mode="normal" in="SourceGraphic" in2="BackgroundImageFix" result="shape"/>
<feGaussianBlur stdDeviation="22" result="effect1_foregroundBlur_5025_10554"/>
</filter>
<radialGradient id="paint0_radial_5025_10554" cx="0" cy="0" r="1" gradientUnits="userSpaceOnUse" gradientTransform="translate(791.469 211.12) rotate(179.566) scale(34.0686 13752.8)">
<stop stop-color="white"/>
<stop offset="1" stop-color="white" stop-opacity="0"/>
</radialGradient>
<radialGradient id="paint1_radial_5025_10554" cx="0" cy="0" r="1" gradientUnits="userSpaceOnUse" gradientTransform="translate(890.512 126.034) rotate(179.68) scale(46.2353 13753)">
<stop stop-color="white"/>
<stop offset="1" stop-color="white" stop-opacity="0"/>
</radialGradient>
<radialGradient id="paint2_radial_5025_10554" cx="0" cy="0" r="1" gradientUnits="userSpaceOnUse" gradientTransform="translate(819.63 40.9487) rotate(179.722) scale(53.093 13753)">
<stop stop-color="white"/>
<stop offset="1" stop-color="white" stop-opacity="0"/>
</radialGradient>
<radialGradient id="paint3_radial_5025_10554" cx="0" cy="0" r="1" gradientUnits="userSpaceOnUse" gradientTransform="translate(826.922 -417.913) rotate(179.566) scale(34.0686 13752.8)">
<stop stop-color="white"/>
<stop offset="1" stop-color="white" stop-opacity="0"/>
</radialGradient>
<radialGradient id="paint4_radial_5025_10554" cx="0" cy="0" r="1" gradientUnits="userSpaceOnUse" gradientTransform="translate(1041.43 -448.303) rotate(179.68) scale(46.2353 13753)">
<stop stop-color="white"/>
<stop offset="1" stop-color="white" stop-opacity="0"/>
</radialGradient>
<radialGradient id="paint5_radial_5025_10554" cx="0" cy="0" r="1" gradientUnits="userSpaceOnUse" gradientTransform="translate(1459.07 -628.605) rotate(179.76) scale(61.4992 13753.1)">
<stop stop-color="white"/>
<stop offset="1" stop-color="white" stop-opacity="0"/>
</radialGradient>
<radialGradient id="paint6_radial_5025_10554" cx="0" cy="0" r="1" gradientUnits="userSpaceOnUse" gradientTransform="translate(1473.56 -567.828) rotate(179.731) scale(54.8627 13753)">
<stop stop-color="white"/>
<stop offset="1" stop-color="white" stop-opacity="0"/>
</radialGradient>
<radialGradient id="paint7_radial_5025_10554" cx="0" cy="0" r="1" gradientUnits="userSpaceOnUse" gradientTransform="translate(1199.47 -592.141) rotate(179.722) scale(53.093 13753)">
<stop stop-color="white"/>
<stop offset="1" stop-color="white" stop-opacity="0"/>
</radialGradient>
<radialGradient id="paint8_radial_5025_10554" cx="0" cy="0" r="1" gradientUnits="userSpaceOnUse" gradientTransform="translate(1373.98 -669.124) rotate(179.76) scale(61.4992 13753.1)">
<stop stop-color="white"/>
<stop offset="1" stop-color="white" stop-opacity="0"/>
</radialGradient>
<radialGradient id="paint9_radial_5025_10554" cx="0" cy="0" r="1" gradientUnits="userSpaceOnUse" gradientTransform="translate(1495.11 -452.354) rotate(179.698) scale(48.8899 13753)">
<stop stop-color="white"/>
<stop offset="1" stop-color="white" stop-opacity="0"/>
</radialGradient>
<radialGradient id="paint10_radial_5025_10554" cx="0" cy="0" r="1" gradientUnits="userSpaceOnUse" gradientTransform="translate(1488.42 -474.638) rotate(179.633) scale(40.2625 13752.9)">
<stop stop-color="white"/>
<stop offset="1" stop-color="white" stop-opacity="0"/>
</radialGradient>
<linearGradient id="paint11_linear_5025_10554" x1="150.639" y1="101.722" x2="150.639" y2="221.722" gradientUnits="userSpaceOnUse">
<stop stop-color="#AFD803" stop-opacity="0"/>
<stop offset="1" stop-color="#AFD803"/>
</linearGradient>
<linearGradient id="paint12_linear_5025_10554" x1="928.607" y1="80.1683" x2="928.607" y2="195.531" gradientUnits="userSpaceOnUse">
<stop stop-color="#E54033" stop-opacity="0"/>
<stop offset="1" stop-color="#E54033"/>
</linearGradient>
<linearGradient id="paint13_linear_5025_10554" x1="10.7731" y1="226.262" x2="136.976" y2="163.382" gradientUnits="userSpaceOnUse">
<stop stop-color="#FECA1A" stop-opacity="0"/>
<stop offset="1" stop-color="#FECA1A"/>
</linearGradient>
<linearGradient id="paint14_linear_5025_10554" x1="278.683" y1="251.711" x2="328.184" y2="227.047" gradientUnits="userSpaceOnUse">
<stop stop-color="#FECA1A" stop-opacity="0"/>
<stop offset="1" stop-color="#FECA1A"/>
</linearGradient>
<linearGradient id="paint15_linear_5025_10554" x1="1079.03" y1="78.7205" x2="946.196" y2="105.709" gradientUnits="userSpaceOnUse">
<stop stop-color="#FECA1A" stop-opacity="0"/>
<stop offset="1" stop-color="#FECA1A"/>
</linearGradient>
<linearGradient id="paint16_linear_5025_10554" x1="1309.72" y1="272.614" x2="1261.78" y2="282.353" gradientUnits="userSpaceOnUse">
<stop stop-color="#FECA1A" stop-opacity="0"/>
<stop offset="1" stop-color="#FECA1A"/>
</linearGradient>
<linearGradient id="paint17_linear_5025_10554" x1="-25.8988" y1="226.656" x2="100.304" y2="163.776" gradientUnits="userSpaceOnUse">
<stop stop-color="#FECA1A" stop-opacity="0"/>
<stop offset="1" stop-color="#FECA1A"/>
</linearGradient>
<linearGradient id="paint18_linear_5025_10554" x1="264.3" y1="251.867" x2="313.802" y2="227.203" gradientUnits="userSpaceOnUse">
<stop stop-color="#FECA1A" stop-opacity="0"/>
<stop offset="1" stop-color="#FECA1A"/>
</linearGradient>
<linearGradient id="paint19_linear_5025_10554" x1="1113.19" y1="87.4783" x2="980.348" y2="114.467" gradientUnits="userSpaceOnUse">
<stop stop-color="#FECA1A" stop-opacity="0"/>
<stop offset="1" stop-color="#FECA1A"/>
</linearGradient>
<linearGradient id="paint20_linear_5025_10554" x1="1322.04" y1="275.774" x2="1274.11" y2="285.513" gradientUnits="userSpaceOnUse">
<stop stop-color="#FECA1A" stop-opacity="0"/>
<stop offset="1" stop-color="#FECA1A"/>
</linearGradient>
<linearGradient id="paint21_linear_5025_10554" x1="988.004" y1="93.6077" x2="809.565" y2="822.642" gradientUnits="userSpaceOnUse">
<stop stop-color="#3B3349"/>
<stop offset="1" stop-color="#36333B"/>
</linearGradient>
<linearGradient id="paint22_linear_5025_10554" x1="468.114" y1="79.3581" x2="569.896" y2="670.853" gradientUnits="userSpaceOnUse">
<stop stop-color="white" stop-opacity="0.1"/>
<stop offset="1" stop-color="white" stop-opacity="0.08"/>
</linearGradient>
<linearGradient id="paint23_linear_5025_10554" x1="563.051" y1="428.588" x2="491.146" y2="550.595" gradientUnits="userSpaceOnUse">
<stop stop-color="#B6A5FF"/>
<stop offset="1" stop-color="#5B48AD"/>
</linearGradient>
<linearGradient id="paint24_linear_5025_10554" x1="498.467" y1="421.316" x2="510.549" y2="534.252" gradientUnits="userSpaceOnUse">
<stop stop-color="#E0D9FF" stop-opacity="0.98"/>
<stop offset="1" stop-color="#BDAEFF" stop-opacity="0.52"/>
</linearGradient>
<linearGradient id="paint25_linear_5025_10554" x1="494.103" y1="127.785" x2="499.156" y2="686.664" gradientUnits="userSpaceOnUse">
<stop stop-color="#E0D9FF" stop-opacity="0.98"/>
<stop offset="1" stop-color="#BDAEFF" stop-opacity="0.52"/>
</linearGradient>
<linearGradient id="paint26_linear_5025_10554" x1="928.729" y1="246.452" x2="887.975" y2="412.469" gradientUnits="userSpaceOnUse">
<stop stop-color="#342D3F"/>
<stop offset="1" stop-color="#36333B"/>
</linearGradient>
<linearGradient id="paint27_linear_5025_10554" x1="520.258" y1="171.921" x2="503.424" y2="305.755" gradientUnits="userSpaceOnUse">
<stop stop-color="#4C474B"/>
<stop offset="1" stop-color="white" stop-opacity="0.08"/>
</linearGradient>
<linearGradient id="paint28_linear_5025_10554" x1="992.604" y1="-119.347" x2="643.907" y2="553.471" gradientUnits="userSpaceOnUse">
<stop stop-color="#342D3F"/>
<stop offset="1" stop-color="#36333B"/>
</linearGradient>
<linearGradient id="paint29_linear_5025_10554" x1="579.836" y1="4.44537" x2="910.097" y2="425.806" gradientUnits="userSpaceOnUse">
<stop stop-color="white"/>
<stop offset="1" stop-color="white" stop-opacity="0.08"/>
</linearGradient>
<linearGradient id="paint30_linear_5025_10554" x1="90.6339" y1="140.102" x2="241.762" y2="372.873" gradientUnits="userSpaceOnUse">
<stop stop-color="white"/>
<stop offset="1" stop-color="white" stop-opacity="0.08"/>
</linearGradient>
<linearGradient id="paint31_linear_5025_10554" x1="351.078" y1="46.4429" x2="413.872" y2="154.09" gradientUnits="userSpaceOnUse">
<stop stop-color="#24DCB3"/>
<stop offset="1" stop-color="#D428FC"/>
</linearGradient>
<linearGradient id="paint32_linear_5025_10554" x1="408.384" y1="60.9654" x2="368.604" y2="137.161" gradientUnits="userSpaceOnUse">
<stop stop-color="#00FFA3"/>
<stop offset="1" stop-color="#DC1FFF"/>
</linearGradient>
<linearGradient id="paint33_linear_5025_10554" x1="390.99" y1="51.884" x2="351.21" y2="128.079" gradientUnits="userSpaceOnUse">
<stop stop-color="#00FFA3"/>
<stop offset="1" stop-color="#DC1FFF"/>
</linearGradient>
<linearGradient id="paint34_linear_5025_10554" x1="399.632" y1="56.396" x2="359.851" y2="132.591" gradientUnits="userSpaceOnUse">
<stop stop-color="#00FFA3"/>
<stop offset="1" stop-color="#DC1FFF"/>
</linearGradient>
<radialGradient id="paint35_radial_5025_10554" cx="0" cy="0" r="1" gradientUnits="userSpaceOnUse" gradientTransform="translate(1368.77 118.114) rotate(-154.444) scale(356.893)">
<stop stop-color="#FFE9E8"/>
<stop offset="0.53125" stop-color="#FFF8E1"/>
<stop offset="1" stop-color="#F5FFCA"/>
</radialGradient>
<linearGradient id="paint36_linear_5025_10554" x1="1177.02" y1="119.337" x2="1244.18" y2="82.6192" gradientUnits="userSpaceOnUse">
<stop offset="0.21" stop-color="#E54033"/>
<stop offset="0.84" stop-color="#FECA1A"/>
</linearGradient>
<linearGradient id="paint37_linear_5025_10554" x1="1232.33" y1="99.3257" x2="1254.54" y2="93.5521" gradientUnits="userSpaceOnUse">
<stop stop-color="#FECA1A"/>
<stop offset="0.4" stop-color="#FECA1A"/>
<stop offset="1" stop-color="#AFD803"/>
</linearGradient>
<linearGradient id="paint38_linear_5025_10554" x1="1183.57" y1="118.064" x2="1212.53" y2="44.3572" gradientUnits="userSpaceOnUse">
<stop offset="0.16" stop-color="#E54033"/>
<stop offset="0.84" stop-color="#FECA1A"/>
</linearGradient>
<linearGradient id="paint39_linear_5025_10554" x1="1160.57" y1="58.7012" x2="1169.21" y2="98.9819" gradientUnits="userSpaceOnUse">
<stop stop-color="#FECA1A"/>
<stop offset="0.76" stop-color="#E54033"/>
</linearGradient>
<linearGradient id="paint40_linear_5025_10554" x1="1180.03" y1="42.4238" x2="1180.25" y2="91.7664" gradientUnits="userSpaceOnUse">
<stop offset="0.16" stop-color="#FECA1A"/>
<stop offset="1" stop-color="#E54033"/>
</linearGradient>
<linearGradient id="paint41_linear_5025_10554" x1="1178.82" y1="19.0983" x2="1228.2" y2="23.6216" gradientUnits="userSpaceOnUse">
<stop offset="0.15" stop-color="#6CBF00"/>
<stop offset="1" stop-color="#AFD803"/>
</linearGradient>
<linearGradient id="paint42_linear_5025_10554" x1="34600.4" y1="-4829.92" x2="25444.7" y2="-10289.8" gradientUnits="userSpaceOnUse">
<stop offset="0.15" stop-color="#6CBF00"/>
<stop offset="1" stop-color="#AFD803"/>
</linearGradient>
</defs>
</svg>
