<svg width="716" height="863" viewBox="0 0 716 863" fill="none" xmlns="http://www.w3.org/2000/svg">
<path fill-rule="evenodd" clip-rule="evenodd" d="M620.214 132.628C620.228 132.628 620.242 132.628 620.256 132.627L621.436 131.867C469.016 -128.133 269.716 76.5671 269.716 76.5671L270.001 77.0685C269.989 77.0714 269.978 77.0743 269.966 77.0772C384.572 278.01 602.38 144.087 620.214 132.628ZM337.092 200.616L337.106 200.597C373.396 219.217 413.106 225.597 451.106 225.487C473.186 245.767 491.556 269.587 508.816 294.047C515.973 304.264 522.428 314.955 528.136 326.047C541.335 351.462 551.042 378.354 560.863 405.563L560.868 405.577C563.747 413.553 566.636 421.556 569.626 429.557C570.563 432.982 571.542 436.411 572.563 439.841L572.616 439.827C587.786 491.857 609.936 547.437 639.616 593.327L639.586 593.34C649.404 608.414 660.401 622.688 672.476 636.027C674.853 638.598 677.283 641.145 679.717 643.695L679.718 643.695L679.718 643.696L679.719 643.697L679.72 643.697L679.72 643.698C691.088 655.607 702.536 667.601 709.026 682.607C717.106 701.307 716.486 722.817 711.626 742.607C688.696 835.887 598.866 860.397 513.016 862.657L513.057 862.55C480.868 863.191 448.902 860.792 420.556 857.887C420.556 857.887 283.846 843.737 167.966 759.017L164.226 756.237L164.226 756.236C150.7 746.157 137.796 735.268 125.586 723.627C93.1058 692.627 64.2058 657.467 42.1058 618.867L42.2436 618.729C42.3453 618.626 42.4469 618.524 42.5484 618.422C39.9328 613.715 37.4253 608.961 35.0258 604.157C13.6458 561.367 0.615794 514.787 0.0257941 465.277C-0.979837 382.2 27.4411 297.122 81.4634 235.44L81.4058 235.287C110.656 203.247 147.216 178.077 190.496 163.747C217.629 154.681 246.114 150.328 274.716 150.877C292.121 171.314 313.299 188.201 337.092 200.616Z" fill="#1C1923"/>
</svg>
