<svg width="439" height="439" viewBox="0 0 439 439" fill="none" xmlns="http://www.w3.org/2000/svg">
<path d="M439 219.5C439 340.727 340.727 439 219.5 439C98.2735 439 0 340.727 0 219.5C0 98.2735 98.2735 0 219.5 0C340.727 0 439 98.2735 439 219.5Z" fill="#FFD15C"/>
<path d="M113.184 309.447C115.078 308.161 116.846 306.233 117.726 303.498C118.704 300.458 118.127 297.783 117.669 296.302C117.654 296.253 117.638 296.203 117.622 296.154L117.987 294.023C118.995 294.59 120.155 295.352 121.478 296.282C121.797 296.506 122.243 296.824 122.707 297.155C123.316 297.59 123.958 298.048 124.386 298.346C125.121 298.857 126.165 299.57 127.271 300.157C156.542 318.35 180.749 325.85 199.976 324.921C219.854 323.96 233.794 313.96 240.985 299.367C247.935 285.261 248.177 267.782 243.306 251.59C238.405 235.293 228.095 219.455 212.728 208.494C186.834 190.026 163.107 161.944 151.109 138.066C145.016 125.939 142.592 116.159 143.232 109.773C143.529 106.801 144.44 105.003 145.529 103.846C146.619 102.688 148.605 101.411 152.431 100.781C160.535 99.4461 169.908 96.5274 179.42 93.5657C183.113 92.4157 186.826 91.2592 190.495 90.1864C204.205 86.1774 218.719 82.8095 233.975 82.8381C263.565 82.8937 298.291 95.7406 334.854 149.183C381.823 217.836 356.037 294.552 301.928 334.854C274.943 354.953 241.275 365.621 206.678 361.565C175.526 357.913 142.899 342.236 113.184 309.447ZM118.632 291.678C118.632 291.68 118.622 291.7 118.598 291.735C118.619 291.694 118.632 291.678 118.632 291.678ZM115.691 293.019C115.69 293.017 115.72 293.02 115.785 293.036C115.725 293.029 115.693 293.022 115.691 293.019Z" fill="white" stroke="black" stroke-width="17.6755"/>
<path d="M140.07 104.287C140.07 104.287 223.978 81.9434 242.349 81.9434C260.72 81.9434 334.128 117.591 355.552 182.734C385.922 275.083 303.314 335.635 293.985 329.699C382.859 256.216 237.384 120.389 165.888 130.601C156.951 131.878 161.916 139.538 161.916 139.538L159.93 159.398L145.035 134.573L140.07 104.287Z" fill="black"/>
<path d="M343.328 154.955C369.825 201.6 364.318 174.894 358.436 228.216C369.321 210.607 386.342 223.792 393.371 230.525C394.631 231.732 396.71 230.984 396.651 229.24C396.383 221.331 394.117 204.24 381.024 185.905C363.071 160.762 343.328 154.955 343.328 154.955Z" fill="black"/>
<path d="M358.436 228.216C364.318 174.894 369.825 201.6 343.328 154.955C343.328 154.955 363.071 160.762 381.024 185.905C394.117 204.24 396.383 221.331 396.651 229.24C396.71 230.984 394.631 231.732 393.371 230.525C386.342 223.792 369.321 210.607 358.436 228.216ZM358.436 228.216C359.449 225.713 361.031 221.806 361.031 221.806" stroke="black" stroke-width="0.993005"/>
<path d="M130.146 221.103C118.966 240.031 96.0281 238.611 96.4672 261.186C116.955 306.705 117.076 303.44 117.076 303.44C155.027 282.121 139.431 235.047 133.8 221.201C133.163 219.636 131.005 219.648 130.146 221.103Z" fill="black"/>
<path d="M44.1188 262.952C65.9167 265.796 78.9198 246.846 96.4388 261.091C119.695 305.26 117.047 303.345 117.047 303.345C76.8831 320.125 49.3896 278.854 41.9463 265.892C41.1049 264.427 42.4435 262.734 44.1188 262.952Z" fill="black"/>
<path d="M226.958 234.869C226.958 234.869 248.805 257.214 237.385 260.687C223.145 251.923 197.629 258.734 185.121 262.952C182.042 263.991 179.023 261.258 180.133 258.203C184.386 246.501 194.888 224.838 215.042 221.96C226.958 218.979 226.958 234.869 226.958 234.869Z" fill="black"/>
<path d="M240.365 125.636C237.882 122.161 232.918 112.727 248.309 112.727C263.701 112.727 287.219 130.155 292.001 136.602C290.512 140.531 280.582 141.41 275.617 141.028C270.652 140.646 262.211 139.829 255.757 136.602C249.302 133.375 242.848 129.112 240.365 125.636Z" fill="white"/>
</svg>
