<svg width="2000" height="995" viewBox="0 0 2000 995" fill="none" xmlns="http://www.w3.org/2000/svg">
<path d="M1576.52 286.211C1576.05 287.973 1573.82 289.147 1571.47 289.617C1543.54 282.336 1516.19 278.578 1490.36 278.578C1365.71 278.578 1278.27 372.406 1185.66 462.594L1175.57 472.459C1169.7 477.86 1163.83 483.615 1157.72 489.369C1120.63 524.833 1078.61 564.995 1031.08 575.799C1030.14 576.033 1029.2 576.151 1028.26 576.151C1022.63 576.151 1017.81 572.158 1017.81 567.696C1017.81 564.056 1020.98 560.533 1025.21 559.593C1074.86 548.32 1116.76 493.949 1165.35 431.005C1221.81 357.845 1285.9 266.248 1371.23 247.929C1391.89 243.349 1413.37 241 1435.2 241C1486.84 241 1535.91 254.152 1573.47 277.991C1576.17 280.927 1577.11 284.332 1576.52 286.211ZM1760.91 461.302C1745.07 419.732 1713.38 385.324 1669.36 361.72C1629.22 340.23 1579.8 328.487 1530.16 328.487C1496.59 328.487 1464.42 333.889 1437.08 344.105L1436.72 344.223L1436.37 344.34C1363.13 366.183 1288.83 428.187 1217 488.077C1149.98 543.975 1086.71 596.702 1030.96 609.619C1023.56 611.381 1018.17 618.896 1018.17 627.469C1018.17 637.568 1025.44 645.788 1034.48 645.788C1035.77 645.788 1037.06 645.671 1038.35 645.318C1095.05 630.405 1160.19 583.667 1212.54 546.088C1231.32 532.584 1247.52 520.958 1261.6 512.033C1328.15 466.352 1431.68 411.981 1547.64 411.981C1611.38 411.981 1670.42 428.774 1723.35 462.007C1723.71 462.242 1724.06 462.477 1724.41 462.712C1736.38 471.519 1748.71 477.273 1755.98 477.273C1756.81 477.273 1758.8 477.156 1759.51 476.334C1759.74 476.099 1761.97 472.928 1760.91 461.302ZM1760.91 461.302C1745.07 419.732 1713.38 385.324 1669.36 361.72C1629.22 340.23 1579.8 328.487 1530.16 328.487C1496.59 328.487 1464.42 333.889 1437.08 344.105L1436.72 344.223L1436.37 344.34C1363.13 366.183 1288.83 428.187 1217 488.077C1149.98 543.975 1086.71 596.702 1030.96 609.619C1023.56 611.381 1018.17 618.896 1018.17 627.469C1018.17 637.568 1025.44 645.788 1034.48 645.788C1035.77 645.788 1037.06 645.671 1038.35 645.318C1095.05 630.405 1160.19 583.667 1212.54 546.088C1231.32 532.584 1247.52 520.958 1261.6 512.033C1328.15 466.352 1431.68 411.981 1547.64 411.981C1611.38 411.981 1670.42 428.774 1723.35 462.007C1723.71 462.242 1724.06 462.477 1724.41 462.712C1736.38 471.519 1748.71 477.273 1755.98 477.273C1756.81 477.273 1758.8 477.156 1759.51 476.334C1759.74 476.099 1761.97 472.928 1760.91 461.302ZM1782.28 553.017C1709.5 508.98 1618.54 480.561 1550.7 480.561H1549.4C1545.18 480.444 1540.84 480.326 1536.49 480.326C1401.04 480.326 1276.86 551.843 1156.67 621.01L1151.5 623.946C1115.59 644.496 1073.92 667.161 1034.48 675.381C1025.09 677.377 1018.28 686.42 1018.28 696.871C1018.28 702.743 1020.28 708.262 1024.03 712.372C1027.67 716.482 1032.48 718.713 1037.53 718.713C1038.35 718.713 1039.18 718.714 1040 718.596C1094.58 710.963 1149.27 686.067 1207.26 659.763C1289.89 622.184 1383.55 579.674 1496.82 579.674C1627.46 579.674 1764.08 636.394 1914.56 753.239C1916.2 754.413 1917.84 755 1919.02 755C1922.19 755 1926.18 748.659 1927 740.203C1916.91 647.432 1832.04 583.08 1782.28 553.017ZM1782.28 553.017C1709.5 508.98 1618.54 480.561 1550.7 480.561H1549.4C1545.18 480.444 1540.84 480.326 1536.49 480.326C1401.04 480.326 1276.86 551.843 1156.67 621.01L1151.5 623.946C1115.59 644.496 1073.92 667.161 1034.48 675.381C1025.09 677.377 1018.28 686.42 1018.28 696.871C1018.28 702.743 1020.28 708.262 1024.03 712.372C1027.67 716.482 1032.48 718.713 1037.53 718.713C1038.35 718.713 1039.18 718.714 1040 718.596C1094.58 710.963 1149.27 686.067 1207.26 659.763C1289.89 622.184 1383.55 579.674 1496.82 579.674C1627.46 579.674 1764.08 636.394 1914.56 753.239C1916.2 754.413 1917.84 755 1919.02 755C1922.19 755 1926.18 748.659 1927 740.203C1916.91 647.432 1832.04 583.08 1782.28 553.017ZM424.13 286.211C424.599 287.973 426.829 289.147 429.177 289.617C457.112 282.336 484.461 278.578 510.283 278.578C634.935 278.578 722.38 372.406 814.989 462.594L825.083 472.459C830.952 477.86 836.821 483.615 842.924 489.369C880.015 524.833 922.035 564.995 969.572 575.799C970.511 576.033 971.45 576.151 972.389 576.151C978.023 576.151 982.835 572.158 982.835 567.696C982.835 564.056 979.666 560.533 975.44 559.593C925.791 548.32 883.888 493.949 835.295 431.005C778.72 357.845 714.633 266.248 629.301 247.929C608.643 243.349 587.164 241 565.332 241C513.687 241 464.624 254.152 427.064 277.991C424.482 280.927 423.543 284.332 424.13 286.211ZM241.142 476.451C241.846 477.273 243.842 477.391 244.663 477.391C251.941 477.391 264.382 471.636 276.237 462.829C276.589 462.594 276.941 462.359 277.294 462.125C330.23 428.891 389.269 412.098 453.004 412.098C568.971 412.098 672.613 466.469 739.047 512.151C753.132 521.075 769.33 532.701 788.11 546.206C840.459 583.784 905.72 630.522 962.294 645.436C963.586 645.788 964.877 645.906 966.168 645.906C975.206 645.906 982.483 637.685 982.483 627.586C982.483 618.896 977.084 611.498 969.689 609.737C913.936 596.819 850.671 544.092 783.65 488.194C711.816 428.304 637.518 366.3 564.276 344.458L563.924 344.34L563.571 344.223C536.223 334.006 503.945 328.604 470.493 328.604C420.843 328.604 371.428 340.465 331.286 361.838C287.27 385.441 255.579 419.849 239.734 461.42C238.677 472.928 240.907 476.099 241.142 476.451ZM241.142 476.451C241.846 477.273 243.842 477.391 244.663 477.391C251.941 477.391 264.382 471.636 276.237 462.829C276.589 462.594 276.941 462.359 277.294 462.125C330.23 428.891 389.269 412.098 453.004 412.098C568.971 412.098 672.613 466.469 739.047 512.151C753.132 521.075 769.33 532.701 788.11 546.206C840.459 583.784 905.72 630.522 962.294 645.436C963.586 645.788 964.877 645.906 966.168 645.906C975.206 645.906 982.483 637.685 982.483 627.586C982.483 618.896 977.084 611.498 969.689 609.737C913.936 596.819 850.671 544.092 783.65 488.194C711.816 428.304 637.518 366.3 564.276 344.458L563.924 344.34L563.571 344.223C536.223 334.006 503.945 328.604 470.493 328.604C420.843 328.604 371.428 340.465 331.286 361.838C287.27 385.441 255.579 419.849 239.734 461.42C238.677 472.928 240.907 476.099 241.142 476.451ZM74 740.203C74.8216 748.659 78.9298 755 81.9815 755C83.1553 755 84.6811 754.413 86.4417 753.239C236.799 636.394 373.424 579.674 504.18 579.674C617.447 579.674 711.112 622.184 793.744 659.763C851.61 686.067 906.307 710.846 961.003 718.596C961.825 718.714 962.647 718.713 963.468 718.713C968.515 718.713 973.21 716.482 976.966 712.372C980.605 708.262 982.718 702.743 982.718 696.871C982.718 686.42 975.91 677.377 966.52 675.381C927.082 667.043 885.414 644.496 849.497 623.946L844.333 621.01C724.258 551.843 599.958 480.326 464.507 480.326C460.164 480.326 455.821 480.326 451.596 480.561H450.304C382.344 480.561 291.496 508.98 218.723 553.017C168.604 583.08 83.7421 647.432 74 740.203ZM74 740.203C74.8216 748.659 78.9298 755 81.9815 755C83.1553 755 84.6811 754.413 86.4417 753.239C236.799 636.394 373.424 579.674 504.18 579.674C617.447 579.674 711.112 622.184 793.744 659.763C851.61 686.067 906.307 710.846 961.003 718.596C961.825 718.714 962.647 718.713 963.468 718.713C968.515 718.713 973.21 716.482 976.966 712.372C980.605 708.262 982.718 702.743 982.718 696.871C982.718 686.42 975.91 677.377 966.52 675.381C927.082 667.043 885.414 644.496 849.497 623.946L844.333 621.01C724.258 551.843 599.958 480.326 464.507 480.326C460.164 480.326 455.821 480.326 451.596 480.561H450.304C382.344 480.561 291.496 508.98 218.723 553.017C168.604 583.08 83.7421 647.432 74 740.203Z" fill="url(#paint0_radial_5313_7940)"/>
<defs>
<radialGradient id="paint0_radial_5313_7940" cx="0" cy="0" r="1" gradientUnits="userSpaceOnUse" gradientTransform="translate(997.184 660.091) scale(831.355 831.758)">
<stop stop-color="#6B57EC"/>
<stop offset="1" stop-color="#A793FF"/>
</radialGradient>
</defs>
</svg>
