<svg width="1469" height="812" viewBox="0 0 1469 812" fill="none" xmlns="http://www.w3.org/2000/svg">
<g opacity="0.6">
<mask id="mask0_4848_8337" style="mask-type:alpha" maskUnits="userSpaceOnUse" x="0" y="-1" width="1469" height="813">
<rect x="1469" y="812" width="1469" height="812" transform="rotate(-180 1469 812)" fill="#C4C4C4"/>
</mask>
<g mask="url(#mask0_4848_8337)">
<g opacity="0.4">
<path d="M585.382 255.775C615.153 -182.904 764.214 -534.397 996.097 -686.377C1001.03 -689.891 1064.97 -728.977 1101.9 -741.789C756.526 -937.176 411.506 -834.259 411.506 -834.259C337.657 -812.109 254.751 -783.403 173.974 -741.617C167.55 -609.292 176.885 -465.666 210.41 -313.531C288.276 39.8161 191.793 285.596 67.6809 446.878C173.745 590.931 268.424 781.338 343.43 966.011C445.393 867.03 558.477 653.684 585.382 255.775Z" fill="url(#paint0_linear_4848_8337)"/>
<path d="M212.439 -319.823C178.889 -471.947 172.304 -620.381 178.729 -752.705C-29.8234 -644.763 -231.929 -445.756 -220.189 -56.7729C-217.687 25.7471 -203.551 110.054 -170.16 173.392C-137.607 235.095 -90.3875 271.101 -46.7726 312.191C-5.7589 351.764 33.1207 396.657 69.4681 446.41C193.45 285.147 290.298 33.4854 212.439 -319.823Z" fill="url(#paint1_linear_4848_8337)"/>
<path d="M364.658 988.134C422.642 1110.08 475.855 1234.44 541.57 1342.46C563.617 1378.98 587.202 1413.07 612.161 1444.51C672.22 1519.62 734.532 1590.97 803.351 1644.28C896.311 1599.96 998.181 1578.89 1100.58 1609.33C1152.64 1364.25 1191.26 971.941 1023.52 624.066C775.827 110.309 984.147 -418.945 1119.52 -749.64L1108.34 -756.124C1073.56 -744.299 1039.54 -727.403 1006.72 -705.65C774.871 -553.642 615.54 -190.538 585.762 248.103C558.832 646.024 448.418 844.45 346.609 943.401C352.783 958.251 358.799 973.163 364.658 988.134Z" fill="url(#paint2_linear_4848_8337)"/>
<path d="M1023.71 626.212C1191.48 974.242 1154.74 1363.21 1102.8 1608.2C1171.14 1628.67 1236.3 1670.16 1294.61 1730.32C1365.04 1699.42 1431.62 1649.6 1491.45 1583.03C1586.99 1477.35 1658.19 1337.31 1706.49 1179.01C1553.36 859.313 1323.69 231.358 1523.57 -357.02C1441.37 -481.498 1345.03 -584.754 1242.94 -667.708C1202.69 -700.372 1161.17 -728.942 1118.63 -753.246C983.239 -422.667 776.018 112.455 1023.71 626.212Z" fill="url(#paint3_linear_4848_8337)"/>
</g>
</g>
</g>
<defs>
<linearGradient id="paint0_linear_4848_8337" x1="261.5" y1="-280.001" x2="138.465" y2="498.512" gradientUnits="userSpaceOnUse">
<stop stop-color="#A694FF"/>
<stop offset="1" stop-opacity="0"/>
</linearGradient>
<linearGradient id="paint1_linear_4848_8337" x1="-73.9882" y1="-349.221" x2="-404.961" y2="181.57" gradientUnits="userSpaceOnUse">
<stop stop-color="#A694FF"/>
<stop offset="1" stop-opacity="0"/>
</linearGradient>
<linearGradient id="paint2_linear_4848_8337" x1="143.51" y1="-460.721" x2="-38.6128" y2="487.131" gradientUnits="userSpaceOnUse">
<stop stop-color="#A694FF"/>
<stop offset="1" stop-opacity="0"/>
</linearGradient>
<linearGradient id="paint3_linear_4848_8337" x1="792.512" y1="-628.221" x2="1488.37" y2="570.194" gradientUnits="userSpaceOnUse">
<stop stop-color="#A694FF"/>
<stop offset="0.934017" stop-opacity="0"/>
</linearGradient>
</defs>
</svg>
