<svg width="1469" height="812" viewBox="0 0 1469 812" fill="none" xmlns="http://www.w3.org/2000/svg">
<g opacity="0.6">
<mask id="mask0_4846_8323" style="mask-type:alpha" maskUnits="userSpaceOnUse" x="0" y="0" width="1469" height="812">
<rect width="1469" height="812" fill="#C4C4C4"/>
</mask>
<g mask="url(#mask0_4846_8323)">
<g opacity="0.4">
<path d="M883.618 556.225C853.847 994.904 704.786 1346.4 472.903 1498.38C467.965 1501.89 404.03 1540.98 367.098 1553.79C712.474 1749.18 1057.49 1646.26 1057.49 1646.26C1131.34 1624.11 1214.25 1595.4 1295.03 1553.62C1301.45 1421.29 1292.12 1277.67 1258.59 1125.53C1180.72 772.183 1277.21 526.404 1401.32 365.121C1295.25 221.068 1200.58 30.6613 1125.57 -154.012C1023.61 -55.031 910.524 158.315 883.618 556.225Z" fill="url(#paint0_linear_4846_8323)"/>
<path d="M1256.56 1131.82C1290.11 1283.95 1296.7 1432.38 1290.27 1564.7C1498.82 1456.76 1700.93 1257.76 1689.19 868.772C1686.69 786.252 1672.55 701.946 1639.16 638.608C1606.61 576.904 1559.39 540.898 1515.77 499.808C1474.76 460.236 1435.88 415.343 1399.53 365.589C1275.55 526.853 1178.7 778.514 1256.56 1131.82Z" fill="url(#paint1_linear_4846_8323)"/>
<path d="M1104.34 -176.134C1046.36 -298.08 993.145 -422.445 927.43 -530.465C905.383 -566.976 881.798 -601.068 856.839 -632.506C796.78 -707.625 734.468 -778.974 665.649 -832.281C572.689 -787.962 470.819 -766.889 368.416 -797.333C316.355 -552.251 277.742 -159.941 445.477 187.933C693.173 701.691 484.854 1230.94 349.485 1561.64L360.665 1568.12C395.443 1556.3 429.458 1539.4 462.278 1517.65C694.129 1365.64 853.46 1002.54 883.238 563.897C910.168 165.976 1020.58 -32.4502 1122.39 -131.401C1116.22 -146.252 1110.2 -161.163 1104.34 -176.134Z" fill="url(#paint2_linear_4846_8323)"/>
<path d="M445.286 185.787C277.522 -162.243 314.256 -551.212 366.201 -796.198C297.859 -816.67 232.698 -858.157 174.389 -918.324C103.959 -887.419 37.3841 -837.602 -22.4515 -771.032C-117.991 -665.354 -189.188 -525.311 -237.488 -367.015C-84.3556 -47.3137 145.314 580.641 -54.5714 1169.02C27.6288 1293.5 123.975 1396.75 226.059 1479.71C266.313 1512.37 307.834 1540.94 350.371 1565.25C485.762 1234.67 692.982 699.545 445.286 185.787Z" fill="url(#paint3_linear_4846_8323)"/>
</g>
</g>
</g>
<defs>
<linearGradient id="paint0_linear_4846_8323" x1="1207.5" y1="1092" x2="1330.54" y2="313.488" gradientUnits="userSpaceOnUse">
<stop stop-color="#A694FF"/>
<stop offset="1" stop-opacity="0"/>
</linearGradient>
<linearGradient id="paint1_linear_4846_8323" x1="1542.99" y1="1161.22" x2="1873.96" y2="630.43" gradientUnits="userSpaceOnUse">
<stop stop-color="#A694FF"/>
<stop offset="1" stop-opacity="0"/>
</linearGradient>
<linearGradient id="paint2_linear_4846_8323" x1="1325.49" y1="1272.72" x2="1507.61" y2="324.869" gradientUnits="userSpaceOnUse">
<stop stop-color="#A694FF"/>
<stop offset="1" stop-opacity="0"/>
</linearGradient>
<linearGradient id="paint3_linear_4846_8323" x1="676.488" y1="1440.22" x2="-19.3689" y2="241.806" gradientUnits="userSpaceOnUse">
<stop stop-color="#A694FF"/>
<stop offset="0.934017" stop-opacity="0"/>
</linearGradient>
</defs>
</svg>
