<svg width="716" height="863" viewBox="0 0 716 863" fill="none" xmlns="http://www.w3.org/2000/svg">
<path d="M431.906 580.767C389.906 681.167 309.266 747.647 211.566 757.717C209.466 757.997 182.726 760.107 167.966 759.017C283.846 843.737 420.556 857.887 420.556 857.887C449.826 860.887 482.956 863.347 516.206 862.477C527.916 831.907 534.506 796.907 532.616 757.197C528.226 664.967 581.706 617.617 639.616 593.327C609.936 547.437 587.786 491.857 572.616 439.827C527.396 451.857 469.966 489.687 431.906 580.767Z" fill="url(#paint0_linear_5254_7917)"/>
<path d="M530.786 756.547C532.686 796.257 524.726 832.087 513.016 862.657C598.866 860.397 688.696 835.887 711.626 742.607C716.486 722.817 717.106 701.307 709.026 682.607C701.146 664.387 685.956 650.607 672.476 636.027C659.865 622.096 648.43 607.145 638.286 591.327C580.426 615.627 526.396 664.327 530.786 756.547Z" fill="url(#paint1_linear_5254_7917)"/>
<path d="M569.626 429.557C556.436 394.257 545.206 358.917 528.136 326.047C522.428 314.955 515.973 304.264 508.816 294.047C491.556 269.587 473.186 245.767 451.106 225.487C413.106 225.597 373.396 219.217 337.106 200.597C300.346 252.737 258.286 341.187 296.786 442.147C353.636 591.247 238.266 693.147 164.226 756.237L167.966 759.017C181.848 760.1 195.801 759.9 209.646 758.417C307.336 748.337 392.646 680.257 434.646 579.867C472.716 488.787 528.096 454.187 573.256 442.147C571.983 437.947 570.773 433.75 569.626 429.557Z" fill="url(#paint2_linear_5254_7917)"/>
<path d="M85.4358 230.997C28.8358 292.997 -1.00421 380.187 0.0257941 465.277C0.615794 514.787 13.6458 561.367 35.0258 604.157C38.2328 610.577 41.6328 616.91 45.2258 623.157C164.216 503.717 121.226 325.747 85.4358 230.997Z" fill="url(#paint3_linear_5254_7917)"/>
<path d="M298.786 442.147C260.286 341.147 301.406 253.277 338.116 201.147C313.907 188.684 292.37 171.607 274.716 150.877C246.114 150.328 217.629 154.681 190.496 163.747C147.216 178.077 110.656 203.247 81.4057 235.287C116.406 327.957 158.466 502.047 42.1057 618.867C64.2057 657.467 93.1057 692.627 125.586 723.627C138.397 735.84 151.971 747.226 166.226 757.717C240.266 694.657 355.636 591.247 298.786 442.147Z" fill="url(#paint4_linear_5254_7917)"/>
<path d="M442.346 93.4571C522.916 125.247 579.346 133.857 620.256 132.627L621.436 131.867C469.016 -128.133 269.716 76.5671 269.716 76.5671L270.006 77.0771C312.996 69.4571 375.476 67.0871 442.346 93.4571Z" fill="url(#paint5_linear_5254_7917)"/>
<path d="M443.346 91.6572C376.516 65.3272 313.676 66.3272 269.966 77.0772C384.576 278.017 602.396 144.077 620.216 132.627C579.276 133.857 523.916 123.447 443.346 91.6572Z" fill="url(#paint6_linear_5254_7917)"/>
<defs>
<linearGradient id="paint0_linear_5254_7917" x1="71.7758" y1="766.057" x2="655.776" y2="624.057" gradientUnits="userSpaceOnUse">
<stop offset="0.21" stop-color="#E54033"/>
<stop offset="0.84" stop-color="#FECA1A"/>
</linearGradient>
<linearGradient id="paint1_linear_5254_7917" x1="531.886" y1="726.667" x2="712.086" y2="728.017" gradientUnits="userSpaceOnUse">
<stop stop-color="#FECA1A"/>
<stop offset="0.4" stop-color="#FECA1A"/>
<stop offset="1" stop-color="#AFD803"/>
</linearGradient>
<linearGradient id="paint2_linear_5254_7917" x1="123.996" y1="769.697" x2="493.446" y2="269.527" gradientUnits="userSpaceOnUse">
<stop offset="0.16" stop-color="#E54033"/>
<stop offset="0.84" stop-color="#FECA1A"/>
</linearGradient>
<linearGradient id="paint3_linear_5254_7917" x1="70.1958" y1="272.717" x2="53.8358" y2="595.777" gradientUnits="userSpaceOnUse">
<stop stop-color="#FECA1A"/>
<stop offset="0.76" stop-color="#E54033"/>
</linearGradient>
<linearGradient id="paint4_linear_5254_7917" x1="250.926" y1="188.827" x2="152.256" y2="563.497" gradientUnits="userSpaceOnUse">
<stop offset="0.16" stop-color="#FECA1A"/>
<stop offset="1" stop-color="#E54033"/>
</linearGradient>
<linearGradient id="paint5_linear_5254_7917" x1="289.146" y1="9.44703" x2="654.476" y2="144.107" gradientUnits="userSpaceOnUse">
<stop offset="0.15" stop-color="#6CBF00"/>
<stop offset="1" stop-color="#AFD803"/>
</linearGradient>
<linearGradient id="paint6_linear_5254_7917" x1="263630" y1="31153.5" x2="205284" y2="-28863.6" gradientUnits="userSpaceOnUse">
<stop offset="0.15" stop-color="#6CBF00"/>
<stop offset="1" stop-color="#AFD803"/>
</linearGradient>
</defs>
</svg>
