<svg width="4061" height="1955" viewBox="0 0 4061 1955" fill="none" xmlns="http://www.w3.org/2000/svg">
<path d="M1772.69 1113.33L1929.98 825.5H1983.48V1200H1919.28V963.53L1786.6 1200H1754.5L1623.96 966.205V1200H1559.76V825.5H1614.33L1772.69 1113.33ZM2198.3 921.8C2238.96 921.8 2270.52 932.5 2292.99 953.9C2315.82 974.943 2327.23 1003.12 2327.23 1038.43V1200H2279.62L2268.92 1169.5H2266.24C2257.33 1179.49 2244.67 1188.41 2228.26 1196.25C2212.21 1203.75 2192.24 1207.49 2168.34 1207.49C2145.51 1207.49 2125.72 1203.75 2108.95 1196.25C2092.55 1188.76 2080.06 1178.78 2071.5 1166.29C2062.94 1153.45 2058.66 1139.19 2058.66 1123.49C2058.66 1097.46 2069.36 1076.41 2090.76 1060.36C2112.16 1043.96 2142.84 1035.75 2182.78 1035.75H2264.1V1032.54C2264.1 1015.78 2258.4 1002.41 2246.98 992.42C2235.93 982.433 2219.88 977.44 2198.83 977.44C2167.8 977.44 2146.94 988.318 2136.24 1010.07H2073.11C2078.82 983.682 2092.55 962.46 2114.3 946.41C2136.06 930.003 2164.06 921.8 2198.3 921.8ZM2178.5 1155.06C2205.97 1155.06 2227.01 1149.35 2241.63 1137.94C2256.61 1126.17 2264.1 1111.55 2264.1 1094.07V1081.23H2184.92C2162.81 1081.23 2146.58 1084.62 2136.24 1091.39C2126.25 1098.17 2121.26 1107.27 2121.26 1118.68C2121.26 1129.74 2125.9 1138.65 2135.17 1145.43C2144.44 1151.85 2158.89 1155.06 2178.5 1155.06ZM2407.52 1200V929.29H2454.6L2465.84 959.25H2468.51C2476.36 949.62 2488.13 941.06 2503.82 933.57C2519.87 925.723 2539.31 921.8 2562.14 921.8C2587.46 921.8 2609.75 927.15 2629.01 937.85C2648.63 948.55 2663.79 963.708 2674.49 983.325C2685.54 1002.58 2691.07 1025.05 2691.07 1050.73V1200H2628.48V1060.36C2628.48 1036.47 2621.16 1017.21 2606.54 1002.58C2592.27 987.605 2573.37 980.115 2549.83 980.115C2525.93 980.115 2506.67 987.605 2492.05 1002.58C2477.43 1017.21 2470.12 1036.47 2470.12 1060.36V1200H2407.52ZM2905.43 1301.65C2877.25 1301.65 2853.17 1297.19 2833.2 1288.28C2813.58 1279.72 2798.43 1268.84 2787.73 1255.64C2777.38 1242.8 2770.61 1229.78 2767.4 1216.59H2832.13C2837.48 1225.86 2846.22 1232.99 2858.35 1237.99C2870.83 1243.34 2886.52 1246.01 2905.43 1246.01C2931.46 1246.01 2951.97 1239.77 2966.95 1227.29C2981.93 1215.16 2989.42 1198.04 2989.42 1175.92V1155.06H2986.75C2983.89 1159.34 2978.19 1164.33 2969.63 1170.04C2961.42 1175.75 2950.9 1180.74 2938.06 1185.02C2925.22 1188.94 2911.13 1190.9 2895.8 1190.9C2868.69 1190.9 2844.26 1185.02 2822.5 1173.25C2801.1 1161.12 2784.34 1144.89 2772.21 1124.56C2760.08 1103.88 2754.02 1080.87 2754.02 1055.55C2754.02 1030.58 2760.08 1007.93 2772.21 987.605C2784.34 967.275 2801.1 951.225 2822.5 939.455C2843.9 927.685 2868.15 921.8 2895.26 921.8C2918.8 921.8 2938.42 925.723 2954.11 933.57C2969.8 941.417 2982.11 949.977 2991.03 959.25H2993.7L3004.94 929.29H3052.55V1174.32C3052.55 1200 3046.67 1222.29 3034.9 1241.2C3023.13 1260.46 3006.18 1275.26 2984.07 1285.6C2961.96 1296.3 2935.74 1301.65 2905.43 1301.65ZM2903.29 1135.26C2919.69 1135.26 2934.49 1131.88 2947.69 1125.1C2960.89 1118.32 2971.05 1108.87 2978.19 1096.74C2985.68 1084.62 2989.42 1071.06 2989.42 1056.08C2989.42 1041.1 2985.68 1027.73 2978.19 1015.96C2970.7 1003.83 2960.35 994.382 2947.16 987.605C2934.32 980.828 2919.69 977.44 2903.29 977.44C2878.32 977.44 2857.63 984.93 2841.23 999.91C2825.18 1014.53 2817.15 1033.26 2817.15 1056.08C2817.15 1071.06 2820.72 1084.62 2827.85 1096.74C2835.34 1108.87 2845.68 1118.32 2858.88 1125.1C2872.08 1131.88 2886.88 1135.26 2903.29 1135.26ZM3272.27 1207.49C3243.38 1207.49 3217.16 1201.25 3193.62 1188.76C3170.08 1175.92 3151.54 1158.63 3137.98 1136.87C3124.43 1115.11 3117.65 1091.04 3117.65 1064.64C3117.65 1038.25 3124.43 1014.18 3137.98 992.42C3151.54 970.663 3170.08 953.543 3193.62 941.06C3217.16 928.22 3243.38 921.8 3272.27 921.8C3301.16 921.8 3327.37 928.22 3350.91 941.06C3374.45 953.543 3393 970.663 3406.55 992.42C3420.11 1014.18 3426.88 1038.25 3426.88 1064.64C3426.88 1091.04 3420.11 1115.11 3406.55 1136.87C3393 1158.63 3374.45 1175.92 3350.91 1188.76C3327.37 1201.25 3301.16 1207.49 3272.27 1207.49ZM3272.27 1150.24C3289.75 1150.24 3305.44 1146.68 3319.35 1139.54C3333.62 1132.05 3344.67 1121.89 3352.52 1109.05C3360.37 1095.85 3364.29 1081.05 3364.29 1064.64C3364.29 1048.24 3360.37 1033.61 3352.52 1020.77C3344.67 1007.58 3333.62 997.413 3319.35 990.28C3305.44 982.79 3289.75 979.045 3272.27 979.045C3254.79 979.045 3239.1 982.79 3225.19 990.28C3211.28 997.413 3200.4 1007.58 3192.55 1020.77C3184.71 1033.61 3180.78 1048.24 3180.78 1064.64C3180.78 1081.05 3184.71 1095.85 3192.55 1109.05C3200.4 1121.89 3211.28 1132.05 3225.19 1139.54C3239.1 1146.68 3254.79 1150.24 3272.27 1150.24Z" fill="white"/>
<path fill-rule="evenodd" clip-rule="evenodd" d="M947.092 746.617C947.097 746.61 947.101 746.604 947.106 746.597C983.396 765.217 1023.11 771.597 1061.11 771.487C1083.19 791.767 1101.56 815.587 1118.82 840.047C1125.97 850.264 1132.43 860.955 1138.14 872.047C1151.33 897.463 1161.04 924.355 1170.86 951.564C1173.74 959.544 1176.63 967.552 1179.63 975.557C1180.56 978.983 1181.54 982.411 1182.56 985.841L1182.62 985.827C1197.79 1037.86 1219.94 1093.44 1249.62 1139.33L1249.59 1139.34C1259.4 1154.41 1270.4 1168.69 1282.48 1182.03C1284.85 1184.6 1287.28 1187.14 1289.72 1189.69L1289.72 1189.69L1289.72 1189.69L1289.72 1189.7C1301.09 1201.61 1312.54 1213.6 1319.03 1228.61C1327.11 1247.31 1326.49 1268.82 1321.63 1288.61C1298.7 1381.89 1208.87 1406.4 1123.02 1408.66L1123.06 1408.55C1090.87 1409.19 1058.9 1406.79 1030.56 1403.89C1030.56 1403.89 893.846 1389.74 777.966 1305.02L774.226 1302.24C774.226 1302.24 774.226 1302.24 774.227 1302.24C760.7 1292.16 747.797 1281.27 735.586 1269.63C703.106 1238.63 674.206 1203.47 652.106 1164.87C652.254 1164.72 652.401 1164.57 652.548 1164.42C649.933 1159.72 647.425 1154.96 645.026 1150.16C623.646 1107.37 610.616 1060.79 610.026 1011.28C609.02 928.2 637.441 843.122 691.463 781.44C691.444 781.389 691.425 781.338 691.406 781.287C720.656 749.247 757.216 724.077 800.496 709.747C827.629 700.681 856.114 696.328 884.716 696.877C902.121 717.315 923.299 734.201 947.092 746.617ZM880.498 1290.18C900.056 1283.04 918.586 1273.44 935.864 1261.61C918.476 1273.36 899.921 1282.96 880.498 1290.18Z" fill="url(#paint0_linear_5133_7928)"/>
<path fill-rule="evenodd" clip-rule="evenodd" d="M1230.84 678.956C1230.86 678.955 1230.87 678.955 1230.89 678.954L1232.07 678.194C1079.65 418.194 880.346 622.894 880.346 622.894L880.631 623.396C880.619 623.399 880.607 623.401 880.596 623.404C995.202 824.337 1213.01 690.414 1230.84 678.956Z" fill="url(#paint1_linear_5133_7928)"/>
<path d="M1041.91 1126.77C999.906 1227.17 919.266 1293.65 821.566 1303.72C819.466 1304 792.726 1306.11 777.966 1305.02C893.846 1389.74 1030.56 1403.89 1030.56 1403.89C1059.83 1406.89 1092.96 1409.35 1126.21 1408.48C1137.92 1377.91 1144.51 1342.91 1142.62 1303.2C1138.23 1210.97 1191.71 1163.62 1249.62 1139.33C1219.94 1093.44 1197.79 1037.86 1182.62 985.827C1137.4 997.857 1079.97 1035.69 1041.91 1126.77Z" fill="url(#paint2_linear_5133_7928)"/>
<path d="M1140.79 1302.55C1142.69 1342.26 1134.73 1378.09 1123.02 1408.66C1208.87 1406.4 1298.7 1381.89 1321.63 1288.61C1326.49 1268.82 1327.11 1247.31 1319.03 1228.61C1311.15 1210.39 1295.96 1196.61 1282.48 1182.03C1269.86 1168.1 1258.43 1153.15 1248.29 1137.33C1190.43 1161.63 1136.4 1210.33 1140.79 1302.55Z" fill="url(#paint3_linear_5133_7928)"/>
<path d="M1179.63 975.557C1166.44 940.257 1155.21 904.917 1138.14 872.047C1132.43 860.955 1125.97 850.264 1118.82 840.047C1101.56 815.587 1083.19 791.767 1061.11 771.487C1023.11 771.597 983.396 765.217 947.106 746.597C910.346 798.737 868.286 887.187 906.786 988.147C963.636 1137.25 848.266 1239.15 774.226 1302.24L777.966 1305.02C791.848 1306.1 805.801 1305.9 819.646 1304.42C917.336 1294.34 1002.65 1226.26 1044.65 1125.87C1082.72 1034.79 1138.1 1000.19 1183.26 988.147C1181.98 983.947 1180.77 979.75 1179.63 975.557Z" fill="url(#paint4_linear_5133_7928)"/>
<path d="M695.436 776.997C638.836 838.997 608.996 926.187 610.026 1011.28C610.616 1060.79 623.646 1107.37 645.026 1150.16C648.233 1156.58 651.633 1162.91 655.226 1169.16C774.216 1049.72 731.226 871.747 695.436 776.997Z" fill="url(#paint5_linear_5133_7928)"/>
<path d="M908.786 988.147C870.286 887.147 911.406 799.277 948.116 747.147C923.907 734.684 902.37 717.607 884.716 696.877C856.114 696.328 827.629 700.681 800.496 709.747C757.216 724.077 720.656 749.247 691.406 781.287C726.406 873.957 768.466 1048.05 652.106 1164.87C674.206 1203.47 703.106 1238.63 735.586 1269.63C748.397 1281.84 761.971 1293.23 776.226 1303.72C850.266 1240.66 965.636 1137.25 908.786 988.147Z" fill="url(#paint6_linear_5133_7928)"/>
<path d="M1052.35 639.457C1132.92 671.247 1189.35 679.857 1230.26 678.627L1231.44 677.867C1079.02 417.867 879.716 622.567 879.716 622.567L880.006 623.077C922.996 615.457 985.476 613.087 1052.35 639.457Z" fill="url(#paint7_linear_5133_7928)"/>
<path d="M1053.35 637.657C986.516 611.327 923.676 612.327 879.966 623.077C994.576 824.017 1212.4 690.077 1230.22 678.627C1189.28 679.857 1133.92 669.447 1053.35 637.657Z" fill="url(#paint8_linear_5133_7928)"/>
<defs>
<linearGradient id="paint0_linear_5133_7928" x1="520.846" y1="818.827" x2="1452.85" y2="1377.33" gradientUnits="userSpaceOnUse">
<stop stop-color="#E54033"/>
<stop offset="0.489583" stop-color="#FECA1A"/>
<stop offset="1" stop-color="#AFD803"/>
</linearGradient>
<linearGradient id="paint1_linear_5133_7928" x1="264241" y1="31699.9" x2="205895" y2="-28317.2" gradientUnits="userSpaceOnUse">
<stop offset="0.15" stop-color="#6CBF00"/>
<stop offset="1" stop-color="#AFD803"/>
</linearGradient>
<linearGradient id="paint2_linear_5133_7928" x1="681.776" y1="1312.06" x2="1265.78" y2="1170.06" gradientUnits="userSpaceOnUse">
<stop offset="0.21" stop-color="#E54033"/>
<stop offset="0.84" stop-color="#FECA1A"/>
</linearGradient>
<linearGradient id="paint3_linear_5133_7928" x1="1141.89" y1="1272.67" x2="1322.09" y2="1274.02" gradientUnits="userSpaceOnUse">
<stop stop-color="#FECA1A"/>
<stop offset="0.4" stop-color="#FECA1A"/>
<stop offset="1" stop-color="#AFD803"/>
</linearGradient>
<linearGradient id="paint4_linear_5133_7928" x1="733.996" y1="1315.7" x2="1103.45" y2="815.527" gradientUnits="userSpaceOnUse">
<stop offset="0.16" stop-color="#E54033"/>
<stop offset="0.84" stop-color="#FECA1A"/>
</linearGradient>
<linearGradient id="paint5_linear_5133_7928" x1="680.196" y1="818.717" x2="663.836" y2="1141.78" gradientUnits="userSpaceOnUse">
<stop stop-color="#FECA1A"/>
<stop offset="0.76" stop-color="#E54033"/>
</linearGradient>
<linearGradient id="paint6_linear_5133_7928" x1="860.926" y1="734.827" x2="762.256" y2="1109.5" gradientUnits="userSpaceOnUse">
<stop offset="0.16" stop-color="#FECA1A"/>
<stop offset="1" stop-color="#E54033"/>
</linearGradient>
<linearGradient id="paint7_linear_5133_7928" x1="899.146" y1="555.447" x2="1264.48" y2="690.107" gradientUnits="userSpaceOnUse">
<stop offset="0.15" stop-color="#6CBF00"/>
<stop offset="1" stop-color="#AFD803"/>
</linearGradient>
<linearGradient id="paint8_linear_5133_7928" x1="264240" y1="31699.5" x2="205894" y2="-28317.6" gradientUnits="userSpaceOnUse">
<stop offset="0.15" stop-color="#6CBF00"/>
<stop offset="1" stop-color="#AFD803"/>
</linearGradient>
</defs>
</svg>
