<svg width="1469" height="812" viewBox="0 0 1469 812" fill="none" xmlns="http://www.w3.org/2000/svg">
<g opacity="0.6">
<mask id="mask0_4891_8738" style="mask-type:alpha" maskUnits="userSpaceOnUse" x="0" y="0" width="1469" height="812">
<rect width="1469" height="812" fill="#C4C4C4"/>
</mask>
<g mask="url(#mask0_4891_8738)">
<g opacity="0.4">
<path d="M883.629 503.504C853.859 942.183 704.797 1293.68 472.915 1445.66C467.977 1449.17 404.042 1488.26 367.11 1501.07C712.485 1696.46 1057.51 1593.54 1057.51 1593.54C1131.35 1571.39 1214.26 1542.68 1295.04 1500.9C1301.46 1368.57 1292.13 1224.95 1258.6 1072.81C1180.74 719.463 1277.22 473.683 1401.33 312.401C1295.27 168.348 1200.59 -22.0592 1125.58 -206.733C1023.62 -107.751 910.535 105.595 883.629 503.504Z" fill="url(#paint0_linear_4891_8738)"/>
<path d="M1257.57 1075.1C1291.12 1227.23 1297.71 1375.66 1291.28 1507.98C1499.84 1400.04 1701.94 1201.03 1690.2 812.052C1687.7 729.532 1673.56 645.225 1640.17 581.887C1607.62 520.183 1560.4 484.178 1516.78 443.088C1475.77 403.515 1436.89 358.622 1400.54 308.869C1276.56 470.132 1179.71 721.793 1257.57 1075.1Z" fill="url(#paint1_linear_4891_8738)"/>
<path d="M1104.35 -228.855C1046.37 -350.8 993.157 -475.165 927.442 -583.185C905.394 -619.697 881.81 -653.789 856.851 -685.226C796.791 -760.345 734.48 -831.695 665.66 -885.002C572.7 -840.683 470.831 -819.61 368.427 -850.053C316.367 -604.971 277.753 -212.662 445.488 135.213C693.185 648.971 484.865 1178.22 349.496 1508.92L360.677 1515.4C395.454 1503.58 429.47 1486.68 462.29 1464.93C694.141 1312.92 853.472 949.817 883.25 511.177C910.18 113.255 1020.59 -85.1707 1122.4 -184.121C1116.23 -198.972 1110.21 -213.884 1104.35 -228.855Z" fill="url(#paint2_linear_4891_8738)"/>
<path d="M445.298 133.067C277.533 -214.963 314.268 -603.933 366.213 -848.918C297.871 -869.39 232.71 -910.877 174.4 -971.044C103.971 -940.139 37.3958 -890.322 -22.4398 -823.752C-117.979 -718.074 -189.177 -578.032 -237.477 -419.735C-84.3439 -100.034 145.326 527.921 -54.5597 1116.3C27.6405 1240.78 123.987 1344.03 226.071 1426.99C266.324 1459.65 307.845 1488.22 350.383 1512.52C485.773 1181.95 692.994 646.825 445.298 133.067Z" fill="url(#paint3_linear_4891_8738)"/>
</g>
</g>
</g>
<defs>
<linearGradient id="paint0_linear_4891_8738" x1="1279.5" y1="1001" x2="1267.09" y2="194.468" gradientUnits="userSpaceOnUse">
<stop stop-color="white"/>
<stop offset="1" stop-opacity="0"/>
</linearGradient>
<linearGradient id="paint1_linear_4891_8738" x1="1544" y1="1104.5" x2="1857" y2="573.409" gradientUnits="userSpaceOnUse">
<stop stop-color="white"/>
<stop offset="1" stop-opacity="0"/>
</linearGradient>
<linearGradient id="paint2_linear_4891_8738" x1="1325.5" y1="1220" x2="1507.62" y2="272.148" gradientUnits="userSpaceOnUse">
<stop stop-color="#FCFCFC"/>
<stop offset="1" stop-opacity="0"/>
</linearGradient>
<linearGradient id="paint3_linear_4891_8738" x1="676.5" y1="1387.5" x2="-19.3572" y2="189.085" gradientUnits="userSpaceOnUse">
<stop stop-color="white"/>
<stop offset="1" stop-opacity="0"/>
</linearGradient>
</defs>
</svg>
