<svg width="1469" height="812" viewBox="0 0 1469 812" fill="none" xmlns="http://www.w3.org/2000/svg">
<g opacity="0.6">
<mask id="mask0_4892_8745" style="mask-type:alpha" maskUnits="userSpaceOnUse" x="0" y="0" width="1469" height="812">
<rect x="1469" y="812" width="1469" height="812" transform="rotate(180 1469 812)" fill="#C4C4C4"/>
</mask>
<g mask="url(#mask0_4892_8745)">
<g opacity="0.4">
<path d="M585.371 308.496C615.141 -130.183 764.202 -481.676 996.085 -633.657C1001.02 -637.17 1064.96 -676.256 1101.89 -689.068C756.514 -884.455 411.494 -781.538 411.494 -781.538C337.645 -759.388 254.739 -730.682 173.962 -688.896C167.538 -556.571 176.873 -412.945 210.398 -260.81C288.265 92.5372 191.781 338.317 67.6692 499.6C173.733 643.652 268.413 834.059 343.419 1018.73C445.382 919.752 558.465 706.405 585.371 308.496Z" fill="url(#paint0_linear_4892_8745)"/>
<path d="M211.427 -263.102C177.877 -415.225 171.292 -563.66 177.717 -695.984C-30.8353 -588.041 -232.94 -389.035 -221.201 -0.0516732C-218.698 82.4683 -204.563 166.775 -171.171 230.113C-138.619 291.817 -91.3992 327.822 -47.7843 368.912C-6.77062 408.485 32.109 453.378 68.4564 503.131C192.438 341.868 289.286 90.2066 211.427 -263.102Z" fill="url(#paint1_linear_4892_8745)"/>
<path d="M364.647 1040.85C422.63 1162.8 475.843 1287.17 541.558 1395.19C563.606 1431.7 587.19 1465.79 612.149 1497.23C672.209 1572.35 734.52 1643.69 803.34 1697C896.3 1652.68 998.169 1631.61 1100.57 1662.05C1152.63 1416.97 1191.25 1024.66 1023.51 676.787C775.815 163.029 984.134 -366.224 1119.5 -696.92L1108.32 -703.403C1073.55 -691.579 1039.53 -674.682 1006.71 -652.93C774.859 -500.921 615.528 -137.817 585.75 300.823C558.82 698.745 448.406 897.171 346.597 996.121C352.771 1010.97 358.787 1025.88 364.647 1040.85Z" fill="url(#paint2_linear_4892_8745)"/>
<path d="M1023.7 678.933C1191.47 1026.96 1154.73 1415.93 1102.79 1660.92C1171.13 1681.39 1236.29 1722.88 1294.6 1783.04C1365.03 1752.14 1431.6 1702.32 1491.44 1635.75C1586.98 1530.07 1658.18 1390.03 1706.48 1231.74C1553.34 912.034 1323.67 284.079 1523.56 -304.299C1441.36 -428.778 1345.01 -532.033 1242.93 -614.988C1202.68 -647.651 1161.15 -676.222 1118.62 -700.525C983.226 -369.947 776.006 165.175 1023.7 678.933Z" fill="url(#paint3_linear_4892_8745)"/>
</g>
</g>
</g>
<defs>
<linearGradient id="paint0_linear_4892_8745" x1="189.5" y1="-189" x2="201.909" y2="617.532" gradientUnits="userSpaceOnUse">
<stop stop-color="white"/>
<stop offset="1" stop-opacity="0"/>
</linearGradient>
<linearGradient id="paint1_linear_4892_8745" x1="-75" y1="-292.5" x2="-388.005" y2="238.591" gradientUnits="userSpaceOnUse">
<stop stop-color="white"/>
<stop offset="1" stop-opacity="0"/>
</linearGradient>
<linearGradient id="paint2_linear_4892_8745" x1="143.498" y1="-408" x2="-38.6247" y2="539.852" gradientUnits="userSpaceOnUse">
<stop stop-color="#FCFCFC"/>
<stop offset="1" stop-opacity="0"/>
</linearGradient>
<linearGradient id="paint3_linear_4892_8745" x1="792.5" y1="-575.5" x2="1488.36" y2="622.915" gradientUnits="userSpaceOnUse">
<stop stop-color="white"/>
<stop offset="1" stop-opacity="0"/>
</linearGradient>
</defs>
</svg>
