<svg width="1168" height="2532" viewBox="0 0 1168 2532" fill="none" xmlns="http://www.w3.org/2000/svg"><path fill="#191721" d="M0 2532h1168V0H0z"/><mask id="a" style="mask-type:alpha" maskUnits="userSpaceOnUse" x="-1" y="-1" width="1170" height="2534"><path fill="#1D1A25" stroke="#443E52" stroke-width="2" d="M0 2532h1168V0H0z"/></mask><g mask="url(#a)"><path fill="#242231" d="M0 2237h1168v295H0z"/><circle cx="133.178" cy="2340.54" r="15.8299" fill="#5C5A6C"/><circle cx="113.83" cy="2323.83" r="18.3299" fill="#5C5A6C" stroke="#242231" stroke-width="5"/><path d="M108.137 2386.3c1.364 0 2.604.32 3.72.96 1.116.62 1.994 1.47 2.635 2.54.661 1.08.992 2.28.992 3.6 0 1.32-.32 2.53-.961 3.63-.641 1.07-1.529 1.93-2.666 2.57-1.116.62-2.356.93-3.72.93h-4.154v7.47h-3.596v-21.7h7.75zm-.062 10.79c1.075 0 1.974-.35 2.697-1.06.744-.7 1.116-1.58 1.116-2.63 0-1.06-.372-1.92-1.116-2.61-.723-.7-1.622-1.05-2.697-1.05h-4.092v7.35h4.092zm15.842-5.15c1.901 0 3.42.59 4.557 1.77 1.137 1.16 1.705 2.7 1.705 4.62v9.67h-2.542l-.62-1.77h-.155c-.434.56-1.033 1.06-1.798 1.49-.744.43-1.674.65-2.79.65-.992 0-1.891-.2-2.697-.62-.806-.43-1.436-1-1.891-1.7-.455-.73-.682-1.51-.682-2.36 0-1.03.3-1.93.899-2.7.62-.78 1.478-1.38 2.573-1.79 1.116-.42 2.387-.62 3.813-.62h2.511v-.53c0-.93-.269-1.66-.806-2.2-.517-.56-1.219-.84-2.108-.84-.785 0-1.416.21-1.891.62-.475.39-.765.88-.868 1.46h-3.41c.103-.91.403-1.76.899-2.54.517-.79 1.23-1.42 2.139-1.9.909-.47 1.963-.71 3.162-.71zm-.93 13.55c1.137 0 2.056-.34 2.759-1.02.703-.69 1.054-1.5 1.054-2.45v-1h-2.48c-1.302 0-2.284.22-2.945.66-.641.41-.961.99-.961 1.73 0 .62.217 1.13.651 1.52.455.37 1.095.56 1.922.56zm20.673-13.18h3.503l-6.51 16.56c-.723 1.8-1.477 3.06-2.263 3.78-.764.72-1.663 1.09-2.697 1.09-.62 0-1.178-.11-1.674-.31v-3.1c.29.14.641.21 1.054.21.6 0 1.096-.15 1.488-.46.414-.29.755-.79 1.023-1.49l.372-.99-6.169-15.29h3.658l4.185 11.13 4.03-11.13z" fill="#fff"/><g filter="url(#filter0_d_5338_8185)"><rect x="506" y="2271" width="156" height="156" rx="78" fill="#7B61FF"/><rect x="506.5" y="2271.5" width="155" height="155" rx="77.5" stroke="url(#paint0_linear_5338_8185)" stroke-opacity=".1"/></g><path fill="#D9D9D9" d="M551 2323h69v11h-69zM550.93 2363.33h68.7018v11H550.93zM540 2343h89v11h-89z"/><path d="M315 2337.36c0-11.72 9.233-21.28 20.82-21.8.551-.02 1 .43 1 .98v20.82h20.82c.552 0 1.002.45.977 1-.523 11.58-10.082 20.82-21.797 20.82-12.051 0-21.82-9.77-21.82-21.82z" fill="url(#paint1_linear_5338_8185)"/><path d="M342.512 2308.29c0-.65.617-1.13 1.243-.94 11.059 3.29 19.78 12.01 23.078 23.07.186.63-.292 1.25-.945 1.25h-22.376c-.553 0-1-.45-1-1v-22.38z" fill="url(#paint2_linear_5338_8185)"/><path d="M292.632 2404.44c.951.31 1.819.92 2.604 1.83.785.88 1.178 2.05 1.178 3.5 0 1.16-.3 2.21-.899 3.16-.579.95-1.405 1.71-2.48 2.26-1.054.54-2.263.81-3.627.81h-9.021v-21.7h8.649c1.261 0 2.387.26 3.379.77.992.5 1.757 1.19 2.294 2.08.558.87.837 1.83.837 2.88 0 1.16-.289 2.11-.868 2.86-.579.74-1.261 1.26-2.046 1.55zm-8.649-7.01v5.7h4.743c.951 0 1.726-.26 2.325-.8.599-.54.899-1.23.899-2.08 0-.82-.3-1.5-.899-2.01-.599-.54-1.374-.81-2.325-.81h-4.743zm5.115 15.44c1.095 0 1.984-.31 2.666-.93.703-.64 1.054-1.46 1.054-2.45 0-.97-.351-1.77-1.054-2.39-.682-.64-1.571-.96-2.666-.96h-5.115v6.73h5.115zm16.302-12.93c1.902 0 3.421.59 4.557 1.77 1.137 1.16 1.705 2.7 1.705 4.62v9.67h-2.542l-.62-1.77h-.155c-.434.56-1.033 1.06-1.798 1.49-.744.43-1.674.65-2.79.65-.992 0-1.891-.2-2.697-.62-.806-.43-1.436-1-1.891-1.7-.454-.73-.682-1.51-.682-2.36 0-1.03.3-1.93.899-2.7.62-.78 1.478-1.38 2.573-1.79 1.116-.42 2.387-.62 3.813-.62h2.511v-.53c0-.93-.268-1.66-.806-2.2-.516-.56-1.219-.84-2.108-.84-.785 0-1.415.21-1.891.62-.475.39-.764.88-.868 1.46h-3.41c.104-.91.403-1.76.899-2.54.517-.79 1.23-1.42 2.139-1.9.91-.47 1.964-.71 3.162-.71zm-.93 13.55c1.137 0 2.057-.34 2.759-1.02.703-.69 1.054-1.5 1.054-2.45v-1h-2.48c-1.302 0-2.283.22-2.945.66-.64.41-.961.99-.961 1.73 0 .62.217 1.13.651 1.52.455.37 1.096.56 1.922.56zm14.559 2.51h-3.41v-21.7h3.41v21.7zm9.985-16.06c1.901 0 3.42.59 4.557 1.77 1.136 1.16 1.705 2.7 1.705 4.62v9.67h-2.542l-.62-1.77h-.155c-.434.56-1.034 1.06-1.798 1.49-.744.43-1.674.65-2.79.65-.992 0-1.891-.2-2.697-.62-.806-.43-1.437-1-1.891-1.7-.455-.73-.682-1.51-.682-2.36 0-1.03.299-1.93.899-2.7.62-.78 1.477-1.38 2.573-1.79 1.116-.42 2.387-.62 3.813-.62h2.511v-.53c0-.93-.269-1.66-.806-2.2-.517-.56-1.22-.84-2.108-.84-.786 0-1.416.21-1.891.62-.476.39-.765.88-.868 1.46h-3.41c.103-.91.403-1.76.899-2.54.516-.79 1.229-1.42 2.139-1.9.909-.47 1.963-.71 3.162-.71zm-.93 13.55c1.136 0 2.056-.34 2.759-1.02.702-.69 1.054-1.5 1.054-2.45v-1h-2.48c-1.302 0-2.284.22-2.945.66-.641.41-.961.99-.961 1.73 0 .62.217 1.13.651 1.52.454.37 1.095.56 1.922.56zm10.994 2.51v-15.69h2.542l.62 1.74h.155c.351-.48.909-.94 1.674-1.4.785-.47 1.694-.71 2.728-.71 1.219 0 2.304.29 3.255.87.95.56 1.694 1.35 2.232 2.39.537 1.03.806 2.23.806 3.59v9.21h-3.379v-8.96c0-1.16-.341-2.1-1.023-2.82-.662-.74-1.519-1.12-2.573-1.12-1.075 0-1.953.38-2.635 1.12-.662.72-.992 1.66-.992 2.82v8.96h-3.41zm24.713.37c-1.406 0-2.708-.36-3.906-1.08-1.178-.75-2.119-1.75-2.821-3.01-.703-1.26-1.054-2.64-1.054-4.12 0-1.51.351-2.89 1.054-4.13.702-1.26 1.643-2.25 2.821-2.97 1.198-.75 2.5-1.12 3.906-1.12 1.24 0 2.376.29 3.41.87 1.033.58 1.88 1.34 2.542 2.29.661.93 1.095 1.93 1.302 2.98h-3.41c-.228-.76-.672-1.45-1.333-2.05-.662-.62-1.499-.93-2.511-.93-.806 0-1.55.22-2.232.65-.662.44-1.189 1.04-1.581 1.8-.393.77-.589 1.64-.589 2.61s.196 1.84.589 2.6c.392.77.919 1.36 1.581 1.8.682.43 1.426.65 2.232.65 1.012 0 1.849-.3 2.511-.9.661-.62 1.105-1.31 1.333-2.08h3.41c-.207 1.06-.641 2.06-1.302 3.01-.662.93-1.509 1.69-2.542 2.26-1.034.58-2.17.87-3.41.87zm24.453-8.55c0 .66-.062 1.22-.186 1.67h-11.625c.207 1.18.703 2.11 1.488 2.79.786.68 1.736 1.02 2.852 1.02.806 0 1.488-.15 2.046-.46.558-.31 1.003-.7 1.333-1.18h3.534c-.31.79-.795 1.54-1.457 2.26-.64.73-1.436 1.32-2.387 1.77-.93.45-1.942.68-3.038.68-1.426 0-2.738-.36-3.937-1.08-1.178-.73-2.118-1.71-2.821-2.95-.682-1.26-1.023-2.65-1.023-4.18 0-1.51.352-2.89 1.054-4.13.703-1.26 1.643-2.25 2.821-2.97 1.199-.75 2.491-1.12 3.875-1.12 1.385 0 2.646.35 3.782 1.06 1.137.68 2.036 1.62 2.697 2.82.662 1.2.992 2.53.992 4zm-7.471-4.81c-1.074 0-2.015.36-2.821 1.09-.806.7-1.312 1.64-1.519 2.82h8.494c-.186-1.16-.661-2.1-1.426-2.82-.764-.73-1.674-1.09-2.728-1.09zm15.704 13.36c-1.199 0-2.263-.23-3.193-.68-.909-.48-1.633-1.11-2.17-1.89-.517-.79-.806-1.64-.868-2.57h3.348c.062.7.351 1.27.868 1.7.517.41 1.188.62 2.015.62.806 0 1.426-.17 1.86-.53.455-.35.682-.79.682-1.33 0-.62-.269-1.08-.806-1.39-.537-.33-1.385-.68-2.542-1.03-1.054-.33-1.922-.66-2.604-.99-.661-.33-1.23-.79-1.705-1.39-.475-.6-.713-1.38-.713-2.33 0-.87.227-1.65.682-2.36.455-.7 1.106-1.25 1.953-1.64.868-.41 1.881-.62 3.038-.62 1.116 0 2.108.23 2.976.68.889.44 1.581 1.04 2.077 1.8.496.75.775 1.58.837 2.51h-3.348c-.083-.68-.341-1.21-.775-1.58-.413-.39-1.002-.59-1.767-.59-.723 0-1.281.17-1.674.5-.393.31-.589.7-.589 1.18 0 .58.258 1.02.775 1.33.517.29 1.333.6 2.449.93 1.075.33 1.953.66 2.635.99.682.33 1.271.81 1.767 1.43.496.62.744 1.42.744 2.42 0 1.4-.527 2.56-1.581 3.47-1.054.91-2.511 1.36-4.371 1.36z" fill="#fff"/><path d="M829.304 2305.45l-6.91 18.09-17.937 7.23c-.855.34-.828 1.56.041 1.87l17.896 6.31 6.907 18.53c.324.87 1.551.87 1.875 0l6.907-18.53 18.347-6.31c.88-.3.907-1.54.041-1.88l-18.388-7.22-6.91-18.09c-.328-.86-1.541-.86-1.869 0z" fill="#5C5A6C"/><path d="M783.983 2406.54v6.05h11.036v3.41h-14.632v-21.7h14.322v3.41h-10.726v5.52h9.548v3.31h-9.548zm21.641 1.46l5.332 8h-3.906l-3.596-5.64-3.596 5.64h-3.782l5.332-8-4.991-7.69h3.875l3.286 5.27 3.286-5.27h3.72l-4.96 7.69zm7.449 13.58v-21.27h2.542l.62 1.74h.155c.351-.45.94-.92 1.767-1.4.847-.47 1.819-.71 2.914-.71 1.281 0 2.47.36 3.565 1.09 1.116.7 2.005 1.68 2.666 2.94.661 1.24.992 2.64.992 4.19 0 1.55-.331 2.95-.992 4.21-.661 1.24-1.55 2.22-2.666 2.95-1.095.7-2.284 1.05-3.565 1.05-.723 0-1.405-.12-2.046-.37-.62-.23-1.137-.5-1.55-.81-.413-.33-.692-.61-.837-.83h-.155v7.22h-3.41zm7.626-8.37c.765 0 1.467-.21 2.108-.62.641-.43 1.147-1.03 1.519-1.8.393-.78.589-1.66.589-2.63s-.196-1.84-.589-2.61c-.372-.78-.878-1.38-1.519-1.8-.641-.43-1.343-.65-2.108-.65-.765 0-1.467.22-2.108.65-.641.42-1.157 1.02-1.55 1.8-.372.77-.558 1.64-.558 2.61s.186 1.85.558 2.63c.393.77.909 1.37 1.55 1.8.641.41 1.343.62 2.108.62zm14.224 2.79h-3.41v-21.7h3.41v21.7zm10.976.37c-1.405 0-2.707-.36-3.906-1.08-1.178-.75-2.118-1.75-2.821-3.01-.702-1.26-1.054-2.64-1.054-4.12 0-1.51.352-2.89 1.054-4.13.703-1.26 1.643-2.25 2.821-2.97 1.199-.75 2.501-1.12 3.906-1.12 1.406 0 2.697.37 3.875 1.12 1.199.72 2.15 1.71 2.852 2.97.703 1.24 1.054 2.62 1.054 4.13 0 1.48-.351 2.86-1.054 4.12-.702 1.26-1.653 2.26-2.852 3.01-1.178.72-2.469 1.08-3.875 1.08zm0-3.16c.806 0 1.54-.22 2.201-.65.682-.44 1.22-1.03 1.612-1.8.393-.76.589-1.63.589-2.6 0-.97-.196-1.84-.589-2.61-.392-.76-.93-1.36-1.612-1.8-.661-.43-1.395-.65-2.201-.65s-1.55.22-2.232.65c-.661.44-1.188 1.04-1.581 1.8-.392.77-.589 1.64-.589 2.61s.197 1.84.589 2.6c.393.77.92 1.36 1.581 1.8.682.43 1.426.65 2.232.65zm10.858 2.79v-15.69h2.542l.62 1.74h.155c.331-.48.837-.94 1.519-1.4.682-.47 1.468-.71 2.356-.71.517 0 .951.04 1.302.13v3.41c-.392-.09-.857-.13-1.395-.13-1.095 0-1.984.35-2.666 1.06-.682.7-1.023 1.67-1.023 2.91v8.68h-3.41zm24.525-8.18c0 .66-.062 1.22-.186 1.67h-11.625c.206 1.18.702 2.11 1.488 2.79.785.68 1.736 1.02 2.852 1.02.806 0 1.488-.15 2.046-.46.558-.31 1.002-.7 1.333-1.18h3.534c-.31.79-.796 1.54-1.457 2.26-.641.73-1.437 1.32-2.387 1.77-.93.45-1.943.68-3.038.68-1.426 0-2.739-.36-3.937-1.08-1.178-.73-2.119-1.71-2.821-2.95-.682-1.26-1.023-2.65-1.023-4.18 0-1.51.351-2.89 1.054-4.13.702-1.26 1.643-2.25 2.821-2.97 1.198-.75 2.49-1.12 3.875-1.12 1.384 0 2.645.35 3.782 1.06 1.136.68 2.035 1.62 2.697 2.82.661 1.2.992 2.53.992 4zm-7.471-4.81c-1.075 0-2.015.36-2.821 1.09-.806.7-1.313 1.64-1.519 2.82h8.494c-.186-1.16-.662-2.1-1.426-2.82-.765-.73-1.674-1.09-2.728-1.09z" fill="#fff"/><path d="M1038 2327.4c4.5 0 8.14-3.67 8.14-8.2 0-4.53-3.64-8.2-8.14-8.2s-8.14 3.67-8.14 8.2c0 4.53 3.64 8.2 8.14 8.2zM1019 2352c0-10.57 8.51-19.13 19-19.13s19 8.56 19 19.13h-38z" fill="#5C5A6C"/><path d="M1004.14 2394.3c1.36 0 2.6.32 3.72.96 1.11.62 1.99 1.47 2.63 2.54.66 1.08.99 2.28.99 3.6 0 1.32-.32 2.53-.96 3.63-.64 1.07-1.53 1.93-2.66 2.57-1.12.62-2.36.93-3.72.93h-4.157v7.47h-3.596v-21.7h7.753zm-.06 10.79c1.07 0 1.97-.35 2.69-1.06.75-.7 1.12-1.58 1.12-2.63 0-1.06-.37-1.92-1.12-2.61-.72-.7-1.62-1.05-2.69-1.05h-4.097v7.35h4.097zm9.95 10.91v-15.69h2.54l.62 1.74h.15c.33-.48.84-.94 1.52-1.4.68-.47 1.47-.71 2.36-.71.52 0 .95.04 1.3.13v3.41c-.39-.09-.86-.13-1.39-.13-1.1 0-1.99.35-2.67 1.06-.68.7-1.02 1.67-1.02 2.91v8.68h-3.41zm17.08.37c-1.4 0-2.71-.36-3.9-1.08-1.18-.75-2.12-1.75-2.83-3.01-.7-1.26-1.05-2.64-1.05-4.12 0-1.51.35-2.89 1.05-4.13.71-1.26 1.65-2.25 2.83-2.97 1.19-.75 2.5-1.12 3.9-1.12 1.41 0 2.7.37 3.88 1.12 1.19.72 2.15 1.71 2.85 2.97.7 1.24 1.05 2.62 1.05 4.13 0 1.48-.35 2.86-1.05 4.12-.7 1.26-1.66 2.26-2.85 3.01-1.18.72-2.47 1.08-3.88 1.08zm0-3.16c.81 0 1.54-.22 2.2-.65.68-.44 1.22-1.03 1.61-1.8.4-.76.59-1.63.59-2.6 0-.97-.19-1.84-.59-2.61-.39-.76-.93-1.36-1.61-1.8-.66-.43-1.39-.65-2.2-.65-.8 0-1.55.22-2.23.65-.66.44-1.19 1.04-1.58 1.8-.39.77-.59 1.64-.59 2.61s.2 1.84.59 2.6c.39.77.92 1.36 1.58 1.8.68.43 1.43.65 2.23.65zm14.77-12.9h9.02V2416h-3.41v-12.74h-5.51V2416h-3.38v-12.74h-2.14v-2.95h2.14v-.09c0-2 .62-3.57 1.86-4.71 1.26-1.14 3.03-1.71 5.33-1.71 1.26 0 2.4.21 3.41.62v2.89c-.91-.33-1.99-.5-3.23-.5-1.3 0-2.31.3-3.03.9-.71.6-1.06 1.45-1.06 2.54v.06zm16.37 15.69h-3.41v-21.7h3.41v21.7zm18.41-8.18c0 .66-.06 1.22-.18 1.67h-11.63c.21 1.18.7 2.11 1.49 2.79.78.68 1.73 1.02 2.85 1.02.81 0 1.49-.15 2.05-.46.55-.31 1-.7 1.33-1.18h3.53c-.31.79-.79 1.54-1.45 2.26-.64.73-1.44 1.32-2.39 1.77-.93.45-1.94.68-3.04.68-1.42 0-2.74-.36-3.94-1.08-1.17-.73-2.11-1.71-2.82-2.95-.68-1.26-1.02-2.65-1.02-4.18 0-1.51.35-2.89 1.05-4.13.71-1.26 1.65-2.25 2.83-2.97 1.19-.75 2.49-1.12 3.87-1.12 1.39 0 2.65.35 3.78 1.06 1.14.68 2.04 1.62 2.7 2.82.66 1.2.99 2.53.99 4zm-7.47-4.81c-1.07 0-2.01.36-2.82 1.09-.81.7-1.31 1.64-1.52 2.82h8.49c-.18-1.16-.66-2.1-1.42-2.82-.77-.73-1.68-1.09-2.73-1.09zM430.312 605.072c0 5.512-1.802 10.176-5.406 13.992-3.533 3.745-8.551 6.042-15.052 6.89v10.176h-11.448v-10.388c-6.289-1.131-11.271-3.816-14.946-8.056-3.675-4.24-5.653-9.399-5.936-15.476h12.296c.353 3.957 1.802 7.102 4.346 9.434 2.615 2.332 6.148 3.498 10.6 3.498 4.24 0 7.491-.919 9.752-2.756 2.332-1.837 3.498-4.169 3.498-6.996 0-2.261-.707-4.134-2.12-5.618-1.343-1.555-3.074-2.791-5.194-3.71s-5.017-2.014-8.692-3.286c-4.805-1.625-8.727-3.18-11.766-4.664-3.039-1.555-5.653-3.745-7.844-6.572-2.12-2.897-3.18-6.643-3.18-11.236 0-5.229 1.696-9.681 5.088-13.356 3.392-3.745 8.091-6.077 14.098-6.996V539.67h11.448v10.494c5.724 1.131 10.317 3.781 13.78 7.95 3.463 4.169 5.335 9.116 5.618 14.84h-12.296c-.212-3.675-1.484-6.643-3.816-8.904s-5.441-3.392-9.328-3.392c-3.887 0-6.925.919-9.116 2.756-2.12 1.837-3.18 4.205-3.18 7.102 0 2.191.671 4.028 2.014 5.512 1.413 1.413 3.145 2.579 5.194 3.498 2.12.919 4.982 1.943 8.586 3.074 4.947 1.625 8.904 3.18 11.872 4.664 3.039 1.413 5.653 3.569 7.844 6.466 2.191 2.897 3.286 6.678 3.286 11.342zm6.169-40.916l18.974-13.356h9.328V625h-12.296v-58.724l-10.282 7.208-5.724-9.328zm47.628 47.382c2.191 0 3.993.777 5.406 2.332 1.414 1.484 2.12 3.463 2.12 5.936 0 4.381-1.166 8.339-3.498 11.872-2.261 3.604-4.699 6.466-7.314 8.586l-2.332-2.968c1.202-1.555 2.262-3.215 3.18-4.982.919-1.696 1.555-3.71 1.908-6.042-1.978-.141-3.604-.919-4.876-2.332-1.272-1.413-1.908-3.109-1.908-5.088 0-2.049.707-3.781 2.12-5.194 1.414-1.413 3.145-2.12 5.194-2.12zm52.991-25.122c3.534 1.413 6.466 3.639 8.798 6.678 2.332 2.968 3.498 6.819 3.498 11.554 0 3.816-1.06 7.385-3.18 10.706-2.12 3.321-5.123 5.971-9.01 7.95-3.816 1.979-8.232 2.968-13.25 2.968-5.088 0-9.575-.989-13.462-2.968-3.816-1.979-6.819-4.593-9.01-7.844-2.12-3.321-3.392-6.925-3.816-10.812h12.296c.354 2.615 1.767 4.982 4.24 7.102 2.474 2.12 5.689 3.18 9.646 3.18 4.099 0 7.314-1.025 9.646-3.074 2.403-2.12 3.604-4.841 3.604-8.162 0-3.392-1.201-6.113-3.604-8.162-2.402-2.12-5.759-3.18-10.07-3.18h-5.3V582.07h4.77c3.887 0 6.926-.954 9.116-2.862 2.262-1.979 3.392-4.523 3.392-7.632s-1.095-5.653-3.286-7.632c-2.12-2.049-4.982-3.074-8.586-3.074-3.533 0-6.43.989-8.692 2.968-2.261 1.908-3.533 4.205-3.816 6.89h-12.296c.283-3.745 1.484-7.243 3.604-10.494 2.191-3.251 5.124-5.83 8.798-7.738 3.675-1.979 7.774-2.968 12.296-2.968 4.735 0 8.94.989 12.614 2.968 3.675 1.908 6.537 4.487 8.586 7.738 2.05 3.18 3.074 6.678 3.074 10.494 0 3.533-.989 6.607-2.968 9.222-1.978 2.615-4.522 4.77-7.632 6.466zm57.866 0c3.533 1.413 6.466 3.639 8.798 6.678 2.332 2.968 3.498 6.819 3.498 11.554 0 3.816-1.06 7.385-3.18 10.706-2.12 3.321-5.124 5.971-9.01 7.95-3.816 1.979-8.233 2.968-13.25 2.968-5.088 0-9.576-.989-13.462-2.968-3.816-1.979-6.82-4.593-9.01-7.844-2.12-3.321-3.392-6.925-3.816-10.812h12.296c.353 2.615 1.766 4.982 4.24 7.102 2.473 2.12 5.688 3.18 9.646 3.18 4.098 0 7.314-1.025 9.646-3.074 2.402-2.12 3.604-4.841 3.604-8.162 0-3.392-1.202-6.113-3.604-8.162-2.403-2.12-5.76-3.18-10.07-3.18h-5.3V582.07h4.77c3.886 0 6.925-.954 9.116-2.862 2.261-1.979 3.392-4.523 3.392-7.632s-1.096-5.653-3.286-7.632c-2.12-2.049-4.982-3.074-8.586-3.074-3.534 0-6.431.989-8.692 2.968-2.262 1.908-3.534 4.205-3.816 6.89h-12.296c.282-3.745 1.484-7.243 3.604-10.494 2.19-3.251 5.123-5.83 8.798-7.738 3.674-1.979 7.773-2.968 12.296-2.968 4.734 0 8.939.989 12.614 2.968 3.674 1.908 6.536 4.487 8.586 7.738 2.049 3.18 3.074 6.678 3.074 10.494 0 3.533-.99 6.607-2.968 9.222-1.979 2.615-4.523 4.77-7.632 6.466zm16.575-23.85V550.8h48.336v9.646L632.423 625h-13.144l26.712-62.434h-34.45zm52.067 63.706c-2.12 0-3.887-.707-5.3-2.12-1.413-1.484-2.12-3.251-2.12-5.3s.707-3.781 2.12-5.194c1.413-1.413 3.18-2.12 5.3-2.12 2.12 0 3.887.707 5.3 2.12 1.413 1.413 2.12 3.145 2.12 5.194s-.707 3.816-2.12 5.3c-1.413 1.413-3.18 2.12-5.3 2.12zm42.815-51.728c4.805 0 9.116 1.131 12.932 3.392 3.887 2.261 6.925 5.371 9.116 9.328 2.261 3.887 3.392 8.268 3.392 13.144 0 4.735-1.166 9.081-3.498 13.038-2.261 3.957-5.406 7.102-9.434 9.434-4.028 2.261-8.551 3.392-13.568 3.392-5.017 0-9.54-1.131-13.568-3.392-4.028-2.332-7.208-5.477-9.54-9.434-2.261-3.957-3.392-8.303-3.392-13.038 0-3.816.707-7.349 2.12-10.6 1.484-3.321 3.357-6.678 5.618-10.07l19.398-28.938h13.144l-16.324 24.168c1.272-.283 2.473-.424 3.604-.424zm-1.06 40.386c4.028 0 7.385-1.343 10.07-4.028 2.756-2.756 4.134-6.289 4.134-10.6s-1.378-7.809-4.134-10.494c-2.685-2.756-6.042-4.134-10.07-4.134-4.099 0-7.491 1.378-10.176 4.134-2.685 2.685-4.028 6.183-4.028 10.494s1.343 7.844 4.028 10.6c2.685 2.685 6.077 4.028 10.176 4.028zm58.375-65.402c5.018 0 9.54 1.166 13.568 3.498 4.028 2.261 7.173 5.371 9.434 9.328 2.332 3.957 3.498 8.303 3.498 13.038 0 3.816-.742 7.385-2.226 10.706-1.484 3.321-3.356 6.643-5.618 9.964L763.102 625h-13.144l16.324-24.168c-1.272.283-2.473.424-3.604.424-4.805 0-9.151-1.131-13.038-3.392-3.816-2.261-6.854-5.335-9.116-9.222-2.19-3.957-3.286-8.374-3.286-13.25 0-4.735 1.131-9.081 3.392-13.038 2.332-3.957 5.512-7.067 9.54-9.328 4.028-2.332 8.551-3.498 13.568-3.498zm0 40.598c4.099 0 7.491-1.343 10.176-4.028 2.686-2.756 4.028-6.289 4.028-10.6s-1.342-7.809-4.028-10.494c-2.685-2.756-6.077-4.134-10.176-4.134-4.028 0-7.42 1.378-10.176 4.134-2.685 2.685-4.028 6.183-4.028 10.494s1.343 7.844 4.028 10.6c2.756 2.685 6.148 4.028 10.176 4.028z" fill="#fff"/><g filter="url(#filter1_d_5338_8185)"><path d="M478.109 703.328l29.48-29.484m0 0h-18.114m18.114 0l-.001 17.805" stroke="#AFD803" stroke-width="5" stroke-linecap="round" stroke-linejoin="round"/></g><path d="M549.521 694.352c0 2.392-.782 4.416-2.346 6.072-1.533 1.625-3.711 2.622-6.532 2.99v4.416h-4.968v-4.508c-2.729-.491-4.891-1.656-6.486-3.496-1.595-1.84-2.453-4.079-2.576-6.716h5.336c.153 1.717.782 3.082 1.886 4.094 1.135 1.012 2.668 1.518 4.6 1.518 1.84 0 3.251-.399 4.232-1.196 1.012-.797 1.518-1.809 1.518-3.036 0-.981-.307-1.794-.92-2.438-.583-.675-1.334-1.211-2.254-1.61-.92-.399-2.177-.874-3.772-1.426-2.085-.705-3.787-1.38-5.106-2.024-1.319-.675-2.453-1.625-3.404-2.852-.92-1.257-1.38-2.883-1.38-4.876 0-2.269.736-4.201 2.208-5.796 1.472-1.625 3.511-2.637 6.118-3.036v-4.462h4.968v4.554c2.484.491 4.477 1.641 5.98 3.45 1.503 1.809 2.315 3.956 2.438 6.44h-5.336c-.092-1.595-.644-2.883-1.656-3.864-1.012-.981-2.361-1.472-4.048-1.472-1.687 0-3.005.399-3.956 1.196-.92.797-1.38 1.825-1.38 3.082 0 .951.291 1.748.874 2.392.613.613 1.365 1.119 2.254 1.518.92.399 2.162.843 3.726 1.334 2.147.705 3.864 1.38 5.152 2.024 1.319.613 2.453 1.549 3.404 2.806.951 1.257 1.426 2.898 1.426 4.922zm22.457-2.576h3.404v4.922h-3.404V703h-5.198v-6.302h-14.49v-4.554l13.432-21.344h6.256v20.976zm-5.198 0v-13.8l-8.694 13.8h8.694zm18.82 6.118h13.248V703h-21.114v-4.094l11.178-11.408c1.748-1.748 2.959-3.128 3.634-4.14.705-1.043 1.058-2.208 1.058-3.496 0-1.38-.506-2.499-1.518-3.358-.981-.889-2.285-1.334-3.91-1.334-1.656 0-3.005.506-4.048 1.518-1.043.981-1.579 2.269-1.61 3.864h-5.198c.031-1.901.506-3.634 1.426-5.198.951-1.595 2.239-2.837 3.864-3.726 1.656-.92 3.511-1.38 5.566-1.38 2.116 0 3.987.414 5.612 1.242 1.656.828 2.929 1.963 3.818 3.404.889 1.441 1.334 3.036 1.334 4.784 0 1.993-.521 3.803-1.564 5.428-1.012 1.625-2.545 3.481-4.6 5.566l-7.176 7.222zm20.196 5.658c-.92 0-1.687-.307-2.3-.92-.613-.644-.92-1.411-.92-2.3 0-.889.307-1.641.92-2.254s1.38-.92 2.3-.92c.92 0 1.687.307 2.3.92.613.613.92 1.365.92 2.254s-.307 1.656-.92 2.3c-.613.613-1.38.92-2.3.92zm18.948 0c-2.269 0-4.355-.629-6.256-1.886-1.871-1.288-3.358-3.189-4.462-5.704-1.104-2.515-1.656-5.535-1.656-9.062 0-3.527.552-6.547 1.656-9.062 1.104-2.515 2.591-4.401 4.462-5.658 1.901-1.288 3.987-1.932 6.256-1.932s4.339.644 6.21 1.932c1.901 1.257 3.404 3.143 4.508 5.658 1.104 2.515 1.656 5.535 1.656 9.062 0 3.527-.552 6.547-1.656 9.062-1.104 2.515-2.607 4.416-4.508 5.704-1.871 1.257-3.941 1.886-6.21 1.886zm0-5.106c1.288 0 2.453-.399 3.496-1.196 1.073-.828 1.932-2.101 2.576-3.818.644-1.748.966-3.925.966-6.532s-.322-4.769-.966-6.486c-.644-1.748-1.503-3.021-2.576-3.818-1.043-.828-2.208-1.242-3.496-1.242-1.288 0-2.469.414-3.542 1.242-1.043.797-1.886 2.07-2.53 3.818-.644 1.717-.966 3.879-.966 6.486 0 2.607.322 4.784.966 6.532.644 1.717 1.487 2.99 2.53 3.818 1.073.797 2.254 1.196 3.542 1.196zm28.166 5.106c-2.269 0-4.355-.629-6.256-1.886-1.871-1.288-3.358-3.189-4.462-5.704-1.104-2.515-1.656-5.535-1.656-9.062 0-3.527.552-6.547 1.656-9.062 1.104-2.515 2.591-4.401 4.462-5.658 1.901-1.288 3.987-1.932 6.256-1.932s4.339.644 6.21 1.932c1.901 1.257 3.404 3.143 4.508 5.658 1.104 2.515 1.656 5.535 1.656 9.062 0 3.527-.552 6.547-1.656 9.062-1.104 2.515-2.607 4.416-4.508 5.704-1.871 1.257-3.941 1.886-6.21 1.886zm0-5.106c1.288 0 2.453-.399 3.496-1.196 1.073-.828 1.932-2.101 2.576-3.818.644-1.748.966-3.925.966-6.532s-.322-4.769-.966-6.486c-.644-1.748-1.503-3.021-2.576-3.818-1.043-.828-2.208-1.242-3.496-1.242-1.288 0-2.469.414-3.542 1.242-1.043.797-1.886 2.07-2.53 3.818-.644 1.717-.966 3.879-.966 6.486 0 2.607.322 4.784.966 6.532.644 1.717 1.487 2.99 2.53 3.818 1.073.797 2.254 1.196 3.542 1.196z" fill="#AFD803"/><path d="M499.098 506h-3.712v-18.848h-6.656V483.6h17.024v3.552h-6.656V506zm13.71.384c-1.45 0-2.794-.373-4.032-1.12-1.216-.768-2.186-1.803-2.912-3.104-.725-1.301-1.088-2.72-1.088-4.256 0-1.557.363-2.976 1.088-4.256.726-1.301 1.696-2.325 2.912-3.072 1.238-.768 2.582-1.152 4.032-1.152 1.451 0 2.784.384 4 1.152 1.238.747 2.219 1.771 2.944 3.072.726 1.28 1.088 2.699 1.088 4.256 0 1.536-.362 2.955-1.088 4.256-.725 1.301-1.706 2.336-2.944 3.104-1.216.747-2.549 1.12-4 1.12zm0-3.264c.832 0 1.59-.224 2.272-.672.704-.448 1.259-1.067 1.664-1.856.406-.789.608-1.685.608-2.688 0-1.003-.202-1.899-.608-2.688-.405-.789-.96-1.408-1.664-1.856-.682-.448-1.44-.672-2.272-.672-.832 0-1.6.224-2.304.672-.682.448-1.226 1.067-1.632 1.856-.405.789-.608 1.685-.608 2.688 0 1.003.203 1.899.608 2.688.406.789.95 1.408 1.632 1.856.704.448 1.472.672 2.304.672zm17.072 3.264c-1.514 0-2.741-.501-3.68-1.504-.938-1.003-1.408-2.379-1.408-4.128v-7.776h-2.656V490h1.152c.64 0 1.12-.16 1.44-.48.342-.341.512-.821.512-1.44v-2.432h3.04v4.16h3.52v3.168h-3.52v7.488c0 .875.214 1.536.64 1.984.427.427 1.014.64 1.76.64.448 0 .822-.075 1.12-.224v3.2c-.554.213-1.194.32-1.92.32zm10.842-16.96c1.962 0 3.53.608 4.704 1.824 1.173 1.195 1.76 2.784 1.76 4.768V506h-2.624l-.64-1.824h-.16c-.448.576-1.067 1.088-1.856 1.536-.768.448-1.728.672-2.88.672-1.024 0-1.952-.213-2.784-.64-.832-.448-1.483-1.035-1.952-1.76-.47-.747-.704-1.557-.704-2.432 0-1.067.309-1.995.928-2.784.64-.811 1.525-1.429 2.656-1.856 1.152-.427 2.464-.64 3.936-.64h2.592v-.544c0-.96-.278-1.717-.832-2.272-.534-.576-1.259-.864-2.176-.864-.811 0-1.462.213-1.952.64-.491.405-.79.907-.896 1.504h-3.52c.106-.939.416-1.813.928-2.624.533-.811 1.269-1.461 2.208-1.952.938-.491 2.026-.736 3.264-.736zm-.96 13.984c1.173 0 2.122-.352 2.848-1.056.725-.704 1.088-1.547 1.088-2.528V498.8h-2.56c-1.344 0-2.358.224-3.04.672-.662.427-.992 1.024-.992 1.792 0 .64.224 1.163.672 1.568.469.384 1.13.576 1.984.576zM554.791 506h-3.52v-22.4h3.52V506zm25.188-11.936c.981.32 1.877.949 2.688 1.888.811.917 1.216 2.123 1.216 3.616 0 1.195-.309 2.283-.928 3.264-.597.981-1.451 1.76-2.56 2.336-1.088.555-2.336.832-3.744.832h-9.312v-22.4h8.928c1.301 0 2.464.267 3.488.8 1.024.512 1.813 1.227 2.368 2.144.576.896.864 1.888.864 2.976 0 1.195-.299 2.176-.896 2.944-.597.768-1.301 1.301-2.112 1.6zm-8.928-7.232v5.888h4.896c.981 0 1.781-.277 2.4-.832.619-.555.928-1.269.928-2.144 0-.853-.309-1.547-.928-2.08-.619-.555-1.419-.832-2.4-.832h-4.896zm5.28 15.936c1.131 0 2.048-.32 2.752-.96.725-.661 1.088-1.504 1.088-2.528 0-1.003-.363-1.824-1.088-2.464-.704-.661-1.621-.992-2.752-.992h-5.28v6.944h5.28zm16.828-13.344c1.963 0 3.531.608 4.704 1.824 1.174 1.195 1.76 2.784 1.76 4.768V506h-2.624l-.64-1.824h-.16c-.448.576-1.066 1.088-1.856 1.536-.768.448-1.728.672-2.88.672-1.024 0-1.952-.213-2.784-.64-.832-.448-1.482-1.035-1.952-1.76-.469-.747-.704-1.557-.704-2.432 0-1.067.31-1.995.928-2.784.64-.811 1.526-1.429 2.656-1.856 1.152-.427 2.464-.64 3.936-.64h2.592v-.544c0-.96-.277-1.717-.832-2.272-.533-.576-1.258-.864-2.176-.864-.81 0-1.461.213-1.952.64-.49.405-.789.907-.896 1.504h-3.52c.107-.939.416-1.813.928-2.624.534-.811 1.27-1.461 2.208-1.952.939-.491 2.027-.736 3.264-.736zm-.96 13.984c1.174 0 2.123-.352 2.848-1.056.726-.704 1.088-1.547 1.088-2.528V498.8h-2.56c-1.344 0-2.357.224-3.04.672-.661.427-.992 1.024-.992 1.792 0 .64.224 1.163.672 1.568.47.384 1.131.576 1.984.576zM607.228 506h-3.52v-22.4h3.52V506zm10.306-16.576c1.963 0 3.531.608 4.704 1.824 1.174 1.195 1.76 2.784 1.76 4.768V506h-2.624l-.64-1.824h-.16c-.448.576-1.066 1.088-1.856 1.536-.768.448-1.728.672-2.88.672-1.024 0-1.952-.213-2.784-.64-.832-.448-1.482-1.035-1.952-1.76-.469-.747-.704-1.557-.704-2.432 0-1.067.31-1.995.928-2.784.64-.811 1.526-1.429 2.656-1.856 1.152-.427 2.464-.64 3.936-.64h2.592v-.544c0-.96-.277-1.717-.832-2.272-.533-.576-1.258-.864-2.176-.864-.81 0-1.461.213-1.952.64-.49.405-.789.907-.896 1.504h-3.52c.107-.939.416-1.813.928-2.624.534-.811 1.27-1.461 2.208-1.952.939-.491 2.027-.736 3.264-.736zm-.96 13.984c1.174 0 2.123-.352 2.848-1.056.726-.704 1.088-1.547 1.088-2.528V498.8h-2.56c-1.344 0-2.357.224-3.04.672-.661.427-.992 1.024-.992 1.792 0 .64.224 1.163.672 1.568.47.384 1.131.576 1.984.576zM627.923 506v-16.192h2.624l.64 1.792h.16c.363-.491.939-.971 1.728-1.44.811-.491 1.749-.736 2.816-.736 1.259 0 2.379.299 3.36.896.981.576 1.749 1.397 2.304 2.464.555 1.067.832 2.304.832 3.712V506h-3.488v-9.248c0-1.195-.352-2.165-1.056-2.912-.683-.768-1.568-1.152-2.656-1.152-1.109 0-2.016.384-2.72 1.152-.683.747-1.024 1.717-1.024 2.912V506h-3.52zm25.51.384c-1.45 0-2.794-.373-4.032-1.12-1.216-.768-2.186-1.803-2.912-3.104-.725-1.301-1.088-2.72-1.088-4.256 0-1.557.363-2.976 1.088-4.256.726-1.301 1.696-2.325 2.912-3.072 1.238-.768 2.582-1.152 4.032-1.152 1.28 0 2.454.299 3.52.896 1.067.597 1.942 1.387 2.624 2.368.683.96 1.131 1.984 1.344 3.072h-3.52c-.234-.789-.693-1.493-1.376-2.112-.682-.64-1.546-.96-2.592-.96-.832 0-1.6.224-2.304.672-.682.448-1.226 1.067-1.632 1.856-.405.789-.608 1.685-.608 2.688 0 1.003.203 1.899.608 2.688.406.789.95 1.408 1.632 1.856.704.448 1.472.672 2.304.672 1.046 0 1.91-.309 2.592-.928.683-.64 1.142-1.355 1.376-2.144h3.52c-.213 1.088-.661 2.123-1.344 3.104-.682.96-1.557 1.739-2.624 2.336-1.066.597-2.24.896-3.52.896zm25.243-8.832c0 .683-.064 1.259-.192 1.728h-12c.213 1.216.725 2.176 1.536 2.88.81.704 1.792 1.056 2.944 1.056.832 0 1.536-.16 2.112-.48.576-.32 1.034-.725 1.376-1.216h3.648c-.32.811-.822 1.589-1.504 2.336-.662.747-1.483 1.355-2.464 1.824-.96.469-2.006.704-3.136.704-1.472 0-2.827-.373-4.064-1.12-1.216-.747-2.187-1.76-2.912-3.04-.704-1.301-1.056-2.741-1.056-4.32 0-1.557.362-2.976 1.088-4.256.725-1.301 1.696-2.325 2.912-3.072 1.237-.768 2.57-1.152 4-1.152 1.429 0 2.73.363 3.904 1.088 1.173.704 2.101 1.675 2.784 2.912.682 1.237 1.024 2.613 1.024 4.128zm-7.712-4.96c-1.11 0-2.08.373-2.912 1.12-.832.725-1.355 1.696-1.568 2.912h8.768c-.192-1.195-.683-2.165-1.472-2.912-.79-.747-1.728-1.12-2.816-1.12z" fill="#fff" fill-opacity=".5"/><g filter="url(#filter2_d_5338_8185)"><rect x="50" y="1090" width="283" height="89" rx="33" fill="#fff" fill-opacity=".1" shape-rendering="crispEdges"/></g><g filter="url(#filter3_d_5338_8185)"><rect x="365" y="1091" width="281" height="87" rx="32" stroke="#fff" stroke-opacity=".1" stroke-width="2" shape-rendering="crispEdges"/></g><g filter="url(#filter4_d_5338_8185)"><rect x="670" y="1091" width="281" height="87" rx="32" stroke="#fff" stroke-opacity=".1" stroke-width="2" shape-rendering="crispEdges"/></g><path d="M123.21 1150h-5.612l-2.622-7.22h-13.018l-2.622 7.22h-5.428l12.098-32.2h5.152l12.052 32.2zm-9.982-12.14l-4.738-13.21-4.784 13.21h9.522zm18.115 12.14h-5.06v-32.2h5.06v32.2zm11.366 0h-5.06v-32.2h5.06v32.2zm26.18-23.83c2.821 0 5.075.88 6.762 2.62 1.687 1.72 2.53 4.01 2.53 6.86V1150h-3.772l-.92-2.62h-.23c-.644.83-1.533 1.56-2.668 2.21-1.104.64-2.484.96-4.14.96-1.472 0-2.806-.3-4.002-.92-1.196-.64-2.131-1.49-2.806-2.53-.675-1.07-1.012-2.24-1.012-3.49 0-1.54.445-2.87 1.334-4.01.92-1.16 2.193-2.05 3.818-2.66 1.656-.62 3.542-.92 5.658-.92h3.726v-.79c0-1.38-.399-2.46-1.196-3.26-.767-.83-1.809-1.24-3.128-1.24-1.165 0-2.101.3-2.806.92-.705.58-1.135 1.3-1.288 2.16h-5.06c.153-1.35.598-2.61 1.334-3.77.767-1.17 1.825-2.1 3.174-2.81s2.913-1.06 4.692-1.06zm-1.38 20.1c1.687 0 3.051-.5 4.094-1.51 1.043-1.02 1.564-2.23 1.564-3.64v-1.47h-3.68c-1.932 0-3.389.32-4.37.97-.951.61-1.426 1.47-1.426 2.57 0 .92.322 1.67.966 2.26.675.55 1.625.82 2.852.82zm24.042 4.28c-1.779 0-3.358-.34-4.738-1.01-1.349-.71-2.423-1.64-3.22-2.81-.767-1.16-1.196-2.43-1.288-3.81h4.968c.092 1.04.521 1.88 1.288 2.53.767.61 1.763.92 2.99.92 1.196 0 2.116-.26 2.76-.79.675-.52 1.012-1.18 1.012-1.97 0-.92-.399-1.61-1.196-2.07-.797-.49-2.055-1-3.772-1.52-1.564-.49-2.852-.98-3.864-1.47-.981-.49-1.825-1.18-2.53-2.07-.705-.89-1.058-2.04-1.058-3.45 0-1.29.337-2.46 1.012-3.5s1.641-1.86 2.898-2.44c1.288-.61 2.791-.92 4.508-.92 1.656 0 3.128.34 4.416 1.01 1.319.65 2.346 1.54 3.082 2.67.736 1.11 1.15 2.35 1.242 3.73h-4.968c-.123-1.01-.506-1.8-1.15-2.35-.613-.58-1.487-.87-2.622-.87-1.073 0-1.901.24-2.484.73-.583.46-.874 1.05-.874 1.75 0 .86.383 1.52 1.15 1.98.767.43 1.978.89 3.634 1.38 1.595.49 2.898.98 3.91 1.47s1.886 1.2 2.622 2.12c.736.92 1.104 2.11 1.104 3.59 0 2.08-.782 3.8-2.346 5.15-1.564 1.35-3.726 2.02-6.486 2.02zm21.068 0c-1.778 0-3.358-.34-4.738-1.01-1.349-.71-2.422-1.64-3.22-2.81-.766-1.16-1.196-2.43-1.288-3.81h4.968c.092 1.04.522 1.88 1.288 2.53.767.61 1.764.92 2.99.92 1.196 0 2.116-.26 2.76-.79.675-.52 1.012-1.18 1.012-1.97 0-.92-.398-1.61-1.196-2.07-.797-.49-2.054-1-3.772-1.52-1.564-.49-2.852-.98-3.864-1.47-.981-.49-1.824-1.18-2.53-2.07-.705-.89-1.058-2.04-1.058-3.45 0-1.29.338-2.46 1.012-3.5.675-1.04 1.641-1.86 2.898-2.44 1.288-.61 2.791-.92 4.508-.92 1.656 0 3.128.34 4.416 1.01 1.319.65 2.346 1.54 3.082 2.67.736 1.11 1.15 2.35 1.242 3.73h-4.968c-.122-1.01-.506-1.8-1.15-2.35-.613-.58-1.487-.87-2.622-.87-1.073 0-1.901.24-2.484.73-.582.46-.874 1.05-.874 1.75 0 .86.384 1.52 1.15 1.98.767.43 1.978.89 3.634 1.38 1.595.49 2.898.98 3.91 1.47s1.886 1.2 2.622 2.12c.736.92 1.104 2.11 1.104 3.59 0 2.08-.782 3.8-2.346 5.15-1.564 1.35-3.726 2.02-6.486 2.02zm34.593-12.69c0 .98-.092 1.81-.276 2.48h-17.25c.306 1.75 1.042 3.13 2.208 4.14 1.165 1.01 2.576 1.52 4.232 1.52 1.196 0 2.208-.23 3.036-.69.828-.46 1.487-1.04 1.978-1.75h5.244c-.46 1.17-1.181 2.28-2.162 3.36-.951 1.07-2.132 1.95-3.542 2.62-1.38.67-2.883 1.01-4.508 1.01-2.116 0-4.064-.53-5.842-1.61-1.748-1.07-3.144-2.53-4.186-4.37-1.012-1.87-1.518-3.94-1.518-6.21 0-2.24.521-4.28 1.564-6.12 1.042-1.87 2.438-3.34 4.186-4.41 1.778-1.11 3.695-1.66 5.75-1.66 2.054 0 3.925.52 5.612 1.57 1.686 1.01 3.02 2.4 4.002 4.18.981 1.78 1.472 3.76 1.472 5.94zm-11.086-7.13c-1.595 0-2.99.53-4.186 1.61-1.196 1.04-1.948 2.43-2.254 4.18h12.604c-.276-1.72-.982-3.11-2.116-4.18-1.135-1.08-2.484-1.61-4.048-1.61zm24.003 19.82c-2.178 0-3.941-.72-5.29-2.16-1.35-1.44-2.024-3.42-2.024-5.93v-11.18h-3.818V1127h1.656c.92 0 1.61-.23 2.07-.69.49-.49.736-1.18.736-2.07v-3.5h4.37v5.98h5.06v4.56h-5.06v10.76c0 1.26.306 2.21.92 2.85.613.62 1.456.92 2.53.92.644 0 1.18-.1 1.61-.32v4.6c-.798.31-1.718.46-2.76.46zm14.572 0c-1.778 0-3.358-.34-4.738-1.01-1.349-.71-2.422-1.64-3.22-2.81-.766-1.16-1.196-2.43-1.288-3.81h4.968c.092 1.04.522 1.88 1.288 2.53.767.61 1.764.92 2.99.92 1.196 0 2.116-.26 2.76-.79.675-.52 1.012-1.18 1.012-1.97 0-.92-.398-1.61-1.196-2.07-.797-.49-2.054-1-3.772-1.52-1.564-.49-2.852-.98-3.864-1.47-.981-.49-1.824-1.18-2.53-2.07-.705-.89-1.058-2.04-1.058-3.45 0-1.29.338-2.46 1.012-3.5.675-1.04 1.641-1.86 2.898-2.44 1.288-.61 2.791-.92 4.508-.92 1.656 0 3.128.34 4.416 1.01 1.319.65 2.346 1.54 3.082 2.67.736 1.11 1.15 2.35 1.242 3.73h-4.968c-.122-1.01-.506-1.8-1.15-2.35-.613-.58-1.487-.87-2.622-.87-1.073 0-1.901.24-2.484.73-.582.46-.874 1.05-.874 1.75 0 .86.384 1.52 1.15 1.98.767.43 1.978.89 3.634 1.38 1.595.49 2.898.98 3.91 1.47s1.886 1.2 2.622 2.12c.736.92 1.104 2.11 1.104 3.59 0 2.08-.782 3.8-2.346 5.15-1.564 1.35-3.726 2.02-6.486 2.02z" fill="#FECA1A"/><path d="M464.216 1140.39l6.624-22.59h5.336l-9.982 32.2h-4.232l-6.302-21.76-6.302 21.76h-4.278l-9.89-32.2h5.474l6.624 22.59 6.44-22.59h3.956l6.532 22.59zm22.585-14.22c2.822 0 5.076.88 6.762 2.62 1.687 1.72 2.53 4.01 2.53 6.86V1150h-3.772l-.92-2.62h-.23c-.644.83-1.533 1.56-2.668 2.21-1.104.64-2.484.96-4.14.96-1.472 0-2.806-.3-4.002-.92-1.196-.64-2.131-1.49-2.806-2.53-.674-1.07-1.012-2.24-1.012-3.49 0-1.54.445-2.87 1.334-4.01.92-1.16 2.193-2.05 3.818-2.66 1.656-.62 3.542-.92 5.658-.92h3.726v-.79c0-1.38-.398-2.46-1.196-3.26-.766-.83-1.809-1.24-3.128-1.24-1.165 0-2.1.3-2.806.92-.705.58-1.134 1.3-1.288 2.16h-5.06c.154-1.35.598-2.61 1.334-3.77.767-1.17 1.825-2.1 3.174-2.81 1.35-.71 2.914-1.06 4.692-1.06zm-1.38 20.1c1.687 0 3.052-.5 4.094-1.51 1.043-1.02 1.564-2.23 1.564-3.64v-1.47h-3.68c-1.932 0-3.388.32-4.37.97-.95.61-1.426 1.47-1.426 2.57 0 .92.322 1.67.966 2.26.675.55 1.626.82 2.852.82zm21.604 3.73h-5.06v-32.2h5.06v32.2zm11.365 0h-5.06v-32.2h5.06v32.2zm27.327-12.14c0 .98-.092 1.81-.276 2.48h-17.25c.307 1.75 1.043 3.13 2.208 4.14 1.166 1.01 2.576 1.52 4.232 1.52 1.196 0 2.208-.23 3.036-.69.828-.46 1.488-1.04 1.978-1.75h5.244c-.46 1.17-1.18 2.28-2.162 3.36-.95 1.07-2.131 1.95-3.542 2.62-1.38.67-2.882 1.01-4.508 1.01-2.116 0-4.063-.53-5.842-1.61-1.748-1.07-3.143-2.53-4.186-4.37-1.012-1.87-1.518-3.94-1.518-6.21 0-2.24.522-4.28 1.564-6.12 1.043-1.87 2.438-3.34 4.186-4.41 1.779-1.11 3.696-1.66 5.75-1.66 2.055 0 3.926.52 5.612 1.57 1.687 1.01 3.021 2.4 4.002 4.18.982 1.78 1.472 3.76 1.472 5.94zm-11.086-7.13c-1.594 0-2.99.53-4.186 1.61-1.196 1.04-1.947 2.43-2.254 4.18h12.604c-.276-1.72-.981-3.11-2.116-4.18-1.134-1.08-2.484-1.61-4.048-1.61zm24.003 19.82c-2.177 0-3.94-.72-5.289-2.16-1.35-1.44-2.024-3.42-2.024-5.93v-11.18h-3.818V1127h1.656c.92 0 1.61-.23 2.07-.69.49-.49.736-1.18.736-2.07v-3.5h4.37v5.98h5.06v4.56h-5.06v10.76c0 1.26.306 2.21.92 2.85.613.62 1.456.92 2.53.92.644 0 1.18-.1 1.61-.32v4.6c-.798.31-1.718.46-2.761.46zm210.48-14.58v8.97h16.376v5.06h-21.712v-32.2h21.252v5.06h-15.916v8.19h14.168v4.92h-14.168zm29.445-9.8c2.821 0 5.075.88 6.762 2.62 1.687 1.72 2.53 4.01 2.53 6.86V1150h-3.772l-.92-2.62h-.23c-.644.83-1.533 1.56-2.668 2.21-1.104.64-2.484.96-4.14.96-1.472 0-2.806-.3-4.002-.92-1.196-.64-2.131-1.49-2.806-2.53-.675-1.07-1.012-2.24-1.012-3.49 0-1.54.445-2.87 1.334-4.01.92-1.16 2.193-2.05 3.818-2.66 1.656-.62 3.542-.92 5.658-.92h3.726v-.79c0-1.38-.399-2.46-1.196-3.26-.767-.83-1.809-1.24-3.128-1.24-1.165 0-2.101.3-2.806.92-.705.58-1.135 1.3-1.288 2.16h-5.06c.153-1.35.598-2.61 1.334-3.77.767-1.17 1.825-2.1 3.174-2.81s2.913-1.06 4.692-1.06zm-1.38 20.1c1.687 0 3.051-.5 4.094-1.51 1.043-1.02 1.564-2.23 1.564-3.64v-1.47h-3.68c-1.932 0-3.389.32-4.37.97-.951.61-1.426 1.47-1.426 2.57 0 .92.322 1.67.966 2.26.675.55 1.625.82 2.852.82zm16.314 3.73v-23.28h3.772l.92 2.58h.23c.49-.71 1.242-1.4 2.254-2.07 1.012-.71 2.177-1.06 3.496-1.06.766 0 1.41.06 1.932.19v5.06c-.583-.13-1.273-.19-2.07-.19-1.626 0-2.944.52-3.956 1.57-1.012 1.04-1.518 2.48-1.518 4.32V1150h-5.06zm16.037 0v-23.28h3.772l.92 2.58h.23c.521-.71 1.349-1.4 2.484-2.07 1.165-.71 2.515-1.06 4.048-1.06 1.809 0 3.419.43 4.83 1.29 1.411.83 2.515 2.01 3.312 3.54.797 1.54 1.196 3.31 1.196 5.34V1150h-5.014v-13.29c0-1.72-.506-3.12-1.518-4.19-.981-1.1-2.254-1.66-3.818-1.66-1.595 0-2.898.56-3.91 1.66-.981 1.07-1.472 2.47-1.472 4.19V1150h-5.06zM277.768 1380.22c0 2.71-.884 5-2.652 6.87-1.733 1.84-4.195 2.96-7.384 3.38v4.99h-5.616v-5.1c-3.085-.55-5.529-1.87-7.332-3.95s-2.773-4.61-2.912-7.59h6.032c.173 1.94.884 3.48 2.132 4.63 1.283 1.14 3.016 1.71 5.2 1.71 2.08 0 3.675-.45 4.784-1.35 1.144-.9 1.716-2.04 1.716-3.43 0-1.11-.347-2.03-1.04-2.76-.659-.76-1.508-1.37-2.548-1.82-1.04-.45-2.461-.98-4.264-1.61-2.357-.8-4.281-1.56-5.772-2.29-1.491-.76-2.773-1.83-3.848-3.22-1.04-1.42-1.56-3.26-1.56-5.51 0-2.57.832-4.75 2.496-6.55 1.664-1.84 3.969-2.99 6.916-3.44v-5.04h5.616v5.15c2.808.55 5.061 1.85 6.76 3.9 1.699 2.04 2.617 4.47 2.756 7.28h-6.032c-.104-1.8-.728-3.26-1.872-4.37-1.144-1.11-2.669-1.66-4.576-1.66-1.907 0-3.397.45-4.472 1.35-1.04.9-1.56 2.06-1.56 3.48 0 1.08.329 1.98.988 2.71.693.69 1.543 1.26 2.548 1.71 1.04.45 2.444.96 4.212 1.51 2.427.8 4.368 1.56 5.824 2.29 1.491.69 2.773 1.75 3.848 3.17 1.075 1.42 1.612 3.28 1.612 5.56zm3.026-20.07l9.308-6.55h4.576v36.4h-6.032v-28.81l-5.044 3.54-2.808-4.58zm23.365 23.25c1.075 0 1.959.38 2.652 1.14.694.73 1.04 1.7 1.04 2.91 0 2.15-.572 4.09-1.716 5.83-1.109 1.76-2.305 3.17-3.588 4.21l-1.144-1.46c.59-.76 1.11-1.58 1.56-2.44.451-.83.763-1.82.936-2.97-.97-.07-1.768-.45-2.392-1.14-.624-.69-.936-1.53-.936-2.5 0-1 .347-1.85 1.04-2.54.694-.7 1.543-1.04 2.548-1.04zm25.996-12.33c1.733.7 3.172 1.79 4.316 3.28 1.144 1.45 1.716 3.34 1.716 5.67 0 1.87-.52 3.62-1.56 5.25s-2.514 2.93-4.42 3.9c-1.872.97-4.039 1.45-6.5 1.45-2.496 0-4.698-.48-6.604-1.45-1.872-.97-3.346-2.26-4.42-3.85-1.04-1.63-1.664-3.4-1.872-5.3h6.032c.173 1.28.866 2.44 2.08 3.48 1.213 1.04 2.79 1.56 4.732 1.56 2.01 0 3.588-.5 4.732-1.51 1.178-1.04 1.768-2.37 1.768-4 0-1.67-.59-3-1.768-4.01-1.179-1.04-2.826-1.56-4.94-1.56h-2.6v-5.04h2.34c1.906 0 3.397-.47 4.472-1.4 1.109-.97 1.664-2.22 1.664-3.75 0-1.52-.538-2.77-1.612-3.74-1.04-1.01-2.444-1.51-4.212-1.51-1.734 0-3.155.49-4.264 1.46-1.11.93-1.734 2.06-1.872 3.38h-6.032c.138-1.84.728-3.56 1.768-5.15 1.074-1.6 2.513-2.86 4.316-3.8 1.802-.97 3.813-1.45 6.032-1.45 2.322 0 4.385.48 6.188 1.45 1.802.94 3.206 2.2 4.212 3.8 1.005 1.56 1.508 3.27 1.508 5.15 0 1.73-.486 3.24-1.456 4.52-.971 1.28-2.219 2.34-3.744 3.17zm28.386 0c1.734.7 3.172 1.79 4.316 3.28 1.144 1.45 1.716 3.34 1.716 5.67 0 1.87-.52 3.62-1.56 5.25s-2.513 2.93-4.42 3.9c-1.872.97-4.038 1.45-6.5 1.45-2.496 0-4.697-.48-6.604-1.45-1.872-.97-3.345-2.26-4.42-3.85-1.04-1.63-1.664-3.4-1.872-5.3h6.032c.174 1.28.867 2.44 2.08 3.48 1.214 1.04 2.791 1.56 4.732 1.56 2.011 0 3.588-.5 4.732-1.51 1.179-1.04 1.768-2.37 1.768-4 0-1.67-.589-3-1.768-4.01-1.178-1.04-2.825-1.56-4.94-1.56h-2.6v-5.04h2.34c1.907 0 3.398-.47 4.472-1.4 1.11-.97 1.664-2.22 1.664-3.75 0-1.52-.537-2.77-1.612-3.74-1.04-1.01-2.444-1.51-4.212-1.51-1.733 0-3.154.49-4.264 1.46-1.109.93-1.733 2.06-1.872 3.38h-6.032c.139-1.84.728-3.56 1.768-5.15 1.075-1.6 2.514-2.86 4.316-3.8 1.803-.97 3.814-1.45 6.032-1.45 2.323 0 4.386.48 6.188 1.45 1.803.94 3.207 2.2 4.212 3.8 1.006 1.56 1.508 3.27 1.508 5.15 0 1.73-.485 3.24-1.456 4.52-.97 1.28-2.218 2.34-3.744 3.17zm8.132-11.7v-5.77h23.712v4.73L376.917 1390h-6.448l13.104-30.63h-16.9zm25.542 31.25c-1.04 0-1.907-.34-2.6-1.04-.693-.72-1.04-1.59-1.04-2.6 0-1 .347-1.85 1.04-2.54.693-.7 1.56-1.04 2.6-1.04s1.907.34 2.6 1.04c.693.69 1.04 1.54 1.04 2.54 0 1.01-.347 1.88-1.04 2.6-.693.7-1.56 1.04-2.6 1.04zm21.004-25.37c2.357 0 4.472.55 6.344 1.66 1.906 1.11 3.397 2.64 4.472 4.58 1.109 1.9 1.664 4.05 1.664 6.45 0 2.32-.572 4.45-1.716 6.39-1.11 1.94-2.652 3.49-4.628 4.63-1.976 1.11-4.195 1.66-6.656 1.66-2.462 0-4.68-.55-6.656-1.66-1.976-1.14-3.536-2.69-4.68-4.63-1.11-1.94-1.664-4.07-1.664-6.39 0-1.88.346-3.61 1.04-5.2.728-1.63 1.646-3.28 2.756-4.94l9.516-14.2h6.448l-8.008 11.86c.624-.14 1.213-.21 1.768-.21zm-.52 19.81c1.976 0 3.622-.66 4.94-1.98 1.352-1.35 2.028-3.08 2.028-5.2 0-2.11-.676-3.83-2.028-5.14-1.318-1.36-2.964-2.03-4.94-2.03-2.011 0-3.675.67-4.992 2.03-1.318 1.31-1.976 3.03-1.976 5.14 0 2.12.658 3.85 1.976 5.2 1.317 1.32 2.981 1.98 4.992 1.98zm28.637-32.08c2.461 0 4.68.57 6.656 1.71 1.976 1.11 3.518 2.64 4.628 4.58 1.144 1.94 1.716 4.07 1.716 6.39 0 1.88-.364 3.63-1.092 5.26-.728 1.63-1.647 3.25-2.756 4.88l-9.464 14.2h-6.448l8.008-11.86c-.624.14-1.214.21-1.768.21-2.358 0-4.49-.55-6.396-1.66-1.872-1.11-3.363-2.62-4.472-4.53-1.075-1.94-1.612-4.1-1.612-6.5 0-2.32.554-4.45 1.664-6.39 1.144-1.94 2.704-3.47 4.68-4.58 1.976-1.14 4.194-1.71 6.656-1.71zm0 19.91c2.01 0 3.674-.66 4.992-1.97 1.317-1.36 1.976-3.09 1.976-5.2 0-2.12-.659-3.83-1.976-5.15-1.318-1.35-2.982-2.03-4.992-2.03-1.976 0-3.64.68-4.992 2.03-1.318 1.32-1.976 3.03-1.976 5.15 0 2.11.658 3.84 1.976 5.2 1.352 1.31 3.016 1.97 4.992 1.97z" fill="#fff" fill-opacity=".5"/><path d="M132.183 1414.12c41.595 0 75.058-33.47 75.058-75.06 0-41.6-33.463-75.06-75.058-75.06-41.5949 0-75.058 33.46-75.058 75.06 0 41.59 33.4631 75.06 75.058 75.06z" fill="#FFFCFB"/><path d="M206.741 1339.06c0 41.32-33.239 74.56-74.558 74.56-41.3188 0-74.558-33.24-74.558-74.56s33.2392-74.56 74.558-74.56c41.319 0 74.558 33.24 74.558 74.56z" stroke="url(#paint3_linear_5338_8185)" stroke-opacity=".39"/><mask id="b" style="mask-type:alpha" maskUnits="userSpaceOnUse" x="57" y="1264" width="151" height="151"><path d="M132.175 1414.12c41.595 0 75.058-33.47 75.058-75.06 0-41.6-33.463-75.06-75.058-75.06-41.5947 0-75.0578 33.46-75.0578 75.06 0 41.59 33.4631 75.06 75.0578 75.06z" fill="#2775CA"/></mask><g filter="url(#filter5_f_5338_8185)" mask="url(#b)"><path d="M176.152 1279.74c-82.4235-9.89-100.8315 67.86-99.7325 107.98-14.5614-20.61-33.9582-70.06 4.9458-103.03 38.9037-32.97 79.4017-17.04 94.7867-4.95z" fill="#fff" fill-opacity=".6"/></g><path d="M100.759 1358.18c.562-.56 1.335-.89 2.155-.89h74.327c1.358 0 2.037 1.64 1.077 2.6l-14.683 14.69c-.562.56-1.335.89-2.154.89H87.1538c-1.3582 0-2.0373-1.64-1.0772-2.6l14.6824-14.69z" fill="url(#paint4_linear_5338_8185)"/><path d="M100.759 1303.36c.586-.56 1.359-.89 2.155-.89h74.327c1.358 0 2.037 1.64 1.077 2.6l-14.683 14.69c-.562.56-1.335.89-2.154.89H87.1538c-1.3582 0-2.0373-1.64-1.0772-2.6l14.6824-14.69z" fill="url(#paint5_linear_5338_8185)"/><path d="M163.635 1330.6c-.562-.56-1.335-.89-2.154-.89H87.1538c-1.3582 0-2.0373 1.64-1.0772 2.6l14.6824 14.68c.562.56 1.335.89 2.155.89h74.327c1.358 0 2.037-1.64 1.077-2.6l-14.683-14.68z" fill="url(#paint6_linear_5338_8185)"/><circle opacity=".2" cx="136.5" cy="1587.5" r="79.5" fill="#443E52"/><circle opacity=".2" cx="136.5" cy="1841.5" r="79.5" fill="#443E52"/><g opacity=".2" filter="url(#filter6_d_5338_8185)"><rect x="248" y="1537" width="86" height="41" rx="15" fill="#443E52"/><rect x="248.5" y="1537.5" width="85" height="40" rx="14.5" stroke="url(#paint7_linear_5338_8185)" stroke-opacity=".1"/></g><g opacity=".2" filter="url(#filter7_d_5338_8185)"><rect x="248" y="1791" width="86" height="41" rx="15" fill="#443E52"/><rect x="248.5" y="1791.5" width="85" height="40" rx="14.5" stroke="url(#paint8_linear_5338_8185)" stroke-opacity=".1"/></g><g opacity=".2" filter="url(#filter8_d_5338_8185)"><rect x="248" y="1594" width="158" height="41" rx="15" fill="#443E52"/><rect x="248.5" y="1594.5" width="157" height="40" rx="14.5" stroke="url(#paint9_linear_5338_8185)" stroke-opacity=".1"/></g><g opacity=".2" filter="url(#filter9_d_5338_8185)"><rect x="248" y="1848" width="158" height="41" rx="15" fill="#443E52"/><rect x="248.5" y="1848.5" width="157" height="40" rx="14.5" stroke="url(#paint10_linear_5338_8185)" stroke-opacity=".1"/></g><g opacity=".2" filter="url(#filter10_d_5338_8185)"><rect x="881" y="1530" width="185" height="64" rx="15" fill="#443E52"/><rect x="881.5" y="1530.5" width="184" height="63" rx="14.5" stroke="url(#paint11_linear_5338_8185)" stroke-opacity=".1"/></g><g opacity=".2" filter="url(#filter11_d_5338_8185)"><rect x="881" y="1791" width="185" height="64" rx="15" fill="#443E52"/><rect x="881.5" y="1791.5" width="184" height="63" rx="14.5" stroke="url(#paint12_linear_5338_8185)" stroke-opacity=".1"/></g><path fill="url(#paint13_linear_5338_8185)" d="M42 1214h1030v2H42z"/><path fill="url(#paint14_linear_5338_8185)" d="M42 1462h1030v2H42z"/><path fill="url(#paint15_linear_5338_8185)" d="M42 1716h1030v2H42z"/><path d="M265.184 1327.62c-2.635 0-4.94-.5-6.916-1.5-1.976-1.01-3.519-2.4-4.628-4.16-1.075-1.81-1.664-3.85-1.768-6.14h6.032c.173 1.94.884 3.48 2.132 4.63 1.283 1.14 3.016 1.71 5.2 1.71 2.08 0 3.675-.45 4.784-1.35 1.144-.9 1.716-2.04 1.716-3.43 0-1.11-.347-2.03-1.04-2.76-.659-.76-1.508-1.37-2.548-1.82-1.04-.45-2.461-.98-4.264-1.61-2.357-.8-4.281-1.56-5.772-2.29-1.491-.76-2.773-1.83-3.848-3.22-1.04-1.42-1.56-3.26-1.56-5.51 0-1.94.485-3.68 1.456-5.2.971-1.56 2.357-2.78 4.16-3.64 1.837-.9 3.987-1.35 6.448-1.35 2.427 0 4.559.5 6.396 1.5 1.872 1.01 3.328 2.4 4.368 4.16 1.04 1.74 1.612 3.68 1.716 5.83h-6.032c-.104-1.8-.728-3.26-1.872-4.37-1.144-1.11-2.669-1.66-4.576-1.66-1.907 0-3.397.45-4.472 1.35-1.04.9-1.56 2.06-1.56 3.48 0 1.08.329 1.98.988 2.71.693.69 1.543 1.26 2.548 1.71 1.04.45 2.444.96 4.212 1.51 2.427.8 4.368 1.56 5.824 2.29 1.491.69 2.773 1.75 3.848 3.17 1.075 1.42 1.612 3.28 1.612 5.56 0 2.01-.503 3.8-1.508 5.36-.971 1.56-2.409 2.79-4.316 3.69-1.872.9-4.125 1.35-6.76 1.35zm34.174 0c-3.12 0-6.032-.83-8.736-2.49-2.669-1.67-4.801-3.94-6.396-6.81-1.595-2.88-2.392-6.05-2.392-9.52 0-3.47.797-6.64 2.392-9.52 1.595-2.87 3.727-5.14 6.396-6.81 2.704-1.66 5.616-2.49 8.736-2.49 3.12 0 6.015.83 8.684 2.49 2.704 1.67 4.853 3.94 6.448 6.81 1.595 2.88 2.392 6.05 2.392 9.52 0 3.47-.797 6.64-2.392 9.52-1.595 2.87-3.744 5.14-6.448 6.81-2.669 1.66-5.564 2.49-8.684 2.49zm0-5.77c2.045 0 3.935-.55 5.668-1.66 1.768-1.15 3.172-2.71 4.212-4.68 1.075-1.98 1.612-4.21 1.612-6.71s-.537-4.73-1.612-6.71c-1.04-1.97-2.444-3.52-4.212-4.63-1.733-1.14-3.623-1.71-5.668-1.71s-3.952.57-5.72 1.71c-1.733 1.11-3.137 2.66-4.212 4.63-1.04 1.98-1.56 4.21-1.56 6.71s.52 4.73 1.56 6.71c1.075 1.97 2.479 3.53 4.212 4.68 1.768 1.11 3.675 1.66 5.72 1.66zm46.751 5.15h-23.296v-36.4h6.032v30.63h17.264v5.77z" fill="#fff"/><g filter="url(#filter12_d_5338_8185)"><path d="M868.109 1397.33l29.48-29.49m0 0h-18.114m18.114 0l-.001 17.81" stroke="#AFD803" stroke-width="5" stroke-linecap="round" stroke-linejoin="round"/></g><path d="M939.521 1388.35c0 2.39-.782 4.42-2.346 6.07-1.533 1.63-3.711 2.63-6.532 2.99v4.42h-4.968v-4.51c-2.729-.49-4.891-1.65-6.486-3.49-1.595-1.84-2.453-4.08-2.576-6.72h5.336c.153 1.72.782 3.08 1.886 4.09 1.135 1.02 2.668 1.52 4.6 1.52 1.84 0 3.251-.4 4.232-1.19 1.012-.8 1.518-1.81 1.518-3.04 0-.98-.307-1.79-.92-2.44-.583-.67-1.334-1.21-2.254-1.61-.92-.4-2.177-.87-3.772-1.42-2.085-.71-3.787-1.38-5.106-2.03-1.319-.67-2.453-1.62-3.404-2.85-.92-1.26-1.38-2.88-1.38-4.88 0-2.27.736-4.2 2.208-5.79 1.472-1.63 3.511-2.64 6.118-3.04v-4.46h4.968v4.55c2.484.49 4.477 1.64 5.98 3.45 1.503 1.81 2.315 3.96 2.438 6.44h-5.336c-.092-1.59-.644-2.88-1.656-3.86s-2.361-1.47-4.048-1.47c-1.687 0-3.005.4-3.956 1.19-.92.8-1.38 1.83-1.38 3.09 0 .95.291 1.74.874 2.39.613.61 1.365 1.12 2.254 1.52.92.39 2.162.84 3.726 1.33 2.147.71 3.864 1.38 5.152 2.02 1.319.62 2.453 1.55 3.404 2.81.951 1.26 1.426 2.9 1.426 4.92zm22.457-2.57h3.404v4.92h-3.404v6.3h-5.198v-6.3h-14.49v-4.56l13.432-21.34h6.256v20.98zm-5.198 0v-13.8l-8.694 13.8h8.694zm18.82 6.11h13.248v5.11h-21.114v-4.09l11.178-11.41c1.748-1.75 2.959-3.13 3.634-4.14.705-1.04 1.058-2.21 1.058-3.5 0-1.38-.506-2.5-1.518-3.36-.981-.89-2.285-1.33-3.91-1.33-1.656 0-3.005.51-4.048 1.52-1.043.98-1.579 2.27-1.61 3.86h-5.198c.031-1.9.506-3.63 1.426-5.2.951-1.59 2.239-2.83 3.864-3.72 1.656-.92 3.511-1.38 5.566-1.38 2.116 0 3.987.41 5.612 1.24 1.656.83 2.929 1.96 3.818 3.4.889 1.45 1.334 3.04 1.334 4.79 0 1.99-.521 3.8-1.564 5.43-1.012 1.62-2.545 3.48-4.6 5.56l-7.176 7.22zm20.196 5.66c-.92 0-1.687-.3-2.3-.92-.613-.64-.92-1.41-.92-2.3 0-.89.307-1.64.92-2.25.613-.62 1.38-.92 2.3-.92.92 0 1.687.3 2.3.92.613.61.92 1.36.92 2.25 0 .89-.307 1.66-.92 2.3-.613.62-1.38.92-2.3.92zm18.944 0c-2.27 0-4.35-.63-6.25-1.88-1.87-1.29-3.36-3.19-4.46-5.71-1.11-2.51-1.66-5.53-1.66-9.06 0-3.53.55-6.55 1.66-9.06 1.1-2.52 2.59-4.4 4.46-5.66 1.9-1.29 3.98-1.93 6.25-1.93s4.34.64 6.21 1.93c1.91 1.26 3.41 3.14 4.51 5.66 1.11 2.51 1.66 5.53 1.66 9.06 0 3.53-.55 6.55-1.66 9.06-1.1 2.52-2.6 4.42-4.51 5.71-1.87 1.25-3.94 1.88-6.21 1.88zm0-5.1c1.29 0 2.46-.4 3.5-1.2 1.07-.83 1.93-2.1 2.58-3.82.64-1.75.96-3.92.96-6.53 0-2.61-.32-4.77-.96-6.49-.65-1.74-1.51-3.02-2.58-3.81-1.04-.83-2.21-1.25-3.5-1.25-1.28 0-2.46.42-3.54 1.25-1.04.79-1.88 2.07-2.53 3.81-.64 1.72-.96 3.88-.96 6.49 0 2.61.32 4.78.96 6.53.65 1.72 1.49 2.99 2.53 3.82 1.08.8 2.26 1.2 3.54 1.2zm28.17 5.1c-2.27 0-4.35-.63-6.26-1.88-1.87-1.29-3.35-3.19-4.46-5.71-1.1-2.51-1.65-5.53-1.65-9.06 0-3.53.55-6.55 1.65-9.06 1.11-2.52 2.59-4.4 4.46-5.66 1.91-1.29 3.99-1.93 6.26-1.93 2.27 0 4.34.64 6.21 1.93 1.9 1.26 3.4 3.14 4.51 5.66 1.1 2.51 1.65 5.53 1.65 9.06 0 3.53-.55 6.55-1.65 9.06-1.11 2.52-2.61 4.42-4.51 5.71-1.87 1.25-3.94 1.88-6.21 1.88zm0-5.1c1.29 0 2.45-.4 3.5-1.2 1.07-.83 1.93-2.1 2.57-3.82.65-1.75.97-3.92.97-6.53 0-2.61-.32-4.77-.97-6.49-.64-1.74-1.5-3.02-2.57-3.81-1.05-.83-2.21-1.25-3.5-1.25s-2.47.42-3.54 1.25c-1.04.79-1.89 2.07-2.53 3.81-.65 1.72-.97 3.88-.97 6.49 0 2.61.32 4.78.97 6.53.64 1.72 1.49 2.99 2.53 3.82 1.07.8 2.25 1.2 3.54 1.2z" fill="#AFD803"/><path d="M843.106 1325.34c0 3.23-1.054 5.96-3.162 8.19-2.067 2.19-5.001 3.53-8.804 4.03v5.95h-6.696v-6.08c-3.679-.66-6.593-2.23-8.742-4.71-2.149-2.48-3.307-5.5-3.472-9.05h7.192c.207 2.31 1.054 4.15 2.542 5.52 1.529 1.36 3.596 2.04 6.2 2.04 2.48 0 4.381-.53 5.704-1.61 1.364-1.07 2.046-2.44 2.046-4.09 0-1.32-.413-2.42-1.24-3.29-.785-.91-1.798-1.63-3.038-2.17-1.24-.53-2.935-1.17-5.084-1.92-2.811-.95-5.105-1.86-6.882-2.73-1.777-.91-3.307-2.19-4.588-3.84-1.24-1.69-1.86-3.89-1.86-6.57 0-3.06.992-5.66 2.976-7.81 1.984-2.19 4.733-3.56 8.246-4.1v-6.01h6.696v6.14c3.348.66 6.035 2.21 8.06 4.65 2.025 2.44 3.121 5.33 3.286 8.68h-7.192c-.124-2.15-.868-3.89-2.232-5.21-1.364-1.32-3.183-1.98-5.456-1.98-2.273 0-4.051.53-5.332 1.61-1.24 1.07-1.86 2.46-1.86 4.15 0 1.28.393 2.36 1.178 3.23.827.82 1.839 1.5 3.038 2.04 1.24.54 2.914 1.14 5.022 1.8 2.893.95 5.208 1.86 6.944 2.73 1.777.82 3.307 2.09 4.588 3.78 1.281 1.69 1.922 3.91 1.922 6.63zm3.608-23.93l11.098-7.81h5.456v43.4h-7.192v-34.35l-6.014 4.22-3.348-5.46zm27.859 27.72c1.281 0 2.335.45 3.162 1.36.826.87 1.24 2.03 1.24 3.47 0 2.56-.682 4.88-2.046 6.95-1.323 2.1-2.749 3.78-4.278 5.02l-1.364-1.74c.702-.91 1.322-1.88 1.86-2.91.537-.99.909-2.17 1.116-3.54-1.158-.08-2.108-.53-2.852-1.36-.744-.83-1.116-1.82-1.116-2.98 0-1.19.413-2.21 1.24-3.03.826-.83 1.839-1.24 3.038-1.24zm30.994-14.7c2.067.83 3.782 2.13 5.146 3.91 1.364 1.73 2.046 3.99 2.046 6.76 0 2.23-.62 4.32-1.86 6.26-1.24 1.94-2.996 3.49-5.27 4.65-2.232 1.16-4.815 1.73-7.75 1.73-2.976 0-5.6-.57-7.874-1.73-2.232-1.16-3.988-2.69-5.27-4.59-1.24-1.94-1.984-4.05-2.232-6.32h7.192c.207 1.53 1.034 2.91 2.48 4.15 1.447 1.24 3.328 1.86 5.642 1.86 2.398 0 4.278-.6 5.642-1.8 1.406-1.24 2.108-2.83 2.108-4.77 0-1.99-.702-3.58-2.108-4.78-1.405-1.24-3.368-1.86-5.89-1.86h-3.1v-6.01h2.79c2.274 0 4.051-.56 5.332-1.67 1.323-1.16 1.984-2.65 1.984-4.47 0-1.82-.64-3.3-1.922-4.46-1.24-1.2-2.914-1.8-5.022-1.8-2.066 0-3.761.58-5.084 1.74-1.322 1.11-2.066 2.46-2.232 4.03h-7.192c.166-2.19.868-4.24 2.108-6.14 1.282-1.9 2.997-3.41 5.146-4.53 2.15-1.16 4.547-1.73 7.192-1.73 2.77 0 5.229.57 7.378 1.73 2.15 1.12 3.824 2.63 5.022 4.53 1.199 1.86 1.798 3.9 1.798 6.14 0 2.06-.578 3.86-1.736 5.39-1.157 1.53-2.645 2.79-4.464 3.78zm33.846 0c2.067.83 3.782 2.13 5.146 3.91 1.364 1.73 2.046 3.99 2.046 6.76 0 2.23-.62 4.32-1.86 6.26-1.24 1.94-2.997 3.49-5.27 4.65-2.232 1.16-4.815 1.73-7.75 1.73-2.976 0-5.601-.57-7.874-1.73-2.232-1.16-3.989-2.69-5.27-4.59-1.24-1.94-1.984-4.05-2.232-6.32h7.192c.207 1.53 1.033 2.91 2.48 4.15 1.447 1.24 3.327 1.86 5.642 1.86 2.397 0 4.278-.6 5.642-1.8 1.405-1.24 2.108-2.83 2.108-4.77 0-1.99-.703-3.58-2.108-4.78-1.405-1.24-3.369-1.86-5.89-1.86h-3.1v-6.01h2.79c2.273 0 4.051-.56 5.332-1.67 1.323-1.16 1.984-2.65 1.984-4.47 0-1.82-.641-3.3-1.922-4.46-1.24-1.2-2.914-1.8-5.022-1.8-2.067 0-3.761.58-5.084 1.74-1.323 1.11-2.067 2.46-2.232 4.03h-7.192c.165-2.19.868-4.24 2.108-6.14 1.281-1.9 2.997-3.41 5.146-4.53 2.149-1.16 4.547-1.73 7.192-1.73 2.769 0 5.229.57 7.378 1.73 2.149 1.12 3.823 2.63 5.022 4.53 1.199 1.86 1.798 3.9 1.798 6.14 0 2.06-.579 3.86-1.736 5.39-1.157 1.53-2.645 2.79-4.464 3.78zm9.695-13.95v-6.88h28.272v5.64L961.322 1337h-7.688l15.624-36.52h-20.15zm30.454 37.26c-1.24 0-2.273-.41-3.1-1.24-.826-.86-1.24-1.9-1.24-3.1 0-1.19.414-2.21 1.24-3.03.827-.83 1.86-1.24 3.1-1.24s2.274.41 3.1 1.24c.827.82 1.24 1.84 1.24 3.03 0 1.2-.413 2.24-1.24 3.1-.826.83-1.86 1.24-3.1 1.24zm25.038-30.25c2.82 0 5.34.66 7.57 1.98 2.27 1.32 4.05 3.14 5.33 5.46 1.32 2.27 1.98 4.83 1.98 7.69 0 2.77-.68 5.31-2.04 7.62-1.32 2.32-3.16 4.16-5.52 5.52-2.36 1.32-5 1.98-7.94 1.98-2.93 0-5.575-.66-7.931-1.98-2.356-1.36-4.216-3.2-5.58-5.52-1.323-2.31-1.984-4.85-1.984-7.62 0-2.24.413-4.3 1.24-6.2.868-1.95 1.963-3.91 3.286-5.89l11.349-16.93h7.68l-9.54 14.14c.74-.17 1.44-.25 2.1-.25zm-.62 23.62c2.36 0 4.32-.79 5.89-2.36 1.62-1.61 2.42-3.67 2.42-6.2 0-2.52-.8-4.56-2.42-6.13-1.57-1.62-3.53-2.42-5.89-2.42-2.39 0-4.376.8-5.947 2.42-1.571 1.57-2.356 3.61-2.356 6.13 0 2.53.785 4.59 2.356 6.2 1.571 1.57 3.557 2.36 5.947 2.36zm34.15-38.25c2.93 0 5.58.68 7.93 2.04 2.36 1.32 4.2 3.14 5.52 5.46 1.37 2.31 2.05 4.85 2.05 7.62 0 2.24-.44 4.32-1.3 6.27-.87 1.94-1.97 3.88-3.29 5.82l-11.28 16.93h-7.69l9.55-14.14c-.75.17-1.45.25-2.11.25-2.81 0-5.35-.66-7.63-1.98-2.23-1.32-4.01-3.12-5.33-5.4-1.28-2.31-1.92-4.89-1.92-7.75 0-2.77.66-5.31 1.98-7.62 1.37-2.32 3.23-4.14 5.58-5.46 2.36-1.36 5-2.04 7.94-2.04zm0 23.74c2.4 0 4.38-.78 5.95-2.35 1.57-1.62 2.36-3.68 2.36-6.2 0-2.53-.79-4.57-2.36-6.14-1.57-1.61-3.55-2.42-5.95-2.42-2.36 0-4.34.81-5.95 2.42-1.57 1.57-2.36 3.61-2.36 6.14 0 2.52.79 4.58 2.36 6.2 1.61 1.57 3.59 2.35 5.95 2.35z" fill="#fff"/><g filter="url(#filter13_d_5338_8185)"><rect x="71.9043" y="65.6523" width="106.294" height="106.294" rx="53.1469" fill="#443E52"/><rect x="72.4043" y="66.1523" width="105.294" height="105.294" rx="52.6469" stroke="url(#paint16_linear_5338_8185)" stroke-opacity=".1"/></g><g filter="url(#filter14_d_5338_8185)"><rect x="206.5" y="211.5" width="755" height="755" rx="349.5" stroke="url(#paint17_linear_5338_8185)" stroke-opacity=".1" stroke-width="41" shape-rendering="crispEdges"/></g><g filter="url(#filter15_d_5338_8185)"><rect x="989.469" y="65.6533" width="106.294" height="106.294" rx="30" fill="#443E52"/><rect x="989.969" y="66.1533" width="105.294" height="105.294" rx="29.5" stroke="url(#paint18_linear_5338_8185)" stroke-opacity=".1"/></g></g><defs><linearGradient id="paint0_linear_5338_8185" x1="584" y1="2271" x2="584" y2="2427" gradientUnits="userSpaceOnUse"><stop stop-color="#fff"/><stop offset="1" stop-color="#fff" stop-opacity="0"/></linearGradient><linearGradient id="paint1_linear_5338_8185" x1="289.61" y1="2253.65" x2="392.758" y2="2406.39" gradientUnits="userSpaceOnUse"><stop stop-color="#E54033"/><stop offset=".66146" stop-color="#FECA1A"/><stop offset="1" stop-color="#AFD803"/></linearGradient><linearGradient id="paint2_linear_5338_8185" x1="328.161" y1="2272.02" x2="386.462" y2="2358.35" gradientUnits="userSpaceOnUse"><stop stop-color="#E54033"/><stop offset=".66146" stop-color="#FECA1A"/><stop offset="1" stop-color="#AFD803"/></linearGradient><linearGradient id="paint3_linear_5338_8185" x1="96.0188" y1="1274.92" x2="177.218" y2="1414.12" gradientUnits="userSpaceOnUse"><stop stop-color="#24DCB3"/><stop offset="1" stop-color="#D428FC"/></linearGradient><linearGradient id="paint4_linear_5338_8185" x1="170.14" y1="1293.7" x2="118.7" y2="1392.23" gradientUnits="userSpaceOnUse"><stop stop-color="#00FFA3"/><stop offset="1" stop-color="#DC1FFF"/></linearGradient><linearGradient id="paint5_linear_5338_8185" x1="147.648" y1="1281.96" x2="96.2077" y2="1380.49" gradientUnits="userSpaceOnUse"><stop stop-color="#00FFA3"/><stop offset="1" stop-color="#DC1FFF"/></linearGradient><linearGradient id="paint6_linear_5338_8185" x1="158.822" y1="1287.79" x2="107.382" y2="1386.32" gradientUnits="userSpaceOnUse"><stop stop-color="#00FFA3"/><stop offset="1" stop-color="#DC1FFF"/></linearGradient><linearGradient id="paint7_linear_5338_8185" x1="291" y1="1537" x2="291" y2="1578" gradientUnits="userSpaceOnUse"><stop stop-color="#fff"/><stop offset="1" stop-color="#fff" stop-opacity="0"/></linearGradient><linearGradient id="paint8_linear_5338_8185" x1="291" y1="1791" x2="291" y2="1832" gradientUnits="userSpaceOnUse"><stop stop-color="#fff"/><stop offset="1" stop-color="#fff" stop-opacity="0"/></linearGradient><linearGradient id="paint9_linear_5338_8185" x1="327" y1="1594" x2="327" y2="1635" gradientUnits="userSpaceOnUse"><stop stop-color="#fff"/><stop offset="1" stop-color="#fff" stop-opacity="0"/></linearGradient><linearGradient id="paint10_linear_5338_8185" x1="327" y1="1848" x2="327" y2="1889" gradientUnits="userSpaceOnUse"><stop stop-color="#fff"/><stop offset="1" stop-color="#fff" stop-opacity="0"/></linearGradient><linearGradient id="paint11_linear_5338_8185" x1="973.5" y1="1530" x2="973.5" y2="1594" gradientUnits="userSpaceOnUse"><stop stop-color="#fff"/><stop offset="1" stop-color="#fff" stop-opacity="0"/></linearGradient><linearGradient id="paint12_linear_5338_8185" x1="973.5" y1="1791" x2="973.5" y2="1855" gradientUnits="userSpaceOnUse"><stop stop-color="#fff"/><stop offset="1" stop-color="#fff" stop-opacity="0"/></linearGradient><linearGradient id="paint13_linear_5338_8185" x1="42" y1="1216" x2="1092" y2="1215" gradientUnits="userSpaceOnUse"><stop stop-color="#443E52" stop-opacity="0"/><stop offset=".53646" stop-color="#443E52"/><stop offset="1" stop-color="#443E52" stop-opacity="0"/></linearGradient><linearGradient id="paint14_linear_5338_8185" x1="42" y1="1464" x2="1092" y2="1463" gradientUnits="userSpaceOnUse"><stop stop-color="#443E52" stop-opacity="0"/><stop offset=".53646" stop-color="#443E52"/><stop offset="1" stop-color="#443E52" stop-opacity="0"/></linearGradient><linearGradient id="paint15_linear_5338_8185" x1="42" y1="1718" x2="1092" y2="1717" gradientUnits="userSpaceOnUse"><stop stop-color="#443E52" stop-opacity="0"/><stop offset=".53646" stop-color="#443E52"/><stop offset="1" stop-color="#443E52" stop-opacity="0"/></linearGradient><linearGradient id="paint16_linear_5338_8185" x1="125.051" y1="65.6523" x2="125.051" y2="171.946" gradientUnits="userSpaceOnUse"><stop stop-color="#fff"/><stop offset="1" stop-color="#fff" stop-opacity="0"/></linearGradient><linearGradient id="paint17_linear_5338_8185" x1="584" y1="191" x2="584" y2="1410.45" gradientUnits="userSpaceOnUse"><stop stop-color="#fff"/><stop offset="1" stop-color="#fff" stop-opacity="0"/></linearGradient><linearGradient id="paint18_linear_5338_8185" x1="1042.62" y1="65.6533" x2="1042.62" y2="171.947" gradientUnits="userSpaceOnUse"><stop stop-color="#fff"/><stop offset="1" stop-color="#fff" stop-opacity="0"/></linearGradient><filter id="filter0_d_5338_8185" x="472" y="2241" width="224" height="224" filterUnits="userSpaceOnUse" color-interpolation-filters="sRGB"><feFlood flood-opacity="0" result="BackgroundImageFix"/><feColorMatrix in="SourceAlpha" values="0 0 0 0 0 0 0 0 0 0 0 0 0 0 0 0 0 0 127 0" result="hardAlpha"/><feOffset dy="4"/><feGaussianBlur stdDeviation="17"/><feComposite in2="hardAlpha" operator="out"/><feColorMatrix values="0 0 0 0 0 0 0 0 0 0 0 0 0 0 0 0 0 0 0.18 0"/><feBlend in2="BackgroundImageFix" result="effect1_dropShadow_5338_8185"/><feBlend in="SourceGraphic" in2="effect1_dropShadow_5338_8185" result="shape"/></filter><filter id="filter1_d_5338_8185" x="468.609" y="668.344" width="48.4805" height="48.4844" filterUnits="userSpaceOnUse" color-interpolation-filters="sRGB"><feFlood flood-opacity="0" result="BackgroundImageFix"/><feColorMatrix in="SourceAlpha" values="0 0 0 0 0 0 0 0 0 0 0 0 0 0 0 0 0 0 127 0" result="hardAlpha"/><feOffset dy="4"/><feGaussianBlur stdDeviation="3.5"/><feComposite in2="hardAlpha" operator="out"/><feColorMatrix values="0 0 0 0 0 0 0 0 0 0 0 0 0 0 0 0 0 0 0.05 0"/><feBlend in2="BackgroundImageFix" result="effect1_dropShadow_5338_8185"/><feBlend in="SourceGraphic" in2="effect1_dropShadow_5338_8185" result="shape"/></filter><filter id="filter2_d_5338_8185" x="16" y="1060" width="351" height="157" filterUnits="userSpaceOnUse" color-interpolation-filters="sRGB"><feFlood flood-opacity="0" result="BackgroundImageFix"/><feColorMatrix in="SourceAlpha" values="0 0 0 0 0 0 0 0 0 0 0 0 0 0 0 0 0 0 127 0" result="hardAlpha"/><feOffset dy="4"/><feGaussianBlur stdDeviation="17"/><feComposite in2="hardAlpha" operator="out"/><feColorMatrix values="0 0 0 0 0 0 0 0 0 0 0 0 0 0 0 0 0 0 0.18 0"/><feBlend in2="BackgroundImageFix" result="effect1_dropShadow_5338_8185"/><feBlend in="SourceGraphic" in2="effect1_dropShadow_5338_8185" result="shape"/></filter><filter id="filter3_d_5338_8185" x="330" y="1060" width="351" height="157" filterUnits="userSpaceOnUse" color-interpolation-filters="sRGB"><feFlood flood-opacity="0" result="BackgroundImageFix"/><feColorMatrix in="SourceAlpha" values="0 0 0 0 0 0 0 0 0 0 0 0 0 0 0 0 0 0 127 0" result="hardAlpha"/><feOffset dy="4"/><feGaussianBlur stdDeviation="17"/><feComposite in2="hardAlpha" operator="out"/><feColorMatrix values="0 0 0 0 0 0 0 0 0 0 0 0 0 0 0 0 0 0 0.18 0"/><feBlend in2="BackgroundImageFix" result="effect1_dropShadow_5338_8185"/><feBlend in="SourceGraphic" in2="effect1_dropShadow_5338_8185" result="shape"/></filter><filter id="filter4_d_5338_8185" x="635" y="1060" width="351" height="157" filterUnits="userSpaceOnUse" color-interpolation-filters="sRGB"><feFlood flood-opacity="0" result="BackgroundImageFix"/><feColorMatrix in="SourceAlpha" values="0 0 0 0 0 0 0 0 0 0 0 0 0 0 0 0 0 0 127 0" result="hardAlpha"/><feOffset dy="4"/><feGaussianBlur stdDeviation="17"/><feComposite in2="hardAlpha" operator="out"/><feColorMatrix values="0 0 0 0 0 0 0 0 0 0 0 0 0 0 0 0 0 0 0.18 0"/><feBlend in2="BackgroundImageFix" result="effect1_dropShadow_5338_8185"/><feBlend in="SourceGraphic" in2="effect1_dropShadow_5338_8185" result="shape"/></filter><filter id="filter5_f_5338_8185" x="14.4941" y="1221.08" width="205.658" height="210.64" filterUnits="userSpaceOnUse" color-interpolation-filters="sRGB"><feFlood flood-opacity="0" result="BackgroundImageFix"/><feBlend in="SourceGraphic" in2="BackgroundImageFix" result="shape"/><feGaussianBlur stdDeviation="22" result="effect1_foregroundBlur_5338_8185"/></filter><filter id="filter6_d_5338_8185" x="214" y="1507" width="154" height="109" filterUnits="userSpaceOnUse" color-interpolation-filters="sRGB"><feFlood flood-opacity="0" result="BackgroundImageFix"/><feColorMatrix in="SourceAlpha" values="0 0 0 0 0 0 0 0 0 0 0 0 0 0 0 0 0 0 127 0" result="hardAlpha"/><feOffset dy="4"/><feGaussianBlur stdDeviation="17"/><feComposite in2="hardAlpha" operator="out"/><feColorMatrix values="0 0 0 0 0 0 0 0 0 0 0 0 0 0 0 0 0 0 0.18 0"/><feBlend in2="BackgroundImageFix" result="effect1_dropShadow_5338_8185"/><feBlend in="SourceGraphic" in2="effect1_dropShadow_5338_8185" result="shape"/></filter><filter id="filter7_d_5338_8185" x="214" y="1761" width="154" height="109" filterUnits="userSpaceOnUse" color-interpolation-filters="sRGB"><feFlood flood-opacity="0" result="BackgroundImageFix"/><feColorMatrix in="SourceAlpha" values="0 0 0 0 0 0 0 0 0 0 0 0 0 0 0 0 0 0 127 0" result="hardAlpha"/><feOffset dy="4"/><feGaussianBlur stdDeviation="17"/><feComposite in2="hardAlpha" operator="out"/><feColorMatrix values="0 0 0 0 0 0 0 0 0 0 0 0 0 0 0 0 0 0 0.18 0"/><feBlend in2="BackgroundImageFix" result="effect1_dropShadow_5338_8185"/><feBlend in="SourceGraphic" in2="effect1_dropShadow_5338_8185" result="shape"/></filter><filter id="filter8_d_5338_8185" x="214" y="1564" width="226" height="109" filterUnits="userSpaceOnUse" color-interpolation-filters="sRGB"><feFlood flood-opacity="0" result="BackgroundImageFix"/><feColorMatrix in="SourceAlpha" values="0 0 0 0 0 0 0 0 0 0 0 0 0 0 0 0 0 0 127 0" result="hardAlpha"/><feOffset dy="4"/><feGaussianBlur stdDeviation="17"/><feComposite in2="hardAlpha" operator="out"/><feColorMatrix values="0 0 0 0 0 0 0 0 0 0 0 0 0 0 0 0 0 0 0.18 0"/><feBlend in2="BackgroundImageFix" result="effect1_dropShadow_5338_8185"/><feBlend in="SourceGraphic" in2="effect1_dropShadow_5338_8185" result="shape"/></filter><filter id="filter9_d_5338_8185" x="214" y="1818" width="226" height="109" filterUnits="userSpaceOnUse" color-interpolation-filters="sRGB"><feFlood flood-opacity="0" result="BackgroundImageFix"/><feColorMatrix in="SourceAlpha" values="0 0 0 0 0 0 0 0 0 0 0 0 0 0 0 0 0 0 127 0" result="hardAlpha"/><feOffset dy="4"/><feGaussianBlur stdDeviation="17"/><feComposite in2="hardAlpha" operator="out"/><feColorMatrix values="0 0 0 0 0 0 0 0 0 0 0 0 0 0 0 0 0 0 0.18 0"/><feBlend in2="BackgroundImageFix" result="effect1_dropShadow_5338_8185"/><feBlend in="SourceGraphic" in2="effect1_dropShadow_5338_8185" result="shape"/></filter><filter id="filter10_d_5338_8185" x="847" y="1500" width="253" height="132" filterUnits="userSpaceOnUse" color-interpolation-filters="sRGB"><feFlood flood-opacity="0" result="BackgroundImageFix"/><feColorMatrix in="SourceAlpha" values="0 0 0 0 0 0 0 0 0 0 0 0 0 0 0 0 0 0 127 0" result="hardAlpha"/><feOffset dy="4"/><feGaussianBlur stdDeviation="17"/><feComposite in2="hardAlpha" operator="out"/><feColorMatrix values="0 0 0 0 0 0 0 0 0 0 0 0 0 0 0 0 0 0 0.18 0"/><feBlend in2="BackgroundImageFix" result="effect1_dropShadow_5338_8185"/><feBlend in="SourceGraphic" in2="effect1_dropShadow_5338_8185" result="shape"/></filter><filter id="filter11_d_5338_8185" x="847" y="1761" width="253" height="132" filterUnits="userSpaceOnUse" color-interpolation-filters="sRGB"><feFlood flood-opacity="0" result="BackgroundImageFix"/><feColorMatrix in="SourceAlpha" values="0 0 0 0 0 0 0 0 0 0 0 0 0 0 0 0 0 0 127 0" result="hardAlpha"/><feOffset dy="4"/><feGaussianBlur stdDeviation="17"/><feComposite in2="hardAlpha" operator="out"/><feColorMatrix values="0 0 0 0 0 0 0 0 0 0 0 0 0 0 0 0 0 0 0.18 0"/><feBlend in2="BackgroundImageFix" result="effect1_dropShadow_5338_8185"/><feBlend in="SourceGraphic" in2="effect1_dropShadow_5338_8185" result="shape"/></filter><filter id="filter12_d_5338_8185" x="858.609" y="1362.34" width="48.4805" height="48.4844" filterUnits="userSpaceOnUse" color-interpolation-filters="sRGB"><feFlood flood-opacity="0" result="BackgroundImageFix"/><feColorMatrix in="SourceAlpha" values="0 0 0 0 0 0 0 0 0 0 0 0 0 0 0 0 0 0 127 0" result="hardAlpha"/><feOffset dy="4"/><feGaussianBlur stdDeviation="3.5"/><feComposite in2="hardAlpha" operator="out"/><feColorMatrix values="0 0 0 0 0 0 0 0 0 0 0 0 0 0 0 0 0 0 0.05 0"/><feBlend in2="BackgroundImageFix" result="effect1_dropShadow_5338_8185"/><feBlend in="SourceGraphic" in2="effect1_dropShadow_5338_8185" result="shape"/></filter><filter id="filter13_d_5338_8185" x="37.9043" y="35.6523" width="174.293" height="174.294" filterUnits="userSpaceOnUse" color-interpolation-filters="sRGB"><feFlood flood-opacity="0" result="BackgroundImageFix"/><feColorMatrix in="SourceAlpha" values="0 0 0 0 0 0 0 0 0 0 0 0 0 0 0 0 0 0 127 0" result="hardAlpha"/><feOffset dy="4"/><feGaussianBlur stdDeviation="17"/><feComposite in2="hardAlpha" operator="out"/><feColorMatrix values="0 0 0 0 0 0 0 0 0 0 0 0 0 0 0 0 0 0 0.18 0"/><feBlend in2="BackgroundImageFix" result="effect1_dropShadow_5338_8185"/><feBlend in="SourceGraphic" in2="effect1_dropShadow_5338_8185" result="shape"/></filter><filter id="filter14_d_5338_8185" x="152" y="161" width="864" height="864" filterUnits="userSpaceOnUse" color-interpolation-filters="sRGB"><feFlood flood-opacity="0" result="BackgroundImageFix"/><feColorMatrix in="SourceAlpha" values="0 0 0 0 0 0 0 0 0 0 0 0 0 0 0 0 0 0 127 0" result="hardAlpha"/><feOffset dy="4"/><feGaussianBlur stdDeviation="17"/><feComposite in2="hardAlpha" operator="out"/><feColorMatrix values="0 0 0 0 0 0 0 0 0 0 0 0 0 0 0 0 0 0 0.18 0"/><feBlend in2="BackgroundImageFix" result="effect1_dropShadow_5338_8185"/><feBlend in="SourceGraphic" in2="effect1_dropShadow_5338_8185" result="shape"/></filter><filter id="filter15_d_5338_8185" x="955.469" y="35.6533" width="174.293" height="174.294" filterUnits="userSpaceOnUse" color-interpolation-filters="sRGB"><feFlood flood-opacity="0" result="BackgroundImageFix"/><feColorMatrix in="SourceAlpha" values="0 0 0 0 0 0 0 0 0 0 0 0 0 0 0 0 0 0 127 0" result="hardAlpha"/><feOffset dy="4"/><feGaussianBlur stdDeviation="17"/><feComposite in2="hardAlpha" operator="out"/><feColorMatrix values="0 0 0 0 0 0 0 0 0 0 0 0 0 0 0 0 0 0 0.18 0"/><feBlend in2="BackgroundImageFix" result="effect1_dropShadow_5338_8185"/><feBlend in="SourceGraphic" in2="effect1_dropShadow_5338_8185" result="shape"/></filter></defs></svg>