<svg width="1168" height="2532" viewBox="0 0 1168 2532" fill="none" xmlns="http://www.w3.org/2000/svg">
<rect width="1168" height="2532" transform="matrix(1 0 0 -1 0 2532)" fill="#191721"/>
<mask id="mask0_5295_14688" style="mask-type:alpha" maskUnits="userSpaceOnUse" x="-1" y="-1" width="1170" height="2534">
<rect width="1168" height="2532" transform="matrix(1 0 0 -1 0 2532)" fill="#1D1A25" stroke="#443E52" stroke-width="2"/>
</mask>
<g mask="url(#mask0_5295_14688)">
<rect y="2237" width="1168" height="295" fill="#242231"/>
<circle cx="133.178" cy="2340.54" r="15.8299" fill="#5C5A6C"/>
<circle cx="113.83" cy="2323.83" r="18.3299" fill="#5C5A6C" stroke="#242231" stroke-width="5"/>
<path d="M108.137 2386.3C109.501 2386.3 110.741 2386.62 111.857 2387.26C112.973 2387.88 113.851 2388.73 114.492 2389.8C115.153 2390.88 115.484 2392.08 115.484 2393.4C115.484 2394.72 115.164 2395.93 114.523 2397.03C113.882 2398.1 112.994 2398.96 111.857 2399.6C110.741 2400.22 109.501 2400.53 108.137 2400.53H103.983V2408H100.387V2386.3H108.137ZM108.075 2397.09C109.15 2397.09 110.049 2396.74 110.772 2396.03C111.516 2395.33 111.888 2394.45 111.888 2393.4C111.888 2392.34 111.516 2391.48 110.772 2390.79C110.049 2390.09 109.15 2389.74 108.075 2389.74H103.983V2397.09H108.075ZM123.917 2391.94C125.818 2391.94 127.337 2392.53 128.474 2393.71C129.611 2394.87 130.179 2396.41 130.179 2398.33V2408H127.637L127.017 2406.23H126.862C126.428 2406.79 125.829 2407.29 125.064 2407.72C124.32 2408.15 123.39 2408.37 122.274 2408.37C121.282 2408.37 120.383 2408.17 119.577 2407.75C118.771 2407.32 118.141 2406.75 117.686 2406.05C117.231 2405.32 117.004 2404.54 117.004 2403.69C117.004 2402.66 117.304 2401.76 117.903 2400.99C118.523 2400.21 119.381 2399.61 120.476 2399.2C121.592 2398.78 122.863 2398.58 124.289 2398.58H126.8V2398.05C126.8 2397.12 126.531 2396.39 125.994 2395.85C125.477 2395.29 124.775 2395.01 123.886 2395.01C123.101 2395.01 122.47 2395.22 121.995 2395.63C121.52 2396.02 121.23 2396.51 121.127 2397.09H117.717C117.82 2396.18 118.12 2395.33 118.616 2394.55C119.133 2393.76 119.846 2393.13 120.755 2392.65C121.664 2392.18 122.718 2391.94 123.917 2391.94ZM122.987 2405.49C124.124 2405.49 125.043 2405.15 125.746 2404.47C126.449 2403.78 126.8 2402.97 126.8 2402.02V2401.02H124.32C123.018 2401.02 122.036 2401.24 121.375 2401.68C120.734 2402.09 120.414 2402.67 120.414 2403.41C120.414 2404.03 120.631 2404.54 121.065 2404.93C121.52 2405.3 122.16 2405.49 122.987 2405.49ZM143.66 2392.31H147.163L140.653 2408.87C139.93 2410.67 139.176 2411.93 138.39 2412.65C137.626 2413.37 136.727 2413.74 135.693 2413.74C135.073 2413.74 134.515 2413.63 134.019 2413.43V2410.33C134.309 2410.47 134.66 2410.54 135.073 2410.54C135.673 2410.54 136.169 2410.39 136.561 2410.08C136.975 2409.79 137.316 2409.29 137.584 2408.59L137.956 2407.6L131.787 2392.31H135.445L139.63 2403.44L143.66 2392.31Z" fill="white"/>
<g filter="url(#filter0_d_5295_14688)">
<rect x="506" y="2271" width="156" height="156" rx="78" fill="#7B61FF"/>
<rect x="506.5" y="2271.5" width="155" height="155" rx="77.5" stroke="url(#paint0_linear_5295_14688)" stroke-opacity="0.1"/>
</g>
<rect x="551" y="2323" width="69" height="11" fill="#D9D9D9"/>
<rect x="550.93" y="2363.33" width="68.7018" height="11" fill="#D9D9D9"/>
<rect x="540" y="2343" width="89" height="11" fill="#D9D9D9"/>
<path d="M315 2337.36C315 2325.64 324.233 2316.08 335.82 2315.56C336.371 2315.54 336.82 2315.99 336.82 2316.54V2337.36H357.64C358.192 2337.36 358.642 2337.81 358.617 2338.36C358.094 2349.95 348.535 2359.18 336.82 2359.18C324.769 2359.18 315 2349.41 315 2337.36Z" fill="url(#paint1_linear_5295_14688)"/>
<path d="M342.512 2308.29C342.512 2307.64 343.129 2307.16 343.755 2307.35C354.814 2310.64 363.535 2319.36 366.833 2330.42C367.019 2331.05 366.541 2331.67 365.888 2331.67H343.512C342.959 2331.67 342.512 2331.22 342.512 2330.67V2308.29Z" fill="url(#paint2_linear_5295_14688)"/>
<path d="M292.632 2404.44C293.583 2404.75 294.451 2405.36 295.236 2406.27C296.021 2407.15 296.414 2408.32 296.414 2409.77C296.414 2410.93 296.114 2411.98 295.515 2412.93C294.936 2413.88 294.11 2414.64 293.035 2415.19C291.981 2415.73 290.772 2416 289.408 2416H280.387V2394.3H289.036C290.297 2394.3 291.423 2394.56 292.415 2395.07C293.407 2395.57 294.172 2396.26 294.709 2397.15C295.267 2398.02 295.546 2398.98 295.546 2400.03C295.546 2401.19 295.257 2402.14 294.678 2402.89C294.099 2403.63 293.417 2404.15 292.632 2404.44ZM283.983 2397.43V2403.13H288.726C289.677 2403.13 290.452 2402.87 291.051 2402.33C291.65 2401.79 291.95 2401.1 291.95 2400.25C291.95 2399.43 291.65 2398.75 291.051 2398.24C290.452 2397.7 289.677 2397.43 288.726 2397.43H283.983ZM289.098 2412.87C290.193 2412.87 291.082 2412.56 291.764 2411.94C292.467 2411.3 292.818 2410.48 292.818 2409.49C292.818 2408.52 292.467 2407.72 291.764 2407.1C291.082 2406.46 290.193 2406.14 289.098 2406.14H283.983V2412.87H289.098ZM305.4 2399.94C307.302 2399.94 308.821 2400.53 309.957 2401.71C311.094 2402.87 311.662 2404.41 311.662 2406.33V2416H309.12L308.5 2414.23H308.345C307.911 2414.79 307.312 2415.29 306.547 2415.72C305.803 2416.15 304.873 2416.37 303.757 2416.37C302.765 2416.37 301.866 2416.17 301.06 2415.75C300.254 2415.32 299.624 2414.75 299.169 2414.05C298.715 2413.32 298.487 2412.54 298.487 2411.69C298.487 2410.66 298.787 2409.76 299.386 2408.99C300.006 2408.21 300.864 2407.61 301.959 2407.2C303.075 2406.78 304.346 2406.58 305.772 2406.58H308.283V2406.05C308.283 2405.12 308.015 2404.39 307.477 2403.85C306.961 2403.29 306.258 2403.01 305.369 2403.01C304.584 2403.01 303.954 2403.22 303.478 2403.63C303.003 2404.02 302.714 2404.51 302.61 2405.09H299.2C299.304 2404.18 299.603 2403.33 300.099 2402.55C300.616 2401.76 301.329 2401.13 302.238 2400.65C303.148 2400.18 304.202 2399.94 305.4 2399.94ZM304.47 2413.49C305.607 2413.49 306.527 2413.15 307.229 2412.47C307.932 2411.78 308.283 2410.97 308.283 2410.02V2409.02H305.803C304.501 2409.02 303.52 2409.24 302.858 2409.68C302.218 2410.09 301.897 2410.67 301.897 2411.41C301.897 2412.03 302.114 2412.54 302.548 2412.93C303.003 2413.3 303.644 2413.49 304.47 2413.49ZM319.029 2416H315.619V2394.3H319.029V2416ZM329.014 2399.94C330.915 2399.94 332.434 2400.53 333.571 2401.71C334.707 2402.87 335.276 2404.41 335.276 2406.33V2416H332.734L332.114 2414.23H331.959C331.525 2414.79 330.925 2415.29 330.161 2415.72C329.417 2416.15 328.487 2416.37 327.371 2416.37C326.379 2416.37 325.48 2416.17 324.674 2415.75C323.868 2415.32 323.237 2414.75 322.783 2414.05C322.328 2413.32 322.101 2412.54 322.101 2411.69C322.101 2410.66 322.4 2409.76 323 2408.99C323.62 2408.21 324.477 2407.61 325.573 2407.2C326.689 2406.78 327.96 2406.58 329.386 2406.58H331.897V2406.05C331.897 2405.12 331.628 2404.39 331.091 2403.85C330.574 2403.29 329.871 2403.01 328.983 2403.01C328.197 2403.01 327.567 2403.22 327.092 2403.63C326.616 2404.02 326.327 2404.51 326.224 2405.09H322.814C322.917 2404.18 323.217 2403.33 323.713 2402.55C324.229 2401.76 324.942 2401.13 325.852 2400.65C326.761 2400.18 327.815 2399.94 329.014 2399.94ZM328.084 2413.49C329.22 2413.49 330.14 2413.15 330.843 2412.47C331.545 2411.78 331.897 2410.97 331.897 2410.02V2409.02H329.417C328.115 2409.02 327.133 2409.24 326.472 2409.68C325.831 2410.09 325.511 2410.67 325.511 2411.41C325.511 2412.03 325.728 2412.54 326.162 2412.93C326.616 2413.3 327.257 2413.49 328.084 2413.49ZM339.078 2416V2400.31H341.62L342.24 2402.05H342.395C342.746 2401.57 343.304 2401.11 344.069 2400.65C344.854 2400.18 345.763 2399.94 346.797 2399.94C348.016 2399.94 349.101 2400.23 350.052 2400.81C351.002 2401.37 351.746 2402.16 352.284 2403.2C352.821 2404.23 353.09 2405.43 353.09 2406.79V2416H349.711V2407.04C349.711 2405.88 349.37 2404.94 348.688 2404.22C348.026 2403.48 347.169 2403.1 346.115 2403.1C345.04 2403.1 344.162 2403.48 343.48 2404.22C342.818 2404.94 342.488 2405.88 342.488 2407.04V2416H339.078ZM363.791 2416.37C362.385 2416.37 361.083 2416.01 359.885 2415.29C358.707 2414.54 357.766 2413.54 357.064 2412.28C356.361 2411.02 356.01 2409.64 356.01 2408.16C356.01 2406.65 356.361 2405.27 357.064 2404.03C357.766 2402.77 358.707 2401.78 359.885 2401.06C361.083 2400.31 362.385 2399.94 363.791 2399.94C365.031 2399.94 366.167 2400.23 367.201 2400.81C368.234 2401.39 369.081 2402.15 369.743 2403.1C370.404 2404.03 370.838 2405.03 371.045 2406.08H367.635C367.407 2405.32 366.963 2404.63 366.302 2404.03C365.64 2403.41 364.803 2403.1 363.791 2403.1C362.985 2403.1 362.241 2403.32 361.559 2403.75C360.897 2404.19 360.37 2404.79 359.978 2405.55C359.585 2406.32 359.389 2407.19 359.389 2408.16C359.389 2409.13 359.585 2410 359.978 2410.76C360.37 2411.53 360.897 2412.12 361.559 2412.56C362.241 2412.99 362.985 2413.21 363.791 2413.21C364.803 2413.21 365.64 2412.91 366.302 2412.31C366.963 2411.69 367.407 2411 367.635 2410.23H371.045C370.838 2411.29 370.404 2412.29 369.743 2413.24C369.081 2414.17 368.234 2414.93 367.201 2415.5C366.167 2416.08 365.031 2416.37 363.791 2416.37ZM388.244 2407.82C388.244 2408.48 388.182 2409.04 388.058 2409.49H376.433C376.64 2410.67 377.136 2411.6 377.921 2412.28C378.707 2412.96 379.657 2413.3 380.773 2413.3C381.579 2413.3 382.261 2413.15 382.819 2412.84C383.377 2412.53 383.822 2412.14 384.152 2411.66H387.686C387.376 2412.45 386.891 2413.2 386.229 2413.92C385.589 2414.65 384.793 2415.24 383.842 2415.69C382.912 2416.14 381.9 2416.37 380.804 2416.37C379.378 2416.37 378.066 2416.01 376.867 2415.29C375.689 2414.56 374.749 2413.58 374.046 2412.34C373.364 2411.08 373.023 2409.69 373.023 2408.16C373.023 2406.65 373.375 2405.27 374.077 2404.03C374.78 2402.77 375.72 2401.78 376.898 2401.06C378.097 2400.31 379.389 2399.94 380.773 2399.94C382.158 2399.94 383.419 2400.29 384.555 2401C385.692 2401.68 386.591 2402.62 387.252 2403.82C387.914 2405.02 388.244 2406.35 388.244 2407.82ZM380.773 2403.01C379.699 2403.01 378.758 2403.37 377.952 2404.1C377.146 2404.8 376.64 2405.74 376.433 2406.92H384.927C384.741 2405.76 384.266 2404.82 383.501 2404.1C382.737 2403.37 381.827 2403.01 380.773 2403.01ZM396.477 2416.37C395.278 2416.37 394.214 2416.14 393.284 2415.69C392.375 2415.21 391.651 2414.58 391.114 2413.8C390.597 2413.01 390.308 2412.16 390.246 2411.23H393.594C393.656 2411.93 393.945 2412.5 394.462 2412.93C394.979 2413.34 395.65 2413.55 396.477 2413.55C397.283 2413.55 397.903 2413.38 398.337 2413.02C398.792 2412.67 399.019 2412.23 399.019 2411.69C399.019 2411.07 398.75 2410.61 398.213 2410.3C397.676 2409.97 396.828 2409.62 395.671 2409.27C394.617 2408.94 393.749 2408.61 393.067 2408.28C392.406 2407.95 391.837 2407.49 391.362 2406.89C390.887 2406.29 390.649 2405.51 390.649 2404.56C390.649 2403.69 390.876 2402.91 391.331 2402.2C391.786 2401.5 392.437 2400.95 393.284 2400.56C394.152 2400.15 395.165 2399.94 396.322 2399.94C397.438 2399.94 398.43 2400.17 399.298 2400.62C400.187 2401.06 400.879 2401.66 401.375 2402.42C401.871 2403.17 402.15 2404 402.212 2404.93H398.864C398.781 2404.25 398.523 2403.72 398.089 2403.35C397.676 2402.96 397.087 2402.76 396.322 2402.76C395.599 2402.76 395.041 2402.93 394.648 2403.26C394.255 2403.57 394.059 2403.96 394.059 2404.44C394.059 2405.02 394.317 2405.46 394.834 2405.77C395.351 2406.06 396.167 2406.37 397.283 2406.7C398.358 2407.03 399.236 2407.36 399.918 2407.69C400.6 2408.02 401.189 2408.5 401.685 2409.12C402.181 2409.74 402.429 2410.54 402.429 2411.54C402.429 2412.94 401.902 2414.1 400.848 2415.01C399.794 2415.92 398.337 2416.37 396.477 2416.37Z" fill="white"/>
<path d="M829.304 2305.45L822.394 2323.54L804.457 2330.77C803.602 2331.11 803.629 2332.33 804.498 2332.64L822.394 2338.95L829.301 2357.48C829.625 2358.35 830.852 2358.35 831.176 2357.48L838.083 2338.95L856.43 2332.64C857.31 2332.34 857.337 2331.1 856.471 2330.76L838.083 2323.54L831.173 2305.45C830.845 2304.59 829.632 2304.59 829.304 2305.45Z" fill="#5C5A6C"/>
<path d="M783.983 2406.54V2412.59H795.019V2416H780.387V2394.3H794.709V2397.71H783.983V2403.23H793.531V2406.54H783.983ZM805.624 2408L810.956 2416H807.05L803.454 2410.36L799.858 2416H796.076L801.408 2408L796.417 2400.31H800.292L803.578 2405.58L806.864 2400.31H810.584L805.624 2408ZM816.638 2416H813.228V2394.3H816.638V2416ZM820.732 2421.58V2400.31H823.274L823.894 2402.05H824.049C824.4 2401.6 824.989 2401.13 825.816 2400.65C826.663 2400.18 827.635 2399.94 828.73 2399.94C830.011 2399.94 831.2 2400.3 832.295 2401.03C833.411 2401.73 834.3 2402.71 834.961 2403.97C835.622 2405.21 835.953 2406.61 835.953 2408.16C835.953 2409.71 835.622 2411.11 834.961 2412.37C834.3 2413.61 833.411 2414.59 832.295 2415.32C831.2 2416.02 830.011 2416.37 828.73 2416.37C828.007 2416.37 827.325 2416.25 826.684 2416C826.064 2415.77 825.547 2415.5 825.134 2415.19C824.721 2414.86 824.442 2414.58 824.297 2414.36H824.142V2421.58H820.732ZM828.358 2413.21C829.123 2413.21 829.825 2413 830.466 2412.59C831.107 2412.16 831.613 2411.56 831.985 2410.79C832.378 2410.01 832.574 2409.13 832.574 2408.16C832.574 2407.19 832.378 2406.32 831.985 2405.55C831.613 2404.77 831.107 2404.17 830.466 2403.75C829.825 2403.32 829.123 2403.1 828.358 2403.1C827.593 2403.1 826.891 2403.32 826.25 2403.75C825.609 2404.17 825.093 2404.77 824.7 2405.55C824.328 2406.32 824.142 2407.19 824.142 2408.16C824.142 2409.13 824.328 2410.01 824.7 2410.79C825.093 2411.56 825.609 2412.16 826.25 2412.59C826.891 2413 827.593 2413.21 828.358 2413.21ZM845.899 2416.37C844.494 2416.37 843.192 2416.01 841.993 2415.29C840.815 2414.54 839.875 2413.54 839.172 2412.28C838.47 2411.02 838.118 2409.64 838.118 2408.16C838.118 2406.65 838.47 2405.27 839.172 2404.03C839.875 2402.77 840.815 2401.78 841.993 2401.06C843.192 2400.31 844.494 2399.94 845.899 2399.94C847.305 2399.94 848.596 2400.31 849.774 2401.06C850.973 2401.78 851.924 2402.77 852.626 2404.03C853.329 2405.27 853.68 2406.65 853.68 2408.16C853.68 2409.64 853.329 2411.02 852.626 2412.28C851.924 2413.54 850.973 2414.54 849.774 2415.29C848.596 2416.01 847.305 2416.37 845.899 2416.37ZM845.899 2413.21C846.705 2413.21 847.439 2412.99 848.1 2412.56C848.782 2412.12 849.32 2411.53 849.712 2410.76C850.105 2410 850.301 2409.13 850.301 2408.16C850.301 2407.19 850.105 2406.32 849.712 2405.55C849.32 2404.79 848.782 2404.19 848.1 2403.75C847.439 2403.32 846.705 2403.1 845.899 2403.1C845.093 2403.1 844.349 2403.32 843.667 2403.75C843.006 2404.19 842.479 2404.79 842.086 2405.55C841.694 2406.32 841.497 2407.19 841.497 2408.16C841.497 2409.13 841.694 2410 842.086 2410.76C842.479 2411.53 843.006 2412.12 843.667 2412.56C844.349 2412.99 845.093 2413.21 845.899 2413.21ZM856.757 2416V2400.31H859.299L859.919 2402.05H860.074C860.405 2401.57 860.911 2401.11 861.593 2400.65C862.275 2400.18 863.061 2399.94 863.949 2399.94C864.466 2399.94 864.9 2399.98 865.251 2400.07V2403.48C864.859 2403.39 864.394 2403.35 863.856 2403.35C862.761 2403.35 861.872 2403.7 861.19 2404.41C860.508 2405.11 860.167 2406.08 860.167 2407.32V2416H856.757ZM881.282 2407.82C881.282 2408.48 881.22 2409.04 881.096 2409.49H869.471C869.677 2410.67 870.173 2411.6 870.959 2412.28C871.744 2412.96 872.695 2413.3 873.811 2413.3C874.617 2413.3 875.299 2413.15 875.857 2412.84C876.415 2412.53 876.859 2412.14 877.19 2411.66H880.724C880.414 2412.45 879.928 2413.2 879.267 2413.92C878.626 2414.65 877.83 2415.24 876.88 2415.69C875.95 2416.14 874.937 2416.37 873.842 2416.37C872.416 2416.37 871.103 2416.01 869.905 2415.29C868.727 2414.56 867.786 2413.58 867.084 2412.34C866.402 2411.08 866.061 2409.69 866.061 2408.16C866.061 2406.65 866.412 2405.27 867.115 2404.03C867.817 2402.77 868.758 2401.78 869.936 2401.06C871.134 2400.31 872.426 2399.94 873.811 2399.94C875.195 2399.94 876.456 2400.29 877.593 2401C878.729 2401.68 879.628 2402.62 880.29 2403.82C880.951 2405.02 881.282 2406.35 881.282 2407.82ZM873.811 2403.01C872.736 2403.01 871.796 2403.37 870.99 2404.1C870.184 2404.8 869.677 2405.74 869.471 2406.92H877.965C877.779 2405.76 877.303 2404.82 876.539 2404.1C875.774 2403.37 874.865 2403.01 873.811 2403.01Z" fill="white"/>
<path d="M1038 2327.4C1042.5 2327.4 1046.14 2323.73 1046.14 2319.2C1046.14 2314.67 1042.5 2311 1038 2311C1033.5 2311 1029.86 2314.67 1029.86 2319.2C1029.86 2323.73 1033.5 2327.4 1038 2327.4Z" fill="#5C5A6C"/>
<path d="M1019 2352C1019 2341.43 1027.51 2332.87 1038 2332.87C1048.49 2332.87 1057 2341.43 1057 2352H1019Z" fill="#5C5A6C"/>
<path d="M1004.14 2394.3C1005.5 2394.3 1006.74 2394.62 1007.86 2395.26C1008.97 2395.88 1009.85 2396.73 1010.49 2397.8C1011.15 2398.88 1011.48 2400.08 1011.48 2401.4C1011.48 2402.72 1011.16 2403.93 1010.52 2405.03C1009.88 2406.1 1008.99 2406.96 1007.86 2407.6C1006.74 2408.22 1005.5 2408.53 1004.14 2408.53H999.983V2416H996.387V2394.3H1004.14ZM1004.08 2405.09C1005.15 2405.09 1006.05 2404.74 1006.77 2404.03C1007.52 2403.33 1007.89 2402.45 1007.89 2401.4C1007.89 2400.34 1007.52 2399.48 1006.77 2398.79C1006.05 2398.09 1005.15 2397.74 1004.08 2397.74H999.983V2405.09H1004.08ZM1014.03 2416V2400.31H1016.57L1017.19 2402.05H1017.34C1017.67 2401.57 1018.18 2401.11 1018.86 2400.65C1019.54 2400.18 1020.33 2399.94 1021.22 2399.94C1021.74 2399.94 1022.17 2399.98 1022.52 2400.07V2403.48C1022.13 2403.39 1021.66 2403.35 1021.13 2403.35C1020.03 2403.35 1019.14 2403.7 1018.46 2404.41C1017.78 2405.11 1017.44 2406.08 1017.44 2407.32V2416H1014.03ZM1031.11 2416.37C1029.71 2416.37 1028.4 2416.01 1027.21 2415.29C1026.03 2414.54 1025.09 2413.54 1024.38 2412.28C1023.68 2411.02 1023.33 2409.64 1023.33 2408.16C1023.33 2406.65 1023.68 2405.27 1024.38 2404.03C1025.09 2402.77 1026.03 2401.78 1027.21 2401.06C1028.4 2400.31 1029.71 2399.94 1031.11 2399.94C1032.52 2399.94 1033.81 2400.31 1034.99 2401.06C1036.18 2401.78 1037.14 2402.77 1037.84 2404.03C1038.54 2405.27 1038.89 2406.65 1038.89 2408.16C1038.89 2409.64 1038.54 2411.02 1037.84 2412.28C1037.14 2413.54 1036.18 2414.54 1034.99 2415.29C1033.81 2416.01 1032.52 2416.37 1031.11 2416.37ZM1031.11 2413.21C1031.92 2413.21 1032.65 2412.99 1033.31 2412.56C1033.99 2412.12 1034.53 2411.53 1034.92 2410.76C1035.32 2410 1035.51 2409.13 1035.51 2408.16C1035.51 2407.19 1035.32 2406.32 1034.92 2405.55C1034.53 2404.79 1033.99 2404.19 1033.31 2403.75C1032.65 2403.32 1031.92 2403.1 1031.11 2403.1C1030.31 2403.1 1029.56 2403.32 1028.88 2403.75C1028.22 2404.19 1027.69 2404.79 1027.3 2405.55C1026.91 2406.32 1026.71 2407.19 1026.71 2408.16C1026.71 2409.13 1026.91 2410 1027.3 2410.76C1027.69 2411.53 1028.22 2412.12 1028.88 2412.56C1029.56 2412.99 1030.31 2413.21 1031.11 2413.21ZM1045.88 2400.31H1054.9V2416H1051.49V2403.26H1045.98V2416H1042.6V2403.26H1040.46V2400.31H1042.6V2400.22C1042.6 2398.22 1043.22 2396.65 1044.46 2395.51C1045.72 2394.37 1047.49 2393.8 1049.79 2393.8C1051.05 2393.8 1052.19 2394.01 1053.2 2394.42V2397.31C1052.29 2396.98 1051.21 2396.81 1049.97 2396.81C1048.67 2396.81 1047.66 2397.11 1046.94 2397.71C1046.23 2398.31 1045.88 2399.16 1045.88 2400.25V2400.31ZM1062.25 2416H1058.84V2394.3H1062.25V2416ZM1080.66 2407.82C1080.66 2408.48 1080.6 2409.04 1080.48 2409.49H1068.85C1069.06 2410.67 1069.55 2411.6 1070.34 2412.28C1071.12 2412.96 1072.07 2413.3 1073.19 2413.3C1074 2413.3 1074.68 2413.15 1075.24 2412.84C1075.79 2412.53 1076.24 2412.14 1076.57 2411.66H1080.1C1079.79 2412.45 1079.31 2413.2 1078.65 2413.92C1078.01 2414.65 1077.21 2415.24 1076.26 2415.69C1075.33 2416.14 1074.32 2416.37 1073.22 2416.37C1071.8 2416.37 1070.48 2416.01 1069.28 2415.29C1068.11 2414.56 1067.17 2413.58 1066.46 2412.34C1065.78 2411.08 1065.44 2409.69 1065.44 2408.16C1065.44 2406.65 1065.79 2405.27 1066.49 2404.03C1067.2 2402.77 1068.14 2401.78 1069.32 2401.06C1070.51 2400.31 1071.81 2399.94 1073.19 2399.94C1074.58 2399.94 1075.84 2400.29 1076.97 2401C1078.11 2401.68 1079.01 2402.62 1079.67 2403.82C1080.33 2405.02 1080.66 2406.35 1080.66 2407.82ZM1073.19 2403.01C1072.12 2403.01 1071.18 2403.37 1070.37 2404.1C1069.56 2404.8 1069.06 2405.74 1068.85 2406.92H1077.34C1077.16 2405.76 1076.68 2404.82 1075.92 2404.1C1075.15 2403.37 1074.24 2403.01 1073.19 2403.01Z" fill="white"/>
<path d="M430.312 605.072C430.312 610.584 428.51 615.248 424.906 619.064C421.373 622.809 416.355 625.106 409.854 625.954V636.13H398.406V625.742C392.117 624.611 387.135 621.926 383.46 617.686C379.785 613.446 377.807 608.287 377.524 602.21H389.82C390.173 606.167 391.622 609.312 394.166 611.644C396.781 613.976 400.314 615.142 404.766 615.142C409.006 615.142 412.257 614.223 414.518 612.386C416.85 610.549 418.016 608.217 418.016 605.39C418.016 603.129 417.309 601.256 415.896 599.772C414.553 598.217 412.822 596.981 410.702 596.062C408.582 595.143 405.685 594.048 402.01 592.776C397.205 591.151 393.283 589.596 390.244 588.112C387.205 586.557 384.591 584.367 382.4 581.54C380.28 578.643 379.22 574.897 379.22 570.304C379.22 565.075 380.916 560.623 384.308 556.948C387.7 553.203 392.399 550.871 398.406 549.952V539.67H409.854V550.164C415.578 551.295 420.171 553.945 423.634 558.114C427.097 562.283 428.969 567.23 429.252 572.954H416.956C416.744 569.279 415.472 566.311 413.14 564.05C410.808 561.789 407.699 560.658 403.812 560.658C399.925 560.658 396.887 561.577 394.696 563.414C392.576 565.251 391.516 567.619 391.516 570.516C391.516 572.707 392.187 574.544 393.53 576.028C394.943 577.441 396.675 578.607 398.724 579.526C400.844 580.445 403.706 581.469 407.31 582.6C412.257 584.225 416.214 585.78 419.182 587.264C422.221 588.677 424.835 590.833 427.026 593.73C429.217 596.627 430.312 600.408 430.312 605.072ZM436.481 564.156L455.455 550.8H464.783V625H452.487V566.276L442.205 573.484L436.481 564.156ZM484.109 611.538C486.3 611.538 488.102 612.315 489.515 613.87C490.929 615.354 491.635 617.333 491.635 619.806C491.635 624.187 490.469 628.145 488.137 631.678C485.876 635.282 483.438 638.144 480.823 640.264L478.491 637.296C479.693 635.741 480.753 634.081 481.671 632.314C482.59 630.618 483.226 628.604 483.579 626.272C481.601 626.131 479.975 625.353 478.703 623.94C477.431 622.527 476.795 620.831 476.795 618.852C476.795 616.803 477.502 615.071 478.915 613.658C480.329 612.245 482.06 611.538 484.109 611.538ZM537.1 586.416C540.634 587.829 543.566 590.055 545.898 593.094C548.23 596.062 549.396 599.913 549.396 604.648C549.396 608.464 548.336 612.033 546.216 615.354C544.096 618.675 541.093 621.325 537.206 623.304C533.39 625.283 528.974 626.272 523.956 626.272C518.868 626.272 514.381 625.283 510.494 623.304C506.678 621.325 503.675 618.711 501.484 615.46C499.364 612.139 498.092 608.535 497.668 604.648H509.964C510.318 607.263 511.731 609.63 514.204 611.75C516.678 613.87 519.893 614.93 523.85 614.93C527.949 614.93 531.164 613.905 533.496 611.856C535.899 609.736 537.1 607.015 537.1 603.694C537.1 600.302 535.899 597.581 533.496 595.532C531.094 593.412 527.737 592.352 523.426 592.352H518.126V582.07H522.896C526.783 582.07 529.822 581.116 532.012 579.208C534.274 577.229 535.404 574.685 535.404 571.576C535.404 568.467 534.309 565.923 532.118 563.944C529.998 561.895 527.136 560.87 523.532 560.87C519.999 560.87 517.102 561.859 514.84 563.838C512.579 565.746 511.307 568.043 511.024 570.728H498.728C499.011 566.983 500.212 563.485 502.332 560.234C504.523 556.983 507.456 554.404 511.13 552.496C514.805 550.517 518.904 549.528 523.426 549.528C528.161 549.528 532.366 550.517 536.04 552.496C539.715 554.404 542.577 556.983 544.626 560.234C546.676 563.414 547.7 566.912 547.7 570.728C547.7 574.261 546.711 577.335 544.732 579.95C542.754 582.565 540.21 584.72 537.1 586.416ZM594.966 586.416C598.499 587.829 601.432 590.055 603.764 593.094C606.096 596.062 607.262 599.913 607.262 604.648C607.262 608.464 606.202 612.033 604.082 615.354C601.962 618.675 598.958 621.325 595.072 623.304C591.256 625.283 586.839 626.272 581.822 626.272C576.734 626.272 572.246 625.283 568.36 623.304C564.544 621.325 561.54 618.711 559.35 615.46C557.23 612.139 555.958 608.535 555.534 604.648H567.83C568.183 607.263 569.596 609.63 572.07 611.75C574.543 613.87 577.758 614.93 581.716 614.93C585.814 614.93 589.03 613.905 591.362 611.856C593.764 609.736 594.966 607.015 594.966 603.694C594.966 600.302 593.764 597.581 591.362 595.532C588.959 593.412 585.602 592.352 581.292 592.352H575.992V582.07H580.762C584.648 582.07 587.687 581.116 589.878 579.208C592.139 577.229 593.27 574.685 593.27 571.576C593.27 568.467 592.174 565.923 589.984 563.944C587.864 561.895 585.002 560.87 581.398 560.87C577.864 560.87 574.967 561.859 572.706 563.838C570.444 565.746 569.172 568.043 568.89 570.728H556.594C556.876 566.983 558.078 563.485 560.198 560.234C562.388 556.983 565.321 554.404 568.996 552.496C572.67 550.517 576.769 549.528 581.292 549.528C586.026 549.528 590.231 550.517 593.906 552.496C597.58 554.404 600.442 556.983 602.492 560.234C604.541 563.414 605.566 566.912 605.566 570.728C605.566 574.261 604.576 577.335 602.598 579.95C600.619 582.565 598.075 584.72 594.966 586.416ZM611.541 562.566V550.8H659.877V560.446L632.423 625H619.279L645.991 562.566H611.541ZM663.608 626.272C661.488 626.272 659.721 625.565 658.308 624.152C656.895 622.668 656.188 620.901 656.188 618.852C656.188 616.803 656.895 615.071 658.308 613.658C659.721 612.245 661.488 611.538 663.608 611.538C665.728 611.538 667.495 612.245 668.908 613.658C670.321 615.071 671.028 616.803 671.028 618.852C671.028 620.901 670.321 622.668 668.908 624.152C667.495 625.565 665.728 626.272 663.608 626.272ZM706.423 574.544C711.228 574.544 715.539 575.675 719.355 577.936C723.242 580.197 726.28 583.307 728.471 587.264C730.732 591.151 731.863 595.532 731.863 600.408C731.863 605.143 730.697 609.489 728.365 613.446C726.104 617.403 722.959 620.548 718.931 622.88C714.903 625.141 710.38 626.272 705.363 626.272C700.346 626.272 695.823 625.141 691.795 622.88C687.767 620.548 684.587 617.403 682.255 613.446C679.994 609.489 678.863 605.143 678.863 600.408C678.863 596.592 679.57 593.059 680.983 589.808C682.467 586.487 684.34 583.13 686.601 579.738L705.999 550.8H719.143L702.819 574.968C704.091 574.685 705.292 574.544 706.423 574.544ZM705.363 614.93C709.391 614.93 712.748 613.587 715.433 610.902C718.189 608.146 719.567 604.613 719.567 600.302C719.567 595.991 718.189 592.493 715.433 589.808C712.748 587.052 709.391 585.674 705.363 585.674C701.264 585.674 697.872 587.052 695.187 589.808C692.502 592.493 691.159 595.991 691.159 600.302C691.159 604.613 692.502 608.146 695.187 610.902C697.872 613.587 701.264 614.93 705.363 614.93ZM763.738 549.528C768.756 549.528 773.278 550.694 777.306 553.026C781.334 555.287 784.479 558.397 786.74 562.354C789.072 566.311 790.238 570.657 790.238 575.392C790.238 579.208 789.496 582.777 788.012 586.098C786.528 589.419 784.656 592.741 782.394 596.062L763.102 625H749.958L766.282 600.832C765.01 601.115 763.809 601.256 762.678 601.256C757.873 601.256 753.527 600.125 749.64 597.864C745.824 595.603 742.786 592.529 740.524 588.642C738.334 584.685 737.238 580.268 737.238 575.392C737.238 570.657 738.369 566.311 740.63 562.354C742.962 558.397 746.142 555.287 750.17 553.026C754.198 550.694 758.721 549.528 763.738 549.528ZM763.738 590.126C767.837 590.126 771.229 588.783 773.914 586.098C776.6 583.342 777.942 579.809 777.942 575.498C777.942 571.187 776.6 567.689 773.914 565.004C771.229 562.248 767.837 560.87 763.738 560.87C759.71 560.87 756.318 562.248 753.562 565.004C750.877 567.689 749.534 571.187 749.534 575.498C749.534 579.809 750.877 583.342 753.562 586.098C756.318 588.783 759.71 590.126 763.738 590.126Z" fill="white"/>
<g filter="url(#filter1_d_5295_14688)">
<path d="M478.109 703.328L507.589 673.844M507.589 673.844L489.475 673.844M507.589 673.844L507.588 691.649" stroke="#AFD803" stroke-width="5" stroke-linecap="round" stroke-linejoin="round"/>
</g>
<path d="M549.521 694.352C549.521 696.744 548.739 698.768 547.175 700.424C545.642 702.049 543.464 703.046 540.643 703.414V707.83H535.675V703.322C532.946 702.831 530.784 701.666 529.189 699.826C527.594 697.986 526.736 695.747 526.613 693.11H531.949C532.102 694.827 532.731 696.192 533.835 697.204C534.97 698.216 536.503 698.722 538.435 698.722C540.275 698.722 541.686 698.323 542.667 697.526C543.679 696.729 544.185 695.717 544.185 694.49C544.185 693.509 543.878 692.696 543.265 692.052C542.682 691.377 541.931 690.841 541.011 690.442C540.091 690.043 538.834 689.568 537.239 689.016C535.154 688.311 533.452 687.636 532.133 686.992C530.814 686.317 529.68 685.367 528.729 684.14C527.809 682.883 527.349 681.257 527.349 679.264C527.349 676.995 528.085 675.063 529.557 673.468C531.029 671.843 533.068 670.831 535.675 670.432V665.97H540.643V670.524C543.127 671.015 545.12 672.165 546.623 673.974C548.126 675.783 548.938 677.93 549.061 680.414H543.725C543.633 678.819 543.081 677.531 542.069 676.55C541.057 675.569 539.708 675.078 538.021 675.078C536.334 675.078 535.016 675.477 534.065 676.274C533.145 677.071 532.685 678.099 532.685 679.356C532.685 680.307 532.976 681.104 533.559 681.748C534.172 682.361 534.924 682.867 535.813 683.266C536.733 683.665 537.975 684.109 539.539 684.6C541.686 685.305 543.403 685.98 544.691 686.624C546.01 687.237 547.144 688.173 548.095 689.43C549.046 690.687 549.521 692.328 549.521 694.352ZM571.978 691.776H575.382V696.698H571.978V703H566.78V696.698H552.29V692.144L565.722 670.8H571.978V691.776ZM566.78 691.776V677.976L558.086 691.776H566.78ZM585.6 697.894H598.848V703H577.734V698.906L588.912 687.498C590.66 685.75 591.871 684.37 592.546 683.358C593.251 682.315 593.604 681.15 593.604 679.862C593.604 678.482 593.098 677.363 592.086 676.504C591.105 675.615 589.801 675.17 588.176 675.17C586.52 675.17 585.171 675.676 584.128 676.688C583.085 677.669 582.549 678.957 582.518 680.552H577.32C577.351 678.651 577.826 676.918 578.746 675.354C579.697 673.759 580.985 672.517 582.61 671.628C584.266 670.708 586.121 670.248 588.176 670.248C590.292 670.248 592.163 670.662 593.788 671.49C595.444 672.318 596.717 673.453 597.606 674.894C598.495 676.335 598.94 677.93 598.94 679.678C598.94 681.671 598.419 683.481 597.376 685.106C596.364 686.731 594.831 688.587 592.776 690.672L585.6 697.894ZM605.796 703.552C604.876 703.552 604.109 703.245 603.496 702.632C602.883 701.988 602.576 701.221 602.576 700.332C602.576 699.443 602.883 698.691 603.496 698.078C604.109 697.465 604.876 697.158 605.796 697.158C606.716 697.158 607.483 697.465 608.096 698.078C608.709 698.691 609.016 699.443 609.016 700.332C609.016 701.221 608.709 701.988 608.096 702.632C607.483 703.245 606.716 703.552 605.796 703.552ZM624.744 703.552C622.475 703.552 620.389 702.923 618.488 701.666C616.617 700.378 615.13 698.477 614.026 695.962C612.922 693.447 612.37 690.427 612.37 686.9C612.37 683.373 612.922 680.353 614.026 677.838C615.13 675.323 616.617 673.437 618.488 672.18C620.389 670.892 622.475 670.248 624.744 670.248C627.013 670.248 629.083 670.892 630.954 672.18C632.855 673.437 634.358 675.323 635.462 677.838C636.566 680.353 637.118 683.373 637.118 686.9C637.118 690.427 636.566 693.447 635.462 695.962C634.358 698.477 632.855 700.378 630.954 701.666C629.083 702.923 627.013 703.552 624.744 703.552ZM624.744 698.446C626.032 698.446 627.197 698.047 628.24 697.25C629.313 696.422 630.172 695.149 630.816 693.432C631.46 691.684 631.782 689.507 631.782 686.9C631.782 684.293 631.46 682.131 630.816 680.414C630.172 678.666 629.313 677.393 628.24 676.596C627.197 675.768 626.032 675.354 624.744 675.354C623.456 675.354 622.275 675.768 621.202 676.596C620.159 677.393 619.316 678.666 618.672 680.414C618.028 682.131 617.706 684.293 617.706 686.9C617.706 689.507 618.028 691.684 618.672 693.432C619.316 695.149 620.159 696.422 621.202 697.25C622.275 698.047 623.456 698.446 624.744 698.446ZM652.91 703.552C650.641 703.552 648.555 702.923 646.654 701.666C644.783 700.378 643.296 698.477 642.192 695.962C641.088 693.447 640.536 690.427 640.536 686.9C640.536 683.373 641.088 680.353 642.192 677.838C643.296 675.323 644.783 673.437 646.654 672.18C648.555 670.892 650.641 670.248 652.91 670.248C655.179 670.248 657.249 670.892 659.12 672.18C661.021 673.437 662.524 675.323 663.628 677.838C664.732 680.353 665.284 683.373 665.284 686.9C665.284 690.427 664.732 693.447 663.628 695.962C662.524 698.477 661.021 700.378 659.12 701.666C657.249 702.923 655.179 703.552 652.91 703.552ZM652.91 698.446C654.198 698.446 655.363 698.047 656.406 697.25C657.479 696.422 658.338 695.149 658.982 693.432C659.626 691.684 659.948 689.507 659.948 686.9C659.948 684.293 659.626 682.131 658.982 680.414C658.338 678.666 657.479 677.393 656.406 676.596C655.363 675.768 654.198 675.354 652.91 675.354C651.622 675.354 650.441 675.768 649.368 676.596C648.325 677.393 647.482 678.666 646.838 680.414C646.194 682.131 645.872 684.293 645.872 686.9C645.872 689.507 646.194 691.684 646.838 693.432C647.482 695.149 648.325 696.422 649.368 697.25C650.441 698.047 651.622 698.446 652.91 698.446Z" fill="#AFD803"/>
<path d="M499.098 506H495.386V487.152H488.73V483.6H505.754V487.152H499.098V506ZM512.808 506.384C511.358 506.384 510.014 506.011 508.776 505.264C507.56 504.496 506.59 503.461 505.864 502.16C505.139 500.859 504.776 499.44 504.776 497.904C504.776 496.347 505.139 494.928 505.864 493.648C506.59 492.347 507.56 491.323 508.776 490.576C510.014 489.808 511.358 489.424 512.808 489.424C514.259 489.424 515.592 489.808 516.808 490.576C518.046 491.323 519.027 492.347 519.752 493.648C520.478 494.928 520.84 496.347 520.84 497.904C520.84 499.44 520.478 500.859 519.752 502.16C519.027 503.461 518.046 504.496 516.808 505.264C515.592 506.011 514.259 506.384 512.808 506.384ZM512.808 503.12C513.64 503.12 514.398 502.896 515.08 502.448C515.784 502 516.339 501.381 516.744 500.592C517.15 499.803 517.352 498.907 517.352 497.904C517.352 496.901 517.15 496.005 516.744 495.216C516.339 494.427 515.784 493.808 515.08 493.36C514.398 492.912 513.64 492.688 512.808 492.688C511.976 492.688 511.208 492.912 510.504 493.36C509.822 493.808 509.278 494.427 508.872 495.216C508.467 496.005 508.264 496.901 508.264 497.904C508.264 498.907 508.467 499.803 508.872 500.592C509.278 501.381 509.822 502 510.504 502.448C511.208 502.896 511.976 503.12 512.808 503.12ZM529.88 506.384C528.366 506.384 527.139 505.883 526.2 504.88C525.262 503.877 524.792 502.501 524.792 500.752V492.976H522.136V490H523.288C523.928 490 524.408 489.84 524.728 489.52C525.07 489.179 525.24 488.699 525.24 488.08V485.648H528.28V489.808H531.8V492.976H528.28V500.464C528.28 501.339 528.494 502 528.92 502.448C529.347 502.875 529.934 503.088 530.68 503.088C531.128 503.088 531.502 503.013 531.8 502.864V506.064C531.246 506.277 530.606 506.384 529.88 506.384ZM540.722 489.424C542.684 489.424 544.252 490.032 545.426 491.248C546.599 492.443 547.186 494.032 547.186 496.016V506H544.562L543.922 504.176H543.762C543.314 504.752 542.695 505.264 541.906 505.712C541.138 506.16 540.178 506.384 539.026 506.384C538.002 506.384 537.074 506.171 536.242 505.744C535.41 505.296 534.759 504.709 534.29 503.984C533.82 503.237 533.586 502.427 533.586 501.552C533.586 500.485 533.895 499.557 534.514 498.768C535.154 497.957 536.039 497.339 537.17 496.912C538.322 496.485 539.634 496.272 541.106 496.272H543.698V495.728C543.698 494.768 543.42 494.011 542.866 493.456C542.332 492.88 541.607 492.592 540.69 492.592C539.879 492.592 539.228 492.805 538.738 493.232C538.247 493.637 537.948 494.139 537.842 494.736H534.322C534.428 493.797 534.738 492.923 535.25 492.112C535.783 491.301 536.519 490.651 537.458 490.16C538.396 489.669 539.484 489.424 540.722 489.424ZM539.762 503.408C540.935 503.408 541.884 503.056 542.61 502.352C543.335 501.648 543.698 500.805 543.698 499.824V498.8H541.138C539.794 498.8 538.78 499.024 538.098 499.472C537.436 499.899 537.106 500.496 537.106 501.264C537.106 501.904 537.33 502.427 537.778 502.832C538.247 503.216 538.908 503.408 539.762 503.408ZM554.791 506H551.271V483.6H554.791V506ZM579.979 494.064C580.96 494.384 581.856 495.013 582.667 495.952C583.478 496.869 583.883 498.075 583.883 499.568C583.883 500.763 583.574 501.851 582.955 502.832C582.358 503.813 581.504 504.592 580.395 505.168C579.307 505.723 578.059 506 576.651 506H567.339V483.6H576.267C577.568 483.6 578.731 483.867 579.755 484.4C580.779 484.912 581.568 485.627 582.123 486.544C582.699 487.44 582.987 488.432 582.987 489.52C582.987 490.715 582.688 491.696 582.091 492.464C581.494 493.232 580.79 493.765 579.979 494.064ZM571.051 486.832V492.72H575.947C576.928 492.72 577.728 492.443 578.347 491.888C578.966 491.333 579.275 490.619 579.275 489.744C579.275 488.891 578.966 488.197 578.347 487.664C577.728 487.109 576.928 486.832 575.947 486.832H571.051ZM576.331 502.768C577.462 502.768 578.379 502.448 579.083 501.808C579.808 501.147 580.171 500.304 580.171 499.28C580.171 498.277 579.808 497.456 579.083 496.816C578.379 496.155 577.462 495.824 576.331 495.824H571.051V502.768H576.331ZM593.159 489.424C595.122 489.424 596.69 490.032 597.863 491.248C599.037 492.443 599.623 494.032 599.623 496.016V506H596.999L596.359 504.176H596.199C595.751 504.752 595.133 505.264 594.343 505.712C593.575 506.16 592.615 506.384 591.463 506.384C590.439 506.384 589.511 506.171 588.679 505.744C587.847 505.296 587.197 504.709 586.727 503.984C586.258 503.237 586.023 502.427 586.023 501.552C586.023 500.485 586.333 499.557 586.951 498.768C587.591 497.957 588.477 497.339 589.607 496.912C590.759 496.485 592.071 496.272 593.543 496.272H596.135V495.728C596.135 494.768 595.858 494.011 595.303 493.456C594.77 492.88 594.045 492.592 593.127 492.592C592.317 492.592 591.666 492.805 591.175 493.232C590.685 493.637 590.386 494.139 590.279 494.736H586.759C586.866 493.797 587.175 492.923 587.687 492.112C588.221 491.301 588.957 490.651 589.895 490.16C590.834 489.669 591.922 489.424 593.159 489.424ZM592.199 503.408C593.373 503.408 594.322 503.056 595.047 502.352C595.773 501.648 596.135 500.805 596.135 499.824V498.8H593.575C592.231 498.8 591.218 499.024 590.535 499.472C589.874 499.899 589.543 500.496 589.543 501.264C589.543 501.904 589.767 502.427 590.215 502.832C590.685 503.216 591.346 503.408 592.199 503.408ZM607.228 506H603.708V483.6H607.228V506ZM617.534 489.424C619.497 489.424 621.065 490.032 622.238 491.248C623.412 492.443 623.998 494.032 623.998 496.016V506H621.374L620.734 504.176H620.574C620.126 504.752 619.508 505.264 618.718 505.712C617.95 506.16 616.99 506.384 615.838 506.384C614.814 506.384 613.886 506.171 613.054 505.744C612.222 505.296 611.572 504.709 611.102 503.984C610.633 503.237 610.398 502.427 610.398 501.552C610.398 500.485 610.708 499.557 611.326 498.768C611.966 497.957 612.852 497.339 613.982 496.912C615.134 496.485 616.446 496.272 617.918 496.272H620.51V495.728C620.51 494.768 620.233 494.011 619.678 493.456C619.145 492.88 618.42 492.592 617.502 492.592C616.692 492.592 616.041 492.805 615.55 493.232C615.06 493.637 614.761 494.139 614.654 494.736H611.134C611.241 493.797 611.55 492.923 612.062 492.112C612.596 491.301 613.332 490.651 614.27 490.16C615.209 489.669 616.297 489.424 617.534 489.424ZM616.574 503.408C617.748 503.408 618.697 503.056 619.422 502.352C620.148 501.648 620.51 500.805 620.51 499.824V498.8H617.95C616.606 498.8 615.593 499.024 614.91 499.472C614.249 499.899 613.918 500.496 613.918 501.264C613.918 501.904 614.142 502.427 614.59 502.832C615.06 503.216 615.721 503.408 616.574 503.408ZM627.923 506V489.808H630.547L631.187 491.6H631.347C631.71 491.109 632.286 490.629 633.075 490.16C633.886 489.669 634.824 489.424 635.891 489.424C637.15 489.424 638.27 489.723 639.251 490.32C640.232 490.896 641 491.717 641.555 492.784C642.11 493.851 642.387 495.088 642.387 496.496V506H638.899V496.752C638.899 495.557 638.547 494.587 637.843 493.84C637.16 493.072 636.275 492.688 635.187 492.688C634.078 492.688 633.171 493.072 632.467 493.84C631.784 494.587 631.443 495.557 631.443 496.752V506H627.923ZM653.433 506.384C651.983 506.384 650.639 506.011 649.401 505.264C648.185 504.496 647.215 503.461 646.489 502.16C645.764 500.859 645.401 499.44 645.401 497.904C645.401 496.347 645.764 494.928 646.489 493.648C647.215 492.347 648.185 491.323 649.401 490.576C650.639 489.808 651.983 489.424 653.433 489.424C654.713 489.424 655.887 489.723 656.953 490.32C658.02 490.917 658.895 491.707 659.577 492.688C660.26 493.648 660.708 494.672 660.921 495.76H657.401C657.167 494.971 656.708 494.267 656.025 493.648C655.343 493.008 654.479 492.688 653.433 492.688C652.601 492.688 651.833 492.912 651.129 493.36C650.447 493.808 649.903 494.427 649.497 495.216C649.092 496.005 648.889 496.901 648.889 497.904C648.889 498.907 649.092 499.803 649.497 500.592C649.903 501.381 650.447 502 651.129 502.448C651.833 502.896 652.601 503.12 653.433 503.12C654.479 503.12 655.343 502.811 656.025 502.192C656.708 501.552 657.167 500.837 657.401 500.048H660.921C660.708 501.136 660.26 502.171 659.577 503.152C658.895 504.112 658.02 504.891 656.953 505.488C655.887 506.085 654.713 506.384 653.433 506.384ZM678.676 497.552C678.676 498.235 678.612 498.811 678.484 499.28H666.484C666.697 500.496 667.209 501.456 668.02 502.16C668.83 502.864 669.812 503.216 670.964 503.216C671.796 503.216 672.5 503.056 673.076 502.736C673.652 502.416 674.11 502.011 674.452 501.52H678.1C677.78 502.331 677.278 503.109 676.596 503.856C675.934 504.603 675.113 505.211 674.132 505.68C673.172 506.149 672.126 506.384 670.996 506.384C669.524 506.384 668.169 506.011 666.932 505.264C665.716 504.517 664.745 503.504 664.02 502.224C663.316 500.923 662.964 499.483 662.964 497.904C662.964 496.347 663.326 494.928 664.052 493.648C664.777 492.347 665.748 491.323 666.964 490.576C668.201 489.808 669.534 489.424 670.964 489.424C672.393 489.424 673.694 489.787 674.868 490.512C676.041 491.216 676.969 492.187 677.652 493.424C678.334 494.661 678.676 496.037 678.676 497.552ZM670.964 492.592C669.854 492.592 668.884 492.965 668.052 493.712C667.22 494.437 666.697 495.408 666.484 496.624H675.252C675.06 495.429 674.569 494.459 673.78 493.712C672.99 492.965 672.052 492.592 670.964 492.592Z" fill="white" fill-opacity="0.5"/>
<g filter="url(#filter2_d_5295_14688)">
<rect x="50" y="1090" width="283" height="89" rx="33" fill="white" fill-opacity="0.1" shape-rendering="crispEdges"/>
</g>
<g filter="url(#filter3_d_5295_14688)">
<rect x="365" y="1091" width="281" height="87" rx="32" stroke="white" stroke-opacity="0.1" stroke-width="2" shape-rendering="crispEdges"/>
</g>
<g filter="url(#filter4_d_5295_14688)">
<rect x="670" y="1091" width="281" height="87" rx="32" stroke="white" stroke-opacity="0.1" stroke-width="2" shape-rendering="crispEdges"/>
</g>
<path d="M123.21 1150H117.598L114.976 1142.78H101.958L99.336 1150H93.908L106.006 1117.8H111.158L123.21 1150ZM113.228 1137.86L108.49 1124.65L103.706 1137.86H113.228ZM131.343 1150H126.283V1117.8H131.343V1150ZM142.709 1150H137.649V1117.8H142.709V1150ZM168.889 1126.17C171.71 1126.17 173.964 1127.05 175.651 1128.79C177.338 1130.51 178.181 1132.8 178.181 1135.65V1150H174.409L173.489 1147.38H173.259C172.615 1148.21 171.726 1148.94 170.591 1149.59C169.487 1150.23 168.107 1150.55 166.451 1150.55C164.979 1150.55 163.645 1150.25 162.449 1149.63C161.253 1148.99 160.318 1148.14 159.643 1147.1C158.968 1146.03 158.631 1144.86 158.631 1143.61C158.631 1142.07 159.076 1140.74 159.965 1139.6C160.885 1138.44 162.158 1137.55 163.783 1136.94C165.439 1136.32 167.325 1136.02 169.441 1136.02H173.167V1135.23C173.167 1133.85 172.768 1132.77 171.971 1131.97C171.204 1131.14 170.162 1130.73 168.843 1130.73C167.678 1130.73 166.742 1131.03 166.037 1131.65C165.332 1132.23 164.902 1132.95 164.749 1133.81H159.689C159.842 1132.46 160.287 1131.2 161.023 1130.04C161.79 1128.87 162.848 1127.94 164.197 1127.23C165.546 1126.52 167.11 1126.17 168.889 1126.17ZM167.509 1146.27C169.196 1146.27 170.56 1145.77 171.603 1144.76C172.646 1143.74 173.167 1142.53 173.167 1141.12V1139.65H169.487C167.555 1139.65 166.098 1139.97 165.117 1140.62C164.166 1141.23 163.691 1142.09 163.691 1143.19C163.691 1144.11 164.013 1144.86 164.657 1145.45C165.332 1146 166.282 1146.27 167.509 1146.27ZM191.551 1150.55C189.772 1150.55 188.193 1150.21 186.813 1149.54C185.464 1148.83 184.39 1147.9 183.593 1146.73C182.826 1145.57 182.397 1144.3 182.305 1142.92H187.273C187.365 1143.96 187.794 1144.8 188.561 1145.45C189.328 1146.06 190.324 1146.37 191.551 1146.37C192.747 1146.37 193.667 1146.11 194.311 1145.58C194.986 1145.06 195.323 1144.4 195.323 1143.61C195.323 1142.69 194.924 1142 194.127 1141.54C193.33 1141.05 192.072 1140.54 190.355 1140.02C188.791 1139.53 187.503 1139.04 186.491 1138.55C185.51 1138.06 184.666 1137.37 183.961 1136.48C183.256 1135.59 182.903 1134.44 182.903 1133.03C182.903 1131.74 183.24 1130.57 183.915 1129.53C184.59 1128.49 185.556 1127.67 186.813 1127.09C188.101 1126.48 189.604 1126.17 191.321 1126.17C192.977 1126.17 194.449 1126.51 195.737 1127.18C197.056 1127.83 198.083 1128.72 198.819 1129.85C199.555 1130.96 199.969 1132.2 200.061 1133.58H195.093C194.97 1132.57 194.587 1131.78 193.943 1131.23C193.33 1130.65 192.456 1130.36 191.321 1130.36C190.248 1130.36 189.42 1130.6 188.837 1131.09C188.254 1131.55 187.963 1132.14 187.963 1132.84C187.963 1133.7 188.346 1134.36 189.113 1134.82C189.88 1135.25 191.091 1135.71 192.747 1136.2C194.342 1136.69 195.645 1137.18 196.657 1137.67C197.669 1138.16 198.543 1138.87 199.279 1139.79C200.015 1140.71 200.383 1141.9 200.383 1143.38C200.383 1145.46 199.601 1147.18 198.037 1148.53C196.473 1149.88 194.311 1150.55 191.551 1150.55ZM212.619 1150.55C210.841 1150.55 209.261 1150.21 207.881 1149.54C206.532 1148.83 205.459 1147.9 204.661 1146.73C203.895 1145.57 203.465 1144.3 203.373 1142.92H208.341C208.433 1143.96 208.863 1144.8 209.629 1145.45C210.396 1146.06 211.393 1146.37 212.619 1146.37C213.815 1146.37 214.735 1146.11 215.379 1145.58C216.054 1145.06 216.391 1144.4 216.391 1143.61C216.391 1142.69 215.993 1142 215.195 1141.54C214.398 1141.05 213.141 1140.54 211.423 1140.02C209.859 1139.53 208.571 1139.04 207.559 1138.55C206.578 1138.06 205.735 1137.37 205.029 1136.48C204.324 1135.59 203.971 1134.44 203.971 1133.03C203.971 1131.74 204.309 1130.57 204.983 1129.53C205.658 1128.49 206.624 1127.67 207.881 1127.09C209.169 1126.48 210.672 1126.17 212.389 1126.17C214.045 1126.17 215.517 1126.51 216.805 1127.18C218.124 1127.83 219.151 1128.72 219.887 1129.85C220.623 1130.96 221.037 1132.2 221.129 1133.58H216.161C216.039 1132.57 215.655 1131.78 215.011 1131.23C214.398 1130.65 213.524 1130.36 212.389 1130.36C211.316 1130.36 210.488 1130.6 209.905 1131.09C209.323 1131.55 209.031 1132.14 209.031 1132.84C209.031 1133.7 209.415 1134.36 210.181 1134.82C210.948 1135.25 212.159 1135.71 213.815 1136.2C215.41 1136.69 216.713 1137.18 217.725 1137.67C218.737 1138.16 219.611 1138.87 220.347 1139.79C221.083 1140.71 221.451 1141.9 221.451 1143.38C221.451 1145.46 220.669 1147.18 219.105 1148.53C217.541 1149.88 215.379 1150.55 212.619 1150.55ZM247.212 1137.86C247.212 1138.84 247.12 1139.67 246.936 1140.34H229.686C229.992 1142.09 230.728 1143.47 231.894 1144.48C233.059 1145.49 234.47 1146 236.126 1146C237.322 1146 238.334 1145.77 239.162 1145.31C239.99 1144.85 240.649 1144.27 241.14 1143.56H246.384C245.924 1144.73 245.203 1145.84 244.222 1146.92C243.271 1147.99 242.09 1148.87 240.68 1149.54C239.3 1150.21 237.797 1150.55 236.172 1150.55C234.056 1150.55 232.108 1150.02 230.33 1148.94C228.582 1147.87 227.186 1146.41 226.144 1144.57C225.132 1142.7 224.626 1140.63 224.626 1138.36C224.626 1136.12 225.147 1134.08 226.19 1132.24C227.232 1130.37 228.628 1128.9 230.376 1127.83C232.154 1126.72 234.071 1126.17 236.126 1126.17C238.18 1126.17 240.051 1126.69 241.738 1127.74C243.424 1128.75 244.758 1130.14 245.74 1131.92C246.721 1133.7 247.212 1135.68 247.212 1137.86ZM236.126 1130.73C234.531 1130.73 233.136 1131.26 231.94 1132.34C230.744 1133.38 229.992 1134.77 229.686 1136.52H242.29C242.014 1134.8 241.308 1133.41 240.174 1132.34C239.039 1131.26 237.69 1130.73 236.126 1130.73ZM260.129 1150.55C257.951 1150.55 256.188 1149.83 254.839 1148.39C253.489 1146.95 252.815 1144.97 252.815 1142.46V1131.28H248.997V1127H250.653C251.573 1127 252.263 1126.77 252.723 1126.31C253.213 1125.82 253.459 1125.13 253.459 1124.24V1120.74H257.829V1126.72H262.889V1131.28H257.829V1142.04C257.829 1143.3 258.135 1144.25 258.749 1144.89C259.362 1145.51 260.205 1145.81 261.279 1145.81C261.923 1145.81 262.459 1145.71 262.889 1145.49V1150.09C262.091 1150.4 261.171 1150.55 260.129 1150.55ZM274.701 1150.55C272.923 1150.55 271.343 1150.21 269.963 1149.54C268.614 1148.83 267.541 1147.9 266.743 1146.73C265.977 1145.57 265.547 1144.3 265.455 1142.92H270.423C270.515 1143.96 270.945 1144.8 271.711 1145.45C272.478 1146.06 273.475 1146.37 274.701 1146.37C275.897 1146.37 276.817 1146.11 277.461 1145.58C278.136 1145.06 278.473 1144.4 278.473 1143.61C278.473 1142.69 278.075 1142 277.277 1141.54C276.48 1141.05 275.223 1140.54 273.505 1140.02C271.941 1139.53 270.653 1139.04 269.641 1138.55C268.66 1138.06 267.817 1137.37 267.111 1136.48C266.406 1135.59 266.053 1134.44 266.053 1133.03C266.053 1131.74 266.391 1130.57 267.065 1129.53C267.74 1128.49 268.706 1127.67 269.963 1127.09C271.251 1126.48 272.754 1126.17 274.471 1126.17C276.127 1126.17 277.599 1126.51 278.887 1127.18C280.206 1127.83 281.233 1128.72 281.969 1129.85C282.705 1130.96 283.119 1132.2 283.211 1133.58H278.243C278.121 1132.57 277.737 1131.78 277.093 1131.23C276.48 1130.65 275.606 1130.36 274.471 1130.36C273.398 1130.36 272.57 1130.6 271.987 1131.09C271.405 1131.55 271.113 1132.14 271.113 1132.84C271.113 1133.7 271.497 1134.36 272.263 1134.82C273.03 1135.25 274.241 1135.71 275.897 1136.2C277.492 1136.69 278.795 1137.18 279.807 1137.67C280.819 1138.16 281.693 1138.87 282.429 1139.79C283.165 1140.71 283.533 1141.9 283.533 1143.38C283.533 1145.46 282.751 1147.18 281.187 1148.53C279.623 1149.88 277.461 1150.55 274.701 1150.55Z" fill="#FECA1A"/>
<path d="M464.216 1140.39L470.84 1117.8H476.176L466.194 1150H461.962L455.66 1128.24L449.358 1150H445.08L435.19 1117.8H440.664L447.288 1140.39L453.728 1117.8H457.684L464.216 1140.39ZM486.801 1126.17C489.623 1126.17 491.877 1127.05 493.563 1128.79C495.25 1130.51 496.093 1132.8 496.093 1135.65V1150H492.321L491.401 1147.38H491.171C490.527 1148.21 489.638 1148.94 488.503 1149.59C487.399 1150.23 486.019 1150.55 484.363 1150.55C482.891 1150.55 481.557 1150.25 480.361 1149.63C479.165 1148.99 478.23 1148.14 477.555 1147.1C476.881 1146.03 476.543 1144.86 476.543 1143.61C476.543 1142.07 476.988 1140.74 477.877 1139.6C478.797 1138.44 480.07 1137.55 481.695 1136.94C483.351 1136.32 485.237 1136.02 487.353 1136.02H491.079V1135.23C491.079 1133.85 490.681 1132.77 489.883 1131.97C489.117 1131.14 488.074 1130.73 486.755 1130.73C485.59 1130.73 484.655 1131.03 483.949 1131.65C483.244 1132.23 482.815 1132.95 482.661 1133.81H477.601C477.755 1132.46 478.199 1131.2 478.935 1130.04C479.702 1128.87 480.76 1127.94 482.109 1127.23C483.459 1126.52 485.023 1126.17 486.801 1126.17ZM485.421 1146.27C487.108 1146.27 488.473 1145.77 489.515 1144.76C490.558 1143.74 491.079 1142.53 491.079 1141.12V1139.65H487.399C485.467 1139.65 484.011 1139.97 483.029 1140.62C482.079 1141.23 481.603 1142.09 481.603 1143.19C481.603 1144.11 481.925 1144.86 482.569 1145.45C483.244 1146 484.195 1146.27 485.421 1146.27ZM507.025 1150H501.965V1117.8H507.025V1150ZM518.39 1150H513.33V1117.8H518.39V1150ZM545.717 1137.86C545.717 1138.84 545.625 1139.67 545.441 1140.34H528.191C528.498 1142.09 529.234 1143.47 530.399 1144.48C531.565 1145.49 532.975 1146 534.631 1146C535.827 1146 536.839 1145.77 537.667 1145.31C538.495 1144.85 539.155 1144.27 539.645 1143.56H544.889C544.429 1144.73 543.709 1145.84 542.727 1146.92C541.777 1147.99 540.596 1148.87 539.185 1149.54C537.805 1150.21 536.303 1150.55 534.677 1150.55C532.561 1150.55 530.614 1150.02 528.835 1148.94C527.087 1147.87 525.692 1146.41 524.649 1144.57C523.637 1142.7 523.131 1140.63 523.131 1138.36C523.131 1136.12 523.653 1134.08 524.695 1132.24C525.738 1130.37 527.133 1128.9 528.881 1127.83C530.66 1126.72 532.577 1126.17 534.631 1126.17C536.686 1126.17 538.557 1126.69 540.243 1127.74C541.93 1128.75 543.264 1130.14 544.245 1131.92C545.227 1133.7 545.717 1135.68 545.717 1137.86ZM534.631 1130.73C533.037 1130.73 531.641 1131.26 530.445 1132.34C529.249 1133.38 528.498 1134.77 528.191 1136.52H540.795C540.519 1134.8 539.814 1133.41 538.679 1132.34C537.545 1131.26 536.195 1130.73 534.631 1130.73ZM558.634 1150.55C556.457 1150.55 554.694 1149.83 553.345 1148.39C551.995 1146.95 551.321 1144.97 551.321 1142.46V1131.28H547.503V1127H549.159C550.079 1127 550.769 1126.77 551.229 1126.31C551.719 1125.82 551.965 1125.13 551.965 1124.24V1120.74H556.335V1126.72H561.395V1131.28H556.335V1142.04C556.335 1143.3 556.641 1144.25 557.255 1144.89C557.868 1145.51 558.711 1145.81 559.785 1145.81C560.429 1145.81 560.965 1145.71 561.395 1145.49V1150.09C560.597 1150.4 559.677 1150.55 558.634 1150.55ZM769.114 1135.97V1144.94H785.49V1150H763.778V1117.8H785.03V1122.86H769.114V1131.05H783.282V1135.97H769.114ZM798.559 1126.17C801.38 1126.17 803.634 1127.05 805.321 1128.79C807.008 1130.51 807.851 1132.8 807.851 1135.65V1150H804.079L803.159 1147.38H802.929C802.285 1148.21 801.396 1148.94 800.261 1149.59C799.157 1150.23 797.777 1150.55 796.121 1150.55C794.649 1150.55 793.315 1150.25 792.119 1149.63C790.923 1148.99 789.988 1148.14 789.313 1147.1C788.638 1146.03 788.301 1144.86 788.301 1143.61C788.301 1142.07 788.746 1140.74 789.635 1139.6C790.555 1138.44 791.828 1137.55 793.453 1136.94C795.109 1136.32 796.995 1136.02 799.111 1136.02H802.837V1135.23C802.837 1133.85 802.438 1132.77 801.641 1131.97C800.874 1131.14 799.832 1130.73 798.513 1130.73C797.348 1130.73 796.412 1131.03 795.707 1131.65C795.002 1132.23 794.572 1132.95 794.419 1133.81H789.359C789.512 1132.46 789.957 1131.2 790.693 1130.04C791.46 1128.87 792.518 1127.94 793.867 1127.23C795.216 1126.52 796.78 1126.17 798.559 1126.17ZM797.179 1146.27C798.866 1146.27 800.23 1145.77 801.273 1144.76C802.316 1143.74 802.837 1142.53 802.837 1141.12V1139.65H799.157C797.225 1139.65 795.768 1139.97 794.787 1140.62C793.836 1141.23 793.361 1142.09 793.361 1143.19C793.361 1144.11 793.683 1144.86 794.327 1145.45C795.002 1146 795.952 1146.27 797.179 1146.27ZM813.493 1150V1126.72H817.265L818.185 1129.3H818.415C818.905 1128.59 819.657 1127.9 820.669 1127.23C821.681 1126.52 822.846 1126.17 824.165 1126.17C824.931 1126.17 825.575 1126.23 826.097 1126.36V1131.42C825.514 1131.29 824.824 1131.23 824.027 1131.23C822.401 1131.23 821.083 1131.75 820.071 1132.8C819.059 1133.84 818.553 1135.28 818.553 1137.12V1150H813.493ZM829.53 1150V1126.72H833.302L834.222 1129.3H834.452C834.973 1128.59 835.801 1127.9 836.936 1127.23C838.101 1126.52 839.451 1126.17 840.984 1126.17C842.793 1126.17 844.403 1126.6 845.814 1127.46C847.225 1128.29 848.329 1129.47 849.126 1131C849.923 1132.54 850.322 1134.31 850.322 1136.34V1150H845.308V1136.71C845.308 1134.99 844.802 1133.59 843.79 1132.52C842.809 1131.42 841.536 1130.86 839.972 1130.86C838.377 1130.86 837.074 1131.42 836.062 1132.52C835.081 1133.59 834.59 1134.99 834.59 1136.71V1150H829.53Z" fill="white" fill-opacity="0.5"/>
<path d="M277.768 1380.22C277.768 1382.93 276.884 1385.22 275.116 1387.09C273.383 1388.93 270.921 1390.05 267.732 1390.47V1395.46H262.116V1390.36C259.031 1389.81 256.587 1388.49 254.784 1386.41C252.981 1384.33 252.011 1381.8 251.872 1378.82H257.904C258.077 1380.76 258.788 1382.3 260.036 1383.45C261.319 1384.59 263.052 1385.16 265.236 1385.16C267.316 1385.16 268.911 1384.71 270.02 1383.81C271.164 1382.91 271.736 1381.77 271.736 1380.38C271.736 1379.27 271.389 1378.35 270.696 1377.62C270.037 1376.86 269.188 1376.25 268.148 1375.8C267.108 1375.35 265.687 1374.82 263.884 1374.19C261.527 1373.39 259.603 1372.63 258.112 1371.9C256.621 1371.14 255.339 1370.07 254.264 1368.68C253.224 1367.26 252.704 1365.42 252.704 1363.17C252.704 1360.6 253.536 1358.42 255.2 1356.62C256.864 1354.78 259.169 1353.63 262.116 1353.18V1348.14H267.732V1353.29C270.54 1353.84 272.793 1355.14 274.492 1357.19C276.191 1359.23 277.109 1361.66 277.248 1364.47H271.216C271.112 1362.67 270.488 1361.21 269.344 1360.1C268.2 1358.99 266.675 1358.44 264.768 1358.44C262.861 1358.44 261.371 1358.89 260.296 1359.79C259.256 1360.69 258.736 1361.85 258.736 1363.27C258.736 1364.35 259.065 1365.25 259.724 1365.98C260.417 1366.67 261.267 1367.24 262.272 1367.69C263.312 1368.14 264.716 1368.65 266.484 1369.2C268.911 1370 270.852 1370.76 272.308 1371.49C273.799 1372.18 275.081 1373.24 276.156 1374.66C277.231 1376.08 277.768 1377.94 277.768 1380.22ZM280.794 1360.15L290.102 1353.6H294.678V1390H288.646V1361.19L283.602 1364.73L280.794 1360.15ZM304.159 1383.4C305.234 1383.4 306.118 1383.78 306.811 1384.54C307.505 1385.27 307.851 1386.24 307.851 1387.45C307.851 1389.6 307.279 1391.54 306.135 1393.28C305.026 1395.04 303.83 1396.45 302.547 1397.49L301.403 1396.03C301.993 1395.27 302.513 1394.45 302.963 1393.59C303.414 1392.76 303.726 1391.77 303.899 1390.62C302.929 1390.55 302.131 1390.17 301.507 1389.48C300.883 1388.79 300.571 1387.95 300.571 1386.98C300.571 1385.98 300.918 1385.13 301.611 1384.44C302.305 1383.74 303.154 1383.4 304.159 1383.4ZM330.155 1371.07C331.888 1371.77 333.327 1372.86 334.471 1374.35C335.615 1375.8 336.187 1377.69 336.187 1380.02C336.187 1381.89 335.667 1383.64 334.627 1385.27C333.587 1386.9 332.113 1388.2 330.207 1389.17C328.335 1390.14 326.168 1390.62 323.707 1390.62C321.211 1390.62 319.009 1390.14 317.103 1389.17C315.231 1388.2 313.757 1386.91 312.683 1385.32C311.643 1383.69 311.019 1381.92 310.811 1380.02H316.843C317.016 1381.3 317.709 1382.46 318.923 1383.5C320.136 1384.54 321.713 1385.06 323.655 1385.06C325.665 1385.06 327.243 1384.56 328.387 1383.55C329.565 1382.51 330.155 1381.18 330.155 1379.55C330.155 1377.88 329.565 1376.55 328.387 1375.54C327.208 1374.5 325.561 1373.98 323.447 1373.98H320.847V1368.94H323.187C325.093 1368.94 326.584 1368.47 327.659 1367.54C328.768 1366.57 329.323 1365.32 329.323 1363.79C329.323 1362.27 328.785 1361.02 327.711 1360.05C326.671 1359.04 325.267 1358.54 323.499 1358.54C321.765 1358.54 320.344 1359.03 319.235 1360C318.125 1360.93 317.501 1362.06 317.363 1363.38H311.331C311.469 1361.54 312.059 1359.82 313.099 1358.23C314.173 1356.63 315.612 1355.37 317.415 1354.43C319.217 1353.46 321.228 1352.98 323.447 1352.98C325.769 1352.98 327.832 1353.46 329.635 1354.43C331.437 1355.37 332.841 1356.63 333.847 1358.23C334.852 1359.79 335.355 1361.5 335.355 1363.38C335.355 1365.11 334.869 1366.62 333.899 1367.9C332.928 1369.18 331.68 1370.24 330.155 1371.07ZM358.541 1371.07C360.275 1371.77 361.713 1372.86 362.857 1374.35C364.001 1375.8 364.573 1377.69 364.573 1380.02C364.573 1381.89 364.053 1383.64 363.013 1385.27C361.973 1386.9 360.5 1388.2 358.593 1389.17C356.721 1390.14 354.555 1390.62 352.093 1390.62C349.597 1390.62 347.396 1390.14 345.489 1389.17C343.617 1388.2 342.144 1386.91 341.069 1385.32C340.029 1383.69 339.405 1381.92 339.197 1380.02H345.229C345.403 1381.3 346.096 1382.46 347.309 1383.5C348.523 1384.54 350.1 1385.06 352.041 1385.06C354.052 1385.06 355.629 1384.56 356.773 1383.55C357.952 1382.51 358.541 1381.18 358.541 1379.55C358.541 1377.88 357.952 1376.55 356.773 1375.54C355.595 1374.5 353.948 1373.98 351.833 1373.98H349.233V1368.94H351.573C353.48 1368.94 354.971 1368.47 356.045 1367.54C357.155 1366.57 357.709 1365.32 357.709 1363.79C357.709 1362.27 357.172 1361.02 356.097 1360.05C355.057 1359.04 353.653 1358.54 351.885 1358.54C350.152 1358.54 348.731 1359.03 347.621 1360C346.512 1360.93 345.888 1362.06 345.749 1363.38H339.717C339.856 1361.54 340.445 1359.82 341.485 1358.23C342.56 1356.63 343.999 1355.37 345.801 1354.43C347.604 1353.46 349.615 1352.98 351.833 1352.98C354.156 1352.98 356.219 1353.46 358.021 1354.43C359.824 1355.37 361.228 1356.63 362.233 1358.23C363.239 1359.79 363.741 1361.5 363.741 1363.38C363.741 1365.11 363.256 1366.62 362.285 1367.9C361.315 1369.18 360.067 1370.24 358.541 1371.07ZM366.673 1359.37V1353.6H390.385V1358.33L376.917 1390H370.469L383.573 1359.37H366.673ZM392.215 1390.62C391.175 1390.62 390.308 1390.28 389.615 1389.58C388.922 1388.86 388.575 1387.99 388.575 1386.98C388.575 1385.98 388.922 1385.13 389.615 1384.44C390.308 1383.74 391.175 1383.4 392.215 1383.4C393.255 1383.4 394.122 1383.74 394.815 1384.44C395.508 1385.13 395.855 1385.98 395.855 1386.98C395.855 1387.99 395.508 1388.86 394.815 1389.58C394.122 1390.28 393.255 1390.62 392.215 1390.62ZM413.219 1365.25C415.576 1365.25 417.691 1365.8 419.563 1366.91C421.469 1368.02 422.96 1369.55 424.035 1371.49C425.144 1373.39 425.699 1375.54 425.699 1377.94C425.699 1380.26 425.127 1382.39 423.983 1384.33C422.873 1386.27 421.331 1387.82 419.355 1388.96C417.379 1390.07 415.16 1390.62 412.699 1390.62C410.237 1390.62 408.019 1390.07 406.043 1388.96C404.067 1387.82 402.507 1386.27 401.363 1384.33C400.253 1382.39 399.699 1380.26 399.699 1377.94C399.699 1376.06 400.045 1374.33 400.739 1372.74C401.467 1371.11 402.385 1369.46 403.495 1367.8L413.011 1353.6H419.459L411.451 1365.46C412.075 1365.32 412.664 1365.25 413.219 1365.25ZM412.699 1385.06C414.675 1385.06 416.321 1384.4 417.639 1383.08C418.991 1381.73 419.667 1380 419.667 1377.88C419.667 1375.77 418.991 1374.05 417.639 1372.74C416.321 1371.38 414.675 1370.71 412.699 1370.71C410.688 1370.71 409.024 1371.38 407.707 1372.74C406.389 1374.05 405.731 1375.77 405.731 1377.88C405.731 1380 406.389 1381.73 407.707 1383.08C409.024 1384.4 410.688 1385.06 412.699 1385.06ZM441.336 1352.98C443.797 1352.98 446.016 1353.55 447.992 1354.69C449.968 1355.8 451.51 1357.33 452.62 1359.27C453.764 1361.21 454.336 1363.34 454.336 1365.66C454.336 1367.54 453.972 1369.29 453.244 1370.92C452.516 1372.55 451.597 1374.17 450.488 1375.8L441.024 1390H434.576L442.584 1378.14C441.96 1378.28 441.37 1378.35 440.816 1378.35C438.458 1378.35 436.326 1377.8 434.42 1376.69C432.548 1375.58 431.057 1374.07 429.948 1372.16C428.873 1370.22 428.336 1368.06 428.336 1365.66C428.336 1363.34 428.89 1361.21 430 1359.27C431.144 1357.33 432.704 1355.8 434.68 1354.69C436.656 1353.55 438.874 1352.98 441.336 1352.98ZM441.336 1372.89C443.346 1372.89 445.01 1372.23 446.328 1370.92C447.645 1369.56 448.304 1367.83 448.304 1365.72C448.304 1363.6 447.645 1361.89 446.328 1360.57C445.01 1359.22 443.346 1358.54 441.336 1358.54C439.36 1358.54 437.696 1359.22 436.344 1360.57C435.026 1361.89 434.368 1363.6 434.368 1365.72C434.368 1367.83 435.026 1369.56 436.344 1370.92C437.696 1372.23 439.36 1372.89 441.336 1372.89Z" fill="white" fill-opacity="0.5"/>
<path d="M132.183 1414.12C173.778 1414.12 207.241 1380.65 207.241 1339.06C207.241 1297.46 173.778 1264 132.183 1264C90.5881 1264 57.125 1297.46 57.125 1339.06C57.125 1380.65 90.5881 1414.12 132.183 1414.12Z" fill="#FFFCFB"/>
<path d="M206.741 1339.06C206.741 1380.38 173.502 1413.62 132.183 1413.62C90.8642 1413.62 57.625 1380.38 57.625 1339.06C57.625 1297.74 90.8642 1264.5 132.183 1264.5C173.502 1264.5 206.741 1297.74 206.741 1339.06Z" stroke="url(#paint3_linear_5295_14688)" stroke-opacity="0.39"/>
<mask id="mask1_5295_14688" style="mask-type:alpha" maskUnits="userSpaceOnUse" x="57" y="1264" width="151" height="151">
<path d="M132.175 1414.12C173.77 1414.12 207.233 1380.65 207.233 1339.06C207.233 1297.46 173.77 1264 132.175 1264C90.5803 1264 57.1172 1297.46 57.1172 1339.06C57.1172 1380.65 90.5803 1414.12 132.175 1414.12Z" fill="#2775CA"/>
</mask>
<g mask="url(#mask1_5295_14688)">
<g filter="url(#filter5_f_5295_14688)">
<path d="M176.152 1279.74C93.7285 1269.85 75.3205 1347.6 76.4195 1387.72C61.8581 1367.11 42.4613 1317.66 81.3653 1284.69C120.269 1251.72 160.767 1267.65 176.152 1279.74Z" fill="white" fill-opacity="0.6"/>
</g>
</g>
<path d="M100.759 1358.18C101.321 1357.62 102.094 1357.29 102.914 1357.29H177.241C178.599 1357.29 179.278 1358.93 178.318 1359.89L163.635 1374.58C163.073 1375.14 162.3 1375.47 161.481 1375.47H87.1538C85.7956 1375.47 85.1165 1373.83 86.0766 1372.87L100.759 1358.18Z" fill="url(#paint4_linear_5295_14688)"/>
<path d="M100.759 1303.36C101.345 1302.8 102.118 1302.47 102.914 1302.47H177.241C178.599 1302.47 179.278 1304.11 178.318 1305.07L163.635 1319.76C163.073 1320.32 162.3 1320.65 161.481 1320.65H87.1538C85.7956 1320.65 85.1165 1319.01 86.0766 1318.05L100.759 1303.36Z" fill="url(#paint5_linear_5295_14688)"/>
<path d="M163.635 1330.6C163.073 1330.04 162.3 1329.71 161.481 1329.71H87.1538C85.7956 1329.71 85.1165 1331.35 86.0766 1332.31L100.759 1346.99C101.321 1347.55 102.094 1347.88 102.914 1347.88H177.241C178.599 1347.88 179.278 1346.24 178.318 1345.28L163.635 1330.6Z" fill="url(#paint6_linear_5295_14688)"/>
<circle opacity="0.2" cx="136.5" cy="1587.5" r="79.5" fill="#443E52"/>
<circle opacity="0.2" cx="136.5" cy="1841.5" r="79.5" fill="#443E52"/>
<g opacity="0.2" filter="url(#filter6_d_5295_14688)">
<rect x="248" y="1537" width="86" height="41" rx="15" fill="#443E52"/>
<rect x="248.5" y="1537.5" width="85" height="40" rx="14.5" stroke="url(#paint7_linear_5295_14688)" stroke-opacity="0.1"/>
</g>
<g opacity="0.2" filter="url(#filter7_d_5295_14688)">
<rect x="248" y="1791" width="86" height="41" rx="15" fill="#443E52"/>
<rect x="248.5" y="1791.5" width="85" height="40" rx="14.5" stroke="url(#paint8_linear_5295_14688)" stroke-opacity="0.1"/>
</g>
<g opacity="0.2" filter="url(#filter8_d_5295_14688)">
<rect x="248" y="1594" width="158" height="41" rx="15" fill="#443E52"/>
<rect x="248.5" y="1594.5" width="157" height="40" rx="14.5" stroke="url(#paint9_linear_5295_14688)" stroke-opacity="0.1"/>
</g>
<g opacity="0.2" filter="url(#filter9_d_5295_14688)">
<rect x="248" y="1848" width="158" height="41" rx="15" fill="#443E52"/>
<rect x="248.5" y="1848.5" width="157" height="40" rx="14.5" stroke="url(#paint10_linear_5295_14688)" stroke-opacity="0.1"/>
</g>
<g opacity="0.2" filter="url(#filter10_d_5295_14688)">
<rect x="881" y="1530" width="185" height="64" rx="15" fill="#443E52"/>
<rect x="881.5" y="1530.5" width="184" height="63" rx="14.5" stroke="url(#paint11_linear_5295_14688)" stroke-opacity="0.1"/>
</g>
<g opacity="0.2" filter="url(#filter11_d_5295_14688)">
<rect x="881" y="1791" width="185" height="64" rx="15" fill="#443E52"/>
<rect x="881.5" y="1791.5" width="184" height="63" rx="14.5" stroke="url(#paint12_linear_5295_14688)" stroke-opacity="0.1"/>
</g>
<rect x="42" y="1214" width="1030" height="2" fill="url(#paint13_linear_5295_14688)"/>
<rect x="42" y="1462" width="1030" height="2" fill="url(#paint14_linear_5295_14688)"/>
<rect x="42" y="1716" width="1030" height="2" fill="url(#paint15_linear_5295_14688)"/>
<path d="M265.184 1327.62C262.549 1327.62 260.244 1327.12 258.268 1326.12C256.292 1325.11 254.749 1323.72 253.64 1321.96C252.565 1320.15 251.976 1318.11 251.872 1315.82H257.904C258.077 1317.76 258.788 1319.3 260.036 1320.45C261.319 1321.59 263.052 1322.16 265.236 1322.16C267.316 1322.16 268.911 1321.71 270.02 1320.81C271.164 1319.91 271.736 1318.77 271.736 1317.38C271.736 1316.27 271.389 1315.35 270.696 1314.62C270.037 1313.86 269.188 1313.25 268.148 1312.8C267.108 1312.35 265.687 1311.82 263.884 1311.19C261.527 1310.39 259.603 1309.63 258.112 1308.9C256.621 1308.14 255.339 1307.07 254.264 1305.68C253.224 1304.26 252.704 1302.42 252.704 1300.17C252.704 1298.23 253.189 1296.49 254.16 1294.97C255.131 1293.41 256.517 1292.19 258.32 1291.33C260.157 1290.43 262.307 1289.98 264.768 1289.98C267.195 1289.98 269.327 1290.48 271.164 1291.48C273.036 1292.49 274.492 1293.88 275.532 1295.64C276.572 1297.38 277.144 1299.32 277.248 1301.47H271.216C271.112 1299.67 270.488 1298.21 269.344 1297.1C268.2 1295.99 266.675 1295.44 264.768 1295.44C262.861 1295.44 261.371 1295.89 260.296 1296.79C259.256 1297.69 258.736 1298.85 258.736 1300.27C258.736 1301.35 259.065 1302.25 259.724 1302.98C260.417 1303.67 261.267 1304.24 262.272 1304.69C263.312 1305.14 264.716 1305.65 266.484 1306.2C268.911 1307 270.852 1307.76 272.308 1308.49C273.799 1309.18 275.081 1310.24 276.156 1311.66C277.231 1313.08 277.768 1314.94 277.768 1317.22C277.768 1319.23 277.265 1321.02 276.26 1322.58C275.289 1324.14 273.851 1325.37 271.944 1326.27C270.072 1327.17 267.819 1327.62 265.184 1327.62ZM299.358 1327.62C296.238 1327.62 293.326 1326.79 290.622 1325.13C287.953 1323.46 285.821 1321.19 284.226 1318.32C282.631 1315.44 281.834 1312.27 281.834 1308.8C281.834 1305.33 282.631 1302.16 284.226 1299.28C285.821 1296.41 287.953 1294.14 290.622 1292.47C293.326 1290.81 296.238 1289.98 299.358 1289.98C302.478 1289.98 305.373 1290.81 308.042 1292.47C310.746 1294.14 312.895 1296.41 314.49 1299.28C316.085 1302.16 316.882 1305.33 316.882 1308.8C316.882 1312.27 316.085 1315.44 314.49 1318.32C312.895 1321.19 310.746 1323.46 308.042 1325.13C305.373 1326.79 302.478 1327.62 299.358 1327.62ZM299.358 1321.85C301.403 1321.85 303.293 1321.3 305.026 1320.19C306.794 1319.04 308.198 1317.48 309.238 1315.51C310.313 1313.53 310.85 1311.3 310.85 1308.8C310.85 1306.3 310.313 1304.07 309.238 1302.09C308.198 1300.12 306.794 1298.57 305.026 1297.46C303.293 1296.32 301.403 1295.75 299.358 1295.75C297.313 1295.75 295.406 1296.32 293.638 1297.46C291.905 1298.57 290.501 1300.12 289.426 1302.09C288.386 1304.07 287.866 1306.3 287.866 1308.8C287.866 1311.3 288.386 1313.53 289.426 1315.51C290.501 1317.48 291.905 1319.04 293.638 1320.19C295.406 1321.3 297.313 1321.85 299.358 1321.85ZM346.109 1327H322.813V1290.6H328.845V1321.23H346.109V1327Z" fill="white"/>
<g filter="url(#filter12_d_5295_14688)">
<path d="M868.109 1397.33L897.589 1367.84M897.589 1367.84L879.475 1367.84M897.589 1367.84L897.588 1385.65" stroke="#AFD803" stroke-width="5" stroke-linecap="round" stroke-linejoin="round"/>
</g>
<path d="M939.521 1388.35C939.521 1390.74 938.739 1392.77 937.175 1394.42C935.642 1396.05 933.464 1397.05 930.643 1397.41V1401.83H925.675V1397.32C922.946 1396.83 920.784 1395.67 919.189 1393.83C917.594 1391.99 916.736 1389.75 916.613 1387.11H921.949C922.102 1388.83 922.731 1390.19 923.835 1391.2C924.97 1392.22 926.503 1392.72 928.435 1392.72C930.275 1392.72 931.686 1392.32 932.667 1391.53C933.679 1390.73 934.185 1389.72 934.185 1388.49C934.185 1387.51 933.878 1386.7 933.265 1386.05C932.682 1385.38 931.931 1384.84 931.011 1384.44C930.091 1384.04 928.834 1383.57 927.239 1383.02C925.154 1382.31 923.452 1381.64 922.133 1380.99C920.814 1380.32 919.68 1379.37 918.729 1378.14C917.809 1376.88 917.349 1375.26 917.349 1373.26C917.349 1370.99 918.085 1369.06 919.557 1367.47C921.029 1365.84 923.068 1364.83 925.675 1364.43V1359.97H930.643V1364.52C933.127 1365.01 935.12 1366.16 936.623 1367.97C938.126 1369.78 938.938 1371.93 939.061 1374.41H933.725C933.633 1372.82 933.081 1371.53 932.069 1370.55C931.057 1369.57 929.708 1369.08 928.021 1369.08C926.334 1369.08 925.016 1369.48 924.065 1370.27C923.145 1371.07 922.685 1372.1 922.685 1373.36C922.685 1374.31 922.976 1375.1 923.559 1375.75C924.172 1376.36 924.924 1376.87 925.813 1377.27C926.733 1377.66 927.975 1378.11 929.539 1378.6C931.686 1379.31 933.403 1379.98 934.691 1380.62C936.01 1381.24 937.144 1382.17 938.095 1383.43C939.046 1384.69 939.521 1386.33 939.521 1388.35ZM961.978 1385.78H965.382V1390.7H961.978V1397H956.78V1390.7H942.29V1386.14L955.722 1364.8H961.978V1385.78ZM956.78 1385.78V1371.98L948.086 1385.78H956.78ZM975.6 1391.89H988.848V1397H967.734V1392.91L978.912 1381.5C980.66 1379.75 981.871 1378.37 982.546 1377.36C983.251 1376.32 983.604 1375.15 983.604 1373.86C983.604 1372.48 983.098 1371.36 982.086 1370.5C981.105 1369.61 979.801 1369.17 978.176 1369.17C976.52 1369.17 975.171 1369.68 974.128 1370.69C973.085 1371.67 972.549 1372.96 972.518 1374.55H967.32C967.351 1372.65 967.826 1370.92 968.746 1369.35C969.697 1367.76 970.985 1366.52 972.61 1365.63C974.266 1364.71 976.121 1364.25 978.176 1364.25C980.292 1364.25 982.163 1364.66 983.788 1365.49C985.444 1366.32 986.717 1367.45 987.606 1368.89C988.495 1370.34 988.94 1371.93 988.94 1373.68C988.94 1375.67 988.419 1377.48 987.376 1379.11C986.364 1380.73 984.831 1382.59 982.776 1384.67L975.6 1391.89ZM995.796 1397.55C994.876 1397.55 994.109 1397.25 993.496 1396.63C992.883 1395.99 992.576 1395.22 992.576 1394.33C992.576 1393.44 992.883 1392.69 993.496 1392.08C994.109 1391.46 994.876 1391.16 995.796 1391.16C996.716 1391.16 997.483 1391.46 998.096 1392.08C998.709 1392.69 999.016 1393.44 999.016 1394.33C999.016 1395.22 998.709 1395.99 998.096 1396.63C997.483 1397.25 996.716 1397.55 995.796 1397.55ZM1014.74 1397.55C1012.47 1397.55 1010.39 1396.92 1008.49 1395.67C1006.62 1394.38 1005.13 1392.48 1004.03 1389.96C1002.92 1387.45 1002.37 1384.43 1002.37 1380.9C1002.37 1377.37 1002.92 1374.35 1004.03 1371.84C1005.13 1369.32 1006.62 1367.44 1008.49 1366.18C1010.39 1364.89 1012.47 1364.25 1014.74 1364.25C1017.01 1364.25 1019.08 1364.89 1020.95 1366.18C1022.86 1367.44 1024.36 1369.32 1025.46 1371.84C1026.57 1374.35 1027.12 1377.37 1027.12 1380.9C1027.12 1384.43 1026.57 1387.45 1025.46 1389.96C1024.36 1392.48 1022.86 1394.38 1020.95 1395.67C1019.08 1396.92 1017.01 1397.55 1014.74 1397.55ZM1014.74 1392.45C1016.03 1392.45 1017.2 1392.05 1018.24 1391.25C1019.31 1390.42 1020.17 1389.15 1020.82 1387.43C1021.46 1385.68 1021.78 1383.51 1021.78 1380.9C1021.78 1378.29 1021.46 1376.13 1020.82 1374.41C1020.17 1372.67 1019.31 1371.39 1018.24 1370.6C1017.2 1369.77 1016.03 1369.35 1014.74 1369.35C1013.46 1369.35 1012.28 1369.77 1011.2 1370.6C1010.16 1371.39 1009.32 1372.67 1008.67 1374.41C1008.03 1376.13 1007.71 1378.29 1007.71 1380.9C1007.71 1383.51 1008.03 1385.68 1008.67 1387.43C1009.32 1389.15 1010.16 1390.42 1011.2 1391.25C1012.28 1392.05 1013.46 1392.45 1014.74 1392.45ZM1042.91 1397.55C1040.64 1397.55 1038.56 1396.92 1036.65 1395.67C1034.78 1394.38 1033.3 1392.48 1032.19 1389.96C1031.09 1387.45 1030.54 1384.43 1030.54 1380.9C1030.54 1377.37 1031.09 1374.35 1032.19 1371.84C1033.3 1369.32 1034.78 1367.44 1036.65 1366.18C1038.56 1364.89 1040.64 1364.25 1042.91 1364.25C1045.18 1364.25 1047.25 1364.89 1049.12 1366.18C1051.02 1367.44 1052.52 1369.32 1053.63 1371.84C1054.73 1374.35 1055.28 1377.37 1055.28 1380.9C1055.28 1384.43 1054.73 1387.45 1053.63 1389.96C1052.52 1392.48 1051.02 1394.38 1049.12 1395.67C1047.25 1396.92 1045.18 1397.55 1042.91 1397.55ZM1042.91 1392.45C1044.2 1392.45 1045.36 1392.05 1046.41 1391.25C1047.48 1390.42 1048.34 1389.15 1048.98 1387.43C1049.63 1385.68 1049.95 1383.51 1049.95 1380.9C1049.95 1378.29 1049.63 1376.13 1048.98 1374.41C1048.34 1372.67 1047.48 1371.39 1046.41 1370.6C1045.36 1369.77 1044.2 1369.35 1042.91 1369.35C1041.62 1369.35 1040.44 1369.77 1039.37 1370.6C1038.33 1371.39 1037.48 1372.67 1036.84 1374.41C1036.19 1376.13 1035.87 1378.29 1035.87 1380.9C1035.87 1383.51 1036.19 1385.68 1036.84 1387.43C1037.48 1389.15 1038.33 1390.42 1039.37 1391.25C1040.44 1392.05 1041.62 1392.45 1042.91 1392.45Z" fill="#AFD803"/>
<path d="M843.106 1325.34C843.106 1328.57 842.052 1331.3 839.944 1333.53C837.877 1335.72 834.943 1337.06 831.14 1337.56V1343.51H824.444V1337.43C820.765 1336.77 817.851 1335.2 815.702 1332.72C813.553 1330.24 812.395 1327.22 812.23 1323.67H819.422C819.629 1325.98 820.476 1327.82 821.964 1329.19C823.493 1330.55 825.56 1331.23 828.164 1331.23C830.644 1331.23 832.545 1330.7 833.868 1329.62C835.232 1328.55 835.914 1327.18 835.914 1325.53C835.914 1324.21 835.501 1323.11 834.674 1322.24C833.889 1321.33 832.876 1320.61 831.636 1320.07C830.396 1319.54 828.701 1318.9 826.552 1318.15C823.741 1317.2 821.447 1316.29 819.67 1315.42C817.893 1314.51 816.363 1313.23 815.082 1311.58C813.842 1309.89 813.222 1307.69 813.222 1305.01C813.222 1301.95 814.214 1299.35 816.198 1297.2C818.182 1295.01 820.931 1293.64 824.444 1293.1V1287.09H831.14V1293.23C834.488 1293.89 837.175 1295.44 839.2 1297.88C841.225 1300.32 842.321 1303.21 842.486 1306.56H835.294C835.17 1304.41 834.426 1302.67 833.062 1301.35C831.698 1300.03 829.879 1299.37 827.606 1299.37C825.333 1299.37 823.555 1299.9 822.274 1300.98C821.034 1302.05 820.414 1303.44 820.414 1305.13C820.414 1306.41 820.807 1307.49 821.592 1308.36C822.419 1309.18 823.431 1309.86 824.63 1310.4C825.87 1310.94 827.544 1311.54 829.652 1312.2C832.545 1313.15 834.86 1314.06 836.596 1314.93C838.373 1315.75 839.903 1317.02 841.184 1318.71C842.465 1320.4 843.106 1322.62 843.106 1325.34ZM846.714 1301.41L857.812 1293.6H863.268V1337H856.076V1302.65L850.062 1306.87L846.714 1301.41ZM874.573 1329.13C875.854 1329.13 876.908 1329.58 877.735 1330.49C878.561 1331.36 878.975 1332.52 878.975 1333.96C878.975 1336.52 878.293 1338.84 876.929 1340.91C875.606 1343.01 874.18 1344.69 872.651 1345.93L871.287 1344.19C871.989 1343.28 872.609 1342.31 873.147 1341.28C873.684 1340.29 874.056 1339.11 874.263 1337.74C873.105 1337.66 872.155 1337.21 871.411 1336.38C870.667 1335.55 870.295 1334.56 870.295 1333.4C870.295 1332.21 870.708 1331.19 871.535 1330.37C872.361 1329.54 873.374 1329.13 874.573 1329.13ZM905.567 1314.43C907.634 1315.26 909.349 1316.56 910.713 1318.34C912.077 1320.07 912.759 1322.33 912.759 1325.1C912.759 1327.33 912.139 1329.42 910.899 1331.36C909.659 1333.3 907.903 1334.85 905.629 1336.01C903.397 1337.17 900.814 1337.74 897.879 1337.74C894.903 1337.74 892.279 1337.17 890.005 1336.01C887.773 1334.85 886.017 1333.32 884.735 1331.42C883.495 1329.48 882.751 1327.37 882.503 1325.1H889.695C889.902 1326.63 890.729 1328.01 892.175 1329.25C893.622 1330.49 895.503 1331.11 897.817 1331.11C900.215 1331.11 902.095 1330.51 903.459 1329.31C904.865 1328.07 905.567 1326.48 905.567 1324.54C905.567 1322.55 904.865 1320.96 903.459 1319.76C902.054 1318.52 900.091 1317.9 897.569 1317.9H894.469V1311.89H897.259C899.533 1311.89 901.31 1311.33 902.591 1310.22C903.914 1309.06 904.575 1307.57 904.575 1305.75C904.575 1303.93 903.935 1302.45 902.653 1301.29C901.413 1300.09 899.739 1299.49 897.631 1299.49C895.565 1299.49 893.87 1300.07 892.547 1301.23C891.225 1302.34 890.481 1303.69 890.315 1305.26H883.123C883.289 1303.07 883.991 1301.02 885.231 1299.12C886.513 1297.22 888.228 1295.71 890.377 1294.59C892.527 1293.43 894.924 1292.86 897.569 1292.86C900.339 1292.86 902.798 1293.43 904.947 1294.59C907.097 1295.71 908.771 1297.22 909.969 1299.12C911.168 1300.98 911.767 1303.02 911.767 1305.26C911.767 1307.32 911.189 1309.12 910.031 1310.65C908.874 1312.18 907.386 1313.44 905.567 1314.43ZM939.413 1314.43C941.48 1315.26 943.195 1316.56 944.559 1318.34C945.923 1320.07 946.605 1322.33 946.605 1325.1C946.605 1327.33 945.985 1329.42 944.745 1331.36C943.505 1333.3 941.748 1334.85 939.475 1336.01C937.243 1337.17 934.66 1337.74 931.725 1337.74C928.749 1337.74 926.124 1337.17 923.851 1336.01C921.619 1334.85 919.862 1333.32 918.581 1331.42C917.341 1329.48 916.597 1327.37 916.349 1325.1H923.541C923.748 1326.63 924.574 1328.01 926.021 1329.25C927.468 1330.49 929.348 1331.11 931.663 1331.11C934.06 1331.11 935.941 1330.51 937.305 1329.31C938.71 1328.07 939.413 1326.48 939.413 1324.54C939.413 1322.55 938.71 1320.96 937.305 1319.76C935.9 1318.52 933.936 1317.9 931.415 1317.9H928.315V1311.89H931.105C933.378 1311.89 935.156 1311.33 936.437 1310.22C937.76 1309.06 938.421 1307.57 938.421 1305.75C938.421 1303.93 937.78 1302.45 936.499 1301.29C935.259 1300.09 933.585 1299.49 931.477 1299.49C929.41 1299.49 927.716 1300.07 926.393 1301.23C925.07 1302.34 924.326 1303.69 924.161 1305.26H916.969C917.134 1303.07 917.837 1301.02 919.077 1299.12C920.358 1297.22 922.074 1295.71 924.223 1294.59C926.372 1293.43 928.77 1292.86 931.415 1292.86C934.184 1292.86 936.644 1293.43 938.793 1294.59C940.942 1295.71 942.616 1297.22 943.815 1299.12C945.014 1300.98 945.613 1303.02 945.613 1305.26C945.613 1307.32 945.034 1309.12 943.877 1310.65C942.72 1312.18 941.232 1313.44 939.413 1314.43ZM949.108 1300.48V1293.6H977.38V1299.24L961.322 1337H953.634L969.258 1300.48H949.108ZM979.562 1337.74C978.322 1337.74 977.289 1337.33 976.462 1336.5C975.636 1335.64 975.222 1334.6 975.222 1333.4C975.222 1332.21 975.636 1331.19 976.462 1330.37C977.289 1329.54 978.322 1329.13 979.562 1329.13C980.802 1329.13 981.836 1329.54 982.662 1330.37C983.489 1331.19 983.902 1332.21 983.902 1333.4C983.902 1334.6 983.489 1335.64 982.662 1336.5C981.836 1337.33 980.802 1337.74 979.562 1337.74ZM1004.6 1307.49C1007.42 1307.49 1009.94 1308.15 1012.17 1309.47C1014.44 1310.79 1016.22 1312.61 1017.5 1314.93C1018.82 1317.2 1019.48 1319.76 1019.48 1322.62C1019.48 1325.39 1018.8 1327.93 1017.44 1330.24C1016.12 1332.56 1014.28 1334.4 1011.92 1335.76C1009.56 1337.08 1006.92 1337.74 1003.98 1337.74C1001.05 1337.74 998.405 1337.08 996.049 1335.76C993.693 1334.4 991.833 1332.56 990.469 1330.24C989.146 1327.93 988.485 1325.39 988.485 1322.62C988.485 1320.38 988.898 1318.32 989.725 1316.42C990.593 1314.47 991.688 1312.51 993.011 1310.53L1004.36 1293.6H1012.04L1002.5 1307.74C1003.24 1307.57 1003.94 1307.49 1004.6 1307.49ZM1003.98 1331.11C1006.34 1331.11 1008.3 1330.32 1009.87 1328.75C1011.49 1327.14 1012.29 1325.08 1012.29 1322.55C1012.29 1320.03 1011.49 1317.99 1009.87 1316.42C1008.3 1314.8 1006.34 1314 1003.98 1314C1001.59 1314 999.604 1314.8 998.033 1316.42C996.462 1317.99 995.677 1320.03 995.677 1322.55C995.677 1325.08 996.462 1327.14 998.033 1328.75C999.604 1330.32 1001.59 1331.11 1003.98 1331.11ZM1038.13 1292.86C1041.06 1292.86 1043.71 1293.54 1046.06 1294.9C1048.42 1296.22 1050.26 1298.04 1051.58 1300.36C1052.95 1302.67 1053.63 1305.21 1053.63 1307.98C1053.63 1310.22 1053.19 1312.3 1052.33 1314.25C1051.46 1316.19 1050.36 1318.13 1049.04 1320.07L1037.76 1337H1030.07L1039.62 1322.86C1038.87 1323.03 1038.17 1323.11 1037.51 1323.11C1034.7 1323.11 1032.16 1322.45 1029.88 1321.13C1027.65 1319.81 1025.87 1318.01 1024.55 1315.73C1023.27 1313.42 1022.63 1310.84 1022.63 1307.98C1022.63 1305.21 1023.29 1302.67 1024.61 1300.36C1025.98 1298.04 1027.84 1296.22 1030.19 1294.9C1032.55 1293.54 1035.19 1292.86 1038.13 1292.86ZM1038.13 1316.6C1040.53 1316.6 1042.51 1315.82 1044.08 1314.25C1045.65 1312.63 1046.44 1310.57 1046.44 1308.05C1046.44 1305.52 1045.65 1303.48 1044.08 1301.91C1042.51 1300.3 1040.53 1299.49 1038.13 1299.49C1035.77 1299.49 1033.79 1300.3 1032.18 1301.91C1030.61 1303.48 1029.82 1305.52 1029.82 1308.05C1029.82 1310.57 1030.61 1312.63 1032.18 1314.25C1033.79 1315.82 1035.77 1316.6 1038.13 1316.6Z" fill="white"/>
<g filter="url(#filter13_d_5295_14688)">
<rect x="71.9043" y="65.6523" width="106.294" height="106.294" rx="53.1469" fill="#443E52"/>
<rect x="72.4043" y="66.1523" width="105.294" height="105.294" rx="52.6469" stroke="url(#paint16_linear_5295_14688)" stroke-opacity="0.1"/>
</g>
<g filter="url(#filter14_d_5295_14688)">
<rect x="233.5" y="238.5" width="701" height="701" rx="350.5" stroke="url(#paint17_linear_5295_14688)" stroke-opacity="0.1" stroke-width="41" shape-rendering="crispEdges"/>
</g>
<g filter="url(#filter15_d_5295_14688)">
<rect x="989.469" y="65.6523" width="106.294" height="106.294" rx="30" fill="#443E52"/>
<rect x="989.969" y="66.1523" width="105.294" height="105.294" rx="29.5" stroke="url(#paint18_linear_5295_14688)" stroke-opacity="0.1"/>
</g>
</g>
<defs>
<filter id="filter0_d_5295_14688" x="472" y="2241" width="224" height="224" filterUnits="userSpaceOnUse" color-interpolation-filters="sRGB">
<feFlood flood-opacity="0" result="BackgroundImageFix"/>
<feColorMatrix in="SourceAlpha" type="matrix" values="0 0 0 0 0 0 0 0 0 0 0 0 0 0 0 0 0 0 127 0" result="hardAlpha"/>
<feOffset dy="4"/>
<feGaussianBlur stdDeviation="17"/>
<feComposite in2="hardAlpha" operator="out"/>
<feColorMatrix type="matrix" values="0 0 0 0 0 0 0 0 0 0 0 0 0 0 0 0 0 0 0.18 0"/>
<feBlend mode="normal" in2="BackgroundImageFix" result="effect1_dropShadow_5295_14688"/>
<feBlend mode="normal" in="SourceGraphic" in2="effect1_dropShadow_5295_14688" result="shape"/>
</filter>
<filter id="filter1_d_5295_14688" x="468.609" y="668.344" width="48.4805" height="48.4844" filterUnits="userSpaceOnUse" color-interpolation-filters="sRGB">
<feFlood flood-opacity="0" result="BackgroundImageFix"/>
<feColorMatrix in="SourceAlpha" type="matrix" values="0 0 0 0 0 0 0 0 0 0 0 0 0 0 0 0 0 0 127 0" result="hardAlpha"/>
<feOffset dy="4"/>
<feGaussianBlur stdDeviation="3.5"/>
<feComposite in2="hardAlpha" operator="out"/>
<feColorMatrix type="matrix" values="0 0 0 0 0 0 0 0 0 0 0 0 0 0 0 0 0 0 0.05 0"/>
<feBlend mode="normal" in2="BackgroundImageFix" result="effect1_dropShadow_5295_14688"/>
<feBlend mode="normal" in="SourceGraphic" in2="effect1_dropShadow_5295_14688" result="shape"/>
</filter>
<filter id="filter2_d_5295_14688" x="16" y="1060" width="351" height="157" filterUnits="userSpaceOnUse" color-interpolation-filters="sRGB">
<feFlood flood-opacity="0" result="BackgroundImageFix"/>
<feColorMatrix in="SourceAlpha" type="matrix" values="0 0 0 0 0 0 0 0 0 0 0 0 0 0 0 0 0 0 127 0" result="hardAlpha"/>
<feOffset dy="4"/>
<feGaussianBlur stdDeviation="17"/>
<feComposite in2="hardAlpha" operator="out"/>
<feColorMatrix type="matrix" values="0 0 0 0 0 0 0 0 0 0 0 0 0 0 0 0 0 0 0.18 0"/>
<feBlend mode="normal" in2="BackgroundImageFix" result="effect1_dropShadow_5295_14688"/>
<feBlend mode="normal" in="SourceGraphic" in2="effect1_dropShadow_5295_14688" result="shape"/>
</filter>
<filter id="filter3_d_5295_14688" x="330" y="1060" width="351" height="157" filterUnits="userSpaceOnUse" color-interpolation-filters="sRGB">
<feFlood flood-opacity="0" result="BackgroundImageFix"/>
<feColorMatrix in="SourceAlpha" type="matrix" values="0 0 0 0 0 0 0 0 0 0 0 0 0 0 0 0 0 0 127 0" result="hardAlpha"/>
<feOffset dy="4"/>
<feGaussianBlur stdDeviation="17"/>
<feComposite in2="hardAlpha" operator="out"/>
<feColorMatrix type="matrix" values="0 0 0 0 0 0 0 0 0 0 0 0 0 0 0 0 0 0 0.18 0"/>
<feBlend mode="normal" in2="BackgroundImageFix" result="effect1_dropShadow_5295_14688"/>
<feBlend mode="normal" in="SourceGraphic" in2="effect1_dropShadow_5295_14688" result="shape"/>
</filter>
<filter id="filter4_d_5295_14688" x="635" y="1060" width="351" height="157" filterUnits="userSpaceOnUse" color-interpolation-filters="sRGB">
<feFlood flood-opacity="0" result="BackgroundImageFix"/>
<feColorMatrix in="SourceAlpha" type="matrix" values="0 0 0 0 0 0 0 0 0 0 0 0 0 0 0 0 0 0 127 0" result="hardAlpha"/>
<feOffset dy="4"/>
<feGaussianBlur stdDeviation="17"/>
<feComposite in2="hardAlpha" operator="out"/>
<feColorMatrix type="matrix" values="0 0 0 0 0 0 0 0 0 0 0 0 0 0 0 0 0 0 0.18 0"/>
<feBlend mode="normal" in2="BackgroundImageFix" result="effect1_dropShadow_5295_14688"/>
<feBlend mode="normal" in="SourceGraphic" in2="effect1_dropShadow_5295_14688" result="shape"/>
</filter>
<filter id="filter5_f_5295_14688" x="14.4941" y="1221.08" width="205.658" height="210.641" filterUnits="userSpaceOnUse" color-interpolation-filters="sRGB">
<feFlood flood-opacity="0" result="BackgroundImageFix"/>
<feBlend mode="normal" in="SourceGraphic" in2="BackgroundImageFix" result="shape"/>
<feGaussianBlur stdDeviation="22" result="effect1_foregroundBlur_5295_14688"/>
</filter>
<filter id="filter6_d_5295_14688" x="214" y="1507" width="154" height="109" filterUnits="userSpaceOnUse" color-interpolation-filters="sRGB">
<feFlood flood-opacity="0" result="BackgroundImageFix"/>
<feColorMatrix in="SourceAlpha" type="matrix" values="0 0 0 0 0 0 0 0 0 0 0 0 0 0 0 0 0 0 127 0" result="hardAlpha"/>
<feOffset dy="4"/>
<feGaussianBlur stdDeviation="17"/>
<feComposite in2="hardAlpha" operator="out"/>
<feColorMatrix type="matrix" values="0 0 0 0 0 0 0 0 0 0 0 0 0 0 0 0 0 0 0.18 0"/>
<feBlend mode="normal" in2="BackgroundImageFix" result="effect1_dropShadow_5295_14688"/>
<feBlend mode="normal" in="SourceGraphic" in2="effect1_dropShadow_5295_14688" result="shape"/>
</filter>
<filter id="filter7_d_5295_14688" x="214" y="1761" width="154" height="109" filterUnits="userSpaceOnUse" color-interpolation-filters="sRGB">
<feFlood flood-opacity="0" result="BackgroundImageFix"/>
<feColorMatrix in="SourceAlpha" type="matrix" values="0 0 0 0 0 0 0 0 0 0 0 0 0 0 0 0 0 0 127 0" result="hardAlpha"/>
<feOffset dy="4"/>
<feGaussianBlur stdDeviation="17"/>
<feComposite in2="hardAlpha" operator="out"/>
<feColorMatrix type="matrix" values="0 0 0 0 0 0 0 0 0 0 0 0 0 0 0 0 0 0 0.18 0"/>
<feBlend mode="normal" in2="BackgroundImageFix" result="effect1_dropShadow_5295_14688"/>
<feBlend mode="normal" in="SourceGraphic" in2="effect1_dropShadow_5295_14688" result="shape"/>
</filter>
<filter id="filter8_d_5295_14688" x="214" y="1564" width="226" height="109" filterUnits="userSpaceOnUse" color-interpolation-filters="sRGB">
<feFlood flood-opacity="0" result="BackgroundImageFix"/>
<feColorMatrix in="SourceAlpha" type="matrix" values="0 0 0 0 0 0 0 0 0 0 0 0 0 0 0 0 0 0 127 0" result="hardAlpha"/>
<feOffset dy="4"/>
<feGaussianBlur stdDeviation="17"/>
<feComposite in2="hardAlpha" operator="out"/>
<feColorMatrix type="matrix" values="0 0 0 0 0 0 0 0 0 0 0 0 0 0 0 0 0 0 0.18 0"/>
<feBlend mode="normal" in2="BackgroundImageFix" result="effect1_dropShadow_5295_14688"/>
<feBlend mode="normal" in="SourceGraphic" in2="effect1_dropShadow_5295_14688" result="shape"/>
</filter>
<filter id="filter9_d_5295_14688" x="214" y="1818" width="226" height="109" filterUnits="userSpaceOnUse" color-interpolation-filters="sRGB">
<feFlood flood-opacity="0" result="BackgroundImageFix"/>
<feColorMatrix in="SourceAlpha" type="matrix" values="0 0 0 0 0 0 0 0 0 0 0 0 0 0 0 0 0 0 127 0" result="hardAlpha"/>
<feOffset dy="4"/>
<feGaussianBlur stdDeviation="17"/>
<feComposite in2="hardAlpha" operator="out"/>
<feColorMatrix type="matrix" values="0 0 0 0 0 0 0 0 0 0 0 0 0 0 0 0 0 0 0.18 0"/>
<feBlend mode="normal" in2="BackgroundImageFix" result="effect1_dropShadow_5295_14688"/>
<feBlend mode="normal" in="SourceGraphic" in2="effect1_dropShadow_5295_14688" result="shape"/>
</filter>
<filter id="filter10_d_5295_14688" x="847" y="1500" width="253" height="132" filterUnits="userSpaceOnUse" color-interpolation-filters="sRGB">
<feFlood flood-opacity="0" result="BackgroundImageFix"/>
<feColorMatrix in="SourceAlpha" type="matrix" values="0 0 0 0 0 0 0 0 0 0 0 0 0 0 0 0 0 0 127 0" result="hardAlpha"/>
<feOffset dy="4"/>
<feGaussianBlur stdDeviation="17"/>
<feComposite in2="hardAlpha" operator="out"/>
<feColorMatrix type="matrix" values="0 0 0 0 0 0 0 0 0 0 0 0 0 0 0 0 0 0 0.18 0"/>
<feBlend mode="normal" in2="BackgroundImageFix" result="effect1_dropShadow_5295_14688"/>
<feBlend mode="normal" in="SourceGraphic" in2="effect1_dropShadow_5295_14688" result="shape"/>
</filter>
<filter id="filter11_d_5295_14688" x="847" y="1761" width="253" height="132" filterUnits="userSpaceOnUse" color-interpolation-filters="sRGB">
<feFlood flood-opacity="0" result="BackgroundImageFix"/>
<feColorMatrix in="SourceAlpha" type="matrix" values="0 0 0 0 0 0 0 0 0 0 0 0 0 0 0 0 0 0 127 0" result="hardAlpha"/>
<feOffset dy="4"/>
<feGaussianBlur stdDeviation="17"/>
<feComposite in2="hardAlpha" operator="out"/>
<feColorMatrix type="matrix" values="0 0 0 0 0 0 0 0 0 0 0 0 0 0 0 0 0 0 0.18 0"/>
<feBlend mode="normal" in2="BackgroundImageFix" result="effect1_dropShadow_5295_14688"/>
<feBlend mode="normal" in="SourceGraphic" in2="effect1_dropShadow_5295_14688" result="shape"/>
</filter>
<filter id="filter12_d_5295_14688" x="858.609" y="1362.34" width="48.4805" height="48.4844" filterUnits="userSpaceOnUse" color-interpolation-filters="sRGB">
<feFlood flood-opacity="0" result="BackgroundImageFix"/>
<feColorMatrix in="SourceAlpha" type="matrix" values="0 0 0 0 0 0 0 0 0 0 0 0 0 0 0 0 0 0 127 0" result="hardAlpha"/>
<feOffset dy="4"/>
<feGaussianBlur stdDeviation="3.5"/>
<feComposite in2="hardAlpha" operator="out"/>
<feColorMatrix type="matrix" values="0 0 0 0 0 0 0 0 0 0 0 0 0 0 0 0 0 0 0.05 0"/>
<feBlend mode="normal" in2="BackgroundImageFix" result="effect1_dropShadow_5295_14688"/>
<feBlend mode="normal" in="SourceGraphic" in2="effect1_dropShadow_5295_14688" result="shape"/>
</filter>
<filter id="filter13_d_5295_14688" x="37.9043" y="35.6523" width="174.293" height="174.293" filterUnits="userSpaceOnUse" color-interpolation-filters="sRGB">
<feFlood flood-opacity="0" result="BackgroundImageFix"/>
<feColorMatrix in="SourceAlpha" type="matrix" values="0 0 0 0 0 0 0 0 0 0 0 0 0 0 0 0 0 0 127 0" result="hardAlpha"/>
<feOffset dy="4"/>
<feGaussianBlur stdDeviation="17"/>
<feComposite in2="hardAlpha" operator="out"/>
<feColorMatrix type="matrix" values="0 0 0 0 0 0 0 0 0 0 0 0 0 0 0 0 0 0 0.18 0"/>
<feBlend mode="normal" in2="BackgroundImageFix" result="effect1_dropShadow_5295_14688"/>
<feBlend mode="normal" in="SourceGraphic" in2="effect1_dropShadow_5295_14688" result="shape"/>
</filter>
<filter id="filter14_d_5295_14688" x="179" y="188" width="810" height="810" filterUnits="userSpaceOnUse" color-interpolation-filters="sRGB">
<feFlood flood-opacity="0" result="BackgroundImageFix"/>
<feColorMatrix in="SourceAlpha" type="matrix" values="0 0 0 0 0 0 0 0 0 0 0 0 0 0 0 0 0 0 127 0" result="hardAlpha"/>
<feOffset dy="4"/>
<feGaussianBlur stdDeviation="17"/>
<feComposite in2="hardAlpha" operator="out"/>
<feColorMatrix type="matrix" values="0 0 0 0 0 0 0 0 0 0 0 0 0 0 0 0 0 0 0.18 0"/>
<feBlend mode="normal" in2="BackgroundImageFix" result="effect1_dropShadow_5295_14688"/>
<feBlend mode="normal" in="SourceGraphic" in2="effect1_dropShadow_5295_14688" result="shape"/>
</filter>
<filter id="filter15_d_5295_14688" x="955.469" y="35.6523" width="174.293" height="174.293" filterUnits="userSpaceOnUse" color-interpolation-filters="sRGB">
<feFlood flood-opacity="0" result="BackgroundImageFix"/>
<feColorMatrix in="SourceAlpha" type="matrix" values="0 0 0 0 0 0 0 0 0 0 0 0 0 0 0 0 0 0 127 0" result="hardAlpha"/>
<feOffset dy="4"/>
<feGaussianBlur stdDeviation="17"/>
<feComposite in2="hardAlpha" operator="out"/>
<feColorMatrix type="matrix" values="0 0 0 0 0 0 0 0 0 0 0 0 0 0 0 0 0 0 0.18 0"/>
<feBlend mode="normal" in2="BackgroundImageFix" result="effect1_dropShadow_5295_14688"/>
<feBlend mode="normal" in="SourceGraphic" in2="effect1_dropShadow_5295_14688" result="shape"/>
</filter>
<linearGradient id="paint0_linear_5295_14688" x1="584" y1="2271" x2="584" y2="2427" gradientUnits="userSpaceOnUse">
<stop stop-color="white"/>
<stop offset="1" stop-color="white" stop-opacity="0"/>
</linearGradient>
<linearGradient id="paint1_linear_5295_14688" x1="289.61" y1="2253.65" x2="392.758" y2="2406.39" gradientUnits="userSpaceOnUse">
<stop stop-color="#E54033"/>
<stop offset="0.661458" stop-color="#FECA1A"/>
<stop offset="1" stop-color="#AFD803"/>
</linearGradient>
<linearGradient id="paint2_linear_5295_14688" x1="328.161" y1="2272.02" x2="386.462" y2="2358.35" gradientUnits="userSpaceOnUse">
<stop stop-color="#E54033"/>
<stop offset="0.661458" stop-color="#FECA1A"/>
<stop offset="1" stop-color="#AFD803"/>
</linearGradient>
<linearGradient id="paint3_linear_5295_14688" x1="96.0188" y1="1274.92" x2="177.218" y2="1414.12" gradientUnits="userSpaceOnUse">
<stop stop-color="#24DCB3"/>
<stop offset="1" stop-color="#D428FC"/>
</linearGradient>
<linearGradient id="paint4_linear_5295_14688" x1="170.14" y1="1293.7" x2="118.7" y2="1392.23" gradientUnits="userSpaceOnUse">
<stop stop-color="#00FFA3"/>
<stop offset="1" stop-color="#DC1FFF"/>
</linearGradient>
<linearGradient id="paint5_linear_5295_14688" x1="147.648" y1="1281.96" x2="96.2077" y2="1380.49" gradientUnits="userSpaceOnUse">
<stop stop-color="#00FFA3"/>
<stop offset="1" stop-color="#DC1FFF"/>
</linearGradient>
<linearGradient id="paint6_linear_5295_14688" x1="158.822" y1="1287.79" x2="107.382" y2="1386.32" gradientUnits="userSpaceOnUse">
<stop stop-color="#00FFA3"/>
<stop offset="1" stop-color="#DC1FFF"/>
</linearGradient>
<linearGradient id="paint7_linear_5295_14688" x1="291" y1="1537" x2="291" y2="1578" gradientUnits="userSpaceOnUse">
<stop stop-color="white"/>
<stop offset="1" stop-color="white" stop-opacity="0"/>
</linearGradient>
<linearGradient id="paint8_linear_5295_14688" x1="291" y1="1791" x2="291" y2="1832" gradientUnits="userSpaceOnUse">
<stop stop-color="white"/>
<stop offset="1" stop-color="white" stop-opacity="0"/>
</linearGradient>
<linearGradient id="paint9_linear_5295_14688" x1="327" y1="1594" x2="327" y2="1635" gradientUnits="userSpaceOnUse">
<stop stop-color="white"/>
<stop offset="1" stop-color="white" stop-opacity="0"/>
</linearGradient>
<linearGradient id="paint10_linear_5295_14688" x1="327" y1="1848" x2="327" y2="1889" gradientUnits="userSpaceOnUse">
<stop stop-color="white"/>
<stop offset="1" stop-color="white" stop-opacity="0"/>
</linearGradient>
<linearGradient id="paint11_linear_5295_14688" x1="973.5" y1="1530" x2="973.5" y2="1594" gradientUnits="userSpaceOnUse">
<stop stop-color="white"/>
<stop offset="1" stop-color="white" stop-opacity="0"/>
</linearGradient>
<linearGradient id="paint12_linear_5295_14688" x1="973.5" y1="1791" x2="973.5" y2="1855" gradientUnits="userSpaceOnUse">
<stop stop-color="white"/>
<stop offset="1" stop-color="white" stop-opacity="0"/>
</linearGradient>
<linearGradient id="paint13_linear_5295_14688" x1="42" y1="1216" x2="1092" y2="1215" gradientUnits="userSpaceOnUse">
<stop stop-color="#443E52" stop-opacity="0"/>
<stop offset="0.536458" stop-color="#443E52"/>
<stop offset="1" stop-color="#443E52" stop-opacity="0"/>
</linearGradient>
<linearGradient id="paint14_linear_5295_14688" x1="42" y1="1464" x2="1092" y2="1463" gradientUnits="userSpaceOnUse">
<stop stop-color="#443E52" stop-opacity="0"/>
<stop offset="0.536458" stop-color="#443E52"/>
<stop offset="1" stop-color="#443E52" stop-opacity="0"/>
</linearGradient>
<linearGradient id="paint15_linear_5295_14688" x1="42" y1="1718" x2="1092" y2="1717" gradientUnits="userSpaceOnUse">
<stop stop-color="#443E52" stop-opacity="0"/>
<stop offset="0.536458" stop-color="#443E52"/>
<stop offset="1" stop-color="#443E52" stop-opacity="0"/>
</linearGradient>
<linearGradient id="paint16_linear_5295_14688" x1="125.051" y1="65.6523" x2="125.051" y2="171.946" gradientUnits="userSpaceOnUse">
<stop stop-color="white"/>
<stop offset="1" stop-color="white" stop-opacity="0"/>
</linearGradient>
<linearGradient id="paint17_linear_5295_14688" x1="584" y1="218" x2="584" y2="1354.73" gradientUnits="userSpaceOnUse">
<stop stop-color="white"/>
<stop offset="1" stop-color="white" stop-opacity="0"/>
</linearGradient>
<linearGradient id="paint18_linear_5295_14688" x1="1042.62" y1="65.6523" x2="1042.62" y2="171.946" gradientUnits="userSpaceOnUse">
<stop stop-color="white"/>
<stop offset="1" stop-color="white" stop-opacity="0"/>
</linearGradient>
</defs>
</svg>
