<svg width="1168" height="2533" viewBox="0 0 1168 2533" fill="none" xmlns="http://www.w3.org/2000/svg"><path fill="#191721" d="M0 2532h1168V0H0z"/><mask id="a" style="mask-type:alpha" maskUnits="userSpaceOnUse" x="-1" y="0" width="1170" height="2534"><path fill="#1D1A25" stroke="#443E52" stroke-width="2" d="M0 2533h1168V1H0z"/></mask><g mask="url(#a)"><path fill="#242231" d="M0 2237h1168v296H0z"/><circle cx="133.178" cy="2340.54" r="15.8299" fill="#5C5A6C"/><circle cx="113.83" cy="2323.83" r="18.3299" fill="#5C5A6C" stroke="#242231" stroke-width="5"/><path d="M108.137 2386.3c1.364 0 2.604.32 3.72.96 1.116.62 1.994 1.47 2.635 2.54.661 1.08.992 2.28.992 3.6 0 1.32-.32 2.53-.961 3.63-.641 1.07-1.529 1.93-2.666 2.57-1.116.62-2.356.93-3.72.93h-4.154v7.47h-3.596v-21.7h7.75zm-.062 10.79c1.075 0 1.974-.35 2.697-1.06.744-.7 1.116-1.58 1.116-2.63 0-1.06-.372-1.92-1.116-2.61-.723-.7-1.622-1.05-2.697-1.05h-4.092v7.35h4.092zm15.842-5.15c1.901 0 3.42.59 4.557 1.77 1.137 1.16 1.705 2.7 1.705 4.62v9.67h-2.542l-.62-1.77h-.155c-.434.56-1.033 1.06-1.798 1.49-.744.43-1.674.65-2.79.65-.992 0-1.891-.2-2.697-.62-.806-.43-1.436-1-1.891-1.7-.455-.73-.682-1.51-.682-2.36 0-1.03.3-1.93.899-2.7.62-.78 1.478-1.38 2.573-1.79 1.116-.42 2.387-.62 3.813-.62h2.511v-.53c0-.93-.269-1.66-.806-2.2-.517-.56-1.219-.84-2.108-.84-.785 0-1.416.21-1.891.62-.475.39-.765.88-.868 1.46h-3.41c.103-.91.403-1.76.899-2.54.517-.79 1.23-1.42 2.139-1.9.909-.47 1.963-.71 3.162-.71zm-.93 13.55c1.137 0 2.056-.34 2.759-1.02.703-.69 1.054-1.5 1.054-2.45v-1h-2.48c-1.302 0-2.284.22-2.945.66-.641.41-.961.99-.961 1.73 0 .62.217 1.13.651 1.52.455.37 1.095.56 1.922.56zm20.673-13.18h3.503l-6.51 16.56c-.723 1.8-1.477 3.06-2.263 3.78-.764.72-1.663 1.09-2.697 1.09-.62 0-1.178-.11-1.674-.31v-3.1c.29.14.641.21 1.054.21.6 0 1.096-.15 1.488-.46.414-.29.755-.79 1.023-1.49l.372-.99-6.169-15.29h3.658l4.185 11.13 4.03-11.13z" fill="#fff"/><g filter="url(#filter0_d_5338_8253)"><rect x="506" y="2271" width="156" height="156" rx="78" fill="#7B61FF"/><rect x="506.5" y="2271.5" width="155" height="155" rx="77.5" stroke="url(#paint0_linear_5338_8253)" stroke-opacity=".1"/></g><path fill="#D9D9D9" d="M551 2323h69v11h-69zM550.93 2363.33h68.7018v11H550.93zM540 2343h89v11h-89z"/><path d="M315 2337.36c0-11.72 9.233-21.28 20.82-21.8.551-.02 1 .43 1 .98v20.82h20.82c.552 0 1.002.45.977 1-.523 11.58-10.082 20.82-21.797 20.82-12.051 0-21.82-9.77-21.82-21.82z" fill="#5C5A6C"/><path d="M342.512 2308.29c0-.65.617-1.13 1.243-.94 11.059 3.29 19.78 12.01 23.078 23.07.186.63-.292 1.25-.945 1.25h-22.376c-.553 0-1-.45-1-1v-22.38z" fill="#5C5A6C"/><path d="M292.632 2404.44c.951.31 1.819.92 2.604 1.83.785.88 1.178 2.05 1.178 3.5 0 1.16-.3 2.21-.899 3.16-.579.95-1.405 1.71-2.48 2.26-1.054.54-2.263.81-3.627.81h-9.021v-21.7h8.649c1.261 0 2.387.26 3.379.77.992.5 1.757 1.19 2.294 2.08.558.87.837 1.83.837 2.88 0 1.16-.289 2.11-.868 2.86-.579.74-1.261 1.26-2.046 1.55zm-8.649-7.01v5.7h4.743c.951 0 1.726-.26 2.325-.8.599-.54.899-1.23.899-2.08 0-.82-.3-1.5-.899-2.01-.599-.54-1.374-.81-2.325-.81h-4.743zm5.115 15.44c1.095 0 1.984-.31 2.666-.93.703-.64 1.054-1.46 1.054-2.45 0-.97-.351-1.77-1.054-2.39-.682-.64-1.571-.96-2.666-.96h-5.115v6.73h5.115zm16.302-12.93c1.902 0 3.421.59 4.557 1.77 1.137 1.16 1.705 2.7 1.705 4.62v9.67h-2.542l-.62-1.77h-.155c-.434.56-1.033 1.06-1.798 1.49-.744.43-1.674.65-2.79.65-.992 0-1.891-.2-2.697-.62-.806-.43-1.436-1-1.891-1.7-.454-.73-.682-1.51-.682-2.36 0-1.03.3-1.93.899-2.7.62-.78 1.478-1.38 2.573-1.79 1.116-.42 2.387-.62 3.813-.62h2.511v-.53c0-.93-.268-1.66-.806-2.2-.516-.56-1.219-.84-2.108-.84-.785 0-1.415.21-1.891.62-.475.39-.764.88-.868 1.46h-3.41c.104-.91.403-1.76.899-2.54.517-.79 1.23-1.42 2.139-1.9.91-.47 1.964-.71 3.162-.71zm-.93 13.55c1.137 0 2.057-.34 2.759-1.02.703-.69 1.054-1.5 1.054-2.45v-1h-2.48c-1.302 0-2.283.22-2.945.66-.64.41-.961.99-.961 1.73 0 .62.217 1.13.651 1.52.455.37 1.096.56 1.922.56zm14.559 2.51h-3.41v-21.7h3.41v21.7zm9.985-16.06c1.901 0 3.42.59 4.557 1.77 1.136 1.16 1.705 2.7 1.705 4.62v9.67h-2.542l-.62-1.77h-.155c-.434.56-1.034 1.06-1.798 1.49-.744.43-1.674.65-2.79.65-.992 0-1.891-.2-2.697-.62-.806-.43-1.437-1-1.891-1.7-.455-.73-.682-1.51-.682-2.36 0-1.03.299-1.93.899-2.7.62-.78 1.477-1.38 2.573-1.79 1.116-.42 2.387-.62 3.813-.62h2.511v-.53c0-.93-.269-1.66-.806-2.2-.517-.56-1.22-.84-2.108-.84-.786 0-1.416.21-1.891.62-.476.39-.765.88-.868 1.46h-3.41c.103-.91.403-1.76.899-2.54.516-.79 1.229-1.42 2.139-1.9.909-.47 1.963-.71 3.162-.71zm-.93 13.55c1.136 0 2.056-.34 2.759-1.02.702-.69 1.054-1.5 1.054-2.45v-1h-2.48c-1.302 0-2.284.22-2.945.66-.641.41-.961.99-.961 1.73 0 .62.217 1.13.651 1.52.454.37 1.095.56 1.922.56zm10.994 2.51v-15.69h2.542l.62 1.74h.155c.351-.48.909-.94 1.674-1.4.785-.47 1.694-.71 2.728-.71 1.219 0 2.304.29 3.255.87.95.56 1.694 1.35 2.232 2.39.537 1.03.806 2.23.806 3.59v9.21h-3.379v-8.96c0-1.16-.341-2.1-1.023-2.82-.662-.74-1.519-1.12-2.573-1.12-1.075 0-1.953.38-2.635 1.12-.662.72-.992 1.66-.992 2.82v8.96h-3.41zm24.713.37c-1.406 0-2.708-.36-3.906-1.08-1.178-.75-2.119-1.75-2.821-3.01-.703-1.26-1.054-2.64-1.054-4.12 0-1.51.351-2.89 1.054-4.13.702-1.26 1.643-2.25 2.821-2.97 1.198-.75 2.5-1.12 3.906-1.12 1.24 0 2.376.29 3.41.87 1.033.58 1.88 1.34 2.542 2.29.661.93 1.095 1.93 1.302 2.98h-3.41c-.228-.76-.672-1.45-1.333-2.05-.662-.62-1.499-.93-2.511-.93-.806 0-1.55.22-2.232.65-.662.44-1.189 1.04-1.581 1.8-.393.77-.589 1.64-.589 2.61s.196 1.84.589 2.6c.392.77.919 1.36 1.581 1.8.682.43 1.426.65 2.232.65 1.012 0 1.849-.3 2.511-.9.661-.62 1.105-1.31 1.333-2.08h3.41c-.207 1.06-.641 2.06-1.302 3.01-.662.93-1.509 1.69-2.542 2.26-1.034.58-2.17.87-3.41.87zm24.453-8.55c0 .66-.062 1.22-.186 1.67h-11.625c.207 1.18.703 2.11 1.488 2.79.786.68 1.736 1.02 2.852 1.02.806 0 1.488-.15 2.046-.46.558-.31 1.003-.7 1.333-1.18h3.534c-.31.79-.795 1.54-1.457 2.26-.64.73-1.436 1.32-2.387 1.77-.93.45-1.942.68-3.038.68-1.426 0-2.738-.36-3.937-1.08-1.178-.73-2.118-1.71-2.821-2.95-.682-1.26-1.023-2.65-1.023-4.18 0-1.51.352-2.89 1.054-4.13.703-1.26 1.643-2.25 2.821-2.97 1.199-.75 2.491-1.12 3.875-1.12 1.385 0 2.646.35 3.782 1.06 1.137.68 2.036 1.62 2.697 2.82.662 1.2.992 2.53.992 4zm-7.471-4.81c-1.074 0-2.015.36-2.821 1.09-.806.7-1.312 1.64-1.519 2.82h8.494c-.186-1.16-.661-2.1-1.426-2.82-.764-.73-1.674-1.09-2.728-1.09zm15.704 13.36c-1.199 0-2.263-.23-3.193-.68-.909-.48-1.633-1.11-2.17-1.89-.517-.79-.806-1.64-.868-2.57h3.348c.062.7.351 1.27.868 1.7.517.41 1.188.62 2.015.62.806 0 1.426-.17 1.86-.53.455-.35.682-.79.682-1.33 0-.62-.269-1.08-.806-1.39-.537-.33-1.385-.68-2.542-1.03-1.054-.33-1.922-.66-2.604-.99-.661-.33-1.23-.79-1.705-1.39-.475-.6-.713-1.38-.713-2.33 0-.87.227-1.65.682-2.36.455-.7 1.106-1.25 1.953-1.64.868-.41 1.881-.62 3.038-.62 1.116 0 2.108.23 2.976.68.889.44 1.581 1.04 2.077 1.8.496.75.775 1.58.837 2.51h-3.348c-.083-.68-.341-1.21-.775-1.58-.413-.39-1.002-.59-1.767-.59-.723 0-1.281.17-1.674.5-.393.31-.589.7-.589 1.18 0 .58.258 1.02.775 1.33.517.29 1.333.6 2.449.93 1.075.33 1.953.66 2.635.99.682.33 1.271.81 1.767 1.43.496.62.744 1.42.744 2.42 0 1.4-.527 2.56-1.581 3.47-1.054.91-2.511 1.36-4.371 1.36z" fill="#fff"/><path d="M829.304 2305.45l-6.91 18.09-17.937 7.23c-.855.34-.828 1.56.041 1.87l17.896 6.31 6.907 18.53c.324.87 1.551.87 1.875 0l6.907-18.53 18.347-6.31c.88-.3.907-1.54.041-1.88l-18.388-7.22-6.91-18.09c-.328-.86-1.541-.86-1.869 0z" fill="url(#paint1_linear_5338_8253)"/><path d="M783.983 2406.54v6.05h11.036v3.41h-14.632v-21.7h14.322v3.41h-10.726v5.52h9.548v3.31h-9.548zm21.641 1.46l5.332 8h-3.906l-3.596-5.64-3.596 5.64h-3.782l5.332-8-4.991-7.69h3.875l3.286 5.27 3.286-5.27h3.72l-4.96 7.69zm7.449 13.58v-21.27h2.542l.62 1.74h.155c.351-.45.94-.92 1.767-1.4.847-.47 1.819-.71 2.914-.71 1.281 0 2.47.36 3.565 1.09 1.116.7 2.005 1.68 2.666 2.94.661 1.24.992 2.64.992 4.19 0 1.55-.331 2.95-.992 4.21-.661 1.24-1.55 2.22-2.666 2.95-1.095.7-2.284 1.05-3.565 1.05-.723 0-1.405-.12-2.046-.37-.62-.23-1.137-.5-1.55-.81-.413-.33-.692-.61-.837-.83h-.155v7.22h-3.41zm7.626-8.37c.765 0 1.467-.21 2.108-.62.641-.43 1.147-1.03 1.519-1.8.393-.78.589-1.66.589-2.63s-.196-1.84-.589-2.61c-.372-.78-.878-1.38-1.519-1.8-.641-.43-1.343-.65-2.108-.65-.765 0-1.467.22-2.108.65-.641.42-1.157 1.02-1.55 1.8-.372.77-.558 1.64-.558 2.61s.186 1.85.558 2.63c.393.77.909 1.37 1.55 1.8.641.41 1.343.62 2.108.62zm14.224 2.79h-3.41v-21.7h3.41v21.7zm10.976.37c-1.405 0-2.707-.36-3.906-1.08-1.178-.75-2.118-1.75-2.821-3.01-.702-1.26-1.054-2.64-1.054-4.12 0-1.51.352-2.89 1.054-4.13.703-1.26 1.643-2.25 2.821-2.97 1.199-.75 2.501-1.12 3.906-1.12 1.406 0 2.697.37 3.875 1.12 1.199.72 2.15 1.71 2.852 2.97.703 1.24 1.054 2.62 1.054 4.13 0 1.48-.351 2.86-1.054 4.12-.702 1.26-1.653 2.26-2.852 3.01-1.178.72-2.469 1.08-3.875 1.08zm0-3.16c.806 0 1.54-.22 2.201-.65.682-.44 1.22-1.03 1.612-1.8.393-.76.589-1.63.589-2.6 0-.97-.196-1.84-.589-2.61-.392-.76-.93-1.36-1.612-1.8-.661-.43-1.395-.65-2.201-.65s-1.55.22-2.232.65c-.661.44-1.188 1.04-1.581 1.8-.392.77-.589 1.64-.589 2.61s.197 1.84.589 2.6c.393.77.92 1.36 1.581 1.8.682.43 1.426.65 2.232.65zm10.858 2.79v-15.69h2.542l.62 1.74h.155c.331-.48.837-.94 1.519-1.4.682-.47 1.468-.71 2.356-.71.517 0 .951.04 1.302.13v3.41c-.392-.09-.857-.13-1.395-.13-1.095 0-1.984.35-2.666 1.06-.682.7-1.023 1.67-1.023 2.91v8.68h-3.41zm24.525-8.18c0 .66-.062 1.22-.186 1.67h-11.625c.206 1.18.702 2.11 1.488 2.79.785.68 1.736 1.02 2.852 1.02.806 0 1.488-.15 2.046-.46.558-.31 1.002-.7 1.333-1.18h3.534c-.31.79-.796 1.54-1.457 2.26-.641.73-1.437 1.32-2.387 1.77-.93.45-1.943.68-3.038.68-1.426 0-2.739-.36-3.937-1.08-1.178-.73-2.119-1.71-2.821-2.95-.682-1.26-1.023-2.65-1.023-4.18 0-1.51.351-2.89 1.054-4.13.702-1.26 1.643-2.25 2.821-2.97 1.198-.75 2.49-1.12 3.875-1.12 1.384 0 2.645.35 3.782 1.06 1.136.68 2.035 1.62 2.697 2.82.661 1.2.992 2.53.992 4zm-7.471-4.81c-1.075 0-2.015.36-2.821 1.09-.806.7-1.313 1.64-1.519 2.82h8.494c-.186-1.16-.662-2.1-1.426-2.82-.765-.73-1.674-1.09-2.728-1.09z" fill="#fff"/><path d="M1038 2327.4c4.5 0 8.14-3.67 8.14-8.2 0-4.53-3.64-8.2-8.14-8.2s-8.14 3.67-8.14 8.2c0 4.53 3.64 8.2 8.14 8.2zM1019 2352c0-10.57 8.51-19.13 19-19.13s19 8.56 19 19.13h-38z" fill="#5C5A6C"/><path d="M1004.14 2394.3c1.36 0 2.6.32 3.72.96 1.11.62 1.99 1.47 2.63 2.54.66 1.08.99 2.28.99 3.6 0 1.32-.32 2.53-.96 3.63-.64 1.07-1.53 1.93-2.66 2.57-1.12.62-2.36.93-3.72.93h-4.157v7.47h-3.596v-21.7h7.753zm-.06 10.79c1.07 0 1.97-.35 2.69-1.06.75-.7 1.12-1.58 1.12-2.63 0-1.06-.37-1.92-1.12-2.61-.72-.7-1.62-1.05-2.69-1.05h-4.097v7.35h4.097zm9.95 10.91v-15.69h2.54l.62 1.74h.15c.33-.48.84-.94 1.52-1.4.68-.47 1.47-.71 2.36-.71.52 0 .95.04 1.3.13v3.41c-.39-.09-.86-.13-1.39-.13-1.1 0-1.99.35-2.67 1.06-.68.7-1.02 1.67-1.02 2.91v8.68h-3.41zm17.08.37c-1.4 0-2.71-.36-3.9-1.08-1.18-.75-2.12-1.75-2.83-3.01-.7-1.26-1.05-2.64-1.05-4.12 0-1.51.35-2.89 1.05-4.13.71-1.26 1.65-2.25 2.83-2.97 1.19-.75 2.5-1.12 3.9-1.12 1.41 0 2.7.37 3.88 1.12 1.19.72 2.15 1.71 2.85 2.97.7 1.24 1.05 2.62 1.05 4.13 0 1.48-.35 2.86-1.05 4.12-.7 1.26-1.66 2.26-2.85 3.01-1.18.72-2.47 1.08-3.88 1.08zm0-3.16c.81 0 1.54-.22 2.2-.65.68-.44 1.22-1.03 1.61-1.8.4-.76.59-1.63.59-2.6 0-.97-.19-1.84-.59-2.61-.39-.76-.93-1.36-1.61-1.8-.66-.43-1.39-.65-2.2-.65-.8 0-1.55.22-2.23.65-.66.44-1.19 1.04-1.58 1.8-.39.77-.59 1.64-.59 2.61s.2 1.84.59 2.6c.39.77.92 1.36 1.58 1.8.68.43 1.43.65 2.23.65zm14.77-12.9h9.02V2416h-3.41v-12.74h-5.51V2416h-3.38v-12.74h-2.14v-2.95h2.14v-.09c0-2 .62-3.57 1.86-4.71 1.26-1.14 3.03-1.71 5.33-1.71 1.26 0 2.4.21 3.41.62v2.89c-.91-.33-1.99-.5-3.23-.5-1.3 0-2.31.3-3.03.9-.71.6-1.06 1.45-1.06 2.54v.06zm16.37 15.69h-3.41v-21.7h3.41v21.7zm18.41-8.18c0 .66-.06 1.22-.18 1.67h-11.63c.21 1.18.7 2.11 1.49 2.79.78.68 1.73 1.02 2.85 1.02.81 0 1.49-.15 2.05-.46.55-.31 1-.7 1.33-1.18h3.53c-.31.79-.79 1.54-1.45 2.26-.64.73-1.44 1.32-2.39 1.77-.93.45-1.94.68-3.04.68-1.42 0-2.74-.36-3.94-1.08-1.17-.73-2.11-1.71-2.82-2.95-.68-1.26-1.02-2.65-1.02-4.18 0-1.51.35-2.89 1.05-4.13.71-1.26 1.65-2.25 2.83-2.97 1.19-.75 2.49-1.12 3.87-1.12 1.39 0 2.65.35 3.78 1.06 1.14.68 2.04 1.62 2.7 2.82.66 1.2.99 2.53.99 4zm-7.47-4.81c-1.07 0-2.01.36-2.82 1.09-.81.7-1.31 1.64-1.52 2.82h8.49c-.18-1.16-.66-2.1-1.42-2.82-.77-.73-1.68-1.09-2.73-1.09z" fill="#fff"/><g opacity=".2"><path d="M583.508 701c31.31 0 56.5-25.19 56.5-56.5 0-31.311-25.19-56.5-56.5-56.5-31.311 0-56.5 25.189-56.5 56.5 0 31.31 25.189 56.5 56.5 56.5z" fill="#443E52"/><g filter="url(#filter1_d_5338_8253)"><rect x="516" y="745" width="136" height="41" rx="15" fill="#443E52"/><rect x="516.5" y="745.5" width="135" height="40" rx="14.5" stroke="url(#paint2_linear_5338_8253)" stroke-opacity=".1"/></g><g filter="url(#filter2_d_5338_8253)"><rect x="540" y="812" width="88" height="41" rx="15" fill="#443E52"/><rect x="540.5" y="812.5" width="87" height="40" rx="14.5" stroke="url(#paint3_linear_5338_8253)" stroke-opacity=".1"/></g><g filter="url(#filter3_d_5338_8253)"><rect x="523" y="871" width="122" height="41" rx="15" fill="#443E52"/><rect x="523.5" y="871.5" width="121" height="40" rx="14.5" stroke="url(#paint4_linear_5338_8253)" stroke-opacity=".1"/></g></g><g opacity=".2"><path d="M583.508 1103c31.31 0 56.5-25.19 56.5-56.5s-25.19-56.5-56.5-56.5c-31.311 0-56.5 25.19-56.5 56.5s25.189 56.5 56.5 56.5z" fill="#443E52"/><g filter="url(#filter4_d_5338_8253)"><rect x="516" y="1147" width="136" height="41" rx="15" fill="#443E52"/><rect x="516.5" y="1147.5" width="135" height="40" rx="14.5" stroke="url(#paint5_linear_5338_8253)" stroke-opacity=".1"/></g><g filter="url(#filter5_d_5338_8253)"><rect x="540" y="1214" width="88" height="41" rx="15" fill="#443E52"/><rect x="540.5" y="1214.5" width="87" height="40" rx="14.5" stroke="url(#paint6_linear_5338_8253)" stroke-opacity=".1"/></g><g filter="url(#filter6_d_5338_8253)"><rect x="523" y="1273" width="122" height="41" rx="15" fill="#443E52"/><rect x="523.5" y="1273.5" width="121" height="40" rx="14.5" stroke="url(#paint7_linear_5338_8253)" stroke-opacity=".1"/></g></g><g opacity=".2"><path d="M960.508 1103c31.31 0 56.502-25.19 56.502-56.5S991.818 990 960.508 990c-31.311 0-56.5 25.19-56.5 56.5s25.189 56.5 56.5 56.5z" fill="#443E52"/><g filter="url(#filter7_d_5338_8253)"><rect x="893" y="1147" width="136" height="41" rx="15" fill="#443E52"/><rect x="893.5" y="1147.5" width="135" height="40" rx="14.5" stroke="url(#paint8_linear_5338_8253)" stroke-opacity=".1"/></g><g filter="url(#filter8_d_5338_8253)"><rect x="917" y="1214" width="88" height="41" rx="15" fill="#443E52"/><rect x="917.5" y="1214.5" width="87" height="40" rx="14.5" stroke="url(#paint9_linear_5338_8253)" stroke-opacity=".1"/></g><g filter="url(#filter9_d_5338_8253)"><rect x="900" y="1273" width="122" height="41" rx="15" fill="#443E52"/><rect x="900.5" y="1273.5" width="121" height="40" rx="14.5" stroke="url(#paint10_linear_5338_8253)" stroke-opacity=".1"/></g></g><g opacity=".2"><path d="M960.508 701c31.31 0 56.502-25.19 56.502-56.5 0-31.311-25.192-56.5-56.502-56.5-31.311 0-56.5 25.189-56.5 56.5 0 31.31 25.189 56.5 56.5 56.5z" fill="#443E52"/><g filter="url(#filter10_d_5338_8253)"><rect x="893" y="745" width="136" height="41" rx="15" fill="#443E52"/><rect x="893.5" y="745.5" width="135" height="40" rx="14.5" stroke="url(#paint11_linear_5338_8253)" stroke-opacity=".1"/></g><g filter="url(#filter11_d_5338_8253)"><rect x="917" y="812" width="88" height="41" rx="15" fill="#443E52"/><rect x="917.5" y="812.5" width="87" height="40" rx="14.5" stroke="url(#paint12_linear_5338_8253)" stroke-opacity=".1"/></g><g filter="url(#filter12_d_5338_8253)"><rect x="900" y="871" width="122" height="41" rx="15" fill="#443E52"/><rect x="900.5" y="871.5" width="121" height="40" rx="14.5" stroke="url(#paint13_linear_5338_8253)" stroke-opacity=".1"/></g></g><g opacity=".2"><path d="M206.508 1098c31.31 0 56.5-25.19 56.5-56.5s-25.19-56.5-56.5-56.5c-31.311 0-56.5 25.19-56.5 56.5s25.189 56.5 56.5 56.5z" fill="#443E52"/><g filter="url(#filter13_d_5338_8253)"><rect x="139" y="1142" width="136" height="41" rx="15" fill="#443E52"/><rect x="139.5" y="1142.5" width="135" height="40" rx="14.5" stroke="url(#paint14_linear_5338_8253)" stroke-opacity=".1"/></g><g filter="url(#filter14_d_5338_8253)"><rect x="163" y="1209" width="88" height="41" rx="15" fill="#443E52"/><rect x="163.5" y="1209.5" width="87" height="40" rx="14.5" stroke="url(#paint15_linear_5338_8253)" stroke-opacity=".1"/></g><g filter="url(#filter15_d_5338_8253)"><rect x="146" y="1268" width="122" height="41" rx="15" fill="#443E52"/><rect x="146.5" y="1268.5" width="121" height="40" rx="14.5" stroke="url(#paint16_linear_5338_8253)" stroke-opacity=".1"/></g></g><path transform="rotate(90 386 594)" fill="url(#paint17_linear_5338_8253)" d="M386 594h331v2H386z"/><path transform="rotate(90 386 970)" fill="url(#paint18_linear_5338_8253)" d="M386 970h331v2H386z"/><path transform="rotate(90 784 594)" fill="url(#paint19_linear_5338_8253)" d="M784 594h331v2H784z"/><path transform="rotate(90 784 970)" fill="url(#paint20_linear_5338_8253)" d="M784 970h331v2H784z"/><path d="M172.054 838.396c1.56.832 2.912 2.011 4.056 3.536 1.178 1.525 1.768 3.397 1.768 5.616 0 1.976-.538 3.813-1.612 5.512-1.075 1.699-2.6 3.051-4.576 4.056-1.976 1.005-4.264 1.508-6.864 1.508-2.6 0-4.888-.503-6.864-1.508s-3.502-2.357-4.576-4.056c-1.075-1.699-1.612-3.536-1.612-5.512 0-2.219.589-4.091 1.768-5.616 1.178-1.525 2.548-2.704 4.108-3.536-1.214-.797-2.254-1.803-3.12-3.016-.867-1.248-1.3-2.739-1.3-4.472 0-1.768.485-3.415 1.456-4.94.97-1.525 2.322-2.739 4.056-3.64 1.768-.901 3.796-1.352 6.084-1.352s4.298.451 6.032 1.352c1.768.901 3.137 2.115 4.108 3.64.97 1.525 1.456 3.172 1.456 4.94 0 1.733-.434 3.224-1.3 4.472-.867 1.213-1.89 2.219-3.068 3.016zm-7.228-12.012c-1.734 0-3.12.468-4.16 1.404-1.04.901-1.56 2.08-1.56 3.536 0 1.421.52 2.6 1.56 3.536 1.074.936 2.461 1.404 4.16 1.404 1.698 0 3.068-.468 4.108-1.404 1.074-.936 1.612-2.115 1.612-3.536 0-1.456-.52-2.635-1.56-3.536-1.04-.936-2.427-1.404-4.16-1.404zm0 26.832c2.218 0 3.969-.555 5.252-1.664 1.282-1.109 1.924-2.513 1.924-4.212 0-1.699-.642-3.103-1.924-4.212-1.283-1.109-3.034-1.664-5.252-1.664-2.219 0-3.97.555-5.252 1.664-1.283 1.109-1.924 2.513-1.924 4.212 0 1.699.641 3.103 1.924 4.212 1.282 1.109 3.033 1.664 5.252 1.664zm20.497 5.408c-1.04 0-1.907-.347-2.6-1.04-.694-.728-1.04-1.595-1.04-2.6 0-1.005.346-1.855 1.04-2.548.693-.693 1.56-1.04 2.6-1.04s1.906.347 2.6 1.04c.693.693 1.04 1.543 1.04 2.548 0 1.005-.347 1.872-1.04 2.6-.694.693-1.56 1.04-2.6 1.04zm21.107-24.804c2.253 0 4.281.537 6.084 1.612 1.837 1.04 3.276 2.496 4.316 4.368 1.04 1.872 1.56 3.969 1.56 6.292s-.555 4.455-1.664 6.396c-1.109 1.907-2.652 3.415-4.628 4.524-1.941 1.075-4.16 1.612-6.656 1.612-2.323 0-4.403-.485-6.24-1.456-1.803-.971-3.241-2.253-4.316-3.848-1.075-1.595-1.716-3.328-1.924-5.2h6.032c.104.763.433 1.525.988 2.288.589.763 1.352 1.404 2.288 1.924.936.485 1.993.728 3.172.728 2.011 0 3.657-.659 4.94-1.976 1.317-1.317 1.976-2.981 1.976-4.992 0-2.045-.659-3.727-1.976-5.044-1.283-1.317-2.929-1.976-4.94-1.976-2.912 0-5.009 1.335-6.292 4.004h-5.408l2.34-21.476h19.708v5.564h-14.716l-.936 8.684c.763-.589 1.681-1.075 2.756-1.456 1.075-.381 2.253-.572 3.536-.572zm23.369 3.12c-1.386 0-2.686-.347-3.9-1.04-1.213-.693-2.184-1.647-2.912-2.86-.728-1.213-1.092-2.565-1.092-4.056s.364-2.843 1.092-4.056c.728-1.248 1.699-2.219 2.912-2.912 1.214-.693 2.514-1.04 3.9-1.04 1.422 0 2.739.347 3.952 1.04 1.214.693 2.184 1.664 2.912 2.912.728 1.213 1.092 2.565 1.092 4.056s-.364 2.843-1.092 4.056c-.728 1.213-1.698 2.167-2.912 2.86-1.213.693-2.53 1.04-3.952 1.04zm.104 21.06h-4.732l22.412-36.4h4.68l-22.36 36.4zm-.104-24.804c1.075 0 1.994-.381 2.756-1.144.798-.763 1.196-1.785 1.196-3.068 0-1.317-.381-2.357-1.144-3.12-.762-.763-1.698-1.144-2.808-1.144-1.074 0-1.993.399-2.756 1.196-.762.763-1.144 1.785-1.144 3.068 0 1.283.382 2.305 1.144 3.068.763.763 1.682 1.144 2.756 1.144zm17.836 25.428c-1.421 0-2.738-.347-3.952-1.04-1.213-.693-2.184-1.647-2.912-2.86-.728-1.248-1.092-2.617-1.092-4.108 0-1.491.364-2.843 1.092-4.056.728-1.213 1.699-2.167 2.912-2.86 1.214-.693 2.531-1.04 3.952-1.04 1.387 0 2.687.347 3.9 1.04 1.214.693 2.184 1.647 2.912 2.86.728 1.213 1.092 2.565 1.092 4.056s-.364 2.86-1.092 4.108c-.728 1.213-1.698 2.167-2.912 2.86-1.213.693-2.513 1.04-3.9 1.04zm0-3.744c1.075 0 1.994-.381 2.756-1.144.763-.797 1.144-1.837 1.144-3.12 0-1.283-.381-2.305-1.144-3.068-.762-.763-1.681-1.144-2.756-1.144-1.074 0-2.01.381-2.808 1.144-.762.763-1.144 1.785-1.144 3.068 0 1.283.382 2.323 1.144 3.12.798.763 1.734 1.144 2.808 1.144z" fill="#AFD803"/><path d="M202.506 701c31.31 0 56.5-25.19 56.5-56.5 0-31.311-25.19-56.5-56.5-56.5-31.311 0-56.5 25.189-56.5 56.5 0 31.31 25.189 56.5 56.5 56.5z" fill="#FFFCFB"/><path d="M258.506 644.5c0 31.034-24.966 56-56 56-31.035 0-56-24.966-56-56s24.965-56 56-56c31.034 0 56 24.966 56 56z" stroke="url(#paint21_linear_5338_8253)" stroke-opacity=".39"/><mask id="b" style="mask-type:alpha" maskUnits="userSpaceOnUse" x="146" y="588" width="113" height="113"><path d="M202.5 701c31.31 0 56.5-25.19 56.5-56.5 0-31.311-25.19-56.5-56.5-56.5-31.311 0-56.5 25.189-56.5 56.5 0 31.31 25.189 56.5 56.5 56.5z" fill="#2775CA"/></mask><g filter="url(#filter16_f_5338_8253)" mask="url(#b)"><path d="M235.602 599.849c-62.044-7.445-75.901 51.084-75.074 81.279-10.961-15.511-25.562-52.738 3.723-77.556 29.286-24.818 59.77-12.823 71.351-3.723z" fill="#fff" fill-opacity=".6"/></g><path d="M178.85 658.897c.423-.423 1.005-.669 1.622-.669h55.949c1.023 0 1.534 1.233.811 1.956l-11.052 11.053c-.423.423-1.005.67-1.622.67h-55.95c-1.022 0-1.533-1.234-.811-1.957l11.053-11.053z" fill="url(#paint22_linear_5338_8253)"/><path d="M178.85 617.631c.441-.423 1.022-.67 1.622-.67h55.949c1.023 0 1.534 1.234.811 1.957L226.18 629.97c-.423.423-1.005.67-1.622.67h-55.95c-1.022 0-1.533-1.234-.811-1.957l11.053-11.052z" fill="url(#paint23_linear_5338_8253)"/><path d="M226.18 638.132c-.423-.423-1.005-.67-1.622-.67h-55.95c-1.022 0-1.533 1.234-.811 1.957l11.053 11.052c.423.423 1.005.67 1.622.67h55.949c1.023 0 1.534-1.234.811-1.957l-11.052-11.052z" fill="url(#paint24_linear_5338_8253)"/><path d="M163.994 789.744c-3.142 0-5.89-.599-8.246-1.798-2.356-1.199-4.196-2.852-5.518-4.96-1.282-2.149-1.984-4.588-2.108-7.316h7.192c.206 2.315 1.054 4.154 2.542 5.518 1.529 1.364 3.596 2.046 6.2 2.046 2.48 0 4.381-.537 5.704-1.612 1.364-1.075 2.046-2.439 2.046-4.092 0-1.323-.414-2.418-1.24-3.286-.786-.909-1.798-1.633-3.038-2.17-1.24-.537-2.935-1.178-5.084-1.922-2.811-.951-5.105-1.86-6.882-2.728-1.778-.909-3.307-2.191-4.588-3.844-1.24-1.695-1.86-3.885-1.86-6.572 0-2.315.578-4.381 1.736-6.2 1.157-1.86 2.81-3.307 4.96-4.34 2.19-1.075 4.753-1.612 7.688-1.612 2.893 0 5.435.599 7.626 1.798 2.232 1.199 3.968 2.852 5.208 4.96 1.24 2.067 1.922 4.381 2.046 6.944h-7.192c-.124-2.149-.868-3.885-2.232-5.208-1.364-1.323-3.183-1.984-5.456-1.984-2.274 0-4.051.537-5.332 1.612-1.24 1.075-1.86 2.459-1.86 4.154 0 1.281.392 2.356 1.178 3.224.826.827 1.839 1.509 3.038 2.046 1.24.537 2.914 1.137 5.022 1.798 2.893.951 5.208 1.86 6.944 2.728 1.777.827 3.306 2.087 4.588 3.782 1.281 1.695 1.922 3.906 1.922 6.634 0 2.397-.6 4.526-1.798 6.386-1.158 1.86-2.873 3.327-5.146 4.402-2.232 1.075-4.919 1.612-8.06 1.612zm40.746 0c-3.72 0-7.192-.992-10.416-2.976-3.183-1.984-5.725-4.691-7.626-8.122-1.902-3.431-2.852-7.213-2.852-11.346s.95-7.915 2.852-11.346c1.901-3.431 4.443-6.138 7.626-8.122 3.224-1.984 6.696-2.976 10.416-2.976 3.72 0 7.171.992 10.354 2.976 3.224 1.984 5.786 4.691 7.688 8.122 1.901 3.431 2.852 7.213 2.852 11.346s-.951 7.915-2.852 11.346c-1.902 3.431-4.464 6.138-7.688 8.122-3.183 1.984-6.634 2.976-10.354 2.976zm0-6.882c2.438 0 4.691-.661 6.758-1.984 2.108-1.364 3.782-3.224 5.022-5.58 1.281-2.356 1.922-5.022 1.922-7.998s-.641-5.642-1.922-7.998c-1.24-2.356-2.914-4.195-5.022-5.518-2.067-1.364-4.32-2.046-6.758-2.046-2.439 0-4.712.682-6.82 2.046-2.067 1.323-3.741 3.162-5.022 5.518-1.24 2.356-1.86 5.022-1.86 7.998s.62 5.642 1.86 7.998c1.281 2.356 2.955 4.216 5.022 5.58 2.108 1.323 4.381 1.984 6.82 1.984zM260.481 789h-27.776v-43.4h7.192v36.518h20.584V789z" fill="#fff"/><path d="M194.461 906h-3.904l-1.824-5.024h-9.056L177.853 906h-3.776l8.416-22.4h3.584l8.384 22.4zm-6.944-8.448l-3.296-9.184-3.328 9.184h6.624zm17.338-13.952c1.408 0 2.688.331 3.84.992 1.152.64 2.058 1.515 2.72 2.624.682 1.109 1.024 2.347 1.024 3.712 0 1.365-.331 2.613-.992 3.744-.662 1.109-1.579 1.995-2.752 2.656-1.152.64-2.432.96-3.84.96h-4.288V906h-3.712v-22.4h8zm-.064 11.136c1.109 0 2.037-.363 2.784-1.088.768-.725 1.152-1.632 1.152-2.72 0-1.088-.384-1.984-1.152-2.688-.747-.725-1.675-1.088-2.784-1.088h-4.224v7.584h4.224zm18.034-1.12l5.12-10.016h3.968l-7.328 13.888V906h-3.712v-8.512l-7.296-13.888h4.096l5.152 10.016zM277.768 1677.22c0 2.71-.884 5-2.652 6.87-1.733 1.84-4.195 2.96-7.384 3.38v4.99h-5.616v-5.1c-3.085-.55-5.529-1.87-7.332-3.95s-2.773-4.61-2.912-7.59h6.032c.173 1.94.884 3.48 2.132 4.63 1.283 1.14 3.016 1.71 5.2 1.71 2.08 0 3.675-.45 4.784-1.35 1.144-.9 1.716-2.04 1.716-3.43 0-1.11-.347-2.03-1.04-2.76-.659-.76-1.508-1.37-2.548-1.82-1.04-.45-2.461-.98-4.264-1.61-2.357-.8-4.281-1.56-5.772-2.29-1.491-.76-2.773-1.83-3.848-3.22-1.04-1.42-1.56-3.26-1.56-5.51 0-2.57.832-4.75 2.496-6.55 1.664-1.84 3.969-2.99 6.916-3.44v-5.04h5.616v5.15c2.808.55 5.061 1.85 6.76 3.9 1.699 2.04 2.617 4.47 2.756 7.28h-6.032c-.104-1.8-.728-3.26-1.872-4.37-1.144-1.11-2.669-1.66-4.576-1.66-1.907 0-3.397.45-4.472 1.35-1.04.9-1.56 2.06-1.56 3.48 0 1.08.329 1.98.988 2.71.693.69 1.543 1.26 2.548 1.71 1.04.45 2.444.96 4.212 1.51 2.427.8 4.368 1.56 5.824 2.29 1.491.69 2.773 1.75 3.848 3.17 1.075 1.42 1.612 3.28 1.612 5.56zm3.026-20.07l9.308-6.55h4.576v36.4h-6.032v-28.81l-5.044 3.54-2.808-4.58zm23.365 23.25c1.075 0 1.959.38 2.652 1.14.694.73 1.04 1.7 1.04 2.91 0 2.15-.572 4.09-1.716 5.83-1.109 1.76-2.305 3.17-3.588 4.21l-1.144-1.46c.59-.76 1.11-1.58 1.56-2.44.451-.83.763-1.82.936-2.97-.97-.07-1.768-.45-2.392-1.14-.624-.69-.936-1.53-.936-2.5 0-1 .347-1.85 1.04-2.54.694-.7 1.543-1.04 2.548-1.04zm25.996-12.33c1.733.7 3.172 1.79 4.316 3.28 1.144 1.45 1.716 3.34 1.716 5.67 0 1.87-.52 3.62-1.56 5.25s-2.514 2.93-4.42 3.9c-1.872.97-4.039 1.45-6.5 1.45-2.496 0-4.698-.48-6.604-1.45-1.872-.97-3.346-2.26-4.42-3.85-1.04-1.63-1.664-3.4-1.872-5.3h6.032c.173 1.28.866 2.44 2.08 3.48 1.213 1.04 2.79 1.56 4.732 1.56 2.01 0 3.588-.5 4.732-1.51 1.178-1.04 1.768-2.37 1.768-4 0-1.67-.59-3-1.768-4.01-1.179-1.04-2.826-1.56-4.94-1.56h-2.6v-5.04h2.34c1.906 0 3.397-.47 4.472-1.4 1.109-.97 1.664-2.22 1.664-3.75 0-1.52-.538-2.77-1.612-3.74-1.04-1.01-2.444-1.51-4.212-1.51-1.734 0-3.155.49-4.264 1.46-1.11.93-1.734 2.06-1.872 3.38h-6.032c.138-1.84.728-3.56 1.768-5.15 1.074-1.6 2.513-2.86 4.316-3.8 1.802-.97 3.813-1.45 6.032-1.45 2.322 0 4.385.48 6.188 1.45 1.802.94 3.206 2.2 4.212 3.8 1.005 1.56 1.508 3.27 1.508 5.15 0 1.73-.486 3.24-1.456 4.52-.971 1.28-2.219 2.34-3.744 3.17zm28.386 0c1.734.7 3.172 1.79 4.316 3.28 1.144 1.45 1.716 3.34 1.716 5.67 0 1.87-.52 3.62-1.56 5.25s-2.513 2.93-4.42 3.9c-1.872.97-4.038 1.45-6.5 1.45-2.496 0-4.697-.48-6.604-1.45-1.872-.97-3.345-2.26-4.42-3.85-1.04-1.63-1.664-3.4-1.872-5.3h6.032c.174 1.28.867 2.44 2.08 3.48 1.214 1.04 2.791 1.56 4.732 1.56 2.011 0 3.588-.5 4.732-1.51 1.179-1.04 1.768-2.37 1.768-4 0-1.67-.589-3-1.768-4.01-1.178-1.04-2.825-1.56-4.94-1.56h-2.6v-5.04h2.34c1.907 0 3.398-.47 4.472-1.4 1.11-.97 1.664-2.22 1.664-3.75 0-1.52-.537-2.77-1.612-3.74-1.04-1.01-2.444-1.51-4.212-1.51-1.733 0-3.154.49-4.264 1.46-1.109.93-1.733 2.06-1.872 3.38h-6.032c.139-1.84.728-3.56 1.768-5.15 1.075-1.6 2.514-2.86 4.316-3.8 1.803-.97 3.814-1.45 6.032-1.45 2.323 0 4.386.48 6.188 1.45 1.803.94 3.207 2.2 4.212 3.8 1.006 1.56 1.508 3.27 1.508 5.15 0 1.73-.485 3.24-1.456 4.52-.97 1.28-2.218 2.34-3.744 3.17zm8.132-11.7v-5.77h23.712v4.73L376.917 1687h-6.448l13.104-30.63h-16.9zm25.542 31.25c-1.04 0-1.907-.34-2.6-1.04-.693-.72-1.04-1.59-1.04-2.6 0-1 .347-1.85 1.04-2.54.693-.7 1.56-1.04 2.6-1.04s1.907.34 2.6 1.04c.693.69 1.04 1.54 1.04 2.54 0 1.01-.347 1.88-1.04 2.6-.693.7-1.56 1.04-2.6 1.04zm21.004-25.37c2.357 0 4.472.55 6.344 1.66 1.906 1.11 3.397 2.64 4.472 4.58 1.109 1.9 1.664 4.05 1.664 6.45 0 2.32-.572 4.45-1.716 6.39-1.11 1.94-2.652 3.49-4.628 4.63-1.976 1.11-4.195 1.66-6.656 1.66-2.462 0-4.68-.55-6.656-1.66-1.976-1.14-3.536-2.69-4.68-4.63-1.11-1.94-1.664-4.07-1.664-6.39 0-1.88.346-3.61 1.04-5.2.728-1.63 1.646-3.28 2.756-4.94l9.516-14.2h6.448l-8.008 11.86c.624-.14 1.213-.21 1.768-.21zm-.52 19.81c1.976 0 3.622-.66 4.94-1.98 1.352-1.35 2.028-3.08 2.028-5.2 0-2.11-.676-3.83-2.028-5.14-1.318-1.36-2.964-2.03-4.94-2.03-2.011 0-3.675.67-4.992 2.03-1.318 1.31-1.976 3.03-1.976 5.14 0 2.12.658 3.85 1.976 5.2 1.317 1.32 2.981 1.98 4.992 1.98zm28.637-32.08c2.461 0 4.68.57 6.656 1.71 1.976 1.11 3.518 2.64 4.628 4.58 1.144 1.94 1.716 4.07 1.716 6.39 0 1.88-.364 3.63-1.092 5.26-.728 1.63-1.647 3.25-2.756 4.88l-9.464 14.2h-6.448l8.008-11.86c-.624.14-1.214.21-1.768.21-2.358 0-4.49-.55-6.396-1.66-1.872-1.11-3.363-2.62-4.472-4.53-1.075-1.94-1.612-4.1-1.612-6.5 0-2.32.554-4.45 1.664-6.39 1.144-1.94 2.704-3.47 4.68-4.58 1.976-1.14 4.194-1.71 6.656-1.71zm0 19.91c2.01 0 3.674-.66 4.992-1.97 1.317-1.36 1.976-3.09 1.976-5.2 0-2.12-.659-3.83-1.976-5.15-1.318-1.35-2.982-2.03-4.992-2.03-1.976 0-3.64.68-4.992 2.03-1.318 1.32-1.976 3.03-1.976 5.15 0 2.11.658 3.84 1.976 5.2 1.352 1.31 3.016 1.97 4.992 1.97z" fill="#fff" fill-opacity=".5"/><path d="M132.183 1711.12c41.595 0 75.058-33.47 75.058-75.06 0-41.6-33.463-75.06-75.058-75.06-41.5949 0-75.058 33.46-75.058 75.06 0 41.59 33.4631 75.06 75.058 75.06z" fill="#FFFCFB"/><path d="M206.741 1636.06c0 41.32-33.239 74.56-74.558 74.56-41.3188 0-74.558-33.24-74.558-74.56s33.2392-74.56 74.558-74.56c41.319 0 74.558 33.24 74.558 74.56z" stroke="url(#paint25_linear_5338_8253)" stroke-opacity=".39"/><mask id="c" style="mask-type:alpha" maskUnits="userSpaceOnUse" x="57" y="1561" width="151" height="151"><path d="M132.175 1711.12c41.595 0 75.058-33.47 75.058-75.06 0-41.6-33.463-75.06-75.058-75.06-41.5947 0-75.0578 33.46-75.0578 75.06 0 41.59 33.4631 75.06 75.0578 75.06z" fill="#2775CA"/></mask><g filter="url(#filter17_f_5338_8253)" mask="url(#c)"><path d="M176.152 1576.74c-82.4235-9.89-100.8315 67.86-99.7325 107.98-14.5614-20.61-33.9582-70.06 4.9458-103.03 38.9037-32.97 79.4017-17.04 94.7867-4.95z" fill="#fff" fill-opacity=".6"/></g><path d="M100.759 1655.18c.562-.56 1.335-.89 2.155-.89h74.327c1.358 0 2.037 1.64 1.077 2.6l-14.683 14.69c-.562.56-1.335.89-2.154.89H87.1538c-1.3582 0-2.0373-1.64-1.0772-2.6l14.6824-14.69z" fill="url(#paint26_linear_5338_8253)"/><path d="M100.759 1600.36c.586-.56 1.359-.89 2.155-.89h74.327c1.358 0 2.037 1.64 1.077 2.6l-14.683 14.69c-.562.56-1.335.89-2.154.89H87.1538c-1.3582 0-2.0373-1.64-1.0772-2.6l14.6824-14.69z" fill="url(#paint27_linear_5338_8253)"/><path d="M163.635 1627.6c-.562-.56-1.335-.89-2.154-.89H87.1538c-1.3582 0-2.0373 1.64-1.0772 2.6l14.6824 14.68c.562.56 1.335.89 2.155.89h74.327c1.358 0 2.037-1.64 1.077-2.6l-14.683-14.68z" fill="url(#paint28_linear_5338_8253)"/><circle opacity=".2" cx="136.5" cy="1884.5" r="79.5" fill="#443E52"/><circle opacity=".2" cx="136.5" cy="2138.5" r="79.5" fill="#443E52"/><g opacity=".2" filter="url(#filter18_d_5338_8253)"><rect x="248" y="1834" width="86" height="41" rx="15" fill="#443E52"/><rect x="248.5" y="1834.5" width="85" height="40" rx="14.5" stroke="url(#paint29_linear_5338_8253)" stroke-opacity=".1"/></g><g opacity=".2" filter="url(#filter19_d_5338_8253)"><rect x="248" y="2088" width="86" height="41" rx="15" fill="#443E52"/><rect x="248.5" y="2088.5" width="85" height="40" rx="14.5" stroke="url(#paint30_linear_5338_8253)" stroke-opacity=".1"/></g><g opacity=".2" filter="url(#filter20_d_5338_8253)"><rect x="248" y="1891" width="158" height="41" rx="15" fill="#443E52"/><rect x="248.5" y="1891.5" width="157" height="40" rx="14.5" stroke="url(#paint31_linear_5338_8253)" stroke-opacity=".1"/></g><g opacity=".2" filter="url(#filter21_d_5338_8253)"><rect x="248" y="2145" width="158" height="41" rx="15" fill="#443E52"/><rect x="248.5" y="2145.5" width="157" height="40" rx="14.5" stroke="url(#paint32_linear_5338_8253)" stroke-opacity=".1"/></g><g opacity=".2" filter="url(#filter22_d_5338_8253)"><rect x="881" y="1827" width="185" height="64" rx="15" fill="#443E52"/><rect x="881.5" y="1827.5" width="184" height="63" rx="14.5" stroke="url(#paint33_linear_5338_8253)" stroke-opacity=".1"/></g><g opacity=".2" filter="url(#filter23_d_5338_8253)"><rect x="881" y="2088" width="185" height="64" rx="15" fill="#443E52"/><rect x="881.5" y="2088.5" width="184" height="63" rx="14.5" stroke="url(#paint34_linear_5338_8253)" stroke-opacity=".1"/></g><path fill="url(#paint35_linear_5338_8253)" d="M42 1511h1030v2H42z"/><path fill="url(#paint36_linear_5338_8253)" d="M42 1759h1030v2H42z"/><path fill="url(#paint37_linear_5338_8253)" d="M42 2013h1030v2H42z"/><path d="M265.184 1624.62c-2.635 0-4.94-.5-6.916-1.5-1.976-1.01-3.519-2.4-4.628-4.16-1.075-1.81-1.664-3.85-1.768-6.14h6.032c.173 1.94.884 3.48 2.132 4.63 1.283 1.14 3.016 1.71 5.2 1.71 2.08 0 3.675-.45 4.784-1.35 1.144-.9 1.716-2.04 1.716-3.43 0-1.11-.347-2.03-1.04-2.76-.659-.76-1.508-1.37-2.548-1.82-1.04-.45-2.461-.98-4.264-1.61-2.357-.8-4.281-1.56-5.772-2.29-1.491-.76-2.773-1.83-3.848-3.22-1.04-1.42-1.56-3.26-1.56-5.51 0-1.94.485-3.68 1.456-5.2.971-1.56 2.357-2.78 4.16-3.64 1.837-.9 3.987-1.35 6.448-1.35 2.427 0 4.559.5 6.396 1.5 1.872 1.01 3.328 2.4 4.368 4.16 1.04 1.74 1.612 3.68 1.716 5.83h-6.032c-.104-1.8-.728-3.26-1.872-4.37-1.144-1.11-2.669-1.66-4.576-1.66-1.907 0-3.397.45-4.472 1.35-1.04.9-1.56 2.06-1.56 3.48 0 1.08.329 1.98.988 2.71.693.69 1.543 1.26 2.548 1.71 1.04.45 2.444.96 4.212 1.51 2.427.8 4.368 1.56 5.824 2.29 1.491.69 2.773 1.75 3.848 3.17 1.075 1.42 1.612 3.28 1.612 5.56 0 2.01-.503 3.8-1.508 5.36-.971 1.56-2.409 2.79-4.316 3.69-1.872.9-4.125 1.35-6.76 1.35zm34.174 0c-3.12 0-6.032-.83-8.736-2.49-2.669-1.67-4.801-3.94-6.396-6.81-1.595-2.88-2.392-6.05-2.392-9.52 0-3.47.797-6.64 2.392-9.52 1.595-2.87 3.727-5.14 6.396-6.81 2.704-1.66 5.616-2.49 8.736-2.49 3.12 0 6.015.83 8.684 2.49 2.704 1.67 4.853 3.94 6.448 6.81 1.595 2.88 2.392 6.05 2.392 9.52 0 3.47-.797 6.64-2.392 9.52-1.595 2.87-3.744 5.14-6.448 6.81-2.669 1.66-5.564 2.49-8.684 2.49zm0-5.77c2.045 0 3.935-.55 5.668-1.66 1.768-1.15 3.172-2.71 4.212-4.68 1.075-1.98 1.612-4.21 1.612-6.71s-.537-4.73-1.612-6.71c-1.04-1.97-2.444-3.52-4.212-4.63-1.733-1.14-3.623-1.71-5.668-1.71s-3.952.57-5.72 1.71c-1.733 1.11-3.137 2.66-4.212 4.63-1.04 1.98-1.56 4.21-1.56 6.71s.52 4.73 1.56 6.71c1.075 1.97 2.479 3.53 4.212 4.68 1.768 1.11 3.675 1.66 5.72 1.66zm46.751 5.15h-23.296v-36.4h6.032v30.63h17.264v5.77z" fill="#fff"/><g filter="url(#filter24_d_5338_8253)"><path d="M868.109 1694.33l29.48-29.49m0 0h-18.114m18.114 0l-.001 17.81" stroke="#AFD803" stroke-width="5" stroke-linecap="round" stroke-linejoin="round"/></g><path d="M939.521 1685.35c0 2.39-.782 4.42-2.346 6.07-1.533 1.63-3.711 2.63-6.532 2.99v4.42h-4.968v-4.51c-2.729-.49-4.891-1.65-6.486-3.49-1.595-1.84-2.453-4.08-2.576-6.72h5.336c.153 1.72.782 3.08 1.886 4.09 1.135 1.02 2.668 1.52 4.6 1.52 1.84 0 3.251-.4 4.232-1.19 1.012-.8 1.518-1.81 1.518-3.04 0-.98-.307-1.79-.92-2.44-.583-.67-1.334-1.21-2.254-1.61-.92-.4-2.177-.87-3.772-1.42-2.085-.71-3.787-1.38-5.106-2.03-1.319-.67-2.453-1.62-3.404-2.85-.92-1.26-1.38-2.88-1.38-4.88 0-2.27.736-4.2 2.208-5.79 1.472-1.63 3.511-2.64 6.118-3.04v-4.46h4.968v4.55c2.484.49 4.477 1.64 5.98 3.45 1.503 1.81 2.315 3.96 2.438 6.44h-5.336c-.092-1.59-.644-2.88-1.656-3.86s-2.361-1.47-4.048-1.47c-1.687 0-3.005.4-3.956 1.19-.92.8-1.38 1.83-1.38 3.09 0 .95.291 1.74.874 2.39.613.61 1.365 1.12 2.254 1.52.92.39 2.162.84 3.726 1.33 2.147.71 3.864 1.38 5.152 2.02 1.319.62 2.453 1.55 3.404 2.81.951 1.26 1.426 2.9 1.426 4.92zm22.457-2.57h3.404v4.92h-3.404v6.3h-5.198v-6.3h-14.49v-4.56l13.432-21.34h6.256v20.98zm-5.198 0v-13.8l-8.694 13.8h8.694zm18.82 6.11h13.248v5.11h-21.114v-4.09l11.178-11.41c1.748-1.75 2.959-3.13 3.634-4.14.705-1.04 1.058-2.21 1.058-3.5 0-1.38-.506-2.5-1.518-3.36-.981-.89-2.285-1.33-3.91-1.33-1.656 0-3.005.51-4.048 1.52-1.043.98-1.579 2.27-1.61 3.86h-5.198c.031-1.9.506-3.63 1.426-5.2.951-1.59 2.239-2.83 3.864-3.72 1.656-.92 3.511-1.38 5.566-1.38 2.116 0 3.987.41 5.612 1.24 1.656.83 2.929 1.96 3.818 3.4.889 1.45 1.334 3.04 1.334 4.79 0 1.99-.521 3.8-1.564 5.43-1.012 1.62-2.545 3.48-4.6 5.56l-7.176 7.22zm20.196 5.66c-.92 0-1.687-.3-2.3-.92-.613-.64-.92-1.41-.92-2.3 0-.89.307-1.64.92-2.25.613-.62 1.38-.92 2.3-.92.92 0 1.687.3 2.3.92.613.61.92 1.36.92 2.25 0 .89-.307 1.66-.92 2.3-.613.62-1.38.92-2.3.92zm18.944 0c-2.27 0-4.35-.63-6.25-1.88-1.87-1.29-3.36-3.19-4.46-5.71-1.11-2.51-1.66-5.53-1.66-9.06 0-3.53.55-6.55 1.66-9.06 1.1-2.52 2.59-4.4 4.46-5.66 1.9-1.29 3.98-1.93 6.25-1.93s4.34.64 6.21 1.93c1.91 1.26 3.41 3.14 4.51 5.66 1.11 2.51 1.66 5.53 1.66 9.06 0 3.53-.55 6.55-1.66 9.06-1.1 2.52-2.6 4.42-4.51 5.71-1.87 1.25-3.94 1.88-6.21 1.88zm0-5.1c1.29 0 2.46-.4 3.5-1.2 1.07-.83 1.93-2.1 2.58-3.82.64-1.75.96-3.92.96-6.53 0-2.61-.32-4.77-.96-6.49-.65-1.74-1.51-3.02-2.58-3.81-1.04-.83-2.21-1.25-3.5-1.25-1.28 0-2.46.42-3.54 1.25-1.04.79-1.88 2.07-2.53 3.81-.64 1.72-.96 3.88-.96 6.49 0 2.61.32 4.78.96 6.53.65 1.72 1.49 2.99 2.53 3.82 1.08.8 2.26 1.2 3.54 1.2zm28.17 5.1c-2.27 0-4.35-.63-6.26-1.88-1.87-1.29-3.35-3.19-4.46-5.71-1.1-2.51-1.65-5.53-1.65-9.06 0-3.53.55-6.55 1.65-9.06 1.11-2.52 2.59-4.4 4.46-5.66 1.91-1.29 3.99-1.93 6.26-1.93 2.27 0 4.34.64 6.21 1.93 1.9 1.26 3.4 3.14 4.51 5.66 1.1 2.51 1.65 5.53 1.65 9.06 0 3.53-.55 6.55-1.65 9.06-1.11 2.52-2.61 4.42-4.51 5.71-1.87 1.25-3.94 1.88-6.21 1.88zm0-5.1c1.29 0 2.45-.4 3.5-1.2 1.07-.83 1.93-2.1 2.57-3.82.65-1.75.97-3.92.97-6.53 0-2.61-.32-4.77-.97-6.49-.64-1.74-1.5-3.02-2.57-3.81-1.05-.83-2.21-1.25-3.5-1.25s-2.47.42-3.54 1.25c-1.04.79-1.89 2.07-2.53 3.81-.65 1.72-.97 3.88-.97 6.49 0 2.61.32 4.78.97 6.53.64 1.72 1.49 2.99 2.53 3.82 1.07.8 2.25 1.2 3.54 1.2z" fill="#AFD803"/><path d="M843.106 1622.34c0 3.23-1.054 5.96-3.162 8.19-2.067 2.19-5.001 3.53-8.804 4.03v5.95h-6.696v-6.08c-3.679-.66-6.593-2.23-8.742-4.71-2.149-2.48-3.307-5.5-3.472-9.05h7.192c.207 2.31 1.054 4.15 2.542 5.52 1.529 1.36 3.596 2.04 6.2 2.04 2.48 0 4.381-.53 5.704-1.61 1.364-1.07 2.046-2.44 2.046-4.09 0-1.32-.413-2.42-1.24-3.29-.785-.91-1.798-1.63-3.038-2.17-1.24-.53-2.935-1.17-5.084-1.92-2.811-.95-5.105-1.86-6.882-2.73-1.777-.91-3.307-2.19-4.588-3.84-1.24-1.69-1.86-3.89-1.86-6.57 0-3.06.992-5.66 2.976-7.81 1.984-2.19 4.733-3.56 8.246-4.1v-6.01h6.696v6.14c3.348.66 6.035 2.21 8.06 4.65 2.025 2.44 3.121 5.33 3.286 8.68h-7.192c-.124-2.15-.868-3.89-2.232-5.21-1.364-1.32-3.183-1.98-5.456-1.98-2.273 0-4.051.53-5.332 1.61-1.24 1.07-1.86 2.46-1.86 4.15 0 1.28.393 2.36 1.178 3.23.827.82 1.839 1.5 3.038 2.04 1.24.54 2.914 1.14 5.022 1.8 2.893.95 5.208 1.86 6.944 2.73 1.777.82 3.307 2.09 4.588 3.78 1.281 1.69 1.922 3.91 1.922 6.63zm3.608-23.93l11.098-7.81h5.456v43.4h-7.192v-34.35l-6.014 4.22-3.348-5.46zm27.859 27.72c1.281 0 2.335.45 3.162 1.36.826.87 1.24 2.03 1.24 3.47 0 2.56-.682 4.88-2.046 6.95-1.323 2.1-2.749 3.78-4.278 5.02l-1.364-1.74c.702-.91 1.322-1.88 1.86-2.91.537-.99.909-2.17 1.116-3.54-1.158-.08-2.108-.53-2.852-1.36-.744-.83-1.116-1.82-1.116-2.98 0-1.19.413-2.21 1.24-3.03.826-.83 1.839-1.24 3.038-1.24zm30.994-14.7c2.067.83 3.782 2.13 5.146 3.91 1.364 1.73 2.046 3.99 2.046 6.76 0 2.23-.62 4.32-1.86 6.26-1.24 1.94-2.996 3.49-5.27 4.65-2.232 1.16-4.815 1.73-7.75 1.73-2.976 0-5.6-.57-7.874-1.73-2.232-1.16-3.988-2.69-5.27-4.59-1.24-1.94-1.984-4.05-2.232-6.32h7.192c.207 1.53 1.034 2.91 2.48 4.15 1.447 1.24 3.328 1.86 5.642 1.86 2.398 0 4.278-.6 5.642-1.8 1.406-1.24 2.108-2.83 2.108-4.77 0-1.99-.702-3.58-2.108-4.78-1.405-1.24-3.368-1.86-5.89-1.86h-3.1v-6.01h2.79c2.274 0 4.051-.56 5.332-1.67 1.323-1.16 1.984-2.65 1.984-4.47 0-1.82-.64-3.3-1.922-4.46-1.24-1.2-2.914-1.8-5.022-1.8-2.066 0-3.761.58-5.084 1.74-1.322 1.11-2.066 2.46-2.232 4.03h-7.192c.166-2.19.868-4.24 2.108-6.14 1.282-1.9 2.997-3.41 5.146-4.53 2.15-1.16 4.547-1.73 7.192-1.73 2.77 0 5.229.57 7.378 1.73 2.15 1.12 3.824 2.63 5.022 4.53 1.199 1.86 1.798 3.9 1.798 6.14 0 2.06-.578 3.86-1.736 5.39-1.157 1.53-2.645 2.79-4.464 3.78zm33.846 0c2.067.83 3.782 2.13 5.146 3.91 1.364 1.73 2.046 3.99 2.046 6.76 0 2.23-.62 4.32-1.86 6.26-1.24 1.94-2.997 3.49-5.27 4.65-2.232 1.16-4.815 1.73-7.75 1.73-2.976 0-5.601-.57-7.874-1.73-2.232-1.16-3.989-2.69-5.27-4.59-1.24-1.94-1.984-4.05-2.232-6.32h7.192c.207 1.53 1.033 2.91 2.48 4.15 1.447 1.24 3.327 1.86 5.642 1.86 2.397 0 4.278-.6 5.642-1.8 1.405-1.24 2.108-2.83 2.108-4.77 0-1.99-.703-3.58-2.108-4.78-1.405-1.24-3.369-1.86-5.89-1.86h-3.1v-6.01h2.79c2.273 0 4.051-.56 5.332-1.67 1.323-1.16 1.984-2.65 1.984-4.47 0-1.82-.641-3.3-1.922-4.46-1.24-1.2-2.914-1.8-5.022-1.8-2.067 0-3.761.58-5.084 1.74-1.323 1.11-2.067 2.46-2.232 4.03h-7.192c.165-2.19.868-4.24 2.108-6.14 1.281-1.9 2.997-3.41 5.146-4.53 2.149-1.16 4.547-1.73 7.192-1.73 2.769 0 5.229.57 7.378 1.73 2.149 1.12 3.823 2.63 5.022 4.53 1.199 1.86 1.798 3.9 1.798 6.14 0 2.06-.579 3.86-1.736 5.39-1.157 1.53-2.645 2.79-4.464 3.78zm9.695-13.95v-6.88h28.272v5.64L961.322 1634h-7.688l15.624-36.52h-20.15zm30.454 37.26c-1.24 0-2.273-.41-3.1-1.24-.826-.86-1.24-1.9-1.24-3.1 0-1.19.414-2.21 1.24-3.03.827-.83 1.86-1.24 3.1-1.24s2.274.41 3.1 1.24c.827.82 1.24 1.84 1.24 3.03 0 1.2-.413 2.24-1.24 3.1-.826.83-1.86 1.24-3.1 1.24zm25.038-30.25c2.82 0 5.34.66 7.57 1.98 2.27 1.32 4.05 3.14 5.33 5.46 1.32 2.27 1.98 4.83 1.98 7.69 0 2.77-.68 5.31-2.04 7.62-1.32 2.32-3.16 4.16-5.52 5.52-2.36 1.32-5 1.98-7.94 1.98-2.93 0-5.575-.66-7.931-1.98-2.356-1.36-4.216-3.2-5.58-5.52-1.323-2.31-1.984-4.85-1.984-7.62 0-2.24.413-4.3 1.24-6.2.868-1.95 1.963-3.91 3.286-5.89l11.349-16.93h7.68l-9.54 14.14c.74-.17 1.44-.25 2.1-.25zm-.62 23.62c2.36 0 4.32-.79 5.89-2.36 1.62-1.61 2.42-3.67 2.42-6.2 0-2.52-.8-4.56-2.42-6.13-1.57-1.62-3.53-2.42-5.89-2.42-2.39 0-4.376.8-5.947 2.42-1.571 1.57-2.356 3.61-2.356 6.13 0 2.53.785 4.59 2.356 6.2 1.571 1.57 3.557 2.36 5.947 2.36zm34.15-38.25c2.93 0 5.58.68 7.93 2.04 2.36 1.32 4.2 3.14 5.52 5.46 1.37 2.31 2.05 4.85 2.05 7.62 0 2.24-.44 4.32-1.3 6.27-.87 1.94-1.97 3.88-3.29 5.82l-11.28 16.93h-7.69l9.55-14.14c-.75.17-1.45.25-2.11.25-2.81 0-5.35-.66-7.63-1.98-2.23-1.32-4.01-3.12-5.33-5.4-1.28-2.31-1.92-4.89-1.92-7.75 0-2.77.66-5.31 1.98-7.62 1.37-2.32 3.23-4.14 5.58-5.46 2.36-1.36 5-2.04 7.94-2.04zm0 23.74c2.4 0 4.38-.78 5.95-2.35 1.57-1.62 2.36-3.68 2.36-6.2 0-2.53-.79-4.57-2.36-6.14-1.57-1.61-3.55-2.42-5.95-2.42-2.36 0-4.34.81-5.95 2.42-1.57 1.57-2.36 3.61-2.36 6.14 0 2.52.79 4.58 2.36 6.2 1.61 1.57 3.59 2.35 5.95 2.35zM114.112 1413.8v7.33H91.738v13.13h19.338v7.06H91.738V1460h-7.656v-46.2h30.03zm16.972 12.01c4.048 0 7.282 1.26 9.702 3.76 2.42 2.47 3.63 5.75 3.63 9.84V1460h-5.412l-1.32-3.76h-.33c-.924 1.19-2.2 2.24-3.828 3.17-1.584.92-3.564 1.38-5.94 1.38-2.112 0-4.026-.44-5.742-1.32-1.716-.92-3.058-2.13-4.026-3.63-.968-1.54-1.452-3.21-1.452-5.01 0-2.2.638-4.12 1.914-5.75 1.32-1.67 3.146-2.94 5.478-3.82 2.376-.88 5.082-1.32 8.118-1.32h5.346v-1.13c0-1.98-.572-3.54-1.716-4.68-1.1-1.19-2.596-1.78-4.488-1.78-1.672 0-3.014.44-4.026 1.32-1.012.83-1.628 1.87-1.848 3.1h-7.26c.22-1.94.858-3.74 1.914-5.41 1.1-1.68 2.618-3.02 4.554-4.03 1.936-1.01 4.18-1.52 6.732-1.52zm-1.98 28.84c2.42 0 4.378-.72 5.874-2.17 1.496-1.46 2.244-3.19 2.244-5.22v-2.11h-5.28c-2.772 0-4.862.46-6.27 1.39-1.364.88-2.046 2.11-2.046 3.69 0 1.32.462 2.4 1.386 3.24.968.79 2.332 1.18 4.092 1.18zm35.303-3.43l8.91-24.62h7.392l-12.936 33.4h-6.996l-12.936-33.4h7.656l8.91 24.62zm34.66 9.57c-2.992 0-5.764-.77-8.316-2.31-2.508-1.58-4.51-3.72-6.006-6.4-1.496-2.68-2.244-5.61-2.244-8.78 0-3.21.748-6.14 2.244-8.78 1.496-2.68 3.498-4.79 6.006-6.33 2.552-1.59 5.324-2.38 8.316-2.38 2.992 0 5.742.79 8.25 2.38 2.552 1.54 4.576 3.65 6.072 6.33 1.496 2.64 2.244 5.57 2.244 8.78 0 3.17-.748 6.1-2.244 8.78-1.496 2.68-3.52 4.82-6.072 6.4-2.508 1.54-5.258 2.31-8.25 2.31zm0-6.73c1.716 0 3.278-.46 4.686-1.39 1.452-.92 2.596-2.2 3.432-3.82.836-1.63 1.254-3.48 1.254-5.55s-.418-3.91-1.254-5.54c-.836-1.63-1.98-2.91-3.432-3.83-1.408-.92-2.97-1.39-4.686-1.39-1.716 0-3.3.47-4.752 1.39-1.408.92-2.53 2.2-3.366 3.83-.836 1.63-1.254 3.47-1.254 5.54s.418 3.92 1.254 5.55c.836 1.62 1.958 2.9 3.366 3.82 1.452.93 3.036 1.39 4.752 1.39zm23.118 5.94v-33.4h5.412l1.32 3.7h.33c.704-1.01 1.782-2 3.234-2.97 1.452-1.01 3.124-1.52 5.016-1.52 1.1 0 2.024.09 2.772.27v7.26c-.836-.18-1.826-.27-2.97-.27-2.332 0-4.224.75-5.676 2.25-1.452 1.49-2.178 3.56-2.178 6.2V1460h-7.26zm30.27 0h-7.26v-33.4h7.26v33.4zm-3.63-38.08c-1.188 0-2.2-.4-3.036-1.19-.836-.84-1.254-1.85-1.254-3.04 0-1.23.418-2.24 1.254-3.03.836-.84 1.848-1.26 3.036-1.26s2.178.42 2.97 1.26c.836.79 1.254 1.8 1.254 3.03 0 1.19-.418 2.2-1.254 3.04-.792.79-1.782 1.19-2.97 1.19zm24.77 38.87c-3.124 0-5.654-1.03-7.59-3.1-1.936-2.07-2.904-4.91-2.904-8.51v-16.04h-5.478V1427h2.376c1.32 0 2.31-.33 2.97-.99.704-.7 1.056-1.69 1.056-2.97v-5.02h6.27v8.58h7.26v6.54h-7.26v15.44c0 1.81.44 3.17 1.32 4.09.88.88 2.09 1.32 3.63 1.32.924 0 1.694-.15 2.31-.46v6.6c-1.144.44-2.464.66-3.96.66zm40.312-18.21c0 1.4-.132 2.59-.396 3.56h-24.75c.44 2.51 1.496 4.49 3.168 5.94 1.672 1.45 3.696 2.18 6.072 2.18 1.716 0 3.168-.33 4.356-.99 1.188-.66 2.134-1.5 2.838-2.51h7.524c-.66 1.67-1.694 3.28-3.102 4.82-1.364 1.54-3.058 2.79-5.082 3.76-1.98.97-4.136 1.45-6.468 1.45-3.036 0-5.83-.77-8.382-2.31-2.508-1.54-4.51-3.63-6.006-6.27-1.452-2.68-2.178-5.65-2.178-8.91 0-3.21.748-6.14 2.244-8.78 1.496-2.68 3.498-4.79 6.006-6.33 2.552-1.59 5.302-2.38 8.25-2.38 2.948 0 5.632.75 8.052 2.25 2.42 1.45 4.334 3.45 5.742 6 1.408 2.55 2.112 5.39 2.112 8.52zm-15.906-10.23c-2.288 0-4.29.77-6.006 2.31-1.716 1.49-2.794 3.49-3.234 6h18.084c-.396-2.46-1.408-4.46-3.036-6-1.628-1.54-3.564-2.31-5.808-2.31zm74.341 27.65h-8.052l-3.762-10.36H341.85l-3.762 10.36H330.3l17.358-46.2h7.392l17.292 46.2zm-14.322-17.42l-6.798-18.95-6.864 18.95h13.662zm29.489 18.21c-2.552 0-4.818-.48-6.798-1.45-1.936-1.01-3.476-2.35-4.62-4.03-1.1-1.67-1.716-3.49-1.848-5.47h7.128c.132 1.49.748 2.7 1.848 3.63 1.1.88 2.53 1.32 4.29 1.32 1.716 0 3.036-.38 3.96-1.13.968-.74 1.452-1.69 1.452-2.83 0-1.32-.572-2.31-1.716-2.97-1.144-.71-2.948-1.43-5.412-2.18-2.244-.71-4.092-1.41-5.544-2.11-1.408-.71-2.618-1.7-3.63-2.97-1.012-1.28-1.518-2.93-1.518-4.95 0-1.85.484-3.52 1.452-5.02.968-1.5 2.354-2.66 4.158-3.5 1.848-.88 4.004-1.32 6.468-1.32 2.376 0 4.488.49 6.336 1.45 1.892.93 3.366 2.2 4.422 3.83 1.056 1.59 1.65 3.37 1.782 5.35h-7.128c-.176-1.45-.726-2.58-1.65-3.37-.88-.83-2.134-1.25-3.762-1.25-1.54 0-2.728.35-3.564 1.05-.836.66-1.254 1.5-1.254 2.51 0 1.23.55 2.18 1.65 2.84 1.1.62 2.838 1.28 5.214 1.98 2.288.7 4.158 1.41 5.61 2.11 1.452.71 2.706 1.72 3.762 3.04s1.584 3.03 1.584 5.15c0 2.99-1.122 5.45-3.366 7.39-2.244 1.93-5.346 2.9-9.306 2.9zm30.229 0c-2.552 0-4.818-.48-6.798-1.45-1.936-1.01-3.476-2.35-4.62-4.03-1.1-1.67-1.716-3.49-1.848-5.47h7.128c.132 1.49.748 2.7 1.848 3.63 1.1.88 2.53 1.32 4.29 1.32 1.716 0 3.036-.38 3.96-1.13.968-.74 1.452-1.69 1.452-2.83 0-1.32-.572-2.31-1.716-2.97-1.144-.71-2.948-1.43-5.412-2.18-2.244-.71-4.092-1.41-5.544-2.11-1.408-.71-2.618-1.7-3.63-2.97-1.012-1.28-1.518-2.93-1.518-4.95 0-1.85.484-3.52 1.452-5.02.968-1.5 2.354-2.66 4.158-3.5 1.848-.88 4.004-1.32 6.468-1.32 2.376 0 4.488.49 6.336 1.45 1.892.93 3.366 2.2 4.422 3.83 1.056 1.59 1.65 3.37 1.782 5.35h-7.128c-.176-1.45-.726-2.58-1.65-3.37-.88-.83-2.134-1.25-3.762-1.25-1.54 0-2.728.35-3.564 1.05-.836.66-1.254 1.5-1.254 2.51 0 1.23.55 2.18 1.65 2.84 1.1.62 2.838 1.28 5.214 1.98 2.288.7 4.158 1.41 5.61 2.11 1.452.71 2.706 1.72 3.762 3.04s1.584 3.03 1.584 5.15c0 2.99-1.122 5.45-3.366 7.39-2.244 1.93-5.346 2.9-9.306 2.9zm49.632-18.21c0 1.4-.132 2.59-.396 3.56h-24.75c.44 2.51 1.496 4.49 3.168 5.94 1.672 1.45 3.696 2.18 6.072 2.18 1.716 0 3.168-.33 4.356-.99 1.188-.66 2.134-1.5 2.838-2.51h7.524c-.66 1.67-1.694 3.28-3.102 4.82-1.364 1.54-3.058 2.79-5.082 3.76-1.98.97-4.136 1.45-6.468 1.45-3.036 0-5.83-.77-8.382-2.31-2.508-1.54-4.51-3.63-6.006-6.27-1.452-2.68-2.178-5.65-2.178-8.91 0-3.21.748-6.14 2.244-8.78 1.496-2.68 3.498-4.79 6.006-6.33 2.552-1.59 5.302-2.38 8.25-2.38 2.948 0 5.632.75 8.052 2.25 2.42 1.45 4.334 3.45 5.742 6 1.408 2.55 2.112 5.39 2.112 8.52zm-15.906-10.23c-2.288 0-4.29.77-6.006 2.31-1.716 1.49-2.794 3.49-3.234 6h18.084c-.396-2.46-1.408-4.46-3.036-6-1.628-1.54-3.564-2.31-5.808-2.31zm34.439 28.44c-3.124 0-5.654-1.03-7.59-3.1-1.936-2.07-2.904-4.91-2.904-8.51v-16.04h-5.478V1427h2.376c1.32 0 2.31-.33 2.97-.99.704-.7 1.056-1.69 1.056-2.97v-5.02h6.27v8.58h7.26v6.54h-7.26v15.44c0 1.81.44 3.17 1.32 4.09.88.88 2.09 1.32 3.63 1.32.924 0 1.694-.15 2.31-.46v6.6c-1.144.44-2.464.66-3.96.66zm20.909 0c-2.552 0-4.818-.48-6.798-1.45-1.936-1.01-3.476-2.35-4.62-4.03-1.1-1.67-1.716-3.49-1.848-5.47h7.128c.132 1.49.748 2.7 1.848 3.63 1.1.88 2.53 1.32 4.29 1.32 1.716 0 3.036-.38 3.96-1.13.968-.74 1.452-1.69 1.452-2.83 0-1.32-.572-2.31-1.716-2.97-1.144-.71-2.948-1.43-5.412-2.18-2.244-.71-4.092-1.41-5.544-2.11-1.408-.71-2.618-1.7-3.63-2.97-1.012-1.28-1.518-2.93-1.518-4.95 0-1.85.484-3.52 1.452-5.02.968-1.5 2.354-2.66 4.158-3.5 1.848-.88 4.004-1.32 6.468-1.32 2.376 0 4.488.49 6.336 1.45 1.892.93 3.366 2.2 4.422 3.83 1.056 1.59 1.65 3.37 1.782 5.35h-7.128c-.176-1.45-.726-2.58-1.65-3.37-.88-.83-2.134-1.25-3.762-1.25-1.54 0-2.728.35-3.564 1.05-.836.66-1.254 1.5-1.254 2.51 0 1.23.55 2.18 1.65 2.84 1.1.62 2.838 1.28 5.214 1.98 2.288.7 4.158 1.41 5.61 2.11 1.452.71 2.706 1.72 3.762 3.04s1.584 3.03 1.584 5.15c0 2.99-1.122 5.45-3.366 7.39-2.244 1.93-5.346 2.9-9.306 2.9z" fill="#fff"/><g opacity=".3" filter="url(#filter25_d_5338_8253)"><rect x="72" y="380" width="440" height="41" rx="15" fill="#443E52"/><rect x="72.5" y="380.5" width="439" height="40" rx="14.5" stroke="url(#paint38_linear_5338_8253)" stroke-opacity=".1"/></g><g opacity=".3" filter="url(#filter26_d_5338_8253)"><rect x="72" y="437" width="164" height="41" rx="15" fill="#443E52"/><rect x="72.5" y="437.5" width="163" height="40" rx="14.5" stroke="url(#paint39_linear_5338_8253)" stroke-opacity=".1"/></g><path d="M91.738 326.87v12.87h23.496V347H84.082v-46.2h30.492v7.26H91.738v11.748h20.328v7.062H91.738zm42.247-14.058c4.048 0 7.282 1.254 9.702 3.762 2.42 2.464 3.63 5.742 3.63 9.834V347h-5.412l-1.32-3.762h-.33c-.924 1.188-2.2 2.244-3.828 3.168-1.584.924-3.564 1.386-5.94 1.386-2.112 0-4.026-.44-5.742-1.32-1.716-.924-3.058-2.134-4.026-3.63-.968-1.54-1.452-3.212-1.452-5.016 0-2.2.638-4.114 1.914-5.742 1.32-1.672 3.146-2.948 5.478-3.828 2.376-.88 5.082-1.32 8.118-1.32h5.346v-1.122c0-1.98-.572-3.542-1.716-4.686-1.1-1.188-2.596-1.782-4.488-1.782-1.672 0-3.014.44-4.026 1.32-1.012.836-1.628 1.87-1.848 3.102h-7.26c.22-1.936.858-3.74 1.914-5.412 1.1-1.672 2.618-3.014 4.554-4.026 1.936-1.012 4.18-1.518 6.732-1.518zm-1.98 28.842c2.42 0 4.378-.726 5.874-2.178 1.496-1.452 2.244-3.19 2.244-5.214v-2.112h-5.28c-2.772 0-4.862.462-6.27 1.386-1.364.88-2.046 2.112-2.046 3.696 0 1.32.462 2.398 1.386 3.234.968.792 2.332 1.188 4.092 1.188zM155.412 347v-33.396h5.412l1.32 3.696h.33c.704-1.012 1.782-2.002 3.234-2.97 1.452-1.012 3.124-1.518 5.016-1.518 1.1 0 2.024.088 2.772.264v7.26c-.836-.176-1.826-.264-2.97-.264-2.332 0-4.224.748-5.676 2.244-1.452 1.496-2.178 3.564-2.178 6.204V347h-7.26zm23.009 0v-33.396h5.412l1.32 3.696h.33c.748-1.012 1.936-2.002 3.564-2.97 1.672-1.012 3.608-1.518 5.808-1.518 2.596 0 4.906.616 6.93 1.848 2.024 1.188 3.608 2.882 4.752 5.082 1.144 2.2 1.716 4.752 1.716 7.656V347h-7.194v-19.074c0-2.464-.726-4.466-2.178-6.006-1.408-1.584-3.234-2.376-5.478-2.376-2.288 0-4.158.792-5.61 2.376-1.408 1.54-2.112 3.542-2.112 6.006V347h-7.26z" fill="#fff"/><g filter="url(#filter27_d_5338_8253)"><rect x="71.9043" y="65.6523" width="106.294" height="106.294" rx="53.1469" fill="#443E52"/><rect x="72.4043" y="66.1523" width="105.294" height="105.294" rx="52.6469" stroke="url(#paint40_linear_5338_8253)" stroke-opacity=".1"/></g><g filter="url(#filter28_d_5338_8253)"><rect x="989.469" y="65.6533" width="106.294" height="106.294" rx="30" fill="#443E52"/><rect x="989.969" y="66.1533" width="105.294" height="105.294" rx="29.5" stroke="url(#paint41_linear_5338_8253)" stroke-opacity=".1"/></g></g><defs><linearGradient id="paint0_linear_5338_8253" x1="584" y1="2271" x2="584" y2="2427" gradientUnits="userSpaceOnUse"><stop stop-color="#fff"/><stop offset="1" stop-color="#fff" stop-opacity="0"/></linearGradient><linearGradient id="paint1_linear_5338_8253" x1="808.275" y1="2251.14" x2="857.915" y2="2384.73" gradientUnits="userSpaceOnUse"><stop stop-color="#E54033"/><stop offset=".66146" stop-color="#FECA1A"/><stop offset="1" stop-color="#AFD803"/></linearGradient><linearGradient id="paint2_linear_5338_8253" x1="584" y1="745" x2="584" y2="786" gradientUnits="userSpaceOnUse"><stop stop-color="#fff"/><stop offset="1" stop-color="#fff" stop-opacity="0"/></linearGradient><linearGradient id="paint3_linear_5338_8253" x1="584" y1="812" x2="584" y2="853" gradientUnits="userSpaceOnUse"><stop stop-color="#fff"/><stop offset="1" stop-color="#fff" stop-opacity="0"/></linearGradient><linearGradient id="paint4_linear_5338_8253" x1="584" y1="871" x2="584" y2="912" gradientUnits="userSpaceOnUse"><stop stop-color="#fff"/><stop offset="1" stop-color="#fff" stop-opacity="0"/></linearGradient><linearGradient id="paint5_linear_5338_8253" x1="584" y1="1147" x2="584" y2="1188" gradientUnits="userSpaceOnUse"><stop stop-color="#fff"/><stop offset="1" stop-color="#fff" stop-opacity="0"/></linearGradient><linearGradient id="paint6_linear_5338_8253" x1="584" y1="1214" x2="584" y2="1255" gradientUnits="userSpaceOnUse"><stop stop-color="#fff"/><stop offset="1" stop-color="#fff" stop-opacity="0"/></linearGradient><linearGradient id="paint7_linear_5338_8253" x1="584" y1="1273" x2="584" y2="1314" gradientUnits="userSpaceOnUse"><stop stop-color="#fff"/><stop offset="1" stop-color="#fff" stop-opacity="0"/></linearGradient><linearGradient id="paint8_linear_5338_8253" x1="961" y1="1147" x2="961" y2="1188" gradientUnits="userSpaceOnUse"><stop stop-color="#fff"/><stop offset="1" stop-color="#fff" stop-opacity="0"/></linearGradient><linearGradient id="paint9_linear_5338_8253" x1="961" y1="1214" x2="961" y2="1255" gradientUnits="userSpaceOnUse"><stop stop-color="#fff"/><stop offset="1" stop-color="#fff" stop-opacity="0"/></linearGradient><linearGradient id="paint10_linear_5338_8253" x1="961" y1="1273" x2="961" y2="1314" gradientUnits="userSpaceOnUse"><stop stop-color="#fff"/><stop offset="1" stop-color="#fff" stop-opacity="0"/></linearGradient><linearGradient id="paint11_linear_5338_8253" x1="961" y1="745" x2="961" y2="786" gradientUnits="userSpaceOnUse"><stop stop-color="#fff"/><stop offset="1" stop-color="#fff" stop-opacity="0"/></linearGradient><linearGradient id="paint12_linear_5338_8253" x1="961" y1="812" x2="961" y2="853" gradientUnits="userSpaceOnUse"><stop stop-color="#fff"/><stop offset="1" stop-color="#fff" stop-opacity="0"/></linearGradient><linearGradient id="paint13_linear_5338_8253" x1="961" y1="871" x2="961" y2="912" gradientUnits="userSpaceOnUse"><stop stop-color="#fff"/><stop offset="1" stop-color="#fff" stop-opacity="0"/></linearGradient><linearGradient id="paint14_linear_5338_8253" x1="207" y1="1142" x2="207" y2="1183" gradientUnits="userSpaceOnUse"><stop stop-color="#fff"/><stop offset="1" stop-color="#fff" stop-opacity="0"/></linearGradient><linearGradient id="paint15_linear_5338_8253" x1="207" y1="1209" x2="207" y2="1250" gradientUnits="userSpaceOnUse"><stop stop-color="#fff"/><stop offset="1" stop-color="#fff" stop-opacity="0"/></linearGradient><linearGradient id="paint16_linear_5338_8253" x1="207" y1="1268" x2="207" y2="1309" gradientUnits="userSpaceOnUse"><stop stop-color="#fff"/><stop offset="1" stop-color="#fff" stop-opacity="0"/></linearGradient><linearGradient id="paint17_linear_5338_8253" x1="386" y1="595.998" x2="723.427" y2="595.895" gradientUnits="userSpaceOnUse"><stop stop-color="#443E52" stop-opacity="0"/><stop offset=".53646" stop-color="#443E52"/><stop offset="1" stop-color="#443E52" stop-opacity="0"/></linearGradient><linearGradient id="paint18_linear_5338_8253" x1="386" y1="971.998" x2="723.427" y2="971.895" gradientUnits="userSpaceOnUse"><stop stop-color="#443E52" stop-opacity="0"/><stop offset=".53646" stop-color="#443E52"/><stop offset="1" stop-color="#443E52" stop-opacity="0"/></linearGradient><linearGradient id="paint19_linear_5338_8253" x1="784" y1="595.998" x2="1121.43" y2="595.895" gradientUnits="userSpaceOnUse"><stop stop-color="#443E52" stop-opacity="0"/><stop offset=".53646" stop-color="#443E52"/><stop offset="1" stop-color="#443E52" stop-opacity="0"/></linearGradient><linearGradient id="paint20_linear_5338_8253" x1="784" y1="971.998" x2="1121.43" y2="971.895" gradientUnits="userSpaceOnUse"><stop stop-color="#443E52" stop-opacity="0"/><stop offset=".53646" stop-color="#443E52"/><stop offset="1" stop-color="#443E52" stop-opacity="0"/></linearGradient><linearGradient id="paint21_linear_5338_8253" x1="175.283" y1="596.218" x2="236.406" y2="701" gradientUnits="userSpaceOnUse"><stop stop-color="#24DCB3"/><stop offset="1" stop-color="#D428FC"/></linearGradient><linearGradient id="paint22_linear_5338_8253" x1="231.076" y1="610.359" x2="192.355" y2="684.527" gradientUnits="userSpaceOnUse"><stop stop-color="#00FFA3"/><stop offset="1" stop-color="#DC1FFF"/></linearGradient><linearGradient id="paint23_linear_5338_8253" x1="214.145" y1="601.519" x2="175.424" y2="675.686" gradientUnits="userSpaceOnUse"><stop stop-color="#00FFA3"/><stop offset="1" stop-color="#DC1FFF"/></linearGradient><linearGradient id="paint24_linear_5338_8253" x1="222.557" y1="605.911" x2="183.835" y2="680.078" gradientUnits="userSpaceOnUse"><stop stop-color="#00FFA3"/><stop offset="1" stop-color="#DC1FFF"/></linearGradient><linearGradient id="paint25_linear_5338_8253" x1="96.0188" y1="1571.92" x2="177.218" y2="1711.12" gradientUnits="userSpaceOnUse"><stop stop-color="#24DCB3"/><stop offset="1" stop-color="#D428FC"/></linearGradient><linearGradient id="paint26_linear_5338_8253" x1="170.14" y1="1590.7" x2="118.7" y2="1689.23" gradientUnits="userSpaceOnUse"><stop stop-color="#00FFA3"/><stop offset="1" stop-color="#DC1FFF"/></linearGradient><linearGradient id="paint27_linear_5338_8253" x1="147.648" y1="1578.96" x2="96.2077" y2="1677.49" gradientUnits="userSpaceOnUse"><stop stop-color="#00FFA3"/><stop offset="1" stop-color="#DC1FFF"/></linearGradient><linearGradient id="paint28_linear_5338_8253" x1="158.822" y1="1584.79" x2="107.382" y2="1683.32" gradientUnits="userSpaceOnUse"><stop stop-color="#00FFA3"/><stop offset="1" stop-color="#DC1FFF"/></linearGradient><linearGradient id="paint29_linear_5338_8253" x1="291" y1="1834" x2="291" y2="1875" gradientUnits="userSpaceOnUse"><stop stop-color="#fff"/><stop offset="1" stop-color="#fff" stop-opacity="0"/></linearGradient><linearGradient id="paint30_linear_5338_8253" x1="291" y1="2088" x2="291" y2="2129" gradientUnits="userSpaceOnUse"><stop stop-color="#fff"/><stop offset="1" stop-color="#fff" stop-opacity="0"/></linearGradient><linearGradient id="paint31_linear_5338_8253" x1="327" y1="1891" x2="327" y2="1932" gradientUnits="userSpaceOnUse"><stop stop-color="#fff"/><stop offset="1" stop-color="#fff" stop-opacity="0"/></linearGradient><linearGradient id="paint32_linear_5338_8253" x1="327" y1="2145" x2="327" y2="2186" gradientUnits="userSpaceOnUse"><stop stop-color="#fff"/><stop offset="1" stop-color="#fff" stop-opacity="0"/></linearGradient><linearGradient id="paint33_linear_5338_8253" x1="973.5" y1="1827" x2="973.5" y2="1891" gradientUnits="userSpaceOnUse"><stop stop-color="#fff"/><stop offset="1" stop-color="#fff" stop-opacity="0"/></linearGradient><linearGradient id="paint34_linear_5338_8253" x1="973.5" y1="2088" x2="973.5" y2="2152" gradientUnits="userSpaceOnUse"><stop stop-color="#fff"/><stop offset="1" stop-color="#fff" stop-opacity="0"/></linearGradient><linearGradient id="paint35_linear_5338_8253" x1="42" y1="1513" x2="1092" y2="1512" gradientUnits="userSpaceOnUse"><stop stop-color="#443E52" stop-opacity="0"/><stop offset=".53646" stop-color="#443E52"/><stop offset="1" stop-color="#443E52" stop-opacity="0"/></linearGradient><linearGradient id="paint36_linear_5338_8253" x1="42" y1="1761" x2="1092" y2="1760" gradientUnits="userSpaceOnUse"><stop stop-color="#443E52" stop-opacity="0"/><stop offset=".53646" stop-color="#443E52"/><stop offset="1" stop-color="#443E52" stop-opacity="0"/></linearGradient><linearGradient id="paint37_linear_5338_8253" x1="42" y1="2015" x2="1092" y2="2014" gradientUnits="userSpaceOnUse"><stop stop-color="#443E52" stop-opacity="0"/><stop offset=".53646" stop-color="#443E52"/><stop offset="1" stop-color="#443E52" stop-opacity="0"/></linearGradient><linearGradient id="paint38_linear_5338_8253" x1="292" y1="380" x2="292" y2="421" gradientUnits="userSpaceOnUse"><stop stop-color="#fff"/><stop offset="1" stop-color="#fff" stop-opacity="0"/></linearGradient><linearGradient id="paint39_linear_5338_8253" x1="154" y1="437" x2="154" y2="478" gradientUnits="userSpaceOnUse"><stop stop-color="#fff"/><stop offset="1" stop-color="#fff" stop-opacity="0"/></linearGradient><linearGradient id="paint40_linear_5338_8253" x1="125.051" y1="65.6523" x2="125.051" y2="171.946" gradientUnits="userSpaceOnUse"><stop stop-color="#fff"/><stop offset="1" stop-color="#fff" stop-opacity="0"/></linearGradient><linearGradient id="paint41_linear_5338_8253" x1="1042.62" y1="65.6533" x2="1042.62" y2="171.947" gradientUnits="userSpaceOnUse"><stop stop-color="#fff"/><stop offset="1" stop-color="#fff" stop-opacity="0"/></linearGradient><filter id="filter0_d_5338_8253" x="472" y="2241" width="224" height="224" filterUnits="userSpaceOnUse" color-interpolation-filters="sRGB"><feFlood flood-opacity="0" result="BackgroundImageFix"/><feColorMatrix in="SourceAlpha" values="0 0 0 0 0 0 0 0 0 0 0 0 0 0 0 0 0 0 127 0" result="hardAlpha"/><feOffset dy="4"/><feGaussianBlur stdDeviation="17"/><feComposite in2="hardAlpha" operator="out"/><feColorMatrix values="0 0 0 0 0 0 0 0 0 0 0 0 0 0 0 0 0 0 0.18 0"/><feBlend in2="BackgroundImageFix" result="effect1_dropShadow_5338_8253"/><feBlend in="SourceGraphic" in2="effect1_dropShadow_5338_8253" result="shape"/></filter><filter id="filter1_d_5338_8253" x="482" y="715" width="204" height="109" filterUnits="userSpaceOnUse" color-interpolation-filters="sRGB"><feFlood flood-opacity="0" result="BackgroundImageFix"/><feColorMatrix in="SourceAlpha" values="0 0 0 0 0 0 0 0 0 0 0 0 0 0 0 0 0 0 127 0" result="hardAlpha"/><feOffset dy="4"/><feGaussianBlur stdDeviation="17"/><feComposite in2="hardAlpha" operator="out"/><feColorMatrix values="0 0 0 0 0 0 0 0 0 0 0 0 0 0 0 0 0 0 0.18 0"/><feBlend in2="BackgroundImageFix" result="effect1_dropShadow_5338_8253"/><feBlend in="SourceGraphic" in2="effect1_dropShadow_5338_8253" result="shape"/></filter><filter id="filter2_d_5338_8253" x="506" y="782" width="156" height="109" filterUnits="userSpaceOnUse" color-interpolation-filters="sRGB"><feFlood flood-opacity="0" result="BackgroundImageFix"/><feColorMatrix in="SourceAlpha" values="0 0 0 0 0 0 0 0 0 0 0 0 0 0 0 0 0 0 127 0" result="hardAlpha"/><feOffset dy="4"/><feGaussianBlur stdDeviation="17"/><feComposite in2="hardAlpha" operator="out"/><feColorMatrix values="0 0 0 0 0 0 0 0 0 0 0 0 0 0 0 0 0 0 0.18 0"/><feBlend in2="BackgroundImageFix" result="effect1_dropShadow_5338_8253"/><feBlend in="SourceGraphic" in2="effect1_dropShadow_5338_8253" result="shape"/></filter><filter id="filter3_d_5338_8253" x="489" y="841" width="190" height="109" filterUnits="userSpaceOnUse" color-interpolation-filters="sRGB"><feFlood flood-opacity="0" result="BackgroundImageFix"/><feColorMatrix in="SourceAlpha" values="0 0 0 0 0 0 0 0 0 0 0 0 0 0 0 0 0 0 127 0" result="hardAlpha"/><feOffset dy="4"/><feGaussianBlur stdDeviation="17"/><feComposite in2="hardAlpha" operator="out"/><feColorMatrix values="0 0 0 0 0 0 0 0 0 0 0 0 0 0 0 0 0 0 0.18 0"/><feBlend in2="BackgroundImageFix" result="effect1_dropShadow_5338_8253"/><feBlend in="SourceGraphic" in2="effect1_dropShadow_5338_8253" result="shape"/></filter><filter id="filter4_d_5338_8253" x="482" y="1117" width="204" height="109" filterUnits="userSpaceOnUse" color-interpolation-filters="sRGB"><feFlood flood-opacity="0" result="BackgroundImageFix"/><feColorMatrix in="SourceAlpha" values="0 0 0 0 0 0 0 0 0 0 0 0 0 0 0 0 0 0 127 0" result="hardAlpha"/><feOffset dy="4"/><feGaussianBlur stdDeviation="17"/><feComposite in2="hardAlpha" operator="out"/><feColorMatrix values="0 0 0 0 0 0 0 0 0 0 0 0 0 0 0 0 0 0 0.18 0"/><feBlend in2="BackgroundImageFix" result="effect1_dropShadow_5338_8253"/><feBlend in="SourceGraphic" in2="effect1_dropShadow_5338_8253" result="shape"/></filter><filter id="filter5_d_5338_8253" x="506" y="1184" width="156" height="109" filterUnits="userSpaceOnUse" color-interpolation-filters="sRGB"><feFlood flood-opacity="0" result="BackgroundImageFix"/><feColorMatrix in="SourceAlpha" values="0 0 0 0 0 0 0 0 0 0 0 0 0 0 0 0 0 0 127 0" result="hardAlpha"/><feOffset dy="4"/><feGaussianBlur stdDeviation="17"/><feComposite in2="hardAlpha" operator="out"/><feColorMatrix values="0 0 0 0 0 0 0 0 0 0 0 0 0 0 0 0 0 0 0.18 0"/><feBlend in2="BackgroundImageFix" result="effect1_dropShadow_5338_8253"/><feBlend in="SourceGraphic" in2="effect1_dropShadow_5338_8253" result="shape"/></filter><filter id="filter6_d_5338_8253" x="489" y="1243" width="190" height="109" filterUnits="userSpaceOnUse" color-interpolation-filters="sRGB"><feFlood flood-opacity="0" result="BackgroundImageFix"/><feColorMatrix in="SourceAlpha" values="0 0 0 0 0 0 0 0 0 0 0 0 0 0 0 0 0 0 127 0" result="hardAlpha"/><feOffset dy="4"/><feGaussianBlur stdDeviation="17"/><feComposite in2="hardAlpha" operator="out"/><feColorMatrix values="0 0 0 0 0 0 0 0 0 0 0 0 0 0 0 0 0 0 0.18 0"/><feBlend in2="BackgroundImageFix" result="effect1_dropShadow_5338_8253"/><feBlend in="SourceGraphic" in2="effect1_dropShadow_5338_8253" result="shape"/></filter><filter id="filter7_d_5338_8253" x="859" y="1117" width="204" height="109" filterUnits="userSpaceOnUse" color-interpolation-filters="sRGB"><feFlood flood-opacity="0" result="BackgroundImageFix"/><feColorMatrix in="SourceAlpha" values="0 0 0 0 0 0 0 0 0 0 0 0 0 0 0 0 0 0 127 0" result="hardAlpha"/><feOffset dy="4"/><feGaussianBlur stdDeviation="17"/><feComposite in2="hardAlpha" operator="out"/><feColorMatrix values="0 0 0 0 0 0 0 0 0 0 0 0 0 0 0 0 0 0 0.18 0"/><feBlend in2="BackgroundImageFix" result="effect1_dropShadow_5338_8253"/><feBlend in="SourceGraphic" in2="effect1_dropShadow_5338_8253" result="shape"/></filter><filter id="filter8_d_5338_8253" x="883" y="1184" width="156" height="109" filterUnits="userSpaceOnUse" color-interpolation-filters="sRGB"><feFlood flood-opacity="0" result="BackgroundImageFix"/><feColorMatrix in="SourceAlpha" values="0 0 0 0 0 0 0 0 0 0 0 0 0 0 0 0 0 0 127 0" result="hardAlpha"/><feOffset dy="4"/><feGaussianBlur stdDeviation="17"/><feComposite in2="hardAlpha" operator="out"/><feColorMatrix values="0 0 0 0 0 0 0 0 0 0 0 0 0 0 0 0 0 0 0.18 0"/><feBlend in2="BackgroundImageFix" result="effect1_dropShadow_5338_8253"/><feBlend in="SourceGraphic" in2="effect1_dropShadow_5338_8253" result="shape"/></filter><filter id="filter9_d_5338_8253" x="866" y="1243" width="190" height="109" filterUnits="userSpaceOnUse" color-interpolation-filters="sRGB"><feFlood flood-opacity="0" result="BackgroundImageFix"/><feColorMatrix in="SourceAlpha" values="0 0 0 0 0 0 0 0 0 0 0 0 0 0 0 0 0 0 127 0" result="hardAlpha"/><feOffset dy="4"/><feGaussianBlur stdDeviation="17"/><feComposite in2="hardAlpha" operator="out"/><feColorMatrix values="0 0 0 0 0 0 0 0 0 0 0 0 0 0 0 0 0 0 0.18 0"/><feBlend in2="BackgroundImageFix" result="effect1_dropShadow_5338_8253"/><feBlend in="SourceGraphic" in2="effect1_dropShadow_5338_8253" result="shape"/></filter><filter id="filter10_d_5338_8253" x="859" y="715" width="204" height="109" filterUnits="userSpaceOnUse" color-interpolation-filters="sRGB"><feFlood flood-opacity="0" result="BackgroundImageFix"/><feColorMatrix in="SourceAlpha" values="0 0 0 0 0 0 0 0 0 0 0 0 0 0 0 0 0 0 127 0" result="hardAlpha"/><feOffset dy="4"/><feGaussianBlur stdDeviation="17"/><feComposite in2="hardAlpha" operator="out"/><feColorMatrix values="0 0 0 0 0 0 0 0 0 0 0 0 0 0 0 0 0 0 0.18 0"/><feBlend in2="BackgroundImageFix" result="effect1_dropShadow_5338_8253"/><feBlend in="SourceGraphic" in2="effect1_dropShadow_5338_8253" result="shape"/></filter><filter id="filter11_d_5338_8253" x="883" y="782" width="156" height="109" filterUnits="userSpaceOnUse" color-interpolation-filters="sRGB"><feFlood flood-opacity="0" result="BackgroundImageFix"/><feColorMatrix in="SourceAlpha" values="0 0 0 0 0 0 0 0 0 0 0 0 0 0 0 0 0 0 127 0" result="hardAlpha"/><feOffset dy="4"/><feGaussianBlur stdDeviation="17"/><feComposite in2="hardAlpha" operator="out"/><feColorMatrix values="0 0 0 0 0 0 0 0 0 0 0 0 0 0 0 0 0 0 0.18 0"/><feBlend in2="BackgroundImageFix" result="effect1_dropShadow_5338_8253"/><feBlend in="SourceGraphic" in2="effect1_dropShadow_5338_8253" result="shape"/></filter><filter id="filter12_d_5338_8253" x="866" y="841" width="190" height="109" filterUnits="userSpaceOnUse" color-interpolation-filters="sRGB"><feFlood flood-opacity="0" result="BackgroundImageFix"/><feColorMatrix in="SourceAlpha" values="0 0 0 0 0 0 0 0 0 0 0 0 0 0 0 0 0 0 127 0" result="hardAlpha"/><feOffset dy="4"/><feGaussianBlur stdDeviation="17"/><feComposite in2="hardAlpha" operator="out"/><feColorMatrix values="0 0 0 0 0 0 0 0 0 0 0 0 0 0 0 0 0 0 0.18 0"/><feBlend in2="BackgroundImageFix" result="effect1_dropShadow_5338_8253"/><feBlend in="SourceGraphic" in2="effect1_dropShadow_5338_8253" result="shape"/></filter><filter id="filter13_d_5338_8253" x="105" y="1112" width="204" height="109" filterUnits="userSpaceOnUse" color-interpolation-filters="sRGB"><feFlood flood-opacity="0" result="BackgroundImageFix"/><feColorMatrix in="SourceAlpha" values="0 0 0 0 0 0 0 0 0 0 0 0 0 0 0 0 0 0 127 0" result="hardAlpha"/><feOffset dy="4"/><feGaussianBlur stdDeviation="17"/><feComposite in2="hardAlpha" operator="out"/><feColorMatrix values="0 0 0 0 0 0 0 0 0 0 0 0 0 0 0 0 0 0 0.18 0"/><feBlend in2="BackgroundImageFix" result="effect1_dropShadow_5338_8253"/><feBlend in="SourceGraphic" in2="effect1_dropShadow_5338_8253" result="shape"/></filter><filter id="filter14_d_5338_8253" x="129" y="1179" width="156" height="109" filterUnits="userSpaceOnUse" color-interpolation-filters="sRGB"><feFlood flood-opacity="0" result="BackgroundImageFix"/><feColorMatrix in="SourceAlpha" values="0 0 0 0 0 0 0 0 0 0 0 0 0 0 0 0 0 0 127 0" result="hardAlpha"/><feOffset dy="4"/><feGaussianBlur stdDeviation="17"/><feComposite in2="hardAlpha" operator="out"/><feColorMatrix values="0 0 0 0 0 0 0 0 0 0 0 0 0 0 0 0 0 0 0.18 0"/><feBlend in2="BackgroundImageFix" result="effect1_dropShadow_5338_8253"/><feBlend in="SourceGraphic" in2="effect1_dropShadow_5338_8253" result="shape"/></filter><filter id="filter15_d_5338_8253" x="112" y="1238" width="190" height="109" filterUnits="userSpaceOnUse" color-interpolation-filters="sRGB"><feFlood flood-opacity="0" result="BackgroundImageFix"/><feColorMatrix in="SourceAlpha" values="0 0 0 0 0 0 0 0 0 0 0 0 0 0 0 0 0 0 127 0" result="hardAlpha"/><feOffset dy="4"/><feGaussianBlur stdDeviation="17"/><feComposite in2="hardAlpha" operator="out"/><feColorMatrix values="0 0 0 0 0 0 0 0 0 0 0 0 0 0 0 0 0 0 0.18 0"/><feBlend in2="BackgroundImageFix" result="effect1_dropShadow_5338_8253"/><feBlend in="SourceGraphic" in2="effect1_dropShadow_5338_8253" result="shape"/></filter><filter id="filter16_f_5338_8253" x="103.035" y="544.811" width="176.566" height="180.317" filterUnits="userSpaceOnUse" color-interpolation-filters="sRGB"><feFlood flood-opacity="0" result="BackgroundImageFix"/><feBlend in="SourceGraphic" in2="BackgroundImageFix" result="shape"/><feGaussianBlur stdDeviation="22" result="effect1_foregroundBlur_5338_8253"/></filter><filter id="filter17_f_5338_8253" x="14.4941" y="1518.08" width="205.658" height="210.64" filterUnits="userSpaceOnUse" color-interpolation-filters="sRGB"><feFlood flood-opacity="0" result="BackgroundImageFix"/><feBlend in="SourceGraphic" in2="BackgroundImageFix" result="shape"/><feGaussianBlur stdDeviation="22" result="effect1_foregroundBlur_5338_8253"/></filter><filter id="filter18_d_5338_8253" x="214" y="1804" width="154" height="109" filterUnits="userSpaceOnUse" color-interpolation-filters="sRGB"><feFlood flood-opacity="0" result="BackgroundImageFix"/><feColorMatrix in="SourceAlpha" values="0 0 0 0 0 0 0 0 0 0 0 0 0 0 0 0 0 0 127 0" result="hardAlpha"/><feOffset dy="4"/><feGaussianBlur stdDeviation="17"/><feComposite in2="hardAlpha" operator="out"/><feColorMatrix values="0 0 0 0 0 0 0 0 0 0 0 0 0 0 0 0 0 0 0.18 0"/><feBlend in2="BackgroundImageFix" result="effect1_dropShadow_5338_8253"/><feBlend in="SourceGraphic" in2="effect1_dropShadow_5338_8253" result="shape"/></filter><filter id="filter19_d_5338_8253" x="214" y="2058" width="154" height="109" filterUnits="userSpaceOnUse" color-interpolation-filters="sRGB"><feFlood flood-opacity="0" result="BackgroundImageFix"/><feColorMatrix in="SourceAlpha" values="0 0 0 0 0 0 0 0 0 0 0 0 0 0 0 0 0 0 127 0" result="hardAlpha"/><feOffset dy="4"/><feGaussianBlur stdDeviation="17"/><feComposite in2="hardAlpha" operator="out"/><feColorMatrix values="0 0 0 0 0 0 0 0 0 0 0 0 0 0 0 0 0 0 0.18 0"/><feBlend in2="BackgroundImageFix" result="effect1_dropShadow_5338_8253"/><feBlend in="SourceGraphic" in2="effect1_dropShadow_5338_8253" result="shape"/></filter><filter id="filter20_d_5338_8253" x="214" y="1861" width="226" height="109" filterUnits="userSpaceOnUse" color-interpolation-filters="sRGB"><feFlood flood-opacity="0" result="BackgroundImageFix"/><feColorMatrix in="SourceAlpha" values="0 0 0 0 0 0 0 0 0 0 0 0 0 0 0 0 0 0 127 0" result="hardAlpha"/><feOffset dy="4"/><feGaussianBlur stdDeviation="17"/><feComposite in2="hardAlpha" operator="out"/><feColorMatrix values="0 0 0 0 0 0 0 0 0 0 0 0 0 0 0 0 0 0 0.18 0"/><feBlend in2="BackgroundImageFix" result="effect1_dropShadow_5338_8253"/><feBlend in="SourceGraphic" in2="effect1_dropShadow_5338_8253" result="shape"/></filter><filter id="filter21_d_5338_8253" x="214" y="2115" width="226" height="109" filterUnits="userSpaceOnUse" color-interpolation-filters="sRGB"><feFlood flood-opacity="0" result="BackgroundImageFix"/><feColorMatrix in="SourceAlpha" values="0 0 0 0 0 0 0 0 0 0 0 0 0 0 0 0 0 0 127 0" result="hardAlpha"/><feOffset dy="4"/><feGaussianBlur stdDeviation="17"/><feComposite in2="hardAlpha" operator="out"/><feColorMatrix values="0 0 0 0 0 0 0 0 0 0 0 0 0 0 0 0 0 0 0.18 0"/><feBlend in2="BackgroundImageFix" result="effect1_dropShadow_5338_8253"/><feBlend in="SourceGraphic" in2="effect1_dropShadow_5338_8253" result="shape"/></filter><filter id="filter22_d_5338_8253" x="847" y="1797" width="253" height="132" filterUnits="userSpaceOnUse" color-interpolation-filters="sRGB"><feFlood flood-opacity="0" result="BackgroundImageFix"/><feColorMatrix in="SourceAlpha" values="0 0 0 0 0 0 0 0 0 0 0 0 0 0 0 0 0 0 127 0" result="hardAlpha"/><feOffset dy="4"/><feGaussianBlur stdDeviation="17"/><feComposite in2="hardAlpha" operator="out"/><feColorMatrix values="0 0 0 0 0 0 0 0 0 0 0 0 0 0 0 0 0 0 0.18 0"/><feBlend in2="BackgroundImageFix" result="effect1_dropShadow_5338_8253"/><feBlend in="SourceGraphic" in2="effect1_dropShadow_5338_8253" result="shape"/></filter><filter id="filter23_d_5338_8253" x="847" y="2058" width="253" height="132" filterUnits="userSpaceOnUse" color-interpolation-filters="sRGB"><feFlood flood-opacity="0" result="BackgroundImageFix"/><feColorMatrix in="SourceAlpha" values="0 0 0 0 0 0 0 0 0 0 0 0 0 0 0 0 0 0 127 0" result="hardAlpha"/><feOffset dy="4"/><feGaussianBlur stdDeviation="17"/><feComposite in2="hardAlpha" operator="out"/><feColorMatrix values="0 0 0 0 0 0 0 0 0 0 0 0 0 0 0 0 0 0 0.18 0"/><feBlend in2="BackgroundImageFix" result="effect1_dropShadow_5338_8253"/><feBlend in="SourceGraphic" in2="effect1_dropShadow_5338_8253" result="shape"/></filter><filter id="filter24_d_5338_8253" x="858.609" y="1659.34" width="48.4805" height="48.4844" filterUnits="userSpaceOnUse" color-interpolation-filters="sRGB"><feFlood flood-opacity="0" result="BackgroundImageFix"/><feColorMatrix in="SourceAlpha" values="0 0 0 0 0 0 0 0 0 0 0 0 0 0 0 0 0 0 127 0" result="hardAlpha"/><feOffset dy="4"/><feGaussianBlur stdDeviation="3.5"/><feComposite in2="hardAlpha" operator="out"/><feColorMatrix values="0 0 0 0 0 0 0 0 0 0 0 0 0 0 0 0 0 0 0.05 0"/><feBlend in2="BackgroundImageFix" result="effect1_dropShadow_5338_8253"/><feBlend in="SourceGraphic" in2="effect1_dropShadow_5338_8253" result="shape"/></filter><filter id="filter25_d_5338_8253" x="38" y="350" width="508" height="109" filterUnits="userSpaceOnUse" color-interpolation-filters="sRGB"><feFlood flood-opacity="0" result="BackgroundImageFix"/><feColorMatrix in="SourceAlpha" values="0 0 0 0 0 0 0 0 0 0 0 0 0 0 0 0 0 0 127 0" result="hardAlpha"/><feOffset dy="4"/><feGaussianBlur stdDeviation="17"/><feComposite in2="hardAlpha" operator="out"/><feColorMatrix values="0 0 0 0 0 0 0 0 0 0 0 0 0 0 0 0 0 0 0.18 0"/><feBlend in2="BackgroundImageFix" result="effect1_dropShadow_5338_8253"/><feBlend in="SourceGraphic" in2="effect1_dropShadow_5338_8253" result="shape"/></filter><filter id="filter26_d_5338_8253" x="38" y="407" width="232" height="109" filterUnits="userSpaceOnUse" color-interpolation-filters="sRGB"><feFlood flood-opacity="0" result="BackgroundImageFix"/><feColorMatrix in="SourceAlpha" values="0 0 0 0 0 0 0 0 0 0 0 0 0 0 0 0 0 0 127 0" result="hardAlpha"/><feOffset dy="4"/><feGaussianBlur stdDeviation="17"/><feComposite in2="hardAlpha" operator="out"/><feColorMatrix values="0 0 0 0 0 0 0 0 0 0 0 0 0 0 0 0 0 0 0.18 0"/><feBlend in2="BackgroundImageFix" result="effect1_dropShadow_5338_8253"/><feBlend in="SourceGraphic" in2="effect1_dropShadow_5338_8253" result="shape"/></filter><filter id="filter27_d_5338_8253" x="37.9043" y="35.6523" width="174.293" height="174.294" filterUnits="userSpaceOnUse" color-interpolation-filters="sRGB"><feFlood flood-opacity="0" result="BackgroundImageFix"/><feColorMatrix in="SourceAlpha" values="0 0 0 0 0 0 0 0 0 0 0 0 0 0 0 0 0 0 127 0" result="hardAlpha"/><feOffset dy="4"/><feGaussianBlur stdDeviation="17"/><feComposite in2="hardAlpha" operator="out"/><feColorMatrix values="0 0 0 0 0 0 0 0 0 0 0 0 0 0 0 0 0 0 0.18 0"/><feBlend in2="BackgroundImageFix" result="effect1_dropShadow_5338_8253"/><feBlend in="SourceGraphic" in2="effect1_dropShadow_5338_8253" result="shape"/></filter><filter id="filter28_d_5338_8253" x="955.469" y="35.6533" width="174.293" height="174.294" filterUnits="userSpaceOnUse" color-interpolation-filters="sRGB"><feFlood flood-opacity="0" result="BackgroundImageFix"/><feColorMatrix in="SourceAlpha" values="0 0 0 0 0 0 0 0 0 0 0 0 0 0 0 0 0 0 127 0" result="hardAlpha"/><feOffset dy="4"/><feGaussianBlur stdDeviation="17"/><feComposite in2="hardAlpha" operator="out"/><feColorMatrix values="0 0 0 0 0 0 0 0 0 0 0 0 0 0 0 0 0 0 0.18 0"/><feBlend in2="BackgroundImageFix" result="effect1_dropShadow_5338_8253"/><feBlend in="SourceGraphic" in2="effect1_dropShadow_5338_8253" result="shape"/></filter></defs></svg>