<svg fill="none" height="864" viewBox="0 0 2963 864" width="2963" xmlns="http://www.w3.org/2000/svg" xmlns:xlink="http://www.w3.org/1999/xlink"><linearGradient id="a" gradientUnits="userSpaceOnUse" x1="-88.5" x2="843.5" y1="273.5" y2="832"><stop offset="0" stop-color="#e54033"/><stop offset=".489583" stop-color="#feca1a"/><stop offset="1" stop-color="#afd803"/></linearGradient><linearGradient id="b"><stop offset=".15" stop-color="#6cbf00"/><stop offset="1" stop-color="#afd803"/></linearGradient><linearGradient id="c" gradientUnits="userSpaceOnUse" x1="263632" x2="205286" xlink:href="#b" y1="31154.5" y2="-28862.6"/><linearGradient id="d" gradientUnits="userSpaceOnUse" x1="72.43" x2="656.43" y1="766.73" y2="624.73"><stop offset=".21" stop-color="#e54033"/><stop offset=".84" stop-color="#feca1a"/></linearGradient><linearGradient id="e" gradientUnits="userSpaceOnUse" x1="532.54" x2="712.74" y1="727.34" y2="728.69"><stop offset="0" stop-color="#feca1a"/><stop offset=".4" stop-color="#feca1a"/><stop offset="1" stop-color="#afd803"/></linearGradient><linearGradient id="f" gradientUnits="userSpaceOnUse" x1="124.65" x2="494.1" y1="770.37" y2="270.2"><stop offset=".16" stop-color="#e54033"/><stop offset=".84" stop-color="#feca1a"/></linearGradient><linearGradient id="g" gradientUnits="userSpaceOnUse" x1="70.85" x2="54.49" y1="273.39" y2="596.45"><stop offset="0" stop-color="#feca1a"/><stop offset=".76" stop-color="#e54033"/></linearGradient><linearGradient id="h" gradientUnits="userSpaceOnUse" x1="251.58" x2="152.91" y1="189.5" y2="564.17"><stop offset=".16" stop-color="#feca1a"/><stop offset="1" stop-color="#e54033"/></linearGradient><linearGradient id="i" gradientUnits="userSpaceOnUse" x1="289.8" x2="655.13" xlink:href="#b" y1="10.1199" y2="144.78"/><linearGradient id="j" gradientUnits="userSpaceOnUse" x1="263631" x2="205285" xlink:href="#b" y1="31154.2" y2="-28862.9"/><g fill="#fff"><path d="m1274.13 488.608c3.62 6.823 6.92 13.967 9.91 21.431 3.2 7.25 6.29 14.607 9.27 22.071 2.98-7.677 6.08-15.247 9.27-22.711 3.2-7.464 6.61-14.607 10.23-21.431l136.85-256.214c1.71-3.198 3.41-5.757 5.12-7.677 1.91-1.919 3.94-3.305 6.07-4.158 2.35-.853 4.9-1.386 7.67-1.599 2.78-.213 6.08-.32 9.92-.32h64.9v462.528h-75.77v-298.756c0-5.544.1-11.622.32-18.232.42-6.611.95-13.328 1.59-20.152l-139.72 262.291c-3.2 5.971-7.35 10.662-12.47 14.074-5.12 3.199-11.08 4.798-17.9 4.798h-11.83c-6.83 0-12.79-1.599-17.91-4.798-5.12-3.412-9.27-8.103-12.47-14.074l-141.64-263.251c.85 7.037 1.38 13.968 1.6 20.792.42 6.61.64 12.794.64 18.552v298.756h-75.78v-462.528h64.91c3.83 0 7.14.107 9.91.32s5.22.746 7.35 1.599c2.35.853 4.48 2.239 6.4 4.158 1.91 1.92 3.73 4.479 5.43 7.677z"/><path d="m1889.09 680.528h-35.49c-7.46 0-13.32-1.066-17.58-3.199-4.26-2.345-7.46-6.93-9.59-13.754l-7.04-23.35c-8.31 7.463-16.52 14.074-24.62 19.831-7.88 5.545-16.09 10.236-24.62 14.075-8.52 3.838-17.58 6.717-27.17 8.636-9.6 1.919-20.25 2.879-31.98 2.879-13.85 0-26.64-1.813-38.37-5.438-11.72-3.838-21.84-9.489-30.37-16.953-8.31-7.463-14.81-16.74-19.5-27.828-4.69-11.089-7.04-23.99-7.04-38.704 0-12.368 3.2-24.523 9.59-36.465 6.61-12.155 17.48-23.031 32.62-32.627 15.13-9.809 35.27-17.912 60.43-24.309 25.15-6.398 56.38-10.023 93.68-10.876v-19.192c0-21.964-4.69-38.171-14.07-48.62-9.17-10.662-22.59-15.993-40.29-15.993-12.79 0-23.44 1.493-31.97 4.478s-15.99 6.397-22.38 10.236c-6.18 3.625-11.94 6.93-17.27 9.916-5.33 2.985-11.19 4.478-17.58 4.478-5.33 0-9.91-1.386-13.75-4.159-3.84-2.772-6.93-6.184-9.27-10.235l-14.39-25.27c37.73-34.545 83.24-51.818 136.53-51.818 19.18 0 36.23 3.198 51.15 9.596 15.14 6.184 27.93 14.927 38.37 26.229 10.45 11.089 18.33 24.416 23.66 39.983 5.54 15.567 8.31 32.627 8.31 51.179zm-153.47-49.26c8.1 0 15.56-.746 22.38-2.239 6.82-1.492 13.22-3.731 19.19-6.717 6.18-2.985 12.04-6.61 17.58-10.875 5.76-4.479 11.51-9.703 17.27-15.674v-55.337c-23.02 1.066-42.31 3.092-57.87 6.078-15.35 2.772-27.71 6.397-37.09 10.875s-16.1 9.703-20.15 15.674c-3.83 5.97-5.75 12.474-5.75 19.511 0 13.861 4.05 23.777 12.15 29.748 8.31 5.971 19.08 8.956 32.29 8.956z"/><path d="m1966.75 680.528v-328.184h48.28c10.23 0 16.95 4.798 20.14 14.394l5.44 25.91c6.61-6.824 13.53-13.008 20.78-18.553 7.46-5.544 15.24-10.342 23.34-14.394 8.31-4.051 17.16-7.144 26.54-9.276s19.61-3.199 30.69-3.199c17.91 0 33.79 3.092 47.64 9.277 13.86 5.97 25.37 14.5 34.54 25.589 9.37 10.875 16.41 23.99 21.1 39.344 4.9 15.14 7.35 31.88 7.35 50.219v208.873h-78.97v-208.873c0-20.045-4.69-35.506-14.07-46.381-9.17-11.089-23.02-16.633-41.57-16.633-13.64 0-26.43 3.092-38.36 9.276-11.94 6.184-23.24 14.607-33.9 25.27v237.341z"/><path d="m2443.7 346.587c14.07 0 27.29 1.492 39.65 4.478 12.36 2.772 23.66 6.93 33.89 12.475h94.32v29.427c0 4.905-1.28 8.743-3.83 11.516-2.56 2.772-6.93 4.691-13.11 5.757l-29.42 5.438c2.13 5.544 3.73 11.409 4.8 17.593 1.28 6.184 1.92 12.688 1.92 19.512 0 16.206-3.31 30.92-9.92 44.141-6.39 13.008-15.34 24.097-26.85 33.266-11.3 9.17-24.84 16.314-40.61 21.431-15.56 4.905-32.51 7.357-50.84 7.357-12.36 0-24.4-1.172-36.13-3.518-10.23 6.184-15.34 13.114-15.34 20.791 0 6.611 2.98 11.515 8.95 14.714 6.18 2.986 14.17 5.118 23.98 6.397 10.02 1.28 21.31 2.133 33.89 2.559 12.58.214 25.47.853 38.69 1.92 13.21 1.066 26.11 2.985 38.69 5.757 12.57 2.559 23.76 6.717 33.57 12.475 10.02 5.758 18.01 13.648 23.98 23.67 6.18 9.809 9.27 22.498 9.27 38.064 0 14.501-3.62 28.575-10.87 42.223-7.04 13.648-17.37 25.803-31.02 36.465-13.42 10.662-29.94 19.192-49.55 25.589-19.61 6.611-42 9.916-67.15 9.916-24.94 0-46.57-2.452-64.9-7.357-18.34-4.691-33.58-11.089-45.73-19.192-11.93-7.89-20.89-17.06-26.85-27.509-5.97-10.449-8.96-21.324-8.96-32.626 0-15.354 4.69-28.255 14.07-38.704s22.38-18.765 39.01-24.95c-8.1-4.478-14.6-10.449-19.5-17.912-4.91-7.464-7.36-17.166-7.36-29.108 0-4.905.85-9.916 2.56-15.034 1.71-5.331 4.26-10.555 7.67-15.673 3.63-5.118 8.1-9.916 13.43-14.394 5.33-4.692 11.62-8.85 18.87-12.475-16.63-8.956-29.74-20.898-39.33-35.825-9.38-14.927-14.07-32.413-14.07-52.458 0-16.207 3.2-30.814 9.59-43.822 6.61-13.221 15.67-24.417 27.18-33.586 11.72-9.383 25.47-16.527 41.25-21.431 15.98-4.905 33.35-7.357 52.11-7.357zm86.65 348.655c0-6.397-1.92-11.622-5.75-15.674-3.84-4.051-9.06-7.143-15.67-9.276-6.61-2.345-14.39-4.051-23.34-5.118-8.74-1.066-18.12-1.812-28.14-2.239-9.8-.639-20.04-1.173-30.69-1.599-10.45-.64-20.57-1.599-30.38-2.879-8.95 4.905-16.2 10.769-21.74 17.593-5.33 6.61-7.99 14.287-7.99 23.03 0 5.758 1.38 11.089 4.15 15.994 2.99 5.117 7.57 9.489 13.75 13.114 6.4 3.625 14.6 6.398 24.62 8.317 10.02 2.132 22.28 3.198 36.77 3.198 14.71 0 27.39-1.172 38.05-3.518 10.66-2.133 19.4-5.225 26.22-9.276 7.03-3.839 12.15-8.53 15.34-14.075 3.2-5.331 4.8-11.195 4.8-17.592zm-86.65-186.803c9.81 0 18.33-1.279 25.58-3.838 7.25-2.772 13.22-6.504 17.91-11.195 4.9-4.692 8.52-10.343 10.87-16.953 2.56-6.611 3.83-13.861 3.83-21.751 0-16.207-4.9-29.002-14.7-38.384-9.6-9.596-24.09-14.394-43.49-14.394-19.39 0-34 4.798-43.8 14.394-9.59 9.382-14.39 22.177-14.39 38.384 0 7.677 1.17 14.82 3.52 21.431 2.56 6.61 6.18 12.368 10.87 17.273 4.9 4.691 10.98 8.423 18.22 11.195 7.46 2.559 15.99 3.838 25.58 3.838z"/><path d="m2801.21 347.226c24.52 0 46.69 3.945 66.51 11.835 20.04 7.891 37.09 19.086 51.16 33.587 14.07 14.5 24.94 32.199 32.61 53.097s11.51 44.249 11.51 70.051c0 26.016-3.84 49.473-11.51 70.371s-18.54 38.704-32.61 53.418-31.12 26.016-51.16 33.906c-19.82 7.89-41.99 11.835-66.51 11.835-24.51 0-46.78-3.945-66.82-11.835s-37.2-19.192-51.48-33.906c-14.06-14.714-25.04-32.52-32.93-53.418-7.67-20.898-11.51-44.355-11.51-70.371 0-25.802 3.84-49.153 11.51-70.051 7.89-20.898 18.87-38.597 32.93-53.097 14.28-14.501 31.44-25.696 51.48-33.587 20.04-7.89 42.31-11.835 66.82-11.835zm0 277.325c27.29 0 47.43-9.169 60.43-27.508 13.22-18.339 19.83-45.208 19.83-80.607s-6.61-62.374-19.83-80.926c-13-18.553-33.14-27.829-60.43-27.829-27.71 0-48.17 9.383-61.38 28.149-13.22 18.552-19.83 45.421-19.83 80.606s6.61 62.054 19.83 80.607c13.21 18.339 33.67 27.508 61.38 27.508z"/></g><path clip-rule="evenodd" d="m337.746 201.289c.005-.006.009-.012.014-.019 36.29 18.62 76 25 114 24.89 22.08 20.28 40.45 44.1 57.71 68.56 7.157 10.217 13.612 20.908 19.32 32 13.199 25.416 22.906 52.308 32.728 79.517 2.88 7.98 5.771 15.988 8.762 23.993.937 3.426 1.916 6.854 2.937 10.284l.053-.014c15.17 52.03 37.32 107.61 67 153.5l-.029.012c9.817 15.075 20.814 29.349 32.889 42.688 2.376 2.57 4.806 5.116 7.239 7.665l.001.001.001.001.003.003c11.368 11.91 22.816 23.904 29.306 38.91 8.08 18.7 7.46 40.21 2.6 60-22.93 93.28-112.76 117.79-198.61 120.05l.041-.107c-32.189.641-64.155-1.758-92.501-4.663 0 0-136.71-14.15-252.59-98.87l-3.74-2.78s0 0 .001-.001c-13.526-10.079-26.43-20.968-38.641-32.609-32.48-31-61.38-66.16-83.48-104.76.1478-.148.2953-.297.4426-.445-2.6156-4.707-5.1231-9.461-7.5226-14.265-21.38-42.79-34.41-89.37-35.000001-138.88-1.00563-83.077 27.415301-168.155 81.437601-229.837-.0192-.051-.0384-.102-.0576-.153 29.25-32.04 65.81-57.21 109.09-71.54 27.133-9.066 55.618-13.419 84.22-12.87 17.405 20.437 38.584 37.324 62.376 49.739zm-66.593 543.561c19.558-7.139 38.087-16.74 55.365-28.571-17.387 11.751-35.943 21.358-55.365 28.571z" fill="url(#a)" fill-rule="evenodd"/><path clip-rule="evenodd" d="m621.498 133.628c.014 0 .028 0 .042-.001l1.18-.76c-152.42-260-351.72-55.2999-351.72-55.2999l.285.5014c-.012.0029-.023.0057-.035.0086 114.606 200.9329 332.414 67.0099 350.248 55.5509z" fill="url(#c)" fill-rule="evenodd"/><path d="m432.56 581.44c-42 100.4-122.64 166.88-220.34 176.95-2.1.28-28.84 2.39-43.6 1.3 115.88 84.72 252.59 98.87 252.59 98.87 29.27 3 62.4 5.46 95.65 4.59 11.71-30.57 18.3-65.57 16.41-105.28-4.39-92.23 49.09-139.58 107-163.87-29.68-45.89-51.83-101.47-67-153.5-45.22 12.03-102.65 49.86-140.71 140.94z" fill="url(#d)"/><path d="m531.44 757.22c1.9 39.71-6.06 75.54-17.77 106.11 85.85-2.26 175.68-26.77 198.61-120.05 4.86-19.79 5.48-41.3-2.6-60-7.88-18.22-23.07-32-36.55-46.58-12.611-13.931-24.046-28.882-34.19-44.7-57.86 24.3-111.89 73-107.5 165.22z" fill="url(#e)"/><path d="m570.28 430.23c-13.19-35.3-24.42-70.64-41.49-103.51-5.708-11.092-12.163-21.783-19.32-32-17.26-24.46-35.63-48.28-57.71-68.56-38 .11-77.71-6.27-114-24.89-36.76 52.14-78.82 140.59-40.32 241.55 56.85 149.1-58.52 251-132.56 314.09l3.74 2.78c13.882 1.083 27.835.883 41.68-.6 97.69-10.08 183-78.16 225-178.55 38.07-91.08 93.45-125.68 138.61-137.72-1.273-4.2-2.483-8.397-3.63-12.59z" fill="url(#f)"/><path d="m86.09 231.67c-56.6 62-86.440001 149.19-85.410001 234.28.590001 49.51 13.620001 96.09 35.000001 138.88 3.207 6.42 6.607 12.753 10.2 19 118.99-119.44 76-297.41 40.21-392.16z" fill="url(#g)"/><path d="m299.44 442.82c-38.5-101 2.62-188.87 39.33-241-24.209-12.463-45.746-29.54-63.4-50.27-28.602-.549-57.087 3.804-84.22 12.87-43.28 14.33-79.84 39.5-109.09 71.54 35 92.67 77.06 266.76-39.3 383.58 22.1 38.6 51 73.76 83.48 104.76 12.811 12.213 26.385 23.599 40.64 34.09 74.04-63.06 189.41-166.47 132.56-315.57z" fill="url(#h)"/><path d="m443 94.13c80.57 31.79 137 40.4 177.91 39.17l1.18-.76c-152.42-260-351.72-55.3-351.72-55.3l.29.51c42.99-7.62 105.47-9.99 172.34 16.38z" fill="url(#i)"/><path d="m444 92.33c-66.83-26.33-129.67-25.33-173.38-14.58 114.61 200.94 332.43 67 350.25 55.55-40.94 1.23-96.3-9.18-176.87-40.97z" fill="url(#j)"/></svg>