<svg fill="none" height="50" viewBox="0 0 212 50" width="212" xmlns="http://www.w3.org/2000/svg" xmlns:xlink="http://www.w3.org/1999/xlink"><linearGradient id="a" gradientUnits="userSpaceOnUse" x1="0" x2="39.2742" y1="28.3881" y2="28.3881"><stop offset="0" stop-color="#f84638"/><stop offset=".5" stop-color="#ff9c24"/><stop offset="1" stop-color="#a6cd03"/></linearGradient><g fill="#e5e3ec"><path d="m84.8619 33.3723-13.1954-23.98363h-4.5471v31.20543h5.3495v-19.4811l10.8773 19.4811h2.6748l11.0556-19.704v19.704h5.3494v-31.20543h-4.4578z"/><path d="m117.652 17.4129c-5.885 0-9.54 3.076-10.432 7.3556h5.26c.758-1.5603 2.229-2.7193 5.216-2.7193 3.567 0 5.439 1.8723 5.439 4.5916v.2675h-6.776c-6.865 0-10.343 3.1651-10.343 7.311 0 3.8338 3.255 6.9989 9.139 6.9989 4.503 0 7.044-1.9169 8.158-3.1651h.223l.892 2.541h3.967v-13.4629c0-5.7507-3.834-9.7183-10.743-9.7183zm-1.65 19.4366c-3.432 0-4.77-1.3374-4.77-3.0314 0-1.7832 1.427-3.1206 5.305-3.1206h6.598v1.0699c0 2.7194-2.363 5.0821-7.133 5.0821z"/><path d="m137.626 40.5941v-11.6352c0-3.9675 2.63-6.6868 6.643-6.6868 3.922 0 6.553 2.7193 6.553 6.6868v11.6352h5.215v-12.4376c0-6.5085-4.413-10.7436-10.743-10.7436-4.28 0-6.821 1.9169-7.802 3.1206h-.222l-.937-2.4965h-3.923v22.5571z"/><path d="m171.224 49.0642c7.712 0 12.259-4.1905 12.259-10.6099v-20.4173h-3.967l-.936 2.4965h-.223c-.937-.9808-3.478-3.1206-7.98-3.1206-6.865 0-11.769 4.8592-11.769 11.1448 0 6.3303 4.859 11.2786 11.814 11.2786 4.145 0 6.954-2.0507 7.578-2.9868h.223v1.7385c0 3.7447-2.719 5.8399-6.999 5.8399-3.254 0-5.26-.9361-6.107-2.4518h-5.394c.668 2.8976 3.923 7.0881 11.501 7.0881zm-.178-13.8642c-4.191 0-7.178-2.8085-7.178-6.5977s2.987-6.5531 7.178-6.5531c4.146 0 7.177 2.7639 7.177 6.5531s-2.987 6.5977-7.177 6.5977z"/><path d="m199.117 41.2182c7.311 0 12.883-5.2603 12.883-11.9026 0-6.6869-5.572-11.9027-12.883-11.9027s-12.884 5.2158-12.884 11.9027c0 6.6423 5.573 11.9026 12.884 11.9026zm0-4.77c-4.458 0-7.623-2.9868-7.623-7.1326 0-4.1459 3.165-7.1327 7.623-7.1327s7.667 2.9868 7.667 7.1327c0 4.1458-3.209 7.1326-7.667 7.1326z"/></g><path clip-rule="evenodd" d="m34.0927 7.28211.0023-.00006.0648-.04173c-8.3697-14.27561-19.3138-3.03631-19.3138-3.03631l.0035.00624c-.007.00125-.0141.0025-.0212.00375-.0004.00008.0005-.00008 0 0l.0257.00407.0076.01345-.0019.00049c6.2933 11.03249 18.2537 3.67927 19.233 3.0501zm-15.5814 3.71399c-.0001-.0001.0002.0001 0 0 .9613.4932 1.9668.8301 2.9839 1.0459 1.0912.2315 2.1962.3239 3.2762.3207 1.2124 1.1135 2.2217 2.4215 3.1695 3.7645.393.561.7475 1.148 1.0609 1.757.7248 1.3955 1.2579 2.872 1.7972 4.3659.1582.4382.3169.8779.4812 1.3174.0514.188.1051.3762.1612.5644l.0024-.0006c.833 2.8568 2.0493 5.9085 3.6791 8.4281-.0001-.0001.0001.0001 0 0 .5391.8275 1.1418 1.6121 1.8048 2.3443.1305.1412.2639.281.3976.4209.6242.654 1.2531 1.3128 1.6094 2.1367.4437 1.0267.4097 2.2077.1428 3.2943-.7439 3.0261-2.7703 4.734-5.2763 5.6507-1.7355.6348-3.7012.8902-5.6302.941l.002-.0053c-1.7676.0353-3.523-.0964-5.0796-.256 0 0-7.5071-.7769-13.87034-5.4285l-.205-.1534c-.74275-.5534-1.45129-1.1513-2.12182-1.7904-1.78356-1.7021-3.37054-3.6326-4.5841-5.752l.02401-.0241c-.14352-.2583-.28112-.5192-.41279-.7827-1.174033-2.3494-1.8895451-4.907-1.92194358-7.6254-.00091852-.0759-.00138964-.1518-.001415-.2277-.00171576-4.489 1.55599858-9.062 4.47338858-12.3926l-.00319-.0084c1.60619-1.7592 3.6138-3.14117 5.9904-3.92797 1.49-.49778 3.0541-.73678 4.6247-.70664.9557 1.122 2.1197 2.04831 3.426 2.72991z" fill="url(#a)" fill-rule="evenodd"/></svg>